<svg width="25" height="23" viewBox="0 0 25 23" fill="none" xmlns="http://www.w3.org/2000/svg">
<path d="M1.49682 9.94305L20.3962 9.11068C17.7009 6.49675 14.0142 2.86304 13.5733 2.1122C13.2766 1.6084 13.4375 0.953696 13.9308 0.651901C14.4217 0.351323 15.0568 0.51074 15.3559 1.00724C15.7729 1.62543 19.8707 5.69115 23.6051 9.2774C23.6098 9.28105 23.6134 9.28591 23.6182 9.28957L23.6194 9.29078C23.6218 9.29321 23.6229 9.29443 23.6253 9.29687C23.6873 9.35771 23.7421 9.42586 23.7886 9.50009C23.791 9.50374 23.7945 9.50861 23.7969 9.51226C23.8064 9.52808 23.8148 9.54633 23.8243 9.56215C23.8303 9.57432 23.8374 9.58528 23.8434 9.59744C23.8505 9.61326 23.8577 9.6303 23.8648 9.64734C23.8708 9.66072 23.8767 9.67411 23.8815 9.68871C23.8875 9.70453 23.8922 9.72157 23.8982 9.73739C23.903 9.75321 23.9077 9.76781 23.9113 9.78363C23.9161 9.79945 23.9196 9.81527 23.9232 9.83109C23.9268 9.84813 23.9304 9.86638 23.9328 9.88342C23.9351 9.89802 23.9375 9.91263 23.9399 9.92723C23.9423 9.94913 23.9447 9.96982 23.9459 9.99173C23.9459 10.0002 23.9482 10.01 23.9482 10.0185C23.9482 10.0209 23.9482 10.0246 23.9482 10.027C23.9482 10.0574 23.9482 10.0866 23.9482 10.1171C23.9482 10.1207 23.9482 10.1256 23.9482 10.1305C23.9459 10.1621 23.9423 10.1949 23.9375 10.2266C23.9351 10.2412 23.9328 10.2546 23.9292 10.268C23.9256 10.2862 23.922 10.3045 23.9173 10.3227C23.9137 10.3385 23.9089 10.3531 23.9042 10.369C23.8994 10.3848 23.8946 10.4018 23.8887 10.4176C23.8827 10.4335 23.8779 10.4481 23.8708 10.4639C23.8648 10.4785 23.8589 10.4943 23.8517 10.5089C23.8446 10.5247 23.8374 10.5393 23.8303 10.5539C23.8231 10.5685 23.816 10.5819 23.8076 10.5965C23.7993 10.6111 23.791 10.6257 23.7814 10.6403C23.7778 10.6464 23.7743 10.6525 23.7707 10.6574L16.949 21.0401C16.7476 21.3468 16.4176 21.5123 16.0827 21.5123C15.8826 21.5123 15.6812 21.4538 15.5024 21.3322C15.0246 21.0048 14.8971 20.3428 15.2177 19.8548L20.8907 11.2196L1.58738 12.069C1.57189 12.069 1.5564 12.069 1.5421 12.069C0.986831 12.069 0.525694 11.6224 0.500671 11.0504C0.475649 10.4627 0.922484 9.96617 1.49801 9.94062L1.49682 9.94305Z" fill="#292966" stroke="#292966"/>
</svg>
