<svg width="39" height="51" viewBox="0 0 39 51" fill="none" xmlns="http://www.w3.org/2000/svg">
<rect width="39" height="51" fill="#313EE2"/>
<path d="M32.4406 23.8773C31.1517 21.7492 28.5674 20.9788 26.2986 21.7332C24.1995 22.4307 22.7342 24.1549 21.6542 26.0731C21.4138 26.5005 21.1895 26.9378 20.9653 27.3744C20.9587 27.3531 20.952 27.3318 20.9447 27.3098C20.6594 26.4708 20.2587 25.7734 19.686 25.1109C18.5721 23.8248 16.9679 23.2605 15.3555 23.0741C14.7255 23.0011 14.0961 23.0285 13.4682 23.1129C12.4272 23.2521 11.5052 23.4947 10.6957 24.2348C9.4929 25.3345 9.21425 27.3417 9.09809 28.9032C8.88488 31.7735 9.76567 34.7367 11.2008 37.1721C12.5485 39.4584 14.3895 41.4488 16.4238 43.0924C17.831 44.2294 19.3448 45.1649 21.1822 45.241C22.9695 45.3148 24.8788 43.0863 25.8412 41.5256C26.2177 40.9149 26.2155 40.1406 25.9523 39.4949C25.6839 38.8377 23.4643 37.757 22.8298 37.5151C23.0209 37.4003 24.3355 35.8715 24.7178 35.1482C25.1001 34.4249 25.503 33.6697 25.5758 33.4909C25.8846 34.0804 28.2175 37.6223 28.8079 38.0064C29.4019 38.3928 29.8188 38.4871 30.4459 38.2141C31.112 37.9235 31.1973 37.5668 31.4466 36.8793C32.1774 34.8599 32.6964 32.7676 32.9905 30.6335C33.2949 28.4286 33.6537 25.8799 32.4413 23.8773H32.4406Z" fill="#FF7534"/>
<path d="M29.7475 35.8632C29.2608 35.7035 28.8153 35.5225 28.4153 35.3225C28.7432 34.8897 29.0483 34.4805 29.327 34.1071L29.4542 33.9359C31.0569 31.7866 32.5428 26.3682 31.2231 22.7707C30.5761 21.007 29.3226 19.8958 27.597 19.5558C25.0906 19.0614 22.8732 20.162 21.1837 22.738C20.7161 23.4507 20.3529 24.1793 20.0816 24.8121C19.5008 23.3975 18.4398 21.5356 16.6525 20.5476C15.0645 19.6699 13.2205 19.6463 11.1729 20.4784C9.16211 21.296 7.9115 22.643 7.4564 24.4836C6.52782 28.2377 9.26578 33.3724 11.8927 36.6284C14.6094 39.9962 17.004 41.7523 19.8978 42.5007C20.0537 42.5411 20.2154 42.5616 20.3838 42.5616C21.6395 42.5616 23.2504 41.4314 25.3752 39.0652C25.6619 39.4189 25.9009 39.8813 26.0869 40.4472C26.1773 40.721 26.4251 40.8982 26.6956 40.8982C26.7397 40.8982 26.7846 40.8937 26.8287 40.8838C27.147 40.8146 27.3654 40.5096 27.3367 40.1742C27.2294 38.9063 27.3948 38.0339 27.8301 37.5821C28.169 37.2307 28.7145 37.0923 29.4983 37.1608C29.8247 37.1897 30.1195 36.9592 30.1835 36.6268C30.2475 36.2945 30.0593 35.9659 29.7475 35.8632ZM20.2103 41.2085C17.601 40.5339 15.4093 38.9086 12.8808 35.7742C12.278 35.0274 10.7575 33.0217 9.66279 30.5446C8.6651 28.2879 8.33352 26.3051 8.7026 24.8114C9.05403 23.3891 10.0164 22.3768 11.6427 21.7151C12.4816 21.3743 13.2705 21.204 14.005 21.204C14.7395 21.204 15.4203 21.3751 16.0408 21.7166C18.5788 23.116 19.417 26.9235 19.425 26.9615C19.4883 27.2619 19.7419 27.4779 20.0389 27.4848C20.3345 27.4901 20.5992 27.287 20.6749 26.9896C20.6793 26.9714 21.1602 25.13 22.2645 23.4575C23.6599 21.3439 25.373 20.47 27.3559 20.8609C28.6366 21.1135 29.5328 21.9143 30.0196 23.2408C30.5239 24.6151 30.5813 26.5166 30.182 28.5937C29.8328 30.4099 29.1638 32.144 28.4352 33.1206L28.308 33.2917C28.0028 33.7009 27.6668 34.1504 27.3044 34.6281C27.2867 34.6144 27.2684 34.6007 27.2515 34.5862C27.2316 34.5703 27.2125 34.5543 27.1926 34.5383C27.1566 34.5087 27.1221 34.479 27.0875 34.4486C27.0706 34.4341 27.0537 34.4197 27.0375 34.4052C26.9934 34.3657 26.95 34.3246 26.9081 34.2843C26.903 34.279 26.8971 34.2744 26.8919 34.2691C26.8449 34.2227 26.7993 34.1763 26.7552 34.1284C26.7427 34.1147 26.7302 34.1002 26.7177 34.0865C26.6868 34.0523 26.6567 34.0188 26.6273 33.9839C26.6125 33.9664 26.5978 33.9481 26.5831 33.9306C26.5574 33.8987 26.5317 33.8667 26.5067 33.8348C26.492 33.8158 26.478 33.7975 26.464 33.7785C26.4398 33.7458 26.4162 33.7123 26.3927 33.6789C26.3802 33.6606 26.367 33.6424 26.3552 33.6241C26.3295 33.5853 26.3045 33.5465 26.2802 33.507C26.2721 33.4933 26.2633 33.4804 26.2552 33.4667C26.2236 33.4134 26.1927 33.3594 26.1641 33.3054C26.1582 33.294 26.1523 33.2826 26.1464 33.2712C26.1236 33.2278 26.1023 33.1845 26.081 33.1404C26.0722 33.1214 26.0633 33.1016 26.0545 33.0818C26.0376 33.0446 26.0214 33.0073 26.006 32.9693C25.9972 32.948 25.9883 32.9259 25.9803 32.9046C25.9656 32.8673 25.9516 32.8301 25.9383 32.7928C25.931 32.7707 25.9229 32.7494 25.9156 32.7274C25.9023 32.6871 25.8891 32.646 25.8773 32.6049C25.8714 32.5859 25.8656 32.5669 25.8597 32.5471C25.8428 32.4863 25.8266 32.4254 25.8119 32.3638C25.7376 32.0444 25.4487 31.8284 25.1325 31.8565C24.8164 31.8839 24.5664 32.1463 24.5444 32.4741C24.512 32.9594 24.4503 33.4096 24.3584 33.8257C24.3319 33.9443 24.3032 34.0607 24.2723 34.1732C24.2415 34.2866 24.2076 34.3968 24.1716 34.5041C23.7922 35.6343 23.1408 36.4588 22.2042 37.0018C22.0505 37.0908 21.9446 37.2368 21.8991 37.4019C21.8939 37.4201 21.8895 37.4391 21.8866 37.4574C21.8799 37.4947 21.8755 37.5334 21.8755 37.5715C21.8741 37.6483 21.8866 37.7274 21.9123 37.8035C22.0167 38.1084 22.3181 38.2917 22.6269 38.2377C22.7004 38.2248 22.7718 38.2142 22.8431 38.205C22.8637 38.202 22.8842 38.1997 22.9048 38.1974C22.957 38.1913 23.0085 38.186 23.0592 38.1815C23.0791 38.1799 23.0997 38.1777 23.1195 38.1761C23.185 38.1716 23.2489 38.1678 23.3121 38.1662C23.3144 38.1662 23.3173 38.1662 23.3195 38.1662C23.3857 38.1647 23.4496 38.1662 23.5129 38.1678C23.5298 38.1678 23.5467 38.1693 23.5643 38.17C23.6114 38.1723 23.6584 38.1754 23.7048 38.1799C23.7224 38.1815 23.7393 38.183 23.757 38.1853C23.8128 38.1913 23.868 38.1989 23.9224 38.2081C23.9268 38.2081 23.9305 38.2096 23.9349 38.2096C23.993 38.2195 24.0503 38.2324 24.1069 38.2461C24.1216 38.2499 24.1356 38.2537 24.1496 38.2575C24.1922 38.2689 24.2334 38.2811 24.2745 38.294C24.2834 38.2971 24.2922 38.2993 24.301 38.3024C21.6807 41.1827 20.5757 41.3013 20.211 41.207L20.2103 41.2085ZM26.9191 36.6421C26.5773 36.9972 26.3332 37.4498 26.1869 38.008C26.0413 37.8506 25.8869 37.7091 25.7237 37.5836C25.3053 37.2619 24.8304 37.0444 24.3025 36.9303C24.8017 36.3295 25.1811 35.6069 25.4406 34.7688C25.4538 34.7254 25.4685 34.6828 25.4818 34.6387C25.6913 34.9148 25.9317 35.1742 26.2016 35.4175C26.2016 35.4175 26.203 35.4183 26.203 35.4191C26.4052 35.6008 26.6236 35.7735 26.8596 35.9362C26.9382 35.991 27.0191 36.0442 27.1015 36.0967C27.1015 36.0967 27.1015 36.0967 27.1022 36.0967C27.1926 36.1545 27.2853 36.2108 27.3809 36.2656C27.2125 36.3721 27.0588 36.4975 26.9199 36.6421H26.9191Z" fill="#F5FFAB" stroke="#F5FFAB" stroke-width="0.5"/>
</svg>
