<svg width="39" height="51" viewBox="0 0 39 51" fill="none" xmlns="http://www.w3.org/2000/svg">
<g clip-path="url(#clip0_1538_8723)">
<rect x="0.5" y="0.5" width="38" height="50" fill="#FF7534"/>
<rect x="0.5" y="0.5" width="38" height="50" stroke="#FF7534"/>
<path d="M27.2462 32.6905C26.8234 31.8184 26.2815 31.0422 25.4019 30.5641C24.138 29.8773 22.6036 29.8901 21.4143 30.6876C21.2897 29.61 21.23 28.5303 21.2364 27.4495C21.4334 27.473 21.6304 27.4953 21.8253 27.5134C22.5632 27.5826 23.5918 27.1141 24.0837 26.5775C24.5682 26.0493 24.8663 25.4562 24.9622 24.7428C25.1623 23.2521 24.2338 21.5782 22.6739 21.2375C21.689 21.0224 20.7285 20.8776 19.7808 20.9063C19.4742 20.8797 19.1686 20.8584 18.8641 20.8499C17.8067 20.8233 16.7813 21.2503 16.0572 22.0127C15.9103 22.1671 15.7857 22.3268 15.6782 22.4908C13.6274 22.1245 11.5766 21.7593 9.52575 21.393C6.48681 20.851 3.36056 20.2589 0.268375 20.6476C-0.604761 20.7573 -1.32883 20.9287 -1.97729 21.5708C-2.1828 21.5303 -2.39363 21.5133 -2.60765 21.5229C-4.36777 21.6017 -5.76585 22.9263 -5.80205 24.7173C-5.834 26.306 -5.82867 27.8946 -5.78182 29.4823C-5.75946 30.2415 -5.72752 31.0007 -5.68706 31.7588C-5.65724 32.305 -5.66682 32.9407 -5.49646 33.4508C-5.15465 34.4762 -4.46999 35.245 -3.46801 35.6677C-2.53099 36.0627 -1.35758 36.0478 -0.340691 36.149C0.45578 36.2288 1.25225 36.3023 2.04979 36.3587C3.64379 36.4716 5.24099 36.5131 6.83713 36.4258C7.56013 36.3864 8.19475 36.1862 8.77294 35.7401C9.27233 35.3536 9.81538 34.7307 9.9176 34.0811C10.1572 32.5531 10.3978 31.0262 10.6374 29.4982C10.713 29.018 10.7886 28.5367 10.8642 28.0565C12.2005 28.3014 13.5358 28.5548 14.87 28.8018C14.8998 29.4471 14.952 30.0924 15.0297 30.7334C15.1628 31.828 15.2523 33.0515 15.6036 34.1109C15.9252 35.0799 16.5439 35.953 17.4575 36.4556C18.0048 36.757 18.6255 36.9838 19.2218 37.1722C20.2568 37.4981 21.4047 37.7068 22.4876 37.6908C22.6888 37.6876 22.8869 37.6663 23.0817 37.6312C23.7494 38.2019 24.5852 38.631 25.4222 38.8163C27.0502 39.1773 28.9552 38.3254 29.3513 36.5855C29.7101 35.0075 28.9051 33.1377 27.2462 32.6884V32.6905ZM21.4089 30.6908C21.4089 30.6908 21.4089 30.6908 21.4079 30.6908C21.3855 30.5226 21.3642 30.3554 21.3418 30.1903C21.3642 30.3565 21.3866 30.5236 21.4089 30.6897V30.6908ZM0.580362 29.8507C0.549483 28.9126 0.543094 27.9724 0.550548 27.0343C1.89646 27.0151 3.24023 27.0769 4.57762 27.2249C4.42962 28.1747 4.27735 29.1234 4.12508 30.0732C2.94209 30.0423 1.76016 29.9582 0.580362 29.8517V29.8507Z" fill="#F5FFAB"/>
<path d="M1.71574 43.0469C1.63801 41.3166 0.312335 39.8525 -1.47866 39.8525C-3.14933 39.8525 -4.75079 41.322 -4.67306 43.0469C-4.59533 44.7772 -3.26965 46.2413 -1.47866 46.2413C0.192013 46.2413 1.79347 44.7719 1.71574 43.0469Z" fill="#F5FFAB"/>
<path d="M23.163 43.6485C23.0853 41.9182 21.7596 40.4541 19.9686 40.4541C18.2979 40.4541 16.6965 41.9235 16.7742 43.6485C16.8519 45.3788 18.1776 46.8429 19.9686 46.8429C21.6393 46.8429 23.2407 45.3735 23.163 43.6485Z" fill="#F5FFAB"/>
<path d="M31.5393 31.9653C30.861 31.0431 29.7941 30.7067 28.7548 30.5363C28.7399 30.5331 28.725 30.531 28.7101 30.5288C28.3566 30.4724 28.0073 30.4351 27.6783 30.3989C26.9436 30.3191 26.0289 30.2211 25.7958 29.9379C25.3922 29.4502 25.5977 28.4834 25.8139 27.4601C25.9512 26.8106 26.0939 26.1397 26.1173 25.4583C26.1258 25.2208 26.1131 24.9876 26.0833 24.7587C26.0811 24.7374 26.0779 24.7172 26.0747 24.6959C25.9565 23.9005 25.6094 23.1711 25.061 22.5908C24.3231 21.8092 23.302 21.3662 22.1861 21.3417L-1.83902 20.8285C-4.05487 20.7827 -5.89591 22.546 -5.94276 24.7608L-6.24516 38.9386C-6.27391 40.2867 -5.63397 41.5282 -4.56917 42.2896C-5.06324 44.5438 -3.99631 46.7032 -2.18295 47.1067C-1.9849 47.1504 -1.78578 47.1717 -1.58773 47.1717C0.028642 47.1717 1.5758 45.7534 2.02408 43.7398C2.06241 43.5663 2.09223 43.3916 2.11246 43.217L17.206 43.8154C17.2635 45.4999 18.1036 46.8171 19.4016 47.1057C19.5667 47.1429 19.7338 47.161 19.9021 47.161C20.6059 47.161 21.3204 46.8437 21.922 46.2496C22.4885 45.6905 22.9282 44.9207 23.1827 44.0518L27.0618 44.2062H27.0788C27.1076 44.2073 27.1363 44.2073 27.164 44.2073C29.0136 44.2073 30.4244 42.9029 31.1432 40.5241C31.9791 37.7535 32.9289 33.8521 31.5404 31.9653H31.5393ZM30.0379 33.0705C30.2072 33.3005 30.3829 33.752 30.3882 34.6283C30.1561 34.6049 29.8952 34.5698 29.6322 34.5176C28.6207 34.3185 28.3428 34.031 28.3247 33.9639C28.1852 33.4709 28.5749 32.8554 28.905 32.4625C29.3969 32.5796 29.809 32.7575 30.0379 33.0695V33.0705ZM23.7034 29.2106C22.0264 29.2947 20.9605 29.3522 20.2812 29.3927C20.4238 28.5366 20.6698 27.2333 20.9254 25.9481L24.2198 25.8214C24.1709 26.226 24.0793 26.6551 23.9909 27.0736C23.845 27.7625 23.6896 28.4983 23.7034 29.2106ZM-1.87842 22.6908L22.1456 23.2041C22.7589 23.2169 23.3137 23.4532 23.7066 23.8696C23.7375 23.9026 23.7662 23.9377 23.795 23.9729L20.1214 24.1134C19.6923 24.1294 19.3292 24.4382 19.244 24.8588C19.2419 24.8716 18.9746 26.1855 18.7276 27.4974C18.5817 28.2736 18.471 28.8986 18.3996 29.3576C18.2612 30.2392 18.1909 30.6811 18.586 31.0644C18.7627 31.2359 19.0013 31.3296 19.244 31.3296C19.293 31.3296 19.342 31.3253 19.3899 31.3179C19.7232 31.2827 22.3852 31.1422 24.2976 31.0474C24.3178 31.074 24.338 31.1006 24.3604 31.1273C24.9503 31.8407 25.8831 32.0558 26.8531 32.1804C26.5145 32.8203 26.2909 33.62 26.5337 34.4739C26.802 35.4173 27.7337 36.0488 29.3043 36.3522C29.3628 36.364 29.4203 36.3735 29.4789 36.3842C26.4719 36.3043 20.0874 36.1371 17.6894 36.0765V28.3556C17.6894 27.8413 17.272 27.4239 16.7577 27.4239H9.92597C9.42338 27.4239 9.0113 27.8221 8.99427 28.3247L8.74404 35.7378L-4.30403 35.297L-4.08042 24.8013C-4.05487 23.613 -3.06886 22.6664 -1.87842 22.6919V22.6908ZM19.4559 31.304C19.4442 31.3072 19.424 31.3115 19.3963 31.3157C19.4165 31.3125 19.4357 31.3083 19.4559 31.304ZM1.98362 41.3472C1.97936 41.3323 1.97403 41.3185 1.97084 41.3036C1.96232 41.2716 1.95167 41.2407 1.94209 41.2099C1.92505 41.1534 1.90589 41.0981 1.88672 41.0427C1.87501 41.0107 1.86436 40.9799 1.85265 40.949C1.83135 40.8936 1.80899 40.8404 1.78556 40.7861C1.77385 40.7584 1.76214 40.7307 1.74936 40.7041C1.71955 40.6391 1.68654 40.5752 1.65353 40.5124C1.64714 40.4996 1.64075 40.4858 1.6333 40.473C1.59283 40.3985 1.54918 40.3261 1.50339 40.2558C1.49061 40.2356 1.47571 40.2153 1.46293 40.1951C1.42992 40.1461 1.39585 40.0971 1.36071 40.0503C1.34261 40.0258 1.3245 40.0024 1.30534 39.979C1.27233 39.9364 1.23826 39.8959 1.20312 39.8554C1.18289 39.8331 1.16372 39.8096 1.14242 39.7884C1.10516 39.7479 1.06682 39.7096 1.02743 39.6712C1.00826 39.6531 0.990157 39.634 0.969926 39.6159C0.916686 39.5669 0.862381 39.52 0.807011 39.4742C0.800623 39.4689 0.795299 39.4636 0.78891 39.4583C0.726087 39.4093 0.662199 39.3624 0.596181 39.3188C0.57595 39.3049 0.555719 39.2932 0.535487 39.2804C0.488636 39.2506 0.441784 39.2219 0.392804 39.1953C0.367248 39.1814 0.341693 39.1686 0.316138 39.1548C0.270351 39.1314 0.2235 39.109 0.176649 39.0877C0.150029 39.076 0.123409 39.0643 0.0967891 39.0526C0.0467435 39.0313 -0.005432 39.0132 -0.0565424 38.9951C-0.0810329 38.9866 -0.104458 38.978 -0.127884 38.9706C-0.20455 38.9461 -0.281215 38.9248 -0.36001 38.9078C-0.430287 38.8918 -0.501629 38.8801 -0.572971 38.8705C-0.587878 38.8684 -0.60385 38.8662 -0.618757 38.8641C-0.687969 38.8556 -0.757181 38.8492 -0.825329 38.846C-0.838106 38.846 -0.849819 38.846 -0.862597 38.846C-0.92542 38.8439 -0.987179 38.8439 -1.05 38.846C-1.06278 38.846 -1.07449 38.846 -1.08727 38.846C-1.15542 38.8492 -1.22356 38.8556 -1.29171 38.863C-1.30768 38.8652 -1.32366 38.8673 -1.33963 38.8694C-1.40884 38.879 -1.47699 38.8897 -1.5462 38.9046C-1.54939 38.9046 -1.55259 38.9056 -1.55578 38.9067C-1.62286 38.9205 -1.68888 38.9386 -1.7549 38.9567C-1.77087 38.961 -1.78684 38.9663 -1.80282 38.9706C-1.86883 38.9908 -1.93485 39.0121 -1.9998 39.0366C-2.01258 39.0419 -2.02642 39.0472 -2.0392 39.0526C-2.09777 39.0749 -2.15526 39.0994 -2.21276 39.126C-2.22554 39.1314 -2.23725 39.1367 -2.25003 39.1431C-2.31392 39.1729 -2.37568 39.2059 -2.4385 39.24C-2.45447 39.2485 -2.47045 39.2581 -2.48642 39.2666C-2.54818 39.3017 -2.60993 39.339 -2.67063 39.3784C-2.67595 39.3816 -2.68128 39.3859 -2.6866 39.3891C-2.7441 39.4274 -2.8016 39.4678 -2.85803 39.5104C-2.87294 39.5222 -2.88785 39.5328 -2.90275 39.5445C-2.96025 39.5892 -3.01669 39.635 -3.07312 39.6829C-3.0859 39.6936 -3.09761 39.7053 -3.11039 39.7159C-3.15937 39.7596 -3.20729 39.8043 -3.2552 39.8501C-3.26692 39.8608 -3.27756 39.8714 -3.28928 39.8831C-3.34252 39.9364 -3.39363 39.9907 -3.44474 40.0471C-3.45858 40.062 -3.47242 40.078 -3.48627 40.0939C-3.53631 40.1514 -3.58636 40.21 -3.63427 40.2718C-3.6396 40.2782 -3.64492 40.2856 -3.65024 40.292C-3.69603 40.3506 -3.73969 40.4102 -3.78228 40.4709C-3.78973 40.4805 -3.79719 40.4901 -3.80358 40.4996C-4.18052 40.0971 -4.39667 39.5562 -4.38389 38.9802L-4.34556 37.1615L8.67908 37.6012L8.54385 41.6092L1.98255 41.3493L1.98362 41.3472ZM10.8257 29.2862H12.3122L12.0279 41.7455L10.4073 41.6816L10.8257 29.2862ZM14.1756 29.2862H15.8239V41.8956L13.8892 41.8189L14.1756 29.2862ZM0.203269 43.3352C-0.0714494 44.5714 -0.979725 45.4659 -1.77939 45.287C-2.57906 45.1092 -3.02308 43.9134 -2.74729 42.6772C-2.71003 42.5089 -2.65998 42.3439 -2.59929 42.1863C-2.57693 42.1277 -2.55244 42.0702 -2.52688 42.0148C-2.51836 41.9957 -2.50878 41.9786 -2.50026 41.9595C-2.48322 41.9233 -2.46512 41.886 -2.44596 41.8509C-2.43531 41.8296 -2.42253 41.8093 -2.41188 41.788C-2.39484 41.7572 -2.37674 41.7252 -2.35864 41.6954C-2.34586 41.6741 -2.33202 41.6539 -2.31924 41.6326C-2.30114 41.6049 -2.28304 41.5762 -2.26387 41.5495C-2.25003 41.5293 -2.23512 41.5091 -2.22022 41.4888C-2.20105 41.4633 -2.18188 41.4377 -2.16272 41.4132C-2.14781 41.3941 -2.13184 41.3749 -2.11693 41.3557C-2.0967 41.3323 -2.07753 41.3089 -2.0573 41.2865C-2.04133 41.2684 -2.02536 41.2503 -2.00939 41.2333C-1.98916 41.212 -1.96786 41.1907 -1.94656 41.1705C-1.93059 41.1545 -1.91355 41.1385 -1.89758 41.1225C-1.87522 41.1023 -1.85286 41.0831 -1.82944 41.064C-1.81346 41.0501 -1.79749 41.0363 -1.78152 41.0235C-1.75383 41.0022 -1.72615 40.982 -1.69847 40.9628C-1.68462 40.9532 -1.66972 40.9426 -1.65587 40.933C-1.6186 40.9085 -1.5824 40.8862 -1.54513 40.8649C-1.5281 40.8553 -1.51212 40.8478 -1.49509 40.8393C-1.4706 40.8265 -1.44611 40.8148 -1.42268 40.8042C-1.40458 40.7957 -1.38648 40.7893 -1.36731 40.7829C-1.34389 40.7744 -1.32153 40.7648 -1.2981 40.7573C-1.27893 40.7509 -1.26083 40.7467 -1.24167 40.7413C-1.2193 40.735 -1.19694 40.7296 -1.17352 40.7243C-1.15435 40.7201 -1.13519 40.7169 -1.11708 40.7147C-1.09472 40.7115 -1.07236 40.7083 -1.04894 40.7062C-1.03084 40.7041 -1.01167 40.703 -0.993567 40.703C-0.968011 40.703 -0.942456 40.703 -0.917966 40.703C-0.905188 40.703 -0.892411 40.703 -0.879633 40.7051C-0.8413 40.7083 -0.802967 40.7137 -0.765699 40.7222C-0.697552 40.7371 -0.63047 40.7605 -0.566582 40.7914C-0.119366 41.0075 0.208593 41.5932 0.273546 42.3268C0.302295 42.6548 0.27887 42.9923 0.203269 43.3299V43.3352ZM19.8052 45.288C19.3367 45.1837 18.9342 44.2413 19.1077 43.053C19.1216 42.9551 19.1408 42.8528 19.1631 42.7517C19.1801 42.674 19.2004 42.5973 19.2217 42.5228C19.2291 42.4983 19.2366 42.4748 19.244 42.4504C19.2589 42.4014 19.2738 42.3524 19.2909 42.3045C19.3005 42.2768 19.3111 42.2491 19.3218 42.2225C19.3377 42.1799 19.3537 42.1373 19.3697 42.0968C19.3814 42.0681 19.3942 42.0415 19.4059 42.0138C19.4229 41.9755 19.44 41.9371 19.457 41.8999C19.4698 41.8722 19.4836 41.8466 19.4975 41.82C19.5156 41.7849 19.5337 41.7497 19.5528 41.7156C19.5667 41.6901 19.5816 41.6656 19.5965 41.64C19.6157 41.607 19.6348 41.5751 19.6551 41.5442C19.67 41.5208 19.6859 41.4974 19.7008 41.475C19.7211 41.4452 19.7413 41.4154 19.7626 41.3877C19.7786 41.3664 19.7945 41.3451 19.8105 41.3249C19.8318 41.2972 19.8531 41.2706 19.8744 41.245C19.8904 41.2258 19.9063 41.2067 19.9234 41.1886C19.9457 41.1641 19.967 41.1406 19.9894 41.1172C20.0054 41.1002 20.0224 41.0842 20.0384 41.0682C20.0607 41.0459 20.0842 41.0256 20.1065 41.0065C20.1225 40.9926 20.1385 40.9777 20.1544 40.965C20.1779 40.9458 20.2013 40.9288 20.2237 40.9117C20.2396 40.9 20.2556 40.8883 20.2705 40.8776C20.2939 40.8617 20.3174 40.8478 20.3418 40.834C20.3568 40.8255 20.3717 40.8159 20.3866 40.8084C20.4111 40.7957 20.4355 40.7861 20.459 40.7754C20.4728 40.7701 20.4867 40.7626 20.5005 40.7584C20.5261 40.7488 20.5516 40.7424 20.5772 40.736C20.5878 40.7328 20.5995 40.7296 20.6102 40.7275C20.6421 40.7211 20.6741 40.7179 20.7049 40.7179C20.7081 40.7179 20.7124 40.7179 20.7156 40.7179C20.7507 40.7179 20.7848 40.7211 20.8178 40.7286C21.0521 40.7807 21.2693 41.0427 21.4077 41.4388C21.5451 41.8349 21.6026 42.3662 21.5163 42.9583V42.9604V42.9625C21.5014 43.0626 21.4833 43.1638 21.4609 43.2649C21.3119 43.9347 21.002 44.5395 20.6112 44.926C20.3259 45.2082 20.032 45.3413 19.8041 45.2902L19.8052 45.288ZM29.3586 39.9864C29.0296 41.0746 28.3747 42.3673 27.1257 42.3449L23.4212 42.198C23.4212 42.1873 23.4202 42.1778 23.4191 42.1682C23.4159 42.0798 23.4106 41.9925 23.4021 41.9062C23.4021 41.8977 23.401 41.8892 23.4 41.8807C23.3914 41.7912 23.3797 41.7029 23.3669 41.6155C23.3637 41.5974 23.3616 41.5793 23.3584 41.5623C23.3446 41.4771 23.3286 41.393 23.3105 41.311C23.3073 41.2961 23.3031 41.2812 23.2999 41.2663C23.2818 41.1864 23.2615 41.1076 23.2392 41.031C23.237 41.0246 23.236 41.0171 23.2338 41.0107C23.2104 40.9309 23.1838 40.8521 23.1561 40.7754C23.1508 40.7595 23.1444 40.7435 23.1391 40.7275C23.1114 40.653 23.0816 40.5806 23.0496 40.5092C23.0432 40.4954 23.0369 40.4826 23.0315 40.4698C22.9996 40.4006 22.9655 40.3325 22.9293 40.2664C22.9272 40.2622 22.924 40.2569 22.9219 40.2515C22.8846 40.1834 22.8441 40.1184 22.8026 40.0535C22.7941 40.0407 22.7856 40.0269 22.777 40.0141C22.7355 39.9523 22.6929 39.8927 22.6482 39.8352C22.6397 39.8246 22.6312 39.8139 22.6226 39.8033C22.5769 39.7468 22.53 39.6915 22.481 39.6393C22.4789 39.6371 22.4768 39.634 22.4736 39.6318C22.4235 39.5786 22.3703 39.5275 22.316 39.4785C22.3053 39.4689 22.2947 39.4593 22.284 39.4497C22.2308 39.4029 22.1765 39.3592 22.1201 39.3177C22.1094 39.3103 22.0988 39.3028 22.0881 39.2943C22.0296 39.2528 21.9699 39.2134 21.9082 39.1772C21.9071 39.1772 21.906 39.175 21.9039 39.175C21.8411 39.1388 21.7772 39.1058 21.7112 39.0749C21.6984 39.0696 21.6867 39.0632 21.6739 39.0579C21.61 39.0291 21.544 39.0036 21.4769 38.9802C21.4641 38.9759 21.4514 38.9716 21.4386 38.9674C21.3683 38.945 21.297 38.9237 21.2235 38.9078C21.2235 38.9078 21.2224 38.9078 21.2214 38.9078C21.1713 38.8971 21.1213 38.8875 21.0712 38.8801C21.0574 38.8779 21.0425 38.8769 21.0286 38.8748C20.9924 38.8694 20.9552 38.8652 20.919 38.862C20.9019 38.8609 20.8849 38.8598 20.8668 38.8588C20.8338 38.8567 20.7997 38.8545 20.7667 38.8535C20.7486 38.8535 20.7294 38.8535 20.7113 38.8535C20.6794 38.8535 20.6474 38.8535 20.6144 38.8556C20.5953 38.8556 20.5761 38.8577 20.5569 38.8598C20.5261 38.862 20.4941 38.8641 20.4632 38.8673C20.443 38.8694 20.4238 38.8726 20.4047 38.8748C20.3738 38.879 20.344 38.8833 20.3131 38.8886C20.2929 38.8918 20.2737 38.896 20.2535 38.9003C20.2237 38.9067 20.1938 38.912 20.164 38.9195C20.1438 38.9237 20.1246 38.9291 20.1044 38.9344C20.0746 38.9418 20.0448 38.9504 20.016 38.9589C19.9958 38.9653 19.9766 38.9706 19.9564 38.977C19.9276 38.9866 19.8978 38.9961 19.8691 39.0068C19.8488 39.0142 19.8297 39.0217 19.8105 39.0291C19.7818 39.0409 19.753 39.0526 19.7243 39.0643C19.7051 39.0728 19.6849 39.0813 19.6657 39.0898C19.6369 39.1026 19.6093 39.1165 19.5805 39.1303C19.5613 39.1399 19.5422 39.1495 19.523 39.1591C19.4943 39.174 19.4666 39.1899 19.4378 39.2059C19.4197 39.2166 19.4006 39.2261 19.3825 39.2368C19.3537 39.2538 19.326 39.2709 19.2983 39.289C19.2802 39.3007 19.2632 39.3113 19.2451 39.323C19.2164 39.3422 19.1876 39.3624 19.1589 39.3827C19.1429 39.3944 19.1258 39.405 19.1099 39.4167C19.079 39.4391 19.0492 39.4625 19.0194 39.4859C19.0055 39.4966 18.9917 39.5072 18.9778 39.519C18.9416 39.5477 18.9065 39.5786 18.8714 39.6095C18.8639 39.6159 18.8564 39.6222 18.849 39.6286C18.8064 39.667 18.7638 39.7053 18.7223 39.7458C18.7138 39.7532 18.7063 39.7617 18.6989 39.7703C18.6659 39.8033 18.6328 39.8363 18.6009 39.8703C18.5871 39.8852 18.5732 39.9012 18.5594 39.9161C18.5338 39.9438 18.5083 39.9715 18.4827 40.0013C18.4667 40.0194 18.4518 40.0386 18.4359 40.0567C18.4135 40.0833 18.3901 40.111 18.3677 40.1387C18.3517 40.1589 18.3358 40.1802 18.3198 40.2004C18.2985 40.2281 18.2772 40.2547 18.257 40.2824C18.241 40.3048 18.225 40.3271 18.2091 40.3484C18.1888 40.3761 18.1697 40.4038 18.1505 40.4326C18.1345 40.456 18.1196 40.4794 18.1036 40.5028C18.0845 40.5316 18.0664 40.5603 18.0483 40.5891C18.0334 40.6136 18.0185 40.6381 18.0035 40.6626C17.9854 40.6924 17.9684 40.7222 17.9514 40.752C17.9365 40.7776 17.9226 40.8031 17.9088 40.8287C17.8917 40.8595 17.8758 40.8904 17.8587 40.9213C17.8449 40.9479 17.831 40.9745 17.8183 41.0012C17.8023 41.0331 17.7863 41.065 17.7714 41.097C17.7586 41.1236 17.7459 41.1513 17.7331 41.179C17.7182 41.212 17.7033 41.245 17.6894 41.278C17.6894 41.2801 17.6884 41.2812 17.6873 41.2833V37.9388C19.9606 37.9963 25.8554 38.1507 29.8367 38.2561C29.7057 38.781 29.5481 39.355 29.3575 39.9853L29.3586 39.9864Z" fill="#1D1D4D"/>
<path d="M-1.75253 30.2392L5.65955 31.32C5.70534 31.3264 5.75006 31.3295 5.79478 31.3295C6.23667 31.3295 6.62746 31.0144 6.70945 30.5671L7.49953 26.3005C7.54851 26.0385 7.48249 25.7681 7.31851 25.5583C7.15453 25.3486 6.90856 25.2187 6.64343 25.2006L-0.768649 24.7235C-1.22864 24.6948 -1.64179 25.0057 -1.73975 25.4572L-2.52983 29.1201C-2.58413 29.3724 -2.53196 29.6354 -2.38395 29.8484C-2.23701 30.0603 -2.00808 30.2019 -1.75253 30.2392ZM5.0409 29.3469L2.99968 29.0498L3.31912 26.8563L5.47641 26.9947L5.0409 29.3469ZM-0.0861118 26.6359L1.45359 26.7349L1.15545 28.7804L-0.497125 28.5398L-0.0861118 26.637V26.6359Z" fill="#1D1D4D"/>
</g>
<defs>
<clipPath id="clip0_1538_8723">
<rect width="39" height="51" fill="white"/>
</clipPath>
</defs>
</svg>
