<svg width="39" height="51" viewBox="0 0 39 51" fill="none" xmlns="http://www.w3.org/2000/svg">
<g clip-path="url(#clip0_1538_8701)">
<g clip-path="url(#clip1_1538_8701)">
<rect width="39" height="51" fill="#1D1D4D"/>
<path d="M29.8835 54.4967C30.1704 53.7078 30.4697 52.8835 30.6194 52.0509C30.7556 51.2963 30.7722 50.5032 30.7753 49.7412C30.7764 49.3681 30.7441 48.996 30.6807 48.628C30.2837 46.2976 29.4157 44.0586 27.8711 42.2375C27.0791 41.304 26.2714 40.4049 25.3286 39.6233C24.3463 38.8083 23.2747 38.0235 22.1271 37.4664C19.7354 36.3064 16.8467 36.1858 14.3687 37.166C13.3417 37.5724 12.296 38.0953 11.4437 38.8125C10.8346 39.3249 10.2514 39.8395 9.72338 40.4112C9.34814 40.6596 8.98538 40.9257 8.63924 41.2126C7.72141 41.9734 6.78383 42.7728 6.07388 43.7415C5.41591 44.6396 4.75586 45.6115 4.36711 46.6666C4.10517 47.3786 3.84634 48.1114 3.68731 48.8567C3.52723 49.6051 3.51892 50.3909 3.49397 51.1476C3.45759 52.2588 3.68939 53.4292 4.07814 54.4645C4.48249 55.5414 5.05938 56.6037 5.77244 57.5111C6.52812 58.4726 7.35864 59.4029 8.264 60.2272C9.23588 61.1118 10.3283 61.8363 11.4374 62.5369C12.1734 63.0015 12.9415 63.41 13.745 63.7468C15.2127 64.3611 16.7542 64.8257 18.3674 64.6365C19.5638 64.4973 20.7509 64.147 21.8392 63.6314C22.5367 63.3008 23.2612 62.963 23.9171 62.5452C24.5989 62.1117 25.1997 61.5515 25.7901 61.0047C26.7007 60.1607 27.3587 59.063 28.0166 58.0256C28.4948 57.272 28.9532 56.4956 29.3565 55.6994C29.555 55.3085 29.7359 54.9083 29.8866 54.4957L29.8835 54.4967Z" fill="#FF7534"/>
<path d="M14.2683 34.0713C6.06388 34.0713 -0.609375 40.7456 -0.609375 48.9489C-0.609375 57.1522 6.06492 63.8265 14.2683 63.8265C22.4716 63.8265 29.1459 57.1522 29.1459 48.9489C29.1459 40.7456 22.4716 34.0713 14.2683 34.0713ZM9.81213 47.9781C11.0865 48.1953 12.3525 48.3169 13.6082 48.3169C14.2215 48.3169 14.8337 48.2899 15.4428 48.2379C15.5052 49.7431 15.5083 51.164 15.4522 52.5132C13.5521 52.5963 11.6842 52.4269 9.84436 52.0101C9.68324 50.7451 9.67181 49.4021 9.81213 47.9781ZM8.04403 51.5216C5.70839 50.7773 3.41745 49.6183 1.15873 48.0519C1.22629 47.0582 1.403 46.0946 1.68053 45.1736C3.84258 46.2869 5.98489 47.1029 8.10536 47.6226C7.95984 48.9853 7.93905 50.2846 8.04507 51.5216H8.04403ZM17.1693 48.0217C18.5632 47.7889 19.9447 47.4157 21.3136 46.9085C21.6338 48.4396 21.7201 49.9416 21.5673 51.4176C20.0892 51.875 18.6319 52.192 17.1943 52.3677C17.2442 50.9925 17.2359 49.5476 17.1704 48.0217H17.1693ZM22.9601 46.2266C24.1648 45.6767 25.3592 45.0219 26.541 44.2548C27.0992 45.71 27.409 47.2879 27.411 48.9375C26.0473 49.6651 24.7012 50.2856 23.3717 50.7929C23.4507 49.293 23.3156 47.7723 22.9601 46.2256V46.2266ZM14.2683 35.8061C19.2358 35.8061 23.5672 38.5763 25.8009 42.6519C24.6991 43.3806 23.5921 44.0105 22.4789 44.5375C21.9092 42.7995 21.0798 41.0283 19.9717 39.2134C19.7222 38.8039 19.188 38.676 18.7795 38.9255C18.371 39.175 18.2421 39.7093 18.4915 40.1178C19.559 41.864 20.348 43.5646 20.8739 45.2267C19.6162 45.71 18.3502 46.0676 17.0737 46.2952C16.9292 44.2018 16.6839 41.9607 16.3347 39.5409C16.2661 39.0669 15.8285 38.7395 15.3524 38.806C14.8784 38.8746 14.5499 39.3143 14.6175 39.7883C14.9657 42.2091 15.209 44.4429 15.3493 46.5228C13.6009 46.6777 11.8318 46.6008 10.0387 46.2838C10.3755 44.3275 10.969 42.2289 11.8255 39.9733C11.996 39.5253 11.7705 39.0243 11.3225 38.8548C10.8745 38.6854 10.3745 38.9099 10.204 39.3579C9.31944 41.6884 8.69889 43.8712 8.34028 45.9189C6.35909 45.4096 4.34464 44.6123 2.29484 43.5386C4.36127 38.9837 8.94939 35.8061 14.2683 35.8061ZM14.2683 62.0927C7.42556 62.0927 1.78967 56.8352 1.18159 50.1484C3.50268 51.6286 5.8799 52.7055 8.30909 53.379C8.61781 54.9216 9.13338 56.3664 9.87346 57.7135C10.0315 58.0004 10.3287 58.1636 10.6343 58.1636C10.7757 58.1636 10.9191 58.1293 11.0512 58.0566C11.4711 57.8258 11.6239 57.2988 11.3942 56.8789C10.8672 55.9195 10.4711 54.8987 10.1915 53.8187C11.6156 54.09 13.0563 54.2304 14.5146 54.2304C14.7921 54.2304 15.0717 54.2096 15.3503 54.2002C15.2505 55.4164 15.1008 56.5753 14.8971 57.6834C14.8108 58.1543 15.1216 58.6064 15.5935 58.6937C15.6466 58.7041 15.6996 58.7083 15.7515 58.7083C16.1621 58.7083 16.527 58.4162 16.6029 57.9973C16.8326 56.75 16.9989 55.4475 17.1028 54.0744C18.4707 53.9268 19.8501 53.6711 21.2429 53.2907C20.9831 54.3644 20.6016 55.4268 20.086 56.4797C19.875 56.91 20.0528 57.4298 20.4831 57.6397C20.6058 57.7 20.7357 57.7281 20.8635 57.7281C21.1847 57.7281 21.4924 57.5493 21.6431 57.2416C22.377 55.7438 22.8738 54.2324 23.1472 52.7034C24.5058 52.2336 25.8758 51.6473 27.2572 50.9602C26.2864 57.2562 20.8313 62.0917 14.2683 62.0917V62.0927Z" fill="#F5FFAB"/>
<path d="M26.9553 36.6637C26.7609 36.6824 26.5593 36.6377 26.3836 36.5213C25.9792 36.2521 25.868 35.7064 26.1372 35.301L28.6174 31.5652C28.8855 31.1609 29.4323 31.0497 29.8377 31.3189C30.242 31.5881 30.3532 32.1338 30.084 32.5392L27.6039 36.275C27.4511 36.5047 27.21 36.6398 26.9553 36.6637Z" fill="#F5FFAB"/>
<path d="M28.8684 38.9537C28.4506 38.9942 28.0504 38.7292 27.936 38.3103C27.8071 37.8415 28.0826 37.3571 28.5514 37.2282L32.3235 36.1919C32.7944 36.063 33.2767 36.3384 33.4056 36.8072C33.5345 37.276 33.259 37.7604 32.7902 37.8893L29.0181 38.9256C28.9682 38.9391 28.9183 38.9485 28.8694 38.9537H28.8684Z" fill="#F5FFAB"/>
</g>
</g>
<defs>
<clipPath id="clip0_1538_8701">
<rect width="39" height="51" fill="white"/>
</clipPath>
<clipPath id="clip1_1538_8701">
<rect width="39" height="51" fill="white"/>
</clipPath>
</defs>
</svg>
