<svg width="47" height="47" viewBox="0 0 47 47" fill="none" xmlns="http://www.w3.org/2000/svg">
<path d="M41.5447 26.0308C38.0356 25.0764 34.4466 24.2566 31.0411 22.9661C31.5344 20.9524 31.8335 18.8874 31.9455 16.82C31.9836 16.1063 31.9979 15.3902 31.9872 14.6752C31.9812 14.3189 31.9681 13.9639 31.9514 13.6088C33.3932 13.125 34.8219 12.5948 36.2566 12.0883C37.4791 11.657 37.7186 10.0901 36.6128 9.36562C36.5354 9.31438 36.4591 9.26314 36.3853 9.20833C36.4091 8.91521 36.3507 8.62327 36.1779 8.39688C35.4618 7.45673 34.7469 6.51778 34.0307 5.57764C33.9521 5.47397 33.8663 5.37865 33.7745 5.29285C33.572 4.51834 32.6866 4.15253 31.9586 4.3122C29.5671 4.83649 27.3091 5.65866 24.9963 6.4308C24.9188 6.45701 24.8414 6.48203 24.7687 6.51897C24.6781 6.56544 24.5971 6.6274 24.5209 6.69532C23.5831 7.52584 23.9096 8.65783 23.4997 9.7064C23.203 10.4654 22.5905 11.0457 21.8327 11.3353C21.1785 11.744 20.3087 11.7773 19.5389 11.3972C18.2056 10.7371 17.5991 9.13564 17.8136 7.77369C17.9089 7.17076 17.7993 6.59642 17.2797 6.20797C16.8246 5.86719 16.1275 5.75756 15.6258 6.0912C13.9851 7.18386 12.2668 8.1526 10.4735 8.97359C8.98765 9.65517 7.20388 10.0555 5.93129 11.1279C5.16393 11.4389 4.61938 12.3028 5.1818 13.2108C5.18895 13.2239 5.19848 13.2358 5.20563 13.2477C5.24376 13.3264 5.29023 13.3991 5.34743 13.4682C6.21727 14.8206 7.27061 16.0503 8.50149 17.0881C9.01625 17.5219 9.69782 17.672 10.3067 17.3205C10.8775 16.9916 11.4649 16.7319 12.0738 16.5257C12.3896 18.0926 11.8057 19.8609 11.1253 21.311C10.0815 23.5333 8.74219 25.6936 8.4014 28.1685C8.2882 28.9954 8.76245 30.1941 9.83723 30.0535C12.6005 29.6925 15.3959 29.6281 18.1722 29.8784C18.3962 29.8986 18.6191 29.9225 18.8431 29.9463C18.9062 29.9689 18.9694 29.9939 19.0325 30.0154C19.7999 30.274 20.6173 30.3657 21.4383 30.3383C21.6492 30.3788 21.8601 30.4193 22.0698 30.4634C22.724 30.5993 23.3746 30.753 24.0204 30.9246C24.7187 31.1092 25.4241 31.3964 26.1545 31.3964C27.7083 31.3964 28.4614 29.9832 29.0154 28.7583C29.4515 27.7943 29.8495 26.8125 30.1987 25.8128C30.2118 25.8187 30.2249 25.8247 30.2392 25.8294C33.647 27.1223 37.2396 27.9421 40.7523 28.8977C42.604 29.4017 43.3952 26.5289 41.5447 26.0249V26.0308Z" fill="#FF7534"/>
<path d="M45.1365 43.0081C43.9473 42.5124 42.7164 42.2229 41.4367 42.0787C40.2439 41.944 39.0357 42.0263 37.8715 41.6938C36.0246 41.166 35.237 44.04 37.0791 44.5667C38.36 44.9325 39.6851 44.9087 41.0006 45.0159C42.154 45.1088 43.2788 45.4365 44.3429 45.881C45.0852 46.1908 45.9813 45.5461 46.1755 44.8407C46.4114 43.9828 45.8812 43.3191 45.1353 43.0081H45.1365Z" fill="#FF7534"/>
<path d="M31.2319 41.1412C29.1609 40.0021 26.8708 39.6732 24.5627 39.3658C23.7643 39.2597 23.0732 40.126 23.0732 40.8553C23.0732 41.3938 23.3247 41.7847 23.6988 42.0337C23.8644 42.4686 24.2124 42.8344 24.6807 42.9321C26.3429 43.2765 27.9622 43.7698 29.5339 44.4085C30.175 44.6694 30.9244 44.2369 31.245 43.6578C32.06 43.099 32.3507 41.7561 31.2331 41.1412H31.2319Z" fill="#FF7534"/>
<path d="M45.2301 44.7398C43.2748 37.4533 42.2071 31.4252 41.9676 26.311C41.9498 25.9262 41.7198 25.5818 41.3719 25.4174C36.5568 23.1439 33.5028 22.3908 30.5489 21.6628C30.4786 21.6461 30.4083 21.6282 30.338 21.6103C31.1614 18.6958 31.4759 15.6287 31.3043 12.3292L36.347 11.2402C36.639 11.177 36.8904 10.9911 37.037 10.7302C37.1835 10.4692 37.2097 10.1582 37.1108 9.87582C37.087 9.80909 36.5246 8.2124 35.7298 6.47271C34.1903 3.10655 33.1918 2.28675 32.5746 1.96265C31.3067 1.29657 29.7279 1.93286 27.7308 2.73836C25.8601 3.49262 23.7403 4.34697 21.7718 4.13606C21.4561 4.1015 21.1415 4.2147 20.9187 4.4411C20.6959 4.6675 20.5874 4.98326 20.6268 5.29903C21.0128 8.46858 20.2157 10.2524 19.2279 10.3763C18.0756 10.5216 16.2084 8.63064 15.6973 4.70205C15.6591 4.41369 15.503 4.15274 15.2647 3.98473C15.0264 3.81672 14.7297 3.75595 14.4449 3.81672C11.0633 4.54238 6.72717 6.59187 1.18879 10.0832C0.868258 10.2845 0.682375 10.6444 0.703823 11.0221C0.725271 11.3998 0.948093 11.737 1.28888 11.9027C3.23709 12.85 4.94221 15.6668 6.21003 18.0154C6.36732 18.3061 6.6521 18.5051 6.97978 18.5516C7.30627 18.5981 7.63633 18.4872 7.86869 18.2525L8.91607 17.1944C8.20948 21.5043 7.01434 25.0575 5.28776 27.9911C5.11737 28.2807 5.09711 28.6358 5.23414 28.9432C5.37117 29.2506 5.64762 29.4734 5.97768 29.5414C9.09123 30.18 12.4955 30.0978 15.4995 30.0263C17.3357 29.9822 19.1206 29.9394 20.5946 30.0752C21.3214 33.0195 21.5371 36.5704 21.2511 40.8993C21.2321 41.1865 21.3322 41.4689 21.5288 41.6786C21.7254 41.8895 21.9994 42.0087 22.2866 42.0099C24.7877 42.0206 27.1803 42.6355 29.399 43.8354C29.6981 43.9974 30.0556 44.0034 30.3594 43.852C30.6633 43.7007 30.8742 43.4112 30.9254 43.0751L31.8656 36.8778C33.0726 39.7519 33.9854 42.2828 34.6348 44.5515C34.7766 45.046 35.2579 45.3641 35.7679 45.2986C38.2357 44.9864 40.9917 45.2271 43.9599 46.0123C44.0481 46.0362 44.1375 46.0469 44.2268 46.0469C44.5009 46.0469 44.7678 45.9397 44.9656 45.7407C45.2278 45.4773 45.3302 45.0936 45.2337 44.735L45.2301 44.7398ZM30.0496 23.6872C32.9118 24.3926 35.6226 25.0599 39.9182 27.0391C39.9479 27.5503 39.9873 28.071 40.0325 28.6C36.9154 27.194 33.3205 25.8344 29.3144 24.5463C29.4455 24.2318 29.5682 23.9148 29.6874 23.5967C29.8077 23.6265 29.9293 23.6562 30.0496 23.686V23.6872ZM18.1459 27.9018C17.282 27.9018 16.3776 27.9232 15.4458 27.9459C13.0162 28.0043 10.3138 28.0686 7.80434 27.7385C9.65722 24.115 10.8345 19.7229 11.3933 14.368C11.4398 13.9283 11.2027 13.5065 10.8023 13.3171C10.402 13.1276 9.92652 13.211 9.61552 13.5256L7.36228 15.8015C6.31966 13.9891 5.10903 12.2065 3.66962 11.0007C7.73643 8.52935 11.1395 6.89572 13.8205 6.12597C14.1875 7.91689 14.8393 9.43494 15.7306 10.5634C16.8066 11.9265 18.1769 12.6128 19.4876 12.4484C20.6887 12.2971 21.6658 11.4749 22.2389 10.1308C22.6834 9.08819 22.8705 7.78582 22.799 6.24632C24.8556 6.14861 26.8527 5.34311 28.5113 4.67465C29.579 4.24449 31.1923 3.5939 31.607 3.81076C32.223 4.13487 33.5326 6.32973 34.736 9.45639L29.9877 10.4811C29.4777 10.5908 29.1274 11.0614 29.1679 11.5809C29.6814 18.1608 28.1753 23.7349 24.4374 29.0302C23.6748 28.5559 22.7299 28.2724 21.6491 28.1079C21.5991 28.096 21.5466 28.09 21.4942 28.0865C20.4814 27.9447 19.3542 27.9006 18.1471 27.9006L18.1459 27.9018ZM23.39 39.9687C23.4079 39.6005 23.421 39.2395 23.4317 38.8808C25.5539 38.8677 27.4616 39.3622 29.2239 40.3786L29.0749 41.3629C27.2626 40.5681 25.3596 40.101 23.3912 39.9675L23.39 39.9687ZM31.2281 32.1342C30.7705 32.1974 30.4107 32.5536 30.3404 33.01L29.5539 38.1921C27.6808 37.2603 25.6373 36.792 23.4496 36.7968C23.4198 34.4899 23.2148 32.419 22.8323 30.5494C23.2494 30.7198 23.5866 30.9379 23.8249 31.2167C24.0239 31.4503 24.3146 31.5849 24.6197 31.5849C24.6292 31.5849 24.6387 31.5849 24.6495 31.5849C24.9652 31.5766 25.2607 31.424 25.4514 31.1726C26.6239 29.6248 27.6141 28.0567 28.4315 26.4552C32.9535 27.8994 36.9381 29.4317 40.2887 31.0177C40.6331 33.7869 41.1717 36.7825 41.914 40.0486C39.718 39.3956 37.4349 39.1692 35.0971 39.3718C34.3381 37.3473 33.4182 35.1489 32.3207 32.7371C32.1301 32.3177 31.6856 32.0734 31.2281 32.1366V32.1342ZM36.3887 43.1454C36.2172 42.5806 36.0289 42.0015 35.8275 41.407C38.1391 41.2759 40.3316 41.6155 42.4836 42.4377C42.5789 42.8213 42.6766 43.2086 42.7767 43.6006C40.5247 43.1431 38.3858 42.9905 36.3899 43.1454H36.3887Z" fill="#292966"/>
</svg>
