<svg width="20" height="22" viewBox="0 0 20 22" fill="none" xmlns="http://www.w3.org/2000/svg">
<path d="M7.10756 18.7208C6.89479 18.7208 6.69423 18.6193 6.56764 18.4455C5.58236 17.0896 4.26153 15.498 2.78438 15.222C2.42214 15.1541 2.18345 14.8056 2.25056 14.4433C2.31843 14.0811 2.66694 13.8417 3.02917 13.9103C4.62682 14.2085 5.92248 15.453 7.00232 16.8105C9.08193 12.9441 12.1522 8.68648 16.5859 3.51224C16.8254 3.23236 17.2471 3.20033 17.527 3.43979C17.8068 3.67925 17.8396 4.10096 17.5994 4.38084C12.8743 9.8952 9.73014 14.3351 7.70239 18.354C7.59791 18.5614 7.39201 18.7002 7.16018 18.7185C7.14187 18.72 7.12433 18.7208 7.10603 18.7208H7.10756Z" fill="#FFFFFF" stroke="#FFFFFF"/>
</svg>
