<svg width="17" height="23" viewBox="0 0 17 23" fill="none" xmlns="http://www.w3.org/2000/svg">
<path d="M14.4504 17.1496C14.1304 16.7882 13.6825 16.2917 13.1167 15.6735C12.1334 14.599 10.9068 13.2774 9.67525 11.9644C11.1684 10.3422 12.7066 8.60691 14.2277 6.86793C14.6147 6.42498 14.5709 5.75324 14.1279 5.36504C13.685 4.97806 13.012 5.02309 12.625 5.46483C11.1477 7.15269 9.65578 8.8369 8.2113 10.4092C2.8946 4.78823 2.51492 4.65071 2.20582 4.53997C1.65213 4.3404 1.04245 4.62759 0.842877 5.18129C0.661557 5.68631 0.884252 6.23757 1.34425 6.48217C1.8517 6.8655 4.24172 9.32489 6.75343 11.9729C4.69441 14.1463 2.78021 16.0045 1.19822 17.2117C0.730921 17.5683 0.640868 18.2364 0.997424 18.7036C1.20673 18.9787 1.52435 19.1223 1.8444 19.1223C2.06953 19.1223 2.29709 19.0517 2.48936 18.9044C4.14315 17.6425 6.11334 15.7368 8.21495 13.522C10.6025 16.0617 12.7905 18.4384 13.2286 18.9933C13.4209 19.3231 13.775 19.5202 14.1474 19.5202C14.2715 19.5202 14.3981 19.4983 14.521 19.4521C14.9396 19.2951 15.2159 18.8923 15.2134 18.4457C15.211 18.0112 15.0333 17.8104 14.4468 17.1472L14.4504 17.1496Z" fill="#FFFFFF" stroke="#FFFFFF" stroke-width="0.5"/>
</svg>
