<svg width="30" height="28" viewBox="0 0 30 28" fill="none" xmlns="http://www.w3.org/2000/svg">
<path d="M15.5128 10.2953C15.4258 8.31779 13.9423 6.64453 11.9381 6.64453C10.0685 6.64453 8.27641 8.32387 8.36339 10.2953C8.45038 12.2728 9.93387 13.946 11.9381 13.946C13.8076 13.946 15.5998 12.2667 15.5128 10.2953Z" fill="#FF7534"/>
<path d="M23.6485 20.7396C23.5615 18.7621 22.078 17.0889 20.0738 17.0889C18.2043 17.0889 16.4122 18.7682 16.4991 20.7396C16.5861 22.7171 18.0696 24.3904 20.0738 24.3904C21.9434 24.3904 23.7355 22.711 23.6485 20.7396Z" fill="#FF7534"/>
<path d="M11.4665 18.5098C11.4236 18.5098 11.3795 18.5073 11.3354 18.5013C10.8648 18.4404 10.4942 18.0632 10.4322 17.5825C9.9973 14.18 8.59245 12.1623 5.89118 11.0696C5.79347 11.0379 5.69695 10.999 5.60163 10.9527C5.09759 10.7093 4.87001 10.1021 5.08687 9.57762C5.30374 9.05191 5.88641 8.79392 6.40951 8.99228C6.46074 9.01175 6.51198 9.03122 6.56322 9.05191C7.04937 9.15656 8.39822 8.46536 9.55761 7.05252C10.3667 6.06682 10.7337 5.13831 10.7087 4.60409C10.6336 4.42033 10.5609 4.23293 10.4906 4.04065C10.3059 3.53928 10.5144 2.97707 10.9768 2.72517C11.4391 2.47448 12.0122 2.612 12.3161 3.04887C12.5234 3.3458 12.6628 3.6768 12.7367 4.03213C14.2297 7.52103 16.6248 9.30868 20.0362 9.49122C20.5617 9.5192 20.9847 9.94391 21.0216 10.4806C21.0586 11.0172 20.6975 11.4979 20.1804 11.6001C16.315 12.368 13.7817 14.41 12.434 17.8405C12.2744 18.2481 11.8883 18.5086 11.4665 18.5086V18.5098ZM8.96779 10.399C10.2821 11.4188 11.2365 12.772 11.8454 14.4757C12.9393 12.8694 14.3715 11.6196 16.1327 10.7349C14.4966 9.9938 13.1299 8.79879 12.0384 7.15474C11.7989 7.57214 11.5046 7.99684 11.1567 8.42155C10.5287 9.18699 9.76614 9.8928 8.96898 10.4003L8.96779 10.399Z" fill="#292966"/>
<path d="M19.9814 25.3983C19.5751 25.3983 19.1938 25.1549 19.0246 24.7557C18.2513 22.9316 17.5208 22.238 16.3471 22.2903C16.0385 22.3986 15.7049 22.412 15.3629 22.2586C14.9387 22.07 14.6873 21.6185 14.7457 21.15C14.8029 20.6815 15.1568 20.3079 15.6131 20.2313C15.6632 20.2227 15.712 20.2154 15.7609 20.2081C16.3591 19.7238 17.4255 17.8741 17.5053 17.1756C17.4815 17.105 17.4589 17.0332 17.4374 16.9602C17.292 16.4734 17.5053 15.9502 17.945 15.7104C18.3847 15.4707 18.9281 15.5826 19.2426 15.9769C19.413 16.1899 19.5131 16.4345 19.5584 16.6986C19.9016 17.5261 20.6999 18.4533 23.0056 18.569C23.5144 18.5945 23.9314 18.9924 23.9898 19.5096C24.0482 20.0268 23.7324 20.5124 23.2415 20.656C21.3291 21.217 20.6606 22.2562 21.0061 24.1327C21.105 24.6657 20.7952 25.189 20.2876 25.3484C20.1863 25.38 20.0839 25.3958 19.9814 25.3958V25.3983ZM18.1964 20.5367C18.5992 20.7265 18.9471 20.9772 19.2498 21.2596C19.4535 20.8154 19.7324 20.4138 20.0827 20.0585C19.6716 19.8674 19.2784 19.624 18.9197 19.3174C18.6647 19.8163 18.3907 20.2507 18.1964 20.5367Z" fill="#292966"/>
</svg>
