<svg width="14" height="13" viewBox="0 0 14 13" fill="none" xmlns="http://www.w3.org/2000/svg">
<path d="M3.40305 12.8227C3.13853 12.8227 2.87519 12.7205 2.67262 12.5185C2.29371 12.1388 2.25439 11.5291 2.58087 11.102C3.36611 10.0761 3.66996 9.19993 3.51029 8.42232C3.30415 7.42445 2.3092 6.43023 0.550452 5.46765C0.0857421 5.21332 -0.120399 4.64502 0.0714429 4.14243C0.263284 3.64106 0.791147 3.36361 1.30233 3.49747C4.25383 4.27021 6.0936 3.38916 7.26491 0.640148C7.46747 0.165551 7.97508 -0.0924342 8.46839 0.0304742C8.96169 0.153383 9.29533 0.620679 9.26077 1.13787C9.07846 3.84064 10.3403 6.19902 13.1179 8.34809C13.5278 8.6657 13.6505 9.24131 13.405 9.70373C13.1608 10.1662 12.6222 10.3767 12.1372 10.2002C9.69927 9.31067 7.05757 10.0895 4.0596 12.583C3.86657 12.7436 3.63422 12.8227 3.40186 12.8227H3.40305ZM4.40992 5.77066C5.01166 6.46309 5.38939 7.1981 5.55144 7.98423C5.61698 8.30428 5.64557 8.62798 5.63604 8.95655C6.93842 8.26534 8.21339 7.86254 9.45619 7.75058C8.51366 6.60547 7.8595 5.38977 7.49607 4.10592C6.63338 4.98697 5.5991 5.54432 4.40992 5.77066Z" fill="#292966"/>
</svg>
