<svg width="19" height="31" viewBox="0 0 19 31" fill="none" xmlns="http://www.w3.org/2000/svg">
<path d="M6.4665 19.9156C6.4236 19.9156 6.37951 19.9133 6.33543 19.9073C5.86476 19.8477 5.49418 19.4783 5.43222 19.0077C4.9973 15.6761 3.59245 13.7004 0.891176 12.6304C0.793467 12.5994 0.696951 12.5613 0.601626 12.516C0.0975947 12.2777 -0.129994 11.6831 0.0868706 11.1696C0.303735 10.6548 0.88641 10.4022 1.40951 10.5964C1.46074 10.6155 1.51198 10.6346 1.56322 10.6548C2.04937 10.7573 3.39822 10.0805 4.55761 8.69707C5.36669 7.73191 5.73369 6.82275 5.70866 6.29965C5.63359 6.11972 5.56091 5.93622 5.49061 5.74796C5.30592 5.25703 5.51444 4.70653 5.97676 4.45988C6.43909 4.21442 7.01223 4.34906 7.31608 4.77683C7.52341 5.06757 7.66283 5.39168 7.7367 5.73962C9.22973 9.15583 11.6248 10.9062 15.0362 11.085C15.5617 11.1124 15.9847 11.5282 16.0216 12.0537C16.0586 12.5792 15.6975 13.0499 15.1804 13.1499C11.315 13.9018 8.7817 15.9013 7.43405 19.2603C7.27438 19.6595 6.88831 19.9144 6.4665 19.9144V19.9156ZM3.96779 11.9739C5.28208 12.9724 6.23653 14.2974 6.84541 15.9656C7.93927 14.3927 9.37153 13.169 11.1327 12.3027C9.49664 11.5771 8.12992 10.407 7.03845 8.79717C6.79894 9.20587 6.50463 9.62173 6.15669 10.0376C5.52874 10.7871 4.76614 11.4782 3.96898 11.9751L3.96779 11.9739Z" fill="#292966"/>
<path d="M14.9814 26.6616C14.5751 26.6616 14.1938 26.4233 14.0246 26.0325C13.2513 24.2463 12.5208 23.5671 11.3471 23.6184C11.0385 23.7244 10.7049 23.7375 10.3629 23.5874C9.93871 23.4027 9.68729 22.9606 9.74568 22.5019C9.80287 22.0431 10.1568 21.6773 10.6131 21.6022C10.6632 21.5939 10.712 21.5867 10.7609 21.5796C11.3591 21.1054 12.4255 19.2942 12.5053 18.6102C12.4815 18.5411 12.4589 18.4708 12.4374 18.3993C12.292 17.9227 12.5053 17.4103 12.945 17.1756C13.3847 16.9408 13.9281 17.0505 14.2426 17.4365C14.413 17.6451 14.5131 17.8846 14.5584 18.1431C14.9016 18.9534 15.6999 19.8614 18.0056 19.9746C18.5144 19.9996 18.9314 20.3892 18.9898 20.8956C19.0482 21.4021 18.7324 21.8775 18.2415 22.0181C16.3291 22.5674 15.6606 23.585 16.0061 25.4224C16.105 25.9443 15.7952 26.4567 15.2876 26.6128C15.1863 26.6437 15.0839 26.6592 14.9814 26.6592V26.6616ZM13.1964 21.9013C13.5992 22.0872 13.9471 22.3327 14.2498 22.6091C14.4535 22.1742 14.7324 21.781 15.0827 21.433C14.6716 21.246 14.2784 21.0076 13.9197 20.7074C13.6647 21.1959 13.3907 21.6213 13.1964 21.9013Z" fill="#292966"/>
</svg>
