<svg width="16" height="14" viewBox="0 0 16 14" fill="none" xmlns="http://www.w3.org/2000/svg">
<path d="M8.62911 13.097C8.53259 13.097 8.43607 13.0839 8.34194 13.0565C2.27212 11.318 0.0534314 7.61819 0.00100268 4.7358C-0.0371273 2.65534 1.01502 0.95855 2.68321 0.414005C3.55782 0.12803 5.72408 -0.149604 8.193 2.71372C9.7039 1.04792 11.6259 -0.427237 13.4001 0.113732C14.5595 0.466435 15.2959 1.58055 15.4222 3.1689C15.6712 6.30867 13.536 10.8187 9.08667 12.9909C8.94249 13.0613 8.78639 13.097 8.62911 13.097ZM3.80328 2.32289C3.64242 2.32289 3.48394 2.34672 3.33023 2.39677C2.56525 2.64699 2.06479 3.57165 2.08505 4.69767C2.12318 6.77695 3.8426 9.47703 8.52187 10.9343C10.7894 9.67245 13.6075 6.65184 13.3441 3.33453C13.2917 2.67678 13.076 2.19539 12.7924 2.1096C12.3408 1.97138 11.0277 2.42894 8.97466 5.01701C8.7709 5.27439 8.45633 5.42095 8.12746 5.41142C7.79859 5.40189 7.49355 5.23745 7.30528 4.96935C6.36156 3.62884 5.00199 2.32408 3.80328 2.32408V2.32289Z" fill="#292966"/>
</svg>
