<svg width="15" height="18" viewBox="0 0 15 18" fill="none" xmlns="http://www.w3.org/2000/svg">
<path d="M3.93529 17.3624C3.63264 17.3624 3.33475 17.2285 3.13099 16.9766C2.80688 16.5763 2.81284 15.9946 3.14648 15.6015C3.28827 15.4336 3.43365 15.2742 3.58021 15.1208C3.70532 14.8349 3.83759 14.3116 3.84712 13.5206C3.86261 12.3438 3.60881 11.0795 3.16793 10.1364C2.60789 8.9377 2.03475 8.77342 1.67013 8.80506C1.54025 8.83791 1.41037 8.87077 1.2793 8.90119C0.737139 9.03019 0.191405 8.70162 0.0400761 8.15522C-0.112444 7.60883 0.183064 7.03566 0.710926 6.85556C0.89681 6.79228 1.08031 6.74482 1.26262 6.7144C5.12209 5.70314 7.96993 3.74756 10.4484 0.42051C10.7761 -0.0200134 11.3802 -0.130752 11.8365 0.166175C12.2929 0.463102 12.4526 1.06791 12.2024 1.55833C9.71795 6.42112 10.2482 9.88568 13.8717 12.4595C14.2602 12.7357 14.4175 13.2431 14.2566 13.6971C14.0946 14.151 13.6549 14.4369 13.183 14.3943C9.47844 14.0536 7.04885 14.6682 5.23886 16.44C5.02438 16.7771 4.76224 17.0399 4.45601 17.22C4.29276 17.3162 4.11284 17.3636 3.93529 17.3636V17.3624ZM4.26893 7.95808C4.58708 8.34385 4.87186 8.81114 5.11375 9.35754C5.62136 10.5063 5.92163 11.9739 5.93235 13.3441C7.40512 12.5702 8.97441 12.2635 10.4865 12.1881C9.49989 10.9772 8.89458 9.61796 8.68248 8.12237C8.55617 7.23767 8.56928 6.30308 8.7218 5.32103C7.37653 6.4272 5.91091 7.29486 4.26893 7.95808Z" fill="#292966"/>
</svg>
