<svg width="15" height="15" viewBox="0 0 15 15" fill="none" xmlns="http://www.w3.org/2000/svg">
<path d="M8.18355 7.08001L3.18256 7.87121C2.63206 7.95819 2.11611 7.58285 2.02913 7.03235C1.94214 6.48185 2.31749 5.9659 2.86799 5.87892L7.86898 5.08772C8.41948 5.00074 8.93542 5.37608 9.02241 5.92658C9.10939 6.47708 8.73405 6.99303 8.18355 7.08001Z" fill="#292966"/>
<path d="M8.94735 11.9136C8.73883 11.947 8.51958 11.9136 8.31821 11.8088C7.82609 11.5478 7.63783 10.9377 7.89878 10.4456L9.08319 8.20786C9.34414 7.71574 9.95422 7.52748 10.4463 7.78843C10.9385 8.04938 11.1267 8.65946 10.8658 9.15158L9.68136 11.3893C9.52645 11.6813 9.25001 11.866 8.94616 11.9136H8.94735Z" fill="#292966"/>
</svg>
