<svg width="680" height="166" viewBox="0 0 680 166" fill="none" xmlns="http://www.w3.org/2000/svg">
<g clip-path="url(#clip0_1430_2046)">
<path d="M5.88984 124.35C2.64984 123.51 0.339844 122.47 0.339844 121C0.339844 120.48 0.649845 119.53 1.48985 118.28C5.35985 112.63 7.34984 98.9103 7.34984 85.6203C7.34984 72.3303 5.35985 59.4503 1.48985 53.5903C0.649845 52.3303 0.339844 51.2903 0.339844 50.7603C0.339844 46.6803 16.8798 45.5303 33.8398 45.5303C57.1798 45.5303 76.8598 57.5703 76.8598 84.4703C76.8598 103.94 63.1498 126.13 28.5998 126.13C20.7498 126.13 12.0598 125.92 5.87984 124.35H5.88984ZM59.0698 84.4703C59.0698 71.0703 55.5098 59.9703 47.0298 54.8503C42.7398 52.3403 37.3998 51.5003 32.0598 51.5003C28.8098 51.5003 25.6698 51.8103 22.7398 52.2303C21.6898 65.9403 21.5898 80.7003 21.5898 85.2003C21.5898 97.5503 22.3198 106.97 24.5198 112.63C26.6098 117.97 31.4298 119.23 36.2398 119.23C52.6698 119.23 59.0598 102.59 59.0598 84.4803L59.0698 84.4703Z" fill="#2E2B66"/>
<path d="M80.4202 121.73C80.4202 121.21 80.7302 120.58 81.5702 119.32C85.0202 114.19 86.8002 106.03 86.8002 98.5904C86.8002 87.8104 80.8302 80.9004 80.8302 78.8104C80.8302 76.7204 84.0802 74.8304 90.6702 74.8304C96.6402 74.8304 99.8802 76.9204 99.8802 81.9504C99.8802 86.9804 98.5202 92.4204 98.5202 98.5904C98.5202 106.02 100.3 114.19 103.75 119.32C104.59 120.58 104.9 121.2 104.9 121.73C104.9 123.93 100.08 125.71 92.7601 125.71C85.4401 125.71 80.4102 123.93 80.4102 121.73H80.4202ZM81.9902 58.1904C81.9902 53.0604 85.8602 49.1904 91.1002 49.1904C96.3402 49.1904 100.1 53.0604 100.1 58.1904C100.1 63.0104 96.2302 67.0904 91.1002 67.0904C85.9702 67.0904 81.9902 63.0104 81.9902 58.1904Z" fill="#2E2B66"/>
<path d="M109.1 116.6C109.1 109.59 110.78 106.24 112.97 106.24C114.85 106.24 116.11 109.17 117.16 112.21C118.94 117.13 122.29 120.48 127 120.48C130.98 120.48 133.49 118.18 133.49 114.41C133.49 111.69 132.34 109.7 127.73 106.98L124.9 105.3C116 100.07 112.44 95.4599 112.44 89.3899C112.44 80.4899 119.87 74.8398 129.4 74.8398C132.85 74.8398 134.32 75.5699 136.31 75.5699C138.3 75.5699 140.08 74.8398 141.54 74.8398C146.15 74.8398 146.67 81.8499 146.67 84.8899C146.67 89.3899 145.52 91.5898 144.05 91.5898C142.48 91.5898 141.02 89.4999 139.44 86.9799C136.4 81.9599 133.89 80.2798 130.75 80.2798C126.88 80.2798 124.57 82.8998 124.57 85.8298C124.57 89.1798 127.4 91.2699 131.48 93.7899L136.82 97.0298C142.89 100.69 146.56 104.25 146.56 110.43C146.56 118.91 138.81 126.13 128.87 126.13C124.26 126.13 121.54 125.19 119.34 125.19C117.14 125.19 115.36 126.13 114 126.13C111.49 126.13 109.08 123.3 109.08 116.6H109.1Z" fill="#2E2B66"/>
<path d="M152.54 113.25C152.54 106.76 155.99 99.5399 155.99 91.0599C155.99 80.3799 150.65 81.0099 150.65 77.1399C150.65 72.9499 159.65 66.8799 162.69 66.8799C164.89 66.8799 166.35 68.9699 167.19 70.8599C168.87 74.1099 170.33 75.8799 173.99 75.8799H177.76C180.17 75.8799 181.42 77.2399 181.42 78.8099C181.42 80.5899 180.16 81.8499 177.97 81.8499H167.19V102.05C167.19 113.67 169.39 117.33 173.79 117.33C177.45 117.33 180.91 114.92 182.37 114.92C183.31 114.92 184.05 115.65 184.05 116.49C184.05 120.68 175.57 126.12 166.67 126.12C159.24 126.12 152.54 122.56 152.54 113.24V113.25Z" fill="#2E2B66"/>
<path d="M185.931 121.73C185.931 121.21 186.241 120.58 187.081 119.32C190.531 114.19 192.421 105.92 192.421 98.7003C192.421 94.6203 191.691 90.6403 190.331 87.3903C188.341 82.5803 184.891 79.9603 184.891 78.0703C184.891 75.9803 188.971 74.8203 192.841 74.8203C199.441 74.8203 201.741 79.1103 205.611 79.1103C209.481 79.1103 212.001 74.8203 217.751 74.8203C222.771 74.8203 225.391 78.1703 225.391 81.9403C225.391 85.5003 223.091 89.0603 218.481 89.0603C213.251 89.0603 212.931 84.3503 208.641 84.3503C207.591 84.3503 206.441 84.6603 205.291 85.2903C204.981 87.1703 204.351 91.1503 204.351 98.5803C204.351 106.01 206.441 114.18 209.901 119.31C210.741 120.57 211.051 121.19 211.051 121.72C211.051 123.92 206.231 125.7 198.491 125.7C190.751 125.7 185.931 123.92 185.931 121.72V121.73Z" fill="#2E2B66"/>
<path d="M224.449 100.48C224.449 83.6301 237.739 74.8301 249.889 74.8301C262.039 74.8301 275.329 83.6201 275.329 100.48C275.329 117.34 262.039 126.13 249.889 126.13C237.739 126.13 224.449 117.34 224.449 100.48ZM260.039 105.4C260.039 93.4701 256.799 80.5901 248.109 80.5901C242.139 80.5901 239.739 86.4501 239.739 95.5601C239.739 107.49 242.979 120.37 251.669 120.37C257.639 120.37 260.039 114.51 260.039 105.4Z" fill="#2E2B66"/>
<path d="M437.021 124.35C433.781 123.51 431.471 122.47 431.471 121C431.471 120.48 431.781 119.53 432.621 118.28C436.491 112.63 438.481 98.9103 438.481 85.6203C438.481 72.3303 436.491 59.4503 432.621 53.5903C431.781 52.3303 431.471 51.2903 431.471 50.7603C431.471 46.6803 448.011 45.5303 464.971 45.5303C488.311 45.5303 507.991 57.5703 507.991 84.4703C507.991 103.94 494.281 126.13 459.731 126.13C451.881 126.13 443.191 125.92 437.011 124.35H437.021ZM490.201 84.4703C490.201 71.0703 486.641 59.9703 478.161 54.8503C473.871 52.3403 468.531 51.5003 463.191 51.5003C459.941 51.5003 456.801 51.8103 453.871 52.2303C452.821 65.9403 452.721 80.7003 452.721 85.2003C452.721 97.5503 453.451 106.97 455.651 112.63C457.741 117.97 462.561 119.23 467.371 119.23C483.801 119.23 490.191 102.59 490.191 84.4803L490.201 84.4703Z" fill="#2E2B66"/>
<path d="M513.641 121.73C513.641 121.21 513.951 120.58 514.791 119.32C518.241 114.19 520.021 106.03 520.021 98.5904C520.021 87.8104 514.051 80.9004 514.051 78.8104C514.051 76.7204 517.301 74.8304 523.891 74.8304C529.861 74.8304 533.101 76.9204 533.101 81.9504C533.101 86.9804 531.741 92.4204 531.741 98.5904C531.741 106.02 533.521 114.19 536.971 119.32C537.811 120.58 538.121 121.2 538.121 121.73C538.121 123.93 533.301 125.71 525.981 125.71C518.661 125.71 513.631 123.93 513.631 121.73H513.641ZM515.211 58.1904C515.211 53.0604 519.081 49.1904 524.321 49.1904C529.561 49.1904 533.321 53.0604 533.321 58.1904C533.321 63.0104 529.451 67.0904 524.321 67.0904C519.191 67.0904 515.211 63.0104 515.211 58.1904Z" fill="#2E2B66"/>
<path d="M542.321 116.6C542.321 109.59 544.001 106.24 546.191 106.24C548.071 106.24 549.331 109.17 550.381 112.21C552.161 117.13 555.511 120.48 560.221 120.48C564.201 120.48 566.711 118.18 566.711 114.41C566.711 111.69 565.561 109.7 560.951 106.98L558.121 105.3C549.221 100.07 545.661 95.4599 545.661 89.3899C545.661 80.4899 553.091 74.8398 562.621 74.8398C566.071 74.8398 567.541 75.5699 569.531 75.5699C571.521 75.5699 573.301 74.8398 574.761 74.8398C579.371 74.8398 579.891 81.8499 579.891 84.8899C579.891 89.3899 578.741 91.5898 577.271 91.5898C575.701 91.5898 574.241 89.4999 572.661 86.9799C569.621 81.9599 567.111 80.2798 563.971 80.2798C560.101 80.2798 557.791 82.8998 557.791 85.8298C557.791 89.1798 560.621 91.2699 564.701 93.7899L570.041 97.0298C576.111 100.69 579.781 104.25 579.781 110.43C579.781 118.91 572.031 126.13 562.091 126.13C557.481 126.13 554.761 125.19 552.561 125.19C550.361 125.19 548.581 126.13 547.221 126.13C544.711 126.13 542.301 123.3 542.301 116.6H542.321Z" fill="#2E2B66"/>
<path d="M582.41 102.26C582.41 86.5601 593.72 74.8301 608.26 74.8301C617.58 74.8301 625.32 79.4401 625.32 85.8201C625.32 89.8001 622.18 92.5201 618.51 92.5201C615.06 92.5201 611.71 90.1101 611.71 85.8201C611.71 82.5801 609.41 80.5901 605.64 80.5901C599.15 80.5901 595.07 86.2401 595.07 95.6601C595.07 106.86 600.41 114.08 610.04 114.08C614.44 114.08 617.68 112.3 620.4 110.1C621.76 108.95 622.81 108.42 623.75 108.42C625.01 108.42 625.74 109.26 625.74 110.41C625.74 111.14 625.53 111.98 625.01 113.13C622.08 119.72 615.17 126.11 605.02 126.11C592.14 126.11 582.41 116.69 582.41 102.24V102.26Z" fill="#2E2B66"/>
<path d="M628.781 100.48C628.781 83.6301 642.071 74.8301 654.221 74.8301C666.371 74.8301 679.661 83.6201 679.661 100.48C679.661 117.34 666.371 126.13 654.221 126.13C642.071 126.13 628.781 117.34 628.781 100.48ZM664.371 105.4C664.371 93.4701 661.131 80.5901 652.441 80.5901C646.471 80.5901 644.071 86.4501 644.071 95.5601C644.071 107.49 647.311 120.37 656.001 120.37C661.971 120.37 664.371 114.51 664.371 105.4Z" fill="#2E2B66"/>
<path d="M424.33 108.39C425.66 104.73 427.05 100.91 427.75 97.0404C428.38 93.5404 428.46 89.8604 428.47 86.3304C428.47 84.6004 428.32 82.8704 428.03 81.1704C426.19 70.3604 422.16 59.9704 414.99 51.5204C411.31 47.1904 407.57 43.0204 403.2 39.3904C398.64 35.6104 393.67 31.9704 388.35 29.3804C377.25 24.0004 363.85 23.4404 352.36 27.9904C347.59 29.8704 342.75 32.3004 338.79 35.6304C335.96 38.0104 333.26 40.4004 330.81 43.0504C329.07 44.2004 327.39 45.4404 325.78 46.7704C321.52 50.3004 317.17 54.0104 313.88 58.5004C310.83 62.6704 307.77 67.1704 305.96 72.0704C304.74 75.3704 303.55 78.7704 302.8 82.2304C302.06 85.7004 302.02 89.3504 301.9 92.8604C301.73 98.0204 302.81 103.45 304.61 108.25C306.49 113.25 309.16 118.17 312.47 122.38C315.98 126.84 319.83 131.16 324.03 134.98C328.54 139.08 333.61 142.45 338.75 145.7C342.16 147.86 345.73 149.75 349.45 151.31C356.26 154.16 363.41 156.31 370.89 155.44C376.44 154.79 381.95 153.17 387 150.78C390.24 149.25 393.59 147.68 396.64 145.74C399.8 143.73 402.59 141.13 405.33 138.6C409.56 134.68 412.61 129.59 415.66 124.78C417.88 121.28 420 117.68 421.88 113.99C422.8 112.17 423.64 110.32 424.34 108.41L424.33 108.39Z" fill="#FF7534"/>
<path d="M351.699 13.54C313.599 13.54 282.609 44.53 282.609 82.63C282.609 120.73 313.599 151.72 351.699 151.72C389.799 151.72 420.789 120.73 420.789 82.63C420.789 44.53 389.799 13.54 351.699 13.54ZM331.009 78.12C336.929 79.13 342.809 79.7 348.639 79.7C351.489 79.7 354.329 79.57 357.159 79.33C357.449 86.32 357.459 92.92 357.199 99.18C348.379 99.57 339.699 98.78 331.159 96.85C330.409 90.97 330.359 84.74 331.009 78.12ZM322.799 94.58C311.959 91.12 301.309 85.74 290.819 78.47C291.129 73.86 291.959 69.38 293.239 65.1C303.279 70.27 313.229 74.06 323.069 76.47C322.399 82.8 322.299 88.83 322.789 94.58H322.799ZM365.169 78.32C371.649 77.24 378.059 75.51 384.409 73.15C385.889 80.26 386.299 87.23 385.589 94.09C378.729 96.21 371.959 97.68 365.279 98.5C365.509 92.12 365.479 85.4 365.169 78.32ZM392.069 69.98C397.669 67.43 403.209 64.38 408.699 60.82C411.289 67.58 412.729 74.91 412.739 82.57C406.399 85.95 400.149 88.83 393.979 91.19C394.349 84.22 393.719 77.16 392.069 69.98ZM351.699 21.59C374.769 21.59 394.879 34.45 405.259 53.38C400.139 56.77 394.999 59.69 389.829 62.14C387.179 54.07 383.329 45.84 378.179 37.42C377.019 35.52 374.539 34.92 372.639 36.08C370.739 37.24 370.139 39.72 371.299 41.62C376.259 49.73 379.919 57.63 382.359 65.35C376.519 67.6 370.639 69.25 364.709 70.31C364.039 60.59 362.899 50.18 361.279 38.94C360.959 36.74 358.929 35.22 356.719 35.53C354.519 35.85 352.989 37.89 353.309 40.09C354.929 51.33 356.059 61.7 356.709 71.36C348.589 72.08 340.379 71.72 332.049 70.25C333.609 61.17 336.369 51.42 340.349 40.94C341.139 38.86 340.089 36.53 338.009 35.75C335.929 34.96 333.609 36.01 332.819 38.09C328.709 48.91 325.829 59.05 324.159 68.56C314.959 66.2 305.609 62.49 296.079 57.5C305.679 36.35 326.979 21.59 351.679 21.59H351.699ZM351.699 143.67C319.919 143.67 293.749 119.26 290.929 88.2C301.709 95.07 312.749 100.07 324.029 103.2C325.459 110.36 327.859 117.07 331.289 123.33C332.019 124.66 333.399 125.42 334.819 125.42C335.479 125.42 336.139 125.26 336.759 124.92C338.709 123.85 339.419 121.4 338.349 119.45C335.899 115 334.059 110.25 332.759 105.24C339.369 106.5 346.069 107.15 352.829 107.15C354.119 107.15 355.419 107.05 356.709 107.01C356.249 112.66 355.549 118.04 354.599 123.19C354.199 125.38 355.639 127.48 357.829 127.88C358.079 127.93 358.319 127.95 358.559 127.95C360.459 127.95 362.159 126.59 362.519 124.65C363.589 118.86 364.359 112.81 364.839 106.43C371.189 105.74 377.599 104.56 384.069 102.79C382.859 107.78 381.089 112.71 378.699 117.6C377.719 119.6 378.549 122.01 380.549 122.99C381.119 123.27 381.719 123.4 382.319 123.4C383.809 123.4 385.239 122.57 385.939 121.14C389.349 114.18 391.659 107.17 392.929 100.06C399.239 97.88 405.599 95.16 412.019 91.96C407.509 121.2 382.179 143.65 351.699 143.65V143.67Z" fill="#2E2B66"/>
<path d="M410.619 25.5804C409.719 25.6704 408.779 25.4604 407.969 24.9204C406.089 23.6704 405.579 21.1404 406.829 19.2604L418.349 1.91037C419.599 0.0303707 422.129 -0.479644 424.019 0.770356C425.899 2.02036 426.409 4.55036 425.159 6.43036L413.639 23.7804C412.929 24.8504 411.809 25.4704 410.629 25.5904L410.619 25.5804Z" fill="#2E2B66"/>
<path d="M419.509 36.21C417.569 36.4 415.709 35.17 415.179 33.22C414.579 31.04 415.859 28.8001 418.039 28.2001L435.559 23.3901C437.749 22.7901 439.989 24.07 440.579 26.25C441.179 28.43 439.899 30.67 437.719 31.27L420.199 36.08C419.969 36.14 419.739 36.19 419.509 36.21Z" fill="#2E2B66"/>
<path d="M294.879 145.271L280.299 159.691C278.699 161.281 276.109 161.261 274.519 159.661C272.929 158.061 272.949 155.471 274.549 153.881L289.129 139.461C290.729 137.871 293.319 137.891 294.909 139.491C296.499 141.091 296.479 143.681 294.879 145.271Z" fill="#2E2B66"/>
<path d="M303.11 165.57C302.33 165.92 301.44 166.02 300.54 165.82C298.34 165.32 296.96 163.13 297.46 160.93L299.74 150.93C300.24 148.73 302.43 147.35 304.63 147.85C306.83 148.35 308.21 150.54 307.71 152.74L305.43 162.74C305.13 164.04 304.24 165.06 303.11 165.57Z" fill="#2E2B66"/>
<path d="M271.98 138.29C271.3 137.78 270.77 137.05 270.51 136.17C269.88 134 271.12 131.73 273.29 131.1L283.14 128.23C285.31 127.6 287.58 128.84 288.21 131.01C288.84 133.18 287.6 135.45 285.43 136.08L275.58 138.95C274.3 139.32 272.98 139.04 271.98 138.3V138.29Z" fill="#2E2B66"/>
</g>
<defs>
<clipPath id="clip0_1430_2046">
<rect width="680" height="166" fill="white"/>
</clipPath>
</defs>
</svg>
