<svg width="113" height="95" viewBox="0 0 113 95" fill="none" xmlns="http://www.w3.org/2000/svg">
<path d="M102.322 65.8784C103.129 63.6592 103.969 61.3439 104.391 59.004C104.774 56.8831 104.823 54.655 104.829 52.514C104.834 51.4658 104.74 50.4177 104.566 49.3852C103.448 42.8349 101.012 36.5415 96.6678 31.4237C94.4396 28.8 92.1713 26.2724 89.523 24.0755C86.7607 21.787 83.7503 19.579 80.5232 18.0124C73.8008 14.7517 65.6816 14.4143 58.7178 17.1676C55.8304 18.3096 52.8938 19.7802 50.4958 21.7938C48.7839 23.233 47.1435 24.6812 45.6596 26.2858C44.607 26.9853 43.5856 27.7317 42.6113 28.5385C40.0322 30.6773 37.3951 32.9233 35.4016 35.6476C33.5534 38.1707 31.6963 40.9039 30.6034 43.8696C29.8659 45.8698 29.1396 47.9303 28.6904 50.0244C28.2389 52.1274 28.2166 54.3354 28.1473 56.463C28.0445 59.5873 28.6971 62.877 29.7877 65.7845C30.923 68.8127 32.5433 71.7962 34.5502 74.3484C36.6733 77.0504 39.0087 79.6652 41.5542 81.9827C44.2852 84.4678 47.3581 86.506 50.4734 88.4749C52.5407 89.7801 54.7018 90.9288 56.9567 91.8741C61.0823 93.6017 65.4134 94.9046 69.9479 94.3772C73.3114 93.9838 76.6458 93.0005 79.7053 91.5523C81.6652 90.6249 83.7012 89.6728 85.5449 88.4995C87.4602 87.2815 89.152 85.7082 90.808 84.1706C93.3669 81.7972 95.2174 78.7131 97.0656 75.7966C98.4087 73.678 99.6982 71.4968 100.831 69.2597C101.388 68.1602 101.897 67.036 102.32 65.8761L102.322 65.8784Z" fill="#FF7534"/>
<path d="M58.3116 8.16553C35.2055 8.16553 16.4082 26.9628 16.4082 50.0689C16.4082 73.175 35.2055 91.9723 58.3116 91.9723C81.4177 91.9723 100.215 73.175 100.215 50.0689C100.215 26.9628 81.4177 8.16553 58.3116 8.16553ZM45.7629 47.3312C49.3499 47.9436 52.9167 48.2855 56.4545 48.2855C58.1842 48.2855 59.9051 48.2095 61.6214 48.0643C61.7957 52.3038 61.8047 56.3042 61.6482 60.1056C56.2958 60.3403 51.0372 59.8643 45.8546 58.6887C45.4009 55.1242 45.3696 51.3428 45.7629 47.3312ZM40.7837 57.3143C34.2065 55.218 27.7523 51.9551 21.3897 47.5413C21.5796 44.7433 22.078 42.0302 22.858 39.4355C28.9479 42.571 34.982 44.8707 40.9535 46.3323C40.5446 50.1695 40.4865 53.8279 40.7837 57.3143ZM66.4845 47.4542C70.4111 46.7994 74.3019 45.749 78.1571 44.3164C79.0577 48.6297 79.3013 52.858 78.8722 57.0171C74.7087 58.3043 70.6055 59.1961 66.5537 59.6944C66.6945 55.8214 66.6722 51.7518 66.4845 47.4542ZM82.7944 42.3989C86.1869 40.8502 89.5503 39.0064 92.8802 36.8453C94.4536 40.944 95.3252 45.3892 95.3296 50.0354C91.4879 52.087 87.6954 53.8347 83.9543 55.2605C84.1777 51.0344 83.7956 46.7524 82.7944 42.3989ZM58.3116 13.0509C72.3018 13.0509 84.5018 20.8528 90.7951 32.3332C87.6909 34.387 84.5733 36.1592 81.4401 37.6432C79.8354 32.7466 77.5 27.7584 74.3779 22.6496C73.674 21.4964 72.1721 21.1366 71.019 21.8383C69.868 22.5423 69.506 24.0441 70.2077 25.1973C73.2136 30.1162 75.4373 34.9055 76.9167 39.5875C73.3745 40.9485 69.8077 41.9542 66.214 42.5978C65.8073 36.7023 65.1145 30.3889 64.1334 23.5748C63.9412 22.2406 62.7076 21.3176 61.3666 21.5053C60.0324 21.6975 59.105 22.9356 59.2972 24.2721C60.2783 31.0906 60.9621 37.3795 61.3577 43.2392C56.4321 43.675 51.4506 43.4583 46.3999 42.5666C47.3474 37.0576 49.0191 31.1442 51.4305 24.7906C51.9088 23.5301 51.2763 22.1199 50.0136 21.6394C48.7509 21.1634 47.343 21.7959 46.8625 23.0563C44.3706 29.6201 42.623 35.7681 41.6128 41.534C36.0324 40.1015 30.3604 37.8533 24.5855 34.8295C30.4073 22.0015 43.327 13.0509 58.3071 13.0509H58.3116ZM58.3116 87.087C39.0383 87.087 23.1664 72.2811 21.4545 53.448C27.9914 57.616 34.687 60.6487 41.5301 62.5483C42.3973 66.8929 43.8521 70.9625 45.935 74.7573C46.3798 75.5663 47.2156 76.0245 48.0782 76.0245C48.476 76.0245 48.8783 75.9261 49.2515 75.7228C50.4338 75.0724 50.8651 73.5885 50.217 72.4062C48.7331 69.7043 47.6179 66.8281 46.829 63.7887C50.8405 64.553 54.899 64.9486 59.0044 64.9486C59.7866 64.9486 60.5733 64.8904 61.3577 64.8636C61.0761 68.2874 60.656 71.5525 60.0794 74.6746C59.8358 75.9999 60.7118 77.2737 62.0393 77.5196C62.1891 77.5464 62.3366 77.562 62.4841 77.562C63.6395 77.562 64.6675 76.7374 64.8821 75.5596C65.5279 72.0487 65.9972 68.3768 66.29 64.5105C70.1407 64.0948 74.0271 63.373 77.9515 62.3025C77.2184 65.3262 76.1457 68.3187 74.693 71.2844C74.1008 72.4956 74.6014 73.9595 75.8127 74.5517C76.1591 74.7215 76.5234 74.802 76.8854 74.802C77.7883 74.802 78.6577 74.2992 79.0801 73.432C81.1473 69.2126 82.5485 64.9575 83.3173 60.6487C87.1434 59.3257 91.003 57.6764 94.8916 55.7387C92.1562 73.47 76.7938 87.0914 58.3071 87.0914L58.3116 87.087Z" fill="#292966"/>
<path d="M94.0488 15.4666C93.5013 15.5202 92.9336 15.3928 92.4397 15.0643C91.2999 14.3067 90.9893 12.7691 91.7447 11.6294L98.7308 1.10769C99.4884 -0.0320795 101.026 -0.342724 102.166 0.412655C103.306 1.17027 103.616 2.70784 102.861 3.84762L95.8747 14.3693C95.4456 15.0152 94.764 15.3951 94.0488 15.4644V15.4666Z" fill="#292966"/>
<path d="M99.4388 21.9141C98.2611 22.0281 97.1369 21.2839 96.8106 20.1039C96.4486 18.7831 97.2241 17.4198 98.5449 17.0578L109.167 14.1391C110.492 13.7748 111.851 14.5525 112.213 15.8711C112.575 17.1919 111.8 18.5551 110.479 18.9172L99.8567 21.8359C99.716 21.8739 99.5752 21.9007 99.4366 21.9141H99.4388Z" fill="#292966"/>
<path d="M15.1542 80.0628L2.86699 82.0049C1.51491 82.2194 0.245516 81.2964 0.0309702 79.9443C-0.183575 78.5922 0.739417 77.3229 2.0915 77.1083L14.3787 75.1662C15.7308 74.9517 17.0002 75.8747 17.2147 77.2267C17.4293 78.5788 16.5063 79.8482 15.1542 80.0628Z" fill="#292966"/>
<path d="M17.0293 91.9433C16.5175 92.0237 15.9766 91.9455 15.485 91.6863C14.2759 91.0471 13.8133 89.5453 14.4525 88.3362L17.3622 82.8385C18.0037 81.6294 19.5032 81.1668 20.7123 81.806C21.9213 82.4452 22.384 83.947 21.7448 85.156L18.835 90.6538C18.4551 91.3711 17.7735 91.8248 17.0293 91.9433Z" fill="#292966"/>
</svg>
