<svg width="152" height="38" viewBox="0 0 152 38" fill="none" xmlns="http://www.w3.org/2000/svg">
<path d="M79.5946 4.91748C70.8344 4.91748 63.7051 11.8664 63.7051 20.4098C63.7051 28.9532 70.8322 35.9021 79.5946 35.9021C88.3571 35.9021 95.4842 28.9532 95.4842 20.4098C95.4842 11.8664 88.3571 4.91748 79.5946 4.91748ZM74.8367 19.3971C76.1976 19.6221 77.5499 19.7495 78.8913 19.7495C79.5467 19.7495 80.2 19.7219 80.8511 19.6667C80.9164 21.2335 80.9207 22.7134 80.8619 24.1188C78.8325 24.2059 76.8378 24.0297 74.8737 23.5944C74.7017 22.276 74.6908 20.879 74.8389 19.3949L74.8367 19.3971ZM72.9488 23.087C70.4555 22.3121 68.0079 21.1062 65.5952 19.4735C65.667 18.4395 65.8565 17.4353 66.1526 16.4757C68.4608 17.6349 70.7494 18.4841 73.0141 19.0255C72.8595 20.4438 72.8377 21.7962 72.9509 23.0849L72.9488 23.087ZM82.6933 19.4438C84.1827 19.2017 85.6569 18.8132 87.118 18.2846C87.4599 19.879 87.5514 21.4416 87.3902 22.9787C85.8115 23.4543 84.2546 23.7855 82.7194 23.9681C82.7738 22.5371 82.7651 21.0319 82.6933 19.4438ZM88.8775 17.5733C90.1644 17.0001 91.4405 16.3186 92.7013 15.5203C93.2979 17.0362 93.6289 18.6794 93.6311 20.397C92.1743 21.155 90.7371 21.8004 89.3174 22.3291C89.4023 20.7665 89.2564 19.1848 88.8775 17.5733ZM79.5946 6.72424C84.8991 6.72424 89.5242 9.60954 91.9108 13.8536C90.7349 14.6137 89.5525 15.2676 88.3636 15.8175C87.7539 14.0065 86.8698 12.1636 85.6852 10.2741C85.4195 9.84733 84.849 9.71357 84.4113 9.97471C83.9758 10.2337 83.8365 10.79 84.1043 11.2167C85.2432 13.0362 86.0881 14.8048 86.6477 16.5372C85.3041 17.0404 83.9519 17.412 82.5887 17.6497C82.4341 15.4693 82.1728 13.136 81.8005 10.618C81.7264 10.1255 81.2604 9.78364 80.7509 9.8537C80.2457 9.92589 79.8929 10.3824 79.967 10.877C80.3393 13.3972 80.5985 15.7241 80.7487 17.8897C78.8804 18.051 76.9924 17.9703 75.0762 17.6413C75.4355 15.6052 76.0692 13.4184 76.9837 11.0702C77.1645 10.6032 76.9249 10.083 76.4459 9.90465C75.9668 9.72844 75.4333 9.96198 75.2504 10.4291C74.3054 12.8558 73.6434 15.1296 73.2601 17.2612C71.1436 16.7304 68.9943 15.9003 66.8037 14.7814C69.0117 10.0384 73.9112 6.73061 79.5903 6.73061L79.5946 6.72424ZM79.5946 34.0953C72.2868 34.0953 66.268 28.622 65.6191 21.6582C68.0972 23.1995 70.6362 24.3205 73.2318 25.0233C73.5606 26.6284 74.1116 28.1336 74.902 29.537C75.0697 29.8364 75.3876 30.0062 75.7142 30.0062C75.8645 30.0062 76.0169 29.9701 76.1584 29.8937C76.607 29.6538 76.7703 29.1039 76.5243 28.6665C75.9625 27.6687 75.5378 26.605 75.2395 25.4798C76.7616 25.7621 78.299 25.9086 79.8559 25.9086C80.1521 25.9086 80.4504 25.8874 80.7487 25.8768C80.642 27.1421 80.4831 28.3502 80.2653 29.503C80.1717 29.9935 80.5048 30.4648 81.0078 30.554C81.0645 30.5646 81.1211 30.5688 81.1777 30.5688C81.6154 30.5688 82.0052 30.2652 82.0879 29.83C82.334 28.5307 82.5104 27.174 82.6214 25.7451C84.0825 25.5923 85.5546 25.3248 87.044 24.9299C86.7653 26.0488 86.3602 27.1549 85.8093 28.2504C85.585 28.6984 85.7745 29.2398 86.234 29.4585C86.3646 29.52 86.504 29.5498 86.6412 29.5498C86.983 29.5498 87.3118 29.3629 87.473 29.0445C88.2569 27.484 88.7882 25.9107 89.08 24.3184C90.5302 23.828 91.9936 23.2187 93.4699 22.5032C92.4334 29.0593 86.6085 34.0932 79.599 34.0932L79.5946 34.0953Z" fill="#292966"/>
<path d="M93.1457 7.61786C92.9388 7.63697 92.7232 7.59027 92.536 7.46925C92.1026 7.189 91.985 6.62001 92.2725 6.19963L94.9204 2.3101C95.2078 1.8876 95.7914 1.77296 96.2225 2.05321C96.6559 2.33346 96.7735 2.90245 96.486 3.32282L93.8381 7.21236C93.6748 7.45227 93.4179 7.59239 93.1457 7.61786Z" fill="#292966"/>
<path d="M95.191 10.0021C94.7446 10.0446 94.3178 9.76856 94.1958 9.33332C94.0586 8.84501 94.3526 8.34184 94.8534 8.20808L98.8819 7.12954C99.3849 6.99578 99.8988 7.2824 100.038 7.77071C100.175 8.25903 99.8814 8.76221 99.3805 8.89596L95.3521 9.9745C95.2998 9.98936 95.2454 9.99786 95.1931 10.0042L95.191 10.0021Z" fill="#292966"/>
<path d="M63.2302 31.4986L58.5702 32.2162C58.0585 32.2947 57.5773 31.955 57.4945 31.454C57.4118 30.9529 57.7624 30.4858 58.2763 30.4052L62.9362 29.6876C63.4479 29.609 63.9292 29.9487 64.0119 30.4498C64.0947 30.9508 63.7441 31.4179 63.2302 31.4986Z" fill="#292966"/>
<path d="M63.942 35.889C63.7482 35.9187 63.5435 35.889 63.3562 35.7935C62.8968 35.5578 62.7226 35.0015 62.9643 34.5557L64.0683 32.5239C64.3122 32.0759 64.8805 31.9061 65.3378 32.1417C65.7951 32.3774 65.9715 32.9336 65.7298 33.3795L64.6257 35.4113C64.482 35.6767 64.2229 35.8444 63.942 35.889Z" fill="#292966"/>
<path d="M2.18315 27.0869C1.47762 26.9085 0.974609 26.6877 0.974609 26.3756C0.974609 26.2652 1.04211 26.0635 1.22503 25.7981C2.06774 24.5986 2.50107 21.6857 2.50107 18.8641C2.50107 16.0425 2.06774 13.3079 1.22503 12.0638C1.04211 11.7963 0.974609 11.5755 0.974609 11.4629C0.974609 10.5967 4.57627 10.3525 8.26938 10.3525C13.3518 10.3525 17.6372 12.9088 17.6372 18.6199C17.6372 22.7536 14.6518 27.4648 7.12835 27.4648C5.41898 27.4648 3.52669 27.4202 2.18097 27.0869H2.18315ZM13.7633 18.6178C13.7633 15.7728 12.9881 13.4162 11.1416 12.3292C10.2074 11.7963 9.04459 11.6179 7.88178 11.6179C7.17408 11.6179 6.49033 11.6837 5.85231 11.7729C5.62367 14.6837 5.60189 17.8174 5.60189 18.7728C5.60189 21.3948 5.76085 23.3948 6.23991 24.5965C6.69502 25.7302 7.7446 25.9977 8.79199 25.9977C12.3697 25.9977 13.7612 22.4649 13.7612 18.6199L13.7633 18.6178Z" fill="#292966"/>
<path d="M18.4123 26.5304C18.4123 26.42 18.4798 26.2863 18.6627 26.0187C19.414 24.9296 19.8016 23.1971 19.8016 21.6175C19.8016 19.3288 18.5016 17.8618 18.5016 17.418C18.5016 16.9743 19.2093 16.573 20.6443 16.573C21.9443 16.573 22.6498 17.0168 22.6498 18.0847C22.6498 19.1526 22.3537 20.3076 22.3537 21.6175C22.3537 23.195 22.7413 24.9296 23.4925 26.0187C23.6755 26.2863 23.743 26.4179 23.743 26.5304C23.743 26.9975 22.6934 27.3754 21.0994 27.3754C19.5055 27.3754 18.4102 26.9975 18.4102 26.5304H18.4123ZM18.7542 13.0402C18.7542 11.951 19.5969 11.1294 20.738 11.1294C21.879 11.1294 22.6977 11.951 22.6977 13.0402C22.6977 14.0635 21.855 14.9298 20.738 14.9298C19.6209 14.9298 18.7542 14.0635 18.7542 13.0402Z" fill="#292966"/>
<path d="M24.6567 25.4413C24.6567 23.953 25.0225 23.2418 25.4994 23.2418C25.9088 23.2418 26.1832 23.8638 26.4118 24.5092C26.7994 25.5538 27.5289 26.2651 28.5545 26.2651C29.4212 26.2651 29.9677 25.7767 29.9677 24.9763C29.9677 24.3988 29.7173 23.9763 28.7135 23.3989L28.0972 23.0422C26.1592 21.9318 25.384 20.953 25.384 19.6643C25.384 17.7748 27.0019 16.5752 29.0771 16.5752C29.8284 16.5752 30.1485 16.7302 30.5818 16.7302C31.0151 16.7302 31.4027 16.5752 31.7207 16.5752C32.7245 16.5752 32.8377 18.0635 32.8377 18.7089C32.8377 19.6643 32.5873 20.1314 32.2672 20.1314C31.9253 20.1314 31.6074 19.6877 31.2634 19.1526C30.6014 18.0868 30.0548 17.7302 29.3711 17.7302C28.5284 17.7302 28.0254 18.2864 28.0254 18.9085C28.0254 19.6197 28.6416 20.0635 29.53 20.5985L30.6929 21.2864C32.0146 22.0634 32.8138 22.8193 32.8138 24.1313C32.8138 25.9317 31.1262 27.4646 28.9617 27.4646C27.9579 27.4646 27.3656 27.265 26.8865 27.265C26.4074 27.265 26.0198 27.4646 25.7237 27.4646C25.1771 27.4646 24.6523 26.8638 24.6523 25.4413H24.6567Z" fill="#292966"/>
<path d="M34.1166 24.7301C34.1166 23.3522 34.8679 21.8193 34.8679 20.0189C34.8679 17.7514 33.7051 17.8852 33.7051 17.0636C33.7051 16.174 35.6649 14.8853 36.3268 14.8853C36.8059 14.8853 37.1238 15.329 37.3067 15.7303C37.6726 16.4203 37.9905 16.796 38.7875 16.796H39.6084C40.1332 16.796 40.4054 17.0848 40.4054 17.4181C40.4054 17.796 40.131 18.0635 39.6541 18.0635H37.3067V22.3522C37.3067 24.8193 37.7858 25.5963 38.7439 25.5963C39.5409 25.5963 40.2943 25.0847 40.6123 25.0847C40.8169 25.0847 40.9781 25.2396 40.9781 25.418C40.9781 26.3076 39.1315 27.4625 37.1935 27.4625C35.5756 27.4625 34.1166 26.7067 34.1166 24.728V24.7301Z" fill="#292966"/>
<path d="M41.3886 26.5308C41.3886 26.4204 41.4561 26.2866 41.639 26.0191C42.3902 24.93 42.8018 23.1741 42.8018 21.6413C42.8018 20.775 42.6428 19.93 42.3467 19.24C41.9134 18.2188 41.1621 17.6626 41.1621 17.2613C41.1621 16.8176 42.0505 16.5713 42.8933 16.5713C44.3304 16.5713 44.8313 17.4821 45.674 17.4821C46.5167 17.4821 47.0654 16.5713 48.3175 16.5713C49.4106 16.5713 49.9812 17.2825 49.9812 18.0829C49.9812 18.8388 49.4803 19.5946 48.4765 19.5946C47.3376 19.5946 47.2679 18.5946 46.3338 18.5946C46.1051 18.5946 45.8547 18.6604 45.6043 18.7942C45.5368 19.1933 45.3996 20.0383 45.3996 21.6158C45.3996 23.1933 45.8547 24.9278 46.6081 26.017C46.7911 26.2845 46.8586 26.4161 46.8586 26.5287C46.8586 26.9957 45.809 27.3737 44.1236 27.3737C42.4382 27.3737 41.3886 26.9957 41.3886 26.5287V26.5308Z" fill="#292966"/>
<path d="M49.7754 22.019C49.7754 18.4416 52.6693 16.5732 55.3151 16.5732C57.9608 16.5732 60.8547 18.4395 60.8547 22.019C60.8547 25.5986 57.9608 27.4648 55.3151 27.4648C52.6693 27.4648 49.7754 25.5986 49.7754 22.019ZM57.5253 23.0636C57.5253 20.5307 56.8197 17.7961 54.9275 17.7961C53.6275 17.7961 53.1049 19.0403 53.1049 20.9744C53.1049 23.5073 53.8104 26.2419 55.7027 26.2419C57.0027 26.2419 57.5253 24.9977 57.5253 23.0636Z" fill="#292966"/>
<path d="M98.5816 28.3559C97.8761 28.1776 97.373 27.9568 97.373 27.6447C97.373 27.5343 97.4405 27.3326 97.6235 27.0672C98.4662 25.8676 98.8995 22.9547 98.8995 20.1331C98.8995 17.3115 98.4662 14.5769 97.6235 13.3328C97.4405 13.0653 97.373 12.8445 97.373 12.732C97.373 11.8657 100.975 11.6216 104.668 11.6216C109.75 11.6216 114.036 14.1778 114.036 19.889C114.036 24.0226 111.05 28.7338 103.527 28.7338C101.817 28.7338 99.9251 28.6892 98.5794 28.3559H98.5816ZM110.162 19.889C110.162 17.044 109.387 14.6873 107.54 13.6003C106.606 13.0674 105.443 12.8891 104.28 12.8891C103.573 12.8891 102.889 12.9549 102.251 13.0441C102.022 15.9548 102 19.0885 102 20.0439C102 22.666 102.159 24.6659 102.638 25.8676C103.093 27.0014 104.143 27.2689 105.19 27.2689C108.768 27.2689 110.16 23.736 110.16 19.8911L110.162 19.889Z" fill="#292966"/>
<path d="M115.266 27.7994C115.266 27.689 115.333 27.5553 115.516 27.2878C116.268 26.1986 116.655 24.4662 116.655 22.8866C116.655 20.5979 115.355 19.1308 115.355 18.6871C115.355 18.2433 116.063 17.8421 117.498 17.8421C118.798 17.8421 119.503 18.2858 119.503 19.3537C119.503 20.4217 119.207 21.5766 119.207 22.8866C119.207 24.464 119.595 26.1986 120.346 27.2878C120.529 27.5553 120.596 27.6869 120.596 27.7994C120.596 28.2665 119.547 28.6444 117.953 28.6444C116.359 28.6444 115.264 28.2665 115.264 27.7994H115.266ZM115.608 14.3092C115.608 13.2201 116.45 12.3984 117.591 12.3984C118.733 12.3984 119.551 13.2201 119.551 14.3092C119.551 15.3326 118.709 16.1988 117.591 16.1988C116.474 16.1988 115.608 15.3326 115.608 14.3092Z" fill="#292966"/>
<path d="M121.51 26.7103C121.51 25.222 121.876 24.5108 122.353 24.5108C122.762 24.5108 123.037 25.1329 123.265 25.7783C123.653 26.8229 124.382 27.5341 125.408 27.5341C126.275 27.5341 126.821 27.0458 126.821 26.2454C126.821 25.6679 126.571 25.2454 125.567 24.6679L124.951 24.3112C123.013 23.2008 122.238 22.2221 122.238 20.9334C122.238 19.0438 123.855 17.8442 125.931 17.8442C126.682 17.8442 127.002 17.9992 127.435 17.9992C127.869 17.9992 128.256 17.8442 128.574 17.8442C129.578 17.8442 129.691 19.3325 129.691 19.978C129.691 20.9334 129.441 21.4004 129.121 21.4004C128.779 21.4004 128.461 20.9567 128.117 20.4217C127.455 19.3559 126.908 18.9992 126.225 18.9992C125.382 18.9992 124.879 19.5555 124.879 20.1775C124.879 20.8888 125.495 21.3325 126.384 21.8675L127.546 22.5554C128.868 23.3325 129.667 24.0883 129.667 25.4004C129.667 27.2008 127.98 28.7337 125.815 28.7337C124.811 28.7337 124.219 28.5341 123.74 28.5341C123.261 28.5341 122.873 28.7337 122.577 28.7337C122.031 28.7337 121.506 28.1328 121.506 26.7103H121.51Z" fill="#292966"/>
<path d="M130.24 23.666C130.24 20.3327 132.703 17.8423 135.869 17.8423C137.899 17.8423 139.584 18.821 139.584 20.1756C139.584 21.0206 138.9 21.5981 138.101 21.5981C137.35 21.5981 136.62 21.0864 136.62 20.1756C136.62 19.4877 136.12 19.0652 135.299 19.0652C133.885 19.0652 132.997 20.2648 132.997 22.2647C132.997 24.6426 134.16 26.1755 136.257 26.1755C137.215 26.1755 137.92 25.7976 138.513 25.3305C138.809 25.0863 139.038 24.9738 139.242 24.9738C139.517 24.9738 139.676 25.1521 139.676 25.3963C139.676 25.5513 139.63 25.7296 139.517 25.9738C138.879 27.3729 137.374 28.7296 135.164 28.7296C132.359 28.7296 130.24 26.7296 130.24 23.6617V23.666Z" fill="#292966"/>
<path d="M140.338 23.2881C140.338 19.7106 143.232 17.8423 145.878 17.8423C148.523 17.8423 151.417 19.7085 151.417 23.2881C151.417 26.8676 148.523 28.7338 145.878 28.7338C143.232 28.7338 140.338 26.8676 140.338 23.2881ZM148.088 24.3326C148.088 21.7998 147.382 19.0652 145.49 19.0652C144.19 19.0652 143.667 20.3093 143.667 22.2435C143.667 24.7764 144.373 27.5109 146.265 27.5109C147.565 27.5109 148.088 26.2668 148.088 24.3326Z" fill="#292966"/>
</svg>
