<svg width="42" height="39" viewBox="0 0 42 39" fill="none" xmlns="http://www.w3.org/2000/svg">
<path d="M41.4981 21.2219C41.4981 21.2481 41.4981 21.2763 41.4962 21.3025C41.4734 21.756 41.261 22.1795 40.912 22.4718L22.2318 38.1115C21.532 38.6961 20.485 38.6118 19.8933 37.9203C19.3015 37.2288 19.3869 36.1944 20.0867 35.6098L37.4146 21.102L19.9672 3.27924C19.33 2.62899 19.347 1.59085 20.0071 0.961214C20.6652 0.33158 21.716 0.348444 22.3532 1.00056L41.0334 20.0807C41.3331 20.388 41.5 20.7965 41.5 21.22L41.4981 21.2219Z" fill="#F8F5F1"/>
<path d="M22.4981 21.2219C22.4981 21.2481 22.4981 21.2763 22.4962 21.3025C22.4734 21.756 22.261 22.1795 21.912 22.4718L3.23184 38.1115C2.53198 38.6961 1.48502 38.6118 0.893262 37.9203C0.301504 37.2288 0.386855 36.1944 1.08672 35.6098L18.4146 21.102L0.96723 3.27924C0.329952 2.62899 0.347021 1.59085 1.00706 0.961214C1.6652 0.33158 2.71595 0.348444 3.35323 1.00056L22.0334 20.0807C22.3331 20.388 22.5 20.7965 22.5 21.22L22.4981 21.2219Z" fill="#F8F5F1"/>
<path d="M41.4981 21.2219C41.4981 21.2481 41.4981 21.2763 41.4962 21.3025C41.4734 21.756 41.261 22.1795 40.912 22.4718L22.2318 38.1115C21.532 38.6961 20.485 38.6118 19.8933 37.9203C19.3015 37.2288 19.3869 36.1944 20.0867 35.6098L37.4146 21.102L19.9672 3.27924C19.33 2.62899 19.347 1.59085 20.0071 0.961214C20.6652 0.33158 21.716 0.348444 22.3532 1.00056L41.0334 20.0807C41.3331 20.388 41.5 20.7965 41.5 21.22L41.4981 21.2219Z" stroke="#F8F5F1"/>
<path d="M22.4981 21.2219C22.4981 21.2481 22.4981 21.2763 22.4962 21.3025C22.4734 21.756 22.261 22.1795 21.912 22.4718L3.23184 38.1115C2.53198 38.6961 1.48502 38.6118 0.893262 37.9203C0.301504 37.2288 0.386855 36.1944 1.08672 35.6098L18.4146 21.102L0.96723 3.27924C0.329952 2.62899 0.347021 1.59085 1.00706 0.961214C1.6652 0.33158 2.71595 0.348444 3.35323 1.00056L22.0334 20.0807C22.3331 20.388 22.5 20.7965 22.5 21.22L22.4981 21.2219Z" stroke="#F8F5F1"/>
</svg>
