<svg width="1072" height="1072" viewBox="0 0 1072 1072" fill="none" xmlns="http://www.w3.org/2000/svg">
<g filter="url(#filter0_d_1415_8787)">
<g clip-path="url(#clip0_1415_8787)">
<rect x="24" y="8" width="1024" height="1024" rx="512" fill="#FFF9F1"/>
<path d="M1048 8H24V1032H1048V8Z" fill="#FFF9F1"/>
<path d="M932.05 657.824C939.437 637.527 947.125 616.338 950.981 594.918C954.477 575.501 954.917 555.123 954.998 535.52C955.033 525.933 954.188 516.346 952.578 506.886C942.366 446.944 920.054 389.353 880.305 342.518C859.927 318.504 839.167 295.382 814.921 275.281C789.645 254.336 762.1 234.131 732.575 219.809C671.058 189.971 596.759 186.891 533.031 212.086C506.609 222.53 479.735 235.995 457.793 254.428C442.128 267.593 427.122 280.851 413.54 295.532C403.907 301.923 394.552 308.755 385.648 316.142C362.039 335.721 337.921 356.262 319.662 381.19C302.745 404.289 285.76 429.287 275.756 456.427C269.006 474.733 262.371 493.583 258.261 512.757C254.139 532 253.919 552.216 253.282 571.68C252.344 600.267 258.307 630.371 268.299 656.99C278.697 684.698 293.529 712 311.881 735.354C331.321 760.086 352.672 784.018 375.968 805.219C400.966 827.97 429.067 846.6 457.585 864.628C476.504 876.577 496.269 887.09 516.925 895.728C554.683 911.533 594.316 923.47 635.813 918.619C666.6 915.029 697.098 906.033 725.095 892.775C743.042 884.277 761.66 875.581 778.542 864.836C796.072 853.675 811.54 839.283 826.708 825.226C850.132 803.505 867.048 775.288 883.976 748.6C896.272 729.217 908.059 709.256 918.433 688.773C923.528 678.712 928.194 668.418 932.05 657.824Z" fill="url(#paint0_linear_1415_8787)"/>
<path d="M529.303 129.682C317.856 129.682 145.834 301.704 145.834 513.151C145.834 724.598 317.856 896.62 529.303 896.62C740.75 896.62 912.76 724.598 912.76 513.151C912.76 301.704 740.738 129.682 529.303 129.682ZM414.479 488.095C447.315 493.687 479.955 496.836 512.329 496.836C528.145 496.836 543.903 496.142 559.616 494.799C561.213 533.587 561.294 570.21 559.859 604.98C510.882 607.133 462.75 602.768 415.336 592.024C411.191 559.407 410.889 524.81 414.49 488.095H414.479ZM368.906 579.438C308.721 560.252 249.647 530.391 191.43 490.005C193.167 464.393 197.729 439.569 204.861 415.822C260.589 444.513 315.807 465.551 370.446 478.936C366.706 514.054 366.162 547.539 368.894 579.438H368.906ZM604.089 489.229C640.028 483.232 675.632 473.622 710.889 460.526C719.133 499.997 721.356 538.693 717.431 576.74C679.337 588.515 641.777 596.69 604.714 601.24C606.011 565.81 605.802 528.562 604.089 489.229ZM753.336 442.95C784.389 428.79 815.165 411.896 845.628 392.144C860.032 429.658 868.009 470.322 868.044 512.838C832.88 531.607 798.191 547.597 763.953 560.657C766.003 521.985 762.506 482.803 753.336 442.95ZM529.303 174.386C657.327 174.386 768.967 245.779 826.558 350.843C798.156 369.635 769.627 385.856 740.947 399.438C726.254 354.641 704.891 308.987 676.315 262.233C669.878 251.685 656.122 248.373 645.586 254.822C635.05 261.26 631.727 275.015 638.176 285.552C665.686 330.569 686.03 374.382 699.577 417.234C667.157 429.693 634.529 438.898 601.634 444.779C597.906 390.835 591.584 333.07 582.599 270.696C580.839 258.481 569.55 250.04 557.288 251.754C545.073 253.514 536.597 264.849 538.346 277.065C547.331 339.461 553.583 397.018 557.207 450.627C512.144 454.621 466.559 452.63 420.326 444.467C429.01 394.042 444.293 339.948 466.374 281.812C470.75 270.268 464.95 257.358 453.406 252.981C441.862 248.628 428.964 254.405 424.575 265.949C401.766 326.019 385.787 382.279 376.536 435.042C325.463 421.923 273.557 401.348 220.724 373.676C273.997 256.281 392.236 174.375 529.315 174.375L529.303 174.386ZM529.303 851.903C352.939 851.903 207.698 716.412 192.021 544.065C251.847 582.205 313.12 609.959 375.726 627.338C383.668 667.087 396.972 704.335 416.042 739.059C420.106 746.469 427.759 750.661 435.656 750.661C439.292 750.661 442.985 749.769 446.401 747.894C457.215 741.954 461.175 728.361 455.235 717.535C441.654 692.814 431.453 666.497 424.239 638.673C460.955 645.667 498.087 649.279 535.648 649.279C542.792 649.279 550.005 648.747 557.184 648.492C554.614 679.835 550.758 709.708 545.49 738.272C543.255 750.406 551.279 762.066 563.425 764.3C564.791 764.555 566.157 764.682 567.5 764.682C578.072 764.682 587.473 757.145 589.453 746.365C595.37 714.223 599.666 680.634 602.34 645.25C637.585 641.441 673.143 634.852 709.059 625.045C702.356 652.718 692.537 680.101 679.245 707.241C673.814 718.322 678.4 731.718 689.492 737.149C692.653 738.7 695.999 739.43 699.31 739.43C707.577 739.43 715.52 734.821 719.399 726.902C738.307 688.299 751.124 649.349 758.164 609.924C793.177 597.813 828.504 582.714 864.084 564.988C839.052 727.249 698.465 851.892 529.303 851.892V851.903Z" fill="#292966"/>
</g>
</g>
<defs>
<filter id="filter0_d_1415_8787" x="0" y="0" width="1072" height="1072" filterUnits="userSpaceOnUse" color-interpolation-filters="sRGB">
<feFlood flood-opacity="0" result="BackgroundImageFix"/>
<feColorMatrix in="SourceAlpha" type="matrix" values="0 0 0 0 0 0 0 0 0 0 0 0 0 0 0 0 0 0 127 0" result="hardAlpha"/>
<feMorphology radius="8" operator="erode" in="SourceAlpha" result="effect1_dropShadow_1415_8787"/>
<feOffset dy="16"/>
<feGaussianBlur stdDeviation="16"/>
<feComposite in2="hardAlpha" operator="out"/>
<feColorMatrix type="matrix" values="0 0 0 0 0.0470588 0 0 0 0 0.0470588 0 0 0 0 0.0509804 0 0 0 0.4 0"/>
<feBlend mode="normal" in2="BackgroundImageFix" result="effect1_dropShadow_1415_8787"/>
<feBlend mode="normal" in="SourceGraphic" in2="effect1_dropShadow_1415_8787" result="shape"/>
</filter>
<linearGradient id="paint0_linear_1415_8787" x1="776.434" y1="885.076" x2="448.762" y2="287.045" gradientUnits="userSpaceOnUse">
<stop stop-color="#FF7534"/>
<stop offset="1" stop-color="#F4E793"/>
</linearGradient>
<clipPath id="clip0_1415_8787">
<rect x="24" y="8" width="1024" height="1024" rx="512" fill="white"/>
</clipPath>
</defs>
</svg>
