<svg width="47" height="47" viewBox="0 0 47 47" fill="none" xmlns="http://www.w3.org/2000/svg">
<path d="M40.6183 25.3481C40.0452 23.9146 38.2531 23.9992 37.7907 25.3076C37.6537 25.3743 37.5203 25.4613 37.3975 25.5745C36.8077 26.1178 36.144 26.5325 35.3754 26.7231C34.7356 26.8828 34.0492 26.8173 33.5226 26.5146C33.2831 26.3776 33.0304 26.175 32.9244 26.0308C32.6623 25.6734 32.5467 25.2194 32.4919 24.7785C32.3763 23.8348 32.4645 22.7707 32.5169 21.7996C32.636 19.6143 32.9578 17.3837 32.7052 15.1984C32.5729 14.0545 32.2976 12.9749 31.7483 11.9549C31.5565 11.5998 31.336 11.259 31.0965 10.9302C30.6009 9.97931 30.0372 9.0618 29.4713 8.15264C28.6979 6.91223 27.8329 5.81122 26.6615 4.92589C26.658 4.92351 26.6544 4.92112 26.6496 4.91874C26.372 4.68996 26.0622 4.4874 25.7166 4.31462C24.9969 3.95596 24.1033 4.12278 23.6791 4.84844C23.175 5.70994 23.6278 6.25806 24.2832 6.80022C24.9945 7.38766 25.4747 8.22652 25.6725 9.12377C25.9025 10.1711 25.7631 11.2793 25.3842 12.2814C24.6037 14.3404 22.9248 15.8513 21.4175 17.3837C19.7398 19.0888 18.2992 20.9965 17.5997 23.3177C17.2041 24.6284 17.0492 25.9975 17.1159 27.3571C17.0218 27.3142 16.9265 27.2677 16.8323 27.2153C16.1937 26.8614 15.6396 26.3907 15.1773 25.7949C14.1335 24.4496 13.6711 22.7421 13.3208 21.1073C13.0146 19.6774 10.7673 19.6965 10.448 21.1073C8.7321 28.6952 10.6148 37.197 17.0492 42.0002C18.5887 43.5051 20.4809 44.6073 22.6412 45.1435C26.1337 46.011 29.7262 45.4307 32.9852 44.0091C34.5473 43.3276 36.026 42.4542 37.3892 41.4318C38.8322 40.3487 40.1179 39.0808 40.8554 37.4067C42.4938 33.6831 42.1018 29.0586 40.6207 25.3505L40.6183 25.3481Z" fill="#FF7534"/>
<path d="M24.1835 44.9255C23.8999 44.9255 23.6128 44.9207 23.3196 44.91C16.5396 44.6729 11.1454 41.0279 8.52162 34.9092C7.17396 31.7671 6.67589 28.1233 7.12034 24.6487C7.58386 21.0192 9.0042 17.7769 11.2277 15.2699C11.5375 14.9207 12.0427 14.8195 12.4633 15.0244C12.8839 15.2282 13.1175 15.6869 13.0341 16.1469C12.2572 20.4579 12.7457 22.6039 14.0028 23.9301C14.5176 18.872 16.9627 16.0491 18.9716 13.7304C20.2621 12.2397 21.2821 11.0637 21.5085 9.65761C21.7599 8.10619 21.0056 6.2271 19.1373 3.74388C18.8727 3.39237 18.8572 2.91217 19.0991 2.54398C19.341 2.17578 19.7878 1.99943 20.2156 2.1031C25.9792 3.49723 29.4979 5.78026 30.9742 9.08208C32.2623 11.9633 31.7607 15.022 31.3186 17.7197C31.0016 19.6512 30.7026 21.4755 31.2388 22.5873C31.6868 23.5155 32.223 24.0314 32.8343 24.1208C34.0759 24.3019 35.6916 22.8792 36.1599 22.3668C36.372 22.1333 36.6794 22.0082 36.9952 22.0284C37.3098 22.0475 37.5993 22.2083 37.7828 22.4657C39.1293 24.3651 39.9276 26.8769 40.0313 29.54C40.1385 32.2985 39.5225 35.0033 38.2499 37.3638C36.7057 40.2271 32.8486 44.9231 24.1859 44.9243L24.1835 44.9255ZM10.5818 20.0492C8.62767 24.2554 8.49541 29.5591 10.4377 34.0882C11.5077 36.5822 13.1592 38.6853 15.2134 40.1676C17.5048 41.8227 20.2573 42.7163 23.3923 42.8259C29.4312 43.0369 34.0556 40.7455 36.4125 36.3748C38.3738 32.7382 38.4489 28.0267 36.7021 24.6916C36.5448 24.8179 36.372 24.9501 36.1861 25.0788C34.9004 25.9773 33.6719 26.3502 32.5376 26.1858C31.1959 25.9927 30.127 25.0872 29.3585 23.4928C28.5363 21.7877 28.8866 19.6477 29.2584 17.3825C29.673 14.8552 30.1008 12.2433 29.0689 9.93286C28.099 7.76302 25.9029 6.10437 22.3878 4.89731C23.4376 6.79905 23.8141 8.45294 23.5663 9.98886C23.2446 11.98 21.9339 13.4932 20.5469 15.0947C18.4104 17.5612 15.9891 20.3578 15.9891 25.9189C15.9891 26.2871 15.7949 26.629 15.478 26.8161C15.161 27.0032 14.7678 27.0103 14.4449 26.8328C12.6695 25.8581 11.5387 24.52 10.9882 22.741C10.7427 21.9462 10.6069 21.0585 10.5818 20.048V20.0492Z" fill="#292966"/>
</svg>
