<svg width="33" height="31" viewBox="0 0 33 31" fill="none" xmlns="http://www.w3.org/2000/svg">
<path d="M32.7168 10.7249C32.4425 10.378 32.0091 10.1837 31.5595 10.2078C29.7499 10.3016 27.7206 10.2078 25.5401 9.97707C26.5573 9.50812 27.5112 8.86737 28.048 8.00583C28.6489 7.04138 28.6387 5.96985 28.0207 4.98797C27.242 3.75128 25.5025 3.28565 23.2493 3.70978C21.7876 3.98534 20.2806 4.62194 19.0711 5.4702C18.4069 3.1238 17.3898 1.84644 16.8239 1.28205C15.5443 0.00551512 13.927 -0.337273 12.3867 0.341663C10.9054 0.994868 10.1566 2.28136 10.3327 3.87246C10.4541 4.9722 11.0404 6.24458 11.9781 7.48542C10.013 7.02478 8.02819 6.53259 6.05279 6.03044C5.38265 5.8603 4.68685 6.20308 4.43298 6.82973C3.31835 9.58531 2.40202 12.345 1.68572 15.0932C1.67118 15.1363 1.65837 15.1803 1.64811 15.226C1.64554 15.2367 1.64469 15.2475 1.64212 15.2583C0.830082 18.409 0.282168 21.543 0.00521851 24.6356C-0.0298275 25.024 0.112921 25.4075 0.394998 25.6847C0.674512 25.9586 1.06258 26.1014 1.45835 26.0756C1.46604 26.0756 1.47373 26.0756 1.48142 26.0756C3.42349 26.0756 24.1767 30.1327 26.612 30.8265C26.818 30.9402 27.0513 31 27.2881 31C27.377 31 27.4659 30.9917 27.554 30.9743C28.2173 30.8465 28.6823 30.2754 28.6694 29.638C29.3319 24.3808 30.7662 18.4289 32.9331 11.9425C33.0724 11.5267 32.9912 11.0702 32.7168 10.7232V10.7249ZM27.8677 19.4689L17.3162 17.2146L18.489 11.5939C22.5655 12.3592 26.412 12.8638 29.7542 12.8986C29.0353 15.1562 28.407 17.3474 27.8685 19.4697L27.8677 19.4689ZM22.8586 6.54919C23.6408 6.29936 24.2955 6.21636 24.781 6.21636C25.2666 6.21636 25.5974 6.30268 25.6948 6.38568C25.7769 6.51931 25.7623 6.54255 25.7076 6.63136C25.4632 7.02312 24.546 7.6564 22.7638 8.15108C21.7432 8.43411 20.6277 8.62003 19.531 8.69639C19.531 8.68892 19.531 8.68145 19.531 8.67398C20.1781 7.86307 21.2517 7.06213 22.8586 6.54919ZM13.5176 2.76027C13.6475 2.703 13.7903 2.65154 13.9544 2.65154C14.1843 2.65154 14.4579 2.75197 14.8006 3.074C15.4759 3.70812 16.105 4.93734 16.4845 6.36244C16.6444 6.96419 16.7307 7.4821 16.7709 7.90374C16.7102 8.00915 16.6529 8.11539 16.5991 8.22246C15.0647 7.22066 13.2124 5.04939 13.0517 3.59026C12.9962 3.08645 13.1646 2.91548 13.5176 2.76027ZM6.54515 8.90057C9.65399 9.68242 12.7765 10.4294 15.8084 11.0619L14.6442 16.6436L4.67232 14.513C5.20058 12.6463 5.82542 10.7739 6.54515 8.90057ZM4.00303 17.0893L14.1006 19.2464L12.8415 25.2838C9.0317 24.5592 5.07749 23.8454 2.86361 23.5566C3.10978 21.4185 3.49016 19.2597 4.00303 17.0893ZM26.1376 27.9788C25.5213 27.8386 24.7332 27.6667 23.7869 27.4667C21.5243 26.9886 18.5258 26.3836 15.5255 25.8001L16.7735 19.8175L27.2488 22.0551C26.7881 24.1044 26.4162 26.0815 26.1384 27.978L26.1376 27.9788Z" fill="#FF6F00"/>
</svg>
