<svg width="47" height="47" viewBox="0 0 47 47" fill="none" xmlns="http://www.w3.org/2000/svg">
<path d="M42.5565 24.2516C42.5255 24.0872 41.782 20.1908 39.1749 16.1895C36.0994 11.4674 31.7205 8.61714 26.4228 7.85216C26.9077 5.35107 25.7912 4.27032 25.2276 3.89736C24.0623 3.12642 22.3774 3.32541 21.2204 4.37041C20.0789 5.40111 19.8978 6.74996 20.1706 7.94867C15.4663 8.81851 11.1672 11.5246 7.56867 15.9202C4.14173 20.1074 2.56768 24.3064 2.50214 24.4828C2.35201 24.8891 2.46878 25.3467 2.79646 25.6315C3.12414 25.9162 3.59362 25.9675 3.97492 25.7625C7.77957 23.713 10.6524 23.0362 12.5137 23.7524C13.6421 24.1861 14.4595 25.1536 15.0136 26.7086C15.147 27.0828 15.4818 27.3497 15.8762 27.395C15.9156 27.3997 15.9561 27.4021 15.9954 27.4021C16.3469 27.4021 16.6794 27.2234 16.8724 26.9231C17.6278 25.747 18.3869 24.7807 19.1459 24.024C19.165 30.3238 17.9829 34.5658 15.6939 36.352C13.5289 38.0416 10.743 37.2206 9.40487 36.8262C9.21422 36.7702 9.04978 36.7213 8.90679 36.6856C7.52935 36.3412 6.25557 36.8846 5.80754 38.0058C5.55731 38.635 5.61212 39.344 5.96363 40.0041C6.29489 40.6273 6.86207 41.1671 7.6485 41.6103C8.50285 42.0917 10.6369 42.8817 13.1583 42.8817C14.9206 42.8817 16.8724 42.4957 18.7062 41.3482C23.2353 38.5135 25.3349 32.1338 24.9595 22.3785C26.2297 22.8944 27.5595 23.9466 28.9334 25.529C29.1753 25.8078 29.5482 25.9377 29.9105 25.8698C30.2739 25.8019 30.5742 25.5481 30.7005 25.2001C31.5095 22.9695 32.5545 21.6945 33.8081 21.4109C35.4894 21.0308 37.9059 22.3356 40.7978 25.1834C41.1219 25.5028 41.6164 25.5755 42.0179 25.361C42.4207 25.1477 42.6375 24.6973 42.5541 24.2504L42.5565 24.2516ZM22.6181 5.91825C23.0578 5.52146 23.712 5.39515 24.0766 5.63704C24.5365 5.94208 24.521 6.80835 24.328 7.66151C24.2875 7.66031 24.2482 7.65674 24.2076 7.65555C23.7167 7.63887 23.2282 7.64244 22.7432 7.6627C22.7408 7.6627 22.7385 7.6627 22.7361 7.6627C22.7349 7.6627 22.7325 7.6627 22.7313 7.6627C22.7301 7.6627 22.7289 7.6627 22.7265 7.6627C22.711 7.6627 22.6956 7.6627 22.6801 7.6627C22.6681 7.6627 22.655 7.6627 22.6431 7.6627C22.6407 7.6627 22.6384 7.6627 22.636 7.6627C22.6193 7.6627 22.6026 7.66627 22.5871 7.66746C22.4751 7.67342 22.3619 7.68057 22.2499 7.68772C22.0164 6.96563 22.1403 6.3484 22.6181 5.91587V5.91825ZM17.6016 39.5811C13.9769 41.8498 9.57049 40.2996 8.67444 39.7944C7.85464 39.3321 7.7057 38.8816 7.7474 38.778C7.77242 38.716 7.99644 38.6064 8.40276 38.7089C8.50285 38.7339 8.64822 38.7768 8.81623 38.8268C10.3581 39.2808 13.9674 40.3449 16.9784 37.9963C20.0265 35.618 21.4468 30.4037 21.2061 22.4953C21.759 22.2236 22.3107 22.0663 22.86 22.0222C23.2723 31.1043 21.4611 37.167 17.6016 39.5823V39.5811ZM33.3505 19.3781C31.7312 19.7451 30.4038 20.951 29.3898 22.9707C27.5929 21.2179 25.7924 20.2158 24.0134 19.9775C24.0039 19.9763 23.9944 19.9751 23.9848 19.9727C23.569 19.9191 23.1555 19.9072 22.742 19.937C21.7089 20.0121 20.6949 20.3493 19.7024 20.945C19.6285 20.9796 19.5606 21.0225 19.4986 21.0714C18.3559 21.8006 17.2442 22.8742 16.167 24.2898C15.4306 23.0982 14.4583 22.2653 13.262 21.8042C12.5423 21.5277 11.7511 21.3883 10.8812 21.3883C9.37508 21.3883 7.63659 21.8054 5.64191 22.643C6.42834 21.1369 7.61276 19.1482 9.22017 17.194C11.4794 14.4451 13.965 12.448 16.6543 11.2147C16.6162 11.2636 16.5757 11.3101 16.5376 11.3601C15.1732 13.1487 14.4309 15.3816 14.4488 17.6468C14.4535 18.2199 14.9194 18.6811 15.4914 18.6811C15.4938 18.6811 15.4973 18.6811 15.4997 18.6811C16.0752 18.6763 16.5388 18.2056 16.534 17.6301C16.5197 15.8249 17.1095 14.0471 18.195 12.6244C19.0899 11.4519 20.2636 10.5892 21.6327 10.0816L21.4635 17.4943C21.4504 18.0698 21.9067 18.5476 22.4823 18.5607C22.4906 18.5607 22.4989 18.5607 22.5061 18.5607C23.0709 18.5607 23.5356 18.1091 23.5475 17.5419L23.7155 10.1781C25.5112 11.2541 27.55 14.0483 27.4678 16.8365C27.4511 17.4121 27.9039 17.8923 28.4794 17.9089C28.4901 17.9089 28.4997 17.9089 28.5104 17.9089C29.0716 17.9089 29.5351 17.4621 29.5518 16.8973C29.6269 14.3474 28.3829 11.7843 26.7266 10.0029C31.158 10.7894 34.7363 13.2237 37.3887 17.2655C38.3098 18.6692 38.9818 20.0752 39.4608 21.2763C37.1528 19.5926 35.1367 18.9694 33.3481 19.3734L33.3505 19.3781Z" fill="#292966"/>
</svg>
