<svg width="47" height="48" viewBox="0 0 47 48" fill="none" xmlns="http://www.w3.org/2000/svg">
<path d="M45.022 27.9587C45.6595 25.464 45.5629 22.8087 44.2177 20.5124C43.7756 19.7567 43.2287 19.1117 42.6102 18.5483C42.5542 17.363 41.9847 16.2227 40.8837 15.6167C39.3644 14.7819 37.788 14.3134 36.1758 14.1017C34.224 12.9505 31.9267 12.7874 29.6294 12.9736C29.1766 13.0101 28.7452 13.1099 28.3472 13.2693C26.4384 12.9821 24.4985 13.0381 22.6802 13.6989C19.5571 14.833 17.2919 17.1561 15.8978 20.129C15.3878 20.6426 14.9112 21.2036 14.4763 21.8242C13.4956 23.2249 12.8677 24.9699 12.5829 26.6614C12.3124 28.2665 12.1539 29.8936 12.3386 31.5169C12.5531 33.4019 12.9511 35.0569 13.7661 36.7752C14.5597 38.4485 15.8132 39.8066 17.2657 40.8993C19.8728 42.861 23.3701 43.6009 26.5361 43.8796C32.7227 44.4235 39.1952 41.9751 42.6746 36.5562C44.2224 34.1455 45.103 31.0995 45.0339 28.213C45.0315 28.1266 45.0255 28.0426 45.022 27.9562V27.9587Z" fill="#FF7534"/>
<path d="M22.018 23.96C22.018 24.7388 21.3972 25.3728 20.6334 25.3728C19.8696 25.3728 19.25 24.7388 19.25 23.96C19.25 23.1811 19.8708 22.5459 20.6334 22.5459C21.396 22.5459 22.018 23.1799 22.018 23.96Z" fill="#292966"/>
<path d="M20.6334 25.4349C19.8374 25.4349 19.1904 24.7741 19.1904 23.9612C19.1904 23.1483 19.8374 22.4863 20.6334 22.4863C21.4294 22.4863 22.0776 23.1483 22.0776 23.9612C22.0776 24.7741 21.4294 25.4349 20.6334 25.4349ZM20.6334 22.6068C19.903 22.6068 19.3096 23.214 19.3096 23.96C19.3096 24.706 19.9042 25.312 20.6334 25.312C21.3626 25.312 21.9584 24.7048 21.9584 23.96C21.9584 23.2153 21.3638 22.6068 20.6334 22.6068Z" fill="#292966"/>
<path d="M28.4741 24.0398C28.4741 24.8186 27.8533 25.4538 27.0907 25.4538C26.3281 25.4538 25.7061 24.8186 25.7061 24.0398C25.7061 23.261 26.3281 22.627 27.0907 22.627C27.8533 22.627 28.4741 23.261 28.4741 24.0398Z" fill="#292966"/>
<path d="M27.0897 25.515C26.2937 25.515 25.6455 24.853 25.6455 24.0401C25.6455 23.2272 26.2937 22.5664 27.0897 22.5664C27.8856 22.5664 28.5327 23.2272 28.5327 24.0401C28.5327 24.853 27.8856 25.515 27.0897 25.515ZM27.0897 22.6881C26.3593 22.6881 25.7647 23.2953 25.7647 24.0401C25.7647 24.7848 26.3593 25.3933 27.0897 25.3933C27.8201 25.3933 28.4135 24.7861 28.4135 24.0401C28.4135 23.2941 27.8189 22.6881 27.0897 22.6881Z" fill="#292966"/>
<path d="M34.5356 24.0398C34.5356 24.8186 33.9136 25.4538 33.151 25.4538C32.3884 25.4538 31.7676 24.8186 31.7676 24.0398C31.7676 23.261 32.3884 22.627 33.151 22.627C33.9136 22.627 34.5356 23.261 34.5356 24.0398Z" fill="#292966"/>
<path d="M33.151 25.515C32.355 25.515 31.708 24.853 31.708 24.0401C31.708 23.2272 32.355 22.5664 33.151 22.5664C33.947 22.5664 34.5952 23.2272 34.5952 24.0401C34.5952 24.853 33.947 25.515 33.151 25.515ZM33.151 22.6881C32.4206 22.6881 31.8272 23.2953 31.8272 24.0401C31.8272 24.7848 32.4218 25.3933 33.151 25.3933C33.8802 25.3933 34.476 24.7861 34.476 24.0401C34.476 23.2941 33.8814 22.6881 33.151 22.6881Z" fill="#292966"/>
<path d="M24.9137 40.8425C22.3732 40.8425 20.2856 40.1695 18.7318 39.4041C16.4154 38.2626 14.8998 36.75 14.2682 36.0417L4.73454 35.712C4.30558 35.6973 3.93024 35.4162 3.78725 35.0037C3.64426 34.5912 3.76342 34.1312 4.08752 33.844L8.79062 29.6785C8.85139 28.5455 9.09685 25.5702 10.0573 22.1458C11.6742 16.38 14.5745 12.1233 18.4423 9.83547C22.9023 7.19841 27.5458 6.48165 31.87 7.76428C35.932 8.96903 39.3053 11.858 41.3691 15.8981C43.446 19.9663 43.8404 24.4275 42.4797 28.4604C40.9461 33.0031 37.3309 36.705 32.0237 39.1668C29.382 40.3922 26.9965 40.8437 24.9148 40.8449L24.9137 40.8425ZM7.45845 33.6748L14.7949 33.928C15.1047 33.9389 15.3931 34.0898 15.5825 34.3393C15.5956 34.3563 17.066 36.2413 19.7161 37.5239C23.2228 39.2203 27.0728 39.1205 31.1586 37.2246C35.932 35.011 39.1636 31.7387 40.5053 27.7631C41.6777 24.2888 41.3274 20.4239 39.5174 16.8802C37.7194 13.3597 34.7965 10.8479 31.2861 9.80626C27.5208 8.68914 23.4409 9.33654 19.4849 11.6754C11.2262 16.5589 10.8556 30.0655 10.8532 30.2005C10.8473 30.5011 10.7162 30.7859 10.4934 30.983L7.45726 33.6724L7.45845 33.6748Z" fill="#292966"/>
</svg>
