<svg width="47" height="48" viewBox="0 0 47 48" fill="none" xmlns="http://www.w3.org/2000/svg">
<path d="M40.7491 31.8671C39.9912 31.1138 38.9617 30.6855 37.906 30.6648C36.9098 30.6453 36.034 31.0189 35.188 31.5093C34.541 31.8841 33.894 32.2553 33.222 32.5802C32.8264 32.7275 32.4272 32.8516 32.0161 32.9404C31.8231 32.9514 31.63 32.9526 31.437 32.9465C31.3452 32.9246 31.2547 32.9003 31.1653 32.8723C30.7816 32.6435 30.4242 32.3721 30.0286 32.1604C29.0741 31.6505 27.9767 31.3244 26.89 31.3949C25.2897 31.4984 23.9468 32.1908 22.5313 32.8394C21.8402 33.1047 21.1336 33.3043 20.4079 33.4406C19.6822 33.5063 18.959 33.5087 18.2321 33.4442C18.0665 33.4138 17.8997 33.3809 17.734 33.3444C15.9109 32.9429 13.7816 33.8981 13.3372 35.8939C13 37.4028 13.5826 39.1698 14.8826 39.9924C14.916 41.1449 15.4236 42.2851 16.3435 43.1735C17.7102 44.4938 19.3546 45.4187 21.1347 46.0162C24.3103 47.0822 27.9707 46.8449 31.0712 45.6328C32.7549 44.9745 34.3551 44.164 35.8482 43.1309C37.3019 42.1245 38.8235 41.0183 40.0258 39.698C40.8515 38.7913 41.6475 37.7083 41.9073 36.4719C42.2504 34.8352 41.9657 33.0755 40.7491 31.8647V31.8671Z" fill="#FF7534"/>
<path d="M44.093 21.5015L38.507 16.5097L44.0883 11.5812C44.3719 11.3305 44.5017 10.9436 44.4291 10.5688C44.3564 10.1927 44.0918 9.88606 43.7356 9.76559L28.2536 4.49513C27.8508 4.35762 27.4064 4.48418 27.1299 4.81396L23.4552 9.21919L18.4637 4.42942C18.1253 4.1045 17.6177 4.0473 17.2185 4.28825L3.06396 12.8407C2.77202 13.0172 2.58257 13.3275 2.55516 13.6719C2.52775 14.0175 2.66717 14.3546 2.92812 14.5761L9.06824 19.7905L3.79081 24.5243C3.53105 24.758 3.40117 25.1097 3.44526 25.4601C3.48935 25.8118 3.70144 26.1173 4.01125 26.2767L11.2512 29.9871V37.2508C11.2512 37.6987 11.5252 38.0978 11.9375 38.2511L26.7915 43.7808L26.8297 43.7942C26.8523 43.8027 26.875 43.8088 26.8988 43.8161C26.9167 43.821 26.9333 43.8258 26.9512 43.8307C26.9643 43.8343 26.9774 43.838 26.9905 43.8404C26.9905 43.8416 26.9929 43.8416 26.9941 43.8416C27.006 43.8441 27.0191 43.8465 27.031 43.8477C27.0358 43.8477 27.0394 43.8477 27.0442 43.8489C27.0537 43.8502 27.0632 43.8514 27.0716 43.8526C27.0871 43.855 27.1014 43.8562 27.1168 43.8575C27.1395 43.8587 27.1621 43.8599 27.1848 43.8599C27.1848 43.8599 27.1848 43.8599 27.186 43.8599C27.2122 43.8599 27.2384 43.8599 27.2646 43.8562C27.2729 43.8562 27.2825 43.8538 27.2908 43.8526C27.3063 43.8514 27.323 43.8489 27.3385 43.8465C27.3492 43.8453 27.3599 43.8441 27.3718 43.8416C27.3838 43.8392 27.3945 43.8368 27.4064 43.8331C27.4231 43.8295 27.4398 43.8258 27.4552 43.8222C27.4898 43.8124 27.5232 43.8015 27.5565 43.7881C27.5684 43.7832 27.5804 43.7771 27.5935 43.7723C27.6173 43.7613 27.6411 43.7504 27.6638 43.7382C27.6721 43.7333 27.6805 43.7309 27.6888 43.726L39.042 37.3044C39.3733 37.117 39.5794 36.7604 39.5794 36.3734V27.0519L44.0811 23.1127C44.3111 22.9119 44.4434 22.6186 44.4457 22.3095C44.4457 22.0005 44.3171 21.706 44.0895 21.5027L44.093 21.5015ZM28.2607 6.74277L41.3381 11.1942L36.7256 15.2673L25.2568 10.3436L28.2607 6.74277ZM26.2315 24.943L12.8753 19.5179L23.6589 11.967L35.0038 16.8383L26.2315 24.943ZM5.39823 13.9043L17.607 6.52859L21.8811 10.6296L10.7329 18.4349L5.39823 13.9043ZM6.33003 25.0817L10.8794 20.9989L24.6181 26.5797L19.5969 31.883L13.11 28.5572L12.3248 28.1556L6.33003 25.0817ZM13.3364 36.5061V31.0567L19.3467 34.1367C19.4944 34.2134 19.6553 34.2499 19.8138 34.2499C20.0902 34.2499 20.3619 34.138 20.5632 33.925L25.5178 28.6935L26.0754 41.2484L13.3376 36.5073L13.3364 36.5061ZM28.1523 41.0306L27.5947 28.472L32.287 32.2956C32.6779 32.6144 33.2355 32.6047 33.6156 32.2724L37.4977 28.8748V35.7455L28.1523 41.0306ZM37.9422 25.6828L37.9386 25.6853C37.8862 25.723 37.8373 25.7656 37.7921 25.813L37.7861 25.8179L32.9126 30.082L28.057 26.1258L36.9294 17.9299L41.8124 22.2949L37.941 25.6828H37.9422Z" fill="#292966"/>
</svg>
