<svg width="47" height="47" viewBox="0 0 47 47" fill="none" xmlns="http://www.w3.org/2000/svg">
<path d="M22.2636 19.3271C22.4242 19.4171 22.6043 19.4634 22.7857 19.4634C22.8976 19.4634 23.0096 19.4463 23.1179 19.4098C23.4014 19.3173 23.6326 19.1093 23.7555 18.8379L26.0762 13.7171C26.1955 13.4543 26.2028 13.1549 26.0969 12.8872C25.991 12.6194 25.7817 12.4053 25.5152 12.2945L19.354 9.73414C18.8806 9.537 18.3342 9.70615 18.0543 10.1345L15.4136 14.1759C15.2517 14.4229 15.2006 14.7247 15.2712 15.0119C15.3418 15.2991 15.5268 15.5425 15.7835 15.6873L22.2648 19.3283L22.2636 19.3271ZM22.294 16.9018L20.8909 16.1144L22.2466 13.2437L23.6813 13.84L22.294 16.903V16.9018ZM19.3515 12.039L20.2776 12.4235L19.029 15.0679L17.817 14.3864L19.3515 12.039Z" fill="#292966"/>
<path d="M44.0064 33.3896C43.9541 32.9686 43.6559 32.6193 43.2495 32.5001C41.5629 32.0048 39.8567 31.3148 39.0755 30.8378C39.213 30.7672 39.3554 30.699 39.4673 30.6443C40.3131 30.2378 41.3669 29.7316 41.4509 28.6412C41.5361 27.5387 40.4177 26.8585 38.3891 25.6245C37.519 25.0952 36.6197 24.5488 35.9091 24.0048C35.6645 23.8186 35.4783 23.658 35.3335 23.5229L43.3249 20.5135C43.7813 20.3419 44.0624 19.8807 44.0076 19.3963C43.9529 18.912 43.5744 18.5262 43.0913 18.4617C36.2218 17.5418 32.3033 14.104 31.112 7.95125C31.112 7.94638 31.1083 7.94152 31.1083 7.93543C31.0986 7.88676 31.0852 7.83808 31.0682 7.79184C31.067 7.78819 31.0645 7.78454 31.0633 7.78088C31.0463 7.73586 31.0268 7.69205 31.0037 7.65067C31 7.64459 30.9976 7.63851 30.9952 7.63364C30.9708 7.59105 30.9441 7.54967 30.9148 7.51195C30.91 7.50586 30.9051 7.49978 30.9002 7.49369C30.8382 7.41581 30.7664 7.34766 30.6861 7.28925C30.68 7.28438 30.6739 7.27952 30.6666 7.27587C30.6264 7.24788 30.5838 7.22354 30.54 7.20163C30.534 7.1992 30.5291 7.19677 30.523 7.19433C30.4305 7.15052 30.3307 7.1201 30.2273 7.10428C30.2236 7.10428 30.22 7.10185 30.2163 7.10185C26.0971 6.51773 22.0667 4.70574 18.2395 1.71578C17.9608 1.49795 17.5921 1.43346 17.2562 1.54176C16.9203 1.65007 16.6599 1.919 16.5613 2.25852C16.4506 2.64064 16.3411 3.02396 16.2303 3.40608C14.5449 9.27161 12.8023 15.3355 9.17466 16.505C8.69519 16.6595 8.38975 17.1292 8.44208 17.6306C8.49562 18.132 8.89233 18.5275 9.3937 18.5786C11.7825 18.8207 14.5668 20.6753 17.5409 23.2114C15.3322 25.8302 9.71132 27.0532 4.92884 27.8308C4.69641 27.8685 4.48223 27.9829 4.32038 28.1557C4.0697 28.4246 3.94922 28.7921 3.99182 29.1621C4.09891 30.0955 5.14424 30.8792 7.88351 32.7216C8.85218 33.3726 10.0545 34.1819 10.3672 34.5311C10.4147 34.8682 9.70402 35.9744 8.78281 36.8177C8.50292 37.072 8.38001 37.4566 8.4579 37.8277C8.53699 38.1977 8.80715 38.4983 9.16614 38.6163C11.5671 39.4061 13.2574 41.6172 14.6508 45.7839C14.7725 46.149 15.0828 46.4204 15.4612 46.4922C15.5282 46.5043 15.5939 46.5104 15.6608 46.5104C15.9723 46.5104 16.2717 46.3741 16.4761 46.1307C20.0405 41.891 27.0876 39.888 33.3061 38.1222C37.2282 37.0075 40.9313 35.9561 43.4917 34.4386C43.8567 34.222 44.0575 33.8107 44.0052 33.3896H44.0064ZM30.2553 17.0732L31.0743 22.8536L26.7627 24.477C28.3581 22.261 29.5263 19.7906 30.2553 17.0732ZM39.1838 19.7991L33.1162 22.0833L32.1585 15.3282C33.8829 17.3994 36.2279 18.8938 39.1838 19.7991ZM18.181 4.3285C21.659 6.80127 25.3 8.38934 29.0323 9.06595C29.1065 12.477 28.6356 15.5971 27.6267 18.3534C26.6556 21.0063 25.1576 23.3951 23.1704 25.4712C21.9839 24.337 20.8254 23.254 19.6937 22.2561C19.6742 22.2378 19.6547 22.2208 19.634 22.2038C17.042 19.9245 14.5851 18.0979 12.2364 17.145C15.1947 14.5555 16.7232 9.40303 18.1823 4.32971L18.181 4.3285ZM32.7268 36.0729C26.837 37.7462 20.2364 39.6215 16.0807 43.4718C15.1254 41.0708 13.7113 38.6102 11.2982 37.2387C12.1987 36.1143 13.1102 34.4411 11.9882 33.145C11.5367 32.6242 10.5863 31.9695 9.07487 30.9522C8.51752 30.5774 7.75817 30.0675 7.13389 29.6111C11.9748 28.724 16.7767 27.3684 19.14 24.6181C20.2267 25.6026 21.3316 26.6528 22.4476 27.7273C22.4561 27.7359 22.4658 27.7432 22.4743 27.7505C22.4865 27.7614 22.4999 27.7724 22.512 27.7833C22.5267 27.7943 22.5413 27.8052 22.5546 27.8162C22.5692 27.8271 22.5838 27.8381 22.5984 27.8478C22.6118 27.8563 22.6264 27.8649 22.6398 27.8734C22.6569 27.8831 22.6727 27.8928 22.6897 27.9026C22.7031 27.9099 22.7165 27.916 22.7299 27.922C22.7481 27.9306 22.7664 27.9391 22.7846 27.9464C22.798 27.9513 22.8114 27.9561 22.826 27.961C22.8443 27.9683 22.8637 27.9744 22.882 27.9805C22.8966 27.9853 22.9124 27.9878 22.927 27.9914C22.9453 27.9963 22.9623 28.0011 22.9806 28.0048C23 28.0084 23.0195 28.0109 23.0378 28.0133C23.0524 28.0157 23.067 28.0182 23.0816 28.0194C23.1156 28.0231 23.1497 28.0243 23.185 28.0243C23.2166 28.0243 23.2495 28.0231 23.2811 28.0194C23.2957 28.0182 23.3091 28.0157 23.3237 28.0133C23.3408 28.0109 23.359 28.0097 23.3761 28.006C23.3955 28.0024 23.4138 27.9975 23.4333 27.9926C23.4454 27.9902 23.4588 27.9878 23.471 27.9841C23.4917 27.978 23.5124 27.9707 23.533 27.9634C23.5416 27.9598 23.5513 27.9586 23.5598 27.9549L23.5683 27.9513C23.5683 27.9513 23.5732 27.95 23.5756 27.9488L32.6051 24.5488H32.6076L33.2099 24.3224C33.9839 25.4371 35.5975 26.4204 37.2817 27.4438C37.8306 27.7772 38.5145 28.1946 38.9672 28.5159C38.8199 28.5926 38.6654 28.6668 38.5449 28.724C37.7722 29.0952 36.9726 29.4797 36.7001 30.278C36.5613 30.6844 36.5942 31.1128 36.7962 31.5156C37.0603 32.0425 37.6663 32.7143 40.1695 33.6902C38.0545 34.5567 35.4442 35.2978 32.7256 36.0705L32.7268 36.0729Z" fill="#292966"/>
<path d="M13.2408 29.0205C12.2794 29.0205 11.5273 29.6728 11.5273 30.5051C11.5273 31.3375 12.2794 31.9898 13.2408 31.9898C14.2021 31.9898 14.953 31.3375 14.953 30.5051C14.953 29.6728 14.2009 29.0205 13.2408 29.0205Z" fill="#292966"/>
<path d="M16.7643 38.1133C15.9234 38.1133 15.2383 38.7972 15.2383 39.6393C15.2383 40.4814 15.9234 41.1653 16.7643 41.1653C17.6052 41.1653 18.2903 40.4802 18.2903 39.6393C18.2903 38.7984 17.6064 38.1133 16.7643 38.1133Z" fill="#292966"/>
<path d="M34.1774 32.1582C33.3073 32.1582 32.6514 32.7155 32.6514 33.453C32.6514 34.1904 33.3073 34.749 34.1774 34.749C35.0475 34.749 35.7034 34.1917 35.7034 33.453C35.7034 32.7143 35.0475 32.1582 34.1774 32.1582Z" fill="#292966"/>
</svg>
