<svg width="47" height="47" viewBox="0 0 47 47" fill="none" xmlns="http://www.w3.org/2000/svg">
<path d="M42.4364 11.0829L38.0586 4.47573C37.8882 4.21954 37.6141 4.05034 37.3079 4.01579C37.0005 3.98004 36.6966 4.08251 36.4726 4.29461L31.3024 9.19313L9.84239 29.5236C9.84239 29.5236 9.83286 29.5331 9.82809 29.5391C9.8126 29.5546 9.79711 29.57 9.78281 29.5867C9.77447 29.5963 9.76613 29.6058 9.75779 29.6165C9.74468 29.6332 9.73158 29.6499 9.71847 29.6666C9.71013 29.6773 9.70179 29.6892 9.69464 29.7011C9.68391 29.7178 9.67319 29.7345 9.66246 29.7512C9.65412 29.7643 9.64697 29.7786 9.63863 29.7929C9.63029 29.8084 9.62195 29.825 9.6148 29.8405C9.60765 29.8572 9.6005 29.8739 9.59335 29.8906C9.58978 29.8989 9.5862 29.9061 9.58263 29.9144L6.32966 38.5389C6.18906 38.9131 6.27366 39.3337 6.54772 39.6244C6.7479 39.8354 7.02315 39.9497 7.30436 39.9497C7.40922 39.9497 7.51527 39.9343 7.61893 39.9009L16.7094 37.0221C16.7177 37.0197 16.7249 37.0161 16.7332 37.0137C16.7546 37.0066 16.7761 36.9982 16.7975 36.9899C16.8095 36.9851 16.8226 36.9792 16.8345 36.9732C16.8524 36.9649 16.8702 36.9565 16.8881 36.947C16.9024 36.9387 16.9167 36.9303 16.931 36.922C16.9453 36.9136 16.9596 36.9053 16.9739 36.8958C16.9906 36.885 17.0061 36.8731 17.0204 36.8624C17.0311 36.8541 17.043 36.8457 17.0537 36.8362C17.0704 36.8231 17.0859 36.8088 17.1014 36.7945C17.1073 36.7885 17.1145 36.7838 17.1205 36.7778L42.291 12.4103C42.6521 12.0612 42.7128 11.5036 42.4352 11.0853L42.4364 11.0829ZM32.0495 11.357C33.0028 12.228 34.814 13.9248 36.2903 15.3166L16.4043 34.5686L12.0623 30.2945L32.0507 11.357H32.0495ZM10.9696 32.1474L14.4311 35.5541L9.03928 37.2616L10.9684 32.1462L10.9696 32.1474ZM37.7893 13.8652C37.2364 13.3445 36.4381 12.5927 35.6421 11.8479C34.8044 11.0639 34.1348 10.4419 33.651 9.99743C33.6212 9.97003 33.595 9.94619 33.5676 9.91998L37.0076 6.66106L40.2213 11.5119L37.7905 13.8652H37.7893Z" fill="#292966" stroke="#292966" stroke-width="1.5"/>
</svg>
