<svg width="47" height="47" viewBox="0 0 47 47" fill="none" xmlns="http://www.w3.org/2000/svg">
<path d="M16.7 28.9446L21.3447 21.9775C21.3697 21.9405 21.3912 21.9012 21.4115 21.8619C21.415 21.8548 21.4186 21.8464 21.4222 21.8393C21.4377 21.8059 21.4508 21.7725 21.4627 21.738C21.4651 21.7308 21.4686 21.7225 21.471 21.7153C21.4841 21.6748 21.4949 21.6331 21.502 21.5914C21.502 21.5867 21.5032 21.5807 21.5044 21.5759C21.5103 21.5402 21.5151 21.5032 21.5175 21.4675C21.5175 21.4556 21.5187 21.4449 21.5187 21.4329C21.5187 21.3972 21.5187 21.3614 21.5163 21.3257C21.5163 21.3197 21.5163 21.3138 21.5163 21.3078C21.5127 21.2661 21.5056 21.2244 21.4972 21.1839C21.4949 21.1744 21.4925 21.166 21.4901 21.1565C21.4818 21.1219 21.4722 21.0886 21.4603 21.0552C21.4579 21.0469 21.4543 21.0385 21.452 21.0302C21.4365 20.9897 21.4186 20.9492 21.3983 20.9098C21.3983 20.9098 21.3983 20.9098 21.3983 20.9087C21.3983 20.9075 21.396 20.9063 21.396 20.9039C21.3769 20.8681 21.3554 20.8348 21.3316 20.8014C21.3245 20.7919 21.3173 20.7823 21.3102 20.7728C21.2911 20.7466 21.2697 20.7216 21.247 20.6977C21.2399 20.6894 21.2327 20.6811 21.2244 20.6727C21.222 20.6703 21.2196 20.6668 21.216 20.6632L15.1331 14.5707C14.7256 14.1632 14.0655 14.162 13.658 14.5707C13.2504 14.9771 13.2504 15.6372 13.658 16.0447L17.9643 20.357H6.65395C6.07842 20.357 5.61133 20.8241 5.61133 21.3996C5.61133 21.9751 6.07842 22.4422 6.65395 22.4422H18.5291L14.9651 27.7887C14.6458 28.2677 14.7756 28.9148 15.2546 29.2341C15.4322 29.3521 15.6336 29.4093 15.8326 29.4093C16.1698 29.4093 16.4998 29.246 16.7012 28.9446H16.7Z" fill="#292966" stroke="#292966"/>
<path d="M34.6325 6.7373H17.4359C16.8604 6.7373 16.3933 7.2044 16.3933 7.77992C16.3933 8.35545 16.8604 8.82254 17.4359 8.82254H33.5899V35.8031L16.7507 37.0578C16.1764 37.1007 15.7462 37.6012 15.7879 38.1755C15.8285 38.7236 16.286 39.1407 16.827 39.1407C16.8532 39.1407 16.8794 39.1407 16.9056 39.1383L34.71 37.8109C35.2545 37.7704 35.6751 37.3164 35.6751 36.7706V7.77992C35.6751 7.2044 35.208 6.7373 34.6325 6.7373Z" fill="#292966" stroke="#292966"/>
</svg>
