<svg width="47" height="48" viewBox="0 0 47 48" fill="none" xmlns="http://www.w3.org/2000/svg">
<path d="M21.9442 8.22956L22.372 6.13159C22.4781 5.61319 22.1945 5.09357 21.7059 4.91346L17.4878 3.35338C17.2006 3.24751 16.8825 3.27549 16.6168 3.42883C16.3511 3.58337 16.1652 3.84866 16.108 4.15411L15.5861 6.94449C14.5554 6.66704 13.452 6.77899 12.5047 7.26941C11.4239 7.82919 10.628 8.84166 10.2634 10.1194L3.87062 32.5119C2.94716 35.7452 4.19949 39.0078 6.72203 39.9399L12.4189 42.0464C12.8908 42.2204 13.3841 42.308 13.8798 42.308C14.5923 42.308 15.312 42.1292 15.9924 41.7763C17.5152 40.9865 18.7056 39.4215 19.2585 37.483L24.8648 17.8456C25.4486 15.8 25.401 13.6485 24.7325 11.7878C24.1582 10.1924 23.1847 8.95849 21.9419 8.22712L21.9442 8.22956ZM20.1462 6.60011L19.9365 7.62718L17.6451 7.28888L17.9275 5.77991L20.1462 6.60011ZM22.8653 17.2505L17.259 36.8879C16.8718 38.2448 16.046 39.3619 15.0499 39.8791C14.5995 40.1127 13.9012 40.3306 13.1303 40.0458L7.4334 37.9393C5.9928 37.4063 5.27905 35.1952 5.87364 33.1094L12.2664 10.7169C12.4713 10.0002 12.88 9.46472 13.4496 9.16901C14.0001 8.88426 14.6555 8.84531 15.25 9.06558C15.3168 9.08991 15.3859 9.10817 15.4562 9.1179L20.4643 9.85657C22.7033 10.762 23.7804 14.0488 22.8665 17.2518L22.8653 17.2505Z" fill="#292966"/>
<path d="M19.4643 21.4695L16.3972 22.1145L17.9105 16.8161C17.9903 16.535 17.9546 16.2332 17.8092 15.9813C17.665 15.7281 17.4243 15.548 17.1455 15.4811L13.4075 14.5903C12.869 14.4625 12.3244 14.7862 12.1695 15.329L8.99877 26.4346C8.90344 26.768 8.97374 27.1282 9.18584 27.3984C9.39794 27.6697 9.72681 27.817 10.0664 27.7951L12.1504 27.6588L11.2782 33.3138C11.202 33.8054 11.4701 34.2849 11.9229 34.4686C12.048 34.5197 12.179 34.5441 12.3077 34.5441C12.6438 34.5441 12.9691 34.3774 13.168 34.0817L20.5331 23.116C20.7738 22.7583 20.7774 22.2861 20.5414 21.9247C20.3067 21.5632 19.8789 21.3831 19.4631 21.4708L19.4643 21.4695ZM14.0558 28.9949L14.4132 26.6755C14.4621 26.3567 14.3668 26.0318 14.1535 25.792C13.9557 25.5705 13.6756 25.4452 13.3837 25.4452C13.3611 25.4452 13.3396 25.4452 13.317 25.4476L11.4176 25.573L13.8949 16.8939L15.5988 17.3004L13.9092 23.217C13.8067 23.576 13.8961 23.963 14.1439 24.2368C14.3918 24.5106 14.7624 24.6335 15.121 24.5581L17.3516 24.0896L14.0558 28.9962V28.9949Z" fill="#292966"/>
<path d="M38.6849 10.005L32.241 9.4744C31.3878 9.40382 30.5525 9.68979 29.8864 10.2763C29.1631 10.914 28.7092 11.862 28.6365 12.8805L25.9972 36.165L25.9924 36.2185C25.8232 38.8787 27.6344 41.2018 30.0282 41.399L30.0664 41.4026L30.7646 41.4075L30.5728 44.4352C30.5358 45.0156 30.9612 45.5182 31.5296 45.5657L35.4939 45.8918C35.5225 45.8942 35.5499 45.8955 35.5773 45.8955C35.8347 45.8955 36.0837 45.7981 36.2756 45.6216C36.4889 45.4257 36.6128 45.1483 36.6199 44.855L36.6962 41.4513L37.3027 41.4562C37.3849 41.4622 37.4671 41.4647 37.5494 41.4647C38.418 41.4647 39.2581 41.141 39.942 40.5386C40.7737 39.8036 41.2956 38.7096 41.3755 37.534L43.4107 16.1297L43.413 16.0956C43.612 12.9669 41.4911 10.235 38.6849 10.0038V10.005ZM34.5609 43.6795L32.72 43.5286L32.8534 41.4245L34.6098 41.4379L34.5597 43.6807L34.5609 43.6795ZM41.3338 15.9423L39.2986 37.3442L39.2962 37.3783C39.2569 37.9952 38.9959 38.5599 38.5789 38.9274C38.3441 39.1355 37.9533 39.374 37.429 39.3302L37.3909 39.3265L30.1629 39.273C28.9213 39.1489 27.9895 37.8626 28.0729 36.3804L30.711 13.0996L30.7158 13.046C30.7455 12.5824 30.9398 12.1601 31.2496 11.8863C31.4188 11.7366 31.7 11.5651 32.0729 11.5955L38.5169 12.1261C40.1899 12.2636 41.4505 13.9733 41.3326 15.9411L41.3338 15.9423Z" fill="#292966"/>
<path d="M39.0799 15.2864C38.6163 15.1428 38.1183 15.3424 37.8752 15.7707L34.5531 21.6107L32.4786 20.6055C32.1795 20.4607 31.8304 20.4692 31.5396 20.6287C31.2477 20.7881 31.0475 21.0801 30.9999 21.4148L29.2745 33.562C29.2185 33.9563 29.3829 34.3494 29.6999 34.5806C29.9465 34.7607 30.2528 34.8191 30.5399 34.7522C30.9677 34.7376 32.6728 34.914 34.0729 35.0917C34.1158 35.0966 34.1587 35.1002 34.2016 35.1002C34.4411 35.1002 34.6747 35.0162 34.8617 34.8593C35.0822 34.6743 35.2192 34.4054 35.2406 34.1145L35.6148 29.0205L37.3187 30.3129C37.625 30.5453 38.0313 30.5879 38.378 30.4248C38.7248 30.2605 38.9559 29.9162 38.981 29.528L39.8162 16.3743C39.8472 15.8815 39.5422 15.4312 39.0799 15.2864ZM37.0244 27.4373L35.3384 26.1595C35.0333 25.9283 34.6294 25.8845 34.2838 26.0464C33.9383 26.2082 33.7059 26.5477 33.6773 26.9347L33.2436 32.8465C32.5096 32.7601 31.9448 32.7041 31.5075 32.67L32.8599 23.1489L34.5257 23.9557C35.0154 24.193 35.6017 24.0068 35.8746 23.5286L37.4486 20.7613L37.0244 27.4385V27.4373Z" fill="#292966"/>
</svg>
