<svg width="47" height="47" viewBox="0 0 47 47" fill="none" xmlns="http://www.w3.org/2000/svg">
<path d="M37.1399 27.8597C37.4474 21.4443 37.5617 18.0329 36.5537 16.659C36.2022 16.18 35.5385 15.7141 33.3829 15.4508C33.321 13.4716 32.8837 8.39432 30.1276 5.56794C28.8431 4.25126 27.2357 3.58398 25.3506 3.58398C18.1917 3.58398 15.2438 13.4108 14.6051 15.931C12.5222 16.1014 11.146 16.236 11.1174 16.2384C10.7194 16.2777 10.3786 16.541 10.2404 16.9176C7.91685 23.2579 7.21264 31.1699 8.02647 41.8153C8.06937 42.3825 8.56029 42.8102 9.12748 42.7769C19.0163 42.1918 30.2241 41.5305 35.853 43.6217C35.971 43.6658 36.0937 43.6872 36.2165 43.6872C36.4524 43.6872 36.6847 43.6074 36.8742 43.4537C37.1602 43.2213 37.3032 42.8543 37.2472 42.4885C36.6323 38.4098 36.9016 32.8059 37.1387 27.8597H37.1399ZM18.6338 11.1111C20.4998 7.49946 22.7601 5.66803 25.3506 5.66803C26.6697 5.66803 27.7433 6.1101 28.6322 7.02045C29.7594 8.17508 30.5804 10.1054 31.0058 12.6041C31.1857 13.6634 31.2596 14.6226 31.2882 15.2851C31.2703 15.2851 31.2536 15.2827 31.2345 15.2827C30.9927 15.272 30.74 15.2637 30.4803 15.2553C30.1621 12.0965 28.2437 7.96894 25.2922 7.40652C24.277 7.21229 22.7077 7.36481 21.0038 9.19148C19.7169 10.5713 18.4812 12.7662 17.3266 15.7212C17.155 15.7332 16.9846 15.7463 16.8166 15.7582C17.1395 14.6369 17.7294 12.8627 18.6338 11.1111ZM28.3843 15.2315C26.7638 15.2363 24.8954 15.2887 22.7971 15.3888C21.7283 15.44 20.6642 15.4996 19.6383 15.5651C22.1155 9.65619 24.1173 9.30587 24.9014 9.45481C26.5553 9.77058 28.0721 12.7149 28.3843 15.2315ZM35.0571 27.7596C34.845 32.1863 34.6067 37.1324 34.9892 41.1718C31.928 40.3771 27.9101 40.1125 23.5251 40.1125C19.1402 40.1125 14.505 40.3711 10.0319 40.6344C9.38486 31.1556 10.008 23.9978 11.9801 18.2521C13.5982 18.102 17.9713 17.7183 22.4932 17.4919C25.4578 17.3442 27.717 17.3013 29.4424 17.3203C29.4496 17.3203 29.4567 17.3215 29.4639 17.3215C29.4746 17.3215 29.4841 17.3215 29.4949 17.3215C33.6904 17.3704 34.6794 17.785 34.895 17.9292C34.9868 18.0925 35.2406 18.7526 35.2692 21.0797C35.2906 22.904 35.1774 25.2633 35.0583 27.7608L35.0571 27.7596Z" fill="#292966"/>
</svg>
