<svg width="36" height="36" viewBox="0 0 36 36" fill="none" xmlns="http://www.w3.org/2000/svg">
<path d="M31.8209 19.9386C29.133 19.2076 26.384 18.5796 23.7755 17.5912C24.1534 16.0488 24.3825 14.4671 24.4683 12.8836C24.4975 12.3369 24.5084 11.7883 24.5002 11.2407C24.4956 10.9678 24.4856 10.6959 24.4728 10.4239C25.5772 10.0533 26.6715 9.64718 27.7704 9.25929C28.7068 8.92889 28.8902 7.72871 28.0433 7.1738C27.9839 7.13455 27.9255 7.09531 27.8689 7.05332C27.8872 6.8288 27.8425 6.60519 27.7101 6.43178C27.1616 5.71168 26.614 4.99248 26.0655 4.27237C26.0052 4.19296 25.9395 4.11995 25.8692 4.05424C25.7141 3.46099 25.036 3.1808 24.4783 3.3031C22.6465 3.70468 20.917 4.33443 19.1455 4.92585C19.0862 4.94593 19.0268 4.9651 18.9712 4.99339C18.9018 5.02899 18.8397 5.07644 18.7813 5.12847C18.063 5.76461 18.3131 6.63166 17.9991 7.43483C17.7719 8.01621 17.3028 8.46069 16.7223 8.68247C16.2212 8.99552 15.555 9.02108 14.9654 8.72993C13.9441 8.2243 13.4795 6.99765 13.6438 5.95445C13.7168 5.49263 13.6329 5.05272 13.2349 4.75518C12.8863 4.49415 12.3524 4.41018 11.9681 4.66574C10.7113 5.50267 9.39525 6.24468 8.02166 6.87352C6.88354 7.39558 5.51724 7.70224 4.54249 8.52366C3.95472 8.76187 3.53763 9.42357 3.96841 10.119C3.97389 10.1291 3.98119 10.1382 3.98667 10.1473C4.01587 10.2076 4.05147 10.2632 4.09528 10.3162C4.76154 11.3521 5.56835 12.294 6.51116 13.0889C6.90544 13.4211 7.4275 13.5361 7.89388 13.2669C8.33106 13.015 8.78101 12.816 9.24739 12.6581C9.48925 13.8583 9.04204 15.2127 8.52089 16.3235C7.72138 18.0256 6.69552 19.6803 6.43449 21.576C6.34779 22.2094 6.71104 23.1276 7.53428 23.0199C9.6508 22.7433 11.792 22.694 13.9185 22.8857C14.0901 22.9012 14.2608 22.9195 14.4324 22.9377C14.4807 22.9551 14.5291 22.9742 14.5775 22.9907C15.1653 23.1887 15.7914 23.259 16.4202 23.238C16.5817 23.269 16.7433 23.3001 16.9039 23.3338C17.405 23.4379 17.9033 23.5556 18.398 23.687C18.9328 23.8285 19.4731 24.0485 20.0326 24.0485C21.2228 24.0485 21.7996 22.966 22.224 22.0278C22.558 21.2894 22.8628 20.5374 23.1303 19.7716C23.1403 19.7762 23.1503 19.7807 23.1613 19.7844C25.7716 20.7747 28.5233 21.4026 31.2139 22.1346C32.6322 22.5206 33.2383 20.3201 31.8209 19.9341V19.9386Z" fill="#FF7534"/>
<path d="M34.5726 32.9428C33.6618 32.5631 32.7189 32.3413 31.7387 32.2309C30.8251 32.1277 29.8997 32.1907 29.008 31.9361C27.5933 31.5317 26.99 33.7331 28.401 34.1365C29.3822 34.4167 30.3971 34.3985 31.4047 34.4806C32.2882 34.5518 33.1497 34.8028 33.9648 35.1432C34.5334 35.3805 35.2197 34.8868 35.3685 34.3465C35.5492 33.6893 35.143 33.181 34.5717 32.9428H34.5726Z" fill="#FF7534"/>
<path d="M23.921 31.5122C22.3348 30.6397 20.5806 30.3878 18.8127 30.1523C18.2012 30.0711 17.6719 30.7346 17.6719 31.2932C17.6719 31.7057 17.8645 32.0051 18.151 32.1958C18.2779 32.5289 18.5444 32.8091 18.9031 32.884C20.1763 33.1477 21.4166 33.5256 22.6205 34.0148C23.1115 34.2147 23.6856 33.8834 23.9311 33.4398C24.5554 33.0117 24.7781 31.9831 23.922 31.5122H23.921Z" fill="#FF7534"/>
<path d="M34.6456 34.2689C33.1479 28.6878 32.3301 24.0705 32.1467 20.1532C32.133 19.8584 31.9568 19.5947 31.6903 19.4687C28.0022 17.7273 25.663 17.1505 23.4004 16.5929C23.3466 16.5801 23.2927 16.5664 23.2389 16.5527C23.8695 14.3203 24.1105 11.971 23.979 9.44378L27.8415 8.60959C28.0651 8.56121 28.2577 8.41884 28.37 8.21896C28.4822 8.01908 28.5023 7.78087 28.4266 7.56456C28.4083 7.51345 27.9775 6.29045 27.3688 4.95793C26.1896 2.37959 25.4247 1.75166 24.952 1.50341C23.9809 0.993218 22.7716 1.48059 21.2419 2.09757C19.809 2.6753 18.1853 3.3297 16.6776 3.16815C16.4357 3.14168 16.1947 3.22839 16.0241 3.4018C15.8534 3.57521 15.7703 3.81707 15.8005 4.05893C16.0962 6.48668 15.4856 7.85297 14.729 7.94789C13.8464 8.05924 12.4162 6.6108 12.0247 3.60168C11.9955 3.38081 11.8759 3.18093 11.6934 3.05224C11.5108 2.92355 11.2836 2.877 11.0654 2.92355C8.47524 3.47938 5.15397 5.0492 0.911808 7.72337C0.666296 7.87761 0.523917 8.15324 0.540345 8.44257C0.556773 8.73189 0.727446 8.99018 0.988474 9.11704C2.48072 9.84263 3.78677 12.0002 4.75787 13.7991C4.87834 14.0218 5.09648 14.1742 5.34746 14.2098C5.59754 14.2454 5.85035 14.1605 6.02833 13.9807L6.83058 13.1703C6.28936 16.4715 5.37393 19.1931 4.05145 21.4401C3.92094 21.6619 3.90542 21.9339 4.01038 22.1694C4.11534 22.4048 4.32708 22.5755 4.57989 22.6275C6.96474 23.1167 9.57229 23.0538 11.8732 22.999C13.2796 22.9652 14.6468 22.9324 15.7758 23.0364C16.3326 25.2917 16.4978 28.0115 16.2787 31.3273C16.2641 31.5472 16.3408 31.7635 16.4914 31.9242C16.642 32.0857 16.8519 32.177 17.0718 32.1779C18.9876 32.1861 20.8202 32.657 22.5197 33.5761C22.7487 33.7002 23.0225 33.7048 23.2553 33.5889C23.488 33.473 23.6496 33.2512 23.6888 32.9938L24.4089 28.2469C25.3335 30.4483 26.0326 32.3869 26.53 34.1246C26.6386 34.5034 27.0073 34.7471 27.398 34.6969C29.2881 34.4578 31.3992 34.6421 33.6727 35.2436C33.7402 35.2619 33.8087 35.2701 33.8771 35.2701C34.087 35.2701 34.2915 35.1879 34.443 35.0355C34.6438 34.8338 34.7223 34.5399 34.6483 34.2652L34.6456 34.2689ZM23.018 18.1435C25.2103 18.6838 27.2866 19.1949 30.5769 20.7109C30.5997 21.1024 30.6298 21.5013 30.6645 21.9065C28.2769 20.8295 25.5233 19.7882 22.4549 18.8016C22.5553 18.5606 22.6493 18.3178 22.7405 18.0741C22.8327 18.097 22.9258 18.1198 23.018 18.1426V18.1435ZM13.9002 21.3717C13.2385 21.3717 12.5458 21.3881 11.8321 21.4054C9.97113 21.4502 7.90116 21.4995 5.97904 21.2466C7.39827 18.4712 8.3 15.107 8.72805 11.0054C8.76365 10.6686 8.58202 10.3455 8.27536 10.2004C7.9687 10.0553 7.60454 10.1192 7.36633 10.3601L5.64044 12.1034C4.84184 10.7152 3.91455 9.34978 2.81202 8.42614C5.92702 6.53323 8.53365 5.28193 10.5872 4.69234C10.8683 6.0641 11.3675 7.22687 12.0502 8.09118C12.8744 9.13529 13.924 9.661 14.9279 9.53505C15.8479 9.41914 16.5963 8.78939 17.0353 7.75988C17.3758 6.96127 17.519 5.96371 17.4643 4.78452C19.0396 4.70968 20.5692 4.0927 21.8397 3.58068C22.6575 3.2512 23.8933 2.75288 24.2109 2.91899C24.6827 3.16724 25.6858 4.84841 26.6076 7.2433L22.9705 8.02821C22.5799 8.11217 22.3116 8.47268 22.3426 8.87062C22.736 13.9105 21.5823 18.18 18.7192 22.236C18.1351 21.8727 17.4114 21.6555 16.5835 21.5296C16.5452 21.5204 16.5051 21.5159 16.4649 21.5131C15.6891 21.4045 14.8257 21.3708 13.9012 21.3708L13.9002 21.3717ZM17.917 30.6145C17.9307 30.3324 17.9407 30.0559 17.9489 29.7812C19.5744 29.7711 21.0356 30.1499 22.3855 30.9284L22.2714 31.6823C20.8832 31.0735 19.4257 30.7158 17.9179 30.6135L17.917 30.6145ZM23.9206 24.6135C23.5702 24.6619 23.2945 24.9348 23.2407 25.2844L22.6383 29.2536C21.2036 28.5399 19.6383 28.1812 17.9626 28.1849C17.9398 26.4179 17.7828 24.8317 17.4898 23.3997C17.8093 23.5302 18.0676 23.6972 18.2501 23.9108C18.4025 24.0897 18.6252 24.1928 18.8589 24.1928C18.8662 24.1928 18.8735 24.1928 18.8817 24.1928C19.1236 24.1864 19.3499 24.0696 19.4959 23.877C20.394 22.6914 21.1525 21.4903 21.7786 20.2637C25.2422 21.3699 28.2942 22.5436 30.8607 23.7584C31.1245 25.8794 31.537 28.1739 32.1056 30.6756C30.4235 30.1755 28.6748 30.002 26.8841 30.1572C26.3027 28.6065 25.5982 26.9226 24.7576 25.0754C24.6115 24.7541 24.2711 24.567 23.9206 24.6154V24.6135ZM27.8735 33.0477C27.7421 32.6151 27.5978 32.1715 27.4436 31.7161C29.2142 31.6157 30.8936 31.8758 32.5419 32.5055C32.6149 32.7994 32.6897 33.0961 32.7664 33.3963C31.0414 33.0459 29.4031 32.929 27.8744 33.0477H27.8735Z" fill="#292966"/>
</svg>
