<svg width="48" height="48" viewBox="0 0 48 48" fill="none" xmlns="http://www.w3.org/2000/svg">
<path d="M39.95 10.5556C39.9525 10.4814 39.9549 10.4084 39.9549 10.3329C39.9379 8.1084 38.4983 5.96055 36.2263 5.59669C33.605 5.17685 30.0809 6.0725 29.7839 9.16347C29.6963 10.0762 29.9275 10.9864 29.9908 11.9015C30.1454 14.1333 28.6011 15.4269 26.6078 16.0609C23.6032 17.015 20.679 17.8729 18.3376 20.134C16.6717 21.7427 15.6641 23.7859 15.4158 26.0786C15.2235 27.8565 15.9586 29.5565 17.4688 30.5483C18.3534 31.1288 19.4438 31.3588 20.466 31.579C22.3754 31.9891 24.3626 32.2605 26.3109 32.0171C28.8055 31.7068 30.9132 30.8051 32.8262 29.1586C34.2634 27.921 35.4329 26.2842 36.41 24.6694C37.414 23.012 38.2099 21.1975 38.8086 19.3563C39.4754 17.3083 39.8344 15.1385 39.9561 12.9907C39.9999 12.2252 40.0182 11.3868 39.95 10.5556Z" fill="#FF7534"/>
<path d="M40.4863 7.4267C39.9496 6.0954 39.0394 5.60985 38.3701 5.43705C37.6728 5.25573 36.9365 5.33726 36.249 5.53927C35.7281 4.77383 34.3263 3.97796 30.4796 3.46078C27.015 2.9947 22.5015 2.89248 18.7011 3.19184C11.5286 3.75649 10.7656 5.40419 10.5149 5.9445C10.4686 6.04429 10.4236 6.16476 10.3895 6.30106C9.40019 6.30106 8.23073 6.6637 7.01747 7.74188C5.58881 9.01234 4.81972 10.9874 4.85257 13.3032C4.88056 15.3245 5.53039 17.3385 6.59033 18.688C7.65513 20.0461 9.03389 20.5974 10.4029 20.2834C10.6694 21.3105 11.183 22.7744 12.1492 24.2433C13.4866 26.2755 15.9241 28.6327 20.2149 29.3847V35.4766C18.1936 35.5447 14.1145 36.0765 13.2627 39.2028C13.158 39.5873 13.0351 40.573 14.151 41.4237C16.1881 42.9752 21.2359 43.2344 22.7351 43.277C23.1233 43.288 23.4969 43.2928 23.8559 43.2928C29.0071 43.2928 31.2377 42.2232 31.8243 41.8751C33.2809 41.0123 33.3515 39.905 33.2627 39.322C33.0862 38.1575 32.5021 37.1864 31.5724 36.5134C30.0281 35.3963 27.8608 35.2941 26.4991 35.3659V29.2691C28.552 28.8006 30.2849 27.8745 31.6697 26.4945C33.9527 24.2189 34.7035 21.2886 34.9493 19.58C36.4218 19.8392 37.8042 19.4109 38.9396 18.3217C41.343 16.0157 42.0232 11.2296 40.4887 7.4267H40.4863ZM18.5246 5.34213C21.6849 5.06832 25.4951 5.09023 28.7187 5.40176C31.9399 5.71207 33.5146 6.20735 34.151 6.52619C33.8577 6.71359 33.6265 6.88152 33.4805 6.99105C24.1687 10.3996 17.3905 10.4386 12.7662 7.10787C12.6019 6.95454 12.524 6.84623 12.4887 6.78539C12.7844 6.46047 14.28 5.70964 18.5246 5.34213ZM24.7443 37.3579C24.9828 37.56 25.3004 37.6476 25.6083 37.5952C26.4735 37.4504 29.0059 37.2849 30.325 38.2414C30.7996 38.5858 31.0625 39.03 31.155 39.6409C31.1671 39.7224 30.9152 40.0485 29.9965 40.3783C28.1297 41.0476 24.7163 41.319 21.3041 41.0732C17.4805 40.7969 15.7099 40.04 15.3485 39.6579C16.0044 37.7413 19.8815 37.5295 21.2128 37.6086C21.5061 37.6269 21.7945 37.5234 22.0086 37.3214C22.2228 37.1207 22.3445 36.8395 22.3445 36.545V29.6098C22.5842 29.6196 22.8276 29.6269 23.0771 29.6281C23.0966 29.6281 23.1173 29.6281 23.1367 29.6281C23.5578 29.6281 23.9679 29.6123 24.3682 29.5831V36.545C24.3682 36.8578 24.507 37.1547 24.7455 37.3579H24.7443ZM37.4635 16.7848C36.6116 17.6013 35.6235 17.7388 34.4419 17.2034C34.1133 17.0549 33.7312 17.0841 33.4282 17.2788C33.1239 17.4736 32.9402 17.8106 32.9378 18.1708C32.9378 18.1952 32.9122 20.6108 31.66 22.9521C30.0403 25.9834 27.155 27.5082 23.082 27.4997C13.2834 27.4681 12.2855 19.0276 12.2478 18.671C12.21 18.2962 11.9776 17.9688 11.6357 17.8106C11.2937 17.6524 10.8933 17.6865 10.583 17.8995C10.2447 18.1331 9.34664 18.7525 8.26359 17.3725C6.82884 15.5435 6.25446 11.2673 8.43152 9.33239C10.1036 7.84654 11.2037 8.58642 11.4069 8.74949L11.3923 8.73732C11.4154 8.75679 11.4397 8.77748 11.4653 8.79573C14.1328 10.7367 17.3685 11.7066 21.2298 11.7066C25.0911 11.7066 29.3612 10.7817 34.3713 8.93446C34.3762 8.93324 34.3798 8.93081 34.3847 8.92838C34.4054 8.91986 34.426 8.91134 34.4467 8.9016C34.4589 8.89674 34.4711 8.89187 34.482 8.88578C34.7619 8.74462 35.3217 8.4623 35.7902 8.03394C36.4838 7.65913 37.2907 7.35612 37.8383 7.4985C37.9551 7.52892 38.2642 7.60924 38.5124 8.22378C39.5748 10.8548 39.4069 14.9217 37.4647 16.786L37.4635 16.7848Z" fill="#292966"/>
<path d="M36.6751 9.70589C36.1518 9.43573 35.5105 9.64139 35.2404 10.1634C34.9897 10.649 35.1491 11.2368 35.5908 11.5349C35.7381 11.8185 35.7685 12.6314 35.6602 13.0317C35.3389 13.2155 35.1211 13.5611 35.1211 13.9578C35.1211 14.5456 35.5981 15.0226 36.1859 15.0226C36.54 15.0226 37.3979 14.8753 37.7289 13.5161C37.8689 12.938 37.8932 12.2127 37.7922 11.5775C37.6462 10.6551 37.2592 10.0089 36.6751 9.70711V9.70589Z" fill="#292966"/>
<path d="M11.2121 10.8379C10.7363 10.4923 10.0706 10.597 9.72504 11.0728C8.65415 12.5453 8.65415 14.1662 9.72504 15.6387C9.93313 15.9247 10.258 16.0768 10.5866 16.0768C10.8032 16.0768 11.0235 16.0111 11.2121 15.8735C11.6879 15.5279 11.7926 14.8623 11.447 14.3865C10.9152 13.6551 10.9152 13.0576 11.447 12.3262C11.7926 11.8504 11.6879 11.1848 11.2121 10.8392V10.8379Z" fill="#292966"/>
<path d="M29.4971 18.5398C28.9093 18.5398 28.4323 19.0168 28.4323 19.6046C28.4323 21.621 27.595 22.6517 25.7173 22.9475C25.1369 23.0387 24.7402 23.5839 24.8314 24.1644C24.9142 24.6889 25.3669 25.0637 25.8816 25.0637C25.9364 25.0637 25.9924 25.0588 26.0483 25.0503C28.9592 24.5915 30.5619 22.6578 30.5619 19.6034C30.5619 19.0156 30.0848 18.5386 29.4971 18.5386V18.5398Z" fill="#292966"/>
</svg>
