<svg width="47" height="48" viewBox="0 0 47 48" fill="none" xmlns="http://www.w3.org/2000/svg">
<path d="M40.6373 12.1142C39.2134 10.4604 37.5154 9.07193 35.771 7.7893C34.0348 6.51276 32.2284 5.36034 30.2278 4.56569C29.1614 4.14221 27.9448 3.93655 26.8056 4.00591C25.9715 4.05581 25.1494 4.38316 24.5035 4.91252C20.5237 4.61681 16.6428 5.8252 13.2028 7.96819C11.332 9.13399 9.60066 10.542 7.92056 11.9755C6.2905 13.3664 4.74505 14.7537 3.48318 16.5134C0.840295 20.2006 1.13461 25.3445 2.25468 29.5441C3.26155 33.319 5.25027 36.9661 8.07665 39.6348C11.133 42.5201 15.0187 44.1958 19.0474 45.0914C21.1457 45.5575 23.3144 45.9152 25.4544 46.0856C27.8697 46.2779 30.26 45.8422 32.4024 44.6667C34.1564 43.7041 35.6673 42.2487 36.9947 40.7494C38.3769 39.1881 39.6852 37.5587 40.928 35.8794C43.4017 32.5353 45.2761 28.657 45.4453 24.4026C45.6276 19.8222 43.5376 15.4814 40.6361 12.1142H40.6373ZM35.6971 30.8584C35.5088 31.1407 35.3146 31.4206 35.1168 31.6968C35.0131 31.8428 34.9071 31.9864 34.801 32.13C34.3899 32.657 33.9741 33.1802 33.5487 33.695C32.6884 34.7355 31.8185 35.7771 30.8677 36.7348C30.6151 36.9892 30.3565 37.2374 30.0884 37.4747C30.0086 37.5465 29.9263 37.6159 29.8441 37.6853C29.414 37.9895 28.9743 38.2645 28.5096 38.5018C28.164 38.6223 27.8137 38.7184 27.455 38.7926C26.4327 38.8693 25.4115 38.7939 24.3939 38.6685C21.7832 38.284 19.182 37.751 16.7226 36.7665C15.8647 36.3686 15.0342 35.9146 14.2501 35.3792C14.0857 35.2672 13.926 35.1492 13.7652 35.0312C13.7151 34.9898 13.6651 34.9484 13.615 34.9058C13.2182 34.5626 12.8393 34.1988 12.4795 33.8155C12.4235 33.7558 12.016 33.3129 11.7491 33.0013C11.7443 32.9953 11.7419 32.9904 11.7359 32.9831C11.6644 32.8821 11.5906 32.7823 11.5191 32.6801C11.3773 32.4756 11.2391 32.2688 11.1056 32.0595C10.6183 31.2928 10.1953 30.4896 9.82468 29.6597C9.30158 28.2968 8.92743 26.8851 8.69984 25.4407C8.60094 24.4793 8.56639 23.5143 8.64384 22.5517C8.71772 22.1635 8.81185 21.7838 8.93458 21.4102C9.1157 21.0646 9.32184 20.7421 9.52798 20.4087C9.20387 20.9271 9.37069 20.5766 9.53155 20.3856C9.54347 20.371 9.55777 20.3564 9.56968 20.3418C9.59828 20.2943 9.62807 20.2469 9.65667 20.1994C9.62569 20.2517 9.59709 20.298 9.57087 20.3406C9.6662 20.2274 9.76272 20.1154 9.86162 20.0071C10.0654 19.7832 10.2775 19.5654 10.4943 19.3536C11.4142 18.4519 12.4044 17.6183 13.3886 16.7908C13.6365 16.5815 13.8867 16.3746 14.1381 16.1702C14.2096 16.1118 14.2811 16.0546 14.3526 15.9974C14.865 15.608 15.3809 15.2247 15.9124 14.862C16.9216 14.1732 17.975 13.5587 19.0784 13.0427C20.0531 12.6594 21.0528 12.3649 22.0823 12.1799C22.8139 12.1118 23.5443 12.1057 24.2759 12.169C24.3296 12.1787 24.3844 12.186 24.438 12.197C25.3972 12.3819 26.3266 12.3466 27.1929 11.8295C27.3835 11.7163 27.5706 11.5739 27.7482 11.4108C27.8816 11.451 28.0139 11.496 28.1461 11.5435C29.1947 12.0607 30.1801 12.7142 31.1453 13.3749C31.6684 13.7339 32.176 14.1124 32.686 14.4896C32.7611 14.5517 32.8373 14.6125 32.9112 14.6746C33.1769 14.8961 33.4379 15.1224 33.6941 15.3549C34.1552 15.7723 34.6008 16.2067 35.0262 16.6606C35.2622 16.9125 35.4933 17.1717 35.7161 17.437C35.8055 17.5429 35.8937 17.65 35.9807 17.7583C35.9854 17.7644 35.9926 17.7741 36.0021 17.785C36.0593 17.8641 36.1308 17.9615 36.1594 18.0029C36.2571 18.1428 36.3524 18.2852 36.4454 18.4288C36.6134 18.6868 36.7743 18.9496 36.928 19.2174C37.1758 19.6494 37.3998 20.0923 37.6048 20.5462C37.8884 21.3141 38.1064 22.0978 38.253 22.9046C38.3126 23.597 38.3137 24.2882 38.2566 24.9819C38.1005 25.8678 37.8574 26.7294 37.5428 27.5703C37.0245 28.7215 36.3965 29.8155 35.6971 30.862V30.8584Z" fill="#FF7534"/>
<path d="M9.57091 20.3391C9.55631 20.361 9.54292 20.3841 9.52832 20.406C9.54171 20.3841 9.55631 20.3622 9.57213 20.3379C9.57213 20.3379 9.57213 20.3379 9.57091 20.3391Z" fill="#FF7534"/>
<path d="M22.4339 39.9011C18.1503 39.9011 14.6197 38.4785 11.9398 35.6736C9.34819 32.9611 7.93381 29.3492 7.09376 26.868C5.90696 23.3608 7.62043 17.9334 11.2583 13.6693C14.7698 9.5549 19.1238 7.66869 23.2061 8.49376C29.2044 9.70702 33.9623 12.7128 36.2596 16.7408C38.0196 19.8257 38.2984 23.4582 37.0675 27.2452C34.9835 33.6583 33.7323 35.6809 32.1523 37.1704C30.0945 39.1101 27.2788 39.9011 22.4327 39.9011H22.4339ZM21.3091 10.4347C18.4124 10.4347 15.3942 12.0654 12.8311 15.0687C9.76047 18.6672 8.14114 23.4411 9.06579 26.1731C9.83912 28.4609 11.1343 31.7794 13.4329 34.1865C15.7374 36.5984 18.6805 37.7715 22.4339 37.7715C26.7569 37.7715 29.0852 37.1643 30.7391 35.6054C32.455 33.9881 33.5917 31.1831 35.0895 26.5747C36.1417 23.3389 35.9284 20.3915 34.4592 17.8129C32.4633 14.313 28.2142 11.6772 22.8021 10.5832C22.31 10.4834 21.8107 10.4347 21.3091 10.4347Z" fill="#292966"/>
<path d="M29.1446 27.6872C29.0791 27.6872 29.0124 27.6812 28.9445 27.6678L21.2374 26.1418C20.7143 26.0383 20.3521 25.5479 20.3974 25.0052L21.235 15.0094C21.2839 14.4241 21.7891 13.9897 22.3623 14.0395C22.9354 14.0894 23.3608 14.6054 23.3119 15.1907L22.5541 24.2324L29.34 25.5759C29.9049 25.6879 30.2742 26.2464 30.1646 26.8245C30.0681 27.3331 29.632 27.6872 29.1423 27.6872H29.1446Z" fill="#292966"/>
<path d="M22.975 45.0865C17.1018 45.0865 11.4991 42.4105 7.19871 37.5526C3.69909 33.5988 1.4375 28.5864 1.4375 24.7823C1.4375 20.9782 3.48222 16.0071 6.64582 11.7844C10.4695 6.68189 15.3299 3.55928 20.3321 2.9922C25.5821 2.39835 31.6126 4.89059 36.4635 9.66211C40.8163 13.942 43.3352 19.2076 43.0361 23.4035C42.687 28.3089 40.7472 33.5514 37.8481 37.426C34.0982 42.4373 28.9555 45.0865 22.975 45.0865ZM20.5621 5.10963C14.5828 5.78624 10.3146 10.3935 8.30209 13.0792C5.44353 16.8942 3.52273 21.5976 3.52273 24.7823C3.52273 27.4911 5.1373 32.0485 8.74655 36.1251C12.6465 40.5316 17.6999 42.9581 22.9762 42.9581C29.6799 42.9581 33.8635 39.2478 36.193 36.1349C38.8561 32.5766 40.6363 27.7589 40.9581 23.2502C41.2095 19.7236 38.8776 14.9922 35.0193 11.1979C30.6081 6.86077 25.2044 4.58514 20.5633 5.11085L20.5621 5.10963Z" fill="#292966"/>
</svg>
