<svg width="48" height="47" viewBox="0 0 48 47" fill="none" xmlns="http://www.w3.org/2000/svg">
<path d="M45.1882 21.2233C44.413 20.1914 43.1937 19.8149 42.0059 19.6242C41.9889 19.6206 41.9719 19.6183 41.9548 19.6159C41.5508 19.5527 41.1517 19.511 40.7756 19.4705C39.936 19.3811 38.8906 19.2715 38.6241 18.9546C38.1629 18.4088 38.3978 17.3269 38.6448 16.1818C38.8018 15.4549 38.9649 14.7043 38.9916 13.9417C39.0014 13.6759 38.9868 13.415 38.9527 13.1588C38.9503 13.135 38.9466 13.1123 38.943 13.0885C38.8079 12.1984 38.4112 11.3822 37.7845 10.7328C36.9411 9.85817 35.7741 9.36248 34.4988 9.33507L7.04154 8.76074C4.50914 8.7095 2.40509 10.6827 2.35155 13.1612L2.00595 29.0268C1.97309 30.5354 2.70445 31.9247 3.92137 32.7767C3.35672 35.2992 4.57607 37.7157 6.64848 38.1673C6.87482 38.2162 7.10239 38.24 7.32873 38.24C9.17601 38.24 10.9442 36.6528 11.4565 34.3996C11.5003 34.2054 11.5344 34.01 11.5575 33.8145L28.8073 34.4842C28.873 36.3692 29.8331 37.8432 31.3166 38.1661C31.5052 38.2078 31.6962 38.2281 31.8885 38.2281C32.6929 38.2281 33.5094 37.873 34.197 37.2081C34.8444 36.5825 35.347 35.721 35.6378 34.7487L40.071 34.9215H40.0905C40.1234 34.9227 40.1562 34.9227 40.1879 34.9227C42.3017 34.9227 43.9141 33.463 44.7355 30.8011C45.6908 27.7006 46.7762 23.3347 45.1894 21.2233H45.1882ZM43.4723 22.4601C43.6658 22.7175 43.8666 23.2227 43.8727 24.2034C43.6074 24.1772 43.3093 24.1379 43.0087 24.0795C41.8526 23.8566 41.535 23.5349 41.5143 23.4599C41.3549 22.9082 41.8003 22.2194 42.1775 21.7798C42.7397 21.9108 43.2107 22.1098 43.4723 22.4589V22.4601ZM36.2329 18.1407C34.3163 18.2349 33.0981 18.2992 32.3217 18.3445C32.4848 17.3865 32.7659 15.928 33.058 14.4898L36.8231 14.348C36.7671 14.8008 36.6625 15.281 36.5615 15.7493C36.3947 16.5202 36.2171 17.3436 36.2329 18.1407ZM6.99651 10.8448L34.4525 11.4191C35.1535 11.4334 35.7875 11.6979 36.2365 12.1638C36.2718 12.2008 36.3047 12.2401 36.3376 12.2794L32.1392 12.4367C31.6488 12.4546 31.2338 12.8001 31.1365 13.2708C31.134 13.2851 30.8286 14.7555 30.5463 16.2235C30.3795 17.0921 30.253 17.7916 30.1714 18.3052C30.0132 19.2918 29.9329 19.7863 30.3844 20.2152C30.5864 20.4071 30.859 20.5119 31.1365 20.5119C31.1924 20.5119 31.2484 20.5072 31.3032 20.4988C31.6841 20.4595 34.7264 20.3022 36.9119 20.1962C36.9351 20.226 36.9582 20.2557 36.9837 20.2855C37.6579 21.0839 38.7239 21.3246 39.8325 21.464C39.4456 22.1801 39.19 23.075 39.4675 24.0306C39.7741 25.0863 40.8389 25.7929 42.6339 26.1325C42.7008 26.1456 42.7665 26.1564 42.8334 26.1683C39.3969 26.0789 32.1003 25.8918 29.3598 25.8239V17.1839C29.3598 16.6084 28.8827 16.1413 28.295 16.1413H20.4872C19.9129 16.1413 19.4419 16.5869 19.4224 17.1493L19.1365 25.445L4.22438 24.9517L4.47993 13.2065C4.50914 11.8767 5.636 10.8174 6.99651 10.846V10.8448ZM31.3786 20.4833C31.3652 20.4869 31.3421 20.4917 31.3105 20.4964C31.3336 20.4929 31.3555 20.4881 31.3786 20.4833ZM11.4103 31.7222C11.4054 31.7055 11.3993 31.69 11.3957 31.6733C11.3859 31.6376 11.3738 31.603 11.3628 31.5684C11.3433 31.5053 11.3214 31.4433 11.2995 31.3814C11.2861 31.3456 11.274 31.3111 11.2606 31.2765C11.2362 31.2146 11.2107 31.155 11.1839 31.0942C11.1705 31.0632 11.1571 31.0322 11.1425 31.0025C11.1085 30.9298 11.0707 30.8583 11.033 30.788C11.0257 30.7737 11.0184 30.7582 11.0099 30.7439C10.9637 30.6605 10.9138 30.5794 10.8614 30.5008C10.8468 30.4782 10.8298 30.4555 10.8152 30.4329C10.7775 30.3781 10.7385 30.3233 10.6984 30.2708C10.6777 30.2434 10.657 30.2172 10.6351 30.191C10.5974 30.1433 10.5584 30.0981 10.5183 30.0528C10.4951 30.0278 10.4732 30.0015 10.4489 29.9777C10.4063 29.9324 10.3625 29.8895 10.3175 29.8466C10.2956 29.8264 10.2749 29.8049 10.2518 29.7847C10.1909 29.7299 10.1289 29.6774 10.0656 29.6262C10.0583 29.6202 10.0522 29.6143 10.0449 29.6083C9.97309 29.5535 9.90007 29.5011 9.82463 29.4522C9.8015 29.4367 9.77838 29.4236 9.75526 29.4093C9.70172 29.376 9.64817 29.3438 9.59219 29.314C9.56299 29.2985 9.53378 29.2842 9.50458 29.2687C9.45225 29.2425 9.3987 29.2175 9.34516 29.1937C9.31474 29.1806 9.28431 29.1674 9.25389 29.1543C9.1967 29.1305 9.13707 29.1103 9.07866 29.09C9.05067 29.0805 9.02389 29.0709 8.99712 29.0626C8.9095 29.0352 8.82189 29.0113 8.73183 28.9923C8.65152 28.9744 8.56999 28.9613 8.48845 28.9506C8.47141 28.9482 8.45316 28.9458 8.43612 28.9434C8.35702 28.9339 8.27793 28.9267 8.20004 28.9232C8.18544 28.9232 8.17205 28.9232 8.15745 28.9232C8.08565 28.9208 8.01507 28.9208 7.94327 28.9232C7.92867 28.9232 7.91528 28.9232 7.90068 28.9232C7.8228 28.9267 7.74492 28.9339 7.66703 28.9422C7.64878 28.9446 7.63053 28.947 7.61227 28.9494C7.53317 28.9601 7.45529 28.972 7.37619 28.9887C7.37254 28.9887 7.36889 28.9899 7.36524 28.9911C7.28857 29.0066 7.21312 29.0268 7.13768 29.0471C7.11942 29.0519 7.10117 29.0578 7.08291 29.0626C7.00747 29.0852 6.93202 29.1091 6.85779 29.1365C6.84318 29.1424 6.82736 29.1484 6.81276 29.1543C6.74583 29.1794 6.68012 29.2068 6.6144 29.2366C6.5998 29.2425 6.58641 29.2485 6.57181 29.2556C6.4988 29.289 6.42821 29.3259 6.35642 29.3641C6.33816 29.3736 6.31991 29.3843 6.30166 29.3938C6.23107 29.4332 6.16049 29.4749 6.09113 29.519C6.08504 29.5225 6.07896 29.5273 6.07288 29.5309C6.00716 29.5738 5.94145 29.619 5.87695 29.6667C5.85992 29.6798 5.84288 29.6917 5.82584 29.7048C5.76013 29.7549 5.69563 29.8061 5.63114 29.8597C5.61653 29.8717 5.60315 29.8848 5.58854 29.8967C5.53256 29.9455 5.4778 29.9956 5.42304 30.0468C5.40966 30.0587 5.39749 30.0706 5.3841 30.0838C5.32326 30.1433 5.26484 30.2041 5.20643 30.2673C5.19061 30.2839 5.17479 30.3018 5.15897 30.3197C5.10178 30.384 5.04458 30.4496 4.98982 30.5187C4.98374 30.5258 4.97765 30.5342 4.97157 30.5413C4.91924 30.6069 4.86935 30.6736 4.82067 30.7415C4.81215 30.7522 4.80363 30.7629 4.79633 30.7737C4.36554 30.3233 4.11851 29.7179 4.13311 29.0733L4.17692 27.0381L19.0622 27.5302L18.9077 32.0153L11.409 31.7245L11.4103 31.7222ZM21.5155 18.2253H23.2143L22.8894 32.1678L21.0373 32.0963L21.5155 18.2253ZM25.3439 18.2253H27.2277V32.3358L25.0166 32.25L25.3439 18.2253ZM9.37558 33.9468C9.06162 35.3302 8.02359 36.3311 7.10969 36.1309C6.19578 35.9319 5.68833 34.5938 6.00351 33.2104C6.0461 33.0221 6.1033 32.8375 6.17266 32.6611C6.19822 32.5956 6.22621 32.5312 6.25541 32.4693C6.26515 32.4478 6.2761 32.4288 6.28584 32.4073C6.30531 32.3668 6.32599 32.3251 6.3479 32.2858C6.36007 32.2619 6.37467 32.2393 6.38684 32.2155C6.40631 32.1809 6.427 32.1452 6.44769 32.1118C6.46229 32.088 6.47811 32.0653 6.49271 32.0415C6.5134 32.0105 6.53409 31.9783 6.55599 31.9486C6.57181 31.9259 6.58885 31.9033 6.60588 31.8806C6.62779 31.852 6.64969 31.8234 6.6716 31.796C6.68863 31.7746 6.70689 31.7531 6.72392 31.7317C6.74705 31.7055 6.76895 31.6793 6.79207 31.6542C6.81033 31.634 6.82858 31.6137 6.84683 31.5947C6.86995 31.5708 6.89429 31.547 6.91863 31.5244C6.93688 31.5065 6.95636 31.4886 6.97461 31.4707C7.00016 31.4481 7.02572 31.4266 7.05249 31.4052C7.07075 31.3897 7.089 31.3742 7.10725 31.3599C7.13889 31.3361 7.17053 31.3134 7.20217 31.292C7.21799 31.2813 7.23503 31.2694 7.25085 31.2586C7.29344 31.2312 7.33482 31.2062 7.37741 31.1824C7.39688 31.1717 7.41513 31.1633 7.4346 31.1538C7.46259 31.1395 7.49058 31.1264 7.51735 31.1145C7.53804 31.1049 7.55873 31.0978 7.58063 31.0906C7.60741 31.0811 7.63296 31.0704 7.65973 31.062C7.68164 31.0549 7.70232 31.0501 7.72423 31.0442C7.74978 31.037 7.77534 31.031 7.80211 31.0251C7.82402 31.0203 7.84592 31.0167 7.86661 31.0144C7.89216 31.0108 7.91772 31.0072 7.94449 31.0048C7.96518 31.0025 7.98708 31.0013 8.00777 31.0013C8.03698 31.0013 8.06618 31.0013 8.09417 31.0013C8.10877 31.0013 8.12338 31.0013 8.13798 31.0036C8.18179 31.0072 8.2256 31.0132 8.26819 31.0227C8.34607 31.0394 8.42274 31.0656 8.49575 31.1002C9.00686 31.342 9.38167 31.9974 9.4559 32.8184C9.48876 33.1854 9.46198 33.5631 9.37558 33.9408V33.9468ZM31.7778 36.1321C31.2423 36.0154 30.7823 34.9608 30.9807 33.631C30.9965 33.5214 31.0184 33.407 31.044 33.2938C31.0634 33.2068 31.0866 33.1211 31.1109 33.0376C31.1194 33.0102 31.1279 32.984 31.1365 32.9566C31.1535 32.9018 31.1705 32.847 31.19 32.7934C31.201 32.7624 31.2131 32.7314 31.2253 32.7016C31.2435 32.654 31.2618 32.6063 31.2801 32.561C31.2934 32.5288 31.308 32.4991 31.3214 32.4681C31.3409 32.4252 31.3604 32.3823 31.3798 32.3406C31.3944 32.3096 31.4103 32.281 31.4261 32.2512C31.4468 32.2119 31.4675 32.1726 31.4894 32.1344C31.5052 32.1058 31.5222 32.0784 31.5393 32.0498C31.5612 32.0129 31.5831 31.9772 31.6062 31.9426C31.6232 31.9164 31.6415 31.8902 31.6585 31.8651C31.6816 31.8318 31.7048 31.7984 31.7291 31.7674C31.7474 31.7436 31.7656 31.7198 31.7839 31.6971C31.8082 31.6662 31.8325 31.6364 31.8569 31.6078C31.8751 31.5863 31.8934 31.5649 31.9128 31.5446C31.9384 31.5172 31.9627 31.491 31.9883 31.4648C32.0066 31.4457 32.026 31.4278 32.0443 31.41C32.0698 31.3849 32.0966 31.3623 32.1222 31.3409C32.1404 31.3254 32.1587 31.3087 32.1769 31.2944C32.2037 31.2729 32.2305 31.2539 32.256 31.2348C32.2743 31.2217 32.2925 31.2086 32.3096 31.1967C32.3363 31.1788 32.3631 31.1633 32.3911 31.1478C32.4081 31.1383 32.4252 31.1276 32.4422 31.1192C32.4702 31.1049 32.4982 31.0942 32.525 31.0823C32.5408 31.0763 32.5566 31.068 32.5724 31.0632C32.6016 31.0525 32.6308 31.0453 32.66 31.0382C32.6722 31.0346 32.6856 31.031 32.6978 31.0287C32.7343 31.0215 32.7708 31.0179 32.8061 31.0179C32.8097 31.0179 32.8146 31.0179 32.8182 31.0179C32.8584 31.0179 32.8973 31.0215 32.9351 31.0299C33.2028 31.0882 33.451 31.3814 33.6092 31.8246C33.7662 32.2679 33.8319 32.8625 33.7334 33.525V33.5274V33.5298C33.7163 33.6418 33.6956 33.755 33.6701 33.8682C33.4997 34.6177 33.1456 35.2945 32.699 35.727C32.3728 36.0428 32.037 36.1917 31.7766 36.1345L31.7778 36.1321ZM42.6959 30.1993C42.3199 31.4171 41.5715 32.8637 40.1441 32.8386L35.9104 32.6742C35.9104 32.6623 35.9092 32.6516 35.908 32.6408C35.9043 32.5419 35.8982 32.4442 35.8885 32.3477C35.8885 32.3382 35.8873 32.3287 35.8861 32.3191C35.8763 32.219 35.863 32.1201 35.8484 32.0224C35.8447 32.0022 35.8423 31.9819 35.8386 31.9628C35.8228 31.8675 35.8045 31.7734 35.7839 31.6816C35.7802 31.665 35.7753 31.6483 35.7717 31.6316C35.751 31.5422 35.7279 31.4541 35.7023 31.3683C35.6999 31.3611 35.6987 31.3528 35.6962 31.3456C35.6695 31.2563 35.639 31.1681 35.6074 31.0823C35.6013 31.0644 35.594 31.0465 35.5879 31.0287C35.5563 30.9453 35.5222 30.8642 35.4857 30.7844C35.4784 30.7689 35.4711 30.7546 35.465 30.7403C35.4285 30.6629 35.3896 30.5866 35.3482 30.5127C35.3458 30.508 35.3421 30.502 35.3397 30.496C35.2971 30.4198 35.2508 30.3471 35.2034 30.2744C35.1937 30.2601 35.1839 30.2446 35.1742 30.2303C35.1267 30.1612 35.078 30.0945 35.0269 30.0301C35.0172 30.0182 35.0075 30.0063 34.9977 29.9944C34.9454 29.9312 34.8919 29.8693 34.8359 29.8109C34.8334 29.8085 34.831 29.8049 34.8274 29.8025C34.7702 29.743 34.7093 29.6858 34.6473 29.631C34.6351 29.6202 34.6229 29.6095 34.6108 29.5988C34.5499 29.5464 34.4878 29.4975 34.4233 29.451C34.4112 29.4427 34.399 29.4344 34.3868 29.4248C34.3199 29.3784 34.2518 29.3343 34.1812 29.2937C34.18 29.2937 34.1787 29.2914 34.1763 29.2914C34.1045 29.2509 34.0315 29.2139 33.956 29.1794C33.9414 29.1734 33.9281 29.1663 33.9135 29.1603C33.8404 29.1281 33.765 29.0995 33.6883 29.0733C33.6737 29.0685 33.6591 29.0638 33.6445 29.059C33.5642 29.034 33.4827 29.0102 33.3987 28.9923C33.3987 28.9923 33.3975 28.9923 33.3963 28.9923C33.3391 28.9804 33.2819 28.9696 33.2247 28.9613C33.2089 28.9589 33.1918 28.9577 33.176 28.9553C33.1346 28.9494 33.092 28.9446 33.0507 28.941C33.0312 28.9399 33.0117 28.9387 32.991 28.9375C32.9533 28.9351 32.9144 28.9327 32.8766 28.9315C32.856 28.9315 32.8341 28.9315 32.8134 28.9315C32.7769 28.9315 32.7404 28.9315 32.7026 28.9339C32.6807 28.9339 32.6588 28.9363 32.6369 28.9387C32.6016 28.941 32.5651 28.9434 32.5298 28.947C32.5067 28.9494 32.4848 28.953 32.4629 28.9553C32.4276 28.9601 32.3935 28.9649 32.3582 28.9708C32.3351 28.9744 32.3132 28.9792 32.2901 28.9839C32.256 28.9911 32.2219 28.9971 32.1879 29.0054C32.1648 29.0102 32.1428 29.0161 32.1197 29.0221C32.0857 29.0304 32.0516 29.0399 32.0187 29.0495C31.9956 29.0566 31.9737 29.0626 31.9506 29.0697C31.9177 29.0805 31.8836 29.0912 31.8508 29.1031C31.8277 29.1114 31.8058 29.1198 31.7839 29.1281C31.751 29.1412 31.7181 29.1543 31.6853 29.1674C31.6634 29.177 31.6403 29.1865 31.6184 29.196C31.5855 29.2103 31.5539 29.2258 31.521 29.2413C31.4991 29.252 31.4772 29.2628 31.4553 29.2735C31.4224 29.2902 31.3908 29.308 31.3579 29.3259C31.3372 29.3378 31.3153 29.3486 31.2947 29.3605C31.2618 29.3795 31.2302 29.3986 31.1985 29.4189C31.1778 29.432 31.1584 29.4439 31.1377 29.457C31.1048 29.4784 31.072 29.5011 31.0391 29.5237C31.0209 29.5368 31.0014 29.5487 30.9831 29.5619C30.9478 29.5869 30.9138 29.6131 30.8797 29.6393C30.8639 29.6512 30.8481 29.6631 30.8322 29.6762C30.7909 29.7084 30.7507 29.743 30.7105 29.7775C30.702 29.7847 30.6935 29.7918 30.685 29.799C30.6363 29.8419 30.5876 29.8848 30.5402 29.93C30.5304 29.9384 30.5219 29.9479 30.5134 29.9575C30.4757 29.9944 30.438 30.0313 30.4014 30.0695C30.3856 30.0861 30.3698 30.104 30.354 30.1207C30.3248 30.1517 30.2956 30.1827 30.2664 30.216C30.2481 30.2363 30.2311 30.2577 30.2128 30.278C30.1873 30.3078 30.1605 30.3388 30.1349 30.3697C30.1167 30.3924 30.0984 30.4162 30.0802 30.4388C30.0558 30.4698 30.0315 30.4996 30.0084 30.5306C29.9901 30.5556 29.9719 30.5806 29.9536 30.6045C29.9305 30.6354 29.9086 30.6664 29.8867 30.6986C29.8684 30.7248 29.8514 30.751 29.8331 30.7772C29.8112 30.8094 29.7906 30.8416 29.7699 30.8738C29.7528 30.9012 29.7358 30.9286 29.7188 30.956C29.6981 30.9893 29.6786 31.0227 29.6591 31.0561C29.6421 31.0847 29.6263 31.1133 29.6104 31.1419C29.591 31.1764 29.5727 31.211 29.5533 31.2455C29.5374 31.2753 29.5216 31.3051 29.507 31.3349C29.4888 31.3706 29.4705 31.4064 29.4535 31.4421C29.4389 31.4719 29.4243 31.5029 29.4097 31.5339C29.3926 31.5708 29.3756 31.6078 29.3598 31.6447C29.3598 31.6471 29.3585 31.6483 29.3573 31.6507V27.908C31.9554 27.9723 38.6923 28.1451 43.2423 28.263C43.0926 28.8505 42.9125 29.4927 42.6947 30.1981L42.6959 30.1993Z" fill="#292966"/>
<path d="M7.14081 19.2915L15.6118 20.501C15.6641 20.5081 15.7152 20.5117 15.7663 20.5117C16.2713 20.5117 16.7179 20.159 16.8116 19.6585L17.7146 14.884C17.7706 14.5908 17.6951 14.2882 17.5077 14.0534C17.3203 13.8187 17.0392 13.6733 16.7362 13.6531L8.26524 13.1192C7.73953 13.0871 7.26737 13.435 7.15541 13.9402L6.25246 18.0392C6.1904 18.3216 6.25003 18.6159 6.41918 18.8542C6.58711 19.0914 6.84875 19.2498 7.14081 19.2915ZM14.9047 18.293L12.5719 17.9606L12.937 15.5059L15.4024 15.6608L14.9047 18.293ZM9.04528 15.2593L10.8049 15.3701L10.4642 17.6591L8.57555 17.3898L9.04528 15.2605V15.2593Z" fill="#292966"/>
</svg>
