<svg width="48" height="47" viewBox="0 0 48 47" fill="none" xmlns="http://www.w3.org/2000/svg">
<path d="M36.1713 27.333C35.2988 27.333 34.5869 28.0289 34.5869 28.8832C34.5869 29.7376 35.2976 30.4346 36.1713 30.4346C37.0451 30.4346 37.7545 29.7388 37.7545 28.8832C37.7545 28.0277 37.0439 27.333 36.1713 27.333Z" fill="#292966"/>
<path d="M43.9432 31.3453L43.0329 24.7798C42.955 24.2198 42.4391 23.823 41.8622 23.8838L38.4707 24.246L37.7868 18.8458C37.7186 18.3096 37.2428 17.9128 36.6916 17.9319L31.0938 18.1321L35.9614 12.8475C36.1817 12.608 36.2766 12.2815 36.2182 11.9634C36.1598 11.6452 35.9541 11.3724 35.6608 11.2234L23.0378 4.80207C22.6094 4.58402 22.0849 4.67577 21.76 5.02489L8.83151 18.9257L5.07367 19.0603C4.79013 19.0698 4.52119 19.1914 4.32892 19.3963C4.13665 19.6013 4.03565 19.873 4.04903 20.1506L5.0615 41.3211C5.07489 41.5987 5.20023 41.8585 5.41076 42.0456C5.60668 42.2195 5.86223 42.3149 6.12509 42.3149C6.14334 42.3149 6.1616 42.3149 6.18107 42.3137L39.3955 40.6205C39.6913 40.605 39.9663 40.4703 40.1561 40.2487C40.346 40.0271 40.4336 39.7375 40.3971 39.4503L39.5769 32.9694L43.0305 32.519C43.3104 32.4821 43.5647 32.3379 43.7363 32.1175C43.9079 31.897 43.9833 31.6194 43.9444 31.3453H43.9432ZM32.1111 13.9128C31.7144 13.4528 31.5002 13.0131 31.471 12.6009C31.4491 12.2744 31.5404 11.9383 31.7509 11.5844L33.457 12.4519L32.1111 13.9128ZM22.7834 7.02195L23.8422 7.56054C23.5988 7.98235 23.2872 8.34578 22.9076 8.45898C22.5401 8.5686 22.0861 8.4566 21.6383 8.25403L22.7834 7.02195ZM20.1573 9.84596C21.0311 10.3428 21.8355 10.5907 22.5875 10.5907C22.9112 10.5907 23.2252 10.5454 23.5306 10.4537C24.4202 10.1879 25.1576 9.53853 25.732 8.52094L29.8635 10.6229C29.4728 11.314 29.2988 12.0218 29.3475 12.7391C29.412 13.6768 29.8598 14.5908 30.6788 15.4689L28.1293 18.2369L25.8464 18.318C25.8951 18.0582 25.9231 17.7937 25.9231 17.5256C25.9231 15.1174 23.9225 13.1585 21.4631 13.1585C19.0037 13.1585 17.0031 15.1174 17.0031 17.5256C17.0031 17.8997 17.053 18.2703 17.1479 18.629L11.8129 18.8196L20.1586 9.84596H20.1573ZM19.3785 18.5491C19.2167 18.2346 19.1303 17.8878 19.1303 17.5256C19.1303 16.2673 20.1756 15.2437 21.4607 15.2437C22.7457 15.2437 23.791 16.2673 23.791 17.5256C23.791 17.8282 23.7302 18.1237 23.6134 18.3978L19.3773 18.5491H19.3785ZM38.1421 38.596L7.13878 40.1772L6.22731 21.1062L35.7947 20.0505L36.3545 24.4712L30.8625 25.0574C30.5632 25.0896 30.2918 25.2433 30.1154 25.4828C29.9389 25.7211 29.8732 26.0226 29.9365 26.311L31.4004 33.0659C31.5063 33.5533 31.9456 33.8917 32.4409 33.8917C32.4871 33.8917 32.5346 33.8881 32.582 33.8822L37.4643 33.2459L38.1421 38.5972V38.596ZM33.2781 31.6873L32.2632 27.0045L41.0627 26.0655L41.6894 30.5899L33.2781 31.6873Z" fill="#292966"/>
</svg>
