<svg width="47" height="47" viewBox="0 0 47 47" fill="none" xmlns="http://www.w3.org/2000/svg">
<path d="M25.6283 25.737L24.4737 17.3913C24.4737 17.3913 24.4737 17.3865 24.4737 17.3841C24.1174 14.8163 20.9026 13.0826 16.5522 13.0433C15.7408 11.2071 14.7327 9.48049 14.6862 9.40066C14.4348 8.9717 13.9153 8.77986 13.4458 8.94191C13.0419 9.08132 12.7714 9.4507 12.7464 9.86418C12.7333 9.9452 12.6951 10.1454 12.6618 10.3241C12.5259 11.0462 12.2912 12.2866 12.147 13.5592C7.6441 14.6614 4.68902 17.2793 4.98095 19.9782L4.91899 27.3575C4.91542 27.7388 5.12156 28.0915 5.45519 28.2774C7.53566 29.4356 9.85802 30.0171 12.4926 30.0171C16.0434 30.0171 20.1603 28.9602 25.0171 26.8344C25.4448 26.6473 25.6951 26.1993 25.6319 25.737H25.6283ZM14.8995 14.4851C15.1438 15.0844 15.2915 15.5372 15.3809 15.8732C15.4953 16.3058 15.512 16.5465 15.5096 16.6644C15.475 16.6894 15.4381 16.7157 15.4 16.7431C15.3225 16.7979 15.2379 16.8575 15.1521 16.9147C14.9388 17.0576 14.7196 17.1899 14.5921 17.2245C14.5635 17.1982 14.5135 17.147 14.4467 17.0553C14.4241 17.0243 14.4014 16.9909 14.3752 16.9504C14.3407 16.8956 14.3025 16.8312 14.2608 16.7562C14.2525 16.7419 14.2394 16.7133 14.2227 16.6644C14.1584 16.4726 14.0547 15.9686 14.1274 14.802C14.1333 14.7043 14.1405 14.603 14.1488 14.497C14.1846 14.0489 14.2382 13.5866 14.3002 13.1386C14.5099 13.5783 14.7172 14.037 14.8995 14.4862V14.4851ZM12.0183 15.7493C12.0183 15.7648 12.0195 15.7791 12.0195 15.7934C12.0219 15.8732 12.0243 15.9507 12.029 16.0269C12.0302 16.0555 12.0326 16.0829 12.0338 16.1115C12.0386 16.1854 12.0445 16.2581 12.0505 16.3284C12.0517 16.3463 12.0541 16.3653 12.0553 16.3832C12.0636 16.469 12.0743 16.5524 12.0862 16.6323C12.0886 16.6525 12.0922 16.6716 12.0958 16.6906C12.1053 16.7526 12.116 16.8122 12.1279 16.8706C12.1327 16.8932 12.1375 16.9158 12.1411 16.9373C12.1554 17.0016 12.1697 17.0636 12.1851 17.1244C12.1875 17.1339 12.1899 17.1434 12.1923 17.153C12.2114 17.2209 12.2316 17.2864 12.2531 17.3508C12.259 17.3686 12.265 17.3853 12.2721 17.402C12.2888 17.4497 12.3079 17.4949 12.3257 17.5402C12.3329 17.5569 12.34 17.5748 12.3472 17.5915C12.3734 17.6487 12.3996 17.7047 12.4294 17.7571C12.7106 18.2695 13.1658 18.9546 13.932 19.2132L13.8664 19.9114C13.8128 20.4846 14.2346 20.9934 14.8078 21.0458C14.8411 21.0494 14.8733 21.0506 14.9055 21.0506C15.4381 21.0506 15.8921 20.6454 15.9421 20.1045L16.0625 18.8069C16.0708 18.8021 16.078 18.7973 16.0863 18.7926C16.1054 18.7806 16.1244 18.7687 16.1435 18.7556C16.1757 18.7354 16.2079 18.7151 16.24 18.6937C16.2615 18.6794 16.2817 18.6663 16.3032 18.652C16.333 18.6317 16.3628 18.6114 16.3925 18.5912C16.414 18.5769 16.4343 18.5626 16.4557 18.5471C16.4855 18.5268 16.5141 18.5054 16.5439 18.4851C16.5641 18.4708 16.5844 18.4565 16.6046 18.441C16.6344 18.4196 16.6642 18.3981 16.694 18.3755C16.7131 18.3612 16.7321 18.3481 16.7512 18.3338C16.7774 18.3147 16.8024 18.2957 16.8287 18.2766C16.8477 18.2623 16.868 18.248 16.887 18.2337C16.9359 18.198 16.98 18.1598 17.0229 18.1205C17.0348 18.1098 17.0455 18.0991 17.0574 18.0883C17.092 18.055 17.1254 18.0204 17.1563 17.9847C17.1623 17.9775 17.1694 17.9704 17.1766 17.962C17.2123 17.9191 17.2445 17.8751 17.2755 17.8286C17.2826 17.8167 17.2898 17.8059 17.2969 17.794C17.3208 17.7559 17.3422 17.7178 17.3637 17.6784C17.3696 17.6665 17.3768 17.6546 17.3827 17.6427C17.4066 17.5938 17.4292 17.5426 17.4483 17.4914C17.4518 17.4818 17.4554 17.4711 17.459 17.4616C17.4745 17.4175 17.4888 17.3722 17.5019 17.3269C17.5055 17.3126 17.5102 17.2971 17.5138 17.2817C17.5281 17.2268 17.54 17.1708 17.5507 17.1136C17.5507 17.1125 17.5507 17.1113 17.5507 17.1089C17.5603 17.0529 17.5674 16.9957 17.5734 16.9373C17.5746 16.9206 17.577 16.9039 17.5782 16.8884C17.5817 16.8372 17.5853 16.7872 17.5865 16.7347C17.5865 16.724 17.5865 16.7145 17.5877 16.7037C17.5877 16.643 17.5877 16.581 17.5865 16.5179C17.5865 16.5024 17.5853 16.4857 17.5841 16.469C17.5817 16.4178 17.5782 16.3665 17.5734 16.3153C17.5722 16.2998 17.571 16.2843 17.5698 16.2676C17.5639 16.2033 17.5555 16.1389 17.5472 16.0734C17.546 16.0603 17.5436 16.0472 17.5412 16.0341C17.5329 15.9793 17.5245 15.9245 17.5138 15.8697C17.5102 15.8518 17.5078 15.8327 17.5043 15.8148C17.4924 15.7481 17.4781 15.6814 17.4638 15.6135C17.4638 15.6099 17.4626 15.6075 17.4614 15.6039C17.4471 15.5384 17.4316 15.4729 17.4149 15.4073C17.4101 15.3883 17.4054 15.3704 17.4006 15.3513C17.3851 15.2929 17.3696 15.2334 17.3529 15.175C17.3506 15.1666 17.3482 15.1595 17.347 15.1511C20.3497 15.3501 22.2419 16.494 22.4064 17.6606C22.4064 17.6618 22.4064 17.663 22.4064 17.6641V17.6701C22.6256 19.3037 19.7265 21.557 15.2081 22.1826C10.685 22.8081 7.27948 21.4235 7.05308 19.7887C6.87435 18.4923 8.70459 16.7014 12.0171 15.7433L12.0183 15.7493ZM7.00661 26.7379L7.03878 22.9642C7.50945 23.2633 8.05161 23.5254 8.66526 23.7411C9.94739 24.1927 11.4583 24.4227 13.0633 24.4227C13.8557 24.4227 14.6719 24.3667 15.4941 24.2523C17.9821 23.9079 20.2675 23.075 21.9285 21.9049C22.2824 21.6559 22.6018 21.3949 22.8854 21.1268L23.4537 25.2341C16.3354 28.2369 11.0722 28.7183 7.00661 26.7367V26.7379Z" fill="#292966"/>
<path d="M41.9964 16.1961C41.913 14.1133 41.7938 12.0721 41.77 11.6789C41.9475 9.4185 40.3437 7.28321 37.702 6.20962C37.2587 4.65463 36.6391 3.22952 36.6105 3.16279C36.4616 2.822 36.1422 2.58607 35.7717 2.54437C35.4011 2.50386 35.0377 2.66114 34.816 2.96142C34.7731 3.0198 33.883 4.23162 33.2265 5.56856C30.0939 5.87598 27.7024 7.74316 27.3819 10.1918L25.4909 16.3033C25.473 16.3617 25.4599 16.4213 25.4527 16.4821C25.1346 19.0368 27.3688 21.2507 31.5845 22.5579C33.2682 23.0798 35.4059 23.4623 37.3124 23.4623C39.4024 23.4623 41.2171 23.0035 41.8558 21.7678C42.0131 21.4628 42.193 21.1161 41.9952 16.1961H41.9964ZM35.8241 7.25343C35.8479 7.34875 35.8694 7.43812 35.8884 7.5251C35.8956 7.55608 35.9004 7.58349 35.9075 7.61328C35.9194 7.6669 35.9313 7.72171 35.9409 7.77176C35.948 7.8075 35.954 7.83967 35.9599 7.87304C35.9671 7.91355 35.9754 7.95526 35.9826 7.99458C35.9885 8.03152 35.9945 8.06488 35.9993 8.09943C36.004 8.13161 36.01 8.16378 36.0147 8.19357C36.0207 8.2317 36.0243 8.26625 36.029 8.30081C36.0314 8.32464 36.035 8.34847 36.0374 8.37111C36.0422 8.40924 36.0457 8.44618 36.0481 8.48193C36.0493 8.49742 36.0517 8.51291 36.0529 8.52721C36.0565 8.56772 36.0588 8.60585 36.06 8.6416C36.06 8.64874 36.06 8.65589 36.0612 8.66304C36.0803 9.04434 36.0267 9.1921 36.0171 9.21474C36.0124 9.22189 36.0076 9.22784 36.0028 9.2338C35.9981 9.23976 35.9933 9.24572 35.9885 9.25168C35.9826 9.25763 35.9754 9.26359 35.9695 9.26955C35.9635 9.27432 35.9587 9.28027 35.9516 9.28504C35.9444 9.291 35.9361 9.29576 35.929 9.30172C35.9218 9.30649 35.9158 9.31125 35.9087 9.31602C35.9004 9.32079 35.8908 9.32555 35.8813 9.33032C35.8741 9.33389 35.867 9.33866 35.8587 9.34223C35.8491 9.347 35.8384 9.35058 35.8277 9.35415C35.8193 9.35772 35.811 9.3613 35.8026 9.36368C35.7919 9.36726 35.78 9.37083 35.7681 9.37441C35.7598 9.37679 35.7502 9.38036 35.7419 9.38156C35.73 9.38513 35.7169 9.38751 35.7037 9.3899C35.6942 9.39228 35.6859 9.39347 35.6763 9.39585C35.6632 9.39824 35.6489 9.39943 35.6346 9.40181C35.6251 9.403 35.6156 9.4042 35.606 9.40539C35.5917 9.40658 35.5763 9.40777 35.562 9.40896C35.5524 9.40896 35.5429 9.41015 35.5334 9.41135C35.5179 9.41135 35.5012 9.41135 35.4845 9.41135C35.475 9.41135 35.4666 9.41135 35.4571 9.41135C35.4392 9.41135 35.4213 9.41135 35.4035 9.40896C35.3951 9.40896 35.3868 9.40896 35.3785 9.40896C35.3594 9.40777 35.3403 9.40539 35.3213 9.4042C35.3129 9.4042 35.3058 9.403 35.2974 9.40181C35.2784 9.39943 35.2593 9.39705 35.2402 9.39347C35.2319 9.39228 35.2235 9.39109 35.214 9.3899C35.1938 9.38632 35.1735 9.38275 35.1532 9.37798C35.1461 9.37679 35.1378 9.3756 35.1306 9.37322C35.1068 9.36845 35.0829 9.3613 35.0591 9.35534C35.0555 9.35534 35.0508 9.35296 35.0472 9.35177C35.0198 9.34343 34.9912 9.33508 34.9638 9.32674C34.8673 9.29457 34.7469 9.24214 34.6349 9.17184C34.598 9.14801 34.561 9.12299 34.5277 9.09677C34.4931 9.06937 34.4621 9.04077 34.4335 9.00979C34.3478 8.91804 34.2941 8.8108 34.3037 8.69045C34.306 8.65351 34.318 8.57249 34.3561 8.42235C34.3561 8.42235 34.3561 8.42116 34.3561 8.41997C34.3561 8.41758 34.3573 8.41401 34.3585 8.41162C34.424 8.15782 34.567 7.71575 34.8768 6.97102C35.0281 6.6076 35.2188 6.23464 35.4154 5.88432C35.562 6.31924 35.7061 6.78991 35.8229 7.25343H35.8241ZM32.3543 7.84087C32.3519 7.85159 32.3495 7.86112 32.3459 7.87065C32.3412 7.88853 32.3364 7.90759 32.3316 7.92427C32.3257 7.94691 32.3209 7.96836 32.3161 7.98862C32.3126 8.0053 32.3078 8.02198 32.3042 8.03747C32.2995 8.05773 32.2947 8.0768 32.2911 8.09586C32.2875 8.11135 32.2852 8.12565 32.2816 8.13995C32.278 8.15901 32.2744 8.17689 32.2709 8.19357C32.2685 8.20668 32.2661 8.21978 32.2637 8.23289C32.2601 8.25076 32.2577 8.26745 32.2554 8.28294C32.253 8.29485 32.2518 8.30558 32.2494 8.3163C32.247 8.33298 32.2446 8.34847 32.2423 8.36396C32.2411 8.37349 32.2399 8.38303 32.2387 8.39256C32.2363 8.40924 32.2351 8.42473 32.2327 8.44022C32.2327 8.44737 32.2315 8.45452 32.2303 8.46048C32.228 8.48193 32.2268 8.50218 32.2244 8.52244C32.2184 8.59989 32.216 8.67615 32.2172 8.75241C32.2292 9.69494 32.7797 10.5314 33.6924 11.0331L33.4422 11.7313C33.2479 12.2735 33.5303 12.8705 34.0725 13.0647C34.1881 13.1064 34.3072 13.1254 34.424 13.1254C34.8518 13.1254 35.2533 12.8597 35.4059 12.4331L35.7455 11.4847C35.7776 11.4823 35.8098 11.4799 35.842 11.4763C35.8515 11.4763 35.861 11.4739 35.8706 11.4727C35.9337 11.4656 35.9969 11.4549 36.0576 11.4442C36.0779 11.4406 36.0993 11.4358 36.1196 11.4322C36.1768 11.4203 36.2328 11.4072 36.2888 11.3917C36.3031 11.3881 36.3162 11.3846 36.3305 11.381C36.3972 11.3619 36.4628 11.3405 36.5271 11.3167C36.545 11.3107 36.5617 11.3035 36.5784 11.2964C36.6284 11.2773 36.6761 11.2571 36.7249 11.2344C36.7428 11.2261 36.7619 11.2178 36.7797 11.2094C36.8405 11.1796 36.9013 11.1486 36.9585 11.1141C36.9644 11.1105 36.9704 11.1057 36.9763 11.1022C37.0288 11.0712 37.08 11.0378 37.1289 11.0021C37.1455 10.9902 37.1622 10.9783 37.1789 10.9663C37.2218 10.9342 37.2635 10.902 37.304 10.8674C37.3159 10.8567 37.329 10.8472 37.341 10.8365C37.391 10.7924 37.4399 10.7459 37.4851 10.6982C37.497 10.6863 37.5078 10.6732 37.5197 10.6613C37.5554 10.622 37.59 10.5827 37.6234 10.5409C37.6353 10.5255 37.6484 10.51 37.6603 10.4945C37.702 10.4397 37.7425 10.3837 37.7795 10.3253C37.8092 10.2776 37.8378 10.2288 37.8641 10.1787C37.8724 10.162 37.8795 10.1453 37.8879 10.1287C37.9046 10.0929 37.9224 10.0584 37.9379 10.0214C37.9463 9.99998 37.9546 9.97853 37.963 9.95708C37.9761 9.92372 37.9892 9.88916 38.0011 9.85461C38.0094 9.83077 38.0154 9.80456 38.0237 9.78073C38.0333 9.74617 38.044 9.71281 38.0535 9.67706C38.0607 9.65085 38.0654 9.62225 38.0714 9.59485C38.0785 9.5591 38.0869 9.52454 38.094 9.4888C38.0988 9.4602 38.1036 9.42922 38.1083 9.39943C38.1143 9.36249 38.119 9.32674 38.1238 9.28981C38.1274 9.25883 38.1298 9.22546 38.1333 9.19329C38.1369 9.15516 38.1405 9.11822 38.1429 9.0789C38.1453 9.04554 38.1465 9.01098 38.1476 8.97643C38.1488 8.9371 38.15 8.89778 38.1512 8.85727C38.1512 8.84416 38.1512 8.83225 38.1512 8.81914C39.195 9.57101 39.7896 10.5803 39.6883 11.5693C39.6025 12.4117 39.0318 13.1767 38.0821 13.7236C37.0204 14.3337 35.6489 14.5911 34.2191 14.4445C32.7892 14.2991 31.4975 13.7713 30.5812 12.9586C29.7602 12.2306 29.3563 11.3667 29.4421 10.5243C29.5672 9.30053 30.7337 8.27936 32.3543 7.83967V7.84087ZM39.9624 20.8587C39.7884 21.016 39.1128 21.3591 37.4315 21.3758C35.7609 21.3913 33.7949 21.0779 32.0361 20.5131C29.7578 19.7803 27.3962 18.4315 27.5153 16.8205L28.465 13.7522C28.6807 14.0191 28.9238 14.2753 29.1978 14.5184C30.4382 15.6182 32.1469 16.3284 34.0082 16.5178C34.3382 16.5512 34.6671 16.5679 34.9924 16.5679C36.5021 16.5679 37.9415 16.2092 39.1235 15.5288C39.3881 15.3763 39.6335 15.2107 39.8623 15.0331C39.9874 17.7642 40.047 20.1843 39.9648 20.8587H39.9624Z" fill="#292966"/>
<path d="M35.4012 31.2128C34.9984 29.4529 33.8867 27.0864 33.7461 26.7897C33.5876 26.4573 33.2671 26.2333 32.9013 26.1999C32.5355 26.1654 32.178 26.3274 31.9623 26.6241C31.9004 26.7099 30.6373 28.4496 29.9093 30.0081C26.9351 29.7746 23.6691 30.2369 23.1472 32.2662L20.652 38.5862C20.4614 39.0688 20.6556 39.6193 21.106 39.8755C25.1621 42.1811 29.6721 44.4868 33.9522 44.4868C35.425 44.4868 36.8716 44.214 38.2621 43.5741C38.5838 43.4263 38.8091 43.1237 38.8591 42.7722L39.8719 35.5906C39.8719 35.5906 39.8719 35.5823 39.8719 35.5787C40.1329 33.9653 38.479 32.3591 35.4012 31.2128ZM32.6129 29.4112C32.993 30.3608 33.3684 31.4344 33.4506 32.1196C33.4518 32.1339 33.4542 32.147 33.4554 32.1601C33.2111 32.2197 32.8143 32.2578 32.3484 32.1875C32.2209 32.1684 32.1065 32.1434 32.0064 32.116C31.7061 32.0326 31.5274 31.923 31.4631 31.8574C31.4702 31.7955 31.4929 31.6692 31.5643 31.4607C31.7669 30.8708 32.1887 30.1035 32.6141 29.4112H32.6129ZM28.4973 32.0326C28.7749 32.0326 29.0692 32.041 29.3802 32.06C29.3802 32.0672 29.3826 32.0743 29.3826 32.0815C29.3862 32.1267 29.3933 32.1708 29.3993 32.2149C29.4029 32.2364 29.4052 32.259 29.4088 32.2793C29.4207 32.3436 29.4362 32.4056 29.4553 32.4663C29.6662 33.1384 30.2167 33.6627 31.0138 33.9796L30.9042 34.666C30.8137 35.2343 31.1997 35.7694 31.7693 35.8599C31.8253 35.8694 31.8801 35.873 31.9349 35.873C32.4378 35.873 32.881 35.5084 32.9632 34.9948L33.0741 34.3025C33.0741 34.3025 33.086 34.3025 33.0919 34.3025C33.105 34.3025 33.117 34.3025 33.1301 34.3013C33.2135 34.2966 33.2957 34.2894 33.3791 34.2811C33.3994 34.2787 33.4184 34.2763 33.4387 34.2739C33.509 34.2656 33.5781 34.2561 33.6472 34.2442C33.6639 34.2418 33.6806 34.2394 33.6972 34.2358C33.7795 34.2215 33.8617 34.2036 33.9427 34.1846C33.9582 34.181 33.9725 34.1762 33.988 34.1727C34.0559 34.1548 34.1238 34.1357 34.1906 34.1143C34.2084 34.1083 34.2263 34.1035 34.2442 34.0964C34.3228 34.069 34.3991 34.0404 34.473 34.007C34.4813 34.0035 34.4896 33.9987 34.4992 33.9951C34.5647 33.9653 34.6279 33.9332 34.6898 33.8986C34.7077 33.8891 34.7244 33.8783 34.7422 33.8688C34.8102 33.8283 34.8769 33.7854 34.94 33.7389C34.971 33.7151 35.0008 33.6913 35.0294 33.6662C35.0378 33.6591 35.0449 33.6508 35.0532 33.6436C35.0735 33.6245 35.0938 33.6055 35.1128 33.5864C35.1235 33.5757 35.1319 33.5638 35.1426 33.553C35.1581 33.5352 35.1736 33.5185 35.1891 33.5006C35.1998 33.4875 35.2093 33.4744 35.2189 33.4613C35.232 33.4434 35.2451 33.4267 35.257 33.4089C35.2582 33.4065 35.2606 33.4041 35.2618 33.4017C37.1599 34.2084 37.8141 35.0199 37.8165 35.251C37.6806 35.8122 34.8507 37.4924 30.9626 36.7381C27.0698 35.9826 25.0739 33.3588 25.1621 32.7976C25.2693 32.5247 26.387 32.0338 28.4973 32.0338V32.0326ZM30.3585 41.8535C27.8777 41.1409 25.2538 39.8064 22.9255 38.5076L24.1957 35.288C24.4662 35.6037 24.7832 35.9183 25.1454 36.2269C26.6194 37.4828 28.5437 38.3896 30.5646 38.7828C31.3427 38.9341 32.1351 39.008 32.9215 39.008C34.1774 39.008 35.4167 38.8174 36.5463 38.4396C36.8537 38.3372 37.1421 38.2228 37.4125 38.1L36.8775 41.8928C35.0211 42.5899 32.881 42.5756 30.3585 41.8523V41.8535Z" fill="#292966"/>
</svg>
