<svg width="36" height="36" viewBox="0 0 36 36" fill="none" xmlns="http://www.w3.org/2000/svg">
<path d="M10.9076 7.38856C9.45536 7.45519 8.22656 8.59148 8.22656 10.1266V12.3883C8.22656 13.8203 9.45983 15.1929 10.9076 15.1263C12.3598 15.0597 13.5886 13.9234 13.5886 12.3883V10.1266C13.5886 8.69462 12.3553 7.32193 10.9076 7.38856Z" fill="#FF7534"/>
<path d="M28.6522 3.65904C28.3269 3.09135 27.6889 2.54922 27.0499 2.40045C26.3635 2.24073 25.5932 2.27541 24.9837 2.67608C24.8032 2.81846 24.6218 2.96175 24.4413 3.10413C24.1088 3.44548 23.8791 3.84888 23.7513 4.31253C23.5771 4.74149 23.536 5.22156 23.4975 5.67882C23.4591 6.13425 23.5467 6.62528 23.6423 7.06336C23.7853 7.71502 24.3197 8.36851 24.8747 8.69981C25.4493 9.04298 26.2965 9.18901 26.9409 8.97544C27.5897 8.76096 28.2152 8.35025 28.5432 7.71685C28.8408 7.14186 28.9472 6.5477 28.8676 5.91977C28.8846 5.86866 28.9025 5.81846 28.923 5.76735C29.1706 5.15768 28.9632 4.19844 28.6531 3.65722L28.6522 3.65904Z" fill="#FF7534"/>
<path d="M27.4688 21.9947C27.4107 21.2582 27.2087 20.5956 26.6833 20.0589C26.2186 19.5843 25.4554 19.2265 24.7878 19.2567C23.4321 19.3187 21.9852 20.466 22.1068 21.9947C22.1577 22.6418 22.1684 23.288 22.1363 23.936C22.0666 25.3689 23.4187 26.7379 24.8173 26.6741C26.3294 26.6047 27.4241 25.4711 27.4983 23.936C27.5296 23.288 27.5197 22.6409 27.4688 21.9947Z" fill="#FF7534"/>
<path d="M19.2196 20.1576L18.3536 13.7651C18.3536 13.7651 18.3536 13.7615 18.3536 13.7597C18.0864 11.7928 15.6753 10.4649 12.4125 10.4347C11.8039 9.0283 11.0478 7.70581 11.013 7.64466C10.8244 7.3161 10.4348 7.16915 10.0827 7.29328C9.7797 7.40006 9.57683 7.683 9.55807 7.9997C9.54824 8.06176 9.51964 8.21509 9.49461 8.352C9.39274 8.90508 9.21668 9.85519 9.10855 10.8299C5.73136 11.6742 3.51506 13.6793 3.73401 15.7466L3.68753 21.3988C3.68485 21.6909 3.83946 21.9611 4.08969 22.1034C5.65004 22.9906 7.3918 23.436 9.36771 23.436C12.0309 23.436 15.1185 22.6264 18.7611 20.9982C19.0819 20.8549 19.2696 20.5117 19.2222 20.1576H19.2196ZM11.1729 11.5391C11.3561 11.9982 11.4669 12.345 11.534 12.6024C11.6198 12.9337 11.6323 13.118 11.6305 13.2084C11.6046 13.2276 11.5769 13.2476 11.5483 13.2686C11.4902 13.3106 11.4267 13.3563 11.3624 13.4001C11.2024 13.5096 11.038 13.6109 10.9424 13.6374C10.9209 13.6173 10.8834 13.578 10.8333 13.5078C10.8164 13.484 10.7994 13.4585 10.7797 13.4274C10.7538 13.3855 10.7252 13.3362 10.6939 13.2787C10.6877 13.2677 10.6778 13.2458 10.6653 13.2084C10.6171 13.0615 10.5393 12.6754 10.5938 11.7819C10.5983 11.707 10.6037 11.6295 10.6099 11.5482C10.6367 11.2051 10.6769 10.8509 10.7234 10.5078C10.8807 10.8445 11.0362 11.1959 11.1729 11.54V11.5391ZM9.01203 12.5075C9.01203 12.5193 9.01293 12.5303 9.01293 12.5412C9.01471 12.6024 9.0165 12.6617 9.02007 12.7201C9.02097 12.742 9.02276 12.763 9.02365 12.7849C9.02722 12.8415 9.03169 12.8972 9.03616 12.951C9.03705 12.9647 9.03884 12.9793 9.03974 12.993C9.04599 13.0587 9.05403 13.1226 9.06297 13.1838C9.06476 13.1993 9.06744 13.2139 9.07012 13.2285C9.07727 13.2759 9.08531 13.3216 9.09425 13.3663C9.09782 13.3836 9.1014 13.401 9.10408 13.4174C9.1148 13.4667 9.12553 13.5141 9.13715 13.5607C9.13893 13.568 9.14072 13.5753 9.14251 13.5826C9.15681 13.6346 9.172 13.6848 9.18809 13.7341C9.19255 13.7478 9.19702 13.7606 9.20238 13.7734C9.2149 13.8099 9.22919 13.8445 9.2426 13.8792C9.24796 13.892 9.25332 13.9057 9.25869 13.9185C9.27835 13.9623 9.29801 14.0052 9.32035 14.0453C9.53126 14.4378 9.87264 14.9626 10.4473 15.1606L10.3981 15.6955C10.3579 16.1345 10.6743 16.5242 11.1041 16.5643C11.1291 16.5671 11.1533 16.568 11.1774 16.568C11.5769 16.568 11.9174 16.2577 11.9549 15.8433L12.0452 14.8494C12.0514 14.8458 12.0568 14.8421 12.063 14.8385C12.0773 14.8293 12.0916 14.8202 12.1059 14.8102C12.1301 14.7946 12.1542 14.7791 12.1783 14.7627C12.1944 14.7518 12.2096 14.7417 12.2257 14.7308C12.248 14.7152 12.2704 14.6997 12.2927 14.6842C12.3088 14.6733 12.324 14.6623 12.3401 14.6504C12.3624 14.6349 12.3839 14.6185 12.4062 14.603C12.4214 14.592 12.4366 14.5811 12.4518 14.5692C12.4741 14.5528 12.4965 14.5364 12.5188 14.519C12.5331 14.5081 12.5474 14.498 12.5617 14.4871C12.5814 14.4725 12.6001 14.4579 12.6198 14.4433C12.6341 14.4323 12.6493 14.4214 12.6636 14.4104C12.7002 14.383 12.7333 14.3538 12.7655 14.3237C12.7744 14.3155 12.7824 14.3073 12.7914 14.2991C12.8173 14.2735 12.8423 14.247 12.8655 14.2197C12.87 14.2142 12.8754 14.2087 12.8807 14.2023C12.9075 14.1695 12.9317 14.1357 12.9549 14.1001C12.9603 14.091 12.9656 14.0828 12.971 14.0736C12.9889 14.0444 13.005 14.0152 13.021 13.9851C13.0255 13.976 13.0309 13.9668 13.0353 13.9577C13.0532 13.9203 13.0702 13.8811 13.0845 13.8418C13.0872 13.8345 13.0899 13.8263 13.0925 13.819C13.1042 13.7852 13.1149 13.7505 13.1247 13.7159C13.1274 13.7049 13.131 13.693 13.1336 13.6812C13.1444 13.6392 13.1533 13.5963 13.1614 13.5525C13.1614 13.5516 13.1614 13.5507 13.1614 13.5488C13.1685 13.5059 13.1739 13.4621 13.1783 13.4174C13.1792 13.4046 13.181 13.3919 13.1819 13.38C13.1846 13.3407 13.1873 13.3024 13.1882 13.2622C13.1882 13.254 13.1882 13.2467 13.1891 13.2385C13.1891 13.192 13.1891 13.1445 13.1882 13.0961C13.1882 13.0843 13.1873 13.0715 13.1864 13.0587C13.1846 13.0195 13.1819 12.9802 13.1783 12.941C13.1774 12.9291 13.1765 12.9173 13.1756 12.9045C13.1712 12.8552 13.1649 12.8059 13.1587 12.7557C13.1578 12.7457 13.156 12.7356 13.1542 12.7256C13.1479 12.6836 13.1417 12.6416 13.1336 12.5996C13.131 12.5859 13.1292 12.5713 13.1265 12.5577C13.1176 12.5065 13.1068 12.4554 13.0961 12.4034C13.0961 12.4007 13.0952 12.3988 13.0943 12.3961C13.0836 12.3459 13.072 12.2957 13.0595 12.2455C13.0559 12.2309 13.0523 12.2172 13.0487 12.2026C13.0371 12.1579 13.0255 12.1123 13.013 12.0675C13.0112 12.0612 13.0094 12.0557 13.0085 12.0493C15.2606 12.2017 16.6797 13.0779 16.8031 13.9714C16.8031 13.9723 16.8031 13.9732 16.8031 13.9741V13.9787C16.9675 15.23 14.7932 16.9559 11.4044 17.4351C8.01201 17.9142 5.4579 16.8537 5.2881 15.6015C5.15405 14.6085 6.52673 13.2367 9.01114 12.5029L9.01203 12.5075ZM5.25325 20.9242L5.27738 18.0338C5.63038 18.2629 6.037 18.4636 6.49724 18.6288C7.45883 18.9748 8.59201 19.1509 9.79578 19.1509C10.3901 19.1509 11.0022 19.108 11.6189 19.0204C13.4849 18.7566 15.1989 18.1187 16.4447 17.2224C16.7101 17.0316 16.9496 16.8318 17.1623 16.6264L17.5886 19.7724C12.2498 22.0724 8.30246 22.4411 5.25325 20.9233V20.9242Z" fill="#292966"/>
<path d="M31.4966 12.8501C31.434 11.2548 31.3446 9.69132 31.3268 9.39014C31.4599 7.65877 30.257 6.02324 28.2758 5.20091C27.9433 4.00985 27.4786 2.91828 27.4572 2.86717C27.3455 2.60614 27.1059 2.42543 26.828 2.39348C26.5501 2.36245 26.2775 2.48293 26.1113 2.71293C26.0791 2.75765 25.4115 3.68585 24.9191 4.70988C22.5697 4.94536 20.7761 6.37554 20.5357 8.25111L19.1174 12.9323C19.104 12.977 19.0942 13.0226 19.0888 13.0692C18.8502 15.026 20.5258 16.7217 23.6877 17.723C24.9504 18.1227 26.5537 18.4157 27.9835 18.4157C29.551 18.4157 30.9121 18.0643 31.3911 17.1179C31.5091 16.8842 31.644 16.6186 31.4957 12.8501H31.4966ZM26.8673 6.00042C26.8852 6.07344 26.9013 6.14189 26.9156 6.20851C26.921 6.23224 26.9245 6.25324 26.9299 6.27605C26.9388 6.31712 26.9478 6.35911 26.9549 6.39744C26.9603 6.42482 26.9648 6.44946 26.9692 6.47502C26.9746 6.50605 26.9808 6.53799 26.9862 6.56811C26.9907 6.59641 26.9951 6.62196 26.9987 6.64843C27.0023 6.67307 27.0068 6.69771 27.0103 6.72053C27.0148 6.74974 27.0175 6.7762 27.0211 6.80267C27.0228 6.82093 27.0255 6.83918 27.0273 6.85652C27.0309 6.88573 27.0336 6.91402 27.0353 6.9414C27.0362 6.95327 27.038 6.96513 27.0389 6.97608C27.0416 7.00711 27.0434 7.03632 27.0443 7.0637C27.0443 7.06918 27.0443 7.07465 27.0452 7.08013C27.0595 7.37219 27.0193 7.48536 27.0121 7.5027C27.0085 7.50818 27.005 7.51274 27.0014 7.51731C26.9978 7.52187 26.9942 7.52643 26.9907 7.531C26.9862 7.53556 26.9808 7.54012 26.9764 7.54469C26.9719 7.54834 26.9683 7.5529 26.963 7.55655C26.9576 7.56111 26.9513 7.56477 26.946 7.56933C26.9406 7.57298 26.9362 7.57663 26.9308 7.58028C26.9245 7.58393 26.9174 7.58758 26.9102 7.59123C26.9049 7.59397 26.8995 7.59762 26.8933 7.60036C26.8861 7.60401 26.8781 7.60675 26.87 7.60949C26.8638 7.61223 26.8575 7.61496 26.8513 7.61679C26.8432 7.61953 26.8343 7.62226 26.8253 7.625C26.8191 7.62683 26.8119 7.62957 26.8057 7.63048C26.7967 7.63322 26.7869 7.63504 26.7771 7.63687C26.7699 7.63869 26.7637 7.63961 26.7565 7.64143C26.7467 7.64326 26.736 7.64417 26.7252 7.64599C26.7181 7.64691 26.7109 7.64782 26.7038 7.64873C26.6931 7.64965 26.6815 7.65056 26.6707 7.65147C26.6636 7.65147 26.6564 7.65238 26.6493 7.6533C26.6377 7.6533 26.6252 7.6533 26.6126 7.6533C26.6055 7.6533 26.5992 7.6533 26.5921 7.6533C26.5787 7.6533 26.5653 7.6533 26.5519 7.65147C26.5456 7.65147 26.5394 7.65147 26.5331 7.65147C26.5188 7.65056 26.5045 7.64873 26.4902 7.64782C26.484 7.64782 26.4786 7.64691 26.4723 7.64599C26.458 7.64417 26.4437 7.64234 26.4294 7.63961C26.4232 7.63869 26.4169 7.63778 26.4098 7.63687C26.3946 7.63413 26.3794 7.63139 26.3642 7.62774C26.3588 7.62683 26.3526 7.62592 26.3472 7.62409C26.3293 7.62044 26.3115 7.61496 26.2936 7.6104C26.2909 7.6104 26.2873 7.60857 26.2847 7.60766C26.2641 7.60127 26.2427 7.59488 26.2221 7.5885C26.1497 7.56385 26.0595 7.52369 25.9755 7.46985C25.9478 7.45159 25.92 7.43243 25.895 7.41235C25.8691 7.39135 25.8459 7.36945 25.8244 7.34572C25.7601 7.27544 25.7199 7.1933 25.727 7.10112C25.7288 7.07283 25.7377 7.01076 25.7663 6.89577C25.7663 6.89577 25.7663 6.89485 25.7663 6.89394C25.7663 6.89212 25.7672 6.88938 25.7681 6.88755C25.8173 6.69315 25.9245 6.35454 26.1569 5.78411C26.2704 5.50574 26.4134 5.22007 26.5608 4.95174C26.6707 5.28488 26.7789 5.64539 26.8664 6.00042H26.8673ZM24.265 6.45038C24.2632 6.45859 24.2614 6.46589 24.2587 6.47319C24.2551 6.48688 24.2516 6.50149 24.248 6.51426C24.2435 6.5316 24.2399 6.54803 24.2364 6.56355C24.2337 6.57633 24.2301 6.5891 24.2274 6.60097C24.2239 6.61648 24.2203 6.63109 24.2176 6.64569C24.2149 6.65755 24.2131 6.66851 24.2105 6.67946C24.2078 6.69406 24.2051 6.70775 24.2024 6.72053C24.2006 6.73057 24.1988 6.74061 24.197 6.75065C24.1944 6.76434 24.1926 6.77712 24.1908 6.78898C24.189 6.79811 24.1881 6.80632 24.1863 6.81454C24.1845 6.82732 24.1827 6.83918 24.181 6.85104C24.1801 6.85835 24.1792 6.86565 24.1783 6.87295C24.1765 6.88573 24.1756 6.89759 24.1738 6.90946C24.1738 6.91493 24.1729 6.92041 24.172 6.92497C24.1702 6.9414 24.1693 6.95692 24.1676 6.97243C24.1631 7.03176 24.1613 7.09017 24.1622 7.14858C24.1711 7.87052 24.584 8.51122 25.2686 8.89546L25.0809 9.4303C24.9352 9.84557 25.147 10.3028 25.5536 10.4516C25.6403 10.4835 25.7297 10.4981 25.8173 10.4981C26.1381 10.4981 26.4393 10.2946 26.5537 9.96787L26.8084 9.24137C26.8325 9.23954 26.8566 9.23772 26.8807 9.23498C26.8879 9.23498 26.895 9.23316 26.9022 9.23224C26.9496 9.22677 26.9969 9.21855 27.0425 9.21034C27.0577 9.2076 27.0738 9.20395 27.089 9.20121C27.1319 9.19208 27.1739 9.18205 27.2159 9.17018C27.2266 9.16744 27.2364 9.1647 27.2471 9.16197C27.2972 9.14736 27.3463 9.13093 27.3946 9.11268C27.408 9.10812 27.4205 9.10264 27.433 9.09717C27.4706 9.08256 27.5063 9.06705 27.543 9.04971C27.5564 9.04332 27.5707 9.03693 27.5841 9.03054C27.6296 9.00772 27.6752 8.98399 27.7181 8.95752C27.7226 8.95479 27.7271 8.95114 27.7315 8.9484C27.7708 8.92467 27.8093 8.89911 27.8459 8.87173C27.8584 8.8626 27.8709 8.85348 27.8834 8.84435C27.9156 8.81971 27.9469 8.79507 27.9773 8.7686C27.9862 8.76038 27.996 8.75308 28.005 8.74487C28.0425 8.7111 28.0792 8.6755 28.1131 8.639C28.1221 8.62987 28.1301 8.61983 28.139 8.6107C28.1658 8.58058 28.1918 8.55047 28.2168 8.51852C28.2257 8.50666 28.2356 8.49479 28.2445 8.48293C28.2758 8.44094 28.3062 8.39805 28.3339 8.35333C28.3562 8.31682 28.3776 8.2794 28.3973 8.24107C28.4036 8.22829 28.4089 8.21551 28.4152 8.20273C28.4277 8.17535 28.4411 8.14888 28.4527 8.12059C28.459 8.10416 28.4652 8.08773 28.4715 8.07131C28.4813 8.04575 28.4911 8.01928 28.5001 7.99282C28.5063 7.97456 28.5108 7.95448 28.5171 7.93623C28.5242 7.90976 28.5322 7.88421 28.5394 7.85683C28.5448 7.83675 28.5483 7.81484 28.5528 7.79385C28.5582 7.76647 28.5644 7.74 28.5698 7.71262C28.5734 7.69072 28.5769 7.66699 28.5805 7.64417C28.585 7.61588 28.5886 7.5885 28.5921 7.5602C28.5948 7.53647 28.5966 7.51092 28.5993 7.48627C28.602 7.45707 28.6046 7.42877 28.6064 7.39866C28.6082 7.3731 28.6091 7.34663 28.61 7.32017C28.6109 7.29005 28.6118 7.25993 28.6127 7.2289C28.6127 7.21886 28.6127 7.20973 28.6127 7.19969C29.3955 7.7756 29.8415 8.54864 29.7655 9.30617C29.7012 9.95144 29.2731 10.5374 28.5608 10.9563C27.7646 11.4236 26.736 11.6207 25.6636 11.5085C24.5912 11.3971 23.6224 10.9928 22.9352 10.3704C22.3194 9.81271 22.0165 9.15101 22.0808 8.50575C22.1747 7.56842 23.0496 6.78624 24.265 6.44946V6.45038ZM29.9711 16.4224C29.8406 16.5429 29.3339 16.8057 28.0729 16.8185C26.82 16.8304 25.3454 16.5903 24.0264 16.1577C22.3177 15.5964 20.5464 14.5632 20.6358 13.3293L21.348 10.9791C21.5098 11.1836 21.6921 11.3798 21.8976 11.566C22.8279 12.4084 24.1095 12.9524 25.5054 13.0975C25.7529 13.123 25.9996 13.1358 26.2436 13.1358C27.3758 13.1358 28.4554 12.8611 29.3419 12.3399C29.5403 12.2231 29.7244 12.0963 29.896 11.9603C29.9898 14.0521 30.0345 15.9058 29.9728 16.4224H29.9711Z" fill="#292966"/>
<path d="M26.5502 24.3525C26.2481 23.0044 25.4143 21.1918 25.3088 20.9646C25.19 20.7099 24.9496 20.5384 24.6752 20.5128C24.4009 20.4863 24.1328 20.6105 23.971 20.8377C23.9245 20.9034 22.9773 22.236 22.4312 23.4297C20.2006 23.2509 17.7511 23.605 17.3596 25.1593L15.4883 30.0002C15.3453 30.3698 15.491 30.7915 15.8288 30.9877C18.8708 32.7537 22.2534 34.5198 25.4634 34.5198C26.568 34.5198 27.6529 34.3108 28.6959 33.8207C28.9372 33.7075 29.1061 33.4757 29.1436 33.2064L29.9032 27.7057C29.9032 27.7057 29.9032 27.6993 29.9032 27.6966C30.0989 26.4608 28.8585 25.2305 26.5502 24.3525ZM24.459 22.9725C24.744 23.6999 25.0255 24.5222 25.0872 25.047C25.0881 25.058 25.0899 25.068 25.0908 25.0781C24.9076 25.1237 24.61 25.1529 24.2606 25.099C24.1649 25.0844 24.0791 25.0653 24.0041 25.0443C23.7789 24.9804 23.6448 24.8964 23.5966 24.8462C23.6019 24.7988 23.6189 24.702 23.6725 24.5423C23.8245 24.0905 24.1408 23.5028 24.4599 22.9725H24.459ZM21.3722 24.9804C21.5804 24.9804 21.8012 24.9868 22.0344 25.0014C22.0344 25.0069 22.0362 25.0123 22.0362 25.0178C22.0389 25.0525 22.0443 25.0863 22.0487 25.12C22.0514 25.1365 22.0532 25.1538 22.0559 25.1693C22.0648 25.2186 22.0764 25.2661 22.0907 25.3126C22.2489 25.8274 22.6618 26.229 23.2597 26.4717L23.1774 26.9974C23.1095 27.4328 23.3991 27.8426 23.8262 27.9119C23.8682 27.9192 23.9094 27.922 23.9505 27.922C24.3276 27.922 24.66 27.6427 24.7217 27.2493L24.8048 26.7191C24.8048 26.7191 24.8137 26.7191 24.8182 26.7191C24.828 26.7191 24.837 26.7191 24.8468 26.7182C24.9094 26.7145 24.971 26.709 25.0336 26.7026C25.0488 26.7008 25.0631 26.699 25.0783 26.6972C25.131 26.6908 25.1828 26.6835 25.2347 26.6743C25.2472 26.6725 25.2597 26.6707 25.2722 26.668C25.3339 26.657 25.3955 26.6433 25.4563 26.6287C25.4679 26.626 25.4786 26.6223 25.4903 26.6196C25.5412 26.6059 25.5921 26.5913 25.6422 26.5749C25.6556 26.5703 25.669 26.5666 25.6824 26.5612C25.7414 26.5402 25.7986 26.5183 25.854 26.4927C25.8602 26.49 25.8665 26.4863 25.8736 26.4836C25.9228 26.4608 25.9702 26.4361 26.0166 26.4097C26.03 26.4024 26.0425 26.3941 26.056 26.3868C26.1069 26.3558 26.1569 26.323 26.2043 26.2874C26.2275 26.2691 26.2499 26.2509 26.2713 26.2317C26.2776 26.2262 26.2829 26.2198 26.2892 26.2144C26.3044 26.1997 26.3196 26.1851 26.3339 26.1705C26.3419 26.1623 26.3482 26.1532 26.3562 26.145C26.3678 26.1313 26.3795 26.1185 26.3911 26.1048C26.3991 26.0948 26.4063 26.0847 26.4134 26.0747C26.4233 26.061 26.4331 26.0482 26.442 26.0346C26.4429 26.0327 26.4447 26.0309 26.4456 26.0291C27.8692 26.647 28.3598 27.2685 28.3616 27.4456C28.2597 27.8754 26.1373 29.1623 23.2212 28.5846C20.3016 28.006 18.8047 25.9962 18.8708 25.5663C18.9513 25.3573 19.7895 24.9813 21.3722 24.9813V24.9804ZM22.7681 32.5028C20.9075 31.957 18.9396 30.9348 17.1934 29.9399L18.1461 27.4739C18.3489 27.7157 18.5866 27.9567 18.8583 28.1931C19.9638 29.155 21.4071 29.8496 22.9227 30.1508C23.5063 30.2667 24.1006 30.3233 24.6904 30.3233C25.6324 30.3233 26.5618 30.1772 27.409 29.8879C27.6395 29.8094 27.8558 29.7218 28.0587 29.6278L27.6574 32.5329C26.2651 33.0668 24.66 33.0558 22.7681 32.5018V32.5028Z" fill="#292966"/>
</svg>
