<svg width="48" height="48" viewBox="0 0 48 48" fill="none" xmlns="http://www.w3.org/2000/svg">
<path d="M40.2808 22.503C39.7977 21.5064 39.1782 20.6192 38.1731 20.0728C36.7286 19.2879 34.975 19.3025 33.6157 20.214C33.4734 18.9825 33.4052 17.7485 33.4125 16.5134C33.6376 16.5401 33.8628 16.5657 34.0855 16.5864C34.9288 16.6655 36.1043 16.13 36.6665 15.5167C37.2202 14.9131 37.561 14.2353 37.6705 13.42C37.8993 11.7163 36.8381 9.80328 35.0553 9.41387C33.9297 9.16805 32.832 9.00255 31.749 9.03541C31.3985 9.00498 31.0493 8.98065 30.7012 8.97091C29.4928 8.94049 28.3209 9.42847 27.4934 10.2998C27.3255 10.4762 27.1831 10.6588 27.0602 10.8462C24.7164 10.4276 22.3727 10.0102 20.0289 9.59154C16.5558 8.97213 12.9829 8.29552 9.44901 8.7397C8.45114 8.86504 7.62364 9.06096 6.88254 9.79476C6.64768 9.74852 6.40673 9.72905 6.16213 9.74C4.15057 9.83005 2.55276 11.3439 2.51138 13.3907C2.47487 15.2064 2.48096 17.022 2.5345 18.8364C2.56006 19.7041 2.59656 20.5718 2.64281 21.4382C2.67688 22.0625 2.66593 22.789 2.86064 23.3719C3.25127 24.5438 4.03374 25.4224 5.17886 25.9055C6.24974 26.357 7.59078 26.3399 8.75294 26.4555C9.66319 26.5468 10.5734 26.6308 11.4849 26.6953C13.3066 26.8243 15.132 26.8717 16.9562 26.7719C17.7824 26.7269 18.5077 26.4981 19.1685 25.9883C19.7392 25.5465 20.3599 24.8346 20.4767 24.0923C20.7505 22.346 21.0255 20.601 21.2993 18.8547C21.3857 18.3059 21.4721 17.7558 21.5585 17.207C23.0858 17.4869 24.6118 17.7765 26.1366 18.0588C26.1706 18.7963 26.2303 19.5337 26.3191 20.2663C26.4712 21.5173 26.5734 22.9155 26.975 24.1264C27.3425 25.2338 28.0496 26.2316 29.0937 26.806C29.7192 27.1504 30.4286 27.4096 31.1101 27.625C32.2929 27.9974 33.6048 28.2359 34.8424 28.2176C35.0724 28.214 35.2987 28.1897 35.5214 28.1495C36.2844 28.8018 37.2397 29.2922 38.1962 29.5039C40.0569 29.9165 42.2339 28.9429 42.6866 26.9545C43.0967 25.151 42.1767 23.0141 40.2808 22.5006V22.503ZM33.6096 20.2176C33.6096 20.2176 33.6096 20.2176 33.6084 20.2176C33.5829 20.0254 33.5585 19.8343 33.533 19.6457C33.5585 19.8355 33.5841 20.0266 33.6096 20.2164V20.2176ZM9.80557 19.2575C9.77028 18.1854 9.76298 17.1109 9.7715 16.0388C11.3097 16.0168 12.8454 16.0874 14.3739 16.2566C14.2047 17.3421 14.0307 18.4263 13.8567 19.5118C12.5047 19.4765 11.1539 19.3804 9.80557 19.2587V19.2575Z" fill="#FF7534"/>
<path d="M11.1024 34.3387C11.0136 32.3612 9.49856 30.688 7.4517 30.688C5.54236 30.688 3.71212 32.3673 3.80096 34.3387C3.88979 36.3162 5.40485 37.9895 7.4517 37.9895C9.36104 37.9895 11.1913 36.3101 11.1024 34.3387Z" fill="#FF7534"/>
<path d="M35.6142 35.0262C35.5253 33.0487 34.0103 31.3755 31.9634 31.3755C30.0541 31.3755 28.2238 33.0548 28.3127 35.0262C28.4015 37.0037 29.9166 38.677 31.9634 38.677C33.8728 38.677 35.703 36.9976 35.6142 35.0262Z" fill="#FF7534"/>
<path d="M45.1882 21.6745C44.413 20.6207 43.1937 20.2361 42.0059 20.0414C41.9889 20.0378 41.9719 20.0353 41.9548 20.0329C41.5508 19.9684 41.1517 19.9258 40.7756 19.8844C39.936 19.7932 38.8906 19.6812 38.6241 19.3575C38.1629 18.8002 38.3978 17.6952 38.6448 16.5257C38.8018 15.7834 38.9649 15.0168 38.9916 14.2379C39.0014 13.9666 38.9868 13.7001 38.9527 13.4384C38.9503 13.4141 38.9466 13.391 38.943 13.3666C38.8079 12.4576 38.4112 11.624 37.7845 10.9608C36.9411 10.0676 35.7741 9.56134 34.4988 9.53335L7.04154 8.9468C4.50914 8.89447 2.40509 10.9097 2.35155 13.4409L2.00595 29.6441C1.97309 31.1847 2.70445 32.6036 3.92137 33.4737C3.35672 36.0499 4.57607 38.5178 6.64848 38.979C6.87482 39.0289 7.10239 39.0533 7.32873 39.0533C9.17601 39.0533 10.9442 37.4323 11.4565 35.1312C11.5003 34.9328 11.5344 34.7332 11.5575 34.5337L28.8073 35.2176C28.873 37.1427 29.8331 38.648 31.3166 38.9778C31.5052 39.0204 31.6962 39.0411 31.8885 39.0411C32.6929 39.0411 33.5094 38.6785 34.197 37.9994C34.8444 37.3606 35.347 36.4807 35.6378 35.4877L40.071 35.6642H40.0905C40.1234 35.6654 40.1562 35.6654 40.1879 35.6654C42.3017 35.6654 43.9141 34.1747 44.7355 31.4561C45.6908 28.2897 46.7762 23.8309 45.1894 21.6745H45.1882ZM43.4723 22.9377C43.6658 23.2005 43.8666 23.7165 43.8727 24.718C43.6074 24.6912 43.3093 24.6511 43.0087 24.5915C41.8526 24.3639 41.535 24.0353 41.5143 23.9587C41.3549 23.3952 41.8003 22.6919 42.1775 22.2428C42.7397 22.3767 43.2107 22.5799 43.4723 22.9365V22.9377ZM36.2329 18.5264C34.3163 18.6225 33.0981 18.6882 32.3217 18.7344C32.4848 17.756 32.7659 16.2665 33.058 14.7977L36.8231 14.6529C36.7671 15.1153 36.6625 15.6058 36.5615 16.084C36.3947 16.8713 36.2171 17.7122 36.2329 18.5264ZM6.99651 11.0752L34.4525 11.6617C35.1535 11.6763 35.7875 11.9465 36.2365 12.4223C36.2718 12.46 36.3047 12.5002 36.3376 12.5403L32.1392 12.701C31.6488 12.7192 31.2338 13.0721 31.1365 13.5528C31.134 13.5674 30.8286 15.0691 30.5463 16.5683C30.3795 17.4555 30.253 18.1698 30.1714 18.6943C30.0132 19.7019 29.9329 20.2069 30.3844 20.645C30.5864 20.8409 30.859 20.948 31.1365 20.948C31.1924 20.948 31.2484 20.9431 31.3032 20.9346C31.6841 20.8945 34.7264 20.7338 36.9119 20.6255C36.9351 20.656 36.9582 20.6864 36.9837 20.7168C37.6579 21.5321 38.7239 21.778 39.8325 21.9203C39.4456 22.6517 39.19 23.5656 39.4675 24.5416C39.7741 25.6198 40.8389 26.3414 42.6339 26.6882C42.7008 26.7016 42.7665 26.7125 42.8334 26.7247C39.3969 26.6334 32.1003 26.4424 29.3598 26.373V17.5492C29.3598 16.9614 28.8827 16.4844 28.295 16.4844H20.4872C19.9129 16.4844 19.4419 16.9395 19.4224 17.5139L19.1365 25.986L4.22438 25.4822L4.47993 13.4871C4.50914 12.129 5.636 11.0472 6.99651 11.0764V11.0752ZM31.3786 20.9188C31.3652 20.9225 31.3421 20.9273 31.3105 20.9322C31.3336 20.9285 31.3555 20.9237 31.3786 20.9188ZM11.4103 32.3968C11.4054 32.3797 11.3993 32.3639 11.3957 32.3469C11.3859 32.3104 11.3738 32.2751 11.3628 32.2398C11.3433 32.1753 11.3214 32.112 11.2995 32.0487C11.2861 32.0122 11.274 31.9769 11.2606 31.9416C11.2362 31.8783 11.2107 31.8175 11.1839 31.7554C11.1705 31.7238 11.1571 31.6922 11.1425 31.6617C11.1085 31.5875 11.0707 31.5145 11.033 31.4427C11.0257 31.4281 11.0184 31.4123 11.0099 31.3977C10.9637 31.3125 10.9138 31.2297 10.8614 31.1494C10.8468 31.1263 10.8298 31.1032 10.8152 31.08C10.7775 31.0241 10.7385 30.9681 10.6984 30.9145C10.6777 30.8866 10.657 30.8598 10.6351 30.833C10.5974 30.7843 10.5584 30.7381 10.5183 30.6919C10.4951 30.6663 10.4732 30.6395 10.4489 30.6152C10.4063 30.5689 10.3625 30.5251 10.3175 30.4813C10.2956 30.4606 10.2749 30.4387 10.2518 30.418C10.1909 30.3621 10.1289 30.3085 10.0656 30.2562C10.0583 30.2501 10.0522 30.244 10.0449 30.2379C9.97309 30.182 9.90007 30.1284 9.82463 30.0785C9.8015 30.0627 9.77838 30.0493 9.75526 30.0347C9.70172 30.0006 9.64817 29.9678 9.59219 29.9374C9.56299 29.9215 9.53378 29.9069 9.50458 29.8911C9.45225 29.8644 9.3987 29.8388 9.34516 29.8145C9.31474 29.8011 9.28431 29.7877 9.25389 29.7743C9.1967 29.75 9.13707 29.7293 9.07866 29.7086C9.05067 29.6989 9.02389 29.6891 8.99712 29.6806C8.9095 29.6526 8.82189 29.6283 8.73183 29.6088C8.65152 29.5905 8.56998 29.5772 8.48845 29.5662C8.47142 29.5638 8.45316 29.5613 8.43612 29.5589C8.35702 29.5492 8.27793 29.5419 8.20004 29.5382C8.18544 29.5382 8.17205 29.5382 8.15745 29.5382C8.08565 29.5358 8.01507 29.5358 7.94327 29.5382C7.92867 29.5382 7.91528 29.5382 7.90068 29.5382C7.8228 29.5419 7.74492 29.5492 7.66703 29.5577C7.64878 29.5601 7.63053 29.5626 7.61227 29.565C7.53317 29.5759 7.45529 29.5881 7.37619 29.6051C7.37254 29.6051 7.36889 29.6064 7.36524 29.6076C7.28857 29.6234 7.21312 29.6441 7.13768 29.6648C7.11942 29.6696 7.10117 29.6757 7.08291 29.6806C7.00747 29.7037 6.93202 29.7281 6.85779 29.756C6.84318 29.7621 6.82736 29.7682 6.81276 29.7743C6.74583 29.7999 6.68012 29.8278 6.6144 29.8583C6.5998 29.8644 6.58641 29.8704 6.57181 29.8777C6.4988 29.9118 6.42821 29.9495 6.35642 29.9885C6.33816 29.9982 6.31991 30.0092 6.30166 30.0189C6.23107 30.0591 6.16049 30.1017 6.09113 30.1467C6.08504 30.1503 6.07896 30.1552 6.07288 30.1588C6.00716 30.2027 5.94145 30.2489 5.87695 30.2976C5.85992 30.311 5.84288 30.3231 5.82584 30.3365C5.76013 30.3876 5.69563 30.44 5.63114 30.4947C5.61653 30.5069 5.60315 30.5203 5.58854 30.5324C5.53256 30.5823 5.4778 30.6334 5.42304 30.6858C5.40966 30.6979 5.39749 30.7101 5.3841 30.7235C5.32326 30.7843 5.26484 30.8464 5.20643 30.9109C5.19061 30.9279 5.17479 30.9462 5.15897 30.9644C5.10178 31.0302 5.04458 31.0971 4.98982 31.1677C4.98374 31.175 4.97765 31.1835 4.97157 31.1908C4.91924 31.2577 4.86935 31.3259 4.82067 31.3952C4.81215 31.4062 4.80363 31.4171 4.79633 31.4281C4.36554 30.9681 4.11851 30.3499 4.13311 29.6916L4.17692 27.6131L19.0622 28.1156L18.9077 32.6961L11.409 32.3992L11.4103 32.3968ZM21.5155 18.6128H23.2143L22.8894 32.8519L21.0373 32.7789L21.5155 18.6128ZM25.3439 18.6128H27.2277V33.0235L25.0166 32.9358L25.3439 18.6128ZM9.37558 34.6687C9.06162 36.0816 8.02359 37.1038 7.10969 36.8993C6.19578 36.6961 5.68833 35.3295 6.00351 33.9167C6.0461 33.7244 6.1033 33.5358 6.17266 33.3557C6.19822 33.2888 6.22621 33.223 6.25541 33.1598C6.26515 33.1379 6.2761 33.1184 6.28584 33.0965C6.30531 33.0551 6.32599 33.0125 6.3479 32.9724C6.36007 32.948 6.37467 32.9249 6.38684 32.9006C6.40631 32.8653 6.427 32.8288 6.44769 32.7947C6.46229 32.7703 6.47811 32.7472 6.49271 32.7229C6.5134 32.6912 6.53409 32.6584 6.55599 32.628C6.57181 32.6048 6.58885 32.5817 6.60588 32.5586C6.62779 32.5294 6.64969 32.5002 6.6716 32.4722C6.68863 32.4503 6.70689 32.4284 6.72392 32.4065C6.74705 32.3797 6.76895 32.3529 6.79207 32.3274C6.81033 32.3067 6.82858 32.286 6.84683 32.2665C6.86995 32.2422 6.89429 32.2179 6.91863 32.1947C6.93688 32.1765 6.95636 32.1582 6.97461 32.14C7.00016 32.1169 7.02572 32.095 7.05249 32.0731C7.07075 32.0572 7.089 32.0414 7.10725 32.0268C7.13889 32.0025 7.17053 31.9793 7.20217 31.9574C7.21799 31.9465 7.23503 31.9343 7.25085 31.9234C7.29344 31.8954 7.33482 31.8698 7.37741 31.8455C7.39688 31.8345 7.41513 31.826 7.4346 31.8163C7.46259 31.8017 7.49058 31.7883 7.51735 31.7761C7.53804 31.7664 7.55873 31.7591 7.58063 31.7518C7.60741 31.7421 7.63296 31.7311 7.65973 31.7226C7.68164 31.7153 7.70232 31.7104 7.72423 31.7043C7.74978 31.697 7.77534 31.6909 7.80211 31.6849C7.82402 31.68 7.84592 31.6763 7.86661 31.6739C7.89216 31.6703 7.91772 31.6666 7.94449 31.6642C7.96518 31.6617 7.98708 31.6605 8.00777 31.6605C8.03698 31.6605 8.06618 31.6605 8.09417 31.6605C8.10877 31.6605 8.12338 31.6605 8.13798 31.663C8.18179 31.6666 8.2256 31.6727 8.26819 31.6824C8.34607 31.6995 8.42274 31.7262 8.49575 31.7615C9.00686 32.0086 9.38167 32.6779 9.4559 33.5163C9.48876 33.8911 9.46198 34.2769 9.37558 34.6626V34.6687ZM31.7778 36.9006C31.2423 36.7813 30.7823 35.7043 30.9807 34.3463C30.9965 34.2343 31.0184 34.1175 31.044 34.0019C31.0634 33.913 31.0866 33.8254 31.1109 33.7402C31.1194 33.7122 31.1279 33.6855 31.1365 33.6575C31.1535 33.6015 31.1705 33.5455 31.19 33.4908C31.201 33.4591 31.2131 33.4275 31.2253 33.3971C31.2435 33.3484 31.2618 33.2997 31.2801 33.2535C31.2934 33.2206 31.308 33.1902 31.3214 33.1585C31.3409 33.1147 31.3604 33.0709 31.3798 33.0283C31.3944 32.9967 31.4103 32.9675 31.4261 32.9371C31.4468 32.8969 31.4675 32.8567 31.4894 32.8178C31.5052 32.7886 31.5222 32.7606 31.5393 32.7314C31.5612 32.6937 31.5831 32.6572 31.6062 32.6219C31.6232 32.5951 31.6415 32.5683 31.6585 32.5428C31.6816 32.5087 31.7048 32.4746 31.7291 32.443C31.7474 32.4187 31.7656 32.3943 31.7839 32.3712C31.8082 32.3396 31.8325 32.3091 31.8569 32.2799C31.8751 32.258 31.8934 32.2361 31.9128 32.2154C31.9384 32.1874 31.9627 32.1607 31.9883 32.1339C32.0066 32.1144 32.026 32.0962 32.0443 32.0779C32.0698 32.0524 32.0966 32.0292 32.1222 32.0073C32.1404 31.9915 32.1587 31.9745 32.1769 31.9599C32.2037 31.938 32.2305 31.9185 32.256 31.899C32.2743 31.8856 32.2925 31.8723 32.3096 31.8601C32.3363 31.8418 32.3631 31.826 32.3911 31.8102C32.4081 31.8005 32.4252 31.7895 32.4422 31.781C32.4702 31.7664 32.4982 31.7554 32.525 31.7433C32.5408 31.7372 32.5566 31.7287 32.5724 31.7238C32.6016 31.7128 32.6308 31.7055 32.66 31.6982C32.6722 31.6946 32.6856 31.6909 32.6978 31.6885C32.7343 31.6812 32.7708 31.6776 32.8061 31.6776C32.8097 31.6776 32.8146 31.6776 32.8182 31.6776C32.8584 31.6776 32.8973 31.6812 32.9351 31.6897C33.2028 31.7494 33.451 32.0487 33.6092 32.5014C33.7662 32.9541 33.8319 33.5613 33.7334 34.2379V34.2404V34.2428C33.7163 34.3572 33.6956 34.4728 33.6701 34.5884C33.4997 35.3539 33.1456 36.0451 32.699 36.4868C32.3728 36.8093 32.037 36.9614 31.7766 36.903L31.7778 36.9006ZM42.6959 30.8415C42.3199 32.0852 41.5715 33.5626 40.1441 33.537L35.9104 33.3691C35.9104 33.3569 35.9092 33.3459 35.908 33.335C35.9043 33.234 35.8982 33.1342 35.8885 33.0356C35.8885 33.0259 35.8873 33.0162 35.8861 33.0064C35.8763 32.9042 35.863 32.8032 35.8484 32.7034C35.8447 32.6827 35.8423 32.662 35.8386 32.6426C35.8228 32.5452 35.8045 32.4491 35.7839 32.3554C35.7802 32.3383 35.7753 32.3213 35.7717 32.3043C35.751 32.213 35.7279 32.1229 35.7023 32.0353C35.6999 32.028 35.6987 32.0195 35.6962 32.0122C35.6695 31.9209 35.639 31.8309 35.6074 31.7433C35.6013 31.725 35.594 31.7068 35.5879 31.6885C35.5563 31.6033 35.5222 31.5206 35.4857 31.439C35.4784 31.4232 35.4711 31.4086 35.465 31.394C35.4285 31.3149 35.3896 31.237 35.3482 31.1616C35.3458 31.1567 35.3421 31.1506 35.3397 31.1445C35.2971 31.0667 35.2508 30.9924 35.2034 30.9182C35.1937 30.9036 35.1839 30.8878 35.1742 30.8732C35.1267 30.8026 35.078 30.7344 35.0269 30.6687C35.0172 30.6566 35.0075 30.6444 34.9977 30.6322C34.9454 30.5677 34.8919 30.5044 34.8359 30.4448C34.8334 30.4424 34.831 30.4387 34.8274 30.4363C34.7702 30.3755 34.7093 30.317 34.6473 30.2611C34.6351 30.2501 34.6229 30.2392 34.6108 30.2282C34.5499 30.1747 34.4878 30.1248 34.4233 30.0773C34.4112 30.0688 34.399 30.0603 34.3868 30.0505C34.3199 30.0031 34.2518 29.9581 34.1812 29.9167C34.18 29.9167 34.1787 29.9142 34.1763 29.9142C34.1045 29.8729 34.0315 29.8351 33.956 29.7999C33.9414 29.7938 33.9281 29.7865 33.9135 29.7804C33.8404 29.7475 33.765 29.7183 33.6883 29.6916C33.6737 29.6867 33.6591 29.6818 33.6445 29.6769C33.5642 29.6514 33.4827 29.6271 33.3987 29.6088C33.3987 29.6088 33.3975 29.6088 33.3963 29.6088C33.3391 29.5966 33.2819 29.5857 33.2247 29.5772C33.2089 29.5747 33.1918 29.5735 33.176 29.5711C33.1346 29.565 33.092 29.5601 33.0507 29.5565C33.0312 29.5553 33.0117 29.554 32.991 29.5528C32.9533 29.5504 32.9144 29.548 32.8766 29.5467C32.856 29.5467 32.8341 29.5467 32.8134 29.5467C32.7769 29.5467 32.7404 29.5467 32.7026 29.5492C32.6807 29.5492 32.6588 29.5516 32.6369 29.554C32.6016 29.5565 32.5651 29.5589 32.5298 29.5626C32.5067 29.565 32.4848 29.5686 32.4629 29.5711C32.4276 29.5759 32.3935 29.5808 32.3582 29.5869C32.3351 29.5905 32.3132 29.5954 32.2901 29.6003C32.256 29.6076 32.2219 29.6137 32.1879 29.6222C32.1648 29.6271 32.1428 29.6331 32.1197 29.6392C32.0857 29.6477 32.0516 29.6575 32.0187 29.6672C31.9956 29.6745 31.9737 29.6806 31.9506 29.6879C31.9177 29.6989 31.8836 29.7098 31.8508 29.722C31.8277 29.7305 31.8058 29.739 31.7839 29.7475C31.751 29.7609 31.7181 29.7743 31.6853 29.7877C31.6634 29.7974 31.6403 29.8072 31.6184 29.8169C31.5855 29.8315 31.5539 29.8473 31.521 29.8631C31.4991 29.8741 31.4772 29.885 31.4553 29.896C31.4224 29.913 31.3908 29.9313 31.3579 29.9495C31.3372 29.9617 31.3153 29.9727 31.2947 29.9848C31.2618 30.0043 31.2302 30.0238 31.1985 30.0445C31.1778 30.0578 31.1584 30.07 31.1377 30.0834C31.1048 30.1053 31.072 30.1284 31.0391 30.1515C31.0209 30.1649 31.0014 30.1771 30.9831 30.1905C30.9478 30.216 30.9138 30.2428 30.8797 30.2696C30.8639 30.2818 30.8481 30.2939 30.8322 30.3073C30.7909 30.3402 30.7507 30.3755 30.7105 30.4107C30.702 30.418 30.6935 30.4254 30.685 30.4327C30.6363 30.4765 30.5876 30.5203 30.5402 30.5665C30.5304 30.575 30.5219 30.5848 30.5134 30.5945C30.4757 30.6322 30.438 30.67 30.4014 30.7089C30.3856 30.7259 30.3698 30.7442 30.354 30.7612C30.3248 30.7929 30.2956 30.8245 30.2664 30.8586C30.2481 30.8793 30.2311 30.9012 30.2128 30.9219C30.1873 30.9523 30.1605 30.9839 30.1349 31.0156C30.1167 31.0387 30.0984 31.063 30.0802 31.0861C30.0558 31.1178 30.0315 31.1482 30.0084 31.1798C29.9901 31.2054 29.9719 31.2309 29.9536 31.2553C29.9305 31.2869 29.9086 31.3186 29.8867 31.3514C29.8684 31.3782 29.8514 31.405 29.8331 31.4317C29.8112 31.4646 29.7906 31.4975 29.7699 31.5303C29.7528 31.5583 29.7358 31.5863 29.7188 31.6143C29.6981 31.6484 29.6786 31.6824 29.6591 31.7165C29.6421 31.7457 29.6263 31.7749 29.6104 31.8041C29.591 31.8394 29.5727 31.8747 29.5533 31.91C29.5374 31.9404 29.5216 31.9708 29.507 32.0013C29.4888 32.0378 29.4705 32.0743 29.4535 32.1108C29.4389 32.1412 29.4243 32.1728 29.4097 32.2045C29.3926 32.2422 29.3756 32.2799 29.3598 32.3177C29.3598 32.3201 29.3585 32.3213 29.3573 32.3237V28.5014C31.9554 28.5671 38.6923 28.7436 43.2423 28.864C43.0926 29.464 42.9125 30.1199 42.6947 30.8403L42.6959 30.8415Z" fill="#292966"/>
<path d="M7.14178 19.7017L15.6127 20.9369C15.6651 20.9442 15.7162 20.9478 15.7673 20.9478C16.2723 20.9478 16.7189 20.5876 16.8126 20.0765L17.7156 15.2004C17.7715 14.901 17.6961 14.5919 17.5087 14.3522C17.3213 14.1124 17.0402 13.964 16.7372 13.9433L8.26621 13.3981C7.74051 13.3652 7.26834 13.7206 7.15639 14.2366L6.25344 18.4227C6.19137 18.7112 6.251 19.0117 6.42015 19.2551C6.58809 19.4973 6.84973 19.6591 7.14178 19.7017ZM14.9057 18.6819L12.5729 18.3424L12.938 15.8356L15.4034 15.9938L14.9057 18.6819ZM9.04626 15.5837L10.8059 15.6969L10.4652 18.0345L8.57653 17.7595L9.04626 15.5849V15.5837Z" fill="#292966"/>
</svg>
