<svg width="47" height="47" viewBox="0 0 47 47" fill="none" xmlns="http://www.w3.org/2000/svg">
<path d="M20.4665 27.9156C20.4236 27.9156 20.3795 27.9133 20.3354 27.9073C19.8648 27.8477 19.4942 27.4783 19.4322 27.0077C18.9973 23.6761 17.5924 21.7004 14.8912 20.6304C14.7935 20.5994 14.697 20.5613 14.6016 20.516C14.0976 20.2777 13.87 19.6831 14.0869 19.1696C14.3037 18.6548 14.8864 18.4022 15.4095 18.5964C15.4607 18.6155 15.512 18.6346 15.5632 18.6548C16.0494 18.7573 17.3982 18.0805 18.5576 16.6971C19.3667 15.7319 19.7337 14.8227 19.7087 14.2997C19.6336 14.1197 19.5609 13.9362 19.4906 13.748C19.3059 13.257 19.5144 12.7065 19.9768 12.4599C20.4391 12.2144 21.0122 12.3491 21.3161 12.7768C21.5234 13.0676 21.6628 13.3917 21.7367 13.7396C23.2297 17.1558 25.6248 18.9062 29.0362 19.085C29.5617 19.1124 29.9847 19.5282 30.0216 20.0537C30.0586 20.5792 29.6975 21.0499 29.1804 21.1499C25.315 21.9018 22.7817 23.9013 21.434 27.2603C21.2744 27.6595 20.8883 27.9144 20.4665 27.9144V27.9156ZM17.9678 19.9739C19.2821 20.9724 20.2365 22.2974 20.8454 23.9656C21.9393 22.3927 23.3715 21.169 25.1327 20.3027C23.4966 19.5771 22.1299 18.407 21.0384 16.7972C20.7989 17.2059 20.5046 17.6217 20.1567 18.0376C19.5287 18.7871 18.7661 19.4782 17.969 19.9751L17.9678 19.9739Z" fill="#292966" stroke="#292966" stroke-width="0.5"/>
<path d="M28.9814 34.6616C28.5751 34.6616 28.1938 34.4233 28.0246 34.0325C27.2513 32.2463 26.5208 31.5671 25.3471 31.6184C25.0385 31.7244 24.7049 31.7375 24.3629 31.5874C23.9387 31.4027 23.6873 30.9606 23.7457 30.5019C23.8029 30.0431 24.1568 29.6773 24.6131 29.6022C24.6632 29.5939 24.712 29.5867 24.7609 29.5796C25.3591 29.1054 26.4255 27.2942 26.5053 26.6102C26.4815 26.5411 26.4589 26.4708 26.4374 26.3993C26.292 25.9227 26.5053 25.4103 26.945 25.1756C27.3847 24.9408 27.9281 25.0505 28.2426 25.4365C28.413 25.6451 28.5131 25.8846 28.5584 26.1431C28.9016 26.9534 29.6999 27.8614 32.0056 27.9746C32.5144 27.9996 32.9314 28.3892 32.9898 28.8956C33.0482 29.4021 32.7324 29.8775 32.2415 30.0181C30.3291 30.5674 29.6606 31.585 30.0061 33.4224C30.105 33.9443 29.7952 34.4567 29.2876 34.6128C29.1863 34.6437 29.0839 34.6592 28.9814 34.6592V34.6616ZM27.1964 29.9013C27.5992 30.0872 27.9471 30.3327 28.2498 30.6091C28.4535 30.1742 28.7324 29.781 29.0827 29.433C28.6716 29.246 28.2784 29.0076 27.9197 28.7074C27.6647 29.1959 27.3907 29.6213 27.1964 29.9013Z" fill="#292966" stroke="#292966" stroke-width="0.5"/>
</svg>
