<svg width="47" height="48" viewBox="0 0 47 48" fill="none" xmlns="http://www.w3.org/2000/svg">
<path d="M43.8696 11.5521C42.3063 9.05382 39.3035 7.60326 36.4521 8.66562C34.2799 9.47487 32.4496 11.0435 30.7576 12.6182C29.2956 13.9799 28.017 15.4962 26.8159 17.0964C24.4269 14.3194 21.1036 12.634 17.4169 12.359C15.3126 12.202 12.914 12.6571 11.1898 13.9507C9.32142 15.3526 7.98329 17.4104 7.60795 19.7748C7.23976 22.0918 7.48164 24.3906 8.30263 26.5896C9.07834 28.6668 10.0709 30.6601 11.1433 32.5926C12.0954 34.3072 13.132 35.9732 14.2485 37.5807C15.4365 39.2929 16.6555 41.122 18.2462 42.4764C19.0636 43.1725 19.9037 43.8016 20.8796 44.2361C22.1474 44.8007 23.2734 45.0928 24.6461 45.2643C26.4859 45.4931 28.477 45.2059 30.2143 44.5585C34.1607 43.0873 37.1575 40.1253 39.2749 36.4648C41.2744 33.0076 42.628 29.0587 43.5955 25.1792C44.1425 22.9887 44.5142 20.7715 44.805 18.5312C45.1112 16.1764 45.1732 13.6428 43.8672 11.5546L43.8696 11.5521Z" fill="#FF7534"/>
<path d="M24.9359 42.4973C24.6655 42.4973 24.4021 42.4656 24.1459 42.3999C19.4548 41.2025 15.575 38.3926 11.1722 33.0041C6.91474 27.7945 2.47736 19.5779 3.98231 13.5724C4.71988 10.6287 6.74673 8.47232 10.0057 7.16414C13.3242 5.83283 16.3126 5.86934 18.8864 7.27488C21.7831 8.85565 23.5025 11.8347 24.445 14.0981C24.8847 13.0856 25.4733 11.9198 26.2312 10.7796C28.9694 6.6579 32.5631 4.89703 36.6252 5.68802C39.4206 6.23198 41.4534 8.01111 42.502 10.8319C44.6408 16.5891 42.2327 25.2572 39.6351 28.6962L39.4754 28.9068C34.2587 35.8152 28.8657 42.4961 24.9371 42.4961L24.9359 42.4973ZM14.5956 8.32751C13.4052 8.32751 12.1266 8.6001 10.7671 9.14528C8.13014 10.2028 6.57157 11.8237 6.00201 14.0993C5.40265 16.4894 5.94124 19.6606 7.55819 23.2724C9.33242 27.2359 11.7966 30.4437 12.7737 31.64C16.8714 36.6549 20.4247 39.2554 24.6523 40.3348C25.1909 40.4723 26.8663 40.3458 30.7865 36.218C33.3996 33.4665 36.0616 29.9411 37.8239 27.6083L37.9835 27.3966C39.1644 25.8341 40.2487 23.0583 40.8147 20.1535C41.4617 16.8289 41.3688 13.7878 40.5514 11.5888C39.7626 9.46533 38.31 8.18513 36.2343 7.78112C33.0219 7.15562 30.2455 8.55386 27.9828 11.9357C26.193 14.6117 25.4149 17.5578 25.4066 17.587C25.2827 18.0628 24.8609 18.3914 24.3759 18.3792C23.8945 18.3683 23.4834 18.0227 23.3809 17.542C23.3571 17.4337 21.9928 11.3795 17.895 9.15015C16.8893 8.60253 15.7871 8.32994 14.5956 8.32994V8.32751Z" fill="#292966"/>
<path d="M39.0928 16.6269C39.0868 16.6269 39.0809 16.6269 39.0749 16.6269C38.4994 16.6171 38.0406 16.1316 38.0502 15.5438C38.0907 13.093 36.9813 11.657 34.5589 11.0266C34.0012 10.8818 33.664 10.3014 33.8058 9.73184C33.9476 9.16232 34.516 8.81794 35.0736 8.96275C38.4422 9.83893 40.1926 12.1267 40.1342 15.5791C40.1247 16.1608 39.66 16.6257 39.0916 16.6257L39.0928 16.6269Z" fill="#292966"/>
</svg>
