<svg width="48" height="48" viewBox="0 0 48 48" fill="none" xmlns="http://www.w3.org/2000/svg">
<path d="M41.8901 33.0038C39.4745 30.4616 35.3601 31.9219 32.3166 30.8571C32.6087 30.0333 32.9008 29.2082 33.1928 28.3844C33.2683 28.1702 33.3498 27.9487 33.5141 27.7917C33.7477 27.569 34.0933 27.5264 34.411 27.4741C37.306 26.9946 38.9038 24.5535 37.7112 21.8081C37.0322 20.2444 35.3127 19.3171 33.7015 19.1005C32.4517 18.9326 31.2567 19.1419 30.1858 19.6846C22.4901 19.6676 14.748 20.837 7.41126 23.1626C5.64065 23.7236 4.17061 25.7363 4.86182 27.653C4.91536 27.8027 4.97378 27.9487 5.03462 28.0899C4.71336 30.5225 5.18065 32.9965 6.19921 35.249C7.46967 38.0576 9.9035 40.1458 12.7061 41.3287C15.4234 42.475 18.3452 42.8121 21.2719 42.9764C23.7946 43.1188 26.2856 43.12 28.8107 43.0226C32.3775 42.8851 36.4894 43.513 39.7934 41.8994C41.1794 41.2216 42.2296 40.012 42.8223 38.6077C43.6194 36.719 43.3297 34.5176 41.8901 33.0025V33.0038Z" fill="#FF7534"/>
<path d="M36.1713 26.7598C35.2988 26.7598 34.5869 27.4704 34.5869 28.343C34.5869 29.2155 35.2976 29.9274 36.1713 29.9274C37.0451 29.9274 37.7545 29.2167 37.7545 28.343C37.7545 27.4692 37.0439 26.7598 36.1713 26.7598Z" fill="#292966"/>
<path d="M43.9429 30.8572L43.0327 24.152C42.9548 23.58 42.4388 23.1748 41.862 23.2369L38.4705 23.6068L37.7865 18.0917C37.7184 17.5441 37.2426 17.1389 36.6913 17.1584L31.8736 17.3336L34.2478 15.03C34.4571 14.8268 34.5739 14.5457 34.5715 14.2536C34.569 13.9615 34.4449 13.6829 34.2307 13.4845L27.2614 7.0239C26.8623 6.65396 26.2478 6.64422 25.8377 7.00321L24.3433 8.30896L21.6551 6.17084C21.2389 5.83984 20.6414 5.86661 20.2569 6.23412L7.70197 18.2159L5.07465 18.312C4.79111 18.3217 4.52217 18.4459 4.3299 18.6552C4.13763 18.8645 4.03662 19.1419 4.05001 19.4255L5.06248 41.0464C5.07587 41.33 5.20121 41.5952 5.41174 41.7863C5.60766 41.964 5.86321 42.0613 6.12607 42.0613C6.14432 42.0613 6.16257 42.0613 6.18204 42.0601L39.3965 40.3309C39.6922 40.315 39.9673 40.1775 40.1571 39.9512C40.3469 39.7248 40.4346 39.4291 40.398 39.1359L39.5779 32.5171L43.0315 32.0571C43.3113 32.0193 43.5657 31.8721 43.7373 31.647C43.9088 31.4218 43.9843 31.1383 43.9454 30.8584L43.9429 30.8572ZM26.5155 9.23747L31.9587 14.284L28.695 17.4504L26.9682 17.5137C27.231 16.5012 27.214 15.2661 26.2977 14.3497C25.5334 13.5855 24.4978 13.3494 23.3831 13.6841C22.6031 13.9177 21.9606 14.368 21.615 14.6101C20.667 15.2734 20.3713 16.6947 20.6585 17.7449L16.6074 17.8922L26.5155 9.23869V9.23747ZM22.8355 17.6634C22.8307 17.5174 22.7978 17.3689 22.7297 17.2289C22.6189 17.0026 22.7065 16.4672 22.8367 16.354C24.1096 15.4632 24.5404 15.6019 24.7935 15.8551C25.2097 16.2712 24.8532 17.2253 24.6719 17.5977L22.8355 17.6646V17.6634ZM21.054 8.41483L22.7102 9.73275L13.228 18.0139L10.9073 18.099L21.054 8.41605V8.41483ZM38.1419 38.2621L7.13854 39.877L6.22707 20.4002L35.7945 19.322L36.3542 23.8368L30.8623 24.4355C30.5629 24.4684 30.2916 24.6254 30.1151 24.87C29.9387 25.1133 29.8729 25.4212 29.9362 25.7157L31.4002 32.6144C31.506 33.1121 31.9454 33.4577 32.4406 33.4577C32.4869 33.4577 32.5343 33.4541 32.5818 33.448L37.4641 32.7982L38.1419 38.2633V38.2621ZM33.2779 31.2064L32.263 26.424L41.0625 25.465L41.6892 30.0857L33.2779 31.2064Z" fill="#292966"/>
</svg>
