<svg width="47" height="48" viewBox="0 0 47 48" fill="none" xmlns="http://www.w3.org/2000/svg">
<path d="M21.4127 36.0888C21.4556 36.0437 21.4925 35.9963 21.5259 35.9464C22.4529 34.7684 23.119 33.6403 23.3859 32.7398C24.0901 30.362 23.5277 23.3355 22.609 17.6233C21.8667 13.01 20.2116 4.88585 17.4722 2.3133C17.2613 2.11494 16.9789 2.01515 16.6929 2.03462C15.611 2.11372 14.5898 2.28652 13.6318 2.55303C13.5949 2.56155 13.5579 2.57128 13.521 2.58345C12.3735 2.91202 11.3166 3.37688 10.3514 3.97438C10.3169 3.99386 10.2823 4.01333 10.2501 4.03766C10.249 4.03766 10.2478 4.0401 10.2466 4.04132C9.12174 4.75443 8.12559 5.65129 7.2629 6.73191C7.01148 7.0471 6.95786 7.48032 7.12349 7.84904C7.13898 7.88433 8.74759 11.4718 10.1084 15.5886C12.4236 22.5956 12.134 25.3106 11.7551 26.306C11.1951 27.7748 10.0845 29.268 9.01092 30.7124C6.69452 33.8253 4.06951 37.3531 6.88279 41.2315C7.51432 42.1015 8.62843 43.0447 10.4908 43.0447C10.8328 43.0447 11.201 43.013 11.5942 42.9424C14.9795 42.3425 19.0129 39.0836 21.4127 36.0912V36.0888ZM19.4514 30.1624C19.6373 29.2899 20.3522 28.4745 21.5807 27.7322C21.6641 29.8703 21.5926 31.4389 21.3901 32.1228C21.2626 32.5549 20.998 33.0708 20.6287 33.633C19.6444 32.2835 19.2476 31.1189 19.4514 30.1624ZM11.2368 40.842C10.4611 40.9796 9.3386 41.038 8.55694 39.961C7.22834 38.1283 7.6728 36.4624 9.00258 34.3644C12.3521 33.7535 14.7697 36.0912 15.6992 38.6455C14.1966 39.7505 12.6142 40.5974 11.2368 40.842ZM17.3971 37.2607C16.7239 35.7383 15.6884 34.4399 14.4099 33.5357C13.2386 32.7057 11.9302 32.2409 10.5564 32.1521C10.5945 32.1009 10.6314 32.0498 10.6708 31.9987C11.8325 30.4374 13.0324 28.8238 13.6985 27.0763C14.5672 24.797 14.0369 20.8104 12.0792 14.8889C11.0092 11.6543 9.82118 8.80675 9.29451 7.58619C9.69011 7.14567 10.1155 6.75017 10.5683 6.39483C12.9467 10.0407 14.2323 12.8956 14.5958 15.3221C14.6744 15.849 15.1189 16.2263 15.6253 16.2263C15.6777 16.2263 15.7301 16.2226 15.7838 16.2141C16.3533 16.1253 16.7442 15.5825 16.6572 15.0009C16.2497 12.2762 14.8746 9.16696 12.3497 5.28257C12.6488 5.13897 12.9574 5.00755 13.2755 4.89072L17.4067 14.3182C17.5794 14.7137 17.9607 14.9485 18.3587 14.9485C18.5005 14.9485 18.6459 14.9181 18.7841 14.8548C19.3096 14.6151 19.5455 13.9847 19.3096 13.4481L15.3202 4.34554C15.6575 4.28591 16.003 4.23724 16.3593 4.19951C17.8857 6.06139 19.4693 11.2321 20.5524 17.9665C20.9861 20.6619 21.2781 23.2053 21.4449 25.3897C19.1046 26.5591 17.7832 27.9768 17.415 29.7085C17.048 31.4329 17.6652 33.285 19.2977 35.3501C18.7341 35.989 18.0906 36.6388 17.3995 37.2594L17.3971 37.2607Z" fill="#292966"/>
<path d="M40.2418 28.7189C41.1116 21.4004 41.3201 9.75936 41.3297 9.16429C41.3344 8.88196 41.2296 8.61059 41.0377 8.40737C39.3886 6.65866 36.654 5.48677 33.8061 5.74841C33.6965 5.7192 33.5809 5.70703 33.4618 5.71677C33.3033 5.73015 33.1555 5.78005 33.0269 5.8555C31.9723 6.0502 30.9142 6.45057 29.9014 7.1004C29.5332 7.33648 29.3473 7.78065 29.4343 8.21631C29.4629 8.35747 32.2345 22.4299 29.2436 29.2312C27.9258 32.2285 25.3115 34.3337 23.0034 36.192C21.4735 37.4235 20.1532 38.4883 19.3382 39.6833C18.2979 41.2093 18.2598 42.7633 19.2238 44.3027C19.7254 45.1034 20.6966 45.9699 22.5518 45.9699C22.9069 45.9699 23.2942 45.9382 23.7172 45.8689C26.3577 45.432 29.9288 43.5312 33.2711 40.7834C38.1565 36.7676 39.3147 33.7837 39.5852 32.6873C39.8366 31.6699 40.0535 30.3021 40.2406 28.7371C40.2406 28.7311 40.2418 28.7262 40.243 28.7201L40.2418 28.7189ZM23.3835 43.7648C22.1681 43.9656 21.3603 43.7612 20.9813 43.1552C20.1544 41.8348 20.6954 40.8832 23.1083 38.84C24.7288 39.7344 26.0777 40.9185 27.1346 42.3727C25.7881 43.0809 24.4941 43.5823 23.3847 43.7648H23.3835ZM28.9577 41.3079C27.8626 39.7429 26.4899 38.4384 24.8563 37.4101C27.1167 35.5774 29.737 33.3067 31.1466 30.1025C32.5312 26.9532 33.0042 22.2279 32.5526 16.0557C32.3072 12.6982 31.852 9.86158 31.6196 8.55461C31.9544 8.38425 32.2857 8.25282 32.6098 8.14938C32.6289 8.3879 32.6491 8.62519 32.6682 8.86006C32.9232 11.9705 33.1651 14.9093 33.0638 17.1704C33.0376 17.7581 33.4832 18.2559 34.0576 18.2826C34.0742 18.2826 34.0897 18.2826 34.1052 18.2826C34.6593 18.2826 35.1204 17.8372 35.1455 17.2665C35.2527 14.868 35.006 11.8634 34.7439 8.68117C34.7213 8.40372 34.6986 8.12382 34.6748 7.84272C35.0918 7.84759 35.4743 7.89139 35.8068 7.95102C35.92 7.97171 36.0332 7.99605 36.1464 8.0216C35.5482 11.0578 35.4922 13.9212 35.9831 16.5437C36.0784 17.0535 36.5158 17.4089 37.0055 17.4089C37.0698 17.4089 37.1366 17.4028 37.2021 17.3894C37.7681 17.2787 38.1387 16.7213 38.0302 16.1433C37.6084 13.8932 37.6406 11.4253 38.122 8.79313C38.5295 9.02556 38.9048 9.29328 39.2313 9.58899C39.1848 11.7721 38.9513 21.1752 38.265 27.6103C35.7889 27.9291 33.5762 29.4831 32.8052 31.5385C32.387 32.652 32.07 34.7706 34.1505 37.1375C32.642 38.6465 30.8022 40.1238 28.9541 41.3054L28.9577 41.3079ZM35.5851 35.5738C34.8392 34.6733 34.2971 33.5245 34.7558 32.3015C35.2003 31.1162 36.4955 30.1634 37.9969 29.819C37.8658 30.728 37.7216 31.5251 37.5643 32.164C37.3165 33.1655 36.598 34.3508 35.5863 35.5738H35.5851Z" fill="#292966"/>
</svg>
