<svg width="47" height="47" viewBox="0 0 47 47" fill="none" xmlns="http://www.w3.org/2000/svg">
<path d="M24.9359 41.6118C24.6655 41.6118 24.4021 41.5808 24.1459 41.5165C19.4548 40.344 15.575 37.5927 11.1722 32.3164C6.91474 27.2154 2.47736 19.1699 3.98231 13.2896C4.71988 10.4072 6.74673 8.29572 10.0057 7.0148C13.3242 5.71123 16.3126 5.74697 18.8864 7.12323C21.7831 8.67107 23.5025 11.588 24.445 13.8043C24.8847 12.8129 25.4733 11.6714 26.2312 10.5549C28.9694 6.51911 32.5631 4.79491 36.6252 5.56943C39.4206 6.10206 41.4534 7.84412 42.502 10.6062C44.6408 16.2434 42.2327 24.7309 39.6351 28.0983L39.4754 28.3044C34.2587 35.0689 28.8657 41.6106 24.9371 41.6106L24.9359 41.6118ZM14.5956 8.15393C13.4052 8.15393 12.1266 8.42084 10.7671 8.95466C8.13014 9.99013 6.57157 11.5773 6.00201 13.8055C5.40265 16.1457 5.94124 19.251 7.55819 22.7875C9.33242 26.6684 11.7966 29.8094 12.7737 30.9807C16.8714 35.8911 20.4247 38.4375 24.6523 39.4944C25.1909 39.6291 26.8663 39.5051 30.7865 35.4634C33.3996 32.7692 36.0616 29.3173 37.8239 27.033L37.9835 26.8257C39.1644 25.2957 40.2487 22.5778 40.8147 19.7335C41.4617 16.4782 41.3688 13.5005 40.5514 11.3473C39.7626 9.26804 38.31 8.01452 36.2343 7.61892C33.0219 7.00645 30.2455 8.37556 27.9828 11.6869C26.193 14.3072 25.4149 17.1919 25.4066 17.2205C25.2827 17.6864 24.8609 18.0082 24.3759 17.9962C23.8945 17.9855 23.4834 17.6471 23.3809 17.1764C23.3571 17.0704 21.9928 11.1424 17.895 8.95943C16.8893 8.42322 15.7871 8.15631 14.5956 8.15631V8.15393Z" fill="#292966"/>
<path d="M39.0928 16.2805C39.0868 16.2805 39.0809 16.2805 39.0749 16.2805C38.4994 16.271 38.0406 15.7955 38.0502 15.22C38.0907 12.8202 36.9813 11.4141 34.5589 10.7969C34.0012 10.6551 33.664 10.0867 33.8058 9.52909C33.9476 8.97144 34.516 8.63423 35.0736 8.77603C38.4422 9.63395 40.1926 11.8741 40.1342 15.2546C40.1247 15.8241 39.66 16.2793 39.0916 16.2793L39.0928 16.2805Z" fill="#292966"/>
</svg>
