<svg width="47" height="47" viewBox="0 0 47 47" fill="none" xmlns="http://www.w3.org/2000/svg">
<path d="M44.0963 16.6982C43.043 15.7199 41.4928 15.1182 39.6935 14.9776C39.8365 14.769 39.9044 14.5093 39.8651 14.24C39.8496 14.1351 39.4695 11.6638 37.3902 10.2983C36.1593 9.48924 34.6389 9.24735 32.8611 9.57145C32.1974 8.33938 31.3383 7.55175 30.2492 7.1788C28.6311 6.62472 26.6459 7.03819 24.183 8.44424C21.5436 9.95156 16.7643 13.7193 13.1729 16.7435C11.407 18.2305 5.51712 23.2637 3.88588 25.6063C1.14528 29.5409 3.11136 31.5641 3.77863 32.0908C4.52932 32.683 5.49568 32.9737 6.43701 32.9737C6.58238 32.9737 6.72775 32.9666 6.87074 32.9523C6.81116 33.5111 6.83738 34.0366 6.95057 34.5228C7.19246 35.5582 7.81565 36.3852 8.7546 36.9131C9.49456 37.3301 10.3763 37.5243 11.2759 37.5243C12.4103 37.5243 13.5745 37.2121 14.5206 36.6426C14.5921 36.8547 14.6802 37.0656 14.7934 37.2693C15.6228 38.779 17.3779 39.5536 20.0113 39.5702C20.0232 39.5702 20.0363 39.5702 20.0482 39.5702C21.6985 39.5702 23.9041 38.8779 26.6054 37.5112C28.9337 36.334 31.5706 34.6836 34.229 32.739C38.3768 29.7065 43.6936 25.0844 45.0282 22.0423C45.9147 20.0203 45.5739 18.0721 44.0952 16.6982H44.0963ZM5.0691 30.4536C3.89303 29.5266 5.04646 27.5891 5.59696 26.7991C7.73343 23.732 20.5689 12.909 25.2172 10.2554C27.1023 9.17943 28.5691 8.80766 29.5736 9.15202C30.0514 9.31527 30.4553 9.65367 30.8092 10.1923C26.5923 12.0034 20.1519 17.4787 18.1298 19.2469C11.6048 24.9545 8.40309 28.8402 7.56304 30.5525C7.03875 30.9946 5.81025 31.0363 5.06791 30.4512L5.0691 30.4536ZM9.77696 35.0959C8.5294 34.3941 8.87852 32.7902 9.39209 31.5677C10.1237 29.8244 14.3764 25.3037 19.5037 20.8186C25.1291 15.8975 30.1277 12.4336 32.5501 11.7794C34.0908 11.3624 35.33 11.4482 36.232 12.0332C37.5189 12.8673 37.7977 14.5081 37.8037 14.5462C37.8275 14.7083 37.8895 14.8548 37.9765 14.9823C36.3047 15.1146 34.6151 15.6139 33.0291 16.4551C26.8985 19.7057 17.2898 28.447 15.7169 30.9529C15.4107 31.4414 14.7505 32.602 14.4538 33.9496C14.3585 34.0152 14.2715 34.0974 14.2 34.1963C13.3683 35.3438 11.0543 35.8144 9.77696 35.0971V35.0959ZM43.1205 21.2047C42.1887 23.3292 38.0277 27.3806 33.0005 31.0565C27.5718 35.0256 22.6149 37.4862 20.0506 37.4862C20.0423 37.4862 20.0339 37.4862 20.0256 37.4862C18.7733 37.4779 17.167 37.2598 16.6225 36.2672C16.0493 35.2234 16.6427 33.4027 17.4852 32.0598C18.7304 30.0747 28.0674 21.4454 34.0074 18.2961C36.7444 16.8448 40.7361 16.4217 42.6796 18.227C43.5041 18.9919 43.6531 19.9941 43.1217 21.2047H43.1205Z" fill="#292966"/>
<path d="M14.7205 29.755C15.035 28.0665 17.0917 26.8797 19.0804 25.7311C21.2097 24.5014 23.2211 23.3408 23.5583 21.3616C23.7203 20.4084 25.3718 19.6601 26.9697 18.938C29.2671 17.8977 31.8706 16.7193 31.8706 14.1002C31.8706 13.5247 31.4035 13.0576 30.828 13.0576C30.2525 13.0576 29.7854 13.5247 29.7854 14.1002C29.7854 15.2858 28.3305 16.0329 26.1106 17.0386C24.017 17.9871 21.852 18.9666 21.504 21.0125C21.3313 22.0241 19.6583 22.9905 18.039 23.9259C15.7524 25.2461 13.1607 26.7415 12.671 29.3737C12.5661 29.9397 12.9391 30.4842 13.5051 30.5891C13.5694 30.601 13.6338 30.607 13.6969 30.607C14.189 30.607 14.6275 30.2566 14.7205 29.755Z" fill="#292966"/>
</svg>
