<svg width="47" height="47" viewBox="0 0 47 47" fill="none" xmlns="http://www.w3.org/2000/svg">
<path d="M45.2301 44.7393C43.2748 37.4529 42.2071 31.4247 41.9676 26.3106C41.9498 25.9257 41.7198 25.5813 41.3719 25.4169C36.5568 23.1434 33.5028 22.3903 30.5489 21.6623C30.4786 21.6456 30.4083 21.6277 30.338 21.6098C31.1614 18.6953 31.4759 15.6282 31.3043 12.3288L36.347 11.2397C36.639 11.1765 36.8904 10.9906 37.037 10.7297C37.1835 10.4687 37.2097 10.1577 37.1108 9.87533C37.087 9.8086 36.5246 8.21191 35.7298 6.47223C34.1903 3.10606 33.1918 2.28627 32.5746 1.96216C31.3067 1.29608 29.7279 1.93237 27.7308 2.73787C25.8601 3.49213 23.7403 4.34648 21.7718 4.13557C21.4561 4.10102 21.1415 4.21422 20.9187 4.44061C20.6959 4.66701 20.5874 4.98277 20.6268 5.29854C21.0128 8.46809 20.2157 10.2519 19.2279 10.3758C18.0756 10.5212 16.2084 8.63015 15.6973 4.70156C15.6591 4.41321 15.503 4.15225 15.2647 3.98424C15.0264 3.81623 14.7297 3.75546 14.4449 3.81623C11.0633 4.54189 6.72717 6.59138 1.18879 10.0827C0.868258 10.284 0.682375 10.6439 0.703823 11.0216C0.725271 11.3993 0.948093 11.7366 1.28888 11.9022C3.23709 12.8495 4.94221 15.6663 6.21003 18.0149C6.36732 18.3056 6.6521 18.5046 6.97978 18.5511C7.30627 18.5976 7.63633 18.4868 7.86869 18.252L8.91607 17.1939C8.20948 21.5038 7.01434 25.057 5.28776 27.9907C5.11737 28.2802 5.09711 28.6353 5.23414 28.9427C5.37117 29.2501 5.64762 29.473 5.97768 29.5409C9.09123 30.1796 12.4955 30.0973 15.4995 30.0258C17.3357 29.9818 19.1206 29.9389 20.5946 30.0747C21.3214 33.0191 21.5371 36.5699 21.2511 40.8989C21.2321 41.186 21.3322 41.4684 21.5288 41.6781C21.7254 41.889 21.9994 42.0082 22.2866 42.0094C24.7877 42.0201 27.1803 42.635 29.399 43.8349C29.6981 43.9969 30.0556 44.0029 30.3594 43.8515C30.6633 43.7002 30.8742 43.4107 30.9254 43.0747L31.8656 36.8773C33.0726 39.7514 33.9854 42.2823 34.6348 44.551C34.7766 45.0455 35.258 45.3636 35.7679 45.2981C38.2357 44.9859 40.9918 45.2266 43.9599 46.0119C44.0481 46.0357 44.1375 46.0464 44.2268 46.0464C44.5009 46.0464 44.7678 45.9392 44.9656 45.7402C45.2278 45.4768 45.3302 45.0932 45.2337 44.7345L45.2301 44.7393ZM30.0496 23.6867C32.9118 24.3921 35.6226 25.0594 39.9182 27.0386C39.9479 27.5498 39.9873 28.0705 40.0325 28.5995C36.9154 27.1935 33.3205 25.8339 29.3144 24.5459C29.4455 24.2313 29.5682 23.9143 29.6874 23.5962C29.8077 23.626 29.9293 23.6558 30.0496 23.6855V23.6867ZM18.1459 27.9013C17.282 27.9013 16.3776 27.9227 15.4458 27.9454C13.0162 28.0038 10.3138 28.0681 7.80434 27.738C9.65722 24.1145 10.8345 19.7224 11.3933 14.3675C11.4398 13.9278 11.2027 13.506 10.8023 13.3166C10.402 13.1271 9.92652 13.2105 9.61552 13.5251L7.36228 15.801C6.31966 13.9886 5.10903 12.206 3.66962 11.0002C7.73643 8.52886 11.1395 6.89523 13.8205 6.12548C14.1875 7.9164 14.8393 9.43445 15.7306 10.5629C16.8066 11.926 18.1769 12.6123 19.4876 12.4479C20.6887 12.2966 21.6658 11.4744 22.2389 10.1303C22.6834 9.08771 22.8705 7.78533 22.799 6.24583C24.8556 6.14812 26.8527 5.34262 28.5113 4.67416C29.579 4.244 31.1923 3.59341 31.607 3.81028C32.223 4.13438 33.5326 6.32924 34.736 9.4559L29.9877 10.4806C29.4777 10.5903 29.1274 11.0609 29.1679 11.5805C29.6814 18.1603 28.1753 23.7344 24.4374 29.0297C23.6748 28.5555 22.7299 28.2719 21.6491 28.1074C21.5991 28.0955 21.5466 28.0896 21.4942 28.086C20.4814 27.9442 19.3542 27.9001 18.1471 27.9001L18.1459 27.9013ZM23.39 39.9682C23.4079 39.6001 23.421 39.239 23.4317 38.8803C25.5539 38.8672 27.4616 39.3617 29.2239 40.3781L29.0749 41.3624C27.2626 40.5676 25.3596 40.1005 23.3912 39.9671L23.39 39.9682ZM31.2281 32.1337C30.7705 32.1969 30.4107 32.5532 30.3404 33.0095L29.5539 38.1916C27.6808 37.2598 25.6373 36.7915 23.4496 36.7963C23.4198 34.4894 23.2148 32.4185 22.8323 30.5489C23.2494 30.7193 23.5866 30.9374 23.8249 31.2162C24.0239 31.4498 24.3146 31.5844 24.6197 31.5844C24.6292 31.5844 24.6387 31.5844 24.6495 31.5844C24.9652 31.5761 25.2607 31.4235 25.4514 31.1721C26.6239 29.6243 27.6141 28.0562 28.4315 26.4547C32.9535 27.8989 36.9381 29.4313 40.2887 31.0172C40.6331 33.7864 41.1717 36.782 41.914 40.0481C39.718 39.3951 37.4349 39.1687 35.0971 39.3713C34.3381 37.3468 33.4182 35.1484 32.3207 32.7367C32.1301 32.3172 31.6856 32.073 31.2281 32.1361V32.1337ZM36.3887 43.145C36.2172 42.5802 36.0289 42.0011 35.8275 41.4065C38.1391 41.2754 40.3316 41.615 42.4836 42.4372C42.5789 42.8208 42.6766 43.2081 42.7767 43.6001C40.5247 43.1426 38.3858 42.9901 36.3899 43.145H36.3887Z" fill="#292966"/>
</svg>
