<svg width="47" height="47" viewBox="0 0 47 47" fill="none" xmlns="http://www.w3.org/2000/svg">
<path d="M23.3534 40.1475C23.1545 40.1475 22.9602 40.095 22.7875 39.9914L22.6242 39.8937L22.5062 39.7447C22.082 39.2121 12.111 26.6161 10.7991 19.4929C10.033 15.332 11.0851 11.034 13.6136 7.99791C15.4129 5.83641 18.8124 3.26025 24.7857 3.26025C28.7071 3.26025 31.8695 4.72826 33.9321 7.50698C36.799 11.3688 36.7502 16.4973 36.0472 18.8221C35.4013 20.9562 32.4641 26.479 30.1453 30.5613C28.7929 32.9421 27.4751 35.1489 26.4348 36.7777C24.5164 39.7805 24.1232 39.933 23.7764 40.0664C23.6382 40.1201 23.4952 40.1463 23.3546 40.1463L23.3534 40.1475ZM24.7845 5.34668C20.6963 5.34668 17.3873 6.72532 15.2151 9.33365C13.0786 11.9003 12.1933 15.5572 12.8486 19.1164C13.8734 24.681 21.0966 34.4816 23.4202 37.5224C24.3198 36.2808 26.1095 33.4628 28.563 29.1207C31.3798 24.1364 33.5842 19.7562 34.0489 18.2191C34.6781 16.1387 34.5375 11.8264 32.2556 8.75098C30.5791 6.49177 28.0649 5.34668 24.7845 5.34668Z" fill="#292966"/>
<path d="M22.7687 21.1336C20.7621 21.1336 19.1309 19.5012 19.1309 17.4958C19.1309 15.4904 20.7633 13.8579 22.7687 13.8579C24.7741 13.8579 26.4065 15.4904 26.4065 17.4958C26.4065 19.5012 24.7741 21.1336 22.7687 21.1336ZM22.7687 15.942C21.912 15.942 21.2161 16.639 21.2161 17.4946C21.2161 18.3501 21.9132 19.0472 22.7687 19.0472C23.6242 19.0472 24.3213 18.3501 24.3213 17.4946C24.3213 16.639 23.6242 15.942 22.7687 15.942Z" fill="#292966"/>
<path d="M22.7681 43.7387C15.0765 43.7387 11.03 42.3493 10.7404 39.6087C10.6225 38.491 11.2111 37.3269 12.3979 36.3272C13.3714 35.5086 14.6356 34.8878 15.8689 34.6256C16.4325 34.5053 16.9854 34.8651 17.1057 35.4275C17.2261 35.9911 16.8662 36.544 16.3038 36.6644C14.4009 37.0695 12.7244 38.5435 12.8137 39.3895C12.8626 39.8506 13.5466 40.3523 14.6452 40.7312C16.4146 41.3425 19.1469 41.6523 22.7669 41.6523C30.4798 41.6523 32.7212 40.1783 32.8308 39.3085C32.9416 38.4267 31.4081 37.0373 29.9019 36.6548C29.3443 36.513 29.0059 35.9459 29.1477 35.3882C29.2895 34.8306 29.8567 34.4934 30.4143 34.634C32.4352 35.1475 35.1949 37.1994 34.8994 39.567C34.5538 42.335 30.4715 43.7375 22.7669 43.7375L22.7681 43.7387Z" fill="#292966"/>
</svg>
