<svg width="48" height="47" viewBox="0 0 48 47" fill="none" xmlns="http://www.w3.org/2000/svg">
<path d="M26.2364 17.2953C26.1367 15.639 25.9991 13.9577 25.6097 12.3396C25.1741 10.5284 24.3332 8.81372 23.0798 7.41125C21.5586 5.7097 18.9629 4.73143 16.708 5.45709C14.4068 6.19705 13.3907 8.59805 14.5261 10.7083C14.8741 11.3541 15.2148 12.0023 15.5264 12.666C15.7393 13.2154 15.9158 13.7742 16.0363 14.3509C16.0545 14.6262 16.0582 14.9002 16.046 15.1755C16.0107 15.3304 15.9718 15.4829 15.9243 15.6354C15.8866 15.7033 15.8476 15.7689 15.8063 15.8344C15.7685 15.8773 15.7332 15.9154 15.7138 15.9345C15.7053 15.9428 15.6651 15.9786 15.6164 16.0215C15.412 16.1383 15.2087 16.2515 14.9921 16.3492C14.6721 16.4111 14.3533 16.4731 14.032 16.5267C13.4126 16.5839 12.7932 16.6018 12.1725 16.5601C11.8841 16.5029 11.5994 16.4302 11.3183 16.3396C11.2112 16.2848 11.1053 16.2252 11.0019 16.1621C10.9532 16.1216 10.907 16.0823 10.8851 16.0608C10.8315 16.0096 10.7792 15.9559 10.7281 15.9023C10.6684 15.807 10.61 15.7117 10.5541 15.6152C10.548 15.5937 10.5431 15.5735 10.537 15.552C10.537 15.5401 10.537 15.5282 10.537 15.5163C10.8352 13.7432 9.86406 11.7497 7.94742 11.322C6.10014 10.9097 3.89752 11.8665 3.457 13.8183C2.67087 17.2941 4.50963 21.057 7.82573 22.6108C9.51846 23.4044 11.3365 23.7917 13.2203 23.7321C14.1391 23.7035 15.0384 23.5617 15.934 23.402C16.0265 23.4676 16.1202 23.5331 16.2127 23.5998C16.4111 23.8512 16.8126 24.0669 17.0585 24.2719C17.398 24.5555 17.729 24.8462 18.0563 25.1429C19.4582 26.4131 21.8507 26.6026 23.2197 25.1429C23.8951 24.422 24.2723 23.4485 24.2675 22.4881C24.4111 22.2784 24.534 22.0639 24.6338 21.8363C24.9867 21.517 25.2921 21.1345 25.5428 20.7389C26.1938 19.7129 26.3095 18.4701 26.2389 17.2953H26.2364Z" fill="#FF7534"/>
<path d="M39.3163 32.9288C38.8392 32.5129 39.0814 32.7345 39.3163 32.9288V32.9288Z" fill="#FF7534"/>
<path d="M41.7728 34.5722C41.0025 34.0991 40.2431 33.607 39.5081 33.0815C39.4582 33.0458 39.3876 32.9886 39.3158 32.929C39.3609 32.9683 39.4107 33.0124 39.4679 33.0624C39.3231 32.9361 39.1625 32.8241 39.0116 32.7026C38.6368 32.3999 38.2717 32.0854 37.9176 31.7589C37.5902 31.4562 37.2726 31.1416 36.9696 30.8163C36.8187 30.6543 36.6703 30.4887 36.5267 30.3207C36.506 30.2968 36.4865 30.273 36.467 30.2492C35.962 29.5473 35.513 28.8264 35.1442 28.0436C34.7828 27.2762 33.763 26.6161 32.9623 26.4004C32.0886 26.1645 30.9252 26.2717 30.1488 26.7603C29.3688 27.2524 28.6836 27.9852 28.4707 28.8967C28.2407 29.8845 28.4074 30.7341 28.8382 31.6516C30.7062 35.6207 34.3934 38.4757 38.0855 40.7445C39.7052 41.7394 42.1792 41.1317 43.081 39.4623C44.0302 37.7036 43.5008 35.6338 41.7716 34.571L41.7728 34.5722Z" fill="#FF7534"/>
<path d="M22.2787 36.4282C21.8358 35.7026 21.2237 35.1032 20.4813 34.6683C19.5577 34.1273 18.572 33.6698 17.6216 33.1741C15.9362 32.2959 13.5729 32.7034 12.6262 34.4562C11.7317 36.1125 12.1357 38.4086 13.9356 39.3476C14.5087 39.6467 15.0819 39.9445 15.6538 40.2436C15.7415 40.2889 15.8291 40.3342 15.9155 40.3795C16.2027 40.9145 16.642 41.3756 17.2504 41.6902C18.8908 42.5386 21.3514 42.2026 22.2459 40.4081C22.8775 39.1402 23.0466 37.6913 22.2775 36.4294L22.2787 36.4282Z" fill="#FF7534"/>
<path d="M43.7968 8.08592C43.708 6.14963 42.1929 4.51123 40.146 4.51123C38.2367 4.51123 36.4065 6.15559 36.4953 8.08592C36.5841 10.0222 38.0992 11.6606 40.146 11.6606C42.0554 11.6606 43.8856 10.0163 43.7968 8.08592Z" fill="#FF7534"/>
<path d="M42.2394 13.9009C42.2808 13.8472 42.3161 13.7889 42.3453 13.7257C42.3489 13.7186 42.3513 13.7126 42.3538 13.7054C42.3647 13.6828 42.3745 13.659 42.383 13.6351C42.3866 13.6244 42.3903 13.6137 42.3939 13.603C42.4 13.5827 42.4061 13.5625 42.4122 13.5422C42.4158 13.5291 42.4183 13.5148 42.4219 13.5017C42.4244 13.4922 42.4268 13.4826 42.4292 13.4731L44.1609 4.41364C44.2363 4.02162 44.0757 3.62125 43.7471 3.38294C43.4198 3.14582 42.9817 3.11245 42.6203 3.29715L33.9924 7.72023C33.9838 7.7238 33.9778 7.72976 33.9692 7.73333C33.9498 7.74406 33.9303 7.75478 33.9108 7.7667C33.8987 7.77385 33.8877 7.78219 33.8755 7.79053C33.8597 7.80125 33.8427 7.81317 33.8269 7.82508C33.8135 7.83581 33.8001 7.84653 33.7879 7.85726C33.7757 7.86798 33.7624 7.8787 33.7502 7.89062C33.7356 7.90373 33.7222 7.91803 33.7088 7.93232C33.6991 7.94305 33.6893 7.95258 33.6796 7.9633C33.665 7.97999 33.6516 7.99667 33.6394 8.01335C33.6346 8.0205 33.6285 8.02646 33.6236 8.03361L26.5351 17.634L25.6297 16.5378C26.3806 11.681 25.6906 8.38869 23.5245 6.48338C21.1953 4.4339 17.3097 4.18963 11.6449 5.73508C11.2117 5.85305 10.9014 6.22481 10.8685 6.6645C10.8357 7.10419 11.0888 7.51528 11.5001 7.69282C14.8673 9.14772 16.6172 10.966 16.1804 12.5544C15.7983 13.9438 13.8488 14.9876 12.0112 14.7874C9.75749 14.5431 8.38724 12.589 8.24973 9.42535C8.2327 9.03214 7.99053 8.68182 7.62424 8.51976C7.25795 8.35771 6.82959 8.41133 6.51685 8.65918C3.30662 11.2008 2.65314 17.2432 5.17094 21.0907C6.26373 22.7625 9.51411 26.218 16.4493 23.1629L20.0489 26.4206L12.6635 36.4238C12.3629 36.8313 12.4018 37.3901 12.7548 37.7536L18.3355 43.4945C18.5375 43.7018 18.8162 43.8186 19.107 43.8186C19.129 43.8186 19.1509 43.8186 19.1728 43.8162C19.4867 43.7972 19.7764 43.6435 19.9625 43.3956L24.2875 37.669L27.6121 33.2673L36.2923 41.1257C36.9835 41.7453 37.8159 42.0122 38.6458 42.0122C39.7143 42.0122 40.7767 41.5701 41.5251 40.8731C42.7201 39.7613 43.2652 37.8572 41.7976 36.1199L33.2634 25.7831L42.2382 13.9009C42.2382 13.9009 42.2382 13.9009 42.2382 13.8997L42.2394 13.9009ZM40.6367 11.5165L36.5479 8.76642L41.665 6.1426L40.6379 11.5154L40.6367 11.5165ZM17.3669 21.1551C17.0432 20.862 16.5673 20.7941 16.1719 20.9859C11.9905 23.0115 8.72068 22.6505 6.96345 19.9659C5.50316 17.7341 5.41675 14.3668 6.50103 12.0623C7.60355 16.0612 10.714 16.7439 11.7776 16.8595C14.6836 17.1753 17.581 15.4868 18.2382 13.0966C18.4864 12.1922 18.529 10.7861 17.3206 9.2204C16.7462 8.47568 15.9455 7.77504 14.9257 7.12444C18.3161 6.51913 20.7243 6.82298 22.1019 8.0348C23.7289 9.46706 24.184 12.3685 23.4539 16.6617C23.404 16.956 23.4843 17.2563 23.6766 17.4887L25.2427 19.3856L21.3048 24.7191L17.3669 21.1539V21.1551ZM19.0048 41.1602L14.9075 36.9457L16.9312 34.2039C17.5798 34.6198 18.5181 35.2203 19.4502 35.8149C20.4323 36.4405 21.2172 36.9361 21.783 37.2889C21.8171 37.3103 21.8488 37.3294 21.8816 37.3496L19.0048 41.159V41.1602ZM40.1499 37.4414C40.9056 38.3362 40.4177 39.0297 40.0587 39.3634C39.4368 39.9425 38.3964 40.1855 37.7356 39.5921L28.8874 31.5825L31.9577 27.5168L40.1512 37.4402L40.1499 37.4414ZM31.3845 24.7679C31.3078 24.8025 31.2348 24.8466 31.1655 24.9002C30.9476 25.073 30.8174 25.3136 30.7821 25.5651L26.6969 30.9748C26.6896 30.9819 26.6811 30.9891 26.6738 30.9974C26.6118 31.0629 26.5619 31.1344 26.5205 31.2095L23.1521 35.6695C22.0386 34.9784 19.9151 33.6236 18.181 32.5119L34.742 10.0807L39.8713 13.5303L31.3845 24.7679Z" fill="#292966"/>
</svg>
