<svg width="47" height="48" viewBox="0 0 47 48" fill="none" xmlns="http://www.w3.org/2000/svg">
<path d="M37.8121 13.605C37.7215 12.4185 37.115 11.3756 36.238 10.6479C35.9699 9.67069 35.3277 8.81642 34.3363 8.37955C29.0589 6.06011 22.3682 6.06497 17.9082 10.194C15.655 12.2798 14.0487 14.9436 13.7056 18.0832C13.3731 21.134 13.876 24.2104 14.4789 27.1931C15.0711 30.1246 15.7479 33.1389 16.8596 35.9196C17.3851 37.2326 18.0417 38.5542 18.8996 39.675C20.2079 41.3835 22.0108 43.0154 24.3009 42.688C25.9525 42.452 26.982 41.336 27.7279 39.9159C28.0293 39.344 28.3177 38.7635 28.6013 38.1818C32.7086 33.3859 35.5421 27.4912 36.9363 21.291C37.2902 19.72 37.5368 18.1222 37.6703 16.5158C37.7489 15.5752 37.8812 14.5359 37.8097 13.605H37.8121ZM22.7686 20.3844C21.017 20.3844 19.5967 19.2576 19.5967 17.8666C19.5967 16.4757 21.017 15.3488 22.7686 15.3488C24.5202 15.3488 25.9405 16.4757 25.9405 17.8666C25.9405 19.2576 24.5202 20.3844 22.7686 20.3844Z" fill="#FF7534"/>
<path d="M23.3534 41.0016C23.1545 41.0016 22.9602 40.9481 22.7875 40.8422L22.6242 40.7424L22.5062 40.5903C22.082 40.0464 12.111 27.1823 10.7991 19.9076C10.033 15.6582 11.0851 11.2687 13.6136 8.16805C15.4129 5.96056 18.8124 3.32959 24.7857 3.32959C28.7071 3.32959 31.8695 4.82883 33.9321 7.66668C36.799 11.6107 36.7502 16.8483 36.0472 19.2225C35.4013 21.402 32.4641 27.0424 30.1453 31.2116C28.7929 33.6429 27.4751 35.8967 26.4348 37.5602C24.5164 40.6268 24.1232 40.7826 23.7764 40.9189C23.6382 40.9736 23.4952 41.0004 23.3546 41.0004L23.3534 41.0016ZM24.7845 5.46041C20.6963 5.46041 17.3873 6.86838 15.2151 9.53221C13.0786 12.1534 12.1933 15.8882 12.8486 19.5231C13.8734 25.2061 21.0966 35.2152 23.4202 38.3208C24.3198 37.0527 26.1095 34.1747 28.563 29.7403C31.3798 24.6499 33.5842 20.1766 34.0489 18.6067C34.6781 16.482 34.5375 12.078 32.2556 8.93714C30.5791 6.62986 28.0649 5.46041 24.7845 5.46041Z" fill="#292966"/>
<path d="M22.7687 21.5833C20.7621 21.5833 19.1309 19.9161 19.1309 17.8681C19.1309 15.82 20.7633 14.1528 22.7687 14.1528C24.7741 14.1528 26.4065 15.82 26.4065 17.8681C26.4065 19.9161 24.7741 21.5833 22.7687 21.5833ZM22.7687 16.2812C21.912 16.2812 21.2161 16.9931 21.2161 17.8669C21.2161 18.7406 21.9132 19.4525 22.7687 19.4525C23.6242 19.4525 24.3213 18.7406 24.3213 17.8669C24.3213 16.9931 23.6242 16.2812 22.7687 16.2812Z" fill="#292966"/>
<path d="M22.7681 44.6694C15.0765 44.6694 11.03 43.2505 10.7404 40.4516C10.6225 39.3101 11.2111 38.1212 12.3979 37.1002C13.3714 36.2642 14.6356 35.6302 15.8689 35.3624C16.4325 35.2395 16.9854 35.607 17.1057 36.1814C17.2261 36.757 16.8662 37.3217 16.3038 37.4446C14.4009 37.8583 12.7244 39.3637 12.8137 40.2277C12.8626 40.6986 13.5466 41.2109 14.6452 41.5979C16.4146 42.2222 19.1469 42.5386 22.7669 42.5386C30.4798 42.5386 32.7212 41.0333 32.8308 40.1449C32.9416 39.2444 31.4081 37.8255 29.9019 37.4348C29.3443 37.29 29.0059 36.7108 29.1477 36.1413C29.2895 35.5718 29.8567 35.2274 30.4143 35.371C32.4352 35.8955 35.1949 37.991 34.8994 40.409C34.5538 43.2359 30.4715 44.6682 22.7669 44.6682L22.7681 44.6694Z" fill="#292966"/>
</svg>
