<svg width="47" height="47" viewBox="0 0 47 47" fill="none" xmlns="http://www.w3.org/2000/svg">
<path d="M22.9279 27.8392C22.8314 27.8392 22.7349 27.8261 22.6408 27.7987C16.5709 26.0602 14.3523 22.3604 14.2998 19.478C14.2617 17.3975 15.3139 15.7007 16.982 15.1562C17.8566 14.8702 20.0229 14.5926 22.4918 17.4559C24.0027 15.7901 25.9247 14.315 27.699 14.8559C28.8583 15.2086 29.5947 16.3227 29.721 17.9111C29.9701 21.0509 27.8348 25.5609 23.3855 27.7331C23.2413 27.8034 23.0852 27.8392 22.9279 27.8392ZM18.1021 17.0651C17.9412 17.0651 17.7828 17.0889 17.6291 17.139C16.8641 17.3892 16.3636 18.3138 16.3839 19.4399C16.422 21.5191 18.1414 24.2192 22.8207 25.6765C25.0882 24.4146 27.9063 21.394 27.643 18.0767C27.5905 17.419 27.3748 16.9376 27.0913 16.8518C26.6397 16.7136 25.3266 17.1711 23.2735 19.7592C23.0697 20.0166 22.7552 20.1631 22.4263 20.1536C22.0974 20.1441 21.7924 19.9796 21.6041 19.7115C20.6604 18.371 19.3008 17.0663 18.1021 17.0663V17.0651Z" fill="#292966"/>
</svg>
