<svg width="36" height="36" viewBox="0 0 36 36" fill="none" xmlns="http://www.w3.org/2000/svg">
<path d="M29.8369 32.0415C29.7748 30.7811 29.5567 29.517 29.46 28.2575C29.355 26.8921 29.2875 25.5249 29.2555 24.1559C29.1843 21.061 29.3048 17.9633 29.606 14.8821C29.6662 14.2678 29.0392 13.7412 28.4651 13.7412C28.2707 13.7412 28.0982 13.7868 27.9495 13.8653C27.8208 13.8234 27.6875 13.7923 27.5515 13.7732C27.0487 13.7029 26.5266 13.7668 26.021 13.7932C25.425 13.8243 24.829 13.8617 24.2339 13.9055C22.2233 14.0543 20.2181 14.2779 18.223 14.5672C16.8731 14.5581 15.5242 14.548 14.1743 14.5389C13.603 14.5352 13.0316 14.5307 12.4594 14.527C11.8908 14.5234 11.2975 14.4777 10.7618 14.7004C9.5123 15.2198 9.60357 16.6098 9.51595 17.7415C9.34619 19.9338 9.09885 22.1188 8.76207 24.2919C8.36505 26.8565 7.85486 29.4029 7.24153 31.9256C7.12106 32.4193 7.32094 32.9533 7.76541 33.2143C8.95465 33.9125 10.2543 33.708 11.5485 33.5209C12.8217 33.3375 14.1068 33.2225 15.3918 33.1568C18.0505 33.0217 20.7237 33.1203 23.3641 33.4571C24.641 33.6195 25.9087 33.8568 27.1655 34.1324C27.8938 34.2922 28.6659 34.3588 29.2464 33.7902C29.7064 33.3393 29.8661 32.6694 29.8351 32.0424L29.8369 32.0415Z" fill="#FF7534"/>
<path d="M28.4473 21.3393C28.6827 16.4254 28.7704 13.8124 27.9982 12.76C27.729 12.3931 27.2206 12.0363 25.5696 11.8346C25.5221 10.3186 25.1872 6.42963 23.0761 4.26474C22.0922 3.25622 20.861 2.74512 19.4172 2.74512C13.9337 2.74512 11.6757 10.272 11.1865 12.2024C9.59117 12.3329 8.53702 12.436 8.51511 12.4378C8.21028 12.468 7.94925 12.6697 7.84338 12.9581C6.06364 17.8145 5.52424 23.8747 6.14761 32.0287C6.18046 32.4631 6.55649 32.7908 6.99093 32.7652C14.5653 32.3171 23.15 31.8105 27.4616 33.4123C27.5519 33.4461 27.6459 33.4625 27.7399 33.4625C27.9207 33.4625 28.0986 33.4013 28.2437 33.2836C28.4628 33.1056 28.5723 32.8245 28.5294 32.5443C28.0585 29.4202 28.2647 25.1278 28.4464 21.3393H28.4473ZM14.2723 8.51056C15.7016 5.7442 17.433 4.34141 19.4172 4.34141C20.4275 4.34141 21.2498 4.68001 21.9307 5.3773C22.7941 6.2617 23.4229 7.74025 23.7488 9.65415C23.8866 10.4655 23.9432 11.2002 23.9651 11.7077C23.9514 11.7077 23.9386 11.7059 23.924 11.7059C23.7387 11.6977 23.5452 11.6913 23.3463 11.6849C23.1026 9.26535 21.6332 6.1038 19.3724 5.67302C18.5948 5.52425 17.3928 5.64107 16.0877 7.04022C15.102 8.09711 14.1555 9.77828 13.2711 12.0417C13.1397 12.0509 13.0092 12.0609 12.8805 12.07C13.1278 11.2112 13.5796 9.85221 14.2723 8.51056ZM21.7409 11.6666C20.4996 11.6703 19.0685 11.7104 17.4613 11.7871C16.6426 11.8263 15.8276 11.872 15.0417 11.9222C16.9392 7.39617 18.4725 7.12784 19.0731 7.24192C20.3399 7.48378 21.5017 9.73903 21.7409 11.6666ZM26.8519 21.2626C26.6894 24.6532 26.5069 28.4418 26.7999 31.5358C24.4552 30.9271 21.3776 30.7244 18.0189 30.7244C14.6602 30.7244 11.1099 30.9225 7.68366 31.1242C7.18807 23.8638 7.6654 18.3813 9.1759 13.9803C10.4153 13.8653 13.7649 13.5714 17.2285 13.398C19.4993 13.2848 21.2297 13.252 22.5513 13.2666C22.5568 13.2666 22.5623 13.2675 22.5677 13.2675C22.576 13.2675 22.5833 13.2675 22.5915 13.2675C25.805 13.3049 26.5626 13.6225 26.7278 13.7329C26.798 13.858 26.9924 14.3636 27.0144 16.1461C27.0308 17.5434 26.9441 19.3505 26.8528 21.2635L26.8519 21.2626Z" fill="#292966"/>
</svg>
