<svg width="46" height="47" viewBox="0 0 46 47" fill="none" xmlns="http://www.w3.org/2000/svg">
<path d="M38.3311 19.1427C37.5626 16.9336 36.5305 14.8996 35.4261 13.4149C34.1327 11.6764 32.9012 10.8781 31.7712 11.0389C30.9595 11.1557 30.2796 11.593 29.8084 12.3056C28.9897 13.5424 28.8626 15.5478 29.0574 17.6735C28.7682 17.2231 28.4743 16.7632 28.1769 16.2973C26.3459 13.4328 24.4532 10.4717 22.6945 8.36863C21.7511 7.24141 19.2461 4.24701 16.958 5.64829C16.4063 5.98669 16.0028 6.48119 15.7673 7.09961C15.2425 6.77313 14.5917 6.49907 13.8698 6.48119C12.9683 6.45855 12.1263 6.84581 11.4348 7.59888C10.6919 8.40795 10.4272 9.5447 10.6359 10.9972C9.55135 10.9972 7.82536 11.1986 7.09531 12.644C6.46906 13.8844 6.84108 15.5359 7.98163 17.6688C6.99735 17.8165 6.45273 18.3563 6.174 18.7674C4.9145 20.6227 5.98041 24.1449 9.02539 28.1903C12.0704 32.2344 15.4162 36.362 19.2531 39.155C22.0636 41.2009 24.7762 42.2257 27.3687 42.2257C29.2463 42.2257 31.0621 41.6871 32.8033 40.6111C36.4873 38.3329 38.8162 34.813 39.5358 30.4316C40.0991 26.9999 39.6722 22.9903 38.3334 19.1427H38.3311ZM37.4086 30.6878C36.6809 34.2148 34.7753 36.953 31.7432 38.8274C28.3122 40.9483 24.613 40.5003 20.4333 37.4571C18.3971 35.9748 15.6413 33.563 10.6394 26.9189C7.75889 23.0928 7.39853 20.6179 7.84752 19.9566C8.02945 19.6885 8.55074 19.6408 9.26913 19.8184C10.6686 21.9548 12.5998 24.4774 14.9101 27.4324C15.1888 27.7887 15.4664 28.1438 15.7439 28.4989C15.9457 28.7575 16.2431 28.8921 16.5428 28.8921C16.7655 28.8921 16.9906 28.8182 17.1784 28.6645C17.6192 28.3059 17.6915 27.6493 17.3405 27.1989C17.0629 26.8426 16.7842 26.4863 16.5055 26.1301C14.3398 23.3609 12.1019 20.4975 10.6114 18.1263C8.61488 14.9484 8.75366 13.9022 8.90644 13.6008C9.10003 13.2195 9.95136 13.0336 11.1875 13.1027C11.4581 13.8498 11.8173 14.6541 12.2651 15.5156C14.0786 19.0057 16.6629 22.2253 17.4116 23.1285C17.8898 23.7064 18.3224 24.1938 18.6618 24.5393C18.9405 24.8229 19.3988 25.29 19.9341 25.29C20.1149 25.29 20.305 25.2364 20.4997 25.1041C20.9685 24.7848 21.0957 24.1378 20.7831 23.6588C20.663 23.4753 20.4962 23.3418 20.3085 23.2667C19.0758 22.217 13.0068 14.5052 12.6173 10.467C12.5532 9.79969 12.6546 9.31473 12.9217 9.02399C13.3077 8.60337 13.6144 8.56047 13.815 8.56404C14.5206 8.57834 15.3089 9.32307 15.5305 9.58402C15.5597 9.61858 15.5912 9.65075 15.625 9.68054C15.8874 11.2165 16.6524 13.1015 17.9142 15.3154C19.3627 17.857 21.4047 20.6584 23.3756 22.8092C23.7605 23.2298 24.4065 23.2512 24.8182 22.858C25.2299 22.4648 25.2509 21.8047 24.866 21.3841C21.126 17.3018 17.2157 10.8816 17.5842 8.19466C17.6507 7.70969 17.8454 7.53334 18.0075 7.43444C18.3982 7.19494 19.428 7.67037 21.1435 9.72105C22.817 11.7217 24.6736 14.6267 26.4684 17.4352C27.7477 19.4371 28.9559 21.3269 30.0848 22.8807C30.3472 23.2417 30.8067 23.3907 31.2242 23.2489C31.6417 23.1071 31.9239 22.7091 31.9239 22.2587C31.9239 22.1252 31.9064 22.0513 31.8586 21.8547C30.8848 17.8201 30.7472 14.6088 31.4994 13.4721C31.6487 13.2469 31.8143 13.1361 32.051 13.1027C32.1887 13.0932 32.9549 13.4149 34.0954 15.0855C35.1613 16.6488 36.1118 18.734 36.7695 20.9575C37.4821 23.3609 38.1713 26.9999 37.4109 30.6842L37.4086 30.6878Z" fill="#292966"/>
</svg>
