<svg width="47" height="48" viewBox="0 0 47 48" fill="none" xmlns="http://www.w3.org/2000/svg">
<path d="M19.0389 23.1735C18.7017 22.7281 18.2358 22.3472 17.7103 22.0844C17.7437 20.4391 17.7306 18.7938 17.6686 17.1486C17.5959 15.2429 16.0767 13.4078 14.0939 13.4978C12.2196 13.583 10.4418 15.1041 10.5193 17.1486C10.6408 20.36 10.5788 23.5739 10.3346 26.7792C10.2845 27.4327 10.4883 28.0777 10.8386 28.635C10.5085 29.4747 10.1975 30.3204 9.90917 31.1735C9.2979 32.9806 10.6062 35.2453 12.4055 35.6639C14.3954 36.1263 16.1482 35.0482 16.8024 33.1145C17.0848 32.2809 17.3898 31.4558 17.7151 30.6393C18.2072 29.482 18.741 28.3442 19.3201 27.2283C20.0029 25.9116 19.9433 24.3673 19.0401 23.1735H19.0389Z" fill="#FF7534"/>
<path d="M39.8892 21.2312C39.4555 20.4743 38.6047 19.7514 37.7528 19.553C35.7307 19.0833 34.0482 20.181 33.3559 22.1025C33.2701 22.3422 33.1795 22.5795 33.0866 22.8168C33.0044 23.0042 32.9198 23.1916 32.834 23.3766C31.1217 23.4642 29.4738 24.658 29.052 26.4092C28.7052 27.8463 28.8911 29.46 28.9042 30.93C28.9209 32.8393 30.5366 34.6696 32.4789 34.5807C34.4021 34.4931 36.0715 32.9768 36.0536 30.93C36.0536 30.8679 36.0512 30.8046 36.05 30.7426C36.9949 30.2923 37.7396 29.46 38.2544 28.5424C39.0539 27.115 39.695 25.5841 40.2503 24.0435C40.5553 23.1989 40.3206 21.982 39.8904 21.23L39.8892 21.2312Z" fill="#FF7534"/>
<path d="M21.9442 8.23004L22.372 6.13208C22.4781 5.61368 22.1945 5.09405 21.7059 4.91395L17.4878 3.35387C17.2006 3.24799 16.8825 3.27598 16.6168 3.42931C16.3511 3.58386 16.1652 3.84915 16.108 4.1546L15.5861 6.94498C14.5554 6.66753 13.452 6.77948 12.5047 7.2699C11.4239 7.82968 10.628 8.84215 10.2634 10.1199L3.87062 32.5124C2.94716 35.7457 4.19949 39.0083 6.72203 39.9404L12.4189 42.0469C12.8908 42.2209 13.3841 42.3085 13.8798 42.3085C14.5923 42.3085 15.312 42.1296 15.9924 41.7767C17.5152 40.987 18.7056 39.422 19.2585 37.4835L24.8648 17.8461C25.4486 15.8005 25.401 13.649 24.7325 11.7883C24.1582 10.1929 23.1847 8.95898 21.9419 8.22761L21.9442 8.23004ZM20.1462 6.6006L19.9365 7.62767L17.6451 7.28937L17.9275 5.78039L20.1462 6.6006ZM22.8653 17.251L17.259 36.8884C16.8718 38.2453 16.046 39.3624 15.0499 39.8796C14.5995 40.1132 13.9012 40.331 13.1303 40.0463L7.4334 37.9398C5.9928 37.4068 5.27905 35.1957 5.87364 33.1099L12.2664 10.7174C12.4713 10.0007 12.88 9.46521 13.4496 9.1695C14.0001 8.88474 14.6555 8.8458 15.25 9.06606C15.3168 9.0904 15.3859 9.10866 15.4562 9.11839L20.4643 9.85706C22.7033 10.7624 23.7804 14.0493 22.8665 17.2523L22.8653 17.251Z" fill="#292966"/>
<path d="M19.4643 21.47L16.3972 22.115L17.9105 16.8165C17.9903 16.5354 17.9546 16.2336 17.8092 15.9817C17.665 15.7286 17.4243 15.5485 17.1455 15.4816L13.4075 14.5908C12.869 14.463 12.3244 14.7867 12.1695 15.3295L8.99877 26.435C8.90344 26.7685 8.97374 27.1287 9.18584 27.3988C9.39794 27.6702 9.72681 27.8175 10.0664 27.7956L12.1504 27.6593L11.2782 33.3143C11.202 33.8059 11.4701 34.2854 11.9229 34.4691C12.048 34.5202 12.179 34.5446 12.3077 34.5446C12.6438 34.5446 12.9691 34.3778 13.168 34.0821L20.5331 23.1165C20.7738 22.7587 20.7774 22.2866 20.5414 21.9252C20.3067 21.5637 19.8789 21.3836 19.4631 21.4712L19.4643 21.47ZM14.0558 28.9954L14.4132 26.676C14.4621 26.3572 14.3668 26.0322 14.1535 25.7925C13.9557 25.571 13.6756 25.4457 13.3837 25.4457C13.3611 25.4457 13.3396 25.4457 13.317 25.4481L11.4176 25.5735L13.8949 16.8944L15.5988 17.3009L13.9092 23.2175C13.8067 23.5765 13.8961 23.9635 14.1439 24.2373C14.3918 24.5111 14.7624 24.634 15.121 24.5586L17.3516 24.09L14.0558 28.9966V28.9954Z" fill="#292966"/>
<path d="M38.6849 10.0055L32.241 9.47489C31.3878 9.40431 30.5525 9.69028 29.8864 10.2768C29.1631 10.9145 28.7092 11.8625 28.6365 12.881L25.9972 36.1655L25.9924 36.219C25.8232 38.8792 27.6344 41.2023 30.0282 41.3994L30.0664 41.4031L30.7646 41.408L30.5728 44.4356C30.5358 45.0161 30.9612 45.5187 31.5296 45.5662L35.4939 45.8923C35.5225 45.8947 35.5499 45.8959 35.5773 45.8959C35.8347 45.8959 36.0837 45.7986 36.2756 45.6221C36.4889 45.4262 36.6128 45.1488 36.6199 44.8555L36.6962 41.4518L37.3027 41.4566C37.3849 41.4627 37.4671 41.4652 37.5494 41.4652C38.418 41.4652 39.2581 41.1415 39.942 40.5391C40.7737 39.8041 41.2956 38.7101 41.3755 37.5345L43.4107 16.1302L43.413 16.0961C43.612 12.9674 41.4911 10.2355 38.6849 10.0042V10.0055ZM34.5609 43.6799L32.72 43.529L32.8534 41.425L34.6098 41.4384L34.5597 43.6812L34.5609 43.6799ZM41.3338 15.9428L39.2986 37.3447L39.2962 37.3788C39.2569 37.9957 38.9959 38.5604 38.5789 38.9279C38.3441 39.136 37.9533 39.3745 37.429 39.3307L37.3909 39.327L30.1629 39.2735C28.9213 39.1494 27.9895 37.8631 28.0729 36.3809L30.711 13.1001L30.7158 13.0465C30.7455 12.5829 30.9398 12.1606 31.2496 11.8868C31.4188 11.7371 31.7 11.5655 32.0729 11.596L38.5169 12.1265C40.1899 12.2641 41.4505 13.9738 41.3326 15.9416L41.3338 15.9428Z" fill="#292966"/>
<path d="M39.0799 15.2869C38.6163 15.1433 38.1183 15.3429 37.8752 15.7712L34.5531 21.6112L32.4786 20.606C32.1795 20.4612 31.8304 20.4697 31.5396 20.6292C31.2477 20.7886 31.0475 21.0806 30.9999 21.4153L29.2745 33.5625C29.2185 33.9568 29.3829 34.3499 29.6999 34.5811C29.9465 34.7612 30.2528 34.8196 30.5399 34.7527C30.9677 34.7381 32.6728 34.9145 34.0729 35.0922C34.1158 35.0971 34.1587 35.1007 34.2016 35.1007C34.4411 35.1007 34.6747 35.0167 34.8617 34.8598C35.0822 34.6748 35.2192 34.4058 35.2406 34.115L35.6148 29.021L37.3187 30.3134C37.625 30.5458 38.0313 30.5884 38.378 30.4253C38.7248 30.261 38.9559 29.9166 38.981 29.5285L39.8162 16.3748C39.8472 15.882 39.5422 15.4317 39.0799 15.2869ZM37.0244 27.4378L35.3384 26.16C35.0333 25.9288 34.6294 25.885 34.2838 26.0469C33.9383 26.2087 33.7059 26.5482 33.6773 26.9352L33.2436 32.847C32.5096 32.7606 31.9448 32.7046 31.5075 32.6705L32.8599 23.1494L34.5257 23.9562C35.0154 24.1935 35.6017 24.0073 35.8746 23.5291L37.4486 20.7618L37.0244 27.439V27.4378Z" fill="#292966"/>
</svg>
