<svg width="36" height="36" viewBox="0 0 36 36" fill="none" xmlns="http://www.w3.org/2000/svg">
<path d="M33.1931 18.1468C32.5122 15.7483 31.6616 13.2795 29.9595 11.3975C28.0255 9.25909 25.2765 8.62386 22.5128 8.37834C19.6069 8.12005 16.5767 7.93934 13.8633 9.2098C11.5205 10.3069 9.69782 12.3458 8.36803 14.5198C8.26581 14.6877 8.15538 14.8612 8.05042 15.04C7.48273 15.7702 6.98166 16.5496 6.55909 17.3692C6.34643 17.7818 6.32453 18.2518 6.6175 18.6379C6.88127 18.9865 7.36408 19.2101 7.80673 19.0759C9.53262 18.5521 11.6053 19.1316 12.6577 20.6029C13.0547 21.1578 13.8934 21.4699 14.4429 20.8776C15.6577 19.5697 17.2421 18.4663 18.9734 18.2573C20.4146 18.0829 22.1177 18.6406 22.9281 19.8545C23.473 20.6713 24.6814 20.6001 25.0191 19.6336C25.1669 19.211 25.5055 18.7994 25.8797 18.5521C26.1362 18.3823 26.462 18.229 26.6592 18.166C26.7833 18.1267 26.9102 18.093 27.037 18.0638C27.1219 18.0446 27.2068 18.0282 27.2926 18.0145C27.3327 18.009 27.3619 18.0044 27.3848 18.0008C28.8797 17.8694 30.2807 18.5922 31.4873 19.3936C32.3069 19.9375 33.4642 19.0951 33.194 18.1468H33.1931Z" fill="#FF7534"/>
<path d="M32.5967 18.5757C32.5729 18.4497 32.0034 15.4652 30.0064 12.4004C27.6508 8.78347 24.2967 6.60032 20.2389 6.01438C20.6103 4.09865 19.7552 3.27084 19.3235 2.98517C18.4308 2.39466 17.1403 2.54708 16.2541 3.34751C15.3797 4.13698 15.241 5.17014 15.45 6.0883C11.8467 6.75456 8.55376 8.82728 5.79744 12.1942C3.17256 15.4014 1.9669 18.6177 1.9167 18.7527C1.8017 19.064 1.89115 19.4144 2.14214 19.6326C2.39312 19.8507 2.75272 19.8899 3.04478 19.733C5.95899 18.1631 8.15948 17.6447 9.58509 18.1933C10.4494 18.5255 11.0755 19.2666 11.4999 20.4576C11.6021 20.7442 11.8586 20.9487 12.1607 20.9833C12.1908 20.987 12.2218 20.9888 12.252 20.9888C12.5212 20.9888 12.7758 20.8519 12.9237 20.6219C13.5023 19.7211 14.0837 18.9809 14.6651 18.4014C14.6797 23.2267 13.7743 26.4759 12.0211 27.844C10.3627 29.1382 8.22884 28.5094 7.20389 28.2073C7.05786 28.1644 6.93191 28.1269 6.82239 28.0996C5.76733 27.8358 4.79166 28.252 4.44849 29.1108C4.25683 29.5927 4.29881 30.1358 4.56806 30.6414C4.82178 31.1187 5.25622 31.5322 5.85859 31.8717C6.51299 32.2404 8.14761 32.8455 10.0789 32.8455C11.4287 32.8455 12.9237 32.5498 14.3283 31.6709C17.7974 29.4996 19.4056 24.6131 19.1181 17.1409C20.091 17.5361 21.1096 18.342 22.1619 19.5541C22.3472 19.7676 22.6329 19.8671 22.9103 19.8151C23.1887 19.7631 23.4187 19.5687 23.5154 19.3022C24.1351 17.5936 24.9356 16.6171 25.8957 16.3998C27.1835 16.1087 29.0344 17.1081 31.2495 19.2894C31.4978 19.534 31.8765 19.5897 32.1841 19.4254C32.4926 19.262 32.6587 18.917 32.5948 18.5748L32.5967 18.5757ZM17.3247 4.53309C17.6615 4.22916 18.1625 4.13242 18.4418 4.31769C18.7941 4.55134 18.7822 5.21486 18.6344 5.86835C18.6033 5.86743 18.5732 5.8647 18.5422 5.86378C18.1662 5.851 17.792 5.85374 17.4205 5.86926C17.4187 5.86926 17.4169 5.86926 17.415 5.86926C17.4141 5.86926 17.4123 5.86926 17.4114 5.86926C17.4105 5.86926 17.4096 5.86926 17.4077 5.86926C17.3959 5.86926 17.384 5.86926 17.3721 5.86926C17.363 5.86926 17.353 5.86926 17.3438 5.86926C17.342 5.86926 17.3402 5.86926 17.3384 5.86926C17.3256 5.86926 17.3128 5.872 17.3009 5.87291C17.2151 5.87747 17.1284 5.88295 17.0427 5.88842C16.8638 5.33534 16.9587 4.86257 17.3247 4.53126V4.53309ZM13.4823 30.3174C10.7059 32.0551 7.33076 30.8677 6.64442 30.4808C6.01649 30.1266 5.9024 29.7816 5.93435 29.7022C5.95351 29.6548 6.1251 29.5708 6.43632 29.6493C6.51299 29.6685 6.62434 29.7013 6.75303 29.7397C7.93404 30.0874 10.6986 30.9024 13.0049 29.1035C15.3396 27.2818 16.4275 23.2879 16.2431 17.2304C16.6666 17.0223 17.0892 16.9018 17.5099 16.868C17.8257 23.8245 16.4385 28.4683 13.4823 30.3183V30.3174ZM25.5452 14.8428C24.3049 15.1239 23.2882 16.0475 22.5115 17.5945C21.1351 16.252 19.7561 15.4844 18.3934 15.3019C18.3861 15.301 18.3788 15.3 18.3715 15.2982C18.053 15.2571 17.7363 15.248 17.4196 15.2708C16.6283 15.3283 15.8516 15.5866 15.0913 16.043C15.0347 16.0694 14.9827 16.1023 14.9353 16.1397C14.06 16.6983 13.2085 17.5206 12.3834 18.6049C11.8193 17.6922 11.0746 17.0542 10.1583 16.701C9.607 16.4893 9.00097 16.3825 8.33471 16.3825C7.18108 16.3825 5.84947 16.7019 4.32163 17.3436C4.924 16.1899 5.83121 14.6666 7.06243 13.1698C8.79288 11.0643 10.6967 9.53461 12.7567 8.58998C12.7275 8.6274 12.6964 8.66299 12.6672 8.70132C11.6222 10.0713 11.0536 11.7816 11.0673 13.5167C11.0709 13.9557 11.4278 14.3089 11.8659 14.3089C11.8677 14.3089 11.8705 14.3089 11.8723 14.3089C12.3131 14.3052 12.6681 13.9447 12.6645 13.5039C12.6535 12.1212 13.1053 10.7594 13.9368 9.66968C14.6222 8.7716 15.5212 8.11082 16.5699 7.72201L16.4403 13.3998C16.4302 13.8407 16.7798 14.2066 17.2206 14.2167C17.227 14.2167 17.2334 14.2167 17.2389 14.2167C17.6715 14.2167 18.0274 13.8708 18.0366 13.4363L18.1653 7.79594C19.5407 8.62009 21.1023 10.7603 21.0393 12.896C21.0265 13.3369 21.3733 13.7047 21.8142 13.7174C21.8224 13.7174 21.8297 13.7174 21.8379 13.7174C22.2678 13.7174 22.6228 13.3752 22.6356 12.9426C22.6931 10.9894 21.7402 9.02624 20.4716 7.66177C23.8659 8.26415 26.6067 10.1288 28.6383 13.2246C29.3438 14.2997 29.8586 15.3767 30.2255 16.2967C28.4576 15.0071 26.9134 14.5297 25.5434 14.8391L25.5452 14.8428Z" fill="#292966"/>
</svg>
