<svg width="47" height="47" viewBox="0 0 47 47" fill="none" xmlns="http://www.w3.org/2000/svg">
<path d="M44.6621 24.2755C44.6097 23.8442 44.2951 23.4903 43.8733 23.3878L39.1094 22.2332C36.681 18.0865 34.5791 16.3207 29.2171 16.8092C28.8489 16.1288 28.3949 15.4818 27.8527 14.8801C25.7401 12.5374 22.5705 11.1934 19.1579 11.1934C13.268 11.1934 9.89469 16.1109 9.07608 17.4705L2.96813 20.0491C2.54275 20.229 2.28537 20.6675 2.3378 21.1274C2.39023 21.5874 2.73816 21.9567 3.19334 22.0366L7.87856 22.8588C7.94529 23.7798 8.24318 25.193 9.30844 26.5693C10.9671 28.7117 13.8507 30.0117 17.8794 30.4347C18.7039 30.5217 19.4796 30.5717 20.2136 30.5884C20.4376 31.2629 20.919 32.3662 21.8878 33.385C23.6668 35.257 26.038 35.8003 28.1899 35.8003C29.0145 35.8003 29.8081 35.7205 30.523 35.6049C33.0801 35.1926 36.5071 34.0404 38.3111 30.8947C39.0093 29.6769 39.2453 28.5211 39.3239 27.8192L44.1092 25.3265C44.4941 25.1263 44.7145 24.7069 44.6621 24.2755ZM10.9862 25.3301C9.76004 23.7763 9.95069 22.1963 9.95784 22.1391C10.0413 21.5802 9.66353 21.0559 9.10707 20.9582L7.03851 20.5948L10.2093 19.2555C10.4285 19.1625 10.6108 18.9957 10.724 18.786C10.7538 18.7312 13.7375 13.2786 19.1579 13.2786C21.9807 13.2786 24.5855 14.3713 26.3037 16.2766C27.7383 17.8685 28.414 19.8572 28.2054 21.8769C27.9635 24.2183 27.5179 26.0069 26.1321 27.1305C24.6093 28.3662 21.9807 28.7677 18.0974 28.3602C14.6836 28.0015 12.2909 26.9816 10.9862 25.3289V25.3301ZM37.8368 26.2416C37.4806 26.4275 37.2613 26.7945 37.2768 27.1972C37.2816 27.4093 37.3102 32.3972 30.1906 33.5471C27.2033 34.0297 24.9394 33.5137 23.4642 32.0159C22.9661 31.5095 22.6385 30.9673 22.4299 30.5229C24.5688 30.3275 26.2286 29.74 27.4464 28.7522C29.5042 27.0828 30.0238 24.5651 30.2799 22.0938C30.3943 20.988 30.3038 19.8918 30.0249 18.8408C31.9362 18.7276 33.2279 18.9647 34.2621 19.6106C35.4871 20.3744 36.4522 21.7816 37.5246 23.6595C37.6664 23.9085 37.9059 24.0885 38.1848 24.1564L40.6823 24.7617L37.838 26.2428L37.8368 26.2416Z" fill="#292966"/>
<path d="M15.1015 19.8623C14.4723 19.8623 13.96 20.3747 13.96 21.0038C13.96 21.633 14.4723 22.1441 15.1015 22.1441C15.7306 22.1441 16.2418 21.633 16.2418 21.0038C16.2418 20.3747 15.7306 19.8623 15.1015 19.8623Z" fill="#292966"/>
<path d="M19.1571 19.9355C18.528 19.9355 18.0156 20.4479 18.0156 21.0771C18.0156 21.7062 18.528 22.2174 19.1571 22.2174C19.7863 22.2174 20.2975 21.7062 20.2975 21.0771C20.2975 20.4479 19.7863 19.9355 19.1571 19.9355Z" fill="#292966"/>
<path d="M23.7204 22.2545C24.3495 22.2545 24.8619 21.7421 24.8619 21.113C24.8619 20.4838 24.3495 19.9727 23.7204 19.9727C23.0913 19.9727 22.5801 20.4838 22.5801 21.113C22.5801 21.7421 23.0913 22.2545 23.7204 22.2545Z" fill="#292966"/>
<path d="M31.2519 25.5098C30.6227 25.5098 30.1104 26.0221 30.1104 26.6513C30.1104 27.2804 30.6227 27.7916 31.2519 27.7916C31.881 27.7916 32.3922 27.2804 32.3922 26.6513C32.3922 26.0221 31.881 25.5098 31.2519 25.5098Z" fill="#292966"/>
<path d="M35.0436 25.4736C34.4145 25.4736 33.9033 25.9848 33.9033 26.614C33.9033 27.2431 34.4145 27.7555 35.0436 27.7555C35.6728 27.7555 36.1852 27.2431 36.1852 26.614C36.1852 25.9848 35.6728 25.4736 35.0436 25.4736Z" fill="#292966"/>
</svg>
