<svg width="48" height="48" viewBox="0 0 48 48" fill="none" xmlns="http://www.w3.org/2000/svg">
<path d="M46.2006 29.8985C46.1458 29.4142 45.7674 29.0284 45.2843 28.9639C36.4653 27.7835 31.4333 23.3637 29.9012 15.4525C29.9012 15.4476 29.8976 15.4428 29.8976 15.4379C29.8879 15.3892 29.8745 15.3406 29.8574 15.2943C29.8562 15.2907 29.8538 15.287 29.8526 15.2834C29.8355 15.2383 29.8161 15.1945 29.7929 15.1531C29.7893 15.1471 29.7869 15.141 29.7832 15.1361C29.7589 15.0935 29.7321 15.0534 29.7029 15.0144C29.698 15.0083 29.6931 15.001 29.6871 14.9949C29.625 14.9171 29.5544 14.8489 29.4741 14.7917C29.4668 14.7869 29.4607 14.782 29.4534 14.7771C29.4133 14.7503 29.3719 14.726 29.3293 14.7041C29.3232 14.7005 29.3159 14.698 29.3086 14.6944C29.2173 14.6506 29.1188 14.6201 29.0165 14.6055C29.0117 14.6055 29.008 14.6031 29.0044 14.6031C23.7473 13.8571 18.6071 11.5474 13.7297 7.73726C13.451 7.51944 13.0823 7.45494 12.7464 7.56325C12.4105 7.67155 12.1501 7.94049 12.0515 8.28001C11.9116 8.76312 11.7729 9.24624 11.6341 9.73057C9.48384 17.2158 7.25932 24.9566 2.53039 26.4802C2.05092 26.6347 1.74548 27.1045 1.79781 27.6058C1.85135 28.1072 2.24806 28.5027 2.74943 28.5538C7.47472 29.0333 13.3305 34.3354 19.4163 40.1985C19.4248 40.207 19.4346 40.2143 19.4431 40.2216C19.4552 40.2325 19.4686 40.2435 19.4808 40.2545C19.4954 40.2654 19.51 40.2764 19.5234 40.2873C19.538 40.2983 19.5526 40.3092 19.5672 40.3189C19.5806 40.3275 19.5952 40.336 19.6086 40.3445C19.6256 40.3542 19.6414 40.364 19.6585 40.3737C19.6719 40.381 19.6852 40.3871 19.6986 40.3932C19.7169 40.4017 19.7351 40.4102 19.7534 40.4175C19.7668 40.4224 19.7802 40.4273 19.7948 40.4321C19.813 40.4394 19.8325 40.4455 19.8507 40.4516C19.8653 40.4565 19.8812 40.4589 19.8958 40.4625C19.914 40.4674 19.9311 40.4723 19.9493 40.4759C19.9688 40.4796 19.9883 40.482 20.0065 40.4844C20.0211 40.4869 20.0357 40.4893 20.0503 40.4905C20.0844 40.4942 20.1185 40.4954 20.1538 40.4954C20.1854 40.4954 20.2182 40.4942 20.2499 40.4905C20.2645 40.4893 20.2779 40.4869 20.2925 40.4844C20.3095 40.482 20.3278 40.4808 20.3448 40.4771C20.3643 40.4735 20.3825 40.4686 20.4008 40.4638C20.413 40.4613 20.4263 40.4589 20.4385 40.4552C20.4592 40.4492 20.4799 40.4419 20.5006 40.4358C20.5103 40.4321 20.5188 40.4297 20.5286 40.4273L20.5371 40.4236C20.5371 40.4236 20.5419 40.4224 20.5444 40.4212L31.9688 36.1194C31.9688 36.1194 31.97 36.1194 31.9712 36.1194L45.5155 31.0193C45.9718 30.8477 46.2529 30.3865 46.1982 29.9022L46.2006 29.8985ZM29.1674 25.4361L30.4403 34.4181L23.8848 36.886C26.4635 33.5492 28.228 29.7245 29.1674 25.4361ZM13.67 10.3536C18.2018 13.6405 22.9527 15.7263 27.8252 16.5684C27.9457 21.0053 27.3457 25.0625 26.0363 28.6414C24.7634 32.1182 22.7835 35.2408 20.1452 37.9399C14.9514 32.9651 10.1909 28.7376 5.76738 27.1057C9.7613 23.9417 11.7449 17.0564 13.6712 10.3548L13.67 10.3536ZM32.4823 33.649L31.0731 23.7081C33.4096 26.9171 36.8182 29.1355 41.277 30.3378L32.4823 33.649Z" fill="#292966"/>
<path d="M20.6201 29.0435L23.5541 22.5695C23.6733 22.3066 23.6806 22.0073 23.5748 21.7396C23.4689 21.4718 23.2596 21.2577 22.9931 21.1469L15.2036 17.9099C14.7302 17.7128 14.1838 17.8819 13.9039 18.3103L10.5659 23.4189C10.4041 23.6659 10.353 23.9677 10.4236 24.2549C10.4941 24.5409 10.6791 24.7855 10.9359 24.9303L19.1294 29.5327C19.29 29.6227 19.4701 29.669 19.6514 29.669C19.7634 29.669 19.8753 29.6519 19.9836 29.6154C20.2672 29.5229 20.4984 29.3149 20.6213 29.0435H20.6201ZM15.2024 20.2148L16.8623 20.9048L15.0296 24.7867L12.9706 23.6306L15.2024 20.2148ZM19.1598 27.1062L16.8902 25.832L18.83 21.7225L21.1604 22.6912L19.1598 27.1074V27.1062Z" fill="#292966"/>
</svg>
