<svg width="47" height="48" viewBox="0 0 47 48" fill="none" xmlns="http://www.w3.org/2000/svg">
<path d="M24.8905 39.7722C25.0085 39.9706 25.1443 40.1592 25.2932 40.3368C24.7463 40.893 24.3948 41.611 24.39 42.3898C24.3781 44.2358 25.7782 45.8178 27.7777 45.9541C31.6955 46.2206 35.6122 46.4871 39.53 46.7536C41.4413 46.8839 43.2072 45.3968 43.2811 43.5909L43.834 30.0612C43.8852 28.8041 44.1116 27.3962 43.8435 26.1574C43.5635 24.8626 42.416 23.6834 41.0743 23.3061C40.2783 23.0822 39.4859 23.0713 38.6697 23.0445C37.5163 23.0068 36.3641 22.9703 35.2118 22.9325C33.8618 22.8887 32.4974 22.7816 31.1534 22.9362C29.54 23.1224 28.0851 24.0424 27.2307 25.3335C26.5742 26.3241 26.3037 27.4339 26.0261 28.5559C25.4422 30.9131 24.9632 33.2982 24.5843 35.6931C24.3662 37.0694 24.1243 38.4786 24.8929 39.7734L24.8905 39.7722Z" fill="#FF7534"/>
<path d="M22.3641 23.7615C21.8565 22.9571 21.1439 22.3499 20.2276 22.0834C18.9824 21.722 17.6979 21.6282 16.4277 21.7718C16.3288 21.7402 16.2311 21.7073 16.1334 21.6721C16.0333 21.6222 15.9332 21.5711 15.8355 21.5175C15.0872 21.1111 14.2031 20.9748 13.3726 21.1135C12.9507 20.9407 12.5027 20.8433 12.0821 20.8628C10.2876 20.9443 8.32986 22.4764 8.5074 24.5136C8.74333 27.2151 8.70401 29.9276 8.3942 32.6194C8.25717 33.5698 8.09154 34.5142 7.8854 35.4512C7.54938 36.9857 7.05369 38.457 7.38018 40.0475C7.66139 41.4214 8.60987 42.6638 9.58934 43.607C10.4365 44.4235 11.4184 45.1573 12.4848 45.6477C13.3904 46.0639 14.2102 46.4338 15.229 46.4314C16.4122 46.429 17.5597 45.9118 18.3759 45.0453C19.4138 43.9428 19.6795 42.4996 19.9833 41.0685C20.46 38.8184 20.914 36.5634 21.3453 34.3036C21.835 31.7323 22.295 29.1549 22.7251 26.5726C22.8836 25.6234 22.9027 24.6109 22.3653 23.7591L22.3641 23.7615Z" fill="#FF7534"/>
<path d="M40.8742 14.0492L29.6759 13.3008C31.1392 12.7106 32.5559 11.989 33.3364 11.1919C34.1776 10.3327 34.3778 9.14625 33.8869 7.93542C33.0969 5.98592 30.6602 4.27616 28.6726 4.27616C27.1665 4.27616 25.9154 5.85206 24.7357 9.23387C24.4712 9.99322 24.2436 10.7465 24.0589 11.4097C23.9493 10.867 23.8194 10.267 23.6705 9.65249C22.7005 5.65857 21.8164 4.74467 21.1539 4.3942C19.9409 3.75288 18.4919 3.78696 17.3718 4.48303C16.2363 5.18884 15.6107 6.44835 15.6107 8.03034C15.6107 9.51619 16.7308 11.0093 19.0305 12.5877L6.99334 11.7833C6.43926 11.7468 5.9543 12.1593 5.88995 12.7215L5.15952 19.0945C5.10471 19.5703 5.36805 20.0243 5.80297 20.2044C5.9388 20.2603 6.07703 20.3175 7.82981 20.4015C7.46281 21.9616 6.65732 25.5904 6.0377 29.1828C4.52919 37.9458 5.34421 39.4012 5.65045 39.95C5.8971 40.3918 6.41186 41.3118 11.5082 42.3035C13.7733 42.7453 16.5866 43.1347 19.575 43.4353C19.6787 43.4864 19.7931 43.5217 19.9146 43.5351C19.9528 43.5387 19.9897 43.5411 20.0267 43.5411C20.1172 43.5411 20.2054 43.5278 20.29 43.5059C22.6266 43.7273 25.0515 43.8928 27.3905 43.9841C28.6702 44.034 29.8833 44.0583 31.0021 44.0583C32.3403 44.0583 33.5461 44.023 34.5756 43.9512C37.6141 43.7419 38.54 43.2771 39.0071 42.895C40.0127 42.0735 41.0828 39.8867 40.4357 30.1904C40.1915 26.5348 39.772 22.9862 39.5456 21.201C40.3202 21.2168 40.767 21.2254 40.7861 21.2254C40.7932 21.2254 40.7992 21.2254 40.8063 21.2254C41.0792 21.2254 41.3413 21.1158 41.5367 20.9211C41.7369 20.7203 41.8489 20.4465 41.8489 20.1606V15.1091C41.8489 14.5481 41.4224 14.0833 40.8742 14.0468V14.0492ZM26.6625 10.0565C27.8278 6.66983 28.644 6.41306 28.6762 6.40576C29.8118 6.40819 31.499 7.61172 31.9613 8.74954C32.2008 9.33974 31.9721 9.57339 31.8624 9.68534C30.9509 10.6163 28.2222 11.6543 25.9725 12.3358C26.1537 11.6616 26.3872 10.8585 26.6637 10.0553L26.6625 10.0565ZM17.696 8.03156C17.696 7.45839 17.8282 6.69417 18.4562 6.30354C18.7052 6.14899 19.0079 6.07111 19.3201 6.07111C19.6144 6.07111 19.917 6.14047 20.1851 6.28042C20.2483 6.33153 20.8679 6.90104 21.677 10.2853C21.8164 10.8658 21.9379 11.4365 22.0404 11.9512C21.5852 11.7006 21.0836 11.4073 20.5855 11.0836C17.9045 9.34096 17.696 8.3078 17.696 8.03277V8.03156ZM7.44137 38.8548C7.28885 38.5226 6.83843 36.8262 8.09077 29.5515C8.76519 25.6318 9.66601 21.6732 9.95437 20.4879C12.2005 20.567 15.712 20.668 21.2373 20.8019L19.1056 41.2448C16.6367 40.9832 14.3417 40.6644 12.4388 40.3139C8.44228 39.5789 7.57363 38.9668 7.44256 38.8548H7.44137ZM21.1813 41.448L23.3297 20.8518C23.4643 20.8554 23.5954 20.8578 23.7324 20.8615C23.8825 20.8651 24.0315 20.8688 24.1816 20.8724L23.0878 41.605C22.8781 41.5892 22.6672 41.5734 22.4551 41.5564C22.0285 41.5223 21.6031 41.4858 21.1813 41.448ZM38.3565 30.3473C38.9928 39.8904 37.8381 41.1243 37.7047 41.2339C37.6749 41.257 36.9325 41.807 32.5369 41.9129C30.4433 41.964 27.8933 41.9032 25.1682 41.7438L26.2669 20.9199C30.5934 21.0185 34.7019 21.1037 37.4378 21.1596C37.6475 22.7806 38.1015 26.5055 38.3577 30.3473H38.3565ZM39.7637 19.0775C27.997 18.8451 11.5296 18.4703 7.35557 18.2524L7.8453 13.975L39.7637 16.1094V19.0775Z" fill="#292966"/>
</svg>
