<svg width="47" height="48" viewBox="0 0 47 48" fill="none" xmlns="http://www.w3.org/2000/svg">
  <!-- Outer contour of icon-heart.svg path 2 (first subpath) — matches liked icon footprint -->
  <path
    fill="none"
    stroke="#292966"
    stroke-width="2"
    stroke-linejoin="round"
    stroke-linecap="round"
    d="M24.9359 42.4973C24.6655 42.4973 24.4021 42.4656 24.1459 42.3999C19.4548 41.2025 15.575 38.3926 11.1722 33.0041C6.91474 27.7945 2.47736 19.5779 3.98231 13.5724C4.71988 10.6287 6.74673 8.47232 10.0057 7.16414C13.3242 5.83283 16.3126 5.86934 18.8864 7.27488C21.7831 8.85565 23.5025 11.8347 24.445 14.0981C24.8847 13.0856 25.4733 11.9198 26.2312 10.7796C28.9694 6.6579 32.5631 4.89703 36.6252 5.68802C39.4206 6.23198 41.4534 8.01111 42.502 10.8319C44.6408 16.5891 42.2327 25.2572 39.6351 28.6962L39.4754 28.9068C34.2587 35.8152 28.8657 42.4961 24.9371 42.4961L24.9359 42.4973Z"
  />
</svg>
