<svg width="47" height="47" viewBox="0 0 47 47" fill="none" xmlns="http://www.w3.org/2000/svg">
<path d="M44.093 21.0534L38.507 16.1656L44.0883 11.3398C44.3719 11.0943 44.5017 10.7154 44.4291 10.3484C44.3564 9.9802 44.0918 9.67993 43.7356 9.56197L28.2536 4.40131C27.8508 4.26666 27.4064 4.39058 27.1299 4.7135L23.4552 9.02695L18.4637 4.33696C18.1253 4.01882 17.6177 3.96281 17.2185 4.19874L3.06396 12.573C2.77202 12.7458 2.58257 13.0497 2.55516 13.3869C2.52775 13.7253 2.66717 14.0553 2.92812 14.2722L9.06824 19.3781L3.79081 24.0132C3.53105 24.242 3.40117 24.5864 3.44526 24.9295C3.48935 25.2739 3.70144 25.573 4.01125 25.7291L11.2512 29.3622V36.4746C11.2512 36.9131 11.5252 37.3039 11.9375 37.4541L26.7915 42.8685L26.8297 42.8816C26.8523 42.89 26.875 42.8959 26.8988 42.9031C26.9167 42.9078 26.9333 42.9126 26.9512 42.9174C26.9643 42.921 26.9774 42.9245 26.9905 42.9269C26.9905 42.9281 26.9929 42.9281 26.9941 42.9281C27.006 42.9305 27.0191 42.9329 27.031 42.9341C27.0358 42.9341 27.0394 42.9341 27.0442 42.9353C27.0537 42.9364 27.0632 42.9376 27.0716 42.9388C27.0871 42.9412 27.1014 42.9424 27.1168 42.9436C27.1395 42.9448 27.1621 42.946 27.1848 42.946C27.1848 42.946 27.1848 42.946 27.186 42.946C27.2122 42.946 27.2384 42.946 27.2646 42.9424C27.2729 42.9424 27.2825 42.94 27.2908 42.9388C27.3063 42.9376 27.323 42.9353 27.3385 42.9329C27.3492 42.9317 27.3599 42.9305 27.3718 42.9281C27.3838 42.9257 27.3945 42.9233 27.4064 42.9198C27.4231 42.9162 27.4398 42.9126 27.4552 42.909C27.4898 42.8995 27.5232 42.8888 27.5565 42.8757C27.5684 42.8709 27.5804 42.865 27.5935 42.8602C27.6173 42.8495 27.6411 42.8387 27.6638 42.8268C27.6721 42.8221 27.6805 42.8197 27.6888 42.8149L39.042 36.527C39.3733 36.3435 39.5794 35.9944 39.5794 35.6155V26.4881L44.0811 22.631C44.3111 22.4344 44.4434 22.1473 44.4457 21.8446C44.4457 21.5419 44.3171 21.2536 44.0895 21.0546L44.093 21.0534ZM28.2607 6.60212L41.3381 10.9609L36.7256 14.949L25.2568 10.128L28.2607 6.60212ZM26.2315 24.4231L12.8753 19.1111L23.6589 11.7175L35.0038 16.4873L26.2315 24.4231ZM5.39823 13.6145L17.607 6.39241L21.8811 10.408L10.7329 18.0507L5.39823 13.6145ZM6.33003 24.559L10.8794 20.5613L24.6181 26.0258L19.5969 31.2186L13.11 27.9621L12.3248 27.5689L6.33003 24.559ZM13.3364 35.7454V30.4095L19.3467 33.4254C19.4944 33.5005 19.6553 33.5362 19.8138 33.5362C20.0902 33.5362 20.3619 33.4266 20.5632 33.2181L25.5178 28.0955L26.0754 40.3889L13.3376 35.7466L13.3364 35.7454ZM28.1523 40.1756L27.5947 27.8787L32.287 31.6226C32.6779 31.9347 33.2355 31.9252 33.6156 31.5999L37.4977 28.2731V35.0006L28.1523 40.1756ZM37.9422 25.1476L37.9386 25.15C37.8862 25.1869 37.8373 25.2286 37.7921 25.2751L37.7861 25.2799L32.9126 29.4551L28.057 25.5813L36.9294 17.5562L41.8124 21.8303L37.941 25.1476H37.9422Z" fill="#292966"/>
</svg>
