<svg width="48" height="48" viewBox="0 0 48 48" fill="none" xmlns="http://www.w3.org/2000/svg">
<path d="M44.0077 25.1598C43.2702 24.4588 42.3478 23.9563 41.3621 23.7007C41.1723 22.2538 40.0819 20.8836 38.674 20.516C34.6314 19.4622 30.3904 19.0229 26.22 19.304C25.8331 19.3296 25.4595 19.3928 25.1029 19.5036C24.2499 18.9328 23.2666 18.5702 22.1835 18.5227C20.8072 18.4619 19.4601 19.0034 18.4683 19.9441C17.6712 19.7786 16.8267 19.7676 15.9955 19.7883C15.0999 19.8114 14.2006 19.9015 13.3098 20.0341C12.7342 18.844 11.7862 17.8985 10.4659 17.4665C9.13334 17.0296 7.7777 17.2912 6.60946 17.9435C6.31618 17.868 6.01195 17.8327 5.70286 17.8461C3.68399 17.9362 2.10322 19.45 2.05211 21.4969C1.99491 23.7908 2.02047 26.0834 2.12878 28.3749C2.21518 30.2003 3.45278 31.7129 5.29397 31.9599C6.90152 32.1765 8.24012 31.3721 8.98001 30.0469C9.68582 30.8428 10.6314 31.3892 11.7558 31.6825C12.7683 31.9465 13.7893 32.1838 14.8054 32.4345C15.6852 32.6511 16.5821 32.5526 17.3536 32.1765C18.3965 33.2255 19.9578 33.7208 21.4157 33.273C22.2176 33.0271 22.8102 32.6536 23.2483 32.1875C23.5611 32.499 23.9152 32.7667 24.3046 32.976C25.7698 33.7597 27.6329 33.722 29.0153 32.7643C29.3439 32.5367 29.6615 32.2763 29.9669 32.0171C29.9961 31.9928 30.0217 31.9709 30.0424 31.9514C30.0764 31.9331 30.1117 31.9161 30.1482 31.8978C30.6484 31.7263 31.1607 31.6107 31.6828 31.5243C32.2985 31.4512 32.9252 31.3977 33.5398 31.416C33.5653 31.4233 33.5921 31.4318 33.6177 31.4403C34.82 32.0159 35.9858 32.6438 37.3183 32.8945C38.2152 33.0637 39.1437 33.1914 40.06 33.1707C41.3195 33.1415 42.7068 33.0125 43.7266 32.2252C45.9207 30.53 46.0071 27.0655 44.0028 25.1598H44.0077Z" fill="#FF7534"/>
<path d="M45.2215 20.9648C44.4792 19.956 43.3183 19.5885 42.189 19.4023C42.172 19.3986 42.1537 19.3962 42.1367 19.3938C41.7546 19.3329 41.3761 19.2915 41.0195 19.2538C40.2395 19.1699 39.2684 19.064 39.0323 18.7792C38.694 18.3703 38.1756 17.3554 37.6268 16.2821C36.5742 14.2219 35.2648 11.6591 33.7594 10.4081C32.0679 9.00253 25.426 8.76523 22.6478 8.72751C21.1242 8.70682 13.4053 8.67153 11.0883 9.98215C9.31526 10.9849 8.06792 12.9295 6.86317 14.8097C5.91398 16.2906 5.01711 17.6877 4.00464 18.4166C3.96205 18.4446 3.92067 18.4762 3.88295 18.5103C2.52244 19.5276 1.87625 21.4771 1.96509 24.3125C2.03567 26.5675 2.54434 28.8334 2.84248 29.9834C3.46311 32.3819 5.17653 32.489 6.14398 32.5231C5.79959 34.862 6.92767 36.9466 8.83579 37.3713C9.06335 37.4224 9.29092 37.4467 9.51726 37.4467C11.2964 37.4467 12.9441 35.9256 13.4394 33.6986C13.4771 33.5282 13.5063 33.3567 13.5294 33.1863L29.6742 33.8264C29.7533 35.642 30.6733 37.0573 32.085 37.3713C32.2675 37.4114 32.4525 37.4321 32.6374 37.4321C33.4114 37.4321 34.1963 37.0841 34.8559 36.433C35.4631 35.8331 35.9365 35.0117 36.2152 34.0856L40.3454 34.2499H40.3648C40.3953 34.2511 40.4245 34.2511 40.4537 34.2511C42.4494 34.2511 44.0314 32.7944 44.8029 30.2401C45.7071 27.2429 46.7342 23.0214 45.2215 20.9672V20.9648ZM43.5069 22.2267C43.6809 22.4628 43.861 22.9216 43.8744 23.8051C42.7865 23.6834 41.886 23.3865 41.7704 23.1358C41.6365 22.6636 42.004 22.0369 42.3594 21.6037C42.8595 21.7266 43.2769 21.9116 43.5081 22.2255L43.5069 22.2267ZM22.621 10.8559C28.4732 10.9338 31.8623 11.5982 32.4001 12.0448C33.5684 13.0159 34.7682 15.3633 35.732 17.2496C35.9973 17.7692 36.2395 18.2426 36.4671 18.6636L20.4196 18.4543L19.9523 11.1589C19.9462 11.0567 19.9243 10.9593 19.8915 10.8681C20.7482 10.8498 21.6596 10.8449 22.6222 10.8583L22.621 10.8559ZM12.1385 11.8355C12.7968 11.4631 14.8388 11.1066 17.8641 10.9423C17.8337 11.0543 17.8191 11.1723 17.8264 11.294L18.2839 18.4263L7.07857 18.2803C7.6347 17.5526 8.15067 16.7494 8.65812 15.9584C9.72292 14.2973 10.8254 12.5778 12.1385 11.8355ZM11.3621 33.2325C11.0786 34.5091 10.1148 35.4704 9.29944 35.2891C8.4841 35.1078 8.01924 33.8288 8.30278 32.5523C8.34294 32.3746 8.39527 32.1994 8.45976 32.0327C8.4841 31.9718 8.50844 31.911 8.53521 31.8525C8.54373 31.8331 8.55347 31.8148 8.5632 31.7954C8.58146 31.7564 8.59971 31.7187 8.61918 31.681C8.63013 31.6591 8.64352 31.6384 8.65447 31.6165C8.67272 31.5836 8.69098 31.5508 8.71045 31.5191C8.72383 31.4972 8.73722 31.4753 8.75061 31.4546C8.77008 31.4242 8.78955 31.395 8.80902 31.3658C8.82362 31.3451 8.83822 31.3244 8.85283 31.3037C8.87352 31.2757 8.89299 31.249 8.91489 31.2222C8.92949 31.2027 8.94531 31.1832 8.96113 31.165C8.98304 31.1394 9.00494 31.1139 9.02685 31.0895C9.04267 31.0725 9.05849 31.0543 9.07431 31.0372C9.09743 31.0129 9.12055 30.9898 9.14489 30.9666C9.16071 30.9508 9.17531 30.9362 9.19113 30.9216C9.21669 30.8985 9.24346 30.8754 9.26901 30.8535C9.28362 30.8413 9.297 30.8291 9.3116 30.817C9.34446 30.7902 9.37732 30.7658 9.41139 30.7427C9.41991 30.7366 9.42721 30.7306 9.43573 30.7257C9.47711 30.6977 9.5197 30.6721 9.56107 30.6478C9.57324 30.6405 9.58541 30.6356 9.59758 30.6295C9.628 30.6137 9.65843 30.5979 9.68885 30.5845C9.70467 30.5772 9.7217 30.5711 9.73752 30.5651C9.7643 30.5541 9.79107 30.5444 9.81784 30.5346C9.83609 30.5285 9.85313 30.5237 9.87139 30.5188C9.89694 30.5115 9.92128 30.5054 9.94683 30.4993C9.96509 30.4957 9.98334 30.492 10.0016 30.4896C10.0259 30.486 10.0515 30.4823 10.0758 30.4799C10.0941 30.4787 10.1123 30.4774 10.1306 30.4762C10.1574 30.4762 10.1853 30.4762 10.2121 30.4762C10.2243 30.4762 10.2365 30.4762 10.2486 30.4787C10.2888 30.4823 10.3277 30.4872 10.3667 30.4957C10.4373 30.5115 10.5054 30.5358 10.5711 30.5675C11.0311 30.7926 11.3694 31.4035 11.4376 32.1702C11.468 32.517 11.4436 32.8748 11.3633 33.2325H11.3621ZM32.5474 35.2903C32.0691 35.1832 31.6615 34.1988 31.844 32.9514C31.8586 32.8468 31.8781 32.7397 31.9024 32.6314C31.9219 32.5425 31.9438 32.4561 31.9681 32.3722C31.9767 32.3442 31.9852 32.3174 31.9937 32.2906C32.0107 32.2359 32.0265 32.1811 32.0448 32.1288C32.0557 32.0971 32.0679 32.0679 32.0789 32.0375C32.0959 31.9913 32.1129 31.945 32.1312 31.9012C32.1446 31.8696 32.158 31.8404 32.1714 31.81C32.1896 31.7698 32.2079 31.7284 32.2273 31.6895C32.2419 31.6591 32.2578 31.6311 32.2724 31.6019C32.2918 31.5654 32.3101 31.5288 32.3308 31.4936C32.3466 31.4656 32.3636 31.4388 32.3794 31.412C32.3989 31.3792 32.4196 31.3463 32.4403 31.3147C32.4573 31.2891 32.4744 31.2636 32.4926 31.2392C32.5133 31.21 32.534 31.1808 32.5547 31.1528C32.5729 31.1285 32.5912 31.1066 32.6094 31.0835C32.6301 31.0579 32.652 31.0323 32.6727 31.008C32.691 30.9861 32.7092 30.9654 32.7287 30.9459C32.7494 30.9228 32.7713 30.9009 32.792 30.8802C32.8115 30.862 32.8297 30.8425 32.848 30.8255C32.8686 30.806 32.8906 30.7877 32.9112 30.7695C32.9307 30.7537 32.949 30.7379 32.9684 30.722C32.9891 30.7062 33.0098 30.6916 33.0305 30.677C33.05 30.6636 33.0682 30.6502 33.0877 30.6381C33.1084 30.6247 33.1278 30.6137 33.1485 30.6028C33.1668 30.5918 33.185 30.5809 33.2033 30.5724C33.224 30.5626 33.2435 30.5541 33.2629 30.5456C33.28 30.5383 33.2982 30.5298 33.3153 30.5237C33.3359 30.5164 33.3554 30.5115 33.3749 30.5066C33.3907 30.503 33.4065 30.4969 33.4211 30.4945C33.4442 30.4896 33.4674 30.4884 33.4893 30.4872C33.499 30.4872 33.51 30.4847 33.5209 30.4847C33.5538 30.4847 33.5842 30.4884 33.6146 30.4945C33.6414 30.5006 33.6669 30.5103 33.6937 30.5212C33.8763 30.604 34.0649 30.834 34.1951 31.1832C34.1951 31.1857 34.1963 31.1881 34.1975 31.1905C34.2097 31.2246 34.2219 31.2623 34.2328 31.2989C34.2413 31.3256 34.2498 31.3536 34.2571 31.3816C34.2608 31.395 34.2645 31.4096 34.2681 31.423C34.3508 31.754 34.3861 32.1543 34.346 32.5949C34.3387 32.6715 34.3302 32.7482 34.318 32.8285C34.318 32.8297 34.318 32.8322 34.318 32.8334C34.3034 32.9393 34.2827 33.0476 34.2596 33.1546C34.1014 33.8641 33.774 34.5054 33.3615 34.9131C33.0731 35.1978 32.7689 35.3378 32.5486 35.2891L32.5474 35.2903ZM42.7646 29.6219C42.419 30.7646 41.7387 32.1191 40.4512 32.1191C40.4403 32.1191 40.4306 32.1191 40.4196 32.1191L36.4878 31.9633C36.4878 31.9523 36.4865 31.9426 36.4853 31.9316C36.4804 31.8331 36.4732 31.7357 36.4634 31.6396C36.4622 31.6262 36.4598 31.614 36.4585 31.6006C36.4488 31.5106 36.4366 31.4218 36.4233 31.3341C36.4208 31.3195 36.4184 31.3037 36.416 31.2891C36.4001 31.1966 36.3819 31.1066 36.3624 31.0177C36.3575 30.9983 36.3539 30.9788 36.349 30.9593C36.3271 30.8705 36.3052 30.7829 36.2784 30.6965C36.2748 30.6855 36.2711 30.6758 36.2687 30.6648C36.2444 30.5845 36.2164 30.5054 36.1884 30.4288C36.1835 30.4142 36.1774 30.3996 36.1726 30.3862C36.1421 30.3058 36.1081 30.2267 36.0728 30.1501C36.0655 30.133 36.057 30.1172 36.0497 30.1002C36.0132 30.0235 35.9742 29.9481 35.9341 29.8751C35.9304 29.8678 35.9255 29.8605 35.9207 29.8532C35.8817 29.785 35.8404 29.7181 35.7978 29.6536C35.7892 29.6414 35.7819 29.628 35.7734 29.6159C35.7284 29.5489 35.6809 29.4856 35.6323 29.4236C35.6213 29.4102 35.6116 29.3968 35.6006 29.3846C35.5495 29.3226 35.4972 29.2617 35.4424 29.2045C35.4388 29.2009 35.4339 29.196 35.4303 29.1924C35.3779 29.1376 35.3232 29.0853 35.266 29.0354C35.255 29.0257 35.2441 29.0159 35.2331 29.0062C35.1747 28.9563 35.1151 28.9088 35.0542 28.8638C35.0421 28.8541 35.0287 28.8456 35.0153 28.837C34.9508 28.792 34.8863 28.7494 34.8181 28.7105C34.8157 28.7093 34.8133 28.708 34.8096 28.7056C34.7439 28.6679 34.6758 28.6338 34.6064 28.601C34.593 28.5949 34.5796 28.5888 34.5662 28.5827C34.4969 28.5523 34.4251 28.5243 34.3521 28.4987C34.3375 28.4939 34.3229 28.489 34.3095 28.4853C34.2328 28.461 34.1561 28.4391 34.077 28.4208C34.0211 28.4087 33.9663 28.3977 33.9103 28.3892C33.8957 28.3868 33.8799 28.3856 33.8653 28.3831C33.8251 28.377 33.7838 28.3722 33.7436 28.3685C33.7254 28.3673 33.7071 28.3661 33.6901 28.3649C33.6523 28.3624 33.6146 28.36 33.5769 28.3588C33.5574 28.3588 33.5392 28.3588 33.5197 28.3588C33.4832 28.3588 33.4467 28.3588 33.4102 28.36C33.3907 28.36 33.3712 28.3624 33.3518 28.3637C33.3165 28.3661 33.28 28.3685 33.2447 28.3722C33.2252 28.3746 33.2057 28.377 33.1863 28.3795C33.151 28.3843 33.1157 28.3892 33.0804 28.3953C33.0609 28.3989 33.0414 28.4026 33.022 28.4062C32.9867 28.4135 32.9514 28.4208 32.9161 28.4281C32.8966 28.433 32.8784 28.4379 32.8589 28.4428C32.8236 28.4513 32.7883 28.4622 32.7518 28.472C32.7336 28.478 32.7153 28.4829 32.6971 28.489C32.6606 28.4999 32.6253 28.5133 32.59 28.5255C32.5729 28.5316 32.5547 28.5377 32.5376 28.545C32.5011 28.5596 32.4646 28.5742 32.4281 28.59C32.4123 28.5973 32.3953 28.6034 32.3794 28.6107C32.3417 28.6277 32.3052 28.646 32.2675 28.6642C32.2529 28.6715 32.2383 28.6788 32.2237 28.6861C32.1847 28.7068 32.1446 28.7275 32.1056 28.7506C32.0935 28.7579 32.0813 28.764 32.0704 28.7701C32.0265 28.7957 31.984 28.8224 31.9414 28.8492C31.9341 28.8541 31.9268 28.8577 31.9195 28.8626C31.7673 28.9624 31.6201 29.0743 31.4777 29.1997C31.4753 29.2021 31.4728 29.2033 31.4704 29.2058C31.4266 29.2447 31.3828 29.2849 31.3402 29.3262C31.3305 29.336 31.3219 29.3445 31.3122 29.3542C31.2769 29.3895 31.2416 29.4248 31.2063 29.4601C31.1942 29.4735 31.182 29.4869 31.1686 29.5002C31.1382 29.5331 31.1066 29.5672 31.0761 29.6025C31.0615 29.6183 31.0481 29.6353 31.0348 29.6511C31.0068 29.684 30.9788 29.7181 30.9508 29.7522C30.9362 29.7704 30.9216 29.7887 30.907 29.8081C30.8814 29.841 30.8547 29.8751 30.8291 29.9091C30.8145 29.9298 30.7999 29.9493 30.7841 29.97C30.7597 30.0041 30.7354 30.0381 30.7123 30.0734C30.6977 30.0953 30.6831 30.1172 30.6685 30.1391C30.6453 30.1744 30.6234 30.2085 30.6003 30.245C30.5857 30.2681 30.5711 30.2912 30.5577 30.3144C30.5358 30.3497 30.5151 30.3862 30.4944 30.4227C30.4811 30.447 30.4665 30.4713 30.4531 30.4957C30.4324 30.5322 30.4129 30.5699 30.3922 30.6076C30.3788 30.6332 30.3655 30.6575 30.3533 30.6831C30.3338 30.7208 30.3156 30.761 30.2961 30.7999C30.2839 30.8255 30.2718 30.851 30.2596 30.8766C30.2413 30.9167 30.2231 30.9581 30.2048 30.9983C30.1939 31.0238 30.1817 31.0494 30.1707 31.0749C30.1525 31.1187 30.1355 31.1626 30.1184 31.2064C30.1087 31.2307 30.0989 31.255 30.0892 31.2794C30.0697 31.3305 30.0515 31.3828 30.0332 31.4339C30.0272 31.4522 30.0198 31.4704 30.0138 31.4887C29.9906 31.5593 29.9675 31.6299 29.9456 31.7017L13.3871 31.0457C13.3846 31.0372 13.3822 31.0299 13.3798 31.0214C13.3712 30.9934 13.3615 30.9654 13.353 30.9374C13.3323 30.8705 13.3104 30.8048 13.2873 30.7403C13.2751 30.7074 13.2629 30.6746 13.2495 30.6417C13.2264 30.5821 13.2021 30.5249 13.1777 30.4677C13.1644 30.4361 13.1498 30.4044 13.1352 30.3728C13.1072 30.3119 13.0767 30.2535 13.0463 30.1951C13.0329 30.1708 13.0208 30.1452 13.0074 30.1209C12.9623 30.0393 12.9161 29.9602 12.8662 29.8836C12.8589 29.8726 12.8504 29.8617 12.8431 29.8495C12.8005 29.785 12.7555 29.7217 12.7092 29.6609C12.691 29.6365 12.6715 29.6134 12.6533 29.5891C12.6155 29.5416 12.5778 29.4954 12.5389 29.4504C12.517 29.426 12.4951 29.4017 12.4732 29.3773C12.433 29.3348 12.3916 29.2922 12.3502 29.252C12.3283 29.2301 12.3064 29.2094 12.2845 29.1887C12.2334 29.1425 12.1823 29.0975 12.1288 29.0549C12.1142 29.0427 12.1008 29.0305 12.085 29.0184C12.0168 28.9648 11.9462 28.9137 11.8744 28.8662C11.855 28.8541 11.8355 28.8419 11.816 28.8297C11.7625 28.7957 11.7077 28.7628 11.6517 28.7312C11.625 28.7166 11.5982 28.702 11.5702 28.6886C11.5191 28.663 11.468 28.6375 11.4157 28.6143C11.3864 28.601 11.3585 28.5888 11.3292 28.5766C11.2745 28.5535 11.2173 28.5328 11.1613 28.5133C11.1358 28.5048 11.109 28.4951 11.0834 28.4866C11.0007 28.4598 10.9155 28.4367 10.8291 28.4172C10.7451 28.3989 10.6612 28.3843 10.5784 28.3734C10.5638 28.371 10.5492 28.3685 10.5334 28.3673C10.4543 28.3576 10.374 28.3515 10.2937 28.3478C10.2766 28.3478 10.2596 28.3478 10.2425 28.3466C10.1622 28.3442 10.0819 28.3454 10.0016 28.3503C9.99064 28.3503 9.97969 28.3527 9.96874 28.3527C9.89329 28.3576 9.81784 28.3661 9.74239 28.3758C9.72901 28.3783 9.71562 28.3795 9.70345 28.3807C9.62557 28.3929 9.54647 28.4075 9.4698 28.4257C9.45155 28.4294 9.4333 28.4342 9.41504 28.4391C9.33838 28.4586 9.26171 28.4793 9.18626 28.5036C9.17044 28.5085 9.15584 28.5145 9.14002 28.5194C9.06701 28.5438 8.99399 28.5705 8.92219 28.601C8.91367 28.6046 8.90637 28.607 8.89785 28.6107C8.82241 28.6423 8.74696 28.6788 8.67272 28.7153C8.65569 28.7239 8.63865 28.7324 8.62161 28.7409C8.54982 28.7786 8.47924 28.8188 8.40987 28.8602C8.39283 28.8699 8.3758 28.8808 8.35876 28.8918C8.28818 28.9368 8.2176 28.9831 8.14823 29.0317C8.1385 29.039 8.12998 29.0463 8.12025 29.0524C8.05697 29.0987 7.99369 29.1473 7.93162 29.1985C7.91702 29.2106 7.90363 29.2216 7.88903 29.2337C7.82453 29.2885 7.76126 29.3445 7.69919 29.4041C7.68337 29.4199 7.66755 29.4345 7.65052 29.4504C7.58845 29.51 7.52882 29.572 7.4692 29.6365C7.45703 29.6499 7.44486 29.6645 7.43269 29.6779C7.37793 29.7388 7.32438 29.802 7.27206 29.8665C7.26232 29.8775 7.2538 29.8884 7.24407 29.9006C7.18809 29.9712 7.13454 30.0442 7.081 30.1197C7.06761 30.1379 7.05544 30.1562 7.04206 30.1756C6.99095 30.2499 6.94105 30.3265 6.89359 30.4056C6.88873 30.4129 6.88386 30.419 6.88021 30.4263C6.67212 30.4056 6.46889 30.3996 6.2754 30.3935C5.40166 30.3643 5.13759 30.3557 4.90394 29.4479C4.68246 28.5912 4.1604 26.3691 4.09347 24.2444C4.03506 22.3837 4.34537 21.0342 4.96844 20.3831L38.1975 20.8163C38.1975 20.8163 38.2073 20.8163 38.2121 20.8163C38.2304 20.8163 38.2474 20.8151 38.2644 20.8139C38.7902 21.0731 39.4023 21.1972 40.0326 21.2824C39.6104 22.1172 39.5008 22.9508 39.7187 23.7199C40.0144 24.7604 41.0341 25.4552 42.75 25.7862C43.0725 25.8483 43.3877 25.8921 43.6724 25.9225C43.5045 26.8973 43.2185 28.1093 42.7622 29.6232L42.7646 29.6219Z" fill="#292966"/>
</svg>
