<svg width="36" height="36" viewBox="0 0 36 36" fill="none" xmlns="http://www.w3.org/2000/svg">
<path d="M23.2088 5.94173C22.6649 5.36765 21.9959 5.15226 21.2767 5.03361C21.3104 5.03817 21.3451 5.04273 21.3789 5.0473C20.9034 4.97519 20.4525 4.83829 20.008 4.66762C19.0607 4.24961 18.1242 3.80148 17.1842 3.36795C16.5398 3.07133 15.8891 2.71082 15.1954 2.55475C14.1249 2.3138 13.0871 2.44979 12.1169 2.95451C10.9332 3.57057 10.0844 4.76893 9.30588 5.80848C8.64692 6.68831 8.08379 7.63294 7.60828 8.62503C7.28519 9.2995 7.12729 9.99132 7.33265 10.7352C7.36642 10.8575 7.41205 10.9816 7.46772 11.1048C7.26237 11.3713 7.10995 11.678 7.03329 12.0166C6.70198 13.4723 7.47046 14.9673 8.94536 15.3844C9.10691 15.43 9.2648 15.482 9.42179 15.5386C10.6466 16.1154 11.8002 16.8867 12.9393 17.6049C14.3658 18.5039 15.8745 19.8839 17.656 19.8675C19.12 19.8538 20.1623 18.9484 20.845 17.7355C21.2055 17.0948 21.5623 16.4513 21.8964 15.796C22.6247 14.3686 23.2983 12.8672 23.6798 11.3056C23.907 10.3737 24.0485 9.3999 24.0759 8.44066C24.1023 7.51976 23.855 6.62351 23.2097 5.94264L23.2088 5.94173ZM12.5368 10.9852C12.9192 10.2359 13.3527 9.5149 13.8438 8.83129C13.8885 8.76923 13.9332 8.70899 13.9788 8.64784C14.123 8.47352 14.2663 8.2992 14.416 8.12944C14.4242 8.12031 14.4333 8.11118 14.4416 8.10114C15.2475 8.46896 16.0479 8.84955 16.8529 9.21919C17.3576 9.45101 17.866 9.68192 18.3835 9.88545C18.2265 10.5134 18.0239 11.1285 17.7856 11.7327C17.5018 12.3707 17.1924 12.9959 16.8638 13.6119C16.8629 13.6147 16.8611 13.6165 16.8602 13.6192C16.841 13.6065 16.8228 13.5937 16.8036 13.5809C16.1465 13.1529 15.4829 12.7339 14.8148 12.3232C14.0701 11.866 13.318 11.395 12.5368 10.9852Z" fill="#FF7534"/>
<path d="M17.0833 27.4709C15.6303 27.2008 14.1737 26.9206 12.791 26.3921C12.4934 26.2534 12.2023 26.1028 11.9212 25.934C11.7989 25.8609 11.6793 25.7834 11.5607 25.704C11.4986 24.8825 11.5087 24.0602 11.5926 23.2388C11.6565 22.8628 11.7332 22.4886 11.8153 22.1153C12.1202 20.7198 11.3973 19.0879 9.90324 18.7475C8.61361 18.4536 7.08486 19.0696 6.61939 20.3684C5.89746 20.3748 5.18282 20.6358 4.62517 21.2117C3.50622 22.3681 3.71157 23.7344 3.92879 25.1591C4.02919 25.8171 4.17065 26.4679 4.3614 27.1058C4.79219 28.5479 5.40917 30.0073 6.24336 31.2659C6.80467 32.1138 7.41525 32.7946 8.22846 33.397C8.73956 33.7748 9.29447 34.0103 9.88316 34.1536C10.6808 34.6492 11.6017 34.9239 12.5893 34.85C14.7277 34.6894 16.6891 33.3806 18.2936 32.049C19.825 30.7776 19.0283 27.8342 17.0852 27.4727L17.0833 27.4709Z" fill="#FF7534"/>
<path d="M16.6972 14.4953C16.8177 14.5629 16.9528 14.5975 17.0888 14.5975C17.1727 14.5975 17.2567 14.5848 17.3379 14.5574C17.5506 14.488 17.724 14.3319 17.8162 14.1284L19.5567 10.2878C19.6461 10.0907 19.6516 9.86617 19.5722 9.66538C19.4928 9.46459 19.3358 9.30395 19.1359 9.2209L14.515 7.30061C14.1599 7.15275 13.7502 7.27961 13.5402 7.60088L11.5597 10.6319C11.4383 10.8172 11.4 11.0435 11.4529 11.2589C11.5059 11.4743 11.6446 11.6569 11.8372 11.7655L16.6981 14.4962L16.6972 14.4953ZM16.72 12.6763L15.6677 12.0858L16.6844 9.93279L17.7605 10.38L16.72 12.6772V12.6763ZM14.5132 9.02923L15.2077 9.31764L14.2713 11.3009L13.3623 10.7898L14.5132 9.02923Z" fill="#292966"/>
<path d="M33.0036 25.0422C32.9643 24.7264 32.7407 24.4645 32.4359 24.3751C31.1709 24.0036 29.8913 23.4861 29.3054 23.1283C29.4085 23.0754 29.5153 23.0243 29.5993 22.9832C30.2336 22.6784 31.024 22.2987 31.087 21.4809C31.1508 20.654 30.3121 20.1438 28.7906 19.2184C28.1381 18.8214 27.4636 18.4116 26.9306 18.0036C26.7471 17.864 26.6075 17.7435 26.4989 17.6422L32.4925 15.3851C32.8347 15.2564 33.0456 14.9105 33.0045 14.5473C32.9634 14.184 32.6796 13.8947 32.3173 13.8463C27.1651 13.1563 24.2263 10.578 23.3328 5.96344C23.3328 5.95979 23.33 5.95614 23.33 5.95157C23.3227 5.91507 23.3127 5.87856 23.2999 5.84388C23.299 5.84114 23.2972 5.8384 23.2963 5.83566C23.2835 5.80189 23.2689 5.76904 23.2515 5.73801C23.2488 5.73344 23.247 5.72888 23.2452 5.72523C23.2269 5.69328 23.2068 5.66225 23.1849 5.63396C23.1813 5.6294 23.1776 5.62483 23.174 5.62027C23.1274 5.56186 23.0736 5.51075 23.0133 5.46694C23.0088 5.46329 23.0042 5.45964 22.9987 5.4569C22.9686 5.43591 22.9367 5.41765 22.9038 5.40123C22.8992 5.3994 22.8956 5.39757 22.891 5.39575C22.8217 5.36289 22.7468 5.34008 22.6692 5.32821C22.6665 5.32821 22.6638 5.32638 22.661 5.32638C19.5716 4.8883 16.5488 3.52931 13.6784 1.28684C13.4694 1.12346 13.1928 1.07509 12.9409 1.15632C12.689 1.23755 12.4937 1.43925 12.4198 1.69389C12.3367 1.98048 12.2546 2.26797 12.1715 2.55456C10.9075 6.9537 9.60049 11.5016 6.87977 12.3787C6.52017 12.4946 6.29109 12.8469 6.33034 13.2229C6.37049 13.599 6.66803 13.8956 7.04406 13.9339C8.83566 14.1156 10.9239 15.5065 13.1545 17.4085C11.498 19.3726 7.28227 20.2899 3.69541 20.8731C3.52109 20.9014 3.36045 20.9872 3.23907 21.1168C3.05105 21.3185 2.9607 21.5941 2.99264 21.8716C3.07296 22.5716 3.85696 23.1594 5.91141 24.5412C6.63791 25.0295 7.53965 25.6364 7.77421 25.8983C7.8098 26.1512 7.27679 26.9808 6.58589 27.6133C6.37597 27.804 6.28379 28.0924 6.3422 28.3708C6.40153 28.6483 6.60414 28.8737 6.87338 28.9622C8.67411 29.5546 9.94184 31.2129 10.9869 34.3379C11.0781 34.6118 11.3109 34.8153 11.5947 34.8691C11.6449 34.8783 11.6942 34.8828 11.7444 34.8828C11.978 34.8828 12.2026 34.7806 12.3559 34.5981C15.0291 31.4183 20.3145 29.916 24.9783 28.5917C27.9199 27.7557 30.6972 26.9671 32.6175 25.829C32.8913 25.6665 33.0419 25.358 33.0027 25.0422H33.0036ZM22.6902 12.8049L23.3045 17.1402L20.0708 18.3577C21.2674 16.6957 22.1435 14.843 22.6902 12.8049ZM29.3866 14.8494L24.836 16.5625L24.1177 11.4961C25.411 13.0495 27.1697 14.1703 29.3866 14.8494ZM13.6346 3.24637C16.243 5.10095 18.9738 6.29201 21.773 6.79946C21.8287 9.35772 21.4755 11.6978 20.7188 13.7651C19.9905 15.7547 18.867 17.5463 17.3766 19.1034C16.4867 18.2528 15.6178 17.4405 14.769 16.6921C14.7544 16.6784 14.7398 16.6656 14.7243 16.6528C12.7803 14.9434 10.9376 13.5734 9.17609 12.8588C11.3948 10.9166 12.5412 7.05227 13.6355 3.24729L13.6346 3.24637ZM24.5439 27.0547C20.1265 28.3097 15.1761 29.7161 12.0593 32.6038C11.3428 30.8031 10.2823 28.9577 8.47241 27.9291C9.1478 27.0857 9.8314 25.8308 8.9899 24.8588C8.6513 24.4682 7.93849 23.9771 6.80493 23.2141C6.38692 22.933 5.81741 22.5506 5.3492 22.2083C8.97986 21.543 12.5813 20.5263 14.3538 18.4636C15.1688 19.202 15.9975 19.9896 16.8344 20.7955C16.8408 20.8019 16.8481 20.8074 16.8545 20.8128C16.8636 20.8211 16.8737 20.8293 16.8828 20.8375C16.8938 20.8457 16.9047 20.8539 16.9148 20.8621C16.9257 20.8703 16.9367 20.8786 16.9476 20.8859C16.9577 20.8923 16.9686 20.8986 16.9786 20.905C16.9914 20.9123 17.0033 20.9196 17.0161 20.9269C17.0261 20.9324 17.0361 20.937 17.0462 20.9415C17.0599 20.9479 17.0736 20.9543 17.0873 20.9598C17.0973 20.9634 17.1073 20.9671 17.1183 20.9707C17.132 20.9762 17.1466 20.9808 17.1603 20.9853C17.1712 20.989 17.1831 20.9908 17.194 20.9936C17.2077 20.9972 17.2205 21.0009 17.2342 21.0036C17.2488 21.0063 17.2634 21.0082 17.2771 21.01C17.288 21.0118 17.299 21.0136 17.31 21.0146C17.3355 21.0173 17.3611 21.0182 17.3875 21.0182C17.4113 21.0182 17.4359 21.0173 17.4596 21.0146C17.4706 21.0136 17.4806 21.0118 17.4916 21.01C17.5044 21.0082 17.518 21.0072 17.5308 21.0045C17.5454 21.0018 17.5591 20.9981 17.5737 20.9945C17.5828 20.9926 17.5929 20.9908 17.602 20.9881C17.6175 20.9835 17.633 20.978 17.6486 20.9726C17.6549 20.9698 17.6623 20.9689 17.6686 20.9662L17.675 20.9634C17.675 20.9634 17.6787 20.9625 17.6805 20.9616L24.4526 18.4116H24.4545L24.9062 18.2418C25.4867 19.0778 26.6969 19.8153 27.9601 20.5829C28.3717 20.8329 28.8846 21.146 29.2242 21.3869C29.1137 21.4444 28.9978 21.5001 28.9075 21.543C28.3279 21.8214 27.7283 22.1098 27.5238 22.7085C27.4198 23.0133 27.4444 23.3346 27.5959 23.6367C27.794 24.0319 28.2485 24.5357 30.1259 25.2677C28.5396 25.9175 26.5819 26.4733 24.543 27.0529L24.5439 27.0547Z" fill="#292966"/>
<path d="M9.92959 21.7656C9.20857 21.7656 8.64453 22.2548 8.64453 22.8791C8.64453 23.5034 9.20857 23.9926 9.92959 23.9926C10.6506 23.9926 11.2137 23.5034 11.2137 22.8791C11.2137 22.2548 10.6497 21.7656 9.92959 21.7656Z" fill="#292966"/>
<path d="M12.5742 28.5854C11.9435 28.5854 11.4297 29.0984 11.4297 29.73C11.4297 30.3615 11.9435 30.8745 12.5742 30.8745C13.2049 30.8745 13.7187 30.3606 13.7187 29.73C13.7187 29.0993 13.2058 28.5854 12.5742 28.5854Z" fill="#292966"/>
<path d="M25.6328 24.1187C24.9802 24.1187 24.4883 24.5367 24.4883 25.0897C24.4883 25.6428 24.9802 26.0618 25.6328 26.0618C26.2854 26.0618 26.7773 25.6437 26.7773 25.0897C26.7773 24.5357 26.2854 24.1187 25.6328 24.1187Z" fill="#292966"/>
</svg>
