<svg width="46" height="48" viewBox="0 0 46 48" fill="none" xmlns="http://www.w3.org/2000/svg">
<path d="M43.7489 17.5247C42.6037 16.427 40.8264 16.124 39.4957 16.943C40.3295 15.4474 39.7418 13.4067 38.4951 12.4015C37.33 11.4633 35.4501 11.3245 34.2571 12.3273C34.1603 11.7675 33.9387 11.2247 33.5865 10.7501C32.5789 9.38963 30.531 8.79334 29.0733 9.80947C28.7304 10.048 28.405 10.3011 28.0902 10.5627C28.0762 10.3388 28.0423 10.1113 27.9805 9.87761C27.7566 9.03064 27.1292 8.11309 26.3723 7.69569C24.7152 6.78178 22.5483 7.22961 21.585 9.00509C20.3675 11.2515 19.15 13.4992 17.9325 15.7456C17.6351 16.2932 17.3225 16.8384 17.0287 17.3921C16.7103 17.8788 16.3861 18.3607 16.0549 18.8378C16.063 18.7039 16.0735 18.57 16.0794 18.435C16.1657 16.5244 14.4082 14.699 12.5807 14.7842C10.611 14.8767 9.1754 16.3881 9.0821 18.435C9.06344 18.8402 9.03312 19.243 8.99114 19.6458C8.43019 23.3744 7.17651 27.0617 7.49139 30.8767C7.66749 33.0075 8.13631 35.1736 9.29669 36.9771C10.4524 38.7757 12.0326 40.1934 13.8624 41.2071C15.7866 42.2731 17.8788 43.17 20.0491 43.4487C22.3442 43.7431 24.4283 42.671 26.2032 41.2631C29.289 38.8146 31.8862 35.8758 34.53 32.9357C37.3499 29.7997 40.1698 26.6637 42.9897 23.5278C43.2427 23.2466 43.4958 22.9655 43.7489 22.6832C45.0002 21.2886 45.1728 18.884 43.7489 17.5198V17.5247Z" fill="#FF7534"/>
<path d="M18.9098 42.5823C18.694 42.5823 18.4736 42.575 18.2497 42.5616C16.224 42.4387 13.8962 41.75 11.6933 40.6219C7.57189 38.5105 3.01201 34.3195 3.72689 29.4555C4.13973 26.6456 5.07387 21.9909 6.22958 17.9276C8.17715 11.0801 9.5766 9.87531 10.5795 9.59055C11.1102 9.43965 11.621 9.54796 12.0186 9.89478C13.0426 10.7892 12.9201 12.8628 12.6146 16.4515C12.5364 17.3727 12.4245 18.6846 12.414 19.6593C13.0927 18.4327 14.0129 16.3968 14.7441 14.7783C17.5325 8.60728 19.6806 4.17528 21.9419 3.34413C22.5367 3.12508 23.1361 3.15307 23.6738 3.42566C24.2977 3.74206 24.7467 4.2775 24.9717 4.97479C25.5584 6.79165 24.5752 9.48955 23.0253 12.8178C24.0819 11.1884 25.212 9.50902 26.3024 8.19718C27.0826 7.25772 29.1573 4.76426 31.0687 5.86436C31.6028 6.17224 31.9585 6.66144 32.0996 7.28085C32.4483 8.80929 31.4337 10.8853 29.6692 13.7074C32.7399 9.64044 34.8845 7.4001 36.7458 8.27263C37.2508 8.50871 37.6053 8.9468 37.7441 9.50537C38.2222 11.4244 36.0193 14.7077 32.6023 19.4975C32.439 19.7262 32.2664 19.9684 32.0915 20.2154C32.1743 20.1424 32.2559 20.0706 32.3364 20C37.2368 15.68 40.5943 12.959 42.5209 14.4387C42.8801 14.715 43.1017 15.1409 43.1425 15.6386C43.2917 17.4372 41.2019 21.7195 24.5706 39.8443C24.2312 40.2142 23.949 40.5221 23.7321 40.7594C22.6393 41.9581 20.9821 42.5823 18.911 42.5823H18.9098ZM10.7615 12.0073C10.288 12.6341 9.37252 14.3097 8.1305 18.7259C7.02727 22.6493 6.13628 27.1044 5.74327 29.7792C5.37475 32.2897 7.34914 36.0256 12.5924 38.7101C16.6812 40.8044 20.6533 41.0442 22.251 39.2918C22.4691 39.0533 22.7536 38.743 23.0941 38.3718C25.3018 35.966 29.8943 30.9608 33.9119 26.1601C39.4619 19.5291 40.7436 17.0563 41.0281 16.1972C40.6514 16.2848 39.8782 16.6 38.4356 17.6465C36.9044 18.7576 35.1749 20.2824 33.6484 21.6271C30.6325 24.286 29.6354 25.1184 28.7281 24.9371C28.3771 24.8665 28.0785 24.6401 27.9106 24.3128C27.3916 23.3027 28.1147 22.2173 30.9614 18.2258C32.1323 16.5854 33.4583 14.7247 34.4227 13.122C35.4362 11.4378 35.6939 10.6237 35.7522 10.2696C35.4583 10.384 34.7854 10.7892 33.5201 12.2167C32.2944 13.5979 30.9229 15.4707 29.7136 17.1233C27.0266 20.7935 25.9887 22.1309 24.8901 22.1309C24.8563 22.1309 24.8225 22.1296 24.7875 22.1272C24.3513 22.0944 23.9746 21.8412 23.7542 21.4311C23.0673 20.1509 24.1811 18.345 26.5636 14.7065C27.5887 13.1403 28.65 11.5206 29.3579 10.1236C30.2897 8.28602 30.1112 7.77248 30.0996 7.74327C30.0996 7.74327 30.0914 7.73719 30.0762 7.72867C30.0716 7.72624 29.4791 7.61793 27.8371 9.59177C26.5321 11.1604 25.1164 13.3703 23.8673 15.3186C21.5909 18.8695 20.7524 20.101 19.7448 20.1728C19.3623 20.2008 18.9961 20.0451 18.7419 19.7457C17.8754 18.7296 18.6812 17.0685 20.2882 13.7597C21.5699 11.1202 23.507 7.13116 23.0312 5.65383C22.9799 5.49563 22.9087 5.40801 22.7758 5.34108C22.7524 5.32891 22.721 5.31309 22.6148 5.35204C22.2451 5.48833 21.3961 6.12721 19.8707 8.875C18.7535 10.8866 17.6013 13.4372 16.5855 15.6861C14.1365 21.105 13.2945 22.8135 11.951 22.7369C11.5603 22.7138 11.2011 22.5276 10.9399 22.2112C10.19 21.3058 10.3067 19.4561 10.5784 16.2629C10.6868 14.9876 10.8536 13.0223 10.7603 12.0061L10.7615 12.0073Z" fill="#292966"/>
</svg>
