<svg width="270" height="183" viewBox="0 0 270 183" fill="none" xmlns="http://www.w3.org/2000/svg">
<g clip-path="url(#clip0_2100_7330)">
<path d="M264.88 52.5912C264.468 49.4006 261.727 46.5088 258.47 46.6799C255.465 46.8394 252.463 47.1411 249.478 47.5907C249.377 47.582 249.275 47.5733 249.174 47.5588C248.93 47.4862 248.489 47.3673 248.315 47.3209C248.205 47.2919 247.596 47.057 247.297 46.9554C247.172 46.8887 247.065 46.8307 247.018 46.8017C246.676 46.5958 245.942 45.7546 246.52 46.5291C247.161 47.3876 246.322 46.326 246.122 46.1259C246.029 46.0302 245.777 45.7053 245.623 45.5168C245.562 45.4124 245.51 45.3253 245.484 45.2789C245.47 45.2151 245.455 45.1455 245.441 45.0701C245.432 44.7858 245.417 44.4407 245.426 44.3247C245.71 39.9738 241.017 36.4874 237.162 37.752C229.841 40.1566 222.228 41.0906 215.142 44.3044C213.34 45.1223 211.635 46.1114 210.019 47.2484C208.615 43.614 207.156 40.0028 205.506 36.4874C204.23 33.7696 202.971 30.8429 200.601 28.9953C201.001 28.772 201.402 28.5399 201.796 28.3021C206.324 25.5553 210.826 22.762 215.339 19.9891C218.149 18.2633 219.26 14.5738 218.01 11.476C216.827 8.55229 213.39 6.38559 210.309 7.5284C200.711 11.0961 192.358 16.5955 183.143 20.8477C173.928 25.0999 164.272 27.7191 155.437 32.5195C153.09 33.7957 150.81 35.2199 148.316 36.1828C142.637 38.3727 136.462 39.7157 130.675 41.8302C124.41 44.1187 118.217 46.6016 112.103 49.2701C109.127 50.5695 106.044 52.014 104.1 54.6129C102.261 57.0725 101.693 60.3182 102.038 63.3696C102.383 66.421 103.569 69.3186 104.97 72.0538C108.173 78.319 112.544 83.9866 115.16 90.5216C116.915 94.9072 117.837 99.577 119.302 104.067C120.665 108.238 122.858 112.615 126.913 114.286C130.011 115.562 133.57 114.962 136.717 113.813C141.883 111.928 146.419 108.676 151.292 106.124C157.528 102.858 164.362 100.734 171.349 99.8932C174.154 99.5538 177.232 99.3131 179.265 97.3494C183.415 93.338 179.946 89.0481 177.252 85.9242C176.985 85.6138 176.823 85.2281 176.666 84.8481C176.034 83.3195 175.401 81.7938 174.769 80.2653C172.634 75.1023 170.488 69.9277 168.846 64.582C167.869 61.403 164.658 54.7695 167.732 52.217C169.626 50.6449 171.958 49.3948 174.128 48.2491C180.068 45.1136 186.496 43.4574 192.981 41.8766C193.106 41.8476 193.231 41.8157 193.356 41.7867C194.67 41.4705 200.201 58.3111 200.12 60.034C200.067 61.1565 199.804 62.2906 200.038 63.3899C200.682 66.4268 204.27 68.0569 205.489 70.9458C210.141 81.9737 220.51 72.3149 226.964 69.0141C237.766 63.4856 248.509 62.1862 260.201 60.0659C263.392 59.4858 265.272 55.6484 264.877 52.5883L264.88 52.5912ZM153.624 71.407C151.182 71.6913 149.05 72.222 146.906 73.5505C146.619 73.7274 144.081 75.4939 143.165 76.045C142.782 76.1726 142.402 76.3118 142.013 76.4278C141.189 76.6686 140.348 76.8513 139.507 77.0079C135.931 77.6809 132.552 78.1043 129.181 79.6329C128.398 79.9897 127.655 80.4016 126.985 80.8889C126.797 80.4451 126.605 80.0042 126.423 79.5604C126.22 79.076 126.014 78.5916 125.822 78.1014C125.744 77.9013 125.669 77.707 125.642 77.6403C125.173 76.4539 124.714 75.2589 124.268 74.0639C123.563 72.1843 122.884 70.2932 122.234 68.3904C121.878 67.3549 121.532 66.3137 121.19 65.2724C121.071 64.9069 120.973 64.4979 120.868 64.0831C121.184 63.7206 121.506 63.3609 121.834 63.0128C122.461 62.3515 123.11 61.7192 123.783 61.1101C124.094 60.8287 124.41 60.5619 124.726 60.2892C124.906 60.15 125.083 60.0137 125.265 59.8774C126.191 59.187 127.145 58.5431 128.12 57.9311C128.717 57.7107 129.312 57.4931 129.909 57.2727C131.078 56.8434 132.151 56.1008 132.99 55.1524C133.254 55.0305 133.52 54.9232 133.784 54.8275C133.993 54.7666 134.251 54.6854 134.385 54.6303C134.942 54.4011 135.501 54.1807 136.061 53.969C137.047 53.5948 138.045 53.2467 139.046 52.919C141.215 52.2054 143.411 51.5847 145.619 51.0191C147.771 50.4651 149.935 49.9662 152.101 49.476C152.177 51.808 152.719 54.1894 153.253 56.4489C154.132 60.179 155.109 63.883 156.188 67.5551C156.406 68.2918 156.632 69.0257 156.855 69.7595C155.654 69.9973 154.517 70.5484 153.627 71.407H153.624ZM217.317 65.0954C217.358 65.0838 217.398 65.0722 217.442 65.0635C217.961 65.6639 217.604 65.809 217.317 65.0954Z" fill="#FF7534"/>
<path d="M206.448 121.044C206.292 120.292 206.381 119.483 206.764 118.746C207.643 117.047 209.735 116.38 211.437 117.261L227.126 125.38C228.826 126.259 229.493 128.35 228.611 130.053C227.732 131.752 225.641 132.42 223.938 131.538L208.249 123.419C207.286 122.92 206.654 122.03 206.448 121.047V121.044Z" fill="#292966"/>
<path d="M198.301 129.516C197.964 127.895 198.828 126.218 200.421 125.589C202.202 124.884 204.215 125.757 204.92 127.538L210.587 141.867C211.295 143.656 210.419 145.661 208.638 146.365C206.857 147.07 204.844 146.197 204.139 144.416L198.472 130.088C198.396 129.899 198.341 129.708 198.301 129.516Z" fill="#292966"/>
<path d="M81.0921 38.5144L72.579 23.4664C71.6421 21.8102 72.2251 19.7102 73.8814 18.7734C75.5376 17.8365 77.6376 18.4195 78.5744 20.0757L87.0875 35.1237C88.0244 36.7799 87.4414 38.8799 85.7852 39.8168C84.129 40.7537 82.029 40.1706 81.0921 38.5144Z" fill="#292966"/>
<path d="M66.5428 46.7431C66.1889 46.1165 66.0265 45.374 66.1251 44.6083C66.3688 42.7229 68.0975 41.3916 69.9828 41.6352L78.5568 42.7432C80.4422 42.9869 81.7764 44.7156 81.5299 46.6009C81.2862 48.4863 79.5575 49.8176 77.6722 49.574L69.0982 48.466C67.9786 48.321 67.0562 47.6567 66.5399 46.7431H66.5428Z" fill="#292966"/>
<path d="M59.7703 88.3514C59.5992 84.5024 56.6494 81.2451 52.664 81.2451C48.9455 81.2451 45.3866 84.514 45.5577 88.3514C45.7288 92.2005 48.6787 95.4578 52.664 95.4578C56.3825 95.4578 59.9415 92.1889 59.7703 88.3514Z" fill="#FF7534"/>
<path d="M41.0272 102.724C39.8785 102.724 38.7531 102.175 38.0541 101.175C36.9954 99.6606 37.2449 97.5954 38.6313 96.3772C40.6762 94.5788 41.6943 92.8878 41.6595 91.3563C41.6131 89.2912 39.7538 86.7242 36.2819 83.931C34.8519 82.7823 34.5067 80.7462 35.4755 79.1886C36.4443 77.631 38.4225 77.0422 40.0845 77.8166C46.309 80.7201 50.5438 79.6295 54.2449 74.1706C55.2369 72.7117 57.1339 72.1751 58.7408 72.9031C60.3477 73.6311 61.1975 75.4092 60.7566 77.1176C59.2338 82.9854 61.1366 88.7458 66.5722 94.7326C67.7759 96.0581 67.8311 98.0624 66.7056 99.4517C65.5773 100.841 63.605 101.204 62.059 100.299C56.9714 97.3286 50.6599 97.9754 42.7559 102.277C42.2077 102.576 41.6131 102.718 41.0243 102.718L41.0272 102.724ZM47.8231 86.5472C48.5134 88.0816 48.8702 89.6276 48.905 91.1968C48.9108 91.4811 48.905 91.7653 48.8905 92.0467C51.1442 91.4869 53.3225 91.2171 55.408 91.2316C54.3928 89.1171 53.6938 86.9823 53.3167 84.833C51.5938 85.767 49.7578 86.3384 47.8202 86.5472H47.8231Z" fill="#292966"/>
<path d="M54.7209 153.014C54.0335 152.109 53.0038 151.534 51.8755 151.285C49.8277 150.218 47.1882 150.247 45.4392 151.993C44.1311 153.295 43.3508 154.751 43.2609 156.596C43.2 157.82 43.5016 158.58 43.7511 159.676C43.7772 159.792 43.7917 159.905 43.7975 160.004C43.8062 159.9 43.8207 159.769 43.8439 159.604C43.8033 159.926 43.8236 160.311 43.8091 160.639C43.7685 160.775 43.7163 160.909 43.667 161.042C43.638 161.092 43.6061 161.141 43.5771 161.193C43.4378 161.153 43.2986 161.112 43.1623 161.063C42.8142 160.941 41.3204 160.207 42.8026 160.964C41.4452 160.268 40.166 159.836 38.6142 160.137C37.2336 160.407 35.6905 161.358 34.9596 162.588C33.5267 164.99 33.7645 168.99 36.5868 170.434C38.1298 171.223 40.0529 171.969 42.0456 172.41C43.2928 173.506 44.9983 174.016 46.8431 173.764C51.3592 173.152 55.214 169.889 56.876 165.706C58.6019 161.37 57.459 156.625 54.7267 153.017L54.7209 153.014Z" fill="#FF7534"/>
<path d="M43.7976 160.001C43.7512 160.514 43.8208 160.349 43.7976 160.001V160.001Z" fill="#FF7534"/>
<path d="M39.8035 175.293C33.2947 175.293 28.6596 172.601 26.1246 169.312C23.2646 165.602 22.9195 160.886 25.266 157.573C26.4001 155.972 29.553 152.845 36.4302 153.826C37.2336 148.509 39.2263 145.255 42.3821 144.126C45.2072 143.117 48.3601 144.193 50.8111 147.004C53.059 149.579 54.6224 153.423 55.0952 157.544C55.6434 162.307 54.75 167.107 52.5137 171.423C52.1018 172.218 51.4086 172.833 50.5703 173.149C46.556 174.658 42.9564 175.293 39.7977 175.293H39.8035ZM33.9009 160.897C32.4738 160.897 31.5457 161.251 31.1831 161.765C30.7741 162.342 30.8756 163.601 31.8676 164.883C34.9306 168.851 41.4655 168.479 46.672 166.829C49.2129 160.836 47.4667 155.74 46.8344 154.246C46.1064 152.529 45.2478 151.563 44.7373 151.178C44.3167 151.827 43.4524 153.724 43.3016 158.441C43.2639 159.583 42.6924 160.642 41.7556 161.298C40.8187 161.953 39.6266 162.127 38.5418 161.768C36.668 161.147 35.1075 160.897 33.9038 160.897H33.9009Z" fill="#292966"/>
<path d="M136.202 134.555L132.411 134.528C125.473 134.479 119.307 130.294 116.699 123.863L93.4541 66.5658C89.9155 57.8352 94.1358 47.8487 102.866 44.3071L199.959 4.92067C204.359 3.13684 209.096 3.14844 213.29 4.95838C217.377 6.72191 220.556 10.0662 222.235 14.3793C223.3 17.1145 223.886 20.0296 224.448 22.8489C225.559 28.3918 226.412 31.8464 228.88 33.1081C230.464 33.9174 234.223 32.7572 237.541 31.7333C243.235 29.9784 249.689 27.9887 255.354 31.3069C264.003 36.3683 266.892 53.496 268.313 65.9364C269.534 76.6568 266.103 84.2243 258.657 87.2438L258.596 87.267L235.862 96.0063L234.821 92.1138C233.388 86.7652 229.971 83.6384 227.68 84.0735C225.095 84.5637 223.053 89.5758 224.187 95.5509C224.274 96.0092 224.376 96.4559 224.495 96.8852L225.356 100.047L150.148 128.968L148.634 126.163C146.801 122.767 143.828 120.818 141.241 121.305C138.105 121.899 135.875 125.966 136.057 130.766L136.199 134.555H136.202ZM206.654 10.8436C205.334 10.8436 203.991 11.1075 202.686 11.6354L105.593 51.0219C100.566 53.0609 98.1356 58.8098 100.175 63.8364L123.417 121.134C124.478 123.747 126.561 125.717 129.099 126.659C130.219 120.206 134.352 115.228 139.892 114.175C144.785 113.244 149.78 115.492 153.26 120L216.849 95.548C215.581 86.2605 219.593 78.2231 226.334 76.944C231.932 75.8795 237.486 79.7633 240.494 86.4548L255.969 80.5058C261.268 78.3362 261.694 71.8332 261.117 66.7544C258.594 44.6726 254.132 38.9846 251.699 37.5575C248.784 35.852 244.158 37.2762 239.685 38.6569C234.821 40.1564 229.788 41.7082 225.585 39.556C219.822 36.6091 218.505 30.051 217.348 24.2673C216.843 21.7525 216.321 19.1507 215.486 17.0043C214.502 14.478 212.753 12.6129 210.427 11.6122C209.235 11.0988 207.959 10.8407 206.659 10.8407L206.654 10.8436Z" fill="#292966"/>
<path d="M203.611 49.4929C203.173 49.4929 202.729 49.4146 202.302 49.2522C200.275 48.4806 199.837 46.7751 198.883 43.0392C198.384 41.0842 197.746 38.3925 196.992 35.0366C195.715 29.3573 194.52 23.6433 194.506 23.5853C194.164 21.9494 194.984 20.2903 196.493 19.5709L216.19 10.179C217.997 9.31751 220.161 10.0833 221.023 11.8903C221.884 13.6973 221.118 15.8611 219.311 16.7226L202.189 24.8876C203.463 30.8714 204.826 36.9481 205.757 40.6782C208.823 39.1351 214.163 36.484 223.546 31.8808C225.344 30.9991 227.517 31.7416 228.399 33.5399C229.28 35.3383 228.538 37.5108 226.74 38.3925C219.23 42.0762 206.952 48.1383 205.583 48.9128C204.985 49.2986 204.298 49.4987 203.605 49.4987L203.611 49.4929ZM205.789 48.7707C205.737 48.8113 205.682 48.849 205.627 48.8867C205.702 48.8374 205.754 48.7968 205.789 48.7707ZM202.03 42.6041C201.856 42.6882 201.688 42.7897 201.528 42.9058C201.603 42.8507 201.728 42.7723 202.03 42.6041Z" fill="#292966"/>
<path d="M185.094 114.367C183.644 114.367 182.278 113.493 181.718 112.061L159.418 55.0708C158.705 53.2492 159.566 51.1927 161.362 50.4183L188.717 38.6363C189.601 38.2563 190.599 38.2418 191.493 38.5986C192.386 38.9554 193.102 39.6486 193.482 40.5333L217.679 96.7051C218.471 98.5441 217.621 100.676 215.782 101.471C213.943 102.263 211.811 101.413 211.016 99.5738L188.256 46.7317L167.447 55.6944L188.47 109.418C189.201 111.283 188.279 113.386 186.414 114.117C185.979 114.285 185.532 114.367 185.094 114.367Z" fill="#292966"/>
<path d="M199.086 108.34C197.65 108.34 196.293 107.484 195.725 106.072L172.813 49.3458C172.062 47.4895 172.961 45.375 174.817 44.6266C176.674 43.8754 178.788 44.7745 179.537 46.6309L202.448 103.357C203.199 105.213 202.3 107.328 200.444 108.076C200 108.256 199.539 108.34 199.086 108.34Z" fill="#292966"/>
<path d="M116.534 114.573C115.084 114.573 113.718 113.7 113.158 112.267C112.427 110.402 113.349 108.299 115.214 107.568L174.742 84.2768C176.607 83.5488 178.71 84.4682 179.441 86.3333C180.172 88.1983 179.25 90.3012 177.385 91.0322L117.857 114.323C117.422 114.492 116.975 114.573 116.537 114.573H116.534Z" fill="#292966"/>
<path d="M205.032 80.1605C203.628 80.1605 202.294 79.3396 201.702 77.9648C200.91 76.1258 201.763 73.9911 203.602 73.1992C204.669 72.738 255.319 52.4922 261.091 50.1863C262.95 49.4438 265.059 50.3487 265.804 52.208C266.547 54.0672 265.642 56.1759 263.782 56.9214C244.468 64.6426 207.628 79.3745 206.462 79.8675C205.995 80.0677 205.511 80.1634 205.032 80.1634V80.1605Z" fill="#292966"/>
<path d="M248.54 52.5885C245.277 52.5885 242.182 51.7705 240.196 49.3282C234.925 42.8571 239.085 33.4739 239.578 32.4268C240.428 30.614 242.588 29.8337 244.398 30.6836C246.208 31.5334 246.989 33.6856 246.147 35.4956C245.411 37.0996 243.769 42.2335 245.82 44.7512C246.188 45.2037 248.05 45.8128 252.453 44.8585C255.989 44.0928 259.18 42.7353 259.211 42.7208C261.05 41.9319 263.182 42.7817 263.974 44.6207C264.766 46.4596 263.916 48.5886 262.08 49.3805C260.366 50.1172 254.208 52.5885 248.543 52.5885H248.54Z" fill="#292966"/>
<path d="M231.16 112.243C225.237 112.243 219.677 106.892 217.501 98.7761C217.339 98.1786 217.191 97.5434 217.069 96.8995C215.201 87.0521 219.271 78.2867 226.333 76.9467C232.915 75.6965 239.432 81.283 241.831 90.2282C241.999 90.846 242.147 91.4842 242.266 92.1194C243.104 96.534 242.762 100.952 241.297 104.557C239.638 108.647 236.616 111.385 233.005 112.069C232.39 112.185 231.772 112.243 231.16 112.243ZM228.12 84.0298C227.969 84.0298 227.824 84.0443 227.682 84.0704C225.098 84.5606 223.056 89.5727 224.19 95.5478C224.277 96.0061 224.379 96.4528 224.497 96.8821C225.936 102.248 229.35 105.378 231.647 104.943C232.793 104.725 233.857 103.591 234.574 101.827C235.505 99.5303 235.711 96.4847 235.137 93.4652C235.05 93.0128 234.948 92.5632 234.829 92.1252V92.1078C233.48 87.0899 230.391 84.0269 228.12 84.0269V84.0298Z" fill="#292966"/>
<path d="M144.408 149.504C141.191 149.504 137.948 148.181 135.259 145.719C132.205 142.926 130.053 138.908 129.197 134.404C128.985 133.29 128.858 132.159 128.814 131.042C128.495 122.546 133.153 115.457 139.891 114.178C145.687 113.079 151.621 116.429 155.015 122.715C156.074 124.675 156.828 126.816 157.254 129.076C158.11 133.577 157.582 138.105 155.763 141.823C153.802 145.835 150.449 148.561 146.56 149.301C145.846 149.437 145.124 149.504 144.405 149.504H144.408ZM142.052 121.23C141.78 121.23 141.51 121.253 141.246 121.305C138.111 121.9 135.88 125.966 136.063 130.767C136.092 131.521 136.182 132.292 136.324 133.052C137.4 138.708 141.466 142.888 145.214 142.177C148.956 141.467 151.209 136.083 150.136 130.427C149.846 128.899 149.344 127.463 148.639 126.16C146.995 123.115 144.434 121.23 142.055 121.23H142.052Z" fill="#292966"/>
<path d="M118.233 81.1378C117.56 81.1378 116.896 80.9521 116.316 80.5896C115.463 80.0588 114.868 79.1973 114.677 78.2111L111.524 62.1798C111.179 60.4192 112.174 58.6673 113.865 58.064L144.367 47.1898C145.344 46.8418 146.421 46.9288 147.331 47.4277C148.239 47.9266 148.892 48.7909 149.121 49.8003L153.315 68.2478C153.747 70.1476 152.602 72.0475 150.719 72.5522L119.176 81.0101C118.865 81.0943 118.552 81.1349 118.236 81.1349L118.233 81.1378ZM119.243 63.8476L121.044 73.0047L145.469 66.4552L142.954 55.3926L119.243 63.8476Z" fill="#292966"/>
<path d="M133.386 77.0744C131.785 77.0744 130.32 76.007 129.885 74.3856L125.656 58.6182C125.137 56.6836 126.285 54.6967 128.22 54.1775C130.155 53.6583 132.142 54.8069 132.661 56.7416L136.89 72.5089C137.409 74.4436 136.26 76.4304 134.326 76.9496C134.012 77.0338 133.696 77.0744 133.383 77.0744H133.386Z" fill="#292966"/>
<path d="M6.93413 125.71C5.7217 125.71 4.50348 125.705 3.26785 125.693C1.26647 125.673 -0.340426 124.034 -0.320122 122.032C-0.299818 120.043 1.31868 118.444 3.30555 118.444C3.31715 118.444 3.33166 118.444 3.34326 118.444C40.1917 118.807 68.005 113.296 88.3726 101.575C90.1071 100.577 92.3231 101.175 93.3238 102.909C94.3216 104.644 93.7241 106.863 91.9896 107.86C80.4309 114.511 67.1087 119.172 51.2573 122.108C38.17 124.53 23.6383 125.716 6.93703 125.716L6.93413 125.71Z" fill="#292966"/>
<path d="M75.7613 183.42C73.8788 183.42 72.2894 181.966 72.1501 180.058C71.161 166.527 72.1153 155.479 75.0652 146.278C78.5052 135.549 84.8313 127.161 93.8636 121.351C95.5488 120.269 97.7909 120.753 98.8728 122.439C99.9576 124.124 99.4703 126.366 97.7851 127.451C83.3143 136.759 77.4639 153.309 79.3812 179.533C79.5262 181.531 78.0266 183.269 76.0282 183.414C75.9382 183.42 75.8483 183.423 75.7613 183.423V183.42Z" fill="#292966"/>
</g>
<defs>
<clipPath id="clip0_2100_7330">
<rect width="270" height="183" fill="white"/>
</clipPath>
</defs>
</svg>
