<svg width="333" height="333" viewBox="0 0 333 333" fill="none" xmlns="http://www.w3.org/2000/svg">
<path d="M221.917 296.152C220.243 292.721 217.953 289.58 215.608 286.546C212.658 282.731 209.175 279.142 207.311 274.623C205.447 270.104 206.52 264.3 209.716 260.42C210.424 259.559 211.275 258.815 211.871 257.876C212.847 256.34 213.055 254.435 212.93 252.622C212.5 246.323 205.544 249.324 201.373 248.89C197.464 248.483 194.435 245.814 190.536 245.328C185.416 244.69 181.42 252.405 179.963 256.266C177.998 261.46 177.387 267.033 175.889 272.361C174.168 278.471 172.531 285.071 175.103 291.199C176.217 293.854 178.359 295.806 181.443 295.338C181.938 295.264 182.812 294.723 183.243 294.76C183.816 294.811 184.232 295.426 184.649 295.866C185.768 297.04 186.822 298.271 187.858 299.519C189.926 302.022 191.882 304.616 194.005 307.077C199.384 313.307 207.385 319.671 216.182 317.871C224.965 316.072 225.649 305.911 223.105 298.946C222.759 297.998 222.361 297.073 221.921 296.166L221.917 296.152Z" fill="#313EE2"/>
<path d="M132.122 246.036C124.546 246.36 117.049 245.791 109.64 244.177C100.561 242.202 101.227 255.781 101.37 261.29C101.653 272.177 102.448 281.764 96.7454 291.662C94.1231 296.213 90.5711 300.218 86.3901 303.391C82.2091 306.564 76.4926 308.441 73.1487 312.72C70.8871 315.61 71.0212 319.819 73.6019 322.474C77.6211 326.608 85.1644 324.837 90.0161 323.385C94.7336 321.974 99.1736 319.615 102.952 316.457C103.854 315.703 112.258 308.372 112.017 308.178C112.285 308.395 112.563 308.603 112.864 308.788C118.913 312.53 125.097 307.84 127.691 302.276C129.759 297.846 130.133 292.763 131.123 288.054C132.265 282.62 132.931 277.056 133.676 271.557C134.411 266.1 134.499 259.68 137.117 254.731C139.073 251.036 136.696 245.837 132.127 246.032L132.122 246.036Z" fill="#313EE2"/>
<path d="M226.292 156.575C225.145 149.577 218.665 145.923 212 148.116C206.742 149.845 202.7 153.684 198.916 157.56C195.443 161.121 191.812 164.516 187.765 167.425C179.482 173.391 170.218 177.831 160.279 180.204C154.993 181.466 149.632 182.077 144.198 182.012C143.606 182.003 143.009 181.975 142.413 181.938C141.326 181.3 140.244 180.657 139.134 180.074C137.284 179.103 135.124 178.044 132.913 177.47C127.627 175.533 121.989 174.959 116.67 177.438C111.615 179.792 107.864 185.042 107.808 190.689C107.684 202.959 122.47 208.217 132.256 210.178C138.185 211.367 144.267 211.968 150.294 212.426C156.269 212.879 162.296 213.037 168.262 212.357C180.458 210.965 191.202 205.984 201.122 198.88C210.15 192.418 218.309 184.302 222.809 173.997C225.122 168.711 227.24 162.402 226.282 156.57L226.292 156.575Z" fill="#FF7534"/>
<path d="M159.853 210.937C137.848 210.937 114.205 206.839 99.9782 188.076C92.5227 178.243 87.4629 163.697 86.1032 148.171C84.8082 133.408 87.0421 119.718 92.0833 111.55C102.323 94.9605 128.168 81.2797 141.464 79.1522C154.475 77.071 179.607 78.9996 194.731 89.799C209.558 100.39 224.668 125.268 224.294 148.564C224.09 161.214 219.174 176.097 211.468 187.4C204.734 197.279 192.728 209.3 173.761 210.465C169.279 210.743 164.608 210.932 159.863 210.932L159.853 210.937ZM152.102 80.7155C148.235 80.7155 144.725 80.9745 141.83 81.437C128.958 83.4951 103.951 96.7226 94.0536 112.767C89.2667 120.523 87.1577 133.686 88.4111 147.972C89.7338 163.077 94.6271 177.184 101.828 186.683C118.46 208.615 148.929 209.684 173.617 208.167C191.65 207.057 203.116 195.559 209.558 186.105C217.023 175.153 221.782 160.756 221.981 148.532C222.346 125.994 207.731 101.93 193.389 91.686C182.146 83.6524 165.107 80.7155 152.107 80.7155H152.102Z" fill="#292966"/>
<path d="M181.017 173.706C174.26 173.706 166.819 173.211 158.891 172.198C133.537 168.956 111.032 161.338 100.163 152.315C99.6728 151.908 99.6034 151.177 100.01 150.687C100.417 150.197 101.148 150.127 101.638 150.534C112.026 159.16 134.615 166.763 159.183 169.904C184.25 173.109 204.873 170.986 212.999 164.372C213.494 163.97 214.225 164.044 214.627 164.539C215.03 165.034 214.956 165.764 214.461 166.167C208.383 171.116 196.479 173.71 181.017 173.71V173.706Z" fill="#292966"/>
<path d="M122.141 194.541C121.646 194.541 121.184 194.217 121.036 193.718C117.114 180.671 118.02 164.118 123.815 143.106C123.986 142.491 124.62 142.13 125.235 142.297C125.85 142.468 126.211 143.102 126.045 143.717C120.37 164.293 119.459 180.43 123.251 193.047C123.436 193.658 123.089 194.305 122.479 194.485C122.368 194.518 122.257 194.536 122.146 194.536L122.141 194.541Z" fill="#292966"/>
<path d="M151.047 197.848C150.881 197.848 150.714 197.811 150.557 197.737C149.979 197.464 149.729 196.775 150.002 196.197C154.248 187.173 156.056 171.888 157.384 156.713C157.439 156.075 158.003 155.608 158.637 155.663C159.275 155.719 159.742 156.278 159.687 156.917C158.341 172.304 156.491 187.83 152.093 197.182C151.894 197.603 151.478 197.848 151.047 197.848Z" fill="#292966"/>
<path d="M174.903 197.848C174.561 197.848 174.219 197.695 173.992 197.404C173.599 196.9 173.691 196.174 174.195 195.78C186.419 186.253 191.891 164.303 196.062 144.48C196.192 143.856 196.807 143.453 197.431 143.587C198.056 143.717 198.458 144.332 198.324 144.956C194.069 165.181 188.454 187.599 175.615 197.607C175.402 197.774 175.153 197.852 174.903 197.852V197.848Z" fill="#292966"/>
<path d="M167.323 188.945C149.97 188.945 130.356 185.115 113.673 177.812C113.09 177.558 112.822 176.874 113.077 176.291C113.331 175.708 114.015 175.44 114.598 175.694C141.955 187.668 177.262 190.18 196.72 181.531C197.302 181.272 197.987 181.531 198.246 182.118C198.505 182.701 198.246 183.386 197.659 183.645C189.625 187.215 178.983 188.945 167.323 188.945Z" fill="#292966"/>
<path d="M116.573 106.786C116.207 106.786 115.846 106.615 115.624 106.291C115.259 105.769 115.389 105.047 115.916 104.682C127.506 96.6252 152.245 96.3986 178.437 96.1581L182.553 96.1211C183.186 96.135 183.714 96.6252 183.723 97.2635C183.728 97.9017 183.219 98.4243 182.581 98.4336L178.464 98.4706C153.771 98.6972 128.241 98.9331 117.239 106.583C117.035 106.722 116.808 106.791 116.582 106.791L116.573 106.786Z" fill="#292966"/>
<path d="M165.671 104.872C165.047 104.872 164.534 104.377 164.515 103.748C164.339 97.4117 162.554 92.5092 158.359 86.8251C157.98 86.3117 158.091 85.5856 158.604 85.2064C159.118 84.8271 159.844 84.9381 160.223 85.4515C164.723 91.5472 166.638 96.829 166.832 103.683C166.851 104.321 166.347 104.853 165.708 104.872C165.699 104.872 165.685 104.872 165.676 104.872H165.671Z" fill="#292966"/>
<path d="M142.339 103.304C141.77 103.304 141.275 102.883 141.196 102.305C140.433 96.8379 138.578 92.976 135.521 90.5062C135.026 90.1039 134.948 89.3777 135.35 88.8782C135.753 88.3834 136.479 88.3047 136.978 88.7071C140.516 91.5654 142.644 95.9036 143.49 101.985C143.578 102.619 143.139 103.202 142.505 103.29C142.45 103.299 142.399 103.299 142.343 103.299L142.339 103.304Z" fill="#292966"/>
<path d="M172.271 127.918C172.271 128.219 172.147 129.204 170.528 129.204C168.909 129.204 168.784 128.219 168.784 127.918C168.784 127.617 168.909 126.632 170.528 126.632C172.147 126.632 172.271 127.617 172.271 127.918Z" fill="#292966"/>
<path d="M170.787 135.605C168.229 135.605 165.866 135.138 163.729 134.199C163.146 133.945 162.878 133.26 163.132 132.677C163.387 132.09 164.071 131.826 164.654 132.081C167.521 133.334 170.893 133.616 174.69 132.918C175.319 132.802 175.92 133.218 176.036 133.843C176.152 134.467 175.735 135.073 175.111 135.189C173.617 135.466 172.174 135.6 170.787 135.6V135.605Z" fill="#292966"/>
<path d="M211.293 92.051C210.988 92.051 210.687 91.9307 210.46 91.6995C210.016 91.2416 210.03 90.5062 210.488 90.0622L217.8 83.0091C218.258 82.5651 218.993 82.579 219.433 83.0368C219.877 83.4947 219.863 84.2301 219.405 84.6741L212.093 91.7272C211.866 91.9446 211.58 92.051 211.288 92.051H211.293Z" fill="#292966"/>
<path d="M218.605 96.0844C218.198 96.0844 217.8 95.867 217.592 95.4877C217.282 94.9281 217.486 94.2251 218.045 93.9152L225.358 89.8822C225.917 89.5724 226.62 89.7759 226.93 90.3355C227.24 90.8951 227.036 91.5981 226.477 91.908L219.165 95.941C218.989 96.0381 218.795 96.0844 218.61 96.0844H218.605Z" fill="#292966"/>
<path d="M222.259 103.304C221.653 103.304 221.144 102.832 221.107 102.221C221.065 101.583 221.551 101.033 222.189 100.996L233.16 100.297C233.798 100.256 234.348 100.741 234.385 101.38C234.427 102.018 233.941 102.568 233.303 102.605L222.333 103.304C222.309 103.304 222.282 103.304 222.259 103.304Z" fill="#292966"/>
<path d="M95.8524 90.7653C95.339 90.7653 94.8673 90.4184 94.7332 89.9004L92.12 79.8549C91.9582 79.2351 92.3282 78.6061 92.9479 78.4443C93.5677 78.2824 94.1967 78.6524 94.3585 79.2721L96.9717 89.3176C97.1335 89.9374 96.7635 90.5664 96.1438 90.7283C96.0467 90.756 95.9495 90.7653 95.8524 90.7653Z" fill="#292966"/>
<path d="M90.6262 94.0675C90.2886 94.0675 89.9556 93.9195 89.729 93.6374L84.2437 86.8664C83.8414 86.3715 83.92 85.6407 84.4149 85.2384C84.9097 84.836 85.6405 84.9146 86.0429 85.4095L91.5281 92.1805C91.9305 92.6754 91.8519 93.4061 91.357 93.8085C91.1442 93.9842 90.8852 94.0675 90.6309 94.0675H90.6262Z" fill="#292966"/>
<path d="M89.3222 100.408C89.2204 100.408 89.1233 100.394 89.0215 100.367L76.4832 96.9951C75.868 96.8286 75.5027 96.195 75.6692 95.5798C75.8357 94.9647 76.4693 94.5993 77.0844 94.7658L89.6228 98.1375C90.2379 98.304 90.6033 98.9376 90.4368 99.5527C90.298 100.071 89.8309 100.408 89.3222 100.408Z" fill="#292966"/>
<path d="M102.902 94.9233C100.117 102.915 93.9615 106.828 85.1416 107.522C92.1947 107.119 95.8762 110.81 95.8485 119.015C97.5505 114.552 102.212 112.831 110.389 114.376C101.921 109.649 100.682 102.795 102.902 94.928V94.9233Z" fill="white"/>
<path d="M95.853 120.171C95.7836 120.171 95.7142 120.167 95.6402 120.153C95.0899 120.051 94.6921 119.57 94.6967 119.01C94.7106 115.088 93.8319 112.258 92.079 110.602C90.5481 109.155 88.2402 108.507 85.2109 108.678C84.5772 108.715 84.0361 108.234 83.9899 107.601C83.9482 106.967 84.42 106.421 85.0536 106.37C93.7995 105.681 99.2801 101.815 101.81 94.5442C102.013 93.9522 102.652 93.6331 103.248 93.8227C103.845 94.0123 104.183 94.6367 104.011 95.238C101.639 103.637 103.845 109.395 110.949 113.363C111.444 113.641 111.666 114.233 111.472 114.769C111.277 115.301 110.727 115.616 110.172 115.509C102.795 114.117 98.4615 115.398 96.926 119.422C96.7549 119.875 96.3201 120.167 95.8484 120.167L95.853 120.171ZM91.6026 107.48C92.3704 107.864 93.0595 108.345 93.67 108.923C95.2795 110.45 96.3155 112.646 96.7595 115.472C98.7714 113.465 101.842 112.526 105.949 112.683C102.508 109.659 100.797 105.889 100.783 101.297C98.5031 104.197 95.4367 106.259 91.6072 107.48H91.6026Z" fill="#292966"/>
<path d="M224.09 111.527C223.757 117.026 215.34 120.939 208.768 121.031C217.227 121.054 216.302 129.273 215.733 138.689C218.716 129.694 225.006 124.463 236.975 125.689C229.696 123.815 225.288 116.374 224.09 111.527Z" fill="white"/>
<path d="M215.733 139.846C215.659 139.846 215.585 139.837 215.516 139.823C214.947 139.712 214.544 139.198 214.581 138.616L214.66 137.325C215.021 131.549 215.363 126.096 213.115 123.691C212.172 122.682 210.747 122.188 208.768 122.183C208.134 122.183 207.616 121.67 207.616 121.031C207.616 120.398 208.12 119.88 208.754 119.87C216.464 119.759 222.708 115.255 222.939 111.453C222.971 110.884 223.42 110.422 223.989 110.371C224.558 110.324 225.08 110.69 225.214 111.245C226.297 115.629 230.404 122.793 237.267 124.565C237.854 124.717 238.224 125.291 238.118 125.888C238.012 126.484 237.466 126.896 236.86 126.836C226.315 125.758 219.951 129.638 216.834 139.05C216.677 139.531 216.228 139.841 215.738 139.841L215.733 139.846ZM214.05 121.434C214.318 121.642 214.568 121.868 214.799 122.114C216.991 124.454 217.347 128.219 217.213 132.709C220.386 127.64 225.122 124.898 231.523 124.426C227.878 121.901 225.464 118.159 224.1 115.042C223.105 116.638 221.491 118.094 219.341 119.311C217.745 120.213 215.923 120.934 214.054 121.429L214.05 121.434Z" fill="#292966"/>
<path d="M128.847 155.404C133.218 160.029 129.014 165.676 123.973 171.425C129.537 169.649 135.221 171.347 141.034 176.758C138.541 169.154 137.418 162.111 143.994 158.193C137.603 161.865 132.515 161.075 128.847 155.409V155.404Z" fill="white"/>
<path d="M141.034 177.914C140.747 177.914 140.465 177.808 140.248 177.604C134.776 172.512 129.568 170.852 124.324 172.526C123.829 172.683 123.288 172.494 123.006 172.059C122.719 171.624 122.76 171.055 123.103 170.662C129.296 163.609 130.35 160.177 129.078 157.67C128.667 157.18 128.269 156.634 127.876 156.033C127.552 155.534 127.663 154.863 128.13 154.498C128.602 154.128 129.272 154.179 129.684 154.613C130.211 155.173 130.628 155.737 130.951 156.315C134.087 159.983 138.092 160.247 143.416 157.189C143.966 156.87 144.669 157.06 144.988 157.606C145.307 158.156 145.127 158.859 144.581 159.183C138.957 162.531 139.535 168.484 142.13 176.392C142.296 176.892 142.098 177.442 141.654 177.729C141.464 177.849 141.247 177.909 141.029 177.909L141.034 177.914ZM128.218 169.589C131.756 169.589 135.308 170.879 138.851 173.446C137.708 169.006 137.362 164.737 139.262 161.306C136.816 161.814 134.24 161.629 131.835 160.122C131.659 163.429 129.374 166.782 127.025 169.64C127.422 169.608 127.82 169.589 128.218 169.589Z" fill="#292966"/>
<path d="M25.5943 277.449C25.4602 277.449 25.3214 277.439 25.1827 277.421C21.6214 276.954 18.222 268.462 17.2693 257.672C15.7708 240.643 17.7873 223.123 23.106 206.996C27.6339 193.269 34.5252 180.768 43.5809 169.843C54.6439 156.505 69.0554 145.405 86.413 136.849C86.9865 136.567 87.6803 136.802 87.9624 137.376C88.2445 137.949 88.0087 138.643 87.4352 138.925C56.184 154.322 35.2837 177.47 25.3029 207.718C20.0813 223.544 18.1018 240.749 19.5725 257.464C20.6132 269.295 24.2669 274.965 25.4833 275.127C25.6914 275.155 25.8394 275.113 26.0059 274.988C26.6627 274.479 27.0465 272.972 27.1298 272.32C27.2084 271.686 27.7865 271.237 28.4202 271.316C29.0538 271.395 29.5024 271.973 29.4238 272.602C29.3868 272.902 29.0168 275.58 27.4212 276.815C26.88 277.231 26.2557 277.449 25.5943 277.449Z" fill="#292966"/>
<path d="M31.2367 278.119C30.6956 278.119 30.1683 277.939 29.6873 277.578C26.2926 275.044 25.3814 262.149 25.2334 259.592C25.1964 258.953 25.6821 258.408 26.3203 258.371C26.9586 258.334 27.5043 258.819 27.5413 259.457C27.8836 265.373 29.2063 274.331 31.0702 275.724C31.1997 275.821 31.2459 275.807 31.2829 275.798C32.8786 275.423 33.0913 267.491 31.7269 259.161C31.6252 258.542 32.0368 257.954 32.6566 257.839C33.2717 257.723 33.8729 258.121 34.0024 258.736C35.9912 268.157 39.2194 273.948 41.0463 273.901C41.2313 273.901 41.4348 273.855 41.6568 273.573C43.2154 271.598 42.3228 264.027 41.3978 259.716C41.2683 259.124 41.6244 258.532 42.2026 258.366C42.7853 258.195 43.4004 258.505 43.6086 259.074C44.7463 262.126 47.2207 266.344 48.9273 265.71C49.0013 265.683 49.0661 265.558 49.0984 265.484C49.6396 264.286 49.2464 259.115 45.8887 250.346C45.6667 249.768 45.9396 249.121 46.5038 248.875C47.0681 248.626 47.7294 248.866 48.0023 249.421C48.6406 250.702 49.9818 252.506 50.8328 252.557C51.2676 252.58 51.5821 252.464 51.7671 252.205C51.9659 251.923 51.9983 251.502 51.8503 251.151C47.9329 241.975 49.3621 225.649 55.3191 211.455C62.7191 193.815 76.2148 180.421 93.3181 173.733C93.9147 173.502 94.5853 173.793 94.8166 174.39C95.0478 174.986 94.7564 175.657 94.1598 175.888C72.9958 184.162 62.5156 200.285 57.4512 212.352C50.7588 228.299 50.9577 243.173 53.9778 250.244C54.4449 251.336 54.32 252.594 53.6587 253.537C53.0112 254.458 51.9336 254.939 50.6987 254.869C50.3934 254.851 50.1021 254.786 49.8153 254.68C51.0687 258.773 52.2897 264.045 51.2028 266.441C50.8004 267.329 50.1807 267.718 49.7274 267.884C48.5018 268.337 46.6934 268.254 44.6353 265.724C44.9544 269.23 44.9128 273.184 43.4652 275.016C42.8593 275.784 42.036 276.205 41.0879 276.223C41.0648 276.223 41.0417 276.223 41.0186 276.223C38.5118 276.223 36.4722 273.212 34.9367 269.688C34.9228 274.886 33.9145 277.56 31.8055 278.059C31.6113 278.105 31.4217 278.129 31.2274 278.129L31.2367 278.119Z" fill="#292966"/>
<path d="M63.3297 199.198C62.9181 199.198 62.5203 198.981 62.3122 198.592C57.0952 188.963 49.4224 182.257 39.511 178.649C38.9097 178.432 38.5999 177.766 38.8219 177.169C39.0392 176.568 39.7052 176.258 40.3019 176.476C50.759 180.282 58.8481 187.349 64.3472 197.492C64.6525 198.051 64.4443 198.754 63.8801 199.06C63.7043 199.157 63.5147 199.198 63.3297 199.198Z" fill="#292966"/>
<path d="M59.9352 177.637C59.6438 177.637 59.3525 177.526 59.1258 177.308C58.668 176.86 58.6633 176.129 59.1073 175.671C65.106 169.538 71.8492 164.571 79.1382 160.913C79.7071 160.626 80.4055 160.857 80.6922 161.426C80.979 161.995 80.7477 162.693 80.1788 162.98C73.1165 166.527 66.5813 171.342 60.7631 177.29C60.5365 177.521 60.2358 177.637 59.9352 177.637Z" fill="#292966"/>
<path d="M78.3192 180.541C77.9215 180.541 77.5283 180.333 77.3156 179.963C73.3103 173.012 67.8806 167.064 61.1743 162.277C60.6563 161.907 60.5361 161.186 60.9061 160.663C61.2761 160.145 61.9976 160.02 62.5202 160.395C69.4947 165.371 75.1465 171.569 79.3182 178.807C79.6373 179.362 79.4477 180.07 78.8927 180.384C78.7123 180.491 78.5135 180.537 78.3146 180.537L78.3192 180.541Z" fill="#292966"/>
<path d="M68.0281 182.044C69.3833 185.642 68.9254 188.463 66.3955 190.401C69.5636 188.986 72.3756 190.318 74.9471 193.556C74.6604 190.693 74.8176 188.024 77.4724 186.484C74.2395 187.964 71.0945 186.433 68.0281 182.044Z" fill="white"/>
<path d="M74.9472 194.717C74.6003 194.717 74.2673 194.564 74.0407 194.277C70.8772 190.291 68.4306 190.758 66.8627 191.456C66.3262 191.697 65.6972 191.498 65.3966 190.994C65.0959 190.489 65.2208 189.842 65.6879 189.486C66.9876 188.491 68.5323 186.678 66.9413 182.456C66.7378 181.91 66.9691 181.3 67.4825 181.027C68.0005 180.754 68.6341 180.911 68.9717 181.387C73.0602 187.238 76.0156 185.883 76.9868 185.439C77.5465 185.18 78.2125 185.411 78.4946 185.957C78.7767 186.503 78.5824 187.178 78.0506 187.488C76.0433 188.658 75.8121 190.633 76.0942 193.449C76.1451 193.958 75.8537 194.444 75.3773 194.638C75.2386 194.694 75.0906 194.721 74.9426 194.721L74.9472 194.717ZM69.2723 188.686C70.8078 188.778 72.3017 189.43 73.7447 190.637C73.8279 189.777 74.0176 188.94 74.3829 188.168C72.866 188.001 71.3767 187.27 69.9152 185.98C69.8736 187.025 69.6331 187.923 69.2723 188.69V188.686Z" fill="#292966"/>
<path d="M268.24 151.288C268.041 151.288 267.843 151.237 267.658 151.131C258.889 146.02 251.243 137.302 244.935 125.222C244.639 124.657 244.861 123.959 245.425 123.663C245.989 123.367 246.688 123.584 246.984 124.153C253.084 135.841 260.433 144.244 268.823 149.137C269.373 149.461 269.563 150.169 269.239 150.719C269.027 151.089 268.638 151.293 268.24 151.293V151.288Z" fill="#292966"/>
<path d="M230.99 159.747C230.495 159.747 230.033 159.423 229.885 158.924C229.7 158.313 230.047 157.666 230.657 157.486C236.683 155.677 242.788 152.398 249.324 147.463C249.832 147.079 250.558 147.181 250.942 147.69C251.326 148.199 251.225 148.925 250.716 149.309C243.959 154.41 237.613 157.809 231.323 159.701C231.212 159.733 231.101 159.752 230.99 159.752V159.747Z" fill="#292966"/>
<path d="M242.28 163.78C241.79 163.78 241.332 163.466 241.18 162.971C238.876 155.635 235.967 149.859 232.286 145.317C231.883 144.822 231.962 144.091 232.457 143.689C232.952 143.287 233.682 143.365 234.085 143.86C237.951 148.633 240.995 154.66 243.386 162.277C243.575 162.887 243.238 163.535 242.627 163.725C242.512 163.762 242.396 163.78 242.28 163.78Z" fill="#292966"/>
<path d="M210.47 315.388C202.45 315.388 182.424 295.232 177.72 290.38C176.037 291.68 174.515 291.953 173.188 291.185C168.674 288.586 169.978 273.661 171.638 266.622C172.993 260.882 175.287 256.331 177.507 251.933C183.168 240.708 187.641 231.842 172.73 209.961C172.369 209.433 172.508 208.712 173.035 208.356C173.562 207.995 174.284 208.134 174.64 208.661C190.323 231.67 185.342 241.545 179.575 252.978C177.415 257.256 175.186 261.682 173.891 267.153C171.735 276.288 171.971 287.813 174.344 289.178C175.079 289.599 176.328 288.59 177.003 287.947C177.466 287.508 178.197 287.527 178.636 287.989C188.515 298.321 205.202 313.514 210.65 313.066C212.731 312.89 214.174 312.058 215.058 310.517C216.727 307.618 216.182 302.128 213.693 296.869C211.617 292.475 207.491 287.591 203.856 283.285C201.368 280.339 199.222 277.796 198.153 275.89C195.476 271.117 198.912 265.794 203.264 259.055C211.769 245.878 223.42 227.832 200.239 199.615C199.832 199.12 199.906 198.394 200.397 197.987C200.891 197.58 201.618 197.654 202.025 198.144C226.273 227.665 213.592 247.308 205.202 260.304C201.275 266.39 198.172 271.196 200.165 274.752C201.123 276.464 203.209 278.929 205.618 281.787C209.346 286.204 213.573 291.208 215.779 295.875C218.041 300.657 219.563 307.317 217.06 311.669C215.802 313.852 213.652 315.129 210.844 315.364C210.724 315.374 210.599 315.378 210.474 315.378L210.47 315.388Z" fill="#292966"/>
<path d="M79.5173 321.858C74.4807 321.858 69.0648 320.11 67.7791 314.995C66.6737 310.606 75.6185 302.105 86.5381 292.258C88.1568 290.797 89.5536 289.539 90.5896 288.558C92.5691 286.681 93.841 274.739 95.1915 262.094C97.3143 242.17 100.219 214.882 108.141 195.781C108.387 195.189 109.062 194.911 109.654 195.157C110.246 195.402 110.523 196.077 110.278 196.669C102.485 215.46 99.5991 242.558 97.4901 262.344C95.7095 279.054 94.6642 287.883 92.1806 290.242C91.1261 291.241 89.7155 292.513 88.0875 293.984C84.258 297.434 79.4942 301.73 75.7387 305.736C70.1101 311.734 69.865 313.82 70.0222 314.435C71.1553 318.926 76.9828 319.939 81.631 319.44C86.9682 318.866 107.374 309.598 110.287 301.388C110.44 300.963 110.824 300.662 111.273 300.625C111.721 300.583 112.156 300.81 112.378 301.199C113.765 303.613 114.579 303.696 114.797 303.664C115.333 303.585 116.818 302.618 119.029 295.45C120.675 290.108 122.326 282.791 124.236 274.323C129.088 252.803 135.124 226.019 146.039 208.615C146.376 208.074 147.093 207.912 147.634 208.25C148.175 208.588 148.337 209.304 148 209.846C137.293 226.912 131.303 253.482 126.493 274.831C121.859 295.389 119.44 305.301 115.148 305.953C113.631 306.184 112.396 305.158 111.541 304.098C106.301 312.77 87.4908 321.141 81.8853 321.743C81.1222 321.826 80.3267 321.868 79.5266 321.868L79.5173 321.858Z" fill="#292966"/>
<path d="M208.851 248.224C198.967 248.224 191.077 245.092 183.562 238.247C183.09 237.817 183.053 237.086 183.483 236.615C183.913 236.143 184.644 236.106 185.116 236.536C192.798 243.529 200.896 246.397 211.381 245.837C212.015 245.805 212.565 246.29 212.597 246.929C212.63 247.567 212.144 248.113 211.506 248.145C210.604 248.191 209.721 248.219 208.851 248.219V248.224Z" fill="#292966"/>
<path d="M128.223 245.148C119.708 245.148 110.449 242.817 98.919 237.831C98.3316 237.577 98.0633 236.897 98.3177 236.31C98.5721 235.722 99.2519 235.454 99.8393 235.708C113.118 241.448 123.228 243.575 132.635 242.613C133.269 242.549 133.838 243.011 133.902 243.645C133.967 244.278 133.505 244.847 132.871 244.912C131.34 245.069 129.795 245.148 128.228 245.148H128.223Z" fill="#292966"/>
<path d="M226.87 219.706C226.809 219.706 226.749 219.701 226.685 219.692L219.964 218.619C219.335 218.517 218.905 217.925 219.007 217.296C219.109 216.667 219.701 216.237 220.33 216.339L227.05 217.412C227.679 217.513 228.109 218.105 228.007 218.734C227.915 219.303 227.425 219.71 226.865 219.71L226.87 219.706Z" fill="#292966"/>
<path d="M219.41 214.975C218.998 214.975 218.601 214.757 218.393 214.369C218.087 213.809 218.295 213.106 218.86 212.801L224.146 209.938C224.71 209.633 225.409 209.841 225.714 210.405C226.019 210.965 225.811 211.668 225.247 211.973L219.96 214.836C219.785 214.928 219.595 214.975 219.41 214.975Z" fill="#292966"/>
<path d="M295.472 133.274C295.209 133.274 294.945 133.186 294.728 133.001L289.03 128.177C288.544 127.765 288.484 127.035 288.895 126.549C289.307 126.063 290.038 126.003 290.523 126.415L296.221 131.239C296.707 131.65 296.767 132.381 296.356 132.867C296.129 133.135 295.801 133.274 295.472 133.274Z" fill="#292966"/>
<path d="M290.63 140.216C290.265 140.216 289.909 140.045 289.682 139.721L286.685 135.443C286.32 134.92 286.444 134.199 286.967 133.834C287.49 133.468 288.211 133.593 288.577 134.12L291.574 138.398C291.939 138.921 291.814 139.643 291.291 140.008C291.088 140.151 290.857 140.216 290.63 140.216Z" fill="#292966"/>
<path d="M284.358 145.863C283.757 145.863 283.248 145.4 283.207 144.79L282.67 137.39C282.624 136.752 283.105 136.201 283.738 136.155C284.372 136.109 284.927 136.59 284.973 137.223L285.51 144.623C285.556 145.262 285.075 145.812 284.441 145.858C284.414 145.858 284.386 145.858 284.358 145.858V145.863Z" fill="#292966"/>
<path d="M64.2409 142.954C63.6119 142.954 63.0939 142.45 63.0846 141.816L63.006 136.918C62.9967 136.28 63.5055 135.753 64.1437 135.743C64.7959 135.73 65.3092 136.243 65.3185 136.881L65.3971 141.779C65.4064 142.417 64.8976 142.945 64.2594 142.954C64.2547 142.954 64.2455 142.954 64.2409 142.954Z" fill="#292966"/>
<path d="M58.3952 146.95C57.7939 146.95 57.2898 146.487 57.2436 145.877L56.8273 140.262C56.7811 139.624 57.2574 139.069 57.8957 139.023C58.5339 138.972 59.0889 139.453 59.1352 140.091L59.5514 145.706C59.5977 146.344 59.1213 146.899 58.4831 146.945C58.4553 146.945 58.4229 146.945 58.3952 146.945V146.95Z" fill="#292966"/>
<path d="M53.5573 151.357C53.3029 151.357 53.0439 151.274 52.8265 151.098L47.5957 146.843C47.1008 146.441 47.0268 145.71 47.4292 145.215C47.8315 144.72 48.5623 144.646 49.0572 145.049L54.288 149.304C54.7829 149.706 54.8569 150.437 54.4545 150.932C54.2279 151.214 53.8949 151.357 53.5573 151.357Z" fill="#292966"/>
<path d="M200.544 231.884C200.447 231.884 200.35 231.87 200.253 231.847C199.633 231.685 199.263 231.056 199.425 230.436C201.072 224.146 199.582 218.392 194.879 212.838C194.467 212.352 194.527 211.621 195.013 211.21C195.499 210.798 196.229 210.858 196.641 211.344C201.793 217.426 203.481 224.049 201.659 231.019C201.525 231.537 201.053 231.884 200.54 231.884H200.544Z" fill="#292966"/>
<path d="M190.411 223.577C189.815 223.577 189.31 223.119 189.26 222.513C189.209 221.875 189.68 221.32 190.319 221.269C194.611 220.922 199.245 219.599 204.897 217.102C205.479 216.843 206.164 217.107 206.423 217.694C206.682 218.277 206.418 218.961 205.831 219.22C199.934 221.829 195.064 223.212 190.504 223.577C190.471 223.577 190.439 223.577 190.411 223.577Z" fill="#292966"/>
<path d="M119.519 235.695C118.941 235.695 118.441 235.26 118.372 234.672C117.692 228.78 119.112 222.675 122.71 216.02C123.015 215.46 123.714 215.247 124.278 215.553C124.838 215.858 125.05 216.556 124.745 217.121C121.378 223.346 120.041 229.002 120.666 234.409C120.74 235.042 120.287 235.616 119.648 235.69C119.602 235.695 119.56 235.699 119.514 235.699L119.519 235.695Z" fill="#292966"/>
<path d="M129.541 225.834C129.471 225.834 129.407 225.829 129.337 225.816C121.47 224.419 113.464 222.777 109.639 219.507C109.154 219.091 109.098 218.36 109.514 217.879C109.931 217.393 110.661 217.338 111.142 217.754C114.528 220.649 122.515 222.259 129.74 223.545C130.369 223.656 130.79 224.257 130.674 224.886C130.572 225.446 130.086 225.839 129.536 225.839L129.541 225.834Z" fill="#292966"/>
<path d="M265.081 64.796C264.193 64.796 263.379 64.4445 262.704 63.7739C259.49 60.5688 260.031 49.8295 260.105 48.6131C260.142 47.9749 260.692 47.4939 261.326 47.5263C261.964 47.5633 262.45 48.1136 262.413 48.7473C262.163 52.9329 262.468 60.2681 264.337 62.132C264.665 62.4604 264.947 62.4881 265.151 62.4743C266.672 62.3771 268.212 57.5116 268.582 49.9868C268.536 47.3736 268.652 45.3063 268.656 45.1906C268.693 44.5709 269.207 44.0853 269.836 44.1038C270.455 44.1176 270.96 44.6171 270.969 45.2415C270.969 45.3618 270.997 47.2071 270.876 49.7139C270.969 55.0511 271.792 59.3663 272.907 59.4541C272.944 59.4588 273.022 59.4125 273.106 59.3385C274.789 57.8678 275.904 50.5279 276.352 45.0611C276.394 44.3258 276.445 43.595 276.5 42.8781C276.551 42.2491 277.097 41.7728 277.731 41.819C278.36 41.8606 278.841 42.4018 278.808 43.0354C278.785 43.4378 278.748 44.0945 278.683 44.9316C278.438 49.7509 278.776 54.103 279.497 54.8754C281.181 54.7968 283.091 52.6091 284.899 48.6733C286.449 45.3063 287.355 41.856 287.364 41.819C287.526 41.1993 288.155 40.8293 288.775 40.9911C289.395 41.153 289.765 41.782 289.603 42.4018C289.205 43.9234 285.57 57.1833 279.405 57.1879C279.363 57.1879 279.326 57.1879 279.285 57.1879C279.261 57.1879 279.238 57.1879 279.22 57.1879C278.309 57.1093 277.657 56.4294 277.194 55.3471C276.579 57.8955 275.746 60.097 274.627 61.0775C273.906 61.7065 273.193 61.7944 272.722 61.7574C271.404 61.651 270.423 60.7029 269.743 58.8344C268.804 62.6963 267.334 64.648 265.299 64.7775C265.225 64.7775 265.155 64.7821 265.081 64.7821V64.796Z" fill="#292966"/>
<path d="M202.658 114.982C198.621 112.735 192.502 112.503 187.886 112.79C184.168 113.021 180.366 114.117 176.596 114.386C176.245 114.39 175.893 114.409 175.547 114.437C174.844 114.455 174.145 114.441 173.447 114.381C170.829 114.145 168.295 113.142 165.737 112.628C162.842 112.045 159.845 111.685 156.88 111.569C151.14 111.342 145.29 112.129 139.846 113.757C139.647 113.817 139.453 113.886 139.263 113.965C137.973 114.178 136.757 114.876 135.91 116.222C134.416 118.594 134.588 121.258 136.29 123.483C137.908 125.597 140.656 126.448 143.347 126.947C148.31 127.868 153.448 128.21 158.499 127.766C163.702 127.308 168.424 126.092 173.34 124.593C175.399 123.969 176.925 123.636 179.011 124.265C181.342 124.968 183.571 125.805 185.985 126.277C190.481 127.16 196.04 127.794 200.568 126.684C206.788 125.157 208.287 118.118 202.654 114.987L202.658 114.982Z" fill="#313EE2"/>
<path d="M178.252 118.058C178.252 116.097 182.951 115.579 187.525 115.579C192.099 115.579 196.146 115.32 196.664 118.058C197.182 120.796 193.621 121.453 188.436 120.8C183.252 120.148 178.252 120.019 178.252 118.058Z" fill="#292966"/>
<path d="M191.799 122.193C190.767 122.193 189.602 122.109 188.293 121.948C187.396 121.832 186.498 121.735 185.638 121.642C180.865 121.124 177.096 120.713 177.096 118.058C177.096 115.574 180.407 114.423 187.525 114.423C187.895 114.423 188.26 114.423 188.621 114.423C193.006 114.404 197.145 114.381 197.802 117.845C198.065 119.237 197.543 120.148 197.057 120.662C196.095 121.689 194.361 122.197 191.799 122.197V122.193ZM179.417 118.039C179.94 118.696 183.511 119.085 185.888 119.344C186.762 119.441 187.668 119.538 188.584 119.654C193.769 120.306 195.092 119.376 195.374 119.075C195.503 118.941 195.619 118.738 195.531 118.271C195.249 116.8 192.737 116.707 188.63 116.726C188.265 116.726 187.9 116.726 187.525 116.726C181.425 116.726 179.607 117.669 179.417 118.03V118.039Z" fill="#292966"/>
<path d="M190.596 126.845C189.616 126.845 188.649 126.822 187.729 126.785C182.729 126.586 176.337 125.782 174.344 124.685C172.189 123.501 171.546 121.947 171.125 120.916C171.032 120.694 170.912 120.403 170.824 120.264C170.607 120.412 170.228 120.824 169.936 121.133C169.104 122.026 167.966 123.252 166.148 124.075C162.74 125.615 139.277 127.155 133.898 124.727C131.549 123.668 130.055 121.836 129.694 119.57C129.287 117.045 130.332 114.288 132.418 112.374C134.694 110.288 145.558 109.118 150.123 108.711C151.644 108.577 165.071 107.43 167.582 108.817C169.511 109.885 170.033 111.504 170.38 112.573C170.45 112.785 170.538 113.063 170.612 113.22C170.935 113.095 171.546 112.443 171.967 111.994C172.966 110.926 174.339 109.46 176.439 108.734C179.783 107.578 197.511 108.429 200.327 111.416C203.259 114.52 205.651 120.629 201.793 124.487C199.925 126.355 195.115 126.845 190.601 126.845H190.596ZM170.834 117.905C171.023 117.905 171.217 117.933 171.426 117.988C172.549 118.303 172.943 119.265 173.262 120.037C173.632 120.935 174.016 121.869 175.454 122.66C178.465 124.311 197.187 125.823 200.151 122.854C203.148 119.857 200.369 114.834 198.639 113.007C198.126 112.462 194.995 111.439 188.483 110.852C183.474 110.399 178.617 110.431 177.188 110.926C175.63 111.467 174.575 112.591 173.646 113.581C172.693 114.598 171.791 115.56 170.519 115.56C168.91 115.56 168.466 114.191 168.174 113.289C167.883 112.397 167.587 111.472 166.454 110.843C163.882 109.511 136.701 111.578 133.972 114.08C132.474 115.454 131.688 117.461 131.97 119.205C132.21 120.699 133.205 121.883 134.842 122.623C139.226 124.602 162.074 123.377 165.186 121.971C166.583 121.342 167.457 120.393 168.234 119.561C168.993 118.747 169.77 117.905 170.824 117.905H170.834Z" fill="#292966"/>
<path d="M150.021 114.529C144.536 114.529 137.506 114.876 137.506 117.489C137.506 120.102 140.595 120.144 149.563 120.144C158.531 120.144 161.722 120.144 162.476 116.814C163.23 113.484 155.502 114.529 150.016 114.529H150.021Z" fill="#292966"/>
<path d="M149.568 121.305C144.892 121.305 141.932 121.286 139.976 120.939C139.079 120.782 136.354 120.297 136.354 117.494C136.354 113.877 142.922 113.378 150.021 113.378C151.053 113.378 152.2 113.341 153.305 113.299C157.787 113.146 161.653 113.017 163.119 114.788C163.48 115.223 163.859 115.972 163.61 117.073C162.652 121.305 158.823 121.305 149.568 121.305ZM156.7 115.537C155.562 115.537 154.387 115.579 153.388 115.611C152.26 115.648 151.094 115.69 150.026 115.69C138.801 115.69 138.672 117.475 138.672 117.494C138.672 118.877 141.336 118.992 149.573 118.992C158.48 118.992 160.83 118.895 161.357 116.564C161.408 116.342 161.362 116.291 161.343 116.264C160.862 115.681 158.846 115.537 156.704 115.537H156.7Z" fill="#292966"/>
<path d="M198.2 71.8537C192.474 71.2802 187.081 73.5835 181.499 74.3327C180.486 74.4669 178.451 74.8924 177.544 74.4576C176.809 74.1061 176.296 73.0886 175.787 72.4874C174.029 70.4015 171.819 68.6255 169.432 67.3028C164.442 64.5463 158.637 63.5056 152.976 63.8525C146.895 64.2271 139.989 65.5915 134.712 68.8105C129.033 72.2746 126.882 78.0004 125.541 84.221C124.63 88.439 129.69 90.7052 132.266 88.6564C134.125 88.513 135.878 87.7822 137.714 86.9359C140.313 85.7426 143.014 84.8361 145.798 84.1794C151.196 82.9029 156.797 82.7271 162.305 83.2914C173.831 84.4754 185.222 88.7535 196.493 83.7677C198.732 82.778 201.359 81.4136 202.556 79.1751C204.453 75.6277 201.877 72.2191 198.2 71.8491V71.8537Z" fill="#FF7534"/>
<path d="M123.418 88.0228C123.252 88.0228 123.081 87.9858 122.928 87.9118C122.586 87.7499 122.341 87.4308 122.28 87.0562C121.244 80.8263 122.678 75.1699 126.434 70.6976C129.708 66.7987 134.643 63.8479 140.706 62.1644C153.855 58.5199 170.681 61.6557 175.597 72.0111C177.424 71.6919 181.772 70.9704 186.304 70.4339C197.432 69.1158 200.078 70.0316 201.1 70.8317C201.78 71.3636 202.08 72.1544 201.914 73.0008C201.072 77.3483 185.365 84.8223 182.35 85.7011C182.133 85.7658 181.901 85.7612 181.684 85.6964C158.092 78.3242 139.222 79.0364 123.996 87.8748C123.816 87.9766 123.617 88.0321 123.418 88.0321V88.0228ZM151.996 62.9091C148.615 62.9091 145.022 63.3716 141.326 64.3937C129.717 67.6127 123.483 75.2532 124.348 85.0212C139.814 76.6869 158.707 76.1504 182.026 83.3747C183.959 82.7318 188.201 80.7523 192.197 78.4259C197.922 75.0913 199.467 73.1904 199.629 72.6216C198.043 71.5809 188.552 71.9787 175.107 74.4438C174.566 74.5456 174.025 74.2449 173.821 73.7316C171.416 67.6451 162.823 62.9091 151.991 62.9091H151.996Z" fill="#292966"/>
<path d="M146.89 76.0303C146.636 76.0303 146.391 75.947 146.187 75.7898C145.942 75.6001 145.78 75.3226 145.743 75.0128L144.962 68.658C144.92 68.3204 145.031 67.9781 145.262 67.7284C145.494 67.4786 145.831 67.3445 146.169 67.363C150.937 67.6128 153.962 69.2084 154.064 71.5301C154.11 72.58 153.518 75.1145 147.052 76.021C146.997 76.0303 146.946 76.0303 146.89 76.0303ZM147.427 69.7958L147.889 73.5374C150.84 72.9454 151.765 71.9649 151.751 71.6365C151.733 71.2619 150.613 70.1981 147.431 69.8004L147.427 69.7958Z" fill="#292966"/>
<path d="M158.73 75.5077C158.545 75.5077 158.36 75.4615 158.189 75.3736C157.879 75.2117 157.661 74.9157 157.597 74.5735L156.292 67.8718C156.223 67.525 156.32 67.1642 156.551 66.896C156.783 66.6277 157.125 66.4843 157.476 66.4936C161.745 66.6786 164.298 67.8765 164.664 69.8652C165.024 71.8355 163.184 73.704 159.188 75.4152C159.044 75.48 158.887 75.5077 158.734 75.5077H158.73ZM158.85 68.9217L159.581 72.6772C161.963 71.4608 162.43 70.5358 162.384 70.2768C162.323 69.9392 161.329 69.2223 158.85 68.9171V68.9217Z" fill="#292966"/>
<path d="M214.947 180.426C214.382 180.426 213.888 180.009 213.804 179.431C213.712 178.798 214.151 178.215 214.785 178.122C231.916 175.667 246.466 169.284 258.033 159.146C267.875 150.52 275.659 139.106 281.172 125.217C295.745 88.5177 289.881 45.7411 287.619 42.8967C285.959 41.0606 284.382 40.1772 282.953 40.279C281.491 40.3853 280.03 41.5092 278.61 43.6275C278.277 44.127 277.615 44.2842 277.088 43.9928C275.502 43.1141 274.188 42.8366 273.185 43.1742C272.269 43.4795 271.492 44.3397 270.863 45.7365C270.724 46.051 270.451 46.2822 270.123 46.3747C269.795 46.4672 269.438 46.4117 269.156 46.2175C267.797 45.2925 266.613 44.9641 265.627 45.2508C264.402 45.6023 263.292 46.9158 262.316 49.1451C262.089 49.6677 261.516 49.9452 260.965 49.8018C260.415 49.6585 260.05 49.1358 260.105 48.567C260.85 41.0976 261.095 28.2077 258.579 25.4327C258.264 25.0858 258.015 25.0396 257.834 25.0396C257.756 25.0396 257.571 25.0396 257.293 25.3633C254.083 29.1327 255.721 51.4807 257.122 60.185C257.196 60.6567 256.974 61.1285 256.562 61.369C256.151 61.6095 255.628 61.5724 255.258 61.2718C249.112 56.3462 238.983 50.2227 236.749 52.7295C236.596 52.9006 236.573 53.0301 236.582 53.1735C236.703 54.6488 240.171 57.4747 243.529 60.2081C249.741 65.2678 257.474 71.5625 258.967 79.351C261.849 94.3683 259.573 107.591 252.206 118.645C246.161 127.715 236.707 135.512 223.304 142.482C222.74 142.778 222.041 142.556 221.745 141.992C221.449 141.423 221.671 140.729 222.236 140.433C250.827 125.564 261.779 106.296 256.697 79.7903C255.36 72.8297 247.992 66.8311 242.068 62.0072C237.66 58.4182 234.473 55.8236 234.275 53.3677C234.21 52.5676 234.469 51.823 235.019 51.2032C238.789 46.9713 249.44 54.0198 254.481 57.7661C253.561 50.0377 251.456 28.6563 255.531 23.8741C256.331 22.9352 257.224 22.7363 257.834 22.7363C258.759 22.7363 259.61 23.1341 260.295 23.888C263.264 27.1671 263.116 38.022 262.751 44.3351C263.435 43.7015 264.18 43.2713 264.989 43.0355C266.344 42.647 267.806 42.8505 269.351 43.6506C270.178 42.2908 271.219 41.3982 272.454 40.9866C273.86 40.5195 275.483 40.6952 277.282 41.5138C278.966 39.3123 280.811 38.1237 282.782 37.9803C284.96 37.8231 287.166 38.9608 289.335 41.3612C291.222 43.4471 292.952 56.6006 293.04 69.5136C293.132 82.8706 291.74 102.934 284.604 122.687C279.156 137.765 271.21 150.187 260.984 159.609C248.843 170.796 233.405 177.799 215.109 180.421C215.053 180.43 214.998 180.435 214.942 180.435L214.947 180.426Z" fill="#292966"/>
<path d="M245.121 175.01C241.569 175.926 239.668 178.641 238.414 182.068C236.759 174.464 231.962 172.004 226.366 170.843C231.93 171.195 235.598 169.34 237.452 165.39C238.215 171.278 241.458 173.461 245.121 175.01Z" fill="white"/>
<path d="M238.414 183.224C238.387 183.224 238.363 183.224 238.336 183.224C237.822 183.187 237.392 182.817 237.286 182.318C235.676 174.927 230.977 172.984 226.135 171.981C225.543 171.856 225.141 171.296 225.224 170.695C225.307 170.094 225.839 169.654 226.44 169.696C231.481 170.015 234.742 168.447 236.407 164.904C236.624 164.442 237.124 164.174 237.633 164.252C238.141 164.331 238.535 164.738 238.599 165.247C239.256 170.316 241.754 172.337 245.569 173.951C246.027 174.145 246.309 174.608 246.272 175.103C246.235 175.597 245.888 176.014 245.407 176.139C242.665 176.846 240.842 178.798 239.501 182.47C239.335 182.928 238.9 183.229 238.414 183.229V183.224ZM231.99 171.477C234.668 172.818 237.133 175.01 238.636 178.798C239.469 177.35 240.63 175.93 242.318 174.931C240.005 173.609 237.984 171.699 236.92 168.364C235.649 169.853 234.002 170.894 231.99 171.477Z" fill="#292966"/>
</svg>
