<svg width="32" height="32" viewBox="0 0 32 32" fill="none" xmlns="http://www.w3.org/2000/svg">
<path d="M26.6994 23.4261L25.455 12.7261C25.3425 11.7605 24.5219 11.0592 23.595 11.1367L10.7213 12.2148C9.68379 12.3017 8.95192 13.3186 9.16067 14.3855C9.76129 17.4605 10.8825 22.928 11.4432 25.6492C11.6332 26.5723 12.4682 27.1886 13.3638 27.0661L25.2032 25.4436C26.1463 25.3142 26.8144 24.4142 26.6994 23.4261ZM21.2988 18.7911L19.3482 18.9511C18.7275 19.0017 18.1782 18.5517 18.1057 17.9336L17.9288 16.4161C17.8588 15.8186 18.2594 15.2673 18.8494 15.1492L20.8369 14.7505C21.5157 14.6142 22.1613 15.1017 22.2163 15.7917L22.3563 17.5473C22.4069 18.183 21.9338 18.7392 21.2988 18.7911Z" fill="#FF7534"/>
<path d="M28.7656 25.6313C22.255 25.6313 16.0769 26.0963 9.79625 27.3495C7.90875 27.7263 6.00375 28.1345 4.17188 28.7338" stroke="#292966" stroke-width="1.5" stroke-miterlimit="10" stroke-linecap="round"/>
<path d="M24.7832 12.7832L25.1738 25.4295" stroke="#292966" stroke-width="1.5" stroke-miterlimit="10" stroke-linecap="round"/>
<path d="M9.6882 27.2279L7.7207 15.0186" stroke="#292966" stroke-width="1.5" stroke-miterlimit="10" stroke-linecap="round"/>
<path d="M4.14751 15.0123L28.0681 12.1873C28.8481 12.0954 29.0281 11.1061 28.3256 10.7736L12.4225 3.84232C12.0694 3.67544 11.64 3.77794 11.4144 4.08357L3.39688 13.8392C3.00313 14.3717 3.46438 15.0929 4.14751 15.0123Z" stroke="#292966" stroke-width="1.5" stroke-miterlimit="10" stroke-linecap="round"/>
<path d="M15.4847 26.3794L14.9885 22.1919C14.9585 21.7181 15.2435 21.305 15.6235 21.27L18.9297 20.9681C19.3072 20.9338 19.636 21.2869 19.6654 21.7569L19.9816 25.8644" stroke="#292966" stroke-width="1.5" stroke-miterlimit="10" stroke-linecap="round"/>
<path d="M20.8867 7.53124L22.128 4.12249C22.2311 3.83936 22.5442 3.69311 22.8273 3.79624L25.1473 4.64061C25.4305 4.74374 25.5767 5.05686 25.4736 5.33999L24.1573 8.95686" stroke="#292966" stroke-width="1.5" stroke-miterlimit="10" stroke-linecap="round"/>
</svg>
