<svg width="47" height="48" viewBox="0 0 47 48" fill="none" xmlns="http://www.w3.org/2000/svg">
<path d="M36.1947 15.1265C35.9146 14.243 35.3784 13.3911 34.5515 12.9445C33.6459 12.4565 32.8023 12.4213 31.7966 12.577C31.3974 12.6379 30.9983 12.6951 30.5991 12.7523C24.1837 13.5907 17.7004 13.7757 11.2493 13.3011C9.37973 13.1636 7.59239 15.079 7.67461 16.9518C7.76636 19.0474 9.24747 20.4553 11.2493 20.6026C18.7573 21.1563 26.2582 20.7644 33.6971 19.6181C34.5229 19.4903 35.4321 18.6409 35.8336 17.94C36.2816 17.1575 36.4723 16.0039 36.1935 15.1265H36.1947Z" fill="#FF7534"/>
<path d="M39.5294 34.7647L38.3247 17.0817C38.3044 13.5977 35.5221 10.7696 32.1059 10.7696C32.0869 10.7696 32.0678 10.7696 32.0487 10.7708L30.3365 10.8669L30.2542 9.07318C30.234 8.63388 29.9516 8.25177 29.5429 8.11304C29.1342 7.97309 28.6838 8.10452 28.4097 8.44404L27.497 9.56969C27.3301 9.77534 27.2455 10.037 27.2587 10.3035L27.2956 11.0373L18.5257 11.5314C18.5293 10.7051 18.5328 9.85931 18.5376 9.17176C18.5412 8.69838 18.2385 8.27976 17.7941 8.14468L16.6871 7.80638C16.3713 7.71024 16.0294 7.77109 15.7648 7.97188C15.5003 8.17267 15.3442 8.48907 15.3442 8.82615V11.7115L13.2328 11.8307C10.4767 11.8478 8.23893 14.1356 8.22701 16.9515L7.4668 35.9865C7.4668 36.0011 7.4668 36.0157 7.4668 36.0303C7.4668 38.3522 9.31729 40.242 11.6027 40.242L34.4998 39.9841C37.2737 39.9804 39.5306 37.6743 39.5306 34.8401C39.5306 34.8158 39.5306 34.7903 39.5282 34.7659L39.5294 34.7647ZM10.3146 16.9722C10.3146 15.3099 11.6385 13.9579 13.2661 13.9579C13.2852 13.9579 13.3043 13.9579 13.3233 13.9567L15.3466 13.8423V15.2624C15.3466 15.7845 15.7184 16.2299 16.2224 16.3138C16.4297 16.3479 16.6192 16.3625 16.7896 16.3625C17.5033 16.3625 17.9073 16.1033 18.1003 15.9244C18.403 15.6445 18.5614 15.2417 18.5352 14.8195C18.5281 14.6941 18.5233 14.2597 18.5221 13.6646L27.404 13.1645L27.4767 14.5992C27.5053 15.1651 27.9629 15.6092 28.5181 15.6092H29.4619C29.7466 15.6092 30.0195 15.49 30.2161 15.2795C30.4127 15.0689 30.5164 14.7854 30.5033 14.4945L30.4342 12.9941L32.1333 12.8979C34.3997 12.9126 36.2395 14.8012 36.2395 17.1194C36.2395 17.1438 36.2395 17.1693 36.2418 17.1937V17.1961C33.2415 17.1328 26.5818 17.6366 18.4161 18.2889C15.1631 18.5481 11.8243 18.8146 10.2396 18.8913L10.3146 17.016C10.3146 17.0014 10.3146 16.9868 10.3146 16.9722ZM34.4962 37.852C34.4962 37.852 34.4891 37.852 34.4843 37.852L11.5932 38.11C10.4755 38.11 9.56514 37.1864 9.55441 36.0473L10.1538 21.0294C10.6232 21.0099 11.2309 20.9697 12.0329 20.915C13.7237 20.7994 16.0818 20.6108 18.5793 20.4124C24.6265 19.9293 33.4429 19.2259 36.3884 19.322L37.4477 34.873C37.4298 36.5195 36.1132 37.8532 34.4962 37.8532V37.852Z" fill="#292966"/>
<path d="M17.4101 21.7656L12.4246 22.1855C11.8836 22.2305 11.4678 22.6929 11.4678 23.2466V26.817C11.4678 27.4048 11.9349 27.8818 12.5104 27.8818H17.4959C18.0714 27.8818 18.5385 27.4048 18.5385 26.817V22.8268C18.5385 22.5286 18.417 22.2451 18.2025 22.0431C17.988 21.8411 17.7008 21.7401 17.4101 21.7656ZM16.4521 25.7522H13.5518V24.2274L16.4521 23.9828V25.7522Z" fill="#292966"/>
<path d="M20.9152 27.882H25.2799C25.8352 27.882 26.2928 27.4378 26.3214 26.8719L26.5609 22.1284C26.5763 21.8217 26.4608 21.5224 26.2451 21.3094C26.0294 21.0952 25.7327 20.9869 25.4336 21.0125L20.8306 21.4031C20.2897 21.4493 19.875 21.9106 19.875 22.4643V26.8172C19.875 27.4049 20.3421 27.882 20.9176 27.882H20.9152ZM21.9579 23.4439L24.416 23.2346L24.2897 25.7511H21.959V23.4439H21.9579Z" fill="#292966"/>
<path d="M28.8807 27.8819H34.7754C35.0661 27.8819 35.3426 27.7578 35.5404 27.54C35.7382 27.3222 35.8371 27.0301 35.8144 26.7344L35.3878 21.0916C35.3664 20.808 35.2341 20.5452 35.022 20.3614C34.8099 20.1777 34.5335 20.0876 34.2559 20.1132L28.7878 20.6097C28.2504 20.6583 27.8369 21.1183 27.8369 21.6708V26.8171C27.8369 27.4049 28.304 27.8819 28.8795 27.8819H28.8807ZM29.9233 22.6443L33.3908 22.3292L33.6494 25.7511H29.9233V22.6443Z" fill="#292966"/>
<path d="M34.7747 29.0645H28.2998C28.0055 29.0645 27.7243 29.191 27.5277 29.4149C27.3299 29.6376 27.2333 29.9358 27.2631 30.2351L27.7958 35.7319C27.8232 36.0143 27.959 36.2735 28.1735 36.4523C28.3606 36.6081 28.5941 36.6921 28.8324 36.6921C28.8682 36.6921 28.9039 36.6896 28.9397 36.686L34.8832 36.0593C35.4146 36.0033 35.8185 35.5457 35.8185 35.0006V30.1305C35.8185 29.5427 35.3515 29.0657 34.7759 29.0657L34.7747 29.0645ZM33.7321 34.0392L29.7666 34.4566L29.4508 31.1941H33.7333V34.0392H33.7321Z" fill="#292966"/>
<path d="M26.1123 30.0416C26.0659 29.4624 25.5738 29.0279 25.0042 29.0669L20.1092 29.3967C19.5611 29.4332 19.1357 29.898 19.1357 30.459V35.6261C19.1357 36.2138 19.6028 36.6909 20.1784 36.6909H25.5189C25.8109 36.6909 26.0885 36.5667 26.2863 36.3477C26.4841 36.1286 26.5818 35.8354 26.558 35.5384L26.1135 30.0416H26.1123ZM21.221 34.5613V31.4557L24.1189 31.261L24.3858 34.5613H21.2198H21.221Z" fill="#292966"/>
<path d="M16.9422 29.0645H12.6514C12.1057 29.0645 11.6517 29.494 11.6112 30.0502L11.2489 35.02C11.2275 35.3157 11.3276 35.6066 11.5242 35.8232C11.722 36.0398 11.9984 36.1639 12.288 36.1639H16.941C17.5166 36.1639 17.9837 35.6869 17.9837 35.0991V30.1293C17.9837 29.5415 17.5166 29.0645 16.941 29.0645H16.9422ZM15.8996 34.0343H13.4128L13.6202 31.1941H15.9008V34.0343H15.8996Z" fill="#292966"/>
</svg>
