<svg width="47" height="48" viewBox="0 0 47 48" fill="none" xmlns="http://www.w3.org/2000/svg">
<path d="M10.7844 23.4758C8.98986 23.0584 6.80215 24.0283 6.38748 26.0253C5.94422 28.1622 5.36393 30.2626 4.65138 32.3216C4.027 34.1238 5.35797 36.3958 7.1477 36.812C9.14953 37.2781 10.8761 36.1926 11.5446 34.2626C12.2583 32.2035 12.8374 30.1031 13.2807 27.9662C13.6679 26.1031 12.7433 23.931 10.7844 23.4758Z" fill="#FF7534"/>
<path d="M44.0503 14.9512C43.1197 14.1201 42.0211 13.9533 40.789 13.8207C38.6013 13.5846 36.4124 13.3631 34.2235 13.1344C32.7543 12.981 31.2804 12.919 29.9506 13.6418C29.7266 13.7635 29.518 13.8986 29.3214 14.0446C28.6959 13.0224 27.4614 12.2764 26.1709 12.3288C24.1751 12.4103 22.6701 13.7526 22.5962 15.5706C22.514 17.5931 22.5617 19.6169 22.7523 21.6333C22.7988 22.1286 22.8536 22.6226 22.9168 23.1167C23.005 23.8043 23.0335 24.5429 23.2361 25.2074C23.5352 26.187 24.2644 26.9768 25.2082 27.5025C25.8564 27.8639 26.6035 27.9698 27.3303 28.1048C29.7194 28.5478 32.1252 28.8898 34.5429 29.1818C37.2703 29.5116 41.0214 30.3598 42.6824 27.6753C43.2925 26.6908 43.4498 25.5286 43.7107 24.4407C43.955 23.4209 44.1993 22.4 44.4435 21.3802C44.6997 20.3117 45.0095 19.2408 45.1704 18.1578C45.3432 16.9944 44.9952 15.797 44.0515 14.9524L44.0503 14.9512Z" fill="#FF7534"/>
<path d="M31.2073 37.0356C28.4715 36.7107 25.0672 36.3067 23.8387 35.6057C22.7734 34.9973 21.962 34.126 21.3889 33.3423C21.825 33.4055 22.2956 33.4664 22.7758 33.5151C25.7988 33.8217 27.3324 33.4907 27.9019 32.4101C28.145 31.9489 28.1534 31.4122 27.9246 30.8975C26.9403 28.673 20.6918 26.3085 18.4826 25.7852C16.6357 25.3483 14.8877 25.0453 13.8701 24.8847C13.8689 24.4454 13.6008 24.0402 13.1802 23.8856L7.98258 21.9787C7.72044 21.8826 7.43089 21.8972 7.17947 22.0213C6.92805 22.1442 6.73501 22.3657 6.64446 22.6358L2.88388 33.8193C2.78737 34.1065 2.81477 34.4217 2.96014 34.6857C3.10551 34.9498 3.35455 35.1384 3.6441 35.2041C9.72703 36.5829 10.1048 36.5829 10.2287 36.5829C10.2751 36.5829 10.3204 36.5793 10.3633 36.5744C11.9493 38.6383 15.6181 43.192 17.8297 44.174C19.1142 44.7448 21.9227 44.8957 24.5405 44.8957C25.159 44.8957 25.7667 44.8871 26.3422 44.8737C29.6214 44.7971 33.115 44.5172 34.2971 44.2349C35.8532 43.8637 37.2462 42.7381 37.8455 41.369C38.2375 40.4734 38.2399 39.5777 37.8503 38.8476C37.3117 37.8388 35.7853 37.5783 31.2049 37.0344L31.2073 37.0356ZM8.27332 24.3493L11.618 25.5759C10.8638 29.1451 10.0202 32.8458 9.59 34.328C8.61053 34.1296 6.82915 33.7402 5.23603 33.3836L8.27332 24.3505V24.3493ZM35.945 40.5002C35.6721 41.122 34.8928 41.9069 33.824 42.1625C32.9113 42.3803 29.7751 42.665 26.2969 42.7466C21.7749 42.8512 19.3894 42.5446 18.6637 42.2233C17.0825 41.5211 13.6532 37.4542 11.6335 34.7721C11.6871 34.5835 11.7443 34.3718 11.8075 34.1345C12.0422 33.2413 12.3401 31.9988 12.6916 30.4436C12.9728 29.2011 13.2445 27.9525 13.4542 26.9754C14.4218 27.1263 16.1853 27.4268 18.0132 27.8601C19.3203 28.1692 21.2935 28.9103 22.9224 29.7025C24.4833 30.4618 25.3186 31.0569 25.719 31.422C25.259 31.5023 24.3523 31.5558 22.64 31.3599C21.0385 31.1762 19.5824 30.8671 19.5681 30.8634C19.1916 30.7831 18.802 30.9206 18.5541 31.2224C18.3075 31.5242 18.2431 31.9404 18.3873 32.3042C18.4421 32.443 19.7683 35.7213 22.8223 37.4652C24.4142 38.3742 27.7458 38.7697 30.9678 39.1518C32.7242 39.3599 35.3266 39.669 36.0558 39.9927C36.0677 40.1253 36.0296 40.3079 35.945 40.5002Z" fill="#292966"/>
<path d="M43.956 11.7165C43.7463 11.4379 43.4174 11.2833 43.0742 11.3016C41.6896 11.377 40.137 11.3016 38.4665 11.1154C39.3268 10.6955 40.0143 10.165 40.3908 9.52974C40.8496 8.75578 40.8413 7.89543 40.3706 7.10808C39.776 6.11508 38.4486 5.74149 36.728 6.08222C35.6103 6.3037 34.4592 6.81602 33.5358 7.49749C33.2832 6.56412 32.7684 5.12694 31.8199 4.13151C30.844 3.10686 29.6096 2.83062 28.4335 3.37702C27.3027 3.90151 26.732 4.93467 26.8654 6.21122C26.9643 7.15919 27.4457 8.18262 28.1118 9.11356C26.614 8.74362 25.1007 8.34934 23.5946 7.94654C23.0834 7.80903 22.5531 8.08526 22.3601 8.58785C21.5105 10.7978 20.8135 13.0101 20.2665 15.2127C20.2534 15.2517 20.2427 15.2906 20.2332 15.3308C20.2296 15.3478 20.2272 15.3636 20.2248 15.3807C19.6076 17.9033 19.1894 20.4126 18.9785 22.889C18.9522 23.2006 19.0607 23.5072 19.2764 23.7299C19.4896 23.9502 19.784 24.0646 20.0866 24.0439C20.0926 24.0439 20.0985 24.0439 20.1045 24.0439C21.5892 24.0439 37.437 27.3028 39.297 27.8601C39.4543 27.9514 39.6318 28.0001 39.8129 28.0001C39.8809 28.0001 39.9488 27.9928 40.0155 27.9794C40.5219 27.8772 40.8758 27.4196 40.8663 26.9073C41.3727 22.6846 42.4677 17.9033 44.1228 12.6937C44.2289 12.3603 44.1669 11.994 43.9572 11.7165H43.956ZM40.2562 18.7418L32.1941 16.9298L33.0901 12.4114C36.2049 13.0259 39.1433 13.4324 41.6968 13.4592C41.1475 15.2736 40.6673 17.0357 40.2562 18.7406V18.7418ZM36.436 8.35785C37.0306 8.1595 37.5287 8.09257 37.8981 8.09257C38.2675 8.09257 38.5237 8.16315 38.5975 8.22886C38.6607 8.33717 38.65 8.35542 38.6071 8.42843C38.171 9.16467 36.1096 9.92889 33.8861 10.0895C33.8861 10.0786 33.8861 10.0676 33.8861 10.0554C34.5248 9.23403 35.5507 8.65235 36.436 8.35664V8.35785ZM29.295 5.31678C29.3951 5.27054 29.5035 5.22916 29.6298 5.22916C29.8062 5.22916 30.0159 5.30948 30.2781 5.5699C31.1527 6.43513 31.6662 8.26537 31.7854 9.44456C31.7377 9.53096 31.6924 9.61979 31.6507 9.70863C30.4782 8.90425 29.0615 7.15919 28.9387 5.98487C28.8958 5.57964 29.0257 5.44212 29.295 5.31678ZM23.9699 10.2489C26.3459 10.8769 28.7314 11.478 31.0466 11.9855L30.1565 16.4722L22.5377 14.76C22.9416 13.2596 23.4182 11.7543 23.9687 10.2489H23.9699ZM22.0289 16.8264L29.7442 18.5605L28.7814 23.4135C25.8705 22.8306 22.8487 22.2575 21.1578 22.025C21.3461 20.3067 21.6368 18.5714 22.0289 16.8264ZM38.9348 25.5772C38.4641 25.464 37.8612 25.3265 37.1379 25.1659C35.4101 24.7813 33.1187 24.2958 30.8274 23.8273L31.7806 19.018L39.7843 20.8166C39.4328 22.4643 39.148 24.0536 38.9359 25.5772H38.9348Z" fill="#292966"/>
</svg>
