<svg width="44" height="44" viewBox="0 0 44 44" fill="none" xmlns="http://www.w3.org/2000/svg">
<path d="M24.4398 37.2135C32.1946 37.2135 38.4811 30.927 38.4811 23.1722C38.4811 15.4174 32.1946 9.13086 24.4398 9.13086C16.685 9.13086 10.3984 15.4174 10.3984 23.1722C10.3984 30.927 16.685 37.2135 24.4398 37.2135Z" fill="#FF7534"/>
<path d="M22.0059 39.1221C31.4508 39.1221 39.1074 31.4654 39.1074 22.0205C39.1074 12.5756 31.4508 4.91895 22.0059 4.91895C12.5609 4.91895 4.9043 12.5756 4.9043 22.0205C4.9043 31.4654 12.5609 39.1221 22.0059 39.1221Z" stroke="#292966" stroke-width="1.65" stroke-miterlimit="10"/>
<path d="M39.0541 21.0581C35.913 25.1599 29.4591 27.9726 22.0075 27.9726C14.5559 27.9726 8.10195 25.1599 4.96094 21.0581" stroke="#292966" stroke-width="1.65" stroke-miterlimit="10"/>
<path d="M6.13281 16.0688C9.55398 19.441 15.3866 21.6599 22.0055 21.6599C28.6244 21.6599 34.457 19.4402 37.8781 16.0688" stroke="#292966" stroke-width="1.65" stroke-miterlimit="10"/>
<path d="M17.4798 31.4647C17.4798 31.4647 13.0867 23.8722 17.4798 12.7476" stroke="#292966" stroke-width="1.65" stroke-miterlimit="10" stroke-linecap="round"/>
<path d="M29.2737 30.9004C29.2737 30.9004 33.1134 23.8724 28.5449 12.4883" stroke="#292966" stroke-width="1.65" stroke-miterlimit="10" stroke-linecap="round"/>
<path d="M23.0371 13.0625C23.0371 13.0625 24.8573 22.0206 23.0371 32.0959" stroke="#292966" stroke-width="1.65" stroke-miterlimit="10" stroke-linecap="round"/>
<path d="M36.7401 2.51367L34.9414 5.43125" stroke="#FF7534" stroke-width="1.65" stroke-miterlimit="10" stroke-linecap="round"/>
<path d="M41.5353 7.104L37.6191 8.28736" stroke="#FF7534" stroke-width="1.65" stroke-miterlimit="10" stroke-linecap="round"/>
<path d="M8.09375 41.0845L9.36563 38.6104" stroke="#FF7534" stroke-width="1.65" stroke-miterlimit="10" stroke-linecap="round"/>
<path d="M2.32812 39.4881L5.98648 36.5293" stroke="#FF7534" stroke-width="1.65" stroke-miterlimit="10" stroke-linecap="round"/>
<path d="M2.32812 34.4724L4.40352 33.9653" stroke="#FF7534" stroke-width="1.65" stroke-miterlimit="10" stroke-linecap="round"/>
</svg>
