<svg width="47" height="48" viewBox="0 0 47 48" fill="none" xmlns="http://www.w3.org/2000/svg">
<path d="M33.0634 23.4036C32.8847 22.2743 32.3223 21.2692 31.5692 20.4356C31.0413 18.7185 29.8021 17.3556 28.0076 16.8055C27.817 16.7471 27.6227 16.7106 27.4261 16.6936C26.8435 16.1216 26.0594 15.7651 25.161 15.7504C23.7502 15.7285 22.3405 15.7237 20.9297 15.7407C19.4319 15.759 17.7661 15.6409 16.3243 16.0961C15.3616 16.4003 14.5334 16.943 13.8149 17.6574C13.4241 18.0456 13.0988 18.4982 12.6937 18.8731C12.3398 19.2004 11.9394 19.4693 11.6248 19.8393C10.7824 20.8262 10.2986 21.9567 10.2998 23.2783C10.3022 25.2387 11.6868 26.7842 12.845 28.1958C13.7398 29.2874 14.7753 30.2731 15.9657 31.0264C18.4668 32.6084 21.423 32.8639 24.2673 32.4185C25.615 32.208 26.8625 31.731 28.1018 31.1615C29.2707 30.6248 30.4325 29.8788 31.3237 28.9345C32.7703 27.4012 33.3982 25.5065 33.0646 23.4024L33.0634 23.4036Z" fill="#FF7534"/>
<path d="M44.6621 24.7922C44.6097 24.3516 44.2951 23.9902 43.8733 23.8856L39.1094 22.7064C36.681 18.4715 34.5791 16.668 29.2171 17.167C28.8489 16.4721 28.3949 15.8113 27.8527 15.1968C25.7401 12.8043 22.5705 11.4316 19.1579 11.4316C13.268 11.4316 9.89469 16.4538 9.07609 17.8423L2.96813 20.4758C2.54275 20.6595 2.28537 21.1073 2.3378 21.5771C2.39023 22.0468 2.73816 22.424 3.19334 22.5056L7.87856 23.3452C7.94529 24.2859 8.24318 25.7292 9.30844 27.1347C10.9671 29.3227 13.8507 30.6504 17.8794 31.0824C18.7039 31.1712 19.4796 31.2223 20.2136 31.2394C20.4376 31.9281 20.919 33.055 21.8878 34.0955C23.6668 36.0072 26.038 36.5622 28.1899 36.5622C29.0145 36.5622 29.8081 36.4806 30.523 36.3626C33.0801 35.9415 36.507 34.7648 38.3111 31.5521C39.0093 30.3084 39.2453 29.128 39.3239 28.4113L44.1092 25.8655C44.4941 25.661 44.7145 25.2327 44.6621 24.7922ZM10.9862 25.8691C9.76004 24.2823 9.95069 22.6686 9.95784 22.6102C10.0413 22.0395 9.66353 21.504 9.10707 21.4043L7.03851 21.0331L10.2093 19.6653C10.4285 19.5704 10.6108 19.4 10.724 19.1858C10.7538 19.1298 13.7375 13.5612 19.1579 13.5612C21.9807 13.5612 24.5855 14.6772 26.3037 16.623C27.7383 18.2488 28.414 20.2798 28.2054 22.3425C27.9635 24.7337 27.5179 26.5603 26.1321 27.7079C24.6093 28.9698 21.9807 29.3799 18.0974 28.9637C14.6836 28.5974 12.2909 27.5558 10.9862 25.8679V25.8691ZM37.8368 26.8001C37.4806 26.9899 37.2613 27.3647 37.2768 27.776C37.2816 27.9926 37.3102 33.0866 30.1906 34.261C27.2033 34.7538 24.9394 34.2269 23.4642 32.6972C22.9661 32.18 22.6385 31.6263 22.4299 31.1724C24.5688 30.9729 26.2286 30.3729 27.4464 29.3641C29.5042 27.6592 30.0238 25.0879 30.2799 22.564C30.3943 21.4347 30.3038 20.3151 30.025 19.2418C31.9362 19.1262 33.2279 19.3684 34.2621 20.0279C35.4871 20.808 36.4522 22.2451 37.5246 24.163C37.6664 24.4173 37.9059 24.6011 38.1848 24.6705L40.6823 25.2887L37.838 26.8013L37.8368 26.8001Z" fill="#292966"/>
<path d="M15.1015 20.2847C14.4723 20.2847 13.96 20.8079 13.96 21.4505C13.96 22.093 14.4723 22.6151 15.1015 22.6151C15.7306 22.6151 16.2418 22.093 16.2418 21.4505C16.2418 20.8079 15.7306 20.2847 15.1015 20.2847Z" fill="#292966"/>
<path d="M19.1571 20.3604C18.528 20.3604 18.0156 20.8836 18.0156 21.5262C18.0156 22.1687 18.528 22.6907 19.1571 22.6907C19.7863 22.6907 20.2975 22.1687 20.2975 21.5262C20.2975 20.8836 19.7863 20.3604 19.1571 20.3604Z" fill="#292966"/>
<path d="M23.7204 22.7283C24.3495 22.7283 24.8619 22.2051 24.8619 21.5625C24.8619 20.92 24.3495 20.3979 23.7204 20.3979C23.0913 20.3979 22.5801 20.92 22.5801 21.5625C22.5801 22.2051 23.0913 22.7283 23.7204 22.7283Z" fill="#292966"/>
<path d="M31.2519 26.0527C30.6227 26.0527 30.1104 26.576 30.1104 27.2185C30.1104 27.8611 30.6227 28.3831 31.2519 28.3831C31.881 28.3831 32.3922 27.8611 32.3922 27.2185C32.3922 26.576 31.881 26.0527 31.2519 26.0527Z" fill="#292966"/>
<path d="M35.0436 26.0151C34.4145 26.0151 33.9033 26.5372 33.9033 27.1797C33.9033 27.8223 34.4145 28.3455 35.0436 28.3455C35.6728 28.3455 36.1852 27.8223 36.1852 27.1797C36.1852 26.5372 35.6728 26.0151 35.0436 26.0151Z" fill="#292966"/>
</svg>
