<svg width="47" height="48" viewBox="0 0 47 48" fill="none" xmlns="http://www.w3.org/2000/svg">
<path d="M45.559 24.0828C45.1801 21.1987 43.0496 18.7186 40.2017 18.1637C37.8341 17.7025 35.2877 18.1272 33.2788 19.5376C32.1658 20.3189 31.1792 21.2303 30.2856 22.2611C29.5277 23.1348 28.8211 24.0548 28.0276 24.8957C27.626 25.3204 27.203 25.7244 26.7609 26.1065C26.6906 26.1674 26.6191 26.2258 26.5488 26.2866C26.376 26.4144 26.2021 26.5434 26.0257 26.6651C25.1964 27.2395 24.3218 27.7347 23.4126 28.1595C22.2473 28.6219 21.0462 28.9602 19.8129 29.1695C18.6357 29.2936 17.4489 29.3326 16.2847 29.5747C14.8989 29.8631 13.4428 30.6322 12.511 31.736C11.6471 32.7594 11.1074 33.9325 10.9787 35.1981C10.7821 35.5048 10.6343 35.8358 10.5604 36.1668C10.3519 37.1013 10.3972 38.1503 10.9203 38.9803C11.391 39.7262 12.1583 40.5172 13.0568 40.6584C13.2939 40.6961 13.531 40.7314 13.7669 40.7679C15.6031 41.9885 17.7098 42.4339 19.8904 42.7843C22.5166 43.2078 25.1642 43.4743 27.8238 43.4707C30.425 43.4658 33.0452 43.1226 35.3735 41.868C36.0706 41.492 36.726 41.0149 37.3265 40.4685C38.723 39.77 39.9908 38.8062 41.0406 37.4956C42.5789 35.5729 43.6001 33.4616 44.4151 31.1263C45.2027 28.8689 45.8724 26.4959 45.5554 24.084L45.559 24.0828Z" fill="#FF7534"/>
<path d="M16.1928 17.6086L22.7011 17.9931L22.1876 29.8264C22.1625 30.4142 22.6082 30.9119 23.1825 30.9375C23.198 30.9375 23.2135 30.9375 23.229 30.9375C23.7831 30.9375 24.2454 30.4908 24.2692 29.9201L24.7816 18.116L31.4984 18.5128C31.5187 18.5128 31.539 18.514 31.5592 18.514C31.9477 18.514 32.3063 18.2925 32.4862 17.9371C32.6745 17.5623 32.6304 17.1096 32.3719 16.7823L24.7184 7.06888C24.5266 6.82428 24.2382 6.67947 23.9308 6.67217C23.6246 6.66486 23.3291 6.79507 23.1253 7.02994L15.4719 15.8392C15.2062 16.1446 15.1359 16.5779 15.2884 16.9539C15.4421 17.3311 15.7924 17.5855 16.1916 17.6086H16.1928ZM23.8677 9.38589L29.275 16.2481L18.4604 15.6092L23.8677 9.38467V9.38589Z" fill="#292966"/>
<path d="M41.8171 16.7701C41.8171 16.1824 41.3501 15.7065 40.7745 15.7065H36.0273C35.4518 15.7065 34.9847 16.1836 34.9847 16.7713C34.9847 17.3591 35.4518 17.8361 36.0273 17.8361H39.7331L39.7593 39.1979H8.62259L7.3083 17.8361H11.9482C12.5238 17.8361 12.9909 17.3591 12.9909 16.7713C12.9909 16.1836 12.5238 15.7065 11.9482 15.7065H6.19776C5.90941 15.7065 5.63535 15.8282 5.43755 16.0424C5.24094 16.2566 5.13846 16.545 5.15753 16.8383L6.6029 40.3296C6.63745 40.8906 7.09263 41.3275 7.64313 41.3275H40.8043C41.0808 41.3275 41.3465 41.2155 41.5419 41.0147C41.7373 40.8152 41.8469 40.5438 41.8469 40.2615L41.8183 16.7701H41.8171Z" fill="#292966"/>
</svg>
