<svg width="47" height="47" viewBox="0 0 47 47" fill="none" xmlns="http://www.w3.org/2000/svg">
<path d="M16.1918 17.2421L22.7002 17.6186L22.1866 29.2054C22.1616 29.7809 22.6072 30.2682 23.1815 30.2932C23.197 30.2932 23.2125 30.2932 23.228 30.2932C23.7821 30.2932 24.2444 29.8559 24.2682 29.2971L24.7806 17.7389L31.4975 18.1274C31.5177 18.1274 31.538 18.1286 31.5582 18.1286C31.9467 18.1286 32.3053 17.9117 32.4853 17.5638C32.6735 17.1968 32.6294 16.7535 32.3709 16.433L24.7175 6.92194C24.5256 6.68243 24.2373 6.54064 23.9298 6.53349C23.6236 6.52634 23.3281 6.65384 23.1244 6.88381L15.4709 15.5095C15.2052 15.8086 15.1349 16.2328 15.2874 16.601C15.4412 16.9704 15.7915 17.2194 16.1906 17.2421H16.1918ZM23.8667 9.19067L29.274 15.9099L18.4594 15.2843L23.8667 9.18948V9.19067Z" fill="#292966" stroke="#292966"/>
<path d="M43.9659 16.0378C43.9659 15.4643 43.4312 15 42.7724 15H37.3385C36.6797 15 36.145 15.4655 36.145 16.039C36.145 16.6125 36.6797 17.078 37.3385 17.078H41.5804L41.6104 37.922H5.96895L4.46451 17.078H9.77574C10.4345 17.078 10.9692 16.6125 10.9692 16.039C10.9692 15.4655 10.4345 15 9.77574 15H3.19331C2.86324 15 2.54953 15.1187 2.32311 15.3277C2.09806 15.5367 1.98076 15.8181 2.00258 16.1043L3.65706 39.0263C3.69661 39.5737 4.21764 40 4.84778 40H42.8065C43.123 40 43.4271 39.8908 43.6508 39.6948C43.8745 39.5001 44 39.2353 44 38.9598L43.9673 16.0378H43.9659Z" fill="#292966" stroke="#292966"/>
</svg>
