<svg width="317" height="317" viewBox="0 0 317 317" fill="none" xmlns="http://www.w3.org/2000/svg">
<path d="M162.504 112.426C157.813 110.818 152.63 112.083 148.412 114.408C146.469 115.479 137.39 122.837 135.289 120.844C135.13 120.695 135.036 120.489 134.948 120.287C134.347 118.895 134.15 117.302 133.481 115.948C132.515 114.002 131.247 112.206 129.7 110.68C126.548 107.569 122.324 105.749 117.883 105.708C108.115 105.578 101.631 113.366 98.781 121.925C95.9339 130.478 98.0032 139.145 103.163 146.325C107.686 152.618 112.987 158.271 119.175 162.944C125.168 167.467 132.289 170.452 139.847 170.763C144.684 170.963 149.704 169.624 153.006 165.885C155.803 162.715 158.007 158.914 160.314 155.38C164.691 148.673 169.355 141.699 171.462 133.874C173.719 125.488 171.571 115.535 162.507 112.426H162.504Z" fill="#FF7534"/>
<path d="M266.595 201.915C261.455 212.561 249.905 221.492 241.214 227.371C233.272 232.746 224.352 236.955 214.886 238.739C207.016 240.222 194.58 241.091 188.448 234.724C183.79 229.887 185.264 222.631 189.793 218.311C194.856 213.479 202.132 211.786 208.819 210.653C216.632 209.326 224.971 208.284 231.12 203.282C235.27 199.907 237.874 195.117 239.961 190.282C241.757 186.12 243.011 181.022 246.688 178.063C250.994 174.6 256.829 173.622 261.734 176.602C265.532 178.909 268.209 183.077 268.952 187.435C269.815 192.504 268.787 197.365 266.592 201.912L266.595 201.915Z" fill="#FF7534"/>
<path d="M195.923 83.4001C195.152 83.497 194.344 83.3414 193.631 82.8982C191.987 81.8738 191.483 79.7106 192.507 78.0669L201.958 62.8949C202.983 61.2512 205.146 60.7464 206.79 61.7737C208.433 62.7981 208.938 64.9613 207.914 66.605L198.462 81.777C197.881 82.7104 196.933 83.2739 195.923 83.4031V83.4001Z" fill="#292966"/>
<path d="M203.813 92.2998C202.151 92.5111 200.528 91.5014 200.021 89.846C199.454 87.9939 200.496 86.0332 202.348 85.4637L217.256 80.8995C219.117 80.3301 221.072 81.375 221.638 83.2271C222.205 85.0792 221.163 87.0399 219.311 87.6094L204.403 92.1736C204.206 92.2323 204.009 92.2763 203.813 92.2998Z" fill="#292966"/>
<path d="M53.6701 191.007L37.4239 197.496C35.6363 198.21 33.6081 197.341 32.8949 195.553C32.1816 193.766 33.0504 191.737 34.838 191.024L51.0842 184.535C52.8717 183.821 54.9 184.69 55.6132 186.478C56.3265 188.265 55.4576 190.293 53.6701 191.007Z" fill="#292966"/>
<path d="M59.9397 206.716C59.2646 206.986 58.4985 207.048 57.7412 206.842C55.8832 206.34 54.7825 204.427 55.2844 202.569L57.5621 194.124C58.0641 192.266 59.9778 191.165 61.8358 191.667C63.6937 192.169 64.7944 194.083 64.2925 195.941L62.0148 204.385C61.7184 205.486 60.9229 206.323 59.9397 206.716Z" fill="#292966"/>
<path d="M132.732 166.774C132.392 166.774 132.054 166.727 131.722 166.633C101.117 157.866 89.9312 139.415 89.6671 125.068C89.4822 115.047 94.4778 106.902 102.391 104.316C106.738 102.895 117.739 101.569 130.419 117.272C143.114 102.599 151.817 101.187 157 102.766C162.298 104.381 165.677 109.605 166.272 117.102C167.523 132.834 156.757 155.462 134.341 166.401C133.836 166.648 133.284 166.774 132.732 166.774ZM107.648 110.826C106.621 110.826 105.626 110.979 104.672 111.29C99.9637 112.828 96.8818 118.311 97.005 124.93C97.2164 136.45 106.653 151.385 132.377 159.172C143.346 153.46 149.689 145.332 153.105 139.418C157.276 132.2 159.466 124.073 158.958 117.68C158.62 113.412 157.088 110.462 154.863 109.784C151.256 108.684 143.663 112.229 133.161 125.47C132.442 126.377 131.332 126.885 130.181 126.858C129.025 126.826 127.951 126.248 127.287 125.303C120.748 116.007 113.63 110.829 107.648 110.829V110.826Z" fill="#292966"/>
<path d="M138.94 196.217C132.782 196.217 126.131 195.841 118.972 195.087C91.4133 192.193 71.7946 183.437 60.6614 169.057C52.3372 158.309 51.1426 147.334 51.1544 141.834L14.9195 135.476C13.3169 135.194 12.09 133.891 11.908 132.277C11.726 130.659 12.6271 129.116 14.127 128.484L58.6449 109.688C60.4853 106.523 66.1267 97.5036 75.5487 88.4221C82.3055 81.9089 89.6141 76.7107 97.2808 72.9742C106.935 68.2662 117.155 65.8799 127.663 65.8799C150.845 65.8799 172.342 74.9731 186.64 90.826C198.959 104.486 204.747 121.654 202.936 139.163C201.201 155.92 197.729 172.944 184.174 183.939C174.045 192.154 159.152 196.217 138.946 196.217H138.94ZM28.4478 130.401L55.6305 135.171C57.5912 135.514 58.9209 137.358 58.6244 139.327C58.6097 139.441 56.922 152.356 66.567 164.705C70.9404 170.302 77.0133 175.013 84.6155 178.708C94.0081 183.273 105.822 186.328 119.735 187.79C148.356 190.795 167.919 187.67 179.545 178.239C190.385 169.445 193.816 155.955 195.63 138.405C197.227 122.99 192.096 107.838 181.183 95.7395C168.274 81.4246 148.764 73.2149 127.654 73.2149C118.314 73.2149 109.215 75.3341 100.609 79.5109C93.6558 82.8864 86.99 87.6091 80.7997 93.5499C70.1333 103.785 64.5183 114.199 64.4625 114.305C64.0662 115.047 63.4264 115.634 62.6515 115.963L28.4478 130.404V130.401Z" fill="#292966"/>
<path d="M191.644 233.194C184.244 233.194 177.435 232.24 171.282 230.332C162.794 227.702 155.55 223.276 149.756 217.179C139.885 206.795 137.701 195.201 137.613 194.714C137.252 192.721 138.579 190.813 140.572 190.452C142.565 190.094 144.475 191.417 144.834 193.41C144.851 193.498 146.815 203.587 155.315 212.378C160.249 217.479 166.434 221.189 173.692 223.399C182.953 226.22 194.027 226.619 206.616 224.588C219.238 222.551 229.895 218.697 238.293 213.129C244.912 208.744 250.163 203.276 253.899 196.883C260.31 185.914 260.086 175.808 260.084 175.708C260.042 174.302 260.809 172.984 262.056 172.333L291.085 157.214L263.673 150.568C262.693 150.331 261.851 149.7 261.352 148.822C253.456 134.991 246.279 124.583 236.919 118.745C228.023 113.195 216.96 111.495 199.927 113.071C197.91 113.259 196.123 111.774 195.935 109.755C195.75 107.738 197.232 105.951 199.252 105.763C218.008 104.028 230.435 106.047 240.802 112.517C251.134 118.962 258.786 129.69 266.934 143.806L302.318 152.382C303.803 152.743 304.91 153.988 305.095 155.505C305.28 157.023 304.505 158.496 303.149 159.204L267.36 177.845C267.102 181.937 265.889 190.733 260.456 200.208C256.183 207.661 250.174 214.009 242.599 219.081C233.279 225.319 221.568 229.61 207.784 231.835C202.14 232.745 196.754 233.2 191.647 233.2L191.644 233.194Z" fill="#292966"/>
<path d="M221.24 171.92C221.24 176.152 217.794 179.598 213.561 179.598C209.329 179.598 205.88 176.152 205.88 171.92C205.88 167.687 209.326 164.238 213.561 164.238C217.797 164.238 221.24 167.684 221.24 171.92Z" fill="#292966"/>
<path d="M248.172 171.655C248.172 175.888 244.726 179.336 240.491 179.336C236.255 179.336 232.812 175.888 232.812 171.655C232.812 167.422 236.258 163.977 240.491 163.977C244.723 163.977 248.172 167.422 248.172 171.655Z" fill="#292966"/>
</svg>
