<svg width="317" height="317" viewBox="0 0 317 317" fill="none" xmlns="http://www.w3.org/2000/svg">
<path d="M142.642 189.319C141.001 186.929 137.848 185.541 135.227 186.422C131.007 187.839 130.188 192.75 128.154 196.619C125.368 201.914 122.65 207.256 120 212.642C112.186 228.518 105.065 244.82 97.5895 260.896C95.5789 265.22 92.7024 269.875 94.6103 274.868C95.6523 277.591 97.8918 279.59 100.475 279.884C103.287 280.207 105.614 278.651 107.361 276.136C114.828 265.387 120.695 252.962 126.439 240.937C129.888 233.71 133.19 226.39 136.334 218.985C139.184 212.272 142.747 205.263 144.174 197.945C144.776 194.866 144.332 191.784 142.642 189.322V189.319Z" fill="#FF7534"/>
<path d="M261.226 55.2427C258.916 52.7184 255.494 51.7293 252.186 51.5121C249.474 51.333 246.366 52.0228 244.105 53.5696C241.188 55.5656 239.714 58.2336 238.458 61.4535C236.415 66.6928 234.499 71.985 232.52 77.2478C231.194 80.7759 233.991 85.2843 237.542 86.0944C240.818 86.84 243.609 85.5925 245.321 83.124C249.095 81.6124 252.509 79.5724 255.746 77.0041C259.668 73.8929 263.381 69.7836 264.068 64.6617C264.528 61.2363 263.58 57.8168 261.226 55.2427Z" fill="#FF7534"/>
<path d="M283.425 97.9406C281.341 94.6239 277.977 93.3764 274.49 92.0497C271.717 90.996 268.905 90.3062 265.934 90.089C262.94 89.8689 259.9 90.5528 257.126 91.6417C255.952 92.1055 254.795 92.6162 253.607 93.0447C253.02 93.2561 252.427 93.4498 251.822 93.6054C251.643 93.6523 251.464 93.6905 251.285 93.7316C251.258 93.7316 251.235 93.7316 251.209 93.7345C247.46 93.9517 243.835 96.8869 244.017 100.926C244.12 103.233 245.321 105.543 247.181 106.902C247.475 108.035 248.074 109.083 249.039 109.899C253.325 113.529 258.476 116.071 263.712 118.053C269.518 120.248 276.695 120.307 281.784 116.377C287.531 111.936 287.012 103.65 283.422 97.9377L283.425 97.9406Z" fill="#FF7534"/>
<path d="M182.266 157.508C182.093 153.613 179.108 150.316 175.075 150.316C171.312 150.316 167.711 153.624 167.884 157.508C168.057 161.403 171.042 164.699 175.075 164.699C178.838 164.699 182.44 161.391 182.266 157.508Z" fill="#FF7534"/>
<path d="M140.437 134.722C140.167 133.304 139.319 132.072 138.177 131.153C136.448 128.784 133.434 127.325 130.458 128.323C128.236 129.069 126.525 130.281 125.38 132.327C124.623 133.686 124.535 134.719 124.2 136.104C124.165 136.251 124.118 136.386 124.068 136.504C124.138 136.389 124.226 136.251 124.344 136.075C124.115 136.416 123.921 136.868 123.719 137.232C123.595 137.364 123.46 137.484 123.331 137.61C123.269 137.648 123.208 137.689 123.143 137.731C123.008 137.604 122.873 137.481 122.747 137.349C122.421 137.014 121.136 135.335 122.392 137.035C121.241 135.476 120.032 134.264 118.095 133.73C116.375 133.257 114.082 133.469 112.553 134.455C109.568 136.38 107.581 141.059 109.973 144.294C111.282 146.061 113.049 147.995 115.066 149.621C115.867 151.57 117.516 153.114 119.756 153.871C125.236 155.723 131.462 154.188 135.715 150.372C140.123 146.416 141.506 140.375 140.434 134.728L140.437 134.722Z" fill="#FF7534"/>
<path d="M124.068 136.501C123.725 137.059 123.898 136.909 124.068 136.501V136.501Z" fill="#FF7534"/>
<path d="M142.961 80.5499C143.836 82.4519 143.129 80.9138 142.991 80.4031C142.956 80.2769 142.926 80.1477 142.897 80.0186C142.87 79.3934 142.888 78.7741 142.956 78.143L142.876 78.7242C143.044 77.0952 142.932 75.607 142.037 74.0748C141.165 72.5838 139.454 71.1602 137.74 70.7698C135.899 70.3501 133.833 70.4411 132.198 71.4948C130.734 72.44 129.163 73.9868 128.893 75.7919C128.517 78.2986 128.441 80.2094 128.823 82.7043C129.102 84.5212 129.774 86.1385 130.543 87.8086C131.253 89.3525 133.267 90.6792 134.84 91.1136C136.56 91.5862 138.852 91.3748 140.381 90.3886C143.915 88.1109 144.649 84.2159 142.961 80.5499Z" fill="#FF7534"/>
<path d="M170.127 113.143C169.355 113.058 168.603 112.717 168.013 112.118C166.654 110.739 166.669 108.517 168.049 107.158L180.778 94.6071C182.158 93.2481 184.377 93.2628 185.739 94.6423C187.098 96.0218 187.083 98.2438 185.704 99.6028L172.974 112.154C172.19 112.926 171.139 113.254 170.124 113.143H170.127Z" fill="#292966"/>
<path d="M175.724 123.639C174.059 123.457 172.718 122.098 172.609 120.369C172.489 118.435 173.96 116.771 175.894 116.65L191.456 115.688C193.399 115.567 195.055 117.041 195.175 118.972C195.295 120.906 193.825 122.571 191.891 122.691L176.328 123.654C176.123 123.665 175.92 123.662 175.724 123.639Z" fill="#292966"/>
<path d="M75.7224 117.739L63.0189 105.711C61.6217 104.387 61.5601 102.183 62.8839 100.783C64.2076 99.3854 66.4119 99.3238 67.812 100.648L80.5155 112.676C81.9127 114 81.9743 116.204 80.6505 117.604C79.3268 119.001 77.1224 119.063 75.7224 117.739Z" fill="#292966"/>
<path d="M64.093 130.017C63.5646 129.518 63.1889 128.846 63.0569 128.074C62.734 126.178 64.0079 124.376 65.9069 124.053L74.5305 122.579C76.4296 122.256 78.2288 123.53 78.5517 125.429C78.8746 127.328 77.6007 129.128 75.7016 129.451L67.0781 130.924C65.9539 131.115 64.862 130.745 64.093 130.017Z" fill="#292966"/>
<path d="M163.299 172.051C162.137 172.051 160.998 171.497 160.291 170.484C159.219 168.952 159.472 166.862 160.875 165.629C162.944 163.809 163.974 162.098 163.942 160.551C163.895 158.461 162.014 155.864 158.5 153.037C157.053 151.875 156.704 149.814 157.684 148.238C158.665 146.662 160.666 146.069 162.348 146.85C168.647 149.785 172.933 148.684 176.681 143.16C177.682 141.684 179.604 141.141 181.23 141.878C182.856 142.614 183.716 144.414 183.27 146.142C181.729 152.08 183.655 157.91 189.155 163.968C190.373 165.309 190.429 167.337 189.29 168.743C188.151 170.149 186.153 170.516 184.588 169.6C179.44 166.595 173.053 167.249 165.054 171.602C164.5 171.905 163.898 172.048 163.302 172.048L163.299 172.051ZM170.176 155.682C170.875 157.235 171.239 158.799 171.274 160.387C171.28 160.675 171.274 160.962 171.259 161.247C173.54 160.68 175.741 160.407 177.855 160.422C176.827 158.282 176.12 156.122 175.739 153.947C173.995 154.892 172.137 155.471 170.176 155.682Z" fill="#292966"/>
<path d="M125.183 98.8744C123.88 98.8744 122.635 98.1759 121.972 96.9813C121.103 95.4139 121.496 93.4502 122.896 92.3349C123.275 92.0325 123.657 91.7449 124.041 91.4748C124.47 90.7792 125.089 89.2382 125.359 86.8607C125.682 84.0224 125.371 81.0931 124.546 79.2175C123.991 77.9495 123.454 77.5973 123.002 77.521C122.7 77.5386 122.391 77.5562 122.086 77.5679C120.131 77.6472 118.45 76.1884 118.27 74.2394C118.091 72.2905 119.474 70.5411 121.414 70.2711C121.922 70.2006 122.418 70.1625 122.911 70.1742C135.116 69.3494 142.321 64.1718 147.264 59.7044C148.679 58.4247 150.836 58.4423 152.228 59.7426C153.622 61.0428 153.786 63.1943 152.609 64.6913C148.747 69.6048 146.707 74.1602 146.539 78.2313C146.372 82.3288 148.068 86.124 151.729 89.837C152.897 91.0228 153.12 92.8456 152.275 94.278C151.426 95.7103 149.721 96.3942 148.121 95.9422C139.733 93.5764 133.889 93.8612 129.028 96.9578C128.256 97.7473 127.375 98.3197 126.404 98.6631C126.002 98.804 125.591 98.8715 125.186 98.8715L125.183 98.8744ZM131.306 76.3763C131.661 77.1893 131.954 78.0757 132.186 79.0297C132.829 81.6655 132.987 84.6916 132.659 87.6209C135.474 86.9958 138.274 86.8989 140.977 87.119C139.671 84.1838 139.078 81.1136 139.207 77.9348C139.266 76.4731 139.483 74.9879 139.856 73.4851C137.129 74.7443 134.297 75.7012 131.306 76.3792V76.3763Z" fill="#292966"/>
<path d="M124.815 154.368C124.692 154.368 124.569 154.362 124.446 154.35C108.375 152.718 101.09 144.282 99.6286 136.93C98.5338 131.417 100.565 126.381 104.806 124.1C106.911 122.967 112.165 121.262 119.409 126.633C123.269 120.804 127.258 118.098 131.311 118.579C134.748 118.987 137.36 121.661 138.479 125.917C139.535 129.938 139.151 134.987 137.425 139.768C135.423 145.319 131.81 150.123 126.979 153.657C126.348 154.121 125.587 154.365 124.813 154.365L124.815 154.368ZM109.661 130.258C109.103 130.258 108.643 130.37 108.285 130.563C106.967 131.271 106.382 133.255 106.829 135.5C107.739 140.085 112.676 145.374 123.753 146.88C129.776 141.881 132.095 134.737 131.687 129.636C131.493 127.211 130.718 126.055 130.428 125.867C129.855 125.876 127.202 127.229 123.562 134.006C123.013 135.025 122.018 135.726 120.874 135.899C119.729 136.07 118.572 135.694 117.748 134.881C114.272 131.444 111.469 130.258 109.661 130.258Z" fill="#292966"/>
<path d="M164.218 297.804C161.18 297.804 156.401 297.158 148.491 294.983C140.237 292.714 129.609 289.06 117.757 284.41C94.1432 275.15 69.0561 263.377 52.2845 253.685C46.3261 250.242 41.5857 247.154 38.1956 244.504C33.7958 241.069 31.6179 238.375 31.1336 235.771C30.3587 231.6 31.3097 222.513 48.4365 191.873C57.3536 175.917 67.3655 160.126 70.1686 155.852C71.0932 154.443 72.8543 153.847 74.4451 154.399L200.444 198.348C202.167 198.949 203.185 200.722 202.836 202.513C202.795 202.73 198.524 224.544 192.443 246.731C188.85 259.837 185.331 270.536 181.979 278.528C177.32 289.638 173.003 295.567 168.392 297.196C167.499 297.51 166.246 297.798 164.215 297.798L164.218 297.804ZM38.3394 234.377C38.4715 234.694 39.9156 237.532 51.1838 244.486C58.8182 249.197 69.2557 254.756 81.3692 260.565C99.0361 269.036 118.356 277.137 134.376 282.787C160.044 291.842 165.424 290.469 165.955 290.281C167.238 289.829 174.209 285.508 185.36 244.835C190.027 227.811 193.617 210.995 195.008 204.23L74.7533 162.286C70.7996 168.459 62.4285 181.893 54.844 195.46C49.4931 205.034 45.3575 213.188 42.5514 219.692C38.2514 229.666 38.1575 233.259 38.3394 234.38V234.377Z" fill="#292966"/>
<path d="M88.0024 271.731C87.477 271.731 86.9428 271.616 86.4379 271.379C84.6064 270.513 83.8227 268.326 84.6886 266.495L127.328 176.323C128.194 174.491 130.381 173.707 132.212 174.573C134.044 175.439 134.827 177.626 133.962 179.457L91.3221 269.629C90.6969 270.953 89.379 271.731 88.0024 271.731Z" fill="#292966"/>
<path d="M105.405 277.801C104.941 277.801 104.469 277.713 104.014 277.525C102.138 276.756 101.243 274.613 102.012 272.738L139.72 180.846C140.489 178.97 142.632 178.075 144.508 178.844C146.383 179.613 147.278 181.756 146.509 183.631L108.801 275.523C108.22 276.941 106.849 277.801 105.405 277.801Z" fill="#292966"/>
<path d="M250.665 171.87C250.395 171.87 250.125 171.84 249.858 171.779C248.898 171.562 248.064 170.969 247.545 170.129C247.342 169.801 227.043 136.997 206.928 104.211C165.888 37.318 165.603 35.8122 165.374 34.6029C165.066 32.9827 165.879 31.3537 167.361 30.6258L192.956 18.0485C194.709 17.1856 196.831 17.8489 197.782 19.5572L272.732 154.238C273.671 155.926 273.14 158.057 271.517 159.105L252.655 171.28C252.056 171.664 251.366 171.867 250.665 171.867V171.87ZM173.966 35.5598C182.454 50.5028 223.065 116.603 251.818 163.088L264.651 154.805L193.068 26.1731L173.966 35.5598Z" fill="#292966"/>
<path d="M231.515 90.3889C231.107 90.3889 230.694 90.3214 230.294 90.1805C229.035 89.7373 228.116 88.6425 227.896 87.3275C227.838 86.9782 226.461 78.6629 226.391 69.3583C226.288 55.7273 228.944 47.3532 234.518 43.7547C240.101 40.1503 245.977 39.5222 251.061 41.9848C256.01 44.3828 259.561 49.6221 260.107 55.3369C260.682 61.3306 253.38 69.9454 246.952 76.7814C240.579 83.5588 234.219 89.2237 233.952 89.4614C233.271 90.069 232.399 90.3889 231.515 90.3889ZM244.615 47.8522C242.696 47.8522 240.629 48.5449 238.498 49.9215C237.031 50.8696 233.632 54.6442 233.729 69.2204C233.752 72.8101 233.993 76.2912 234.269 79.1501C236.438 77.0691 239.05 74.4802 241.627 71.7388C252.989 59.6487 252.816 56.1823 252.804 56.0414C252.496 52.8215 250.556 49.898 247.864 48.5919C246.846 48.0988 245.76 47.8552 244.618 47.8552L244.615 47.8522Z" fill="#292966"/>
<path d="M268.544 117.323C267.71 117.323 266.862 117.232 266.005 117.047C254.032 114.467 233.935 95.6845 231.683 93.5506C230.768 92.6818 230.36 91.402 230.609 90.1634C230.859 88.9247 231.727 87.9003 232.907 87.4542C233.286 87.3104 242.282 83.9232 252.162 81.6014C267.199 78.0645 275.802 78.8923 279.231 84.2079C283.918 91.4695 283.539 104.329 278.423 111.731C275.911 115.368 272.4 117.323 268.544 117.323ZM241.255 92.3237C248.71 98.8427 260.774 108.414 267.548 109.873C268.758 110.134 270.578 110.178 272.386 107.557C275.761 102.673 276.105 92.896 273.067 88.1851C272.656 87.5452 270.892 86.8055 267.281 86.8055C267.249 86.8055 267.22 86.8055 267.187 86.8055C263.756 86.8173 259.286 87.463 253.903 88.7281C249.215 89.8288 244.66 91.2083 241.255 92.3207V92.3237Z" fill="#292966"/>
</svg>
