<svg width="317" height="317" viewBox="0 0 317 317" fill="none" xmlns="http://www.w3.org/2000/svg">
<path d="M245.125 136.307C243.35 135.139 241.286 134.288 239.507 133.568C237.547 132.779 235.536 131.981 233.948 130.586C231.412 128.359 230.405 125.045 229.299 121.974C228.134 118.746 226.601 115.805 225.982 112.388C225.275 108.487 225.95 103.82 220.235 103.195C216.29 102.764 212.727 105.235 212.025 109.201C210.296 118.954 204.793 127.936 196.824 133.836C195.095 135.115 193.243 136.266 191.761 137.827C187.543 142.268 189.421 148.148 193.146 152.189C195.75 155.016 198.171 158.007 200.399 161.139C203.754 165.853 206.663 170.883 209.072 176.143C211.11 180.59 213.023 186.17 219.243 184.591C222.856 183.672 223.854 181.101 224.324 177.816C224.814 174.391 225.859 171.048 227.365 167.931C231.512 159.339 239.032 154.262 246.464 148.782C248.498 147.282 249.578 144.705 249.287 142.204C248.982 139.574 247.265 137.71 245.128 136.307H245.125Z" fill="#FF7534"/>
<path d="M200.774 130.513C200.851 130.358 200.681 130.419 200.217 131.1C200.223 131.094 200.229 131.088 200.234 131.086C200.387 130.886 200.578 130.698 200.774 130.516V130.513Z" fill="#FF7534"/>
<path d="M227.857 166.467C227.857 166.467 227.861 166.463 227.864 166.46C227.864 166.46 227.864 166.463 227.861 166.467H227.857Z" fill="#FF7534"/>
<path d="M186.02 78.5605C183.419 77.0577 180.211 76.6057 177.329 75.8777C176.812 75.7486 176.284 75.6811 175.753 75.6664C175.606 75.6224 175.456 75.5783 175.303 75.5431C171.561 74.6919 167.455 76.6673 166.457 80.5652C165.773 83.2421 165.024 85.9014 164.2 88.5372C163.416 91.0468 162.304 93.5387 161.684 96.0865C160.387 101.399 164.103 104.98 168.394 107.208C171.118 108.62 174.059 109.224 176.912 107.607C179.234 106.289 180.317 104.164 180.965 101.701C181.103 101.173 181.262 100.651 181.438 100.134C181.538 99.8376 181.646 99.5471 181.758 99.2535C181.776 99.2095 181.79 99.1713 181.805 99.1332C182.219 98.3378 183.049 96.9377 183.137 96.7997C183.29 96.559 183.93 95.3028 184.203 95.2617C183.551 96.0953 183.469 96.2156 183.953 95.6198C184.156 95.382 184.361 95.1472 184.573 94.9183C185.315 94.1111 186.161 93.4301 186.942 92.664C188.741 90.8971 189.997 88.6458 190.079 86.0922C190.173 83.0953 188.667 80.0868 186.023 78.5575L186.02 78.5605Z" fill="#FF7534"/>
<path d="M109.409 167.761C104.401 159.845 91.1577 159.308 82.7777 158.762C74.7999 158.242 72.5633 173.737 70.5938 179.176C67.1684 188.627 63.746 198.079 60.3206 207.533C56.6693 217.612 65.5012 225.443 74.3479 228.144C86.2706 231.78 94.8267 227.654 99.6374 216.379C103.207 208.011 105.561 199.206 107.83 190.415C109.591 183.599 113.6 174.389 109.406 167.758L109.409 167.761Z" fill="#FF7534"/>
<path d="M211.466 180.828C210.309 180.828 209.182 180.282 208.472 179.284C207.45 177.842 206.761 176.219 206.411 174.444C197.48 153.783 183.05 143.196 162.413 142.118C160.561 142.021 159.073 140.56 158.944 138.711C158.814 136.861 160.082 135.206 161.902 134.854C173.241 132.647 182.851 128.493 190.462 122.508C198.134 116.477 204.054 108.358 208.058 98.3841C208.68 96.8343 210.271 95.9039 211.924 96.1093C213.579 96.3177 214.885 97.618 215.103 99.2735C216.368 108.951 219.009 116.635 223.177 122.77C227.733 129.468 234.128 134.381 242.708 137.76C243.189 137.909 243.662 138.094 244.126 138.311C245.901 139.151 246.7 141.241 245.94 143.052C245.176 144.863 243.128 145.752 241.284 145.071C240.976 144.957 240.674 144.842 240.369 144.725C236.397 143.692 227.897 147.998 220.644 156.653C215.684 162.574 213.095 168.462 213.523 172.415C213.999 173.542 214.457 174.696 214.9 175.873C215.549 177.599 214.815 179.539 213.189 180.405C212.643 180.695 212.053 180.833 211.469 180.833L211.466 180.828ZM178.606 137.616C191.055 141.663 201.017 149.891 208.401 162.224C209.922 158.834 212.17 155.33 215.02 151.931C219.212 146.932 224.68 142.253 230.192 139.568C224.897 136.142 220.521 131.904 217.11 126.888C214.011 122.326 211.648 117.099 209.981 111.07C202.74 123.277 192.243 132.156 178.609 137.613L178.606 137.616Z" fill="#292966"/>
<path d="M171.488 107.856C170.414 107.856 169.36 107.386 168.644 106.506C167.895 105.59 167.429 104.492 167.238 103.201C164.056 95.6252 156.877 91.6568 145.371 91.0933C143.577 91.0052 142.113 89.6345 141.907 87.8499C141.702 86.0682 142.814 84.3981 144.54 83.9021C150.76 82.1175 155.077 79.3202 157.367 75.5896C159.554 72.0292 160.088 67.4914 158.999 61.7179C158.652 59.8805 159.741 58.0783 161.529 57.5294C163.316 56.9805 165.23 57.864 165.973 59.5811C170.845 70.8405 176.008 75.2961 183.93 74.803C185.442 74.2248 186.854 74.2277 188.186 74.8089C189.677 75.4605 190.564 77.0132 190.361 78.6305C190.159 80.2448 188.917 81.5334 187.312 81.7946C186.857 81.868 186.408 81.9326 185.964 81.9854C184.594 82.9569 181.732 85.986 178.714 91.0874C175.58 96.3883 174.576 100.051 174.485 101.569C174.67 102.077 174.843 102.596 175.004 103.122C175.515 104.798 174.767 106.603 173.22 107.428C172.674 107.718 172.081 107.859 171.494 107.859L171.488 107.856ZM157.625 85.7982C160.22 86.6406 162.556 87.7295 164.62 89.0651C166.416 90.2274 168.016 91.5776 169.416 93.1068C171.045 89.3997 173.472 85.2816 176.04 81.8944C176.19 81.6948 176.343 81.4981 176.492 81.3074C172.096 80.0041 168.682 77.3419 165.952 74.0604C164.614 78.8066 161.825 82.7427 157.628 85.7982H157.625Z" fill="#292966"/>
<path d="M88.6398 222.525C86.3621 222.525 64.3424 217.715 51.4217 214.85C50.4032 214.624 49.5256 213.972 49.0148 213.062C48.5041 212.152 48.4073 211.066 48.7448 210.077L70.2832 147.352C70.6031 146.425 71.2812 145.662 72.1646 145.236C73.0481 144.81 74.0696 144.761 74.9912 145.089L104.763 155.779C106.489 156.399 107.493 158.201 107.111 159.994C107.079 160.144 103.897 175.102 100.486 189.868C98.4757 198.565 96.7791 205.501 95.4407 210.488C94.6188 213.547 93.9467 215.833 93.3831 217.48C92.6552 219.608 91.6572 222.522 88.6369 222.522L88.6398 222.525ZM57.0191 208.571C67.5036 210.879 81.0994 213.808 86.5559 214.829C88.8923 207.811 94.4398 184.11 99.2652 161.606L76.0127 153.255L57.0191 208.574V208.571Z" fill="#292966"/>
<path d="M171.046 269.16C154.767 269.16 139.663 268.15 133.099 265.297C126.551 262.45 116.786 253.574 104.076 238.918C94.7982 228.217 87.2078 218.155 87.1315 218.055C85.9134 216.438 86.2363 214.137 87.8565 212.919C89.4767 211.7 91.775 212.023 92.9931 213.644C101.159 224.486 124.805 253.694 136.026 258.572C141.7 261.038 158.407 262.206 180.723 261.701C200.794 261.243 218.977 259.614 224.313 258.364C231.234 256.747 236.192 251.863 238.038 247.742C238.59 246.512 239.359 244.219 238.511 242.379C238.012 242.027 235.978 240.964 228.552 239.69C222.769 238.698 215.443 237.847 207.688 236.946C189.458 234.827 170.605 232.637 161.891 227.765C145.096 218.375 137.802 200.714 137.499 199.966C136.992 198.709 137.218 197.277 138.086 196.235C138.955 195.193 140.326 194.72 141.653 194.996C141.747 195.017 151.145 196.972 161.037 197.981C176.851 199.596 180.567 197.512 181.254 196.96C180.758 195.577 176.975 191.313 163.796 184.861C153.972 180.05 141.893 175.548 133.736 173.658C118.062 170.024 103.193 168.04 103.046 168.019C101.038 167.752 99.6237 165.909 99.8908 163.901C100.155 161.893 101.998 160.481 104.009 160.746C104.161 160.766 119.366 162.794 135.398 166.51C143.613 168.415 155.413 172.736 165.46 177.514C178.181 183.567 185.733 189.076 187.905 193.884C189.191 196.728 188.58 198.959 187.844 200.327C185.126 205.375 176.763 206.919 160.734 205.325C155.962 204.853 151.339 204.172 147.687 203.564C151.01 208.944 156.848 216.532 165.475 221.354C172.912 225.513 191.838 227.712 208.54 229.652C216.952 230.629 224.894 231.551 231.076 232.678C239.482 234.21 243.345 235.881 244.848 238.637C246.729 242.086 246.691 246.38 244.742 250.733C241.59 257.777 234.228 263.577 225.992 265.502C218.795 267.187 193.784 269.157 171.054 269.157L171.046 269.16Z" fill="#292966"/>
<path d="M153.657 196.951C154.224 196.951 154.224 196.07 153.657 196.07C153.091 196.07 153.091 196.951 153.657 196.951Z" fill="#292966"/>
</svg>
