<svg width="317" height="317" viewBox="0 0 317 317" fill="none" xmlns="http://www.w3.org/2000/svg">
<path d="M222.378 154.053C217.477 146.31 209.02 141.476 199.83 141.326C194.823 141.247 192.011 148.089 189.208 151.485C183.581 158.306 178.304 165.453 173.009 172.533C165.295 182.844 157.76 193.287 150.273 203.766C146.768 208.671 135.711 226.364 127.378 220.306C124.692 218.351 122.004 216.399 119.318 214.444C110.921 208.336 98.0644 213.775 102.966 225.393C106.048 232.692 114.252 236.992 120.856 240.544C129.107 244.985 133.809 244.958 140.208 237.315C146.926 229.29 153.625 221.248 160.331 213.214C177.546 192.601 194.928 174.94 219.801 163.889C223.271 162.348 224.28 157.053 222.381 154.05L222.378 154.053Z" fill="#FF7534"/>
<path d="M213.323 221.487C212.918 220.824 212.728 220.022 212.839 219.192C213.097 217.272 214.861 215.922 216.781 216.18L234.498 218.552C236.417 218.807 237.765 220.574 237.509 222.494C237.251 224.413 235.487 225.763 233.567 225.505L215.851 223.134C214.762 222.987 213.858 222.356 213.323 221.487Z" fill="#292966"/>
<path d="M208.454 232.342C207.58 230.912 207.832 229.019 209.132 227.877C210.588 226.597 212.804 226.741 214.084 228.197L224.378 239.908C225.663 241.37 225.514 243.58 224.061 244.86C222.605 246.14 220.389 245.996 219.109 244.54L208.815 232.829C208.68 232.673 208.56 232.512 208.457 232.342H208.454Z" fill="#292966"/>
<path d="M90.6389 165.577L81.8334 150.46C80.8648 148.796 81.4283 146.662 83.0896 145.694C84.7539 144.725 86.8878 145.289 87.8564 146.95L96.6619 162.066C97.6305 163.73 97.067 165.864 95.4057 166.833C93.7414 167.802 91.6075 167.238 90.6389 165.577Z" fill="#292966"/>
<path d="M76.0247 174.088C75.6578 173.46 75.4846 172.712 75.5756 171.934C75.7987 170.023 77.5305 168.652 79.4413 168.875L88.1294 169.888C90.0402 170.111 91.411 171.843 91.1879 173.754C90.9648 175.664 89.233 177.035 87.3222 176.812L78.6341 175.799C77.5011 175.667 76.5589 175.004 76.0247 174.088Z" fill="#292966"/>
<path d="M133.076 240.034C132.536 240.034 131.987 239.914 131.47 239.664C126.531 237.257 121.999 233.23 117.616 229.332C111.053 223.494 104.264 217.46 96.3862 217.113C95.0448 217.054 93.8414 216.265 93.2514 215.059C92.6615 213.852 92.7789 212.417 93.5567 211.322L105.832 194.04C106.659 192.874 108.092 192.293 109.498 192.557C119.489 194.424 125.999 200.791 132.542 209.282C144.805 186.881 161.556 167.667 180.741 145.662C184.935 140.848 189.273 135.873 193.691 130.719C194.342 129.959 195.278 129.495 196.279 129.442C197.28 129.386 198.261 129.747 198.991 130.434L219.109 149.36C219.893 150.097 220.313 151.139 220.26 152.213C220.207 153.288 219.685 154.283 218.833 154.94C206.864 164.16 191.178 176.616 176.018 191.228C160.08 206.591 147.03 222.021 136.129 238.399C135.427 239.45 134.268 240.034 133.073 240.034H133.076ZM102.891 210.858C110.496 213.18 116.797 218.783 122.495 223.849C125.735 226.732 128.838 229.488 131.937 231.499C142.739 215.725 155.521 200.794 170.928 185.944C184.944 172.437 199.344 160.781 210.952 151.761L196.761 138.412C193.189 142.557 189.684 146.575 186.273 150.487C165.944 173.805 148.389 193.94 136.355 217.8C135.779 218.942 134.649 219.702 133.375 219.805C132.102 219.91 130.863 219.341 130.111 218.305C122.647 208.032 117.522 202.423 110.384 200.309L102.891 210.861V210.858Z" fill="#292966"/>
<path d="M69.7434 270.727C55.3052 270.727 43.5586 258.98 43.5586 244.542C43.5586 244.492 43.5586 244.442 43.5615 244.392L49.1149 108.15C49.156 90.1072 63.8202 75.4342 81.8598 75.3785L219.414 67.7969C219.482 67.7939 219.549 67.791 219.617 67.791C242.447 67.791 261.029 86.3296 261.1 109.145L269.914 235.78C269.92 235.866 269.923 235.951 269.923 236.036C269.923 254.143 255.2 268.875 237.096 268.883L69.7845 270.727C69.7845 270.727 69.7581 270.727 69.7434 270.727ZM50.8966 244.615C50.9347 254.968 59.3646 263.38 69.7228 263.389L237.031 261.546C237.031 261.546 237.058 261.546 237.072 261.546C251.097 261.546 262.515 250.169 262.582 236.159L253.771 109.529C253.765 109.444 253.762 109.359 253.762 109.274C253.762 90.48 238.496 75.1818 219.714 75.129L82.1651 82.7106C82.0976 82.7135 82.0301 82.7164 81.9626 82.7164C67.8971 82.7164 56.4529 94.1607 56.4529 108.226C56.4529 108.276 56.4529 108.326 56.4499 108.376L50.8966 244.615Z" fill="#292966"/>
<path d="M112.861 93.3039C113.116 97.3427 104.78 95.9954 104.78 95.9954V49.9424L112.867 52.3668C112.867 52.3668 112.608 89.2621 112.861 93.3039Z" fill="#292966"/>
<path d="M107.619 99.8906C106.128 99.8906 104.851 99.7233 104.193 99.6176C102.415 99.33 101.108 97.7949 101.108 95.9956V49.9426C101.108 48.7832 101.657 47.6913 102.588 46.9986C103.518 46.3059 104.722 46.0945 105.831 46.4262L113.918 48.8507C115.479 49.3203 116.545 50.7615 116.533 52.3905C116.462 62.6167 116.319 89.8581 116.521 93.0722C116.636 94.9125 115.966 96.5944 114.631 97.8037C112.785 99.4797 109.937 99.8877 107.616 99.8877L107.619 99.8906ZM108.449 54.8737V92.5233C108.711 92.5086 108.948 92.4851 109.157 92.4529C108.998 86.3829 109.127 63.1802 109.18 55.0938L108.449 54.8737Z" fill="#292966"/>
<path d="M200.291 94.5222H193.399C191.448 94.5222 189.836 92.993 189.736 91.044L188.145 60.3156C188.098 59.3969 188.398 58.4928 188.985 57.7854L195.657 49.7313C196.622 48.5631 198.207 48.1111 199.645 48.5924C201.084 49.0738 202.076 50.3858 202.146 51.9004L203.96 90.683C204.007 91.6839 203.643 92.6613 202.95 93.3863C202.258 94.1113 201.298 94.5222 200.297 94.5222H200.291Z" fill="#292966"/>
<path d="M54.5125 133.39C51.5274 133.39 50.1508 133.067 49.0971 131.778C48.3193 130.827 48.058 129.556 48.3956 128.379C48.9533 126.43 50.9844 125.3 52.9334 125.861C53.0919 125.905 53.2445 125.961 53.3913 126.025C58.6042 126.372 89.7494 123.935 119.9 121.578C190.94 116.025 246.277 111.975 258.754 114.446C260.742 114.839 262.033 116.771 261.64 118.758C261.246 120.745 259.315 122.039 257.328 121.643C244.848 119.172 172.959 124.79 120.469 128.893C102.239 130.319 85.0179 131.664 72.6872 132.489C66.0977 132.929 61.2488 133.199 57.8586 133.313C56.5554 133.357 55.4518 133.39 54.5096 133.39H54.5125Z" fill="#292966"/>
</svg>
