<svg width="39" height="40" viewBox="0 0 39 40" fill="none" xmlns="http://www.w3.org/2000/svg">
<path d="M34.0707 20.351C34.0598 20.3611 34.0499 20.3713 34.0391 20.3814C34.1004 20.3378 34.1745 20.281 34.2259 20.2344C34.2249 20.2344 34.223 20.2364 34.222 20.2374C34.1706 20.28 34.1053 20.3216 34.0717 20.352L34.0707 20.351Z" fill="#505EFF"/>
<path d="M24.5977 25.9861C24.6827 25.8655 24.7222 25.7924 24.5977 25.9861V25.9861Z" fill="#505EFF"/>
<path d="M20.5052 26.8341C20.1661 26.8341 19.816 26.8087 19.4542 26.759C17.1019 26.4335 15.3331 25.605 14.196 24.2948C13.2112 23.16 12.7109 21.6896 12.7109 19.926C12.7109 16.7205 15.3242 13.0921 19.2149 12.802C20.9818 12.6702 22.8416 13.447 24.3198 14.9347C25.7475 16.3706 26.583 18.2406 26.5 19.8155C26.4396 20.9787 26.0787 23.8699 24.0518 25.5908C23.0779 26.4173 21.8885 26.8341 20.5042 26.8341H20.5052ZM19.3415 14.5726C16.4543 14.7886 14.4412 17.5673 14.4412 19.9271C14.4412 22.8537 16.1567 24.5138 19.6855 25.0006C21.0263 25.1862 22.1248 24.9245 22.9494 24.2248C23.3389 23.8932 24.6233 22.5901 24.7736 19.7212C24.829 18.6564 24.1754 17.2752 23.1096 16.2023C21.9863 15.0726 20.613 14.4783 19.3424 14.5736L19.3415 14.5726Z" fill="#292966" stroke="#292966" stroke-width="0.8"/>
<path d="M23.3143 37.7074C23.2006 37.7074 23.0869 37.6841 22.9801 37.6385C22.7666 37.5472 22.5985 37.3717 22.5115 37.1517L20.9235 33.1085L18.0107 33.0182L16.492 37.1344C16.4089 37.3586 16.2418 37.5391 16.0273 37.6344C15.8127 37.7297 15.5695 37.7317 15.3539 37.6415L9.77051 35.2868C9.55694 35.1965 9.38786 35.0231 9.29986 34.8051C9.21187 34.587 9.21286 34.3416 9.30184 34.1236L11.0064 29.9506L9.26526 28.0786L5.41114 29.7488C4.97906 29.9364 4.47974 29.7356 4.28595 29.2975L1.92878 23.9522C1.83287 23.7352 1.82595 23.4878 1.91 23.2657C1.99404 23.0436 2.16114 22.8651 2.3747 22.7708L6.3455 21.0174L6.47799 18.1445L2.64463 16.386C2.21651 16.1903 2.01876 15.6802 2.19871 15.2361L4.33736 9.94653C4.42536 9.7285 4.59542 9.55509 4.808 9.46585C5.02058 9.37661 5.25986 9.37762 5.47244 9.46889L9.35425 11.1452L11.3604 9.18292L9.67954 5.23403C9.5866 5.016 9.58265 4.76856 9.66965 4.54749C9.75666 4.32641 9.92673 4.15097 10.1413 4.0597L15.5388 1.76886C15.7514 1.67861 15.9897 1.67861 16.2023 1.76886C16.4149 1.85912 16.583 2.03253 16.67 2.25056L18.3004 6.31911C18.7799 6.31201 19.5581 6.31404 20.8514 6.33534L22.7824 2.20391C22.9841 1.7719 23.4834 1.58227 23.9105 1.77495L29.0599 4.09723C29.4821 4.28788 29.6838 4.78377 29.5197 5.2249L27.9743 9.38472L29.8034 11.3947L33.7792 9.71937C34.2211 9.53379 34.7264 9.74878 34.9083 10.2021L37.0796 15.6103C37.2605 16.0595 37.0539 16.5747 36.6179 16.7653L32.6065 18.5126L32.564 21.1178L36.6505 23.1004C36.8591 23.2018 37.0193 23.3833 37.0964 23.6064C37.1735 23.8295 37.1607 24.0749 37.0598 24.2879L34.5781 29.5693C34.3774 29.9972 33.883 30.1869 33.4578 29.9993L29.6532 28.327L27.7439 30.2852L29.3259 34.2575C29.5058 34.7087 29.2962 35.2249 28.8572 35.4125L23.6455 37.6395C23.5388 37.6851 23.426 37.7074 23.3123 37.7074H23.3143ZM17.4204 31.2243C17.4293 31.2243 17.4382 31.2243 17.4471 31.2243L21.5415 31.3511C21.8846 31.3622 22.1891 31.5792 22.3177 31.9068L23.7899 35.6549L27.3998 34.1124L25.9256 30.411C25.7941 30.0804 25.8682 29.7011 26.1144 29.4476L28.8444 26.6477C29.0945 26.3911 29.4722 26.3171 29.7965 26.4591L33.3787 28.0339L35.1229 24.3224L31.3202 22.4777C31.0127 22.3286 30.8189 22.0092 30.8248 21.6604L30.8871 17.9062C30.893 17.5553 31.0997 17.2419 31.4141 17.104L35.1555 15.4744L33.6388 11.6969L29.9092 13.2687C29.576 13.4087 29.1934 13.3235 28.9482 13.0537L26.3428 10.1909C26.1174 9.94349 26.0492 9.58551 26.1668 9.27013L27.6114 5.38209L23.9817 3.74534L22.1723 7.61614C22.026 7.92949 21.7145 8.12522 21.3764 8.12015C19.8903 8.09276 18.2075 8.0806 17.8901 8.10493C17.4926 8.18099 17.0892 7.96296 16.932 7.56949L15.4004 3.74736L11.6195 5.35166L13.1896 9.03993C13.3349 9.38168 13.2568 9.77921 12.9938 10.0368L10.1403 12.8296C9.89113 13.073 9.5253 13.143 9.20791 13.005L5.60493 11.4494L4.12181 15.1174L7.72579 16.7704C8.05108 16.9195 8.25377 17.2572 8.23697 17.6222L8.05108 21.6543C8.03526 21.993 7.83257 22.2932 7.52903 22.427L3.87166 24.0425L5.51792 27.7754L9.14562 26.2035C9.47685 26.0595 9.86048 26.1416 10.1087 26.4084L12.6517 29.1444C12.889 29.3999 12.9562 29.7741 12.8237 30.0997L11.2368 33.9847L15.1918 35.6518L16.6136 31.7973C16.7411 31.4515 17.0635 31.2243 17.4224 31.2243H17.4204ZM18.0018 8.07552H18.0008C18.0008 8.07552 18.0008 8.07552 18.0018 8.07552ZM18.0048 8.07451C18.0048 8.07451 18.0038 8.07451 18.0028 8.07451C18.0028 8.07451 18.0038 8.07451 18.0048 8.07451Z" fill="#292966" stroke="#292966" stroke-width="0.8"/>
</svg>
