<svg width="30" height="38" viewBox="0 0 30 38" fill="none" xmlns="http://www.w3.org/2000/svg">
<g clip-path="url(#clip0_2000_12518)">
<path d="M0.817021 35.4772C0.629414 35.4772 0.443834 35.4175 0.289691 35.304C0.0635481 35.1369 -0.0703125 34.8726 -0.0703125 34.591C-0.0703125 34.3095 -0.020622 27.944 4.2974 23.7976C6.80323 21.3923 10.2025 20.2559 14.4049 20.421C18.7848 20.5932 22.1404 22.008 24.3806 24.6261C27.9481 28.7968 27.3265 34.4563 27.2991 34.6953C27.2657 34.982 27.0943 35.2341 26.8397 35.3709C26.5852 35.5076 26.281 35.5127 26.0224 35.385C25.1878 34.9698 21.0553 34.5829 13.7082 34.6528C7.8802 34.7085 2.33208 35.0539 1.07866 35.4387C0.993474 35.4651 0.905248 35.4782 0.818036 35.4782L0.817021 35.4772ZM13.62 22.1772C10.2562 22.1772 7.54048 23.1474 5.53662 25.0657C2.7509 27.7334 1.98932 31.6225 1.78143 33.4992C4.35013 33.1295 9.42365 32.9209 13.6889 32.8804C17.1622 32.847 22.8006 32.8885 25.5752 33.4314C25.566 31.74 25.2395 28.3522 23.0196 25.7655C21.1141 23.5455 18.1915 22.3433 14.3339 22.1914C14.0925 22.1822 13.8542 22.1772 13.619 22.1772H13.62Z" fill="#292966" stroke="#292966" stroke-width="0.5" paint-order="stroke fill"/>
<path d="M13.6416 18.8258C8.50624 18.8258 4.32715 14.6531 4.32715 9.52329C4.32715 4.39348 8.50624 0.220764 13.6416 0.220764C18.777 0.220764 22.9561 4.39348 22.9561 9.52329C22.9561 14.6531 18.778 18.8258 13.6416 18.8258ZM13.6416 1.99316C9.48382 1.99316 6.10182 5.37083 6.10182 9.52329C6.10182 13.6758 9.48382 17.0534 13.6416 17.0534C17.7994 17.0534 21.1814 13.6758 21.1814 9.52329C21.1814 5.37083 17.7994 1.99316 13.6416 1.99316Z" fill="#292966" stroke="#292966" stroke-width="0.5" paint-order="stroke fill"/>
</g>
<defs>
<clipPath id="clip0_2000_12518">
<rect width="30" height="38" fill="white"/>
</clipPath>
</defs>
</svg>
