<svg width="40" height="40" viewBox="0 0 40 40" fill="none" xmlns="http://www.w3.org/2000/svg">
<path d="M7.17444 37.6504C6.98684 37.6504 6.80126 37.5905 6.64711 37.477C6.42097 37.3096 6.28711 37.0449 6.28711 36.763C6.28711 36.4811 6.3368 30.1075 10.6548 25.9558C13.1607 23.5473 16.5599 22.4095 20.7623 22.5748C25.1422 22.7472 28.4978 24.1639 30.738 26.7853C34.3056 30.9614 33.6839 36.6282 33.6565 36.8675C33.6231 37.1545 33.4517 37.407 33.1972 37.5439C32.9426 37.6808 32.6384 37.6859 32.3798 37.5581C31.5452 37.1423 27.4128 36.7549 20.0656 36.8249C14.2376 36.8807 8.6895 37.2265 7.43608 37.6118C7.3509 37.6382 7.26267 37.6514 7.17546 37.6514L7.17444 37.6504ZM19.9774 24.3343C16.6136 24.3343 13.8979 25.3058 11.894 27.2265C9.10832 29.8976 8.34674 33.7917 8.13885 35.6709C10.7076 35.3007 15.7811 35.0918 20.0464 35.0512C23.5196 35.0178 29.158 35.0593 31.9326 35.6029C31.9235 33.9094 31.5969 30.5172 29.3771 27.9272C27.4716 25.7043 24.5489 24.5006 20.6913 24.3485C20.45 24.3393 20.2117 24.3343 19.9764 24.3343H19.9774Z" fill="#292966" stroke="#292966"/>
<path d="M20 20.9775C14.8646 20.9775 10.6855 16.7995 10.6855 11.6631C10.6855 6.52667 14.8636 2.34961 20 2.34961C25.1364 2.34961 29.3145 6.52768 29.3145 11.6641C29.3145 16.8005 25.1364 20.9785 20 20.9785V20.9775ZM20 4.12428C15.8422 4.12428 12.4602 7.50629 12.4602 11.6641C12.4602 15.8219 15.8422 19.2039 20 19.2039C24.1578 19.2039 27.5398 15.8219 27.5398 11.6641C27.5398 7.50629 24.1578 4.12428 20 4.12428Z" fill="#292966" stroke="#292966"/>
</svg>
