<svg width="37" height="38" viewBox="0 0 37 38" fill="none" xmlns="http://www.w3.org/2000/svg">
<g clip-path="url(#clip0_2000_12526)">
<path d="M19.0322 26.5049C18.6844 26.5049 18.3254 26.4789 17.9542 26.4279C15.5417 26.0943 13.7275 25.2451 12.5613 23.9021C11.5512 22.7389 11.0381 21.2317 11.0381 19.4241C11.0381 16.1385 13.7183 12.4193 17.7088 12.122C19.521 11.9869 21.4285 12.7831 22.9446 14.308C24.4089 15.7798 25.2658 17.6966 25.1807 19.3108C25.1188 20.5031 24.7487 23.4666 22.6698 25.2305C21.6709 26.0777 20.4509 26.5049 19.0312 26.5049H19.0322ZM17.8386 13.9369C14.8775 14.1583 12.8128 17.0064 12.8128 19.4252C12.8128 22.425 14.5722 24.1266 18.1915 24.6255C19.5666 24.8158 20.6933 24.5476 21.539 23.8304C21.9386 23.4905 23.2559 22.1548 23.4101 19.2142C23.4668 18.1228 22.7965 16.707 21.7033 15.6073C20.5513 14.4493 19.1427 13.8402 17.8396 13.9379L17.8386 13.9369Z" fill="#292966" stroke="#292966" stroke-width="0.5" paint-order="stroke fill"/>
<path d="M21.9135 37.6498C21.7968 37.6498 21.6802 37.6259 21.5707 37.5792C21.3517 37.4856 21.1793 37.3058 21.09 37.0802L19.4614 32.9359L16.4739 32.8434L14.9162 37.0625C14.831 37.2923 14.6596 37.4773 14.4396 37.575C14.2195 37.6727 13.9701 37.6748 13.749 37.5823L8.02238 35.1687C7.80334 35.0762 7.62993 34.8984 7.53967 34.6749C7.44942 34.4515 7.45043 34.1999 7.5417 33.9764L9.29 29.6991L7.50418 27.7803L3.55124 29.4922C3.10808 29.6845 2.59596 29.4787 2.39719 29.0297L-0.0204104 23.5508C-0.118778 23.3283 -0.125876 23.0747 -0.0396782 22.8471C0.0465199 22.6194 0.217902 22.4365 0.436947 22.3398L4.50956 20.5426L4.64544 17.5978L0.713795 15.7954C0.274692 15.5948 0.0718723 15.072 0.256438 14.6167L2.44993 9.19494C2.54018 8.97146 2.71461 8.79371 2.93264 8.70224C3.15067 8.61077 3.39608 8.61181 3.61411 8.70536L7.59545 10.4236L9.65305 8.41223L7.92909 4.36462C7.83376 4.14114 7.82971 3.88752 7.91895 3.66092C8.00819 3.43432 8.18261 3.25449 8.40267 3.16094L13.9386 0.812827C14.1567 0.720316 14.401 0.720316 14.6191 0.812827C14.8371 0.905338 15.0095 1.08308 15.0987 1.30657L16.771 5.47683C17.2628 5.46956 18.0609 5.47163 19.3874 5.49346L21.3679 1.25875C21.5748 0.815945 22.0869 0.621569 22.525 0.819064L27.8064 3.1994C28.2394 3.39482 28.4463 3.90311 28.2779 4.35527L26.6929 8.61908L28.569 10.6793L32.6467 8.9621C33.1 8.77188 33.6182 8.99225 33.8048 9.45688L36.0317 15.0003C36.2173 15.4607 36.0053 15.9888 35.5581 16.1842L31.4439 17.9752L31.4003 20.6455L35.5916 22.6776C35.8056 22.7816 35.9699 22.9676 36.049 23.1963C36.1281 23.425 36.1149 23.6765 36.0114 23.8948L33.4661 29.3083C33.2602 29.7469 32.7531 29.9413 32.3171 29.749L28.4148 28.0349L26.4566 30.0421L28.0792 34.1136C28.2637 34.5762 28.0488 35.1053 27.5985 35.2976L22.2532 37.5802C22.1437 37.627 22.0281 37.6498 21.9114 37.6498H21.9135ZM15.8684 31.0046C15.8776 31.0046 15.8867 31.0046 15.8958 31.0046L20.0952 31.1346C20.4471 31.146 20.7594 31.3685 20.8913 31.7042L22.4013 35.546L26.1037 33.965L24.5917 30.171C24.4568 29.8321 24.5329 29.4434 24.7854 29.1835L27.5853 26.3136C27.8419 26.0506 28.2293 25.9748 28.5619 26.1203L32.236 27.7345L34.0248 23.9302L30.1246 22.0394C29.8092 21.8866 29.6105 21.5592 29.6165 21.2016L29.6804 17.3536C29.6865 16.9939 29.8985 16.6727 30.2209 16.5314L34.0583 14.861L32.5027 10.989L28.6775 12.6002C28.3357 12.7436 27.9433 12.6563 27.6918 12.3798L25.0196 9.44545C24.7884 9.19182 24.7185 8.8249 24.8391 8.50163L26.3207 4.51638L22.598 2.83871L20.7422 6.80629C20.5921 7.12748 20.2727 7.32809 19.9258 7.32289C18.4017 7.29483 16.6757 7.28235 16.3501 7.3073C15.9425 7.38526 15.5287 7.16178 15.3675 6.75847L13.7966 2.84079L9.91874 4.4852L11.5291 8.26567C11.6782 8.61597 11.5981 9.02343 11.3283 9.28745L8.40166 12.1501C8.1461 12.3996 7.77089 12.4713 7.44536 12.3299L3.75 10.7354L2.22885 14.4951L5.92523 16.1894C6.25887 16.3422 6.46676 16.6883 6.44952 17.0625L6.25887 21.1954C6.24265 21.5425 6.03476 21.8502 5.72343 21.9874L1.97229 23.6433L3.66076 27.4695L7.38148 25.8583C7.7212 25.7107 8.11467 25.7949 8.3692 26.0683L10.9775 28.8727C11.2208 29.1347 11.2898 29.5182 11.1539 29.8519L9.52629 33.834L13.5827 35.5429L15.0409 31.5919C15.1718 31.2375 15.5024 31.0046 15.8705 31.0046H15.8684ZM16.4647 7.27716H16.4637C16.4637 7.27716 16.4637 7.27716 16.4647 7.27716ZM16.4678 7.27612C16.4678 7.27612 16.4668 7.27612 16.4657 7.27612C16.4657 7.27612 16.4668 7.27612 16.4678 7.27612Z" fill="#292966" stroke="#292966" stroke-width="0.5" paint-order="stroke fill"/>
</g>
<defs>
<clipPath id="clip0_2000_12526">
<rect width="37" height="38" fill="white"/>
</clipPath>
</defs>
</svg>
