<svg width="40" height="40" viewBox="0 0 34 37" fill="none" xmlns="http://www.w3.org/2000/svg">
<path d="M32.824 26.0973C32.0768 25.4086 31.0509 25.1202 30.2234 25.0034C30.4656 23.8726 30.7844 22.0698 30.9061 19.9667C31.1824 15.1778 30.3318 11.3136 28.375 8.47884C26.5046 5.76923 23.6789 4.10462 19.9648 3.52432C20.0257 2.89518 20.0245 2.0313 19.3978 1.34138C18.883 0.774198 18.0762 0.48584 17.0004 0.48584C15.9247 0.48584 15.0753 0.786114 14.5605 1.37713C13.9874 2.03487 13.9642 2.84871 14.0287 3.46117C10.1443 3.96401 7.25904 5.58573 5.4434 8.287C3.60221 11.0252 2.92439 14.7536 3.42819 19.3673C3.64602 21.3644 4.04395 23.0803 4.33844 24.1681C2.45222 24.5268 0.202148 25.6647 0.202148 28.3815C0.202148 29.2359 0.842246 29.9043 2.1054 30.3655C2.92195 30.6645 4.08167 30.9172 5.55049 31.1161C7.40994 31.3688 9.80604 31.5392 12.4845 31.6142C12.3823 32.5413 12.3969 33.8103 13.2207 34.7599C13.8681 35.5071 14.8562 35.8872 16.1559 35.8872C17.7878 35.8872 18.7017 35.1961 19.1812 34.617C19.9539 33.6816 20.1048 32.4698 20.0878 31.5809C22.7893 31.4855 25.3424 31.3056 27.4391 31.0554C32.0744 30.5025 33.7975 29.778 33.7975 28.3815C33.7975 27.4747 33.4604 26.6859 32.8228 26.0973H32.824ZM17.5225 33.3074C17.4215 33.429 17.1124 33.8007 16.1559 33.8007C15.5097 33.8007 15.0692 33.6697 14.8441 33.4099C14.5033 33.0167 14.5459 32.2362 14.625 31.6524C14.9731 31.6559 15.3223 31.6571 15.6764 31.6571C16.437 31.6571 17.1976 31.65 17.9545 31.6357C17.9618 32.1969 17.8754 32.882 17.5225 33.3062V33.3074ZM26.8124 29.0273C24.0537 29.3371 20.5538 29.529 16.9579 29.5659C13.2706 29.6041 9.77927 29.4754 7.12883 29.2025C3.68739 28.8486 2.62746 28.3589 2.34027 28.1778C2.38286 27.6284 2.63963 26.9338 3.82856 26.4786C4.73881 26.1295 5.69895 26.1175 5.72208 26.1175C6.06403 26.1175 6.38408 25.9555 6.58365 25.6826C6.78323 25.4098 6.83677 25.0594 6.72846 24.7413C6.69561 24.6448 3.4574 15.0277 7.22618 9.42852C8.81182 7.0728 11.4854 5.72991 15.1739 5.43797C15.5036 5.41176 15.7981 5.25805 16.0001 5.00544C16.3555 4.56218 16.2727 4.05814 16.2009 3.6125C16.1669 3.40398 16.0768 2.84871 16.1815 2.72955C16.2204 2.68546 16.4431 2.56988 17.0017 2.56988C17.6588 2.56988 17.806 2.7224 17.8073 2.72479C17.9083 2.8356 17.8438 3.3587 17.817 3.58271C17.7598 4.05338 17.6953 4.58601 18.0616 5.03761C18.266 5.28903 18.5605 5.4487 18.8915 5.48445C22.3683 5.86455 24.9652 7.26345 26.608 9.64062C30.6774 15.5281 27.9004 25.5956 27.8711 25.6969C27.7799 26.021 27.8541 26.3678 28.0695 26.6287C28.2849 26.8909 28.6171 27.035 28.9591 27.016C29.3911 26.9933 30.7601 27.0541 31.3686 27.6165C31.5049 27.7428 31.5925 27.887 31.6363 28.0658C31.2274 28.2564 30.03 28.6651 26.8136 29.0261L26.8124 29.0273Z" fill="#292966" stroke="#292966" stroke-width="0.65"/>
<path d="M20.7003 8.21821C20.1223 8.11216 19.5662 8.48512 19.4579 9.05111C19.3495 9.61711 19.7304 10.1617 20.3085 10.2677C23.066 10.7741 24.3255 14.207 23.9507 17.2336C23.8801 17.8055 24.2951 18.325 24.8792 18.3942C24.923 18.3989 24.9656 18.4013 25.0094 18.4013C25.54 18.4013 26 18.0129 26.0657 17.4838C26.3225 15.4153 25.9817 13.3479 25.1068 11.663C24.1308 9.78393 22.5671 8.56019 20.7015 8.21702L20.7003 8.21821Z" fill="#292966" stroke="#292966" stroke-width="0.65"/>
</svg>
