<svg width="37" height="38" viewBox="0 0 37 38" fill="none" xmlns="http://www.w3.org/2000/svg">
<g clip-path="url(#clip0_2000_12499)">
<path d="M34.547 23.874C34.5166 23.8646 34.4882 23.8542 34.4588 23.8449C34.3807 23.8022 34.3036 23.7576 34.2286 23.7097C34.183 23.6806 34.1383 23.6484 34.0937 23.6172C33.8331 23.3761 33.5826 23.1256 33.3473 22.8574C33.2784 22.7794 33.2074 22.6994 33.1374 22.6183C33.0837 22.5424 33.0309 22.4666 32.9802 22.3896C32.7916 22.1038 32.6233 21.8065 32.4722 21.4999C32.4123 21.3221 32.3596 21.1423 32.317 20.9583C32.314 20.8762 32.314 20.7941 32.316 20.712C32.3302 20.6538 32.3464 20.5966 32.3627 20.5394C32.3941 20.4812 32.4255 20.424 32.46 20.3679C32.4651 20.3586 32.4722 20.3461 32.4793 20.3326C32.6202 20.1808 32.7612 20.0322 32.9133 19.8918C32.7936 19.9771 32.7227 20.0145 32.9579 19.844C33.0046 19.8097 33.0533 19.7775 33.1009 19.7442C33.107 19.739 33.1121 19.7349 33.1171 19.7297C33.1131 19.7338 33.109 19.737 33.105 19.7411C33.8098 19.2495 34.5744 18.8545 35.3421 18.4782C35.9688 18.1716 36.5884 17.2974 36.7405 16.6145C36.8957 15.917 36.8602 15.2465 36.5874 14.5844C36.341 13.9857 35.9191 13.4057 35.3431 13.0928C34.6352 12.7093 33.9801 12.6614 33.2175 12.7508C33.2246 12.7508 33.2317 12.7488 33.2388 12.7477C33.2267 12.7498 33.2135 12.7508 33.2013 12.7529C33.1587 12.7581 33.1161 12.7633 33.0725 12.7695C32.2511 12.8745 31.4297 12.9442 30.6042 12.8891C30.3791 12.8413 30.157 12.781 29.939 12.7072C29.8943 12.6833 29.8497 12.6583 29.8061 12.6323C29.7625 12.6064 29.7199 12.5793 29.6763 12.5513C29.6297 12.4993 29.5719 12.4359 29.5212 12.3798C29.4684 12.202 29.4238 12.0222 29.3883 11.8392C29.2514 10.3331 29.3325 8.78742 29.4857 7.29165C29.5536 6.63056 29.2078 5.89983 28.8326 5.40194C28.4442 4.88637 27.8895 4.43317 27.2526 4.28453C26.7182 4.1598 26.1696 4.1598 25.6351 4.28453C24.9141 4.45292 24.402 4.95082 23.968 5.51524C23.9142 5.5828 23.8605 5.64932 23.8047 5.71481C23.6678 5.87696 23.5258 6.03392 23.3788 6.18568C23.2317 6.33744 23.0806 6.48504 22.9245 6.62745C22.8575 6.68773 22.7409 6.77401 22.6507 6.83741C22.1385 7.17731 21.6376 7.50578 21.0889 7.78019C20.514 7.99744 19.9258 8.16375 19.3234 8.27705C18.8295 8.32175 18.3357 8.33006 17.8418 8.29368C17.7272 8.26873 17.6147 8.23963 17.5031 8.20637C17.4473 8.17103 17.3916 8.13569 17.3378 8.10762C17.3267 7.99744 17.3145 7.88726 17.3013 7.77604C17.3013 7.77084 17.3013 7.76564 17.3013 7.76148H17.2993C17.2668 7.48603 17.2303 7.20954 17.1928 6.932C17.0995 6.24493 16.3714 5.38011 15.7944 5.06827C15.1798 4.73565 14.546 4.6026 13.8544 4.69823C12.3028 4.91236 11.3171 6.19296 11.2167 7.76044C11.1822 8.28952 11.2248 8.8186 11.3333 9.33521C11.3354 9.60443 11.3273 9.8726 11.308 10.1418C11.2461 10.463 11.165 10.778 11.0626 11.0888C10.9906 11.2332 10.9125 11.3756 10.8273 11.5129C10.8172 11.5284 10.803 11.5513 10.7857 11.5752C10.7523 11.6147 10.7229 11.6501 10.7056 11.6698C10.6306 11.7509 10.5495 11.8257 10.4734 11.9047C10.376 11.9661 10.2787 12.0243 10.1793 12.0804C10.0667 12.1147 9.95316 12.1448 9.83654 12.1708C9.65806 12.2103 9.48668 12.2716 9.32544 12.3486C8.43101 11.675 7.51021 11.3653 6.38558 11.252C5.65441 11.1782 4.73463 11.6532 4.23468 12.1656C3.70735 12.7061 3.30982 13.5938 3.34329 14.3703C3.37878 15.1769 3.63738 16.0137 4.23468 16.575C4.69609 17.0095 5.1859 17.2527 5.74974 17.3847C5.75177 17.3889 5.75379 17.392 5.75684 17.3961C5.74669 17.3951 5.73655 17.393 5.72743 17.392C5.73757 17.3941 5.74771 17.3961 5.75886 17.3982C5.78929 17.4491 5.82174 17.498 5.85013 17.55C5.8907 17.6227 5.92822 17.6965 5.96473 17.7714C6.05904 18.0541 6.13408 18.3399 6.19188 18.632C6.21419 18.9896 6.21318 19.3451 6.18884 19.7016C6.10873 20.1112 5.9992 20.5103 5.86129 20.9032C5.63514 21.3845 5.37554 21.845 5.07536 22.2836C5.04291 22.3314 5.01959 22.3668 5.00133 22.3948C4.95874 22.4406 4.91818 22.4842 4.88877 22.5185C4.67175 22.7742 4.44257 23.0175 4.20628 23.2545C3.3301 24.1328 3.11005 25.5277 3.57754 26.6607C4.02273 27.7407 5.15649 28.6513 6.35819 28.5775C7.37939 28.5141 8.40363 28.4725 9.42279 28.565C9.77063 28.6315 10.1134 28.7178 10.4491 28.8332C10.6002 28.9143 10.7492 29.0005 10.8983 29.091C10.9723 29.1606 11.0453 29.2302 11.1153 29.304C11.1346 29.3238 11.1559 29.3456 11.1782 29.3675C11.2046 29.408 11.2319 29.4485 11.2573 29.4901C11.3435 29.6315 11.4206 29.777 11.4936 29.9246C11.6386 30.3497 11.7451 30.7842 11.8242 31.227C11.8941 31.9952 11.8972 32.7654 11.8576 33.5367C11.7948 34.7663 12.674 35.9305 13.7276 36.3868C14.8979 36.8931 16.0408 36.5771 16.995 35.7871C17.1451 35.6852 17.2922 35.5802 17.4473 35.4856C17.6481 35.362 17.853 35.2507 18.0629 35.1468C18.4787 34.9929 18.9026 34.8734 19.3356 34.7882C19.7382 34.757 20.1398 34.756 20.5424 34.7861C20.947 34.8672 21.3425 34.9784 21.7309 35.1198C22.1243 35.3183 22.4955 35.548 22.8636 35.7975C22.9498 35.8744 23.036 35.9513 23.1192 36.0314C23.3494 36.2538 23.5623 36.4918 23.7651 36.7392C24.5927 37.7475 26.3937 37.9263 27.4514 37.2267C28.5659 36.4908 29.2544 35.0626 28.8498 33.7051C28.646 33.0201 28.4503 32.3351 28.3195 31.6324C28.3032 31.3871 28.2982 31.1439 28.3083 30.8986C28.3367 30.7738 28.3702 30.6501 28.4087 30.5275C28.4756 30.3975 28.5476 30.2718 28.6267 30.1481C28.6429 30.1221 28.6612 30.0982 28.6784 30.0722C28.7413 30.014 28.8032 29.961 28.8336 29.9308C28.8894 29.8747 28.9462 29.8217 29.005 29.7697C29.1449 29.6751 29.2899 29.5909 29.437 29.5119C29.58 29.4641 29.725 29.4246 29.872 29.3893C30.01 29.3851 30.1469 29.3851 30.2848 29.3924C31.4368 29.6138 32.5513 29.9828 33.7449 29.9953C35.262 30.0109 36.5357 28.7968 36.7324 27.2917C36.9352 25.7471 36.0164 24.3241 34.5531 23.8698L34.547 23.874ZM21.308 26.6701C20.7289 26.7179 20.1509 26.7096 19.5719 26.6555C18.9239 26.5412 18.284 26.3759 17.6643 26.1483C17.4909 26.0558 17.3226 25.957 17.1482 25.8635C17.1461 25.8635 17.1451 25.8624 17.1441 25.8614C17.0762 25.799 17.0082 25.7367 16.9433 25.6701C16.5255 25.246 16.1645 24.7658 15.7974 24.296C15.7335 24.2139 15.6696 24.1318 15.6057 24.0496C15.4526 23.8366 15.3005 23.6224 15.1555 23.4031C14.8665 22.9655 14.6129 22.5092 14.3908 22.0341C14.2377 21.6069 14.112 21.1735 14.0075 20.7328C14.1069 20.3295 14.2276 19.9324 14.3696 19.5405C14.5764 19.0915 14.8087 18.657 15.0784 18.2433C15.121 18.1788 15.1646 18.1154 15.2082 18.052C15.3826 17.8524 15.55 17.6477 15.7345 17.4575C15.9171 17.2693 16.1067 17.0895 16.3044 16.918C16.3531 16.8816 16.4028 16.8442 16.4312 16.8244C16.7922 16.5718 17.1695 16.3515 17.5609 16.1571C17.9655 16.0074 18.3783 15.89 18.8011 15.8047C19.2392 15.7704 19.6773 15.7715 20.1154 15.8058C20.5626 15.8931 20.9997 16.0147 21.4287 16.1727C21.739 16.3265 22.0402 16.496 22.3292 16.6903C22.386 16.7288 22.4407 16.7683 22.4955 16.8078C22.6638 16.9648 22.8332 17.1196 22.9934 17.287C23.0198 17.314 23.1749 17.4762 23.3007 17.6165C23.3666 17.7142 23.4335 17.8109 23.4974 17.9107C23.6911 18.2152 23.8625 18.5322 24.0156 18.8586C24.1627 19.2765 24.2773 19.7016 24.3604 20.1372C24.4101 20.8076 24.3858 21.477 24.3168 22.1464C24.1718 23.0715 23.9751 23.9883 23.6607 24.8687C23.5542 25.0943 23.4396 25.3157 23.3098 25.5288C23.2256 25.6649 23.1293 25.7918 23.0451 25.9279C23.1283 25.7949 23.1881 25.7003 23.2307 25.6348C23.18 25.7065 23.1141 25.7949 23.0583 25.8541C23.0228 25.8915 22.9691 25.9581 22.9113 26.0236C22.8819 26.0443 22.8535 26.0662 22.8231 26.087C22.6496 26.2044 22.4681 26.3084 22.2836 26.404C21.9651 26.5162 21.6406 26.6025 21.31 26.669L21.308 26.6701ZM22.8798 26.0579C22.8078 26.1358 22.7318 26.2075 22.672 26.22L22.8798 26.0579ZM28.4868 30.3113C28.4918 30.2593 28.5618 30.1803 28.6389 30.1075L28.4868 30.3113Z" fill="#FF7534" stroke="#FF7534" stroke-width="0.5" paint-order="stroke fill"/>
<path d="M32.9446 19.8596C32.9334 19.87 32.9233 19.8804 32.9121 19.8908C32.975 19.8461 33.051 19.7879 33.1038 19.7401C33.1028 19.7401 33.1007 19.7422 33.0997 19.7432C33.047 19.7869 32.9801 19.8295 32.9456 19.8607L32.9446 19.8596Z" fill="#FF7534" stroke="#FF7534" stroke-width="0.5" paint-order="stroke fill"/>
<path d="M23.2285 25.6359C23.3563 25.4373 23.3157 25.5122 23.2285 25.6359Z" fill="#FF7534" stroke="#FF7534" stroke-width="0.5" paint-order="stroke fill"/>
<path d="M19.0322 26.5049C18.6844 26.5049 18.3254 26.4789 17.9542 26.4279C15.5417 26.0943 13.7275 25.2451 12.5613 23.9021C11.5512 22.7389 11.0381 21.2317 11.0381 19.4241C11.0381 16.1385 13.7183 12.4193 17.7088 12.122C19.521 11.9869 21.4285 12.7831 22.9446 14.308C24.4089 15.7798 25.2658 17.6966 25.1807 19.3108C25.1188 20.5031 24.7487 23.4666 22.6698 25.2305C21.6709 26.0777 20.4509 26.5049 19.0312 26.5049H19.0322ZM17.8386 13.9369C14.8775 14.1583 12.8128 17.0064 12.8128 19.4252C12.8128 22.425 14.5722 24.1266 18.1915 24.6255C19.5666 24.8158 20.6933 24.5476 21.539 23.8304C21.9386 23.4905 23.2559 22.1548 23.4101 19.2142C23.4668 18.1228 22.7965 16.707 21.7033 15.6073C20.5513 14.4493 19.1427 13.8402 17.8396 13.9379L17.8386 13.9369Z" fill="#292966" stroke="#292966" stroke-width="0.5" paint-order="stroke fill"/>
<path d="M21.9135 37.6498C21.7968 37.6498 21.6802 37.6259 21.5707 37.5792C21.3517 37.4856 21.1793 37.3058 21.09 37.0802L19.4614 32.9359L16.4739 32.8434L14.9162 37.0625C14.831 37.2923 14.6596 37.4773 14.4396 37.575C14.2195 37.6727 13.9701 37.6748 13.749 37.5823L8.02238 35.1687C7.80334 35.0762 7.62993 34.8984 7.53967 34.6749C7.44942 34.4515 7.45043 34.1999 7.5417 33.9764L9.29 29.6991L7.50418 27.7803L3.55124 29.4922C3.10808 29.6845 2.59596 29.4787 2.39719 29.0297L-0.0204104 23.5508C-0.118778 23.3283 -0.125876 23.0747 -0.0396782 22.8471C0.0465199 22.6194 0.217902 22.4365 0.436947 22.3398L4.50956 20.5426L4.64544 17.5978L0.713795 15.7954C0.274692 15.5948 0.0718723 15.072 0.256438 14.6167L2.44993 9.19494C2.54018 8.97146 2.71461 8.79371 2.93264 8.70224C3.15067 8.61077 3.39608 8.61181 3.61411 8.70536L7.59545 10.4236L9.65305 8.41223L7.92909 4.36462C7.83376 4.14114 7.82971 3.88752 7.91895 3.66092C8.00819 3.43432 8.18261 3.25449 8.40267 3.16094L13.9386 0.812827C14.1567 0.720316 14.401 0.720316 14.6191 0.812827C14.8371 0.905338 15.0095 1.08308 15.0987 1.30657L16.771 5.47683C17.2628 5.46956 18.0609 5.47163 19.3874 5.49346L21.3679 1.25875C21.5748 0.815945 22.0869 0.621569 22.525 0.819064L27.8064 3.1994C28.2394 3.39482 28.4463 3.90311 28.2779 4.35527L26.6929 8.61908L28.569 10.6793L32.6467 8.9621C33.1 8.77188 33.6182 8.99225 33.8048 9.45688L36.0317 15.0003C36.2173 15.4607 36.0053 15.9888 35.5581 16.1842L31.4439 17.9752L31.4003 20.6455L35.5916 22.6776C35.8056 22.7816 35.9699 22.9676 36.049 23.1963C36.1281 23.425 36.1149 23.6765 36.0114 23.8948L33.4661 29.3083C33.2602 29.7469 32.7531 29.9413 32.3171 29.749L28.4148 28.0349L26.4566 30.0421L28.0792 34.1136C28.2637 34.5762 28.0488 35.1053 27.5985 35.2976L22.2532 37.5802C22.1437 37.627 22.0281 37.6498 21.9114 37.6498H21.9135ZM15.8684 31.0046C15.8776 31.0046 15.8867 31.0046 15.8958 31.0046L20.0952 31.1346C20.4471 31.146 20.7594 31.3685 20.8913 31.7042L22.4013 35.546L26.1037 33.965L24.5917 30.171C24.4568 29.8321 24.5329 29.4434 24.7854 29.1835L27.5853 26.3136C27.8419 26.0506 28.2293 25.9748 28.5619 26.1203L32.236 27.7345L34.0248 23.9302L30.1246 22.0394C29.8092 21.8866 29.6105 21.5592 29.6165 21.2016L29.6804 17.3536C29.6865 16.9939 29.8985 16.6727 30.2209 16.5314L34.0583 14.861L32.5027 10.989L28.6775 12.6002C28.3357 12.7436 27.9433 12.6563 27.6918 12.3798L25.0196 9.44545C24.7884 9.19182 24.7185 8.8249 24.8391 8.50163L26.3207 4.51638L22.598 2.83871L20.7422 6.80629C20.5921 7.12748 20.2727 7.32809 19.9258 7.32289C18.4017 7.29483 16.6757 7.28235 16.3501 7.3073C15.9425 7.38526 15.5287 7.16178 15.3675 6.75847L13.7966 2.84079L9.91874 4.4852L11.5291 8.26567C11.6782 8.61597 11.5981 9.02343 11.3283 9.28745L8.40166 12.1501C8.1461 12.3996 7.77089 12.4713 7.44536 12.3299L3.75 10.7354L2.22885 14.4951L5.92523 16.1894C6.25887 16.3422 6.46676 16.6883 6.44952 17.0625L6.25887 21.1954C6.24265 21.5425 6.03476 21.8502 5.72343 21.9874L1.97229 23.6433L3.66076 27.4695L7.38148 25.8583C7.7212 25.7107 8.11467 25.7949 8.3692 26.0683L10.9775 28.8727C11.2208 29.1347 11.2898 29.5182 11.1539 29.8519L9.52629 33.834L13.5827 35.5429L15.0409 31.5919C15.1718 31.2375 15.5024 31.0046 15.8705 31.0046H15.8684ZM16.4647 7.27716H16.4637C16.4637 7.27716 16.4637 7.27716 16.4647 7.27716ZM16.4678 7.27612C16.4678 7.27612 16.4668 7.27612 16.4657 7.27612C16.4657 7.27612 16.4668 7.27612 16.4678 7.27612Z" fill="#292966" stroke="#292966" stroke-width="0.5" paint-order="stroke fill"/>
</g>
<defs>
<clipPath id="clip0_2000_12499">
<rect width="37" height="38" fill="white"/>
</clipPath>
</defs>
</svg>
