<svg width="40" height="40" viewBox="0 0 40 40" fill="none" xmlns="http://www.w3.org/2000/svg">
<path d="M35.4201 15.1955C35.1889 13.289 34.7802 11.5508 33.9527 9.80862C33.2012 8.22663 32.0482 6.9083 30.6599 5.85973C29.806 5.21476 28.7524 4.73611 27.6582 4.75031C25.918 4.7716 24.3573 5.84857 23.9202 7.57862C23.6616 8.60286 23.8158 9.7427 23.9334 10.7771C24.0419 11.7293 24.1768 12.6775 24.3614 13.6176C24.3735 13.7322 24.3897 13.8488 24.4131 13.9654C24.5895 14.875 24.7558 15.7857 24.8907 16.7024C25.0337 17.9427 25.0925 19.189 24.9749 20.4323C24.8704 21.0245 24.7203 21.6036 24.5155 22.1684C24.2772 22.6613 24.0054 23.1369 23.7793 23.6368C23.2022 24.9105 22.9365 26.1477 23.1992 27.5452C23.5856 29.6017 25.3521 31.3825 27.4209 31.7313C28.7108 31.9494 29.9734 31.8165 31.1375 31.1817C32.1131 30.6493 32.826 29.835 33.4568 28.9416C34.3532 27.6719 34.9333 26.1275 35.2243 24.6053C35.5276 23.0182 35.6351 21.4068 35.633 19.7944C35.631 18.2611 35.6046 16.7197 35.4201 15.1965V15.1955Z" fill="#FF7534" stroke="#FF7534" stroke-width="1.05"/>
<path d="M31.5397 26.1147C31.9545 25.2243 32.563 23.7894 33.068 22.0695C34.22 18.154 34.2768 14.7893 33.2383 12.0684C32.2455 9.4683 30.2741 7.55369 27.3728 6.36821C27.5442 5.85913 27.7105 5.14217 27.3353 4.45157C27.027 3.88368 26.4287 3.49224 25.5556 3.2884C24.6601 3.0795 23.936 3.17178 23.4036 3.56424C22.8114 4.0003 22.635 4.67061 22.569 5.19085C19.3199 4.87141 16.665 5.66747 14.6672 7.56282C10.8147 11.2186 10.6098 17.8833 10.694 20.5148C9.09475 20.456 7.04932 20.9722 6.52402 23.2225C6.43579 23.5997 6.46824 24.1778 7.12335 24.7913C8.50455 26.0863 12.5832 27.3641 15.8659 28.2291C15.6032 28.9775 15.369 30.0332 15.8537 30.9773C16.235 31.7196 16.9631 32.2216 18.0178 32.468C18.3494 32.5451 18.6516 32.5785 18.9284 32.5785C19.757 32.5785 20.3431 32.2814 20.7183 31.9893C21.5266 31.3606 21.8845 30.385 22.0427 29.6448C25.2402 30.2694 28.683 30.7805 30.9222 30.7805C31.6706 30.7805 32.2851 30.7238 32.71 30.595C33.4594 30.3678 33.7099 29.9257 33.787 29.594C33.9624 28.8426 33.8417 28.1246 33.4381 27.5172C32.9645 26.8043 32.1888 26.3713 31.5397 26.1177V26.1147ZM19.6251 30.5889C19.5186 30.671 19.1962 30.9195 18.4204 30.739C17.8961 30.6163 17.5635 30.4236 17.4316 30.166C17.2308 29.7756 17.4174 29.1367 17.5949 28.6672C18.4843 28.8842 19.2347 29.0535 19.7397 29.1651C19.9233 29.2057 20.1109 29.2462 20.2985 29.2858C20.195 29.7522 19.9932 30.3039 19.6251 30.5889ZM27.9924 28.8031C25.6945 28.5374 22.8165 28.0323 19.8908 27.3813C16.8911 26.714 14.0831 25.9453 11.9849 25.2172C9.26106 24.2711 8.49441 23.6646 8.29767 23.4598C8.43863 23.0126 8.7814 22.4863 9.83504 22.3341C10.6382 22.2175 11.416 22.3879 11.4414 22.393C11.7192 22.4568 12.0103 22.3838 12.2253 22.1962C12.4403 22.0086 12.5518 21.7277 12.5244 21.4438C12.5163 21.3576 11.7497 12.7732 15.8933 8.84768C17.6365 7.19571 20.0663 6.5903 23.1156 7.04766C23.3884 7.08822 23.6562 7.01723 23.8701 6.84585C24.2443 6.54669 24.2748 6.11266 24.3021 5.73034C24.3153 5.55085 24.3488 5.07422 24.4573 4.99411C24.4968 4.9647 24.6997 4.91197 25.153 5.01744C25.6864 5.14217 25.7756 5.29631 25.7766 5.29834C25.8365 5.40888 25.6843 5.83074 25.6184 6.01125C25.4815 6.39052 25.3254 6.81948 25.5343 7.26366C25.6509 7.5111 25.8598 7.69871 26.1214 7.79099C28.8696 8.76553 30.7061 10.4165 31.5783 12.6982C33.7403 18.3487 29.5379 26.1664 29.4953 26.2445C29.3584 26.495 29.3513 26.7972 29.475 27.0548C29.5988 27.3123 29.8401 27.4949 30.122 27.5446C30.477 27.6074 31.5762 27.9167 31.9606 28.4998C32.0468 28.6307 32.0894 28.7665 32.0904 28.9227C31.7213 29.0038 30.6707 29.1144 27.9914 28.8041L27.9924 28.8031Z" fill="#292966" stroke="#292966" stroke-width="1.05"/>
<path d="M29.6217 19.0952C30.2302 17.429 30.3549 15.6513 29.9706 14.0896C29.5426 12.3474 28.5103 11.0361 27.0632 10.3993C26.6149 10.2015 26.0907 10.4054 25.8939 10.8536C25.6962 11.3018 25.9 11.8261 26.3482 12.0229C28.488 12.965 28.846 16.0488 27.9546 18.4857C27.7862 18.9461 28.0235 19.4552 28.4829 19.6235C28.5833 19.66 28.6867 19.6773 28.7871 19.6773C29.1492 19.6773 29.4889 19.4542 29.6207 19.0942L29.6217 19.0952Z" fill="#292966" stroke="#292966" stroke-width="1.05"/>
<path d="M12.9429 30.4033C12.9328 29.9298 12.5403 29.5535 12.0657 29.5637L7.75784 29.657C7.28426 29.6671 6.90803 30.0596 6.91817 30.5342C6.92831 31.0078 7.32077 31.384 7.79536 31.3738L12.1032 31.2805C12.5768 31.2704 12.9531 30.8779 12.9429 30.4033Z" fill="#292966" stroke="#292966" stroke-width="1.05"/>
<path d="M13.9301 32.1376C13.5447 31.8618 13.0083 31.95 12.7324 32.3354L11.477 34.0867C11.2012 34.4721 11.2894 35.0085 11.6747 35.2844C11.8319 35.3969 12.0134 35.4487 12.1929 35.4446C12.4536 35.4385 12.7091 35.3148 12.8724 35.0866L14.1278 33.3353C14.4037 32.9499 14.3154 32.4135 13.9301 32.1376Z" fill="#292966" stroke="#292966" stroke-width="1.05"/>
<path d="M26.3791 35.2577L23.5538 32.8523C23.1806 32.5348 22.6208 32.5795 22.3034 32.9526C21.986 33.3258 22.0306 33.8856 22.4038 34.203L25.2291 36.6085C25.3964 36.7504 25.6003 36.8204 25.8041 36.8204C26.0556 36.8204 26.305 36.7149 26.4805 36.5081C26.7979 36.1349 26.7533 35.5751 26.3801 35.2577H26.3791Z" fill="#292966" stroke="#292966" stroke-width="1.05"/>
</svg>
