<svg width="47" height="48" viewBox="0 0 47 48" fill="none" xmlns="http://www.w3.org/2000/svg">
<path d="M42.9432 29.1207C42.9074 29.1097 42.8741 29.0975 42.8395 29.0866C42.7478 29.0367 42.6572 28.9844 42.569 28.9284C42.5154 28.8943 42.463 28.8566 42.4106 28.8201C42.1043 28.5377 41.81 28.2445 41.5336 27.9305C41.4525 27.8392 41.3691 27.7455 41.2869 27.6506C41.2238 27.5618 41.1618 27.4729 41.1022 27.3829C40.8806 27.0482 40.6828 26.7002 40.5052 26.3412C40.4349 26.1331 40.373 25.9226 40.3229 25.7072C40.3194 25.6111 40.3194 25.5149 40.3217 25.4188C40.3384 25.3506 40.3575 25.2837 40.3766 25.2168C40.4135 25.1486 40.4504 25.0817 40.4909 25.016C40.4969 25.005 40.5052 24.9904 40.5136 24.9746C40.6792 24.797 40.8448 24.6229 41.0236 24.4587C40.883 24.5584 40.7996 24.6022 41.076 24.4027C41.1308 24.3625 41.188 24.3248 41.244 24.2858C41.2512 24.2798 41.2571 24.2749 41.2631 24.2688C41.2583 24.2737 41.2535 24.2773 41.2488 24.2822C42.0769 23.7066 42.9754 23.2442 43.8774 22.8036C44.6138 22.4447 45.3418 21.4212 45.5205 20.6217C45.7028 19.8052 45.6611 19.0203 45.3406 18.2451C45.0511 17.5441 44.5554 16.8651 43.8786 16.4988C43.0468 16.0498 42.2771 15.9938 41.381 16.0984C41.3894 16.0984 41.3977 16.096 41.4061 16.0948C41.3918 16.0972 41.3763 16.0984 41.362 16.1009C41.3119 16.107 41.2619 16.113 41.2107 16.1203C40.2455 16.2433 39.2803 16.3248 38.3104 16.2603C38.0459 16.2043 37.7849 16.1337 37.5287 16.0473C37.4763 16.0193 37.4239 15.9901 37.3726 15.9597C37.3214 15.9293 37.2713 15.8977 37.2201 15.8648C37.1653 15.8039 37.0974 15.7297 37.0378 15.664C36.9758 15.4559 36.9234 15.2454 36.8817 15.0312C36.7208 13.2679 36.8162 11.4583 36.9961 9.70721C37.0759 8.93325 36.6696 8.07776 36.2287 7.49485C35.7724 6.89126 35.1206 6.36069 34.3723 6.18667C33.7443 6.04064 33.0997 6.04064 32.4717 6.18667C31.6245 6.38381 31.0228 6.96671 30.5128 7.6275C30.4496 7.7066 30.3865 7.78448 30.321 7.86115C30.1601 8.05098 29.9933 8.23474 29.8205 8.41241C29.6477 8.59008 29.4702 8.76288 29.2867 8.9296C29.208 9.00018 29.071 9.10118 28.965 9.17541C28.3632 9.57335 27.7746 9.95789 27.13 10.2792C26.4543 10.5335 25.7632 10.7282 25.0554 10.8608C24.4752 10.9132 23.8949 10.9229 23.3146 10.8803C23.1799 10.8511 23.0477 10.817 22.9166 10.7781C22.8511 10.7367 22.7855 10.6953 22.7224 10.6625C22.7093 10.5335 22.695 10.4045 22.6795 10.2743C22.6795 10.2682 22.6795 10.2621 22.6795 10.2573H22.6771C22.639 9.93477 22.5961 9.61107 22.552 9.28615C22.4423 8.48177 21.5868 7.4693 20.9088 7.10422C20.1867 6.71481 19.442 6.55905 18.6293 6.671C16.8063 6.92169 15.6481 8.42093 15.5301 10.256C15.4896 10.8754 15.5396 11.4949 15.6671 12.0997C15.6695 12.4148 15.66 12.7288 15.6373 13.044C15.5646 13.42 15.4693 13.7887 15.349 14.1526C15.2644 14.3217 15.1726 14.4885 15.0725 14.6491C15.0606 14.6674 15.0439 14.6941 15.0237 14.7221C14.9844 14.7684 14.9498 14.8097 14.9295 14.8329C14.8414 14.9278 14.746 15.0154 14.6567 15.1079C14.5423 15.1797 14.4279 15.2478 14.3111 15.3135C14.1789 15.3537 14.0454 15.389 13.9084 15.4194C13.6987 15.4656 13.4973 15.5374 13.3078 15.6275C12.2569 14.8389 11.1749 14.4763 9.85349 14.3437C8.99437 14.2573 7.91363 14.8134 7.32619 15.4133C6.70657 16.0461 6.23948 17.0854 6.2788 17.9944C6.32051 18.9387 6.62436 19.9183 7.32619 20.5755C7.86835 21.0841 8.44387 21.3689 9.10638 21.5234C9.10876 21.5283 9.11115 21.532 9.11472 21.5368C9.10281 21.5356 9.09089 21.5332 9.08017 21.532C9.09208 21.5344 9.104 21.5368 9.1171 21.5393C9.15285 21.5989 9.19098 21.6561 9.22435 21.7169C9.27201 21.8021 9.3161 21.8885 9.35899 21.9761C9.46981 22.3071 9.55798 22.6418 9.6259 22.9837C9.65212 23.4024 9.65092 23.8186 9.62233 24.236C9.52819 24.7154 9.3995 25.1827 9.23745 25.6427C8.97173 26.2061 8.66669 26.7452 8.31399 27.2588C8.27586 27.3147 8.24846 27.3561 8.22701 27.389C8.17696 27.4425 8.1293 27.4936 8.09474 27.5338C7.83975 27.8332 7.57046 28.1179 7.29282 28.3954C6.26331 29.4237 6.00474 31.0568 6.55405 32.3832C7.07715 33.6476 8.40932 34.7136 9.82132 34.6272C11.0212 34.553 12.2247 34.5043 13.4222 34.6126C13.8309 34.6905 14.2337 34.7915 14.6281 34.9266C14.8056 35.0215 14.9808 35.1225 15.1559 35.2283C15.2429 35.3099 15.3287 35.3914 15.4109 35.4778C15.4336 35.5009 15.4586 35.5265 15.4848 35.552C15.5158 35.5995 15.548 35.647 15.5778 35.6956C15.679 35.8611 15.7696 36.0315 15.8554 36.2043C16.0258 36.702 16.1509 37.2107 16.2438 37.7291C16.3261 38.6284 16.3296 39.5301 16.2832 40.4331C16.2093 41.8727 17.2424 43.2356 18.4804 43.7699C19.8555 44.3625 21.1984 43.9926 22.3196 43.0677C22.496 42.9485 22.6687 42.8255 22.8511 42.7148C23.087 42.57 23.3277 42.4398 23.5743 42.3181C24.0629 42.138 24.5609 41.998 25.0697 41.8983C25.5428 41.8617 26.0147 41.8605 26.4877 41.8958C26.9631 41.9907 27.4278 42.121 27.8842 42.2865C28.3465 42.5189 28.7827 42.7878 29.2152 43.0799C29.3165 43.1699 29.4178 43.26 29.5155 43.3537C29.7859 43.6141 30.0362 43.8928 30.2745 44.1824C31.2468 45.3628 33.363 45.5721 34.6058 44.7531C35.9153 43.8916 36.7244 42.2195 36.249 40.6302C36.0095 39.8283 35.7795 39.0263 35.6258 38.2037C35.6067 37.9165 35.6008 37.6318 35.6127 37.3446C35.6461 37.1985 35.6854 37.0537 35.7307 36.9101C35.8093 36.758 35.8939 36.6108 35.9868 36.466C36.0059 36.4355 36.0274 36.4075 36.0476 36.3771C36.1215 36.309 36.1942 36.2469 36.2299 36.2116C36.2955 36.1459 36.3622 36.0838 36.4313 36.023C36.5957 35.9123 36.7661 35.8137 36.9389 35.7212C37.1069 35.6652 37.2773 35.619 37.4501 35.5776C37.6121 35.5727 37.773 35.5727 37.935 35.5813C39.2887 35.8405 40.5982 36.2725 42.0007 36.2871C43.7832 36.3053 45.2798 34.884 45.511 33.1219C45.7493 31.3135 44.6698 29.6476 42.9503 29.1158L42.9432 29.1207ZM27.3873 32.3942C26.707 32.4501 26.0278 32.4404 25.3474 32.3771C24.586 32.2433 23.8341 32.0498 23.106 31.7833C22.9023 31.675 22.7045 31.5593 22.4995 31.4498C22.4972 31.4498 22.496 31.4486 22.4948 31.4474C22.4149 31.3744 22.3351 31.3014 22.2588 31.2235C21.7679 30.727 21.3437 30.1648 20.9124 29.6147C20.8373 29.5186 20.7622 29.4224 20.6872 29.3263C20.5073 29.0768 20.3285 28.8262 20.1581 28.5694C19.8185 28.0571 19.5206 27.5228 19.2597 26.9667C19.0798 26.4666 18.932 25.9591 18.8093 25.4431C18.926 24.971 19.0678 24.5061 19.2347 24.0473C19.4777 23.5216 19.7506 23.013 20.0676 22.5286C20.1176 22.4532 20.1688 22.3789 20.2201 22.3047C20.425 22.0711 20.6216 21.8313 20.8385 21.6086C21.053 21.3884 21.2758 21.1778 21.5082 20.9771C21.5654 20.9345 21.6237 20.8907 21.6571 20.8675C22.0813 20.5718 22.5246 20.3138 22.9845 20.0863C23.4599 19.911 23.9449 19.7735 24.4418 19.6737C24.9565 19.6336 25.4713 19.6348 25.9861 19.675C26.5115 19.7772 27.0251 19.9196 27.5291 20.1045C27.8937 20.2846 28.2476 20.483 28.5872 20.7106C28.654 20.7556 28.7183 20.8018 28.7827 20.8481C28.9805 21.0318 29.1794 21.2131 29.3677 21.4091C29.3987 21.4407 29.581 21.6305 29.7288 21.7948C29.8062 21.9092 29.8848 22.0224 29.9599 22.1392C30.1875 22.4958 30.3889 22.8669 30.5688 23.249C30.7416 23.7382 30.8762 24.236 30.9739 24.7458C31.0323 25.5308 31.0037 26.3144 30.9227 27.0981C30.7523 28.1812 30.5211 29.2545 30.1518 30.2852C30.0266 30.5493 29.892 30.8085 29.7395 31.058C29.6406 31.2174 29.5274 31.3659 29.4285 31.5253C29.5262 31.3695 29.5965 31.2588 29.6465 31.1821C29.587 31.2661 29.5095 31.3695 29.444 31.4389C29.4023 31.4827 29.3391 31.5606 29.2712 31.6372C29.2366 31.6616 29.2033 31.6871 29.1675 31.7115C28.9638 31.849 28.7505 31.9707 28.5336 32.0826C28.1595 32.2141 27.7782 32.3151 27.3897 32.3929L27.3873 32.3942ZM29.2343 31.6774C29.1497 31.7687 29.0603 31.8526 28.99 31.8672L29.2343 31.6774ZM35.8224 36.657C35.8284 36.5962 35.9106 36.5037 36.0011 36.4185L35.8224 36.657Z" fill="#FF7534"/>
<path d="M41.0606 24.4212C41.0475 24.4334 41.0356 24.4455 41.0225 24.4577C41.0963 24.4054 41.1857 24.3372 41.2477 24.2812C41.2465 24.2812 41.2441 24.2837 41.2429 24.2849C41.1809 24.336 41.1023 24.3859 41.0618 24.4224L41.0606 24.4212Z" fill="#FF7534"/>
<path d="M29.6445 31.1834C29.7947 30.9509 29.747 31.0386 29.6445 31.1834Z" fill="#FF7534"/>
<path d="M24.7124 32.2005C24.3037 32.2005 23.8819 32.1701 23.4458 32.1104C20.6111 31.7198 18.4794 30.7256 17.1091 29.1533C15.9223 27.7916 15.3193 26.0271 15.3193 23.9109C15.3193 20.0642 18.4686 15.7101 23.1574 15.362C25.2868 15.2038 27.5281 16.136 29.3095 17.9212C31.0301 19.6444 32.037 21.8883 31.9369 23.7782C31.8642 25.174 31.4293 28.6434 28.9866 30.7086C27.8129 31.7003 26.3794 32.2005 24.7112 32.2005H24.7124ZM23.31 17.4868C19.8306 17.746 17.4046 21.0803 17.4046 23.9121C17.4046 27.4241 19.4719 29.4162 23.7246 30.0003C25.3404 30.223 26.6642 29.909 27.658 29.0694C28.1274 28.6714 29.6753 27.1077 29.8564 23.665C29.9231 22.3873 29.1355 20.7298 27.851 19.4424C26.4974 18.0867 24.8423 17.3736 23.3111 17.488L23.31 17.4868Z" fill="#292966" stroke="#292966" stroke-width="0.8"/>
<path d="M28.0978 45.2483C27.9608 45.2483 27.8237 45.2203 27.695 45.1656C27.4377 45.056 27.2351 44.8455 27.1302 44.5814L25.2166 39.7296L21.7062 39.6213L19.876 44.5607C19.7759 44.8297 19.5745 45.0463 19.316 45.1607C19.0574 45.2751 18.7643 45.2775 18.5045 45.1692L11.7758 42.3435C11.5184 42.2352 11.3146 42.0271 11.2086 41.7655C11.1025 41.5039 11.1037 41.2094 11.211 40.9477L13.2652 35.9401L11.1669 33.6937L6.52217 35.698C6.00145 35.9231 5.39971 35.6821 5.16617 35.1564L2.32548 28.7421C2.2099 28.4816 2.20156 28.1847 2.30284 27.9182C2.40412 27.6517 2.6055 27.4375 2.86288 27.3244L7.64819 25.2203L7.80786 21.7728L3.18817 19.6627C2.67223 19.4278 2.43391 18.8157 2.65078 18.2827L5.22813 11.9353C5.33418 11.6736 5.53913 11.4655 5.79531 11.3584C6.0515 11.2513 6.33986 11.2526 6.59604 11.3621L11.2741 13.3736L13.6918 11.0189L11.6661 6.28025C11.5541 6.01861 11.5494 5.72168 11.6542 5.4564C11.7591 5.19111 11.964 4.98058 12.2226 4.87106L18.7273 2.12205C18.9835 2.01374 19.2707 2.01374 19.5269 2.12205C19.7831 2.23035 19.9856 2.43845 20.0905 2.70008L22.0554 7.58235C22.6333 7.57383 23.571 7.57626 25.1296 7.60182L27.4567 2.64411C27.6998 2.1257 28.3015 1.89814 28.8163 2.12935L35.022 4.91609C35.5308 5.14487 35.7738 5.73994 35.576 6.2693L33.7136 11.2611L35.918 13.673L40.7093 11.6627C41.2419 11.44 41.8508 11.698 42.0701 12.2419L44.6867 18.7317C44.9048 19.2708 44.6557 19.889 44.1303 20.1178L39.2961 22.2145L39.2449 25.3408L44.1696 27.7199C44.421 27.8416 44.614 28.0594 44.707 28.3271C44.7999 28.5948 44.7844 28.8893 44.6629 29.1449L41.6721 35.4826C41.4302 35.9961 40.8344 36.2237 40.322 35.9985L35.7369 33.9918L33.436 36.3417L35.3425 41.1084C35.5594 41.6499 35.3067 42.2693 34.7777 42.4944L28.497 45.1668C28.3683 45.2215 28.2324 45.2483 28.0954 45.2483H28.0978ZM20.9949 37.4686C21.0056 37.4686 21.0163 37.4686 21.0271 37.4686L25.9613 37.6207C26.3748 37.6341 26.7418 37.8945 26.8967 38.2876L28.6709 42.7853L33.0213 40.9343L31.2447 36.4926C31.0862 36.0959 31.1756 35.6408 31.4723 35.3365L34.7622 31.9766C35.0637 31.6687 35.5188 31.5799 35.9097 31.7503L40.2267 33.6402L42.3286 29.1862L37.7459 26.9727C37.3753 26.7938 37.1418 26.4105 37.1489 25.9918L37.224 21.4868C37.2311 21.0658 37.4802 20.6897 37.8591 20.5242L42.3679 18.5687L40.5401 14.0356L36.0455 15.9219C35.644 16.0898 35.1828 15.9876 34.8873 15.6639L31.7475 12.2285C31.4759 11.9316 31.3937 11.502 31.5355 11.1236L33.2763 6.45792L28.9021 4.49382L26.7215 9.13878C26.5452 9.51481 26.1698 9.74967 25.7623 9.74359C23.9714 9.71073 21.9434 9.69613 21.5609 9.72533C21.0819 9.8166 20.5957 9.55497 20.4063 9.0828L18.5605 4.49625L14.004 6.42141L15.8962 10.8473C16.0713 11.2574 15.9772 11.7345 15.6603 12.0436L12.2214 15.3949C11.9211 15.687 11.4803 15.771 11.0978 15.6055L6.75571 13.7387L4.96837 18.1403L9.31161 20.1239C9.70364 20.3028 9.94791 20.708 9.92765 21.1461L9.70364 25.9845C9.68457 26.391 9.4403 26.7512 9.07449 26.9118L4.6669 28.8504L6.65085 33.3298L11.0227 31.4436C11.4219 31.2708 11.8842 31.3694 12.1833 31.6894L15.248 34.9727C15.534 35.2793 15.615 35.7284 15.4553 36.119L13.5429 40.781L18.3091 42.7816L20.0226 38.1561C20.1763 37.7412 20.5647 37.4686 20.9973 37.4686H20.9949ZM21.6955 9.69004H21.6943C21.6943 9.69004 21.6943 9.69004 21.6955 9.69004ZM21.6991 9.68883C21.6991 9.68883 21.6979 9.68883 21.6967 9.68883C21.6967 9.68883 21.6979 9.68883 21.6991 9.68883Z" fill="#292966" stroke="#292966" stroke-width="0.8"/>
</svg>
