<svg width="47" height="48" viewBox="0 0 47 48" fill="none" xmlns="http://www.w3.org/2000/svg">
<path d="M35.4636 10.5031C35.0227 9.44321 34.3602 8.47941 33.5154 7.71519C33.0745 7.31604 32.5848 6.96557 32.207 6.50436C31.8079 6.01638 31.5457 5.41644 31.1013 4.97226C29.6416 3.51562 26.7282 4.06201 24.8849 4.05836C24.0091 4.05593 23.169 4.05958 22.3016 4.24211C21.2625 4.45873 20.3975 5.01851 19.6003 5.70241C17.2517 7.71762 16.7465 11.0313 16.4236 13.9507C16.2735 15.3051 16.2604 16.7532 16.6655 18.0675C17.2196 19.8649 18.3277 21.2363 19.8529 22.2695C20.967 23.024 22.3206 23.5132 23.5992 23.8892C25.0076 24.3042 26.4911 24.5305 27.952 24.6206C29.8275 24.7362 31.7054 24.4137 33.1257 23.0544C35.1359 21.1305 35.833 16.8883 36.0582 14.2099C36.1642 12.9491 35.9485 11.6677 35.4648 10.5031H35.4636Z" fill="#FF7534"/>
<path d="M41.5917 38.9768C40.7052 37.2184 39.2432 35.5695 38.0039 34.4097C34.602 31.2226 29.9049 29.4265 25.2792 29.8268C20.4522 30.2442 15.9779 32.8363 12.5307 36.3118C11.7181 37.1308 10.9376 38.0276 10.5289 39.1168C9.21934 42.613 12.7809 44.5041 15.5072 45.2038C16.9264 45.5676 18.3968 45.749 19.8505 45.8865C22.4457 46.1311 25.0612 46.2114 27.6647 46.3148C30.3124 46.4195 32.9755 46.5862 35.6256 46.5631C37.3486 46.5473 39.2134 46.4901 40.6242 45.3754C42.9108 43.5707 42.7046 41.188 41.5905 38.978L41.5917 38.9768Z" fill="#FF7534"/>
<path d="M8.00941 43.798C7.78898 43.798 7.57092 43.7262 7.3898 43.5899C7.12408 43.3891 6.9668 43.0715 6.9668 42.7332C6.9668 42.3949 7.02518 34.7466 12.0989 29.7646C15.0432 26.8744 19.0373 25.509 23.9752 25.7074C29.1215 25.9142 33.0644 27.6143 35.6966 30.76C39.8885 35.7712 39.1581 42.5714 39.1259 42.8586C39.0866 43.2029 38.8852 43.506 38.5861 43.6702C38.287 43.8345 37.9296 43.8406 37.6257 43.6873C36.645 43.1883 31.7894 42.7235 23.1566 42.8074C16.3086 42.8744 9.78961 43.2893 8.31684 43.7518C8.21675 43.7834 8.11308 43.7992 8.01061 43.7992L8.00941 43.798ZM23.0529 27.8175C19.1005 27.8175 15.9095 28.9833 13.5549 31.2881C10.2817 34.4935 9.38686 39.1664 9.14259 41.4214C12.1608 40.9772 18.1222 40.7265 23.1339 40.6778C27.215 40.6377 33.8401 40.6876 37.1002 41.3398C37.0895 39.3076 36.7058 35.237 34.0975 32.129C31.8585 29.4615 28.4245 28.0171 23.8918 27.8345C23.6082 27.8236 23.3281 27.8175 23.0517 27.8175H23.0529Z" fill="#292966" stroke="#292966"/>
<path d="M23.0783 23.7903C17.0442 23.7903 12.1338 18.7766 12.1338 12.6129C12.1338 6.44924 17.0442 1.43555 23.0783 1.43555C29.1124 1.43555 34.0228 6.44924 34.0228 12.6129C34.0228 18.7766 29.1136 23.7903 23.0783 23.7903ZM23.0783 3.56515C18.1929 3.56515 14.219 7.62356 14.219 12.6129C14.219 17.6023 18.1929 21.6607 23.0783 21.6607C27.9637 21.6607 31.9376 17.6023 31.9376 12.6129C31.9376 7.62356 27.9637 3.56515 23.0783 3.56515Z" fill="#292966" stroke="#292966"/>
</svg>
