<svg width="36" height="38" viewBox="0 0 36 38" fill="none" xmlns="http://www.w3.org/2000/svg">
<g clip-path="url(#clip0_2000_12480)">
<path d="M35.751 15.2487C35.4822 13.2815 35.0042 11.488 34.0398 9.6903C33.1633 8.05793 31.8172 6.69762 30.198 5.61565C29.2023 4.95015 27.9722 4.45625 26.6962 4.4709C24.6659 4.49287 22.8449 5.60414 22.3355 7.38928C22.0333 8.44614 22.2132 9.62228 22.3512 10.6896C22.4778 11.6722 22.6357 12.6505 22.8502 13.6205C22.8638 13.7388 22.8836 13.8591 22.9098 13.9795C23.1158 14.9181 23.3104 15.8577 23.4673 16.8037C23.6346 18.0834 23.7026 19.3694 23.5656 20.6523C23.4432 21.2634 23.2685 21.8609 23.0301 22.4437C22.7518 22.9523 22.4349 23.443 22.1703 23.9589C21.4967 25.2731 21.1871 26.5497 21.4935 27.9917C21.9444 30.1138 24.0049 31.9512 26.42 32.3112C27.9241 32.5361 29.3979 32.3991 30.7555 31.744C31.8946 31.1947 32.7251 30.3544 33.4614 29.4326C34.5074 28.1225 35.1841 26.5288 35.523 24.9582C35.8766 23.3206 36.0021 21.6579 36 19.9941C35.9979 18.412 35.9676 16.8214 35.7521 15.2498L35.751 15.2487Z" fill="#FF7534" stroke="#FF7534" stroke-width="0.5" paint-order="stroke fill"/>
<path d="M5.5047 20.0687C5.51964 18.5337 5.58292 16.5481 5.85186 15.0271C6.2878 12.5639 7.14034 10.1138 8.66964 8.05316C10.5092 5.57425 13.2716 3.91961 16.4708 3.41841C18.9898 3.02374 21.5729 3.47691 21.5729 3.47691C21.5729 3.47604 20.6992 0.102144 24.6315 1.28091C28.3853 2.40642 25.5745 4.58758 25.5745 4.58758C25.5745 4.58758 31.5651 6.44479 32.749 12.1299C33.9329 17.8151 28.467 26.6952 28.467 26.6952C28.467 26.6952 32.328 28.2913 31.4896 30.5606C30.7293 32.6187 26.8015 31.5482 25.3917 31.3159C20.2686 30.4707 15.3757 29.1487 10.5725 27.2889C8.58087 26.5179 6.60069 25.6971 4.71016 24.7244C3.56934 24.1368 2.24044 23.5736 1.36856 22.6358C1.04073 22.2831 0.806942 21.8308 0.834189 21.368C0.883407 20.5411 1.69727 19.6924 2.51905 19.4601C3.58604 19.1589 4.88683 19.5946 5.50382 20.0687H5.5047Z" stroke="#292966" stroke-width="2.5" stroke-linecap="round" stroke-linejoin="round"/>
<path d="M25.4219 9.64227C25.4219 9.64227 29.4833 12.0496 27.0232 17.6509" stroke="#292966" stroke-width="2.5" stroke-linecap="round" stroke-linejoin="round"/>
<path d="M17.692 29.6587L17.2762 30.8488C16.8482 32.0738 15.8111 33.2631 13.743 32.5497L13.6965 32.534C12.248 32.0345 11.4816 30.4628 11.9843 29.0239L12.3579 27.9534" stroke="#292966" stroke-width="2.5" stroke-linecap="round" stroke-linejoin="round"/>
<path d="M10.1255 35.2059L8.41602 36.8893" stroke="#292966" stroke-width="2.5" stroke-linecap="round" stroke-linejoin="round"/>
<path d="M2.86719 31.7682L7.86377 31.1291" stroke="#292966" stroke-width="2.5" stroke-linecap="round" stroke-linejoin="round"/>
<path d="M19.6523 34.264L22.0219 36.914" stroke="#292966" stroke-width="2.5" stroke-linecap="round" stroke-linejoin="round"/>
</g>
<defs>
<clipPath id="clip0_2000_12480">
<rect width="36" height="38" fill="white"/>
</clipPath>
</defs>
</svg>
