<svg width="374" height="96" viewBox="0 0 374 96" fill="none" xmlns="http://www.w3.org/2000/svg">
<path d="M235.535 66.3216C236.287 64.2513 237.064 62.0897 237.453 59.9067C237.81 57.9275 237.853 55.8464 237.858 53.8512C237.858 52.875 237.778 51.8934 237.613 50.9333C236.58 44.8188 234.315 38.9456 230.293 34.1666C228.226 31.7154 226.127 29.3608 223.671 27.3065C221.108 25.1718 218.322 23.1068 215.328 21.6479C209.094 18.6067 201.566 18.2903 195.109 20.8594C192.435 21.9268 189.707 23.2999 187.485 25.1772C185.898 26.5181 184.379 27.8697 183 29.3715C182.025 30.0259 181.076 30.7178 180.176 31.4741C177.784 33.4693 175.338 35.5665 173.49 38.1089C171.774 40.4635 170.053 43.0166 169.041 45.7843C168.359 47.6508 167.683 49.5763 167.267 51.5287C166.851 53.4918 166.825 55.5514 166.761 57.5413C166.665 60.4592 167.272 63.5272 168.285 66.2412C169.339 69.0678 170.842 71.8515 172.701 74.233C174.672 76.7539 176.835 79.1943 179.196 81.3613C181.726 83.6837 184.576 85.5824 187.464 87.4222C189.382 88.6397 191.385 89.7124 193.474 90.5974C197.299 92.2119 201.316 93.4241 205.519 92.9306C208.636 92.5659 211.726 91.6487 214.566 90.2971C216.382 89.4282 218.268 88.5432 219.979 87.449C221.753 86.3119 223.324 84.8422 224.859 83.4102C227.23 81.195 228.945 78.3147 230.661 75.5953C231.907 73.6162 233.101 71.5833 234.15 69.4915C234.667 68.4671 235.141 67.4158 235.53 66.3323L235.535 66.3216Z" fill="#FF7534"/>
<path d="M194.752 12.4229C173.319 12.4229 155.876 29.978 155.876 51.5613C155.876 73.1446 173.313 90.6998 194.752 90.6998C216.19 90.6998 233.627 73.1446 233.627 51.5613C233.627 29.978 216.19 12.4229 194.752 12.4229ZM183.111 49.0028C186.441 49.5714 189.749 49.8932 193.031 49.8932C194.635 49.8932 196.233 49.8235 197.826 49.684C197.986 53.6424 197.996 57.3808 197.852 60.9316C192.887 61.1515 188.007 60.7063 183.201 59.6067C182.781 56.2759 182.754 52.7467 183.116 48.9975L183.111 49.0028ZM178.492 58.3248C172.392 56.3671 166.403 53.3206 160.5 49.1959C160.676 46.5839 161.14 44.0468 161.864 41.6225C167.512 44.551 173.111 46.6965 178.652 48.0642C178.273 51.6471 178.22 55.0638 178.497 58.3195L178.492 58.3248ZM202.333 49.1208C205.977 48.5094 209.584 47.5278 213.159 46.1923C213.995 50.2204 214.219 54.168 213.825 58.0513C209.962 59.2528 206.153 60.0895 202.397 60.5508C202.53 56.9357 202.509 53.1328 202.333 49.1208ZM217.463 44.3955C220.612 42.9473 223.734 41.2256 226.819 39.2088C228.279 43.0385 229.088 47.1899 229.094 51.5291C225.529 53.4439 222.013 55.0745 218.54 56.41C218.747 52.4624 218.39 48.4665 217.463 44.3955ZM194.752 16.9873C207.73 16.9873 219.046 24.2765 224.885 34.9984C222.008 36.9186 219.115 38.5706 216.206 39.9598C214.714 35.3846 212.551 30.7289 209.653 25.9553C209.003 24.8772 207.607 24.5393 206.536 25.199C205.471 25.8534 205.13 27.2587 205.785 28.3368C208.572 32.9334 210.639 37.4013 212.008 41.778C208.721 43.0492 205.412 43.9878 202.077 44.5886C201.699 39.0801 201.06 33.1855 200.149 26.8242C199.967 25.5798 198.827 24.7163 197.581 24.8933C196.345 25.0757 195.482 26.2288 195.663 27.4786C196.574 33.8452 197.208 39.7237 197.575 45.1947C193.004 45.6023 188.385 45.3985 183.697 44.5671C184.576 39.4234 186.126 33.8988 188.364 27.9667C188.806 26.7867 188.22 25.4726 187.048 25.022C185.876 24.5768 184.571 25.1668 184.123 26.3468C181.811 32.4775 180.191 38.2219 179.254 43.607C174.075 42.2661 168.817 40.1689 163.457 37.3423C168.859 25.3599 180.847 17.0034 194.741 17.0034L194.752 16.9873ZM194.752 86.1353C176.872 86.1353 162.147 72.3078 160.559 54.7151C166.622 58.6091 172.834 61.4411 179.184 63.2165C179.989 67.2714 181.337 71.0742 183.271 74.6196C183.681 75.3759 184.459 75.8049 185.258 75.8049C185.625 75.8049 185.998 75.7138 186.345 75.5207C187.442 74.9146 187.842 73.5254 187.24 72.4205C185.865 69.8996 184.826 67.2124 184.096 64.3697C187.82 65.083 191.582 65.4531 195.391 65.4531C196.116 65.4531 196.845 65.3995 197.575 65.3727C197.314 68.5694 196.925 71.6213 196.393 74.5338C196.164 75.7728 196.979 76.9635 198.209 77.1888C198.348 77.2156 198.486 77.2263 198.625 77.2263C199.696 77.2263 200.649 76.4593 200.852 75.3598C201.454 72.0772 201.885 68.6498 202.157 65.0401C205.732 64.6539 209.333 63.9781 212.978 62.9805C212.296 65.8071 211.305 68.6016 209.957 71.3692C209.408 72.5009 209.872 73.8687 210.996 74.4211C211.315 74.5767 211.656 74.6518 211.992 74.6518C212.828 74.6518 213.633 74.1798 214.027 73.3752C215.945 69.4329 217.245 65.4585 217.959 61.4357C221.507 60.1968 225.087 58.6574 228.699 56.8498C226.163 73.4128 211.912 86.1299 194.762 86.1299L194.752 86.1353Z" fill="#292966"/>
<path d="M227.906 19.2452C227.4 19.2935 226.872 19.1755 226.414 18.8697C225.354 18.1617 225.066 16.7243 225.769 15.6623L232.248 5.83609C232.951 4.76873 234.379 4.4791 235.434 5.1871C236.494 5.8951 236.782 7.33256 236.078 8.39456L229.6 18.2207C229.2 18.8268 228.572 19.1808 227.906 19.2452Z" fill="#292966"/>
<path d="M232.909 25.2687C231.817 25.376 230.772 24.6787 230.474 23.5792C230.138 22.3455 230.858 21.0744 232.083 20.7365L241.939 18.0117C243.17 17.6738 244.427 18.3979 244.768 19.6315C245.104 20.8652 244.385 22.1364 243.159 22.4743L233.303 25.199C233.175 25.2365 233.042 25.258 232.914 25.2741L232.909 25.2687Z" fill="#292966"/>
<path d="M154.715 79.5754L143.313 81.3883C142.062 81.5867 140.884 80.7286 140.682 79.4627C140.485 78.2023 141.337 77.0169 142.594 76.8131L153.995 75.0002C155.247 74.8017 156.425 75.6599 156.627 76.9257C156.83 78.1916 155.972 79.3716 154.715 79.5754Z" fill="#292966"/>
<path d="M156.457 90.6674C155.983 90.7425 155.482 90.6674 155.024 90.4261C153.9 89.8307 153.474 88.4254 154.065 87.2991L156.766 82.1661C157.363 81.0343 158.753 80.6052 159.872 81.2006C160.991 81.796 161.422 83.2012 160.831 84.3276L158.13 89.4606C157.778 90.1311 157.144 90.5548 156.457 90.6674Z" fill="#292966"/>
<path d="M5.3543 68.4295C3.62814 67.979 2.39746 67.4211 2.39746 66.6327C2.39746 66.3538 2.56262 65.8442 3.01014 65.1738C5.07193 62.1433 6.13213 54.7844 6.13213 47.6561C6.13213 40.5279 5.07193 33.6195 3.01014 30.4764C2.56262 29.8006 2.39746 29.2428 2.39746 28.9585C2.39746 26.7701 11.2094 26.1533 20.245 26.1533C32.6797 26.1533 43.1645 32.6111 43.1645 47.0393C43.1645 57.4823 35.8603 69.3842 17.4534 69.3842C13.2712 69.3842 8.64145 69.2716 5.34897 68.4295H5.3543ZM33.6867 47.034C33.6867 39.8467 31.79 33.893 27.2722 31.1469C24.9866 29.8006 22.1417 29.3501 19.2967 29.3501C17.5652 29.3501 15.8924 29.5163 14.3314 29.7416C13.772 37.0951 13.7187 45.0119 13.7187 47.4255C13.7187 54.0496 14.1076 59.1021 15.2797 62.138C16.3932 65.0021 18.9611 65.678 21.5237 65.678C30.277 65.678 33.6813 56.7529 33.6813 47.0393L33.6867 47.034Z" fill="#292966"/>
<path d="M45.061 67.024C45.061 66.7451 45.2261 66.4072 45.6737 65.7314C47.5117 62.9799 48.46 58.6031 48.46 54.6126C48.46 48.8306 45.2794 45.1243 45.2794 44.0033C45.2794 42.8823 47.0109 41.8686 50.5218 41.8686C53.7024 41.8686 55.4286 42.9896 55.4286 45.6875C55.4286 48.3854 54.704 51.3032 54.704 54.6126C54.704 58.5978 55.6523 62.9799 57.4904 65.7314C57.9379 66.4072 58.103 66.7398 58.103 67.024C58.103 68.204 55.5351 69.1588 51.6353 69.1588C47.7355 69.1588 45.0557 68.204 45.0557 67.024H45.061ZM45.8974 32.9435C45.8974 30.1919 47.9592 28.1162 50.7509 28.1162C53.5426 28.1162 55.5458 30.1919 55.5458 32.9435C55.5458 35.5288 53.484 37.7171 50.7509 37.7171C48.0178 37.7171 45.8974 35.5288 45.8974 32.9435Z" fill="#292966"/>
<path d="M60.3407 64.2726C60.3407 60.5127 61.2358 58.7159 62.4025 58.7159C63.4041 58.7159 64.0754 60.2874 64.6348 61.9179C65.5831 64.5569 67.3679 66.3537 69.8772 66.3537C71.9976 66.3537 73.3348 65.12 73.3348 63.0979C73.3348 61.639 72.7222 60.5717 70.2661 59.1128L68.7584 58.2117C64.0168 55.4065 62.1202 52.9339 62.1202 49.6781C62.1202 44.9045 66.0786 41.874 71.1558 41.874C72.9939 41.874 73.777 42.2656 74.8372 42.2656C75.8974 42.2656 76.8457 41.874 77.6236 41.874C80.0796 41.874 80.3567 45.6339 80.3567 47.2645C80.3567 49.6781 79.744 50.8581 78.9608 50.8581C78.1244 50.8581 77.3465 49.7371 76.5048 48.3855C74.8852 45.6929 73.5479 44.7918 71.8751 44.7918C69.8133 44.7918 68.5826 46.1971 68.5826 47.7687C68.5826 49.5655 70.0903 50.6865 72.264 52.0381L75.1089 53.7759C78.3428 55.739 80.2981 57.6485 80.2981 60.9632C80.2981 65.5116 76.1691 69.3841 70.8735 69.3841C68.4174 69.3841 66.9683 68.8799 65.7962 68.8799C64.6241 68.8799 63.6758 69.3841 62.9513 69.3841C61.614 69.3841 60.3301 67.8662 60.3301 64.2726H60.3407Z" fill="#292966"/>
<path d="M83.4845 62.4757C83.4845 58.9947 85.3225 55.1221 85.3225 50.5738C85.3225 44.8454 82.4775 45.1833 82.4775 43.1076C82.4775 40.8602 87.2724 37.6045 88.892 37.6045C90.0641 37.6045 90.8419 38.7255 91.2895 39.7392C92.1845 41.4824 92.9623 42.4318 94.9122 42.4318H96.9208C98.2047 42.4318 98.8707 43.1612 98.8707 44.0033C98.8707 44.958 98.1994 45.6339 97.0326 45.6339H91.2895V56.4684C91.2895 62.701 92.4615 64.664 94.8057 64.664C96.7556 64.664 98.599 63.3714 99.3768 63.3714C99.8776 63.3714 100.272 63.763 100.272 64.2135C100.272 66.4609 95.754 69.3787 91.0124 69.3787C87.054 69.3787 83.4845 67.4692 83.4845 62.4703V62.4757Z" fill="#292966"/>
<path d="M101.273 67.0241C101.273 66.7452 101.438 66.4073 101.886 65.7315C103.724 62.9799 104.73 58.5442 104.73 54.6716C104.73 52.4833 104.342 50.3486 103.617 48.6054C102.557 46.0255 100.719 44.6202 100.719 43.6065C100.719 42.4855 102.892 41.8633 104.954 41.8633C108.47 41.8633 109.696 44.1643 111.758 44.1643C113.819 44.1643 115.162 41.8633 118.225 41.8633C120.9 41.8633 122.296 43.6601 122.296 45.6822C122.296 47.5916 121.07 49.5011 118.614 49.5011C115.828 49.5011 115.657 46.9748 113.372 46.9748C112.812 46.9748 112.2 47.1411 111.587 47.479C111.422 48.4874 111.086 50.6221 111.086 54.6073C111.086 58.5925 112.2 62.9746 114.043 65.7261C114.491 66.4019 114.656 66.7345 114.656 67.0187C114.656 68.1987 112.088 69.1535 107.964 69.1535C103.841 69.1535 101.273 68.1987 101.273 67.0187V67.0241Z" fill="#292966"/>
<path d="M121.795 55.6264C121.795 46.5886 128.875 41.8687 135.348 41.8687C141.821 41.8687 148.902 46.5833 148.902 55.6264C148.902 64.6695 141.821 69.3841 135.348 69.3841C128.875 69.3841 121.795 64.6695 121.795 55.6264ZM140.756 58.2653C140.756 51.8665 139.03 44.9581 134.4 44.9581C131.219 44.9581 129.941 48.1012 129.941 52.9875C129.941 59.3863 131.667 66.2946 136.297 66.2946C139.477 66.2946 140.756 63.1515 140.756 58.2653Z" fill="#292966"/>
<path d="M241.203 71.637C239.477 71.1865 238.246 70.6287 238.246 69.8402C238.246 69.5613 238.411 69.0517 238.859 68.3813C240.921 65.3508 241.981 57.9919 241.981 50.8637C241.981 43.7354 240.921 36.827 238.859 33.6839C238.411 33.0081 238.246 32.4503 238.246 32.166C238.246 29.9777 247.058 29.3608 256.094 29.3608C268.528 29.3608 279.013 35.8187 279.013 50.2468C279.013 60.6898 271.709 72.5918 253.302 72.5918C249.12 72.5918 244.49 72.4791 241.198 71.637H241.203ZM269.535 50.2468C269.535 43.0596 267.639 37.1059 263.121 34.3598C260.835 33.0135 257.99 32.5629 255.145 32.5629C253.414 32.5629 251.741 32.7292 250.18 32.9545C249.621 40.308 249.567 48.2248 249.567 50.6384C249.567 57.2625 249.956 62.315 251.128 65.3508C252.242 68.215 254.81 68.8908 257.372 68.8908C266.126 68.8908 269.53 59.9658 269.53 50.2522L269.535 50.2468Z" fill="#292966"/>
<path d="M282.023 70.2316C282.023 69.9526 282.188 69.6147 282.636 68.9389C284.474 66.1874 285.422 61.8106 285.422 57.8201C285.422 52.0381 282.241 48.3318 282.241 47.2108C282.241 46.0898 283.973 45.0761 287.484 45.0761C290.664 45.0761 292.391 46.1971 292.391 48.895C292.391 51.5929 291.666 54.5107 291.666 57.8201C291.666 61.8053 292.614 66.1874 294.452 68.9389C294.9 69.6147 295.065 69.9473 295.065 70.2316C295.065 71.4116 292.497 72.3663 288.597 72.3663C284.697 72.3663 282.018 71.4116 282.018 70.2316H282.023ZM282.859 36.151C282.859 33.3995 284.921 31.3237 287.713 31.3237C290.505 31.3237 292.508 33.3995 292.508 36.151C292.508 38.7363 290.446 40.9246 287.713 40.9246C284.98 40.9246 282.859 38.7363 282.859 36.151Z" fill="#292966"/>
<path d="M297.303 67.4801C297.303 63.7202 298.198 61.9234 299.364 61.9234C300.366 61.9234 301.037 63.4949 301.597 65.1255C302.545 67.7644 304.33 69.5612 306.839 69.5612C308.96 69.5612 310.297 68.3275 310.297 66.3055C310.297 64.8465 309.684 63.7792 307.228 62.3203L305.72 61.4192C300.979 58.614 299.082 56.1414 299.082 52.8856C299.082 48.112 303.041 45.0815 308.118 45.0815C309.956 45.0815 310.739 45.4731 311.799 45.4731C312.859 45.4731 313.808 45.0815 314.585 45.0815C317.042 45.0815 317.319 48.8414 317.319 50.472C317.319 52.8856 316.706 54.0656 315.923 54.0656C315.086 54.0656 314.308 52.9446 313.467 51.593C311.847 48.9005 310.51 47.9994 308.837 47.9994C306.775 47.9994 305.544 49.4046 305.544 50.9762C305.544 52.773 307.052 53.894 309.226 55.2456L312.071 56.9835C315.305 58.9465 317.26 60.856 317.26 64.1707C317.26 68.7191 313.131 72.5916 307.835 72.5916C305.379 72.5916 303.93 72.0875 302.758 72.0875C301.586 72.0875 300.638 72.5916 299.913 72.5916C298.576 72.5916 297.292 71.0737 297.292 67.4801H297.303Z" fill="#292966"/>
<path d="M318.661 59.7886C318.661 51.3677 324.687 45.0762 332.433 45.0762C337.398 45.0762 341.522 47.5488 341.522 50.9708C341.522 53.1055 339.849 54.5644 337.894 54.5644C336.056 54.5644 334.271 53.2718 334.271 50.9708C334.271 49.233 333.046 48.1656 331.037 48.1656C327.58 48.1656 325.406 51.1961 325.406 56.2486C325.406 62.2559 328.251 66.1284 333.381 66.1284C335.726 66.1284 337.452 65.1737 338.901 63.9937C339.625 63.3769 340.185 63.0926 340.686 63.0926C341.357 63.0926 341.746 63.5432 341.746 64.16C341.746 64.5515 341.634 65.0021 341.357 65.6189C339.796 69.1535 336.114 72.5809 330.707 72.5809C323.845 72.5809 318.661 67.5284 318.661 59.7779V59.7886Z" fill="#292966"/>
<path d="M343.365 58.8339C343.365 49.7962 350.446 45.0762 356.919 45.0762C363.392 45.0762 370.472 49.7908 370.472 58.8339C370.472 67.877 363.392 72.5916 356.919 72.5916C350.446 72.5916 343.365 67.877 343.365 58.8339ZM362.326 61.4728C362.326 55.074 360.6 48.1656 355.97 48.1656C352.79 48.1656 351.511 51.3087 351.511 56.195C351.511 62.5938 353.237 69.5022 357.867 69.5022C361.048 69.5022 362.326 66.3591 362.326 61.4728Z" fill="#292966"/>
</svg>
