<?xml version="1.0" encoding="UTF-8"?>
<svg id="Layer_1" data-name="Layer 1" xmlns="http://www.w3.org/2000/svg" viewBox="0 0 400.45 372.37">
  <defs>
    <style>
      .cls-1 {
        fill: #292966;
      }

      .cls-2 {
        fill: #ff7534;
      }

      .cls-3 {
        fill: #313ee2;
      }
    </style>
  </defs>
  <path class="cls-3" d="M176.84,228.03c-4.55-.78-9.6.49-12.16,4.57-.87,1.38-1.43,3.17-1.55,4.88-.3-.02-.59-.03-.86-.05-1.04-4.83-2.96-9.41-5.44-13.71-2.04-3.54-3.85-7.06-6.24-10.41-4.38-6.16-7.56-12.31-13.29-17.42-9.31-8.31-22.38-9.51-34.24-11.68-3.39-.62-6.87-1.21-10.29-.74-5.32.75-9.99,4.06-13.41,8.14-7.79,9.31-10.55,20.43-14.84,31.52-4.51,11.68-9.07,23.44-15.76,34.12-1.57,2.52-3.62,4.84-5.08,7.41-2.53,4.45-1.28,9.3,2.54,12.52,5.68,4.79,12.09,8.34,18.99,11.12,13.7,5.52,28.82,6.86,43.5,6.57,7.48-.14,15.27-.22,22.65-1.54,7.48-1.34,12.92-6.17,16.06-12.85,1.67-3.54,3.12-7.21,4.5-10.88.36-.94.74-1.88,1.04-2.83.98-.2,2.07-.77,2.96-1.06,7.18-2.32,14.68-4.24,21.56-7.32,6.14-2.75,11.43-7.81,11.89-14.76.49-7.35-5.18-14.35-12.54-15.62h0Z"/>
  <path class="cls-3" d="M314.75,80c-12.94-.77-25.89-1.07-38.85-.88-6.02.09-6.04,9.46,0,9.38,12.96-.19,25.91.1,38.85.88,6.02.36,6.01-9.01,0-9.38Z"/>
  <path class="cls-3" d="M304.62,58.25c-6.03,0-6.04,9.37,0,9.37s6.04-9.37,0-9.37Z"/>
  <path class="cls-2" d="M321.27,128c-1.81-2.33-5.28-4.01-8.21-2.88-10.06,3.89-21.36,7.27-31.81,3.34-5.16-1.94-8.81-7.36-14.82-6.05-3.12.68-5.96,2.73-8.73,4.31-2.74,1.56-5.49,3.12-8.24,4.68-9.07,5.16.44,12.54,2.14,18.44.62,2.12.64,4.38.64,6.6,0,9.8-.31,19.6-1.11,29.36-.52,6.34-2.95,14.94,3.62,18.94,2.58,1.57,5.58,1.66,8.49,1.87,3.28.23,6.57.39,9.86.49,5.96.17,11.92.11,17.88-.17,2.88-.14,5.75-.33,8.62-.58,3.34-.29,7.44-.12,10.41-1.9,5.34-3.21,5.66-12.2,6.31-17.81.62-5.29.81-10.62.93-15.95.26-11.24-.08-23.34,4.63-33.78,1.34-2.98,1.49-6.21-.61-8.92h-.01Z"/>
  <path class="cls-3" d="M375.63,255.44c-.94-4.16-5.67-6.49-9.61-5.46-17.86,4.67-36.91,1.83-52.75-7.79-3.22-1.96-6.99-1.31-9.46,1.5-1.41,1.61-4.38,7.31-2.84,9.27.41.52,1.04.83,1.65,1.11,4.71,2.2,11.48,3.57,11.48,9.74.09,5.18-1.79,9.93-5.11,13.89-3.59,4.28-8.38,7.38-13.17,10.24-.64.38-1.31.79-1.69,1.44-.3.51-.38,1.11-.46,1.7-.69,5.29-1.52,10.58-1.79,15.91-.94,4.24-1.34,8.62-.74,12.88.16.27.42.78.46.84.62.81-.29-.07.61.73.62,1.67,1.81,3.16,3.37,4.25,4.46,3.11,10.73,4.04,15.93,5.25,3.87.9,7.78,1.62,11.72,2.11.02.17.03.34.03.5,0,.27-.02.53-.06.79.09.09.19.19.28.29,7.86,9.27,21.52,10.13,32.8,9.98,1.4-.02,2.83-.07,4.16-.5,3.69-1.19,6.46-6.07,7.76-9.44,2.77-7.2,3.63-15.54,4.81-23.12,1.47-9.41,2.58-18.87,3.26-28.36.66-9.22,1.41-18.67-.65-27.77h0Z"/>
  <path class="cls-2" d="M352.1,96.65c-1.11-1.72-3.7-2.77-5.56-1.46-.36.25-.72.45-1.09.67-.02.02-.04.02-.07.04-.04,0-.09.02-.15.04-.04.01-.42.14-.68.2-.04,0-.08,0-.12.01-.21.01-.43.02-.64.01-2.12,0-4.16,1.86-4.06,4.06.1,2.19,1.79,4.07,4.06,4.06,2.41,0,4.88-.69,6.86-2.08,1.73-1.22,2.72-3.61,1.46-5.56h0Z"/>
  <path class="cls-2" d="M394.24,139.98c-2.31-5.12-4.74-10.77-9.39-14.15-.21-.15-.42-.28-.62-.38.34-1.57.84-3.15,1.04-4.56.26-1.86.44-4.02.37-6.19.96-4.39.49-8.81-2.87-12.86-6.41-7.71-16.68-7.46-25.74-6.35-2.19.27-4.04,1.68-4.06,4.06-.01,1.22.69,2.56,1.74,3.36.08.1.16.2.26.3.24.25.46.46.69.66,4.19,3.81,9.4,4.58,14.76,5.51.91.39,1.78.84,2.56,1.39,4.26,3.03,1.71,9.18-.18,12.77-1.54,2.93.61,5.6,3.07,6.02.63,5.48,5.36,8.69,7.39,13.82,2.19,5.56,3.09,11.26,7.28,15.81,2.21,2.41,5.81.93,6.79-1.79,2.05-5.71-.71-12.2-3.06-17.41h-.01Z"/>
  <path class="cls-2" d="M267.45,226.21c-3.29-3.13-8.69-2.57-11.92.34-.13.14-.25.29-.38.43-.42-.19-.82-.36-1.02-.45-2.41-1.12-5.01-1.6-7.71-1.66-.87-.02-1.62.21-2.24.61-.04-.04-.09-.07-.13-.1-.79-.58-1.54-1.19-2.34-1.76-1.46-1.04-2.93-1.98-4.64-2.64-3.45-1.32-7.24-1.33-10.49.45-.96.53-1.54,1.27-1.79,2.11-.37-.27-.73-.54-1.09-.8-3.98-2.84-9.47-3.18-14.11-1.34-2.36.94-2.96,2.36-3.82,4.26-4.77-.14-9.81,2.77-7.39,7.43-.06.7.1,1.41.56,2.03,5.34,7.18,15.11,8.14,23.94,8.72,9.78.66,19.86.39,29.32-2.06,4.59-1.19,9.49-2.88,13.42-5.39,3.79-2.42,5.31-6.89,1.84-10.2h0Z"/>
  <path class="cls-3" d="M251.08,195.73c-.03-.33-.09-.66-.19-.99-.5-1.59-1.71-2.93-3.12-3.78-2.78-1.69-6.36-1.51-9.19-.07-6.41,3.24-6.88,11.69-4.93,17.71.02.06.04.11.06.16.96,5.82,5.66,11.44,12.14,8.48,8.01-3.66,4.99-12.33,5.73-19.12.11-.99-.1-1.78-.51-2.39Z"/>
  <path class="cls-2" d="M198.49,149.87c-.81-2.17-3.39-3.7-5.61-2.46-2.14-1.56-5.99-1.16-6.54,1.92-.34-.36-.62-.64-.72-.75-2.68-3.15-7.38.06-6.87,3.54-.24-.18-.46-.36-.69-.52-1.76-1.34-4.52-.26-5.56,1.46-1.18,1.96-.38,3.99,1.18,5.32-2.08-1.8-4.65,2.34-4.71,3.89-.12,3.36,3.39,4.96,6.32,4.21,1.42-.36,2.74-1.04,4.17-1.34,1.57-.34,3.35-.26,4.56-1.32,2.3-2.02,3.18-3.76,6.38-4.73,3.31-1.01,5.91-2.39,7.95-5.23,1.06-1.46.91-2.9.15-3.99h0Z"/>
  <path class="cls-2" d="M183.07,336.36c-1.67-3.14-5.46-4.61-8.69-5.45-3.65-.94-7.44-1.11-11.16-.57-4.3.62-8.06,2.11-12.47,1.86-1.16-.06-2.05.31-2.69.93-1.99.51-3.71,2.34-3.12,4.92.78,3.44,1.89,6.99,4.63,9.39,2.76,2.41,6.45,3.02,10.01,2.94,6.88-.14,15.5-.65,21.15-5.01,2.8-2.16,4.12-5.71,2.36-9.01Z"/>
  <path class="cls-2" d="M142.82,332.93c-2.47-4.09-7.91-2.71-11.69-2.05-3.37.59-8.31-2.37-10.34,1.29-2.58,4.65-2.43,9.85,2.91,12.26,4.54,2.04,17.51,3.84,19.09-2.91.58-2.47,1.41-6.31.03-8.58h0Z"/>
  <path class="cls-2" d="M208.34,78.94c-4.19-21.39-33.12-28.78-51.42-27.37-11.18.86-19.59,4.96-24.3,15.54-2.69,6.06-4.68,12.57-4.62,19.28.05,5.54,1.57,10.87,4.23,15.58.06-.57.3-1.11.76-1.56.73-.69,1.52-1.09,2.46-1.42,1.34-.46,2.71.41,3.28,1.59.52.26.99.65,1.27,1.1.38.59.46,1.48.28,2.14-.21.76-.68,1.21-1.28,1.66-1.22.92-2.81.99-4.15.44,2.38,3.1,5.29,5.82,8.62,7.98,10.25,6.62,25.16,6.4,36.67,3.76,10.81-2.48,20.81-10.14,25.51-20.26,2.7-5.8,3.91-12.13,2.67-18.47h0ZM191.64,81.42c-.69,2.11-2.36,3.14-4.28,3.96-.73.31-1.36.46-2.14.28-.71-.16-1.28-.69-1.66-1.28s-.46-1.48-.28-2.14c.16-.59.68-1.41,1.28-1.66.55-.23,1.1-.46,1.62-.76.05-.02.14-.11.22-.16.57-1.29,1.88-1.98,3.3-1.66,1.42.32,2.4,2.04,1.94,3.42Z"/>
  <path class="cls-1" d="M273.11,315.8c-1.02.54-2.12,1.17-3.21,1.88.06-1.23.11-2.49.17-3.77,1.13-.66,2.22-1.23,3.21-1.71.97-.48,1.84-.87,2.56-1.18,1.19-.51,1.95-.78,2.04-.81.81-.29,1.71.14,1.99.95.29.81-.14,1.71-.95,1.99-.03,0-.35.12-.89.34-1.02.41-2.83,1.19-4.91,2.3Z"/>
  <path class="cls-1" d="M289.75,320.25c0,.61-.18,1.32-.49,2.11-.44,1.11-1.16,2.37-2.11,3.69-3.36,4.73-9.48,10.29-15.31,12.93-1.08.49-2.15.88-3.19,1.14.08-.94.16-2.05.25-3.32,1.04-.35,2.12-.84,3.2-1.43,7.09-3.89,14.47-12.27,14.53-15.12v-.04s0-.09.01-.14v-.04c.02-.13.06-.26.11-.38,0,0,0-.01,0-.02.02-.06.06-.12.09-.17.04-.08.09-.15.15-.22.05-.06.1-.11.16-.16.05-.04.11-.09.16-.13,0,0,.01,0,.01,0,.05-.03.11-.06.16-.09.02-.01.06-.02.09-.04.05-.02.11-.04.16-.06.08-.02.15-.04.23-.05.07-.01.15-.02.23-.02h.04s.09,0,.14.01c.14.01.29.05.43.11,0,0,0,0,.01,0,.23.09.43.24.58.43.24.27.38.64.37,1.02h0Z"/>
  <path class="cls-1" d="M288.19,319.79c-.14,0-.29-.02-.43-.06-5.06-1.45-9.62-5.19-13.95-11.44-.22-.32-.31-.71-.26-1.09l3.31-25.08c.11-.86.89-1.46,1.76-1.34.86.11,1.46.9,1.34,1.76l-3.23,24.47c3.79,5.34,7.69,8.52,11.9,9.72.83.24,1.31,1.1,1.07,1.93-.19.69-.82,1.13-1.5,1.13h0Z"/>
  <path class="cls-1" d="M383.62,241.73c-1.86,0-3.85-.38-5.97-1.13-3.04-1.08-4.17-8.23-6.23-30.61-.84-9.15-1.64-17.79-2.7-21.23-.26-.82.21-1.7,1.03-1.95.83-.26,1.7.21,1.95,1.03,1.16,3.75,1.97,12.55,2.83,21.87.9,9.77,2.4,26.08,4.27,27.99,4.24,1.48,7.61,1.16,10.32-.97,7.69-6.06,10.08-26.84,6.75-58.54-2.56-24.31-9.48-39.67-21.13-46.92-9.89,4.58-19.55,7.81-28.84-.19-.66-.56-.73-1.55-.17-2.21.56-.66,1.55-.73,2.21-.17,7.39,6.36,14.93,4.69,26.24-.62.46-.22,1.01-.19,1.45.07,13,7.61,20.64,23.87,23.36,49.71,2.44,23.2,3.05,52.67-7.92,61.32-2.16,1.7-4.64,2.55-7.44,2.55Z"/>
  <path class="cls-1" d="M337.43,113.19c-.12,0-.24,0-.36-.02-1.5-.14-2.92-1.12-4.21-2.93-.5-.7-.34-1.68.37-2.18.7-.5,1.68-.34,2.18.37.72,1.01,1.41,1.59,1.94,1.63.38.04.83-.21,1.35-.71.62-.6,1.61-.59,2.21.02.6.62.59,1.61-.03,2.21-1.09,1.07-2.25,1.61-3.45,1.61h0Z"/>
  <path class="cls-1" d="M350.93,115.33c-2.83,0-4.21-1.73-4.84-3.01-.38-.77-.06-1.71.71-2.09.77-.38,1.71-.06,2.09.71.31.62,1.03,2.1,4.7.64.8-.32,1.71.07,2.03.88.32.8-.07,1.71-.88,2.03-1.5.59-2.76.84-3.82.84h0Z"/>
  <path class="cls-1" d="M339.35,125.49c-1.64,0-3.42-.09-5.36-.28-.86-.08-1.49-.84-1.41-1.71.08-.86.83-1.49,1.71-1.41,7.07.68,11.91.06,14.37-1.83.68-.52,1.67-.39,2.19.29.52.68.39,1.67-.29,2.19-2.39,1.83-6.09,2.74-11.21,2.74h0Z"/>
  <path class="cls-1" d="M360.94,125.68c-.21-.83-1.06-1.34-1.9-1.12-8.36,2.14-14.95,2.44-19.35.93h-.02c-1.36-.46-2.5-1.09-3.42-1.89,0,0,0,0-.02-.01-.08-.07-.16-.14-.24-.22-.39-.36-.74-.76-1.04-1.19-.27-.39-.51-.8-.71-1.24-1.21-2.64-.96-5.88.2-8.93.39-1.02.87-2.01,1.44-2.96,1.17-1.96,2.68-3.71,4.35-4.97,5.09.37,8.54-2.69,10.85-5.62.38-.47.72-.94,1.03-1.39.32-.46.37-1.05.13-1.56-.24-.51-.73-.85-1.28-.89-.24-.02-.48-.04-.72-.06h0c-5.14-.34-8.56.47-10.46,2.46-1.15,1.21-1.69,2.79-1.62,4.71-2.64,2.08-4.94,5.13-6.34,8.49-.41.98-.75,1.99-.99,3.01-.76,3.09-.69,6.26.58,9.02.29.62.66,1.28,1.17,1.95.08.1.15.2.24.3,0,0,0,.01.01.02.07.09.15.18.23.27,0,.01.01.02.03.03.49.57,1.09,1.14,1.81,1.66,2.21,1.61,5.52,2.89,10.5,3.04.33.01.66.02,1,.02.77,0,1.59-.02,2.44-.08,3.1-.2,6.73-.78,10.98-1.86.84-.22,1.34-1.07,1.12-1.91ZM342.04,99.17c.69-.74,2.24-1.52,5.65-1.57-2.04,2.22-4.1,3.3-6.39,3.37.06-.75.31-1.34.74-1.8Z"/>
  <path class="cls-1" d="M393.78,159.41c-.12,0-.24-.01-.36-.04-.84-.2-1.36-1.04-1.16-1.88,2.22-9.44,2.48-20.57-12.44-31.58-.59-.44-.8-1.22-.5-1.89,3.74-8.41,4.02-19.9-6.41-26.94-6.58-4.44-14.72-4.74-19.71-.94,5.8,4.87,12.61,8.81,20.26,11.74.81.31,1.21,1.21.9,2.02-.31.81-1.21,1.21-2.02.9-8.61-3.29-16.19-7.82-22.56-13.47-.32-.28-.51-.68-.52-1.11-.02-.42.14-.84.44-1.14,5.91-6.11,16.4-6.35,24.94-.59,7.68,5.19,13.69,15.65,8.01,29.66,15.47,11.94,14.9,24.44,12.64,34.06-.17.72-.81,1.21-1.52,1.21h0Z"/>
  <path class="cls-1" d="M374.83,131.07c-.76,0-1.42-.56-1.54-1.33-.51-3.36-1.6-5.71-3.26-6.99-.44-.34-.67-.89-.6-1.44.07-.55.43-1.03.94-1.24,4.33-1.82,5.68-4.58,5.48-6.54-.11-1.08-.66-1.9-1.39-2.05-.84-.18-2.24.53-3.66,3.06-.43.75-1.38,1.02-2.12.6-.76-.43-1.02-1.38-.6-2.12,2.75-4.9,5.83-4.84,7.03-4.59,2.07.44,3.62,2.37,3.86,4.81.26,2.69-1.08,6.22-5.37,8.72,1.13,1.46,1.96,3.37,2.47,5.69,2.33-.71,2.91-2.18,3.13-3.29.17-.84.99-1.39,1.84-1.23.84.17,1.39.99,1.22,1.84-.48,2.4-2.12,5.4-7.23,6.09-.07.01-.14.01-.21.01h.01Z"/>
  <path class="cls-1" d="M301.75,229.23c.86.61,1.71,1.21,2.55,1.8-1.88-.7-4.17-1.49-6.81-2.38.17-.49.57-.88,1.08-1.01.38-.09.93-.42,1.59-1.35,1.4-1.96,3.27-6.64,4.86-17.68,1.52-10.61,2.24-23.16,2.76-32.31.15-2.62.28-4.94.41-6.82l.07-1.04c.84-12.32,1.86-27.19,16.42-38.97.82-.66,1.67-1.31,2.58-1.96,1.62-1.14,3.39-2.26,5.31-3.33.03-.01.06-.03.09-.04.55-.31,1.12-.61,1.69-.91.54-.28,1.17-.21,1.64.13.09.06.18.14.24.22.01,0,.02,0,.02.01.08.09.16.19.21.31.25.49.23,1.06-.03,1.51-.15.25-.36.46-.64.6-.3.16-.6.31-.89.47-2.54,1.37-4.79,2.79-6.78,4.28-.01.01-.02.02-.04.02-14.88,11.07-15.84,25.21-16.7,37.88l-.07,1.04c-.13,1.87-.26,4.17-.41,6.78-.52,9.22-1.25,21.84-2.79,32.58-1.29,8.96-2.87,14.92-4.93,18.3-.46.75-.93,1.38-1.44,1.88Z"/>
  <path class="cls-1" d="M380.73,240.49c-.21.28-.42.56-.64.83-.74.94-1.51,1.83-2.3,2.67-1.09,1.17-2.23,2.25-3.41,3.23-.39.33-.78.64-1.18.95-1.14.88-2.31,1.66-3.52,2.36-5,2.91-10.61,4.37-16.79,4.37-2.76,0-5.62-.29-8.59-.87-9.99-1.95-21.52-7.17-35.01-15.88-.91-.59-1.83-1.19-2.75-1.81,1.1-.84,1.92-1.54,2.49-2.1.89.59,1.77,1.17,2.64,1.72,12.84,8.22,23.79,13.16,33.22,14.99,10.18,1.99,18.7.42,25.81-4.79.07-.05.14-.1.21-.16,1.43-1.06,2.8-2.27,4.12-3.64.06-.07.12-.14.19-.21.58-.61,1.16-1.26,1.72-1.94.44-.52.87-1.06,1.29-1.62.41-.54,1.12-.74,1.74-.54.16.05.31.13.45.24.69.52.82,1.5.3,2.19Z"/>
  <path class="cls-1" d="M390.68,267.47c-.42,0-.86-.05-1.3-.15-.84-.19-1.37-1.03-1.18-1.87.19-.84,1.02-1.37,1.87-1.18.84.19,1.43.02,1.95-.56,3.19-3.52,1.93-17.91-1.23-27.49-.27-.82.17-1.7.99-1.98.82-.27,1.7.18,1.98.99,3.17,9.59,5.13,25.54.58,30.57-.99,1.1-2.24,1.66-3.65,1.66h0Z"/>
  <path class="cls-1" d="M386.93,269.68c-1.21,0-2.73-.84-4.03-4.16-.31-.81.09-1.71.89-2.03.81-.31,1.71.09,2.02.89.49,1.26.9,1.81,1.11,2.04.62-.77,1.65-3.8,1.24-8.59-.08-.86.56-1.62,1.42-1.69.86-.07,1.62.56,1.69,1.42.47,5.44-.66,11.33-3.73,12.04-.19.04-.41.07-.62.07Z"/>
  <path class="cls-1" d="M382.23,270.78c-.26,0-.51-.04-.76-.14-1.34-.51-2.7-2.25-3.54-11.44-.08-.86.56-1.62,1.41-1.7.86-.08,1.62.56,1.7,1.41.38,4.11.84,6.36,1.21,7.57.5-1.79.85-4.89.21-6.97-.26-.83.21-1.7,1.04-1.95.82-.26,1.7.21,1.95,1.04,1.09,3.55.21,9.8-1.63,11.52-.46.43-1.02.66-1.58.66Z"/>
  <path class="cls-1" d="M381.03,258.82c-.01-.06-.03-.13-.04-.19,0-.02-.01-.04-.02-.06-.01-.04-.02-.07-.04-.1-.01-.04-.03-.07-.05-.11-.04-.08-.07-.14-.12-.21-.02-.04-.05-.07-.07-.1-.02-.03-.05-.06-.08-.09-.05-.05-.11-.1-.17-.15,0,0-.01,0-.01,0-.07-.05-.14-.09-.21-.13,0,0-.01,0-.02-.01-.07-.03-.14-.06-.22-.09-.04-.01-.08-.02-.12-.04-.04-.01-.08-.02-.12-.02-.08-.01-.16-.02-.23-.02h-.05c-.07,0-.12,0-.19.02-.04,0-.07.01-.1.02-.04,0-.08.02-.11.02,0,0-.01,0-.02,0-.06.02-.12.04-.19.07,0,0,0,0-.01,0-.01.01-.03.02-.05.02-.06.03-.11.06-.16.09-.04.02-.08.06-.12.09-.04.03-.07.06-.11.1-.06.06-.1.11-.15.17,0,0,0,.01-.01.02-.04.05-.07.1-.1.16-.02.02-.04.06-.05.09,0,.01-.01.02-.01.03-.02.05-.05.11-.06.16,0,0,0,0,0,.01,0,0,0,.03-.01.04-.19.59-.47,1.23-.74,1.73-.31-2.95-.02-10.08.54-16.36.01-.18.02-.36.04-.53.08-.86-.56-1.62-1.41-1.69-.44-.04-.87.12-1.19.4-.07.06-.13.13-.19.21-.17.23-.29.5-.32.81-.13,1.45-.24,2.79-.34,4.04-1.09,14.65.34,15.97.83,16.44.49.46,1.09.71,1.7.71.19,0,.39-.02.59-.07.35-.09.68-.26.98-.49,1.27-.98,2.09-2.98,2.49-4.24.07-.24.09-.49.06-.73Z"/>
  <path class="cls-1" d="M298.73,254.23c-1.01-.31-2.02-.59-3.01-.85.25-1.02.51-2.03.77-3.02.39-1.49.79-2.95,1.2-4.36.45-1.58.92-3.09,1.39-4.54,1.62-1.04,3.06-1.98,4.29-2.83-.57,1.52-1.12,3.16-1.67,4.88-.76,2.41-1.5,5-2.21,7.71-.26.99-.52,2.01-.77,3.03Z"/>
  <path class="cls-1" d="M322,337.73c-.14.74-.8,1.26-1.53,1.26-.1,0-.2,0-.3-.02-.04,0-.09-.02-.15-.02-.21-.04-.51-.1-.88-.17-.77-.16-1.85-.38-3.16-.64-4.33-.91-11.09-2.43-16.91-4.14-1.54-.45-3.02-.92-4.37-1.39-2.49-.88-4.52-1.76-5.71-2.62-.67-.48-1.38-1.42-1.85-3.92-.25-1.34-.44-3.13-.5-5.54,0,0,0-.01,0-.02,0-.15,0-.3,0-.46v-.02c0-.21,0-.42-.01-.64-.01-1.01,0-2.14.02-3.37,0-.29.01-.59.02-.89.22-7.38,1.15-17.21,2.62-27.68.04-.32.09-.64.14-.97.14-1.01.29-2.04.46-3.09.95.12,1.84.19,2.65.19.16,0,.32-.01.49-.04-.17,1.07-.33,2.13-.47,3.17-.03.19-.06.37-.08.55-1.97,13.88-2.71,24.2-2.73,30.93v.16c0,.29,0,.58,0,.86,0,1.29.04,2.43.11,3.42.17,2.77.54,4.39,1,4.86,1.42,1.03,4.65,2.21,8.54,3.36h0c6.16,1.83,13.98,3.58,18.97,4.6.07.01.15.02.23.05.53.11,1.02.21,1.47.3.07.01.14.02.2.04.17.03.34.06.49.09.62.12,1.09.59,1.22,1.18.06.21.06.43.02.66Z"/>
  <path class="cls-1" d="M341.01,349.25c-8.13,0-17.55-1.6-20.01-5-2.35-3.26-.05-20.27,2.29-33.96,3.02-17.69,7.29-36.01,10.84-46.64.27-.82,1.16-1.26,1.98-.99.82.27,1.26,1.16.99,1.98-3.49,10.43-7.68,28.45-10.68,45.91-3.61,20.99-3.7,30.57-2.88,31.88.98,1.35,5.33,2.98,12.84,3.56,6.18.47,12.29-.02,14.6-1.16,2.06-2.24,9.03-30.56,19.22-97.74.13-.86.93-1.44,1.78-1.31.86.13,1.44.92,1.31,1.78-.04.24-3.69,24.3-7.96,48.4-8.76,49.47-11.4,50.85-12.81,51.59-2.14,1.12-6.59,1.71-11.51,1.71Z"/>
  <path class="cls-1" d="M345.08,342.38c-9.35,0-17.46-1.99-24.2-5.93-.74-.44-.99-1.39-.56-2.14.44-.74,1.39-.99,2.14-.56,8.34,4.89,19.05,6.53,31.83,4.89.86-.11,1.64.49,1.75,1.35.11.86-.49,1.64-1.35,1.75-3.33.43-6.53.64-9.6.64h0Z"/>
  <path class="cls-1" d="M320.02,329.81c-8.94,0-19.08-2.56-32.43-8.14-.79-.33-1.17-1.25-.84-2.04.33-.8,1.25-1.17,2.04-.84,14.07,5.88,24.37,8.3,33.4,7.84.84-.05,1.59.62,1.64,1.48.04.86-.62,1.59-1.48,1.64-.77.04-1.54.06-2.33.06h0Z"/>
  <path class="cls-1" d="M278.58,360.63c-3.26,0-6.39-.64-8.64-2.47-2.02-1.64-2.24-3.52-2.07-4.81,1.17-9.01,27.47-21.11,30.46-22.46.79-.36,1.71,0,2.07.78.36.78,0,1.71-.78,2.07-10.7,4.82-27.94,14.52-28.65,20.01-.07.51-.02,1.2.94,1.98,2.97,2.41,9.6,2.34,17.76-.17,12.93-3.98,25.04-12.52,27-19.04.25-.83,1.12-1.29,1.94-1.05.83.25,1.29,1.12,1.05,1.94-2.62,8.72-16.93,17.39-29.07,21.13-3.11.96-7.67,2.08-11.99,2.08h-.01Z"/>
  <path class="cls-1" d="M315.38,372.37c-.84,0-1.61-.06-2.32-.2-2.09-.41-3.58-1.39-4.4-2.94-4.91-9.24,16.44-22.71,18.89-24.21.74-.45,1.7-.22,2.15.51.45.74.22,1.7-.51,2.15-.06.03-5.64,3.48-10.61,7.86-6,5.28-8.54,9.62-7.16,12.23.13.25.54,1.01,2.23,1.34,8.73,1.69,31.61-10.18,34.38-12.53,2.14-1.81.84-7.36.21-9.16-.28-.81.15-1.71.96-1.99.81-.28,1.71.14,1.99.96.32.92,3.01,9.07-1.15,12.58-2.93,2.47-23.74,13.41-34.67,13.41Z"/>
  <path class="cls-1" d="M359.43,234.37c-.58,0-1.14-.33-1.41-.88-5.98-12.38-8.41-23.44-7.4-33.83.08-.86.84-1.49,1.71-1.41.86.08,1.49.84,1.41,1.71-.94,9.79,1.38,20.32,7.11,32.16.38.78.05,1.71-.73,2.09-.22.11-.45.16-.68.16h0Z"/>
  <path class="cls-1" d="M331.9,230.78c-.14,0-.28-.02-.42-.06-.83-.23-1.32-1.09-1.08-1.93,2.9-10.38,3.63-23.47,4.4-37.34,1.3-23.31,2.64-47.41,14.92-59.98.61-.62,1.59-.62,2.21-.02.62.61.62,1.59.02,2.21-11.46,11.72-12.77,35.23-14.03,57.96-.78,14.04-1.52,27.31-4.51,38.01-.19.69-.82,1.14-1.51,1.14h0Z"/>
  <path class="cls-1" d="M316.68,217.88c-.27,0-.54-.07-.79-.21-.74-.44-1-1.39-.56-2.14,3.11-5.33,4.97-12.9,5.69-23.14.06-.86.82-1.51,1.67-1.45.86.06,1.51.81,1.45,1.67-.76,10.72-2.76,18.74-6.11,24.49-.29.5-.81.77-1.35.77h0Z"/>
  <path class="cls-1" d="M327.18,131.07c-.37,0-.74-.13-1.04-.4-4.08-3.66-9.53-5.81-16.2-6.39-.86-.07-1.49-.83-1.42-1.69.08-.86.84-1.49,1.69-1.42,7.36.64,13.42,3.06,18.02,7.17.64.58.69,1.56.12,2.21-.31.34-.74.52-1.16.52h0Z"/>
  <path class="cls-1" d="M331.9,113.57c-.25,0-.5-.06-.73-.18-4.75-2.53-11.04-4.19-19.81-5.21-.86-.1-1.47-.88-1.37-1.73.1-.86.86-1.46,1.73-1.37,9.16,1.07,15.81,2.84,20.91,5.56.76.41,1.05,1.35.64,2.11-.28.52-.82.83-1.38.83h0Z"/>
  <path class="cls-1" d="M250.8,121.27c-.52,0-1.03-.07-1.49-.25-.93-.36-1.59-1.06-1.9-2.03-.47-1.45.47-3.19,2.93-5.46,2.53-2.33,6.31-4.88,9.87-6.66,4.52-2.26,7.92-2.95,10.08-2.06.8.33,1.17,1.24.84,2.04-.33.8-1.24,1.18-2.04.84-.99-.41-3.8-.02-8.43,2.45-5.7,3.04-9.65,6.72-10.19,7.97.56.22,2.76-.4,4.7-1.53.74-.43,1.7-.18,2.14.57.43.74.18,1.7-.56,2.14-.65.38-3.51,1.96-5.94,1.96h0Z"/>
  <path class="cls-1" d="M262.96,125.49c-1.41,0-2.06-.78-2.32-1.24-.97-1.69.36-4.31.98-5.35.44-.74,1.4-.99,2.14-.55.74.44.99,1.4.55,2.14-.32.54-.61,1.21-.78,1.72,1.96-.73,6.76-3.89,10.64-6.82.69-.52,1.67-.38,2.19.31.52.69.38,1.67-.31,2.19-3.03,2.29-10.37,7.61-13.1,7.61h0Z"/>
  <path class="cls-1" d="M253.26,125.92c-.93,0-1.77-.23-2.45-.78-.69-.56-1.04-1.36-.98-2.24.23-3.22,7.04-7.65,9.96-9.41.74-.44,1.7-.21,2.14.53.44.74.21,1.7-.53,2.14-3.98,2.39-7.64,5.34-8.34,6.66,1.32.24,5.48-1.75,8.96-4.38.69-.52,1.67-.39,2.19.3.52.69.39,1.67-.3,2.19-1.77,1.34-6.92,4.98-10.64,4.98h0Z"/>
  <path class="cls-1" d="M311.86,268.29c-3.69,7.4-13.42,18.37-19.31,18.39h-.02c-.95,0-2-.08-3.11-.22-3.11-.39-6.67-1.26-9.73-2.12-1.09-.31-2.11-.62-3.03-.9-.84-.26-1.6-.51-2.23-.71-1.16-.39-1.91-.65-2.03-.69-.61-.21-.99-.77-1.02-1.38,0-.12.01-.23.01-.35.02-.09.04-.17.07-.26.29-.81,1.19-1.24,1.99-.95.03,0,.43.15,1.1.38,2.72.91,9.94,3.23,15.33,3.9.95.12,1.84.19,2.65.19.16,0,.32-.01.49-.04,4.01-.69,12.4-9.3,16.05-16.62,1.61-3.23,2.08-5.81,1.26-6.89-1.72-2.28-6.61-4.28-11.61-5.77-1.01-.31-2.02-.59-3.01-.85-3.31-.87-6.38-1.49-8.27-1.81-.85-.14-1.43-.95-1.28-1.81.14-.85.95-1.43,1.81-1.28.17.03,3.93.67,8.53,1.87.64.17,1.29.35,1.96.54.36.1.7.2,1.04.31,6.95,2.07,11.43,4.39,13.33,6.92,1.64,2.17,1.32,5.6-.96,10.17Z"/>
  <path class="cls-1" d="M227.48,288.89c-1.01-.27-2.05-.54-3.11-.82.01-1.11.03-2.19.04-3.22.12-7.86.27-13.16.28-13.27.03-.84.72-1.51,1.56-1.51h.05c.86.02,1.54.75,1.51,1.61,0,.1-.17,5.73-.29,13.99-.01,1.03-.02,2.11-.04,3.22Z"/>
  <path class="cls-1" d="M275.3,257.65c-.12,3.86-.39,11.99-.74,21.83-.04,1.07-.07,2.15-.12,3.26-.34,9.31-.74,19.81-1.16,29.48-.05,1.22-.11,2.42-.16,3.6-.34,7.56-.69,14.42-1.02,19.56-.09,1.33-.17,2.54-.26,3.61-.24,2.99-.46,4.95-.67,5.51-.64,1.76-2.27,3.09-4.69,3.88-3.54,1.13-7.91.83-10.18-.72-.97-.66-2.26-1.54-1.96-25.92-1.77,16.29-3.51,31.58-3.96,33.38-.28,1.15-1.05,2.09-2.21,2.71-1.25.66-2.96.95-4.92.95-3.83,0-8.61-1.09-12.63-2.56-1.79-.66-3.63-2.98-4.9-15.43-.27-2.66-.51-5.68-.7-9.04-.08-1.31-.14-2.66-.21-4.07.94-.95,1.95-2.06,2.99-3.29.06,1.58.12,3.06.19,4.46,1.06,21.49,3.23,24.14,3.74,24.46,6.17,2.25,12.62,3.02,14.96,1.77.49-.26.6-.51.64-.7.76-3.07,6.23-54.54,8.27-74.11.09-.84.84-1.47,1.67-1.39.84.06,1.48.78,1.44,1.62-1.33,28.76-1.92,60.86-.46,64.72,1.42.77,4.59,1.04,7.25.19,1.46-.47,2.42-1.17,2.71-1.98.12-.4.26-1.54.41-3.3.08-.94.16-2.05.25-3.32.31-4.62.66-11.3,1.01-19.11.06-1.23.11-2.49.17-3.77.45-10.17.91-21.88,1.31-33.26,0-.12.01-.23.01-.35.29-7.96.56-15.75.78-22.76.03-.86.74-1.54,1.61-1.51.86.03,1.54.75,1.51,1.61Z"/>
  <path class="cls-1" d="M40.38,292.98c4.16,1.59,9.07,3.46,11.15,4.26-.01.56-.04,1.11-.09,1.62,1.01.24,2.04.49,3.08.74.11-1.12.15-2.2.16-3.18-5.01-1.2-9.79-2.35-14.29-3.44ZM91.5,305.15c-.48,1.03-.99,1.98-1.54,2.84,1.06.25,2.11.49,3.17.74.55-.94,1.04-1.91,1.47-2.86-1.04-.24-2.07-.49-3.1-.73ZM247.86,292.9c-.5-.81-1.33-2.16-20.34-7.23-.99-.26-2.03-.54-3.11-.82-4.58-1.19-10.06-2.57-16.65-4.17-15.63-3.79-31.23-7.3-35.97-8.36-.91-.21-1.42-.32-1.45-.33-.68-.15-1.35.17-1.68.74-.09.14-.14.29-.18.45-.02.1-.04.21-.04.31-.01.73.49,1.39,1.22,1.55.45.1.91.2,1.37.31,16.11,3.58,37.59,8.6,53.33,12.72,1.06.27,2.1.55,3.11.82,9.39,2.51,16.22,4.6,17.7,5.69.17,1.53-2.36,7.98-8.59,17.71-2.98,4.65-6.03,8.82-8.79,12.07-1.04,1.24-2.05,2.34-2.99,3.29-1.51,1.53-2.87,2.66-3.98,3.29-1.72.74-14.37.34-91.62-17.11-1.61-.36-3.24-.73-4.91-1.11-1.67.77-3.29,1.46-4.89,2.09,1.77.41,3.52.81,5.23,1.19,68.34,15.52,88.19,18.23,94.52,18.23,2.2,0,2.78-.33,3.18-.56.83-.47,1.73-1.13,2.68-1.95.95-.82,1.95-1.8,2.97-2.9,8.21-8.78,18.26-25.34,19.99-32.09.45-1.74.41-2.96-.12-3.83ZM70.7,300.25c-.49,1.03-.89,2.01-1.21,2.92,1.01.24,2.04.48,3.06.73.17-.47.36-.94.56-1.42l16.92,2.34c-6.58-1.54-13.07-3.07-19.34-4.56ZM35.13,291.72c-1.04-.25-2.07-.5-3.07-.74-18.03-4.38-29.87-7.31-30.12-7.37-.84-.21-1.69.31-1.89,1.14-.21.84.3,1.68,1.14,1.89.26.06,12.39,3.07,30.8,7.53,1.04.25,2.09.51,3.16.77-.07-1.04-.07-2.11-.01-3.22Z"/>
  <path class="cls-1" d="M54.05,223.13c1,.29,2,.58,3.01.87-.31.99-.63,1.98-.95,2.98-1.02-.29-2.03-.59-3.01-.87-13.61-3.97-23.61-6.91-27.59-8.09-.82-.24-1.3-1.11-1.05-1.94.24-.82,1.11-1.3,1.94-1.06,8.78,2.59,18.07,5.32,27.66,8.11Z"/>
  <path class="cls-1" d="M141.61,251.37c-2.22-.61-4.44-1.24-6.67-1.86-1.39-1.4-2.76-2.88-4.07-4.4,1.9.53,3.79,1.06,5.68,1.59,1.68,1.73,3.38,3.33,5.06,4.67Z"/>
  <path class="cls-1" d="M156.38,184.57c-.61.99-1.01,1.98-1.15,2.91-1.01-.27-2.02-.56-3.02-.82-6.87-1.88-13.54-3.7-19.93-5.43-.34-.09-.68-.19-1.03-.28-.83-.22-1.32-1.08-1.1-1.91.02-.09.06-.17.09-.25,0,0,.01-.02.02-.03.06-.12.13-.24.22-.33,0,0,0,0,.01-.01.38-.44.99-.64,1.58-.48.05.01.72.19,1.92.52,3.16.86,10.03,2.73,19.3,5.28,1,.27,2.03.56,3.09.84Z"/>
  <path class="cls-1" d="M172.08,191.36c-.44-.76-.56-1.61-.34-2.55,1,.28,2.01.56,3.04.84-.01.07,0,.12,0,.14.36.62,1.99.91,4.12,1.01,3.64,1.01,7.41,2.06,11.27,3.14-1.43.79-2.53,1.55-3.38,2.28-1.14-.32-2.29-.64-3.43-.96.39-.47.86-.93,1.38-1.38-2.39.11-4.47.14-6.22.03-1.85-.51-3.69-1.02-5.53-1.53-.37-.29-.67-.62-.9-1.01Z"/>
  <path class="cls-1" d="M192.95,196.57c.07-.75.66-1.35,1.41-1.43.04,0,.08,0,.13-.02h0c1.45.41,2.91.81,4.38,1.23,2.81.79,5.66,1.58,8.52,2.39,1.04.29,2.08.58,3.12.88,3.57,1.01,7.16,2.02,10.74,3.04,2.55.72,5.03,1.43,7.44,2.12,1.06.3,2.11.6,3.15.9.02,1.23.11,2.33.24,3.31-1.08-.31-2.16-.62-3.26-.93-8.71-2.49-17.71-5.04-26.81-7.59-2.24-.63-4.47-1.26-6.72-1.88-.03-.01-.06-.02-.09-.03-.38-.13-.76-.24-1.13-.35-.73-.2-1.2-.89-1.14-1.64Z"/>
  <path class="cls-1" d="M312.72,234.57c-.23.42-.59.89-1.06,1.39-.61.67-1.42,1.4-2.38,2.19-1.99,1.62-4.63,3.45-7.58,5.35-1.29.83-2.64,1.66-4.01,2.5-1.83,1.12-3.72,2.23-5.59,3.31-1.39.81-2.78,1.59-4.12,2.36-3.77,2.12-7.24,3.99-9.79,5.35-14.63,7.79-33.24,16.74-39.49,17.99-.24.05-.57.07-.97.07-7.24,0-38.83-8.01-75.62-18.04-2.11-.58-4.24-1.17-6.39-1.76,2.01-.3,4.16-.82,6.32-1.52,1.75.47,3.48.94,5.19,1.41,38.01,10.33,66.99,17.55,70.86,16.77,5.07-1.01,22.07-8.83,39.56-18.17,3.36-1.8,6.43-3.48,9.21-5.05.06-.04.12-.07.18-.1,0,0,.01,0,.01,0,4.84-2.74,8.83-5.12,12.03-7.16,1.62-1.04,3.06-1.98,4.29-2.83,1.24-.85,2.29-1.61,3.16-2.28,1.1-.84,1.92-1.54,2.49-2.1.35-.34.61-.63.78-.87-.92-.55-2.8-1.35-5.51-2.34-1.88-.7-4.17-1.49-6.81-2.38-10.83-3.62-27.65-8.71-47.35-14.45-1.12-.32-2.25-.65-3.39-.98.85-.62,1.48-1.49,1.91-2.7,1.01.29,2,.58,2.98.87h0c25.07,7.31,39.82,11.92,48.52,14.91,1.1.38,2.11.74,3.02,1.06,9.18,3.29,9.53,4.2,9.8,4.89.19.49.3,1.29-.26,2.33Z"/>
  <path class="cls-1" d="M286.93,99.71c-1.44,0-2.83-.71-4.13-2.11-.59-.63-.55-1.62.08-2.21.63-.59,1.62-.55,2.21.08.47.51,1.17,1.11,1.84,1.11s1.37-.6,1.84-1.11c.59-.63,1.58-.67,2.21-.08.63.59.67,1.58.08,2.21-1.3,1.4-2.69,2.11-4.13,2.11h.01Z"/>
  <path class="cls-1" d="M270.73,101.85c-1.26,0-2.46-.63-3.59-1.88-.58-.64-.52-1.63.12-2.21.64-.57,1.63-.52,2.21.12.51.56.96.87,1.3.84.43-.03,1.06-.58,1.69-1.47.49-.71,1.47-.88,2.18-.39s.88,1.47.39,2.18c-1.23,1.77-2.6,2.71-4.06,2.8-.08,0-.16,0-.23,0Z"/>
  <path class="cls-1" d="M275.11,112.77c-.85,0-1.54-.68-1.56-1.53-.02-.86.67-1.58,1.53-1.59,5.59-.11,9.12-1.38,10.49-3.79.43-.75,1.38-1.01,2.13-.59s1.01,1.38.59,2.13c-1.98,3.49-6.28,5.24-13.14,5.38h-.03Z"/>
  <path class="cls-1" d="M293.57,113.49c.16.85-.41,1.66-1.26,1.82-2.24.41-4.39.61-6.43.61-3.02,0-5.81-.44-8.26-1.31-1.06-.37-2.05-.82-2.98-1.34-3.02-1.69-5.38-4.17-6.86-7.36-2.87-6.15-1.95-13.57,2.02-19.16.64-.91,1.37-1.78,2.18-2.58,0,.09,0,.16,0,.23.79.09,2.56.11,4.39.12-.36.27-.71.55-1.06.84-.81.67-1.55,1.42-2.21,2.23-2.34,2.88-3.68,6.49-3.83,10.09-.05,1.34.06,2.69.35,3.99.23,1.01.55,1.98.99,2.92.97,2.07,2.37,3.77,4.15,5.07.39.29.81.57,1.24.82.58.33,1.19.63,1.83.9.83.34,1.71.62,2.64.84,3.23.76,7.03.78,11.27,0,.85-.16,1.66.41,1.82,1.26Z"/>
  <path class="cls-1" d="M295.94,74.86c-.87,1.08-1.61,2.14-2.11,3.12-.57.02-1.14.06-1.72.12-.61.06-1.21.15-1.82.26-1.81.31-3.62.81-5.42,1.49h-.01c-.12.05-.26.09-.38.14-.66.26-1.32.54-1.98.85-.09.04-.17.08-.26.12-2.66-.04-4.82-.03-6.26.01.13-.09.26-.18.39-.28,0,0,.01-.01.02-.01.62-.41,1.24-.81,1.88-1.18,1.06-.62,2.14-1.19,3.24-1.69.21,0,.42,0,.63,0,.08-.14.17-.27.26-.4,1.81-.77,3.66-1.38,5.51-1.81-.75.74-1.41,1.5-2.01,2.29,1.5.04,3.02.08,4.49.14.34-.96.86-1.98,1.6-3.09h0c1.33-.12,2.64-.16,3.94-.09Z"/>
  <path class="cls-1" d="M311.9,82.71c-1.14-.18-2.81-.38-4.99-.58-.21-.18-.43-.35-.66-.51-.35-.27-.71-.52-1.08-.74-.47-.31-.94-.58-1.44-.84-.89-.46-1.82-.84-2.79-1.15-.38-.12-.77-.23-1.17-.33-.16-.04-.32-.07-.48-.11-.49-.11-.99-.21-1.51-.27.51-.91.93-1.91,1.27-2.96.49.09.98.19,1.46.31.54.13,1.06.29,1.58.46-.28.89-.61,1.75-1,2.57,1.29.07,2.46.16,3.52.24.39-.44.72-.87.97-1.31.88.47,1.71,1.01,2.51,1.61.04.03.09.06.12.09.79.59,1.54,1.24,2.24,1.96.21.21.41.42.6.63h0v.02c.26.27.5.54.73.83,0,0,0,0,0,0,.03.03.06.06.07.09Z"/>
  <path class="cls-1" d="M315.18,91.71c-.51.21-1.06.13-1.48-.16-.07-.06-.14-.12-.21-.18-.14-.14-.26-.31-.35-.52-.14-.32-.28-.65-.43-.96-.35-.77-.73-1.51-1.14-2.22-.12-.2-.24-.4-.36-.59.81-.73,1.54-1.79,1.9-2.79.69.97,1.31,2.02,1.88,3.13.32.62.62,1.26.9,1.93.05.11.09.21.14.32.33.8-.05,1.71-.84,2.04Z"/>
  <path class="cls-1" d="M289.69,131.15c-6.6,0-11.86-2.92-15.86-8.75-.22-.32-.31-.71-.26-1.09l1.28-9.51c.11-.86.9-1.46,1.76-1.34.86.11,1.46.9,1.34,1.76l-1.2,8.9c6.52,9,16.67,9.21,31.85.65l2.23-22.7c.08-.8.75-1.41,1.56-1.41,2.73,0,2.95-1.33,3.02-1.77.31-1.83-1.16-4.46-2.81-5.02-.94-.32-1.82.27-2.63,1.77-.41.76-1.36,1.04-2.12.64-.76-.41-1.04-1.36-.64-2.12,2.23-4.14,5.22-3.66,6.39-3.26,3.06,1.04,5.43,5.17,4.88,8.49-.39,2.34-2.1,3.87-4.68,4.28l-2.18,22.2c-.05.5-.34.95-.77,1.2-8.19,4.71-15.22,7.07-21.16,7.07h0Z"/>
  <path class="cls-1" d="M235.96,176.75c-.76,0-1.42-.56-1.54-1.33-5.44-35.75,2.16-41.18,14.76-50.19.95-.68,1.93-1.38,2.94-2.12.7-.51,1.67-.36,2.18.34.51.7.36,1.68-.34,2.18-1.02.75-2.01,1.46-2.97,2.14-12.41,8.88-18.64,13.32-13.48,47.18.13.85-.46,1.65-1.31,1.78-.08.01-.16.02-.24.02h0Z"/>
  <path class="cls-1" d="M250.09,190.54c-.09,0-.17,0-.26-.02-.85-.14-1.42-.94-1.29-1.8,2.38-14.29,2.81-26.19,1.35-37.4-4.57-4.81-9.15-7.75-13.62-8.72-.84-.18-1.38-1.01-1.19-1.86.18-.84,1.01-1.38,1.86-1.19,5.22,1.13,10.46,4.5,15.59,10.01.22.24.36.54.41.86,1.58,11.67,1.17,24.01-1.3,38.82-.12.76-.79,1.31-1.54,1.31h0Z"/>
  <path class="cls-1" d="M286.88,206.06c-.31-1.2-.96-2.29-1.86-3.19-1.59-1.59-3.97-2.59-6.62-2.59-2.34,0-4.47.79-6.03,2.06-1.03.84-1.82,1.9-2.26,3.08-.18.47-.3.97-.36,1.49-.03.23-.04.48-.04.71,0,.85.18,1.67.49,2.43,1.19,2.86,4.41,4.91,8.2,4.91,3.16,0,5.93-1.43,7.45-3.57.64-.9,1.05-1.92,1.19-3.01.03-.25.04-.5.04-.76,0-.54-.07-1.06-.2-1.56ZM278.4,211.83c-3.07,0-5.56-1.89-5.56-4.21,0-.94.41-1.81,1.09-2.51.05-.04.09-.08.14-.13.01,0,.02-.01.02-.02,1.02-.94,2.57-1.55,4.31-1.55,1.96,0,3.69.78,4.67,1.94.03.05.08.1.12.14.48.62.76,1.35.76,2.12,0,.47-.1.92-.29,1.34-.02.04-.04.09-.06.13-.79,1.61-2.83,2.74-5.21,2.74Z"/>
  <path class="cls-1" d="M291.42,206.13c-2.26,0-4.64-.06-7.17-.17-.86-.04-1.53-.77-1.49-1.63.04-.86.77-1.53,1.63-1.49,9.46.42,16.84.04,22.57-1.14.84-.18,1.67.37,1.85,1.21.17.84-.37,1.68-1.21,1.85-4.43.92-9.76,1.38-16.17,1.38Z"/>
  <path class="cls-1" d="M293.02,211.78c-2.91,0-5.59-.18-8.19-.53-.86-.12-1.46-.91-1.34-1.76.12-.86.91-1.46,1.76-1.34,5.92.81,12.42.65,21.05-.51.86-.12,1.64.49,1.76,1.34.11.86-.49,1.64-1.34,1.76-5.19.7-9.65,1.04-13.7,1.04h0Z"/>
  <path class="cls-1" d="M272.94,205.47c-7.34-.02-14.79-.92-22.14-2.65-.84-.2-1.36-1.04-1.16-1.88.2-.84,1.04-1.36,1.88-1.16,7.11,1.68,14.33,2.54,21.44,2.57.86,0,1.56.71,1.56,1.57,0,.86-.7,1.56-1.56,1.56h0Z"/>
  <path class="cls-1" d="M271.27,210.08h-.04c-8.91-.23-15.24-1.05-20.53-2.67-.82-.25-1.29-1.12-1.04-1.95.25-.83,1.12-1.29,1.95-1.04,5.02,1.53,11.09,2.31,19.7,2.53.86.03,1.54.74,1.52,1.6-.02.85-.72,1.52-1.56,1.52h0Z"/>
  <path class="cls-1" d="M312.56,82.81c-.21,0-.41-.04-.61-.12-.79-.34-1.16-1.26-.83-2.05,2.51-5.91,1.36-10.15-3.34-12.25-8.96-4-25.84,1.02-30.83,11.64-.37.78-1.3,1.12-2.08.75-.78-.37-1.12-1.3-.75-2.08,5.75-12.25,24.55-17.8,34.92-13.17,6.34,2.83,8.14,8.78,4.94,16.32-.25.59-.83.95-1.44.95h.01Z"/>
  <path class="cls-1" d="M309.41,75.12c-.01,1.4-.38,2.72-1.13,3.99-.01.03-.03.05-.04.08-.48.8-1.11,1.58-1.89,2.35-.03.03-.06.06-.09.08-.05.04-.1.07-.15.11,0,0-.02.01-.02.02-.04.02-.07.04-.11.06-.04.03-.09.04-.14.06-.03.01-.07.02-.11.04-.01,0-.02.01-.04.01-.06.02-.11.03-.17.04-.09.02-.18.03-.27.03-.05,0-.1,0-.15,0-.36-.04-.7-.19-.96-.46-.4-.41-.53-.97-.4-1.48.01-.06.03-.11.06-.18.08-.21.19-.39.36-.56.18-.17.34-.34.49-.51.39-.44.72-.87.97-1.31.45-.79.67-1.58.68-2.39.01-1.69-.89-3.62-2.76-5.89-.37-.46-.78-.92-1.23-1.39-2.57.86-4.76,1.72-6.64,2.62-3.43,1.62-5.86,3.32-7.74,5.18-.75.74-1.41,1.5-2.01,2.29h0c-.47.62-.91,1.26-1.33,1.92-.03.06-.07.11-.1.16-.04.07-.08.13-.12.2-.4.64-1.18.9-1.86.65-.1-.03-.2-.08-.29-.14-.74-.45-.96-1.41-.51-2.15.15-.24.31-.49.46-.73.08-.14.17-.27.26-.4,2.41-3.58,5.61-6.71,11.42-9.56,0,0,0,0,.01,0,1.65-.81,3.51-1.59,5.61-2.35.73-.27,1.49-.53,2.28-.79.04-.01.09-.03.13-.04.14-.05.27-.09.41-.14.56-.18,1.17-.03,1.59.39.31.31.6.62.88.92.66.71,1.24,1.39,1.74,2.05,2.01,2.61,2.95,4.95,2.94,7.22Z"/>
  <path class="cls-1" d="M303.85,66.32c-.02.19-.04.39-.06.58-.01.12-.02.24-.03.36-.07.64-.14,1.29-.23,1.94-.3,2.33-.73,4.63-1.42,6.78-.28.89-.61,1.75-1,2.57-.05.11-.11.22-.17.33-.29.6-.61,1.17-.98,1.72-.04.08-.09.16-.15.24-.3.44-.79.69-1.29.69-.31,0-.61-.09-.88-.27-.3-.21-.51-.49-.61-.81-.15-.44-.09-.95.19-1.36.16-.24.31-.48.46-.74.04-.06.07-.12.11-.19.51-.91.93-1.91,1.27-2.96.52-1.57.88-3.26,1.15-4.96-1.52,1.49-3.04,3.07-4.28,4.61-.87,1.08-1.61,2.14-2.11,3.12-.03.07-.06.13-.09.19-.07.14-.13.27-.19.41-.08.19-.15.37-.21.55-.04.12-.08.25-.11.37-.04.14-.07.28-.09.42-.01.09-.03.17-.07.24,0,.03-.02.06-.03.09,0,0,0,.01,0,.02-.06.14-.14.27-.23.38-.07.09-.16.17-.24.23-.04.04-.09.07-.13.09-.02.02-.06.04-.09.05-.05.03-.11.06-.16.07-.02.01-.05.02-.07.03-.06.03-.12.04-.18.05-.11.02-.21.04-.33.04-.06,0-.11,0-.16,0l-.11-.02c-.59-.11-1.06-.54-1.23-1.08-.07-.23-.09-.48-.04-.73.06-.33.14-.67.25-1.02.03-.1.07-.21.11-.31.34-.96.86-1.98,1.6-3.09h0c.89-1.36,2.11-2.84,3.66-4.51.98-1.05,2.1-2.17,3.36-3.37.31-.29.63-.59.96-.91.24-.21.47-.43.72-.66.17-.16.36-.32.54-.49.15-.13.31-.23.49-.3.04-.01.09-.03.13-.04.37-.11.77-.07,1.12.11.39.19.67.53.79.93.07.19.09.4.07.61Z"/>
  <path class="cls-1" d="M306.63,61.02c-.11-.88-.56-2.11-2.17-2.97-2.47-1.34-4.57-.41-5.55,1.12-.81,1.24-.99,3.03-.29,4.81h0c.2.51.48,1.03.83,1.53,0,0,.01.01.02.03.15.21.32.43.51.63.26.3.56.59.89.87.16.14.31.27.48.39.27.21.61.31.94.31.38,0,.75-.13,1.05-.4.04-.03.08-.07.13-.12.09-.09.19-.19.32-.31.26-.26.59-.62.94-1.04,0,0,0,0,0-.01.33-.41.68-.88.98-1.4.61-1.03,1.05-2.23.91-3.43ZM302.22,63.97h0c-1.02-1.25-1.06-2.52-.67-3.12.14-.22.34-.32.59-.32.23,0,.51.09.84.26.52.28.54.51.56.6.08.64-.56,1.69-1.3,2.58h0Z"/>
  <path class="cls-1" d="M311.95,82.68s-.08-.04-.12-.06c0,0,0,0,0,0-.03-.01-.06-.03-.09-.04-.04-.02-.09-.06-.13-.09-.02-.01-.04-.03-.06-.04-.03-.02-.07-.06-.09-.09-.02-.03-.06-.06-.08-.09-.06-.06-.11-.13-.15-.21-.01-.02-.02-.04-.03-.06-.01-.02-.02-.04-.04-.07-.01-.02-.02-.04-.03-.07,0,0,0,0,0,0,0,0,0-.02-.01-.03,0,0,0-.01,0-.02,0,0,0,0,0-.01h0s0-.01,0-.01c-.19-.22-.39-.43-.6-.64-.71-.71-1.46-1.36-2.24-1.96-.04-.04-.08-.07-.12-.09-1.01-.1-2.17-.2-3.48-.3-1.07-.08-2.24-.16-3.52-.24-.58-.04-1.18-.07-1.81-.11-.52-.03-1.06-.06-1.61-.09-.92-.05-1.88-.1-2.89-.14-.34-.02-.7-.03-1.06-.04-.07.14-.13.27-.19.41-.08.19-.15.37-.21.55-.04.12-.08.25-.11.37-.04.14-.07.28-.09.42-.01.09-.03.17-.07.24,0,.03-.02.06-.03.09,0,0,0,.01,0,.02-.06.14-.14.26-.23.38-.07.09-.16.17-.24.23-.04.04-.09.07-.13.09-.02.02-.06.04-.09.05-.05.03-.11.06-.16.07-.03.01-.05.02-.08.03-.06.03-.12.04-.18.05-.11.02-.21.04-.33.04.73.03,1.48.06,2.24.09,1.68.07,3.24.15,4.71.23,2.5.14,4.69.29,6.58.44.64.05,1.24.11,1.81.16,2.19.2,3.85.4,4.99.58.07.01.13.03.19.03-.05-.01-.1-.04-.15-.06ZM311.95,82.68s-.08-.04-.12-.06c0,0,0,0,0,0-.03-.01-.06-.03-.09-.04-.04-.02-.09-.06-.13-.09-.02-.01-.04-.03-.06-.04-.03-.02-.07-.06-.09-.09-.02-.03-.06-.06-.08-.09-.06-.06-.11-.13-.15-.21-.01-.02-.02-.04-.03-.06-.01-.02-.02-.04-.04-.07-.01-.02-.02-.04-.03-.07,0,0,0,0,0,0,0,0,0-.02-.01-.03,0,0,0-.01,0-.02,0,0,0,0,0-.01h0s0-.01,0-.01c-.19-.22-.39-.43-.6-.64-.71-.71-1.46-1.36-2.24-1.96-.04-.04-.08-.07-.12-.09-1.01-.1-2.17-.2-3.48-.3-1.07-.08-2.24-.16-3.52-.24-.58-.04-1.18-.07-1.81-.11-.52-.03-1.06-.06-1.61-.09-.92-.05-1.88-.1-2.89-.14-.34-.02-.7-.03-1.06-.04-.53-.03-1.07-.05-1.62-.08-.56-.02-1.13-.04-1.71-.06-1.47-.06-2.99-.1-4.49-.14h0c-.47.62-.91,1.26-1.33,1.92-.03.06-.07.11-.1.16-.66.26-1.32.54-1.98.85-.09.04-.17.08-.26.12,2.64.04,5.78.12,9.19.25.05,0,.11,0,.16,0,.73.03,1.48.06,2.24.09,1.68.07,3.24.15,4.71.23,2.5.14,4.69.29,6.58.44.64.05,1.24.11,1.81.16,2.19.2,3.85.4,4.99.58.07.01.13.03.19.03-.05-.01-.1-.04-.15-.06ZM311.95,82.68s-.08-.04-.12-.06c0,0,0,0,0,0-.03-.01-.06-.03-.09-.04-.04-.02-.09-.06-.13-.09-.02-.01-.04-.03-.06-.04-.03-.02-.07-.06-.09-.09-.02-.03-.06-.06-.08-.09-.06-.06-.11-.13-.15-.21-.01-.02-.02-.04-.03-.06-.01-.02-.02-.04-.04-.07-.01-.03-.02-.04-.03-.07,0,0,0,0,0,0,0,0,0-.02-.01-.03,0,0,0-.01,0-.02,0,0,0,0,0-.01h0s0-.01,0-.01c-.19-.22-.39-.43-.6-.64-.71-.71-1.46-1.36-2.24-1.96-.04-.04-.08-.07-.12-.09-1.01-.1-2.17-.2-3.48-.3-1.07-.08-2.24-.16-3.52-.24-.58-.04-1.18-.07-1.81-.11-.52-.03-1.06-.06-1.61-.09-.92-.05-1.88-.1-2.89-.14-.34-.02-.7-.03-1.06-.04-.53-.03-1.07-.05-1.62-.08-.56-.02-1.13-.04-1.71-.06-1.47-.06-2.99-.1-4.49-.14h0c-.47.62-.91,1.26-1.33,1.92-.03.06-.07.11-.1.16-.66.26-1.32.54-1.98.85-.09.04-.17.08-.26.12,2.64.04,5.78.12,9.19.25.05,0,.11,0,.16,0,.73.03,1.48.06,2.24.09,1.68.07,3.24.15,4.71.23,2.5.14,4.69.29,6.58.44.64.05,1.24.11,1.81.16,2.19.2,3.85.4,4.99.58.07.01.13.03.19.03-.05-.01-.1-.04-.15-.06ZM315.88,81.05c-.18-.27-.37-.56-1.25-.88-.37-.12-.86-.26-1.52-.39-.44-.09-.95-.18-1.56-.28h0c-.88-.13-1.96-.26-3.27-.39-.06,0-.11-.01-.17-.02-1.01-.1-2.17-.2-3.48-.3-1.07-.08-2.24-.16-3.52-.24-.58-.04-1.18-.07-1.81-.11-.52-.03-1.06-.06-1.61-.09-.92-.05-1.88-.1-2.89-.14-.34-.02-.7-.03-1.06-.04-.53-.03-1.07-.05-1.62-.08-.56-.02-1.13-.04-1.71-.06-1.47-.06-2.99-.1-4.49-.14h0c-1.28-.04-2.54-.06-3.76-.08-.21,0-.43,0-.63,0-.78,0-1.54-.01-2.26-.01-.36,0-.7,0-1.04,0-.67,0-1.3.01-1.87.03-.71.02-1.33.05-1.84.09-.54.04-.95.1-1.19.17-2.41.68-3.94,3.07-4.34,5.01-.32,1.5-.01,2.82.83,3.66.07.08.14.15.23.21.51.41,1.17.57,3.07.63.96.04,2.24.05,3.99.06,3.74.03,8.86.06,13.91.52,4.42.4,8.84,1.16,12.39,1.77,1.73.29,3.07.53,4.14.68,1.13.16,1.96.25,2.59.25s1.09-.09,1.45-.27c.39-.19.77-.44,1.14-.72.6-.46,1.17-1.02,1.67-1.65.21-.27.42-.54.6-.82.58-.86,1.02-1.79,1.27-2.72.39-1.44.26-2.7-.37-3.66h0ZM311.2,87.08c-.3.28-.61.5-.91.67-.81.08-3.76-.43-6.38-.88-3.61-.62-8.09-1.39-12.64-1.8-5.17-.47-10.37-.51-14.17-.53-.24,0-.49,0-.73,0-1.83-.02-3.6-.04-4.39-.12,0-.06-.01-.14,0-.23,0-.24.06-.57.21-.99.39-1.02,1.18-1.87,1.96-2.09.26-.06.88-.11,1.81-.14,1.44-.04,3.59-.05,6.26-.01,2.64.04,5.78.12,9.19.25.05,0,.11,0,.16,0,.73.03,1.48.06,2.24.09,1.68.07,3.24.15,4.71.23,2.5.14,4.69.29,6.58.44.64.05,1.24.11,1.81.16,2.19.2,3.85.4,4.99.58.07.01.13.03.19.03h.03c.12.02.23.04.34.06,0,0,.01,0,.02,0,.36.07.64.14.86.2.02.19,0,.48-.11.88-.04.13-.08.27-.13.4-.36,1.01-1.09,2.06-1.9,2.79h0ZM311.95,82.68s-.08-.04-.12-.06c0,0,0,0,0,0-.03-.01-.06-.03-.09-.04-.04-.02-.09-.06-.13-.09-.02-.01-.04-.03-.06-.04-.03-.02-.07-.06-.09-.09-.02-.03-.06-.06-.08-.09-.06-.06-.11-.13-.15-.21-.01-.02-.02-.04-.03-.06-.01-.02-.02-.04-.04-.07-.01-.02-.02-.04-.03-.07,0,0,0,0,0,0,0,0,0-.02-.01-.03,0,0,0-.01,0-.02,0,0,0,0,0-.01h0s0-.01,0-.01c-.19-.22-.39-.43-.6-.64-.71-.71-1.46-1.36-2.24-1.96-.04-.04-.08-.07-.12-.09-1.01-.1-2.17-.2-3.48-.3-1.07-.08-2.24-.16-3.52-.24-.58-.04-1.18-.07-1.81-.11-.52-.03-1.06-.06-1.61-.09-.92-.05-1.88-.1-2.89-.14-.34-.02-.7-.03-1.06-.04-.53-.03-1.07-.05-1.62-.08-.56-.02-1.13-.04-1.71-.06-1.47-.06-2.99-.1-4.49-.14h0c-.47.62-.91,1.26-1.33,1.92-.03.06-.07.11-.1.16-.66.26-1.32.54-1.98.85-.09.04-.17.08-.26.12,2.64.04,5.78.12,9.19.25.05,0,.11,0,.16,0,.73.03,1.48.06,2.24.09,1.68.07,3.24.15,4.71.23,2.5.14,4.69.29,6.58.44.64.05,1.24.11,1.81.16,2.19.2,3.85.4,4.99.58.07.01.13.03.19.03-.05-.01-.1-.04-.15-.06ZM311.95,82.68s-.08-.04-.12-.06c0,0,0,0,0,0-.03-.01-.06-.03-.09-.04-.04-.02-.09-.06-.13-.09-.02-.01-.04-.03-.06-.04-.03-.02-.07-.06-.09-.09-.02-.03-.06-.06-.08-.09-.06-.06-.11-.13-.15-.21-.01-.02-.02-.04-.03-.06-.01-.02-.02-.04-.04-.07-.01-.02-.02-.04-.03-.07,0,0,0,0,0,0,0,0,0-.02-.01-.03,0,0,0-.01,0-.02,0,0,0,0,0-.01h0s0-.01,0-.01c-.19-.22-.39-.43-.6-.64-.71-.71-1.46-1.36-2.24-1.96-.04-.04-.08-.07-.12-.09-1.01-.1-2.17-.2-3.48-.3-1.07-.08-2.24-.16-3.52-.24-.58-.04-1.18-.07-1.81-.11-.52-.03-1.06-.06-1.61-.09-.92-.05-1.88-.1-2.89-.14-.34-.02-.7-.03-1.06-.04-.53-.03-1.07-.05-1.62-.08-.56-.02-1.13-.04-1.71-.06-1.47-.06-2.99-.1-4.49-.14h0c-.47.62-.91,1.26-1.33,1.92-.03.06-.07.11-.1.16-.66.26-1.32.54-1.98.85-.09.04-.17.08-.26.12,2.64.04,5.78.12,9.19.25.05,0,.11,0,.16,0,.73.03,1.48.06,2.24.09,1.68.07,3.24.15,4.71.23,2.5.14,4.69.29,6.58.44.64.05,1.24.11,1.81.16,2.19.2,3.85.4,4.99.58.07.01.13.03.19.03-.05-.01-.1-.04-.15-.06ZM311.95,82.68s-.08-.04-.12-.06c0,0,0,0,0,0-.03-.01-.06-.03-.09-.04-.04-.02-.09-.06-.13-.09-.02-.01-.04-.03-.06-.04-.03-.02-.07-.06-.09-.09-.02-.03-.06-.06-.08-.09-.06-.06-.11-.13-.15-.21-.01-.02-.02-.04-.03-.06-.01-.02-.02-.04-.04-.07-.01-.02-.02-.04-.03-.07,0,0,0,0,0,0,0,0,0-.02-.01-.03,0,0,0-.01,0-.02,0,0,0,0,0-.01h0s0-.01,0-.01c-.19-.22-.39-.43-.6-.64-.71-.71-1.46-1.36-2.24-1.96-.04-.04-.08-.07-.12-.09-1.01-.1-2.17-.2-3.48-.3-.15.17-.31.34-.49.51-.16.16-.28.35-.36.55-.02.07-.04.12-.06.18.49.26.97.53,1.44.84.37.22.72.47,1.07.74-.05.04-.1.08-.15.11,0,0-.02.01-.02.02-.04.02-.07.04-.11.06-.04.03-.09.04-.14.06-.03.01-.07.02-.11.04-.01,0-.02.01-.04.01-.06.02-.11.03-.17.04-.09.02-.18.03-.27.03-.05,0-.1,0-.15,0,.64.05,1.24.11,1.81.16,2.19.2,3.85.4,4.99.58.07.01.13.03.19.03-.05-.01-.1-.04-.15-.06Z"/>
  <path class="cls-1" d="M251.63,211.38c-.37,1.08-.86,2.02-1.49,2.81-1.74,2.2-4.57,3.36-9.05,3.68-.71.05-1.44.09-2.17.09-.4,0-.79-.01-1.19-.04-2.32-.14-4.57-.73-6.21-2.43-.11-.11-.21-.23-.32-.35-1.36-1.61-2.09-3.89-2.36-7.09-.09-1-.14-2.09-.14-3.28,0-3.57.34-8,.91-13.5v-.03l.02-.11c0-.05.02-.1.03-.14.02-.06.04-.12.07-.17.03-.06.06-.12.1-.19,0,0,.02-.03.03-.06.31-.47.87-.75,1.46-.68.86.09,1.48.86,1.39,1.71-.07.71-.14,1.41-.21,2.09-.47,4.83-.74,8.83-.66,11.99.02,1.23.11,2.33.24,3.31.28,2,.82,3.45,1.67,4.34,1.22,1.26,3.34,1.69,7.11,1.43,2.64-.18,4.54-.56,5.87-1.54.85-.62,1.48-1.49,1.91-2.7,1.09-3.01,1.07-8.13.67-16.93-.02-.67-.06-1.36-.09-2.07-.04-.86.62-1.59,1.49-1.64.53-.03,1.01.21,1.31.61.04.07.08.12.09.14.04.06.08.12.1.19.02.03.03.06.04.09.01.03.02.06.03.09,0,.02.01.04.02.06.01.06.02.11.03.17,0,.04.01.09.01.14.44,9.28.76,15.77-.72,20.02Z"/>
  <path class="cls-1" d="M239.87,185.75c-.15-.07-.29-.14-.43-.21-.91-.47-1.59-.91-1.85-1.07-.03-.02-.05-.04-.07-.05h0s-.02-.02-.03-.02c.02.07.24.62.42,1.32.04.16.09.34.12.52.04.16.07.33.09.5.73-.39,1.48-.66,2.24-.76-.17-.07-.34-.15-.49-.23ZM239.87,185.75c-.15-.07-.29-.14-.43-.21-.91-.47-1.59-.91-1.85-1.07-.03-.02-.05-.04-.07-.05h0s-.02-.02-.03-.02c.02.07.24.62.42,1.32.04.16.09.34.12.52.04.16.07.33.09.5.73-.39,1.48-.66,2.24-.76-.17-.07-.34-.15-.49-.23ZM252.34,191.23c0-.06-.02-.11-.03-.17,0-.02-.01-.04-.02-.06-.01-.03-.02-.06-.03-.09,0-.03-.02-.06-.04-.09-.02-.07-.06-.13-.1-.19-.01-.02-.04-.07-.09-.14-.37-.58-1.81-2.7-3.96-4.58-.66-.56-1.36-1.11-2.14-1.56,0,0,0-.01-.01-.01-1.06-.64-2.23-1.15-3.48-1.38,1.12.99,1.9,1.79,2.27,2.35-1.72.39-4.74-1.12-6.21-2.11-.93.28-1.79.7-2.61,1.21,0,.19.04.37.11.55.26.66.47,1.45.57,2.04-.51-.37-1.17-.98-1.91-1.74-.43.32-.83.66-1.2,1.01-.4.37-.77.74-1.12,1.11-1.41,1.51-2.31,2.89-2.5,3.19-.01.02-.02.04-.03.05-.04.07-.07.13-.1.19-.02.06-.04.12-.07.18-.01.04-.02.09-.03.14l-.02.11c-.02.21-.01.43.05.64.12.43.43.77.83.97.66.31,1.33.59,2.01.84,2.49.91,5.12,1.36,7.88,1.36s5.84-.48,8.95-1.46c.66-.21,1.34-.44,2.01-.69.44-.16.78-.51.93-.96.07-.2.09-.41.07-.61,0-.04,0-.07,0-.11ZM233.56,190.76c.33-.42.71-.86,1.14-1.31.35-.38.73-.74,1.12-1.1.71-.62,1.49-1.19,2.3-1.62.73-.39,1.48-.66,2.24-.76h0c.2-.02.41-.04.61-.04,1.09,0,2.17.39,3.19.99.62.36,1.21.8,1.77,1.27.91.78,1.72,1.66,2.36,2.44-5.46,1.69-10.31,1.73-14.73.11ZM239.87,185.75c-.15-.07-.29-.14-.43-.21-.91-.47-1.59-.91-1.85-1.07-.03-.02-.05-.04-.07-.05h0s-.02-.02-.03-.02c.02.07.24.62.42,1.32.04.16.09.34.12.52.04.16.07.33.09.5.73-.39,1.48-.66,2.24-.76-.17-.07-.34-.15-.49-.23ZM239.87,185.75c-.15-.07-.29-.14-.43-.21-.91-.47-1.59-.91-1.85-1.07-.03-.02-.05-.04-.07-.05h0s-.02-.02-.03-.02c.02.07.24.62.42,1.32.04.16.09.34.12.52.04.16.07.33.09.5.73-.39,1.48-.66,2.24-.76-.17-.07-.34-.15-.49-.23ZM239.87,185.75c-.15-.07-.29-.14-.43-.21-.91-.47-1.59-.91-1.85-1.07-.03-.02-.05-.04-.07-.05h0s-.02-.02-.03-.02c.02.07.24.62.42,1.32.04.16.09.34.12.52.04.16.07.33.09.5.73-.39,1.48-.66,2.24-.76-.17-.07-.34-.15-.49-.23Z"/>
  <path class="cls-1" d="M268.4,224.48c-.56-.28-1.24-.19-1.73.22-.27.24-.55.48-.83.71-.91.76-1.84,1.5-2.79,2.21-2.41,1.79-4.92,3.38-7.53,4.74-2.69,1.42-5.49,2.61-8.39,3.57-2.67.88-5.41,1.58-8.24,2.07-1.88.33-3.79.57-5.74.73-1.23.1-2.47.16-3.73.19h0c-4.93.11-10.11-.29-15.52-1.21-1.08-.18-2.17-.38-3.26-.61-4.19-.86-8.52-2.01-12.98-3.46-1.38-.44-2.78-.92-4.18-1.43-.78-.28-1.56-.57-2.35-.87-.54-.2-1.15-.09-1.59.29-.43.38-.62.97-.49,1.53,2.32,9.7,8.12,17.62,16.79,22.89,6.82,4.16,14.97,6.37,23.29,6.37,1.26,0,2.54-.05,3.81-.16,15.64-1.27,34.54-11.54,36.34-36.29.04-.63-.29-1.23-.86-1.51h0ZM255.04,249.9c-5.82,5.27-13.77,8.56-22.38,9.26-8.96.72-17.91-1.32-25.21-5.76-7.06-4.31-12.04-10.51-14.56-18.07,20.88,7.44,39.19,8.66,54.74,3.69h0c.73-.23,1.45-.48,2.17-.74,0,0,.01,0,.02,0,5.67-2.06,10.98-4.98,15.88-8.75-1.32,8.23-4.97,15.22-10.66,20.38Z"/>
  <path class="cls-1" d="M197.59,233.52c-.59-1.27-1.69-3.24-1.61-4.69.21-3.51,6.36-2.54,8.68-2.4,2.64.17,7.16-.06,7.86,3.2.52,2.43-1.21,5.69-2.06,7.89-.76,1.98,2.41,2.83,3.16.88,1.38-3.58,3.73-8.61,1.02-12.17-2.36-3.12-7.71-3-11.17-3.14-3.81-.16-8.62-.46-10.33,3.71-1.14,2.77.44,5.86,1.61,8.38.89,1.91,3.72.25,2.83-1.66h0Z"/>
  <path class="cls-1" d="M203.62,225.48c2.01-2.06,4.16-4.51,6.57-6.11,2.76-1.84,3.71-.77,5.79.65,1.31.9,2.62,1.79,3.92,2.69,1.86,1.29,6.23,3.83,6.66,6.26.74,4.16-9.54,2.56-11.62,2.12-2.08-.44-2.94,2.73-.88,3.16,2.86.6,5.74.88,8.66.61,2.11-.2,4.91-.39,6.54-1.94,3.36-3.2-1.42-8.11-3.89-10.18-1.88-1.59-3.96-2.94-5.98-4.33-1.81-1.24-3.89-3.27-6.14-3.62-2.14-.33-3.84.99-5.39,2.27-2.31,1.9-4.48,3.98-6.57,6.11-1.48,1.51.84,3.83,2.32,2.32h0Z"/>
  <path class="cls-1" d="M223.16,220.64c1.34-3.59,7.16,2.26,8.67,3.72,1.51,1.46,3.05,3.83.6,5.44-1.49.99-3.5.86-5.2.81-2.11-.06-2.11,3.22,0,3.28,3.14.09,6.55-.22,8.64-2.86,2.09-2.64,1.34-5.63-.72-7.98-2.24-2.55-6.06-6-9.31-7.15-3.24-1.15-4.88,1.24-5.86,3.85-.74,1.98,2.43,2.84,3.16.88h0Z"/>
  <path class="cls-1" d="M227.74,218.59c4.69-2.24,12.72,4.91,13.6,9.34.66,3.3-1.86,5.7-4.37,7.28-1.12.7-2.84,1.9-4.21,1.79-2.02-.15-2.26-2.27-2.56-3.72-.44-2.06-3.61-1.19-3.16.88.88,4.11,3.35,7.17,7.91,5.71,4.12-1.32,8.6-4.71,9.61-9.09,1.9-8.26-10.83-18.66-18.46-15.02-1.91.91-.24,3.74,1.66,2.83h0Z"/>
  <path class="cls-1" d="M241.62,224.77c3.27-.11,7.56-.36,9.89,2.44,3.04,3.63-.68,7.27-4.04,8.54-1.96.74-1.11,3.91.88,3.16,4.72-1.79,8.82-5.74,7.12-11.19-1.83-5.87-8.73-6.39-13.85-6.23-2.11.07-2.11,3.35,0,3.28h0Z"/>
  <path class="cls-1" d="M255.2,226.15c1.14-1.63,2.45-3.15,4.65-2.61,2,.49,3.07,2.46,3.24,4.39.19,2.09,3.47,2.11,3.28,0-.3-3.39-2.16-6.64-5.65-7.55-3.72-.97-6.35,1.26-8.36,4.12-1.21,1.73,1.63,3.38,2.83,1.66Z"/>
  <path class="cls-1" d="M191.27,193.34c-.13.07-.26.13-.38.2-.25.13-.48.26-.71.39-1.43.79-2.53,1.55-3.38,2.28-2.12,1.82-2.66,3.5-2.48,5.32.02.26.06.53.11.79.09.47-.05.97-.38,1.33-.3.32-.72.51-1.16.51h-.12s-.12-.01-.27-.02h0c-1.28-.12-6.69-.68-12.64-2.23-9.25-2.43-15.01-5.98-17.14-10.57-.71-1.53-.83-3.1-.51-4.67.2-.98.57-1.96,1.09-2.93,3.57-6.82,13.96-13.27,19.44-16.31.84-.47,1.57-.86,2.14-1.16.02-.01.04-.02.05-.02.45-.24.79-.41,1.01-.52.48-.24,1.01-.21,1.44.03.28.14.51.38.66.67.04.09.08.18.11.27,0,.02,0,.05.01.07,0,.01,0,.03.01.04.02.09.03.18.03.27.01.59-.31,1.16-.86,1.44-.46.23-.97.49-1.53.79-5.68,3.04-15.93,9.47-19.43,15.27-.61.99-1.01,1.97-1.15,2.91-.14.88-.05,1.73.32,2.53,3.18,6.89,18.16,9.97,25.61,10.84.01-2.07.73-3.9,2.21-5.61.39-.47.86-.93,1.38-1.38-2.39.11-4.47.14-6.22.02-2.51-.16-4.37-.62-5.53-1.53-.37-.29-.67-.62-.9-1.01-.44-.76-.56-1.61-.34-2.55.16-.68.48-1.39.98-2.14.48-.72,1.45-.92,2.17-.44.72.48.92,1.45.44,2.17-.43.66-.54,1.06-.56,1.25-.01.07,0,.12,0,.14.36.62,1.99.91,4.12,1.01,3.54.17,8.51-.18,11.49-.39h.04c.06,0,.12,0,.19,0,.06,0,.12,0,.17.01.59.1,1.09.53,1.25,1.12.2.71-.12,1.47-.79,1.81h0Z"/>
  <path class="cls-1" d="M233.48,172.5c-.06-.04-.13-.08-.2-.11-.02,0-.04-.02-.06-.02-.44-.19-.96-.18-1.38.06-.5.28-.81.81-.81,1.38,0,.34,0,.68-.01.99-.07,3.22-.64,4.98-1.28,5.94-.18.27-.36.47-.53.63-.61.54-.69,1.46-.19,2.11.09.12.19.25.29.38.84,1.07,1.91,2.38,3.04,3.54.77.79,1.57,1.51,2.34,2.07.9.64,1.77,1.05,2.52,1.05.86,0,1.58-.38,2.04-1.05.38-.56.51-1.27.5-2.02,1.86.81,4.2,1.44,6.18.77.38-.12.74-.3,1.09-.53.62-.41.99-1.04,1.05-1.76.01-.07.01-.15.01-.22-.03-3.36-9.15-9.69-14.61-13.19ZM234.68,185.26c-.76-.77-1.59-1.71-2.39-2.7.96-1.41,1.55-3.38,1.77-5.94,3.54,2.38,6.47,4.62,8.39,6.34,1.12.99,1.9,1.79,2.27,2.35-1.72.39-4.74-1.12-6.21-2.11-.06-.03-.1-.07-.15-.1-.56-.39-1.32-.37-1.86.06-.39.31-.6.77-.59,1.25,0,.19.04.37.11.55.26.66.47,1.45.57,2.04-.51-.37-1.17-.98-1.91-1.74Z"/>
  <path class="cls-1" d="M178.02,165.2s-.03.02-.04.04c-.08.08-.16.15-.24.22-.12.11-.24.2-.37.29.27.14.51.38.66.67.04.09.08.18.11.27-.11-.48-.14-.98-.11-1.48ZM178.02,165.2s-.03.02-.04.04c-.08.08-.16.15-.24.22-.12.11-.24.2-.37.29.27.14.51.38.66.67.04.09.08.18.11.27-.11-.48-.14-.98-.11-1.48ZM178.02,165.2s-.03.02-.04.04c-.08.08-.16.15-.24.22-.12.11-.24.2-.37.29.27.14.51.38.66.67.04.09.08.18.11.27-.11-.48-.14-.98-.11-1.48ZM199.37,151.14c-.35-.12-.69-.24-1.05-.34-.55-.16-1.11-.28-1.68-.38-.57-.09-1.15-.16-1.73-.19.21.46.34.97.34,1.5-.53.43-2.44.99-3.74,1.36-2.27.66-4.85,1.41-6.84,2.73-2.66,1.77-4.44,4.11-5.88,5.99-1,1.32-2.04,2.68-2.74,2.85-.32.08-.72.09-1.15.04-.04.51-.05,1.02,0,1.53v.03c.04.41.1.81.19,1.21.03.12.06.25.1.37.14.53.34,1.01.59,1.46,2.64,4.91,10.54,6.07,17.41,6.07,4.05,0,7.74-.41,9.81-.68,1.54-.2,2.86-1,3.86-2.26.7-.88,1.25-2,1.59-3.29.17-.61.29-1.26.37-1.94.66-6.02-2.39-13.47-9.48-16.06h0ZM202.61,171.6c-8.27,1.11-22.54,1.38-24.38-4.56-.02-.08-.05-.16-.07-.24,0-.01,0-.03-.01-.04,0-.02-.01-.05-.01-.07-.11-.48-.14-.98-.11-1.48.12-2.33,1.57-4.92,4.14-7.18,2.94-2.61,7.34-4.7,11.76-4.7.52,0,1.04.03,1.55.09.71.08,1.43.23,2.12.44.24.07.47.14.7.23,2.31.84,4.07,2.35,5.31,4.18.61.89,1.09,1.87,1.44,2.88.67,1.89.89,3.89.69,5.74-.12,1.1-.44,2.27-.99,3.18,0,0-.01.01-.01.02-.02.05-.06.1-.09.14,0,.01-.02.03-.02.04-.49.72-1.16,1.24-2.01,1.36ZM190.03,152.27c.77-.09,1.36-.73,1.38-1.51,0-.12,0-.25.02-.36-.53.07-1.06.18-1.57.29h0c-.51.11-1.01.25-1.51.41,0,0,0,.02,0,.03.19.75.93,1.24,1.69,1.15ZM185.32,153.58c.67-.31,1.03-1.02.89-1.73-.94.4-1.84.85-2.69,1.35.44.5,1.18.66,1.8.38ZM180.58,157.1c.56-.52.66-1.37.24-2.01,0,0-.01-.02-.01-.02-.25.2-.49.41-.72.61-.55.49-1.06.99-1.52,1.51.6.46,1.45.43,2.01-.09ZM176.46,160.39c.04-.15.06-.3.06-.44-.24.43-.46.85-.65,1.27.27-.2.49-.49.59-.83ZM178.02,165.2s-.03.02-.04.04c-.08.08-.16.15-.24.22-.12.11-.24.2-.37.29.27.14.51.38.66.67.04.09.08.18.11.27-.11-.48-.14-.98-.11-1.48ZM178.02,165.2s-.03.02-.04.04c-.08.08-.16.15-.24.22-.12.11-.24.2-.37.29.27.14.51.38.66.67.04.09.08.18.11.27-.11-.48-.14-.98-.11-1.48ZM178.02,165.2s-.03.02-.04.04c-.08.08-.16.15-.24.22-.12.11-.24.2-.37.29.27.14.51.38.66.67.04.09.08.18.11.27-.11-.48-.14-.98-.11-1.48ZM178.02,165.2s-.03.02-.04.04c-.08.08-.16.15-.24.22-.12.11-.24.2-.37.29.27.14.51.38.66.67.04.09.08.18.11.27-.11-.48-.14-.98-.11-1.48Z"/>
  <path class="cls-1" d="M189.95,163.71c-.74,0-1.49-.12-2.26-.38-.82-.27-1.26-1.16-.99-1.97.27-.82,1.16-1.26,1.98-.99,1.21.4,2.29.25,3.41-.48.73-.47,1.69-.26,2.16.47.47.72.26,1.69-.47,2.16-1.23.79-2.51,1.19-3.83,1.19Z"/>
  <path class="cls-1" d="M201.37,162.47c-.55,0-1.14-.06-1.76-.18-.85-.16-1.41-.98-1.24-1.83.16-.85.99-1.41,1.82-1.24,2.11.4,2.64-.27,2.85-.53.54-.68,1.52-.79,2.19-.26.68.54.79,1.52.26,2.19-.96,1.22-2.34,1.84-4.12,1.84Z"/>
  <path class="cls-1" d="M197.96,169.76c-1.3,0-2.63-.24-3.98-.73-.81-.29-1.23-1.19-.94-2,.29-.81,1.19-1.23,2-.94,2.57.93,4.94.66,7.23-.81.72-.47,1.69-.26,2.16.47.47.73.26,1.69-.47,2.16-1.91,1.23-3.92,1.84-5.99,1.84h0Z"/>
  <path class="cls-1" d="M232.6,175.35c-.22,0-.46-.05-.68-.16-7.82-3.78-18.31-3.54-25.72-2.68-.86.1-1.63-.51-1.73-1.38-.1-.86.51-1.63,1.38-1.73,7.83-.91,18.94-1.13,27.44,2.98.77.38,1.1,1.31.73,2.09-.27.56-.83.88-1.41.88h0Z"/>
  <path class="cls-1" d="M208.95,201.38c-.86,0-1.56-.7-1.56-1.56v-14.67c0-.86.7-1.56,1.56-1.56,6.53,0,10.94-1.18,14.16-2.02,3.18-.84,5.47-1.46,7.77-.48.79.34,1.17,1.25.83,2.05-.34.79-1.25,1.17-2.05.83-1.32-.56-3.08-.09-5.75.62-3.12.83-7.31,1.94-13.39,2.11v13.12c0,.86-.7,1.56-1.56,1.56h0Z"/>
  <path class="cls-1" d="M202.02,200.47c-.11.43-.36.82-.73,1.15-.34.32-.79.56-1.29.73.28.36.46.74.51,1.13.11.81-.13,1.97-1.98,2.9-1.18.6-2.6.83-4.1.83-4.8,0-10.47-2.4-11.95-3.07h0c-.11-.05-.2-.09-.26-.12-.78-.36-1.12-1.29-.76-2.07.36-.78,1.29-1.12,2.07-.76.24.11.5.22.77.34,3.67,1.58,9.59,3.31,12.48,2.21-1-.48-2.79-1.05-4.69-1.48-.51-.09-.97-.19-1.34-.27-.83-.19-1.36-1.01-1.19-1.84.18-.83.98-1.38,1.82-1.22.49.09.96.19,1.41.29,1.96.34,3.88.49,5.12.41-.71-.34-1.64-.71-2.61-1.03-.03-.01-.06-.02-.09-.02-.38-.13-.76-.24-1.13-.35-.72-.2-1.2-.89-1.14-1.64.07-.75.66-1.35,1.41-1.43.04,0,.08,0,.13-.02h0c.45-.07,1.31-.29,1.89-.74-1.12-.37-3.31-.72-5.49-.85-.14-.01-.27-.02-.41-.03-.86-.04-1.52-.77-1.48-1.64.04-.79.66-1.4,1.41-1.47.07,0,.16-.01.23,0,.06,0,.12,0,.17.01,3.44.17,7.69.76,8.79,2.53.39.62.45,1.38.16,2.07-.23.53-.54.98-.89,1.34-.05.06-.1.11-.16.16,1.96.88,3.08,1.85,3.33,2.89.09.36.08.72-.01,1.06h0Z"/>
  <path class="cls-1" d="M198.32,150.8c-.27-1.91-1.39-3.7-3.07-4.81-1.52-1-3.17-1.18-4.51-.48-.36.19-.76.48-1.11.89-.84-1.19-1.84-2.01-2.9-2.29-1.09-.29-2.16-.02-2.94.76-.5.5-.98,1.31-1.16,2.6-2.23-1.75-4.16-1.74-5.38-.94-1.29.85-1.96,2.68-1.34,5.29-2.66-1.28-4.94-1.58-6.54-.8-1.14.55-1.81,1.59-1.82,2.86-.02,1.43.79,2.96,2.26,4.4-2.27.2-3.62.83-4.22,1.91-.32.57-.68,1.76.46,3.25,1.23,1.59,4,3.23,6.67,3.98.86.24,1.7.39,2.48.42.1,0,.21,0,.31,0,.46,0,.91-.04,1.3-.14.49-.12.95-.34,1.38-.62.01,0,.02-.02.04-.03,1.1-.75,2.04-1.98,3.07-3.34,1.36-1.78,2.89-3.8,5.11-5.27,1.59-1.05,3.93-1.73,5.99-2.33,2.25-.66,4.17-1.22,5.2-2.26.45-.45.72-1,.77-1.69.03-.46.02-.91-.05-1.36ZM168.6,161.65c.62-.21,2.26-.51,6.22-.14.38.04.76-.07,1.06-.29.28-.2.49-.49.59-.83.04-.15.06-.3.06-.44,0-.57-.33-1.11-.85-1.38-4.23-2.16-5.12-4.32-5-4.69.35-.34,3.09-.4,7.89,3.32h0c.6.46,1.45.43,2.01-.09.56-.52.66-1.37.24-2.01,0,0-.01-.02-.01-.03-2.41-3.69-2.12-5.71-1.83-5.93.3-.16,2.09.38,4.4,3.87.04.07.09.13.14.19.44.5,1.17.66,1.8.38.67-.31,1.03-1.02.89-1.73,0-.03-.01-.06-.02-.1-.8-2.97-.44-4.29-.24-4.61.42.14,1.65,1.19,2.38,3.95,0,0,0,.02,0,.03.19.75.93,1.24,1.69,1.15.77-.09,1.36-.73,1.38-1.51,0-.12,0-.25.02-.36.09-1.29.44-1.93.76-2.1.29-.15.82-.03,1.34.32.53.34,1.06.92,1.39,1.63.21.46.34.97.34,1.5-.53.43-2.44.99-3.74,1.36-2.28.66-4.85,1.41-6.84,2.73-2.66,1.77-4.44,4.11-5.88,5.99-1,1.32-2.04,2.68-2.74,2.85-.32.08-.72.09-1.15.04-2.21-.24-5.45-1.94-6.32-3.05Z"/>
  <path class="cls-1" d="M171.79,272.32c0,.52-.08,1.09-.26,1.71-.12.41-.28.85-.49,1.32-4.19,9.54-25.59,30.33-41.83,38.48-.01.01-.03.02-.04.02-1.55.77-3.05,1.49-4.52,2.14-11.86,5.32-21.5,6.97-33.82,6.97-5.26,0-10.99-.3-17.61-.74-19.71-1.32-32.99-7.25-38.39-17.12-1.77-3.24-2.72-6.89-2.84-10.94-.03-1.04,0-2.11.08-3.19.47-6.74,3.02-14.46,7.63-23.12.22-.43.46-.86.7-1.29.41-.74,1.31-1.02,2.06-.65h0s.04.02.06.03c.06.04.12.08.18.12,0,0,.01.01.02.02.6.46.79,1.3.41,1.99-.27.49-.53.97-.79,1.45-3.58,6.76-5.84,12.88-6.76,18.3-.19,1.09-.32,2.16-.4,3.19-.02.24-.03.48-.04.72-.06,1.11-.06,2.18.01,3.22.21,3.21,1.01,6.1,2.42,8.68.92,1.68,2.07,3.19,3.43,4.54,1.09,1.1,2.31,2.09,3.63,2.99,7.89,5.37,19.35,7.34,28.79,7.98,19.79,1.33,31.59,1.34,45.99-4.3,1.59-.62,3.22-1.32,4.89-2.09,1.13-.52,2.28-1.07,3.46-1.66,8.32-4.17,18.85-12.23,28.16-21.56,8.23-8.24,11.64-13.6,12.52-16,.11-.3.18-.56.22-.76.04-.24.04-.42,0-.54-.03-.04-.04-.07-.06-.11-4.01-8.46-11.07-10.29-21.55-5.58-.22.1-.44.2-.67.31-.79.37-1.71.03-2.08-.75-.13-.29-.18-.59-.13-.88.02-.07.03-.14.05-.21.11-.42.41-.78.83-.98.9-.42,1.83-.82,2.78-1.19h0c8.2-3.15,18.06-3.64,23.56,7.89.26.47.39,1.02.4,1.63Z"/>
  <path class="cls-1" d="M148.44,257.8c-.01.19-.02.39-.04.59-.09,1.38-.29,2.86-.57,4.41h0c-.21,1.21-.47,2.45-.78,3.71-1.88,7.74-5.33,15.91-8.73,18.45-2.62,1.96-13.51,5.45-26.35,6.61-2.73.25-5.76.41-8.98.41-10.83,0-23.96-1.83-36.06-8.44-12.42-6.78-19.99-11.2-24.58-14.03-1.03-.63-1.91-1.18-2.65-1.66-3.34-2.15-4.17-2.91-4.32-3.06-.59-.6-.61-1.55-.04-2.16,8.08-8.7,13.21-22.39,17.76-36.52.32-.99.64-1.98.95-2.97.52-1.64,1.04-3.28,1.55-4.91,6.47-20.66,12.61-40.19,26.08-45.56.29-.12.59-.23.89-.34.28-.1.59-.11.88-.04l1.39.34,40.69,10.12.53.13c.84.21,1.35,1.06,1.14,1.89-.19.74-.87,1.23-1.59,1.18-.02,0-.04,0-.06,0-.08,0-.16-.02-.24-.04,0,0-.01,0-.02,0l-42.14-10.47c-12.31,4.62-18.28,23.62-24.58,43.73-.51,1.61-1.01,3.23-1.53,4.84-.31.99-.63,1.98-.95,2.98-4.46,13.83-9.48,27.31-17.34,36.5.74.52,1.89,1.3,3.69,2.43h0c.08.05.16.1.24.15,0,0,.01.01.02.02,4.28,2.67,11.99,7.23,25.71,14.72,28.4,15.53,64.27,4.48,68.02,1.66,2.7-2.02,5.99-9.79,7.72-17.27.02-.07.03-.14.05-.21.58-2.57.98-5.09,1.11-7.34,0-.07.01-.14.03-.21.14-.76.82-1.31,1.62-1.27.86.05,1.52.79,1.47,1.65Z"/>
  <path class="cls-1" d="M181.75,244.45c-3.33,4.52-8.74,8.22-14.52,10.71-1.69.73-3.41,1.36-5.12,1.87-3.58,1.08-7.11,1.66-10.18,1.66-1.26,0-2.45-.1-3.53-.3-.74-.14-1.43-.33-2.07-.56-.33-.12-.65-.26-.98-.41-3.37-1.52-6.96-4.45-10.41-7.91-1.39-1.4-2.76-2.88-4.07-4.4-7.36-8.43-13.27-17.83-13.68-18.48-.46-.73-.24-1.69.49-2.16.73-.46,1.69-.23,2.16.5.11.18,8.04,12.77,16.71,21.73,1.68,1.73,3.38,3.33,5.06,4.67,2,1.6,3.97,2.84,5.81,3.53,2.09.78,5.02.87,8.3.38,2.01-.3,4.16-.82,6.32-1.52,6.69-2.19,13.54-6.19,17.19-11.15,3.42-4.65,3.43-9.31.02-13.84-3.97-2.33-9.67-1.73-16.96,1.78-.05.03-.11.05-.16.08-.78.38-1.71.05-2.09-.73-.38-.77-.05-1.71.72-2.09.1-.05.2-.1.3-.14,5.5-2.64,10.3-3.75,14.34-3.33,1.43.14,2.77.49,4.01,1.02.6.26,1.18.56,1.73.91.16.09.29.22.41.36,4.41,5.68,4.48,12.01.2,17.83Z"/>
  <path class="cls-1" d="M162.61,236.94c-.61,0-1.2-.37-1.44-.97-9.29-22.65-21.73-48.81-35.6-50.03-.71-.06-1.29-.6-1.41-1.31-.11-.71.26-1.4.92-1.68,6.88-2.99,8.29-10.27,7.41-15.6-.84-5.07-4.12-10.4-9.54-10.84-.79-.06-1.42-.72-1.44-1.52-.06-2.44-.34-3.51-.52-3.94-.5.33-1.62,1.39-3.87,4.77-.41.61-1.19.86-1.87.59-.69-.27-1.09-.97-.98-1.71.94-5.84.36-7.35.18-7.66-.34.06-1.74.53-5.16,4.39-.43.48-1.1.65-1.7.43-.6-.22-1.01-.78-1.03-1.43-.09-3.02-.41-4.32-.62-4.86-.77.62-2.28,2.66-5.26,8.24-.41.76-1.36,1.05-2.11.64-.76-.41-1.05-1.35-.64-2.11,3.88-7.29,6.19-10.64,8.81-10.04,1.43.34,2.27,1.69,2.68,4.48,2.76-2.61,4.74-3.39,6.39-2.61,1.45.69,2.14,2.38,2.12,5.42,1.4-1.46,2.68-2.09,3.99-1.71,1.94.56,2.5,3.04,2.66,5.7,5.51,1.14,9.84,6.28,10.99,13.24.96,5.81-.56,12.74-5.75,16.88,13.65,4.94,24.91,28.31,34.23,51.06.32.8-.06,1.71-.86,2.04-.19.08-.39.12-.59.12h.02Z"/>
  <path class="cls-1" d="M126.33,166.33c-.54,0-1.11-.1-1.72-.29-.82-.26-1.27-1.14-1.01-1.96.26-.82,1.15-1.27,1.96-1.01.57.18.9.17,1.02.1.09-.06.24-.28.35-.73.2-.84,1.04-1.36,1.88-1.16.84.2,1.36,1.04,1.16,1.88-.31,1.29-.93,2.21-1.86,2.73-.53.3-1.13.45-1.79.45Z"/>
  <path class="cls-1" d="M129.91,177.52c-1.26,0-2.58-.34-4.18-.91-.81-.29-1.24-1.18-.96-1.99.29-.81,1.17-1.24,1.99-.96,3.08,1.07,4.06,1,6.14-.5.7-.51,1.67-.35,2.18.35.51.7.35,1.68-.35,2.18-1.79,1.29-3.26,1.82-4.81,1.82h0Z"/>
  <path class="cls-1" d="M117.86,175.8c-3.06,0-5.16-1.48-5.81-3.37-.76-2.19.21-5.48,5.43-7.59.8-.32,1.71.06,2.03.86.32.8-.06,1.71-.86,2.03-2.83,1.14-3.98,2.71-3.64,3.67.31.91,2.13,1.79,5.19.91.82-.24,1.69.24,1.94,1.06.24.83-.24,1.69-1.06,1.94-1.16.34-2.23.49-3.21.49h0Z"/>
  <path class="cls-1" d="M110.51,162.91c-.68-.53-1.66-.41-2.19.27-1.79,2.31-5.23,5.44-6.91,4.84-.03,0-.04-.01-.06-.03.1-.75,1.53-2.66,3.09-4.08,0,0,0,0,0,0,.64-.58.68-1.57.1-2.21-.31-.34-.72-.51-1.15-.51-.38,0-.76.13-1.06.41-2.01,1.82-5.49,4.04-6.95,3.59.21-.74,1.51-2.4,2.88-3.63.64-.57.7-1.56.12-2.21-.58-.64-1.56-.7-2.21-.12-1.32,1.18-4.34,4.19-3.91,6.67.17.99.84,1.76,1.86,2.17,1.26.5,2.69.32,4.09-.18-.03.28-.01.56.04.83.12.61.56,1.71,2.09,2.25.21.07.68.2,1.36.2,1.78,0,5.05-.9,9.07-6.07.52-.68.41-1.66-.27-2.19Z"/>
  <path class="cls-1" d="M178.19,228.11c-.66,0-1.27-.42-1.49-1.08-1.24-3.81-6.96-10.64-10.89-12.14-.71-.27-1.28-.32-1.58-.14-1.61.94-.51,3.01-.28,3.41.43.74.18,1.7-.56,2.14-.74.44-1.69.19-2.13-.54-.15-.25-1.44-2.52-.85-4.82.31-1.2,1.08-2.19,2.24-2.88,1.17-.69,2.61-.71,4.27-.08,4.94,1.88,11.25,9.45,12.76,14.1.27.82-.18,1.7-1.01,1.97-.16.05-.32.08-.48.08h0Z"/>
  <path class="cls-1" d="M155.57,220.77c-.65,0-1.25-.41-1.48-1.05-.76-2.2-1.56-5.31.3-6.86,1.99-1.66,5.33-.13,8.02,1.38.75.43,1.02,1.38.59,2.13-.43.75-1.38,1.02-2.13.59-3.06-1.72-4.19-1.73-4.46-1.69-.06.23-.18,1.09.62,3.42.28.81-.15,1.71-.96,1.99-.17.06-.34.09-.51.09h0Z"/>
  <path class="cls-1" d="M83.08,175.35c-.08,0-.16,0-.24-.02-.85-.13-1.44-.93-1.3-1.79,1.72-11.07,3.76-18.08,17.32-21.96.83-.24,1.69.24,1.93,1.07.24.83-.24,1.69-1.07,1.93-12.06,3.45-13.48,9.04-15.09,19.44-.12.77-.79,1.32-1.54,1.32h0Z"/>
  <path class="cls-1" d="M87.62,161.23c-.17,0-.34-.02-.51-.09-3.11-1.08-3.76-2.86-3.87-3.82-.15-1.32.51-2.58,1.77-3.37,1.58-.99,4.38-1.34,7.51.64.73.46.94,1.43.48,2.16-.46.73-1.43.94-2.16.48-1.78-1.13-3.39-1.13-4.18-.64-.22.14-.33.29-.32.37.02.16.39.73,1.79,1.22.81.28,1.25,1.18.96,1.99-.23.64-.83,1.05-1.48,1.05h0Z"/>
  <path class="cls-1" d="M54.68,296.17v.25c0,.98-.04,2.06-.16,3.18-.31,3.09-1.2,6.46-3.66,8.77-1.6,1.5-3.66,2.42-6.23,2.77-.81.11-1.67.17-2.58.17-.52,0-1.05-.02-1.6-.05-.86-.06-1.51-.8-1.46-1.66.06-.86.78-1.51,1.66-1.46.12,0,.24.01.35.01,3.53.18,6.06-.49,7.72-2.06,1.56-1.46,2.44-3.79,2.72-7.23.04-.51.08-1.06.09-1.62-2.08-.79-6.99-2.67-11.15-4.26-2.06-.79-3.94-1.5-5.21-1.99-.79-.29-1.34-.5-1.55-.58-.81-.29-1.22-1.19-.93-2,.3-.81,1.19-1.23,2.01-.93.15.06.45.17.88.32,3.81,1.44,17.45,6.66,18.09,6.91.61.23,1.01.81,1.01,1.46Z"/>
  <path class="cls-1" d="M95.14,302.96c-.24-.41-.66-.69-1.13-.76l-21.61-2.99c-.67-.09-1.32.26-1.62.87-.03.06-.05.11-.07.16-.49,1.03-.89,2.01-1.21,2.92-2.27,6.52-.59,10.43.75,12.29,1.73,2.39,4.57,3.74,7.79,3.74.51,0,1.03-.04,1.55-.11,6.01-.78,10.62-5.32,13.54-10.35.55-.94,1.04-1.91,1.47-2.86.23-.53.45-1.05.65-1.57.17-.44.13-.94-.11-1.35ZM91.5,305.15c-.48,1.03-.99,1.98-1.54,2.84-3.25,5.21-7.47,7.57-10.78,7.99-2.72.36-5.05-.51-6.39-2.36-1.61-2.24-1.68-5.7-.22-9.73.17-.47.36-.94.56-1.42l16.92,2.34,1.52.21s-.04.09-.06.13Z"/>
  <path class="cls-1" d="M152.44,348.45c-3.61,0-6.53-.43-7.99-1.39-2.72-1.78-4.05-5.31-3.94-10.48.07-3.59.84-6.69.88-6.82.12-.5.49-.91.96-1.09.48-.18,1.02-.11,1.44.18,4.21,2.92,9.28,2.9,15.94-.06.2-.09.42-.14.63-.14,2.16,0,21.12.23,23.49,7.91.38,1.22.29,3.09-2.24,5-5.18,3.89-19.6,6.88-29.17,6.88h0ZM144,332.59c-.61,3.8-.86,9.88,2.16,11.85,3.83,2.51,27.24-.62,33.57-5.38.39-.3,1.3-1.05,1.13-1.59-1.26-4.09-12.9-5.66-20.18-5.71-6.56,2.84-12.04,3.12-16.69.82h0Z"/>
  <path class="cls-1" d="M142.9,331.69c-.13,0-.26-.02-.4-.05-.84-.22-1.33-1.08-1.11-1.91l2.88-10.99c.22-.84,1.07-1.33,1.91-1.11.84.22,1.33,1.07,1.11,1.91l-2.88,10.99c-.18.7-.82,1.17-1.51,1.17h0Z"/>
  <path class="cls-1" d="M124.41,345.13c-3.19,0-6-.41-7.62-1.54-5.88-4.1.66-17.51,1.42-19.02.22-.44.65-.76,1.14-.84.5-.08.99.08,1.35.43,2.73,2.71,11.86,2.83,16.98,1.01l2.49-7.44c.27-.82,1.16-1.26,1.98-.99.82.27,1.26,1.16.99,1.98l-2.73,8.14c-.14.42-.46.77-.88.94-2.77,1.15-6.94,1.79-10.9,1.7-2.16-.06-5.76-.39-8.42-1.87-1.96,4.46-4.18,11.62-1.64,13.39,3.18,2.21,15.87.31,23.12-1.41.84-.2,1.68.32,1.88,1.16s-.32,1.68-1.16,1.88c-1.43.34-10.7,2.47-18.01,2.47h0Z"/>
  <path class="cls-1" d="M160.36,331.77c-.1,0-.21-.01-.31-.03-.84-.17-1.39-.99-1.23-1.84l1.19-6.02c.17-.84.99-1.39,1.84-1.23.84.17,1.39.99,1.23,1.84l-1.19,6.02c-.15.74-.8,1.26-1.53,1.26h0Z"/>
  <path class="cls-1" d="M119.61,326.83c-.18,0-.37-.03-.55-.1-.81-.31-1.21-1.21-.91-2.01l3.47-9.2c.31-.81,1.2-1.22,2.01-.91.81.31,1.21,1.21.91,2.01l-3.47,9.2c-.24.62-.83,1.01-1.46,1.01Z"/>
  <path class="cls-1" d="M143.4,329.11c-.13,0-.26-.02-.4-.05l-4.46-1.18c-.84-.22-1.33-1.07-1.11-1.91.22-.84,1.07-1.33,1.91-1.11l4.46,1.18c.84.22,1.33,1.07,1.11,1.91-.19.7-.82,1.17-1.51,1.17h0Z"/>
  <path class="cls-1" d="M47.73,246.87c-.12,0-.23-.01-.35-.04l-28.89-6.66c-.84-.19-1.36-1.03-1.17-1.88.19-.84,1.03-1.36,1.88-1.17l28.89,6.66c.84.19,1.36,1.03,1.18,1.88-.17.73-.81,1.21-1.52,1.21h0Z"/>
  <path class="cls-1" d="M196.11,57.19c-6.22-8.25-15.55-14.15-26.96-17.07-21.68-5.54-39.76,4.76-47.21,26.9-3.11,9.23-1.79,19.67,3.61,28.66,1.13,1.88,2.41,3.65,3.81,5.3,2.48,2.88,5.34,5.39,8.51,7.44,4.61,3.01,9.87,5.06,15.48,5.99,2.68.44,5.38.66,8.07.66,10.58,0,21.08-3.32,29.18-9.44,7.48-5.63,12.1-13.12,13.03-21.1,1.12-9.71-1.54-19.42-7.52-27.33ZM200.53,84.17c-.82,7.11-5.02,13.84-11.81,18.96-9.51,7.16-22.54,10.22-34.87,8.19-4.81-.8-9.33-2.49-13.36-4.94-1.02-.63-2.02-1.3-2.97-2.02-.52.32-.98.69-1.37,1.11-.74-1.34-1.69-2.34-2.83-2.99-.09-.05-.18-.1-.27-.14.38-.28.73-.57,1.06-.89-.75-.72-1.47-1.48-2.16-2.27-1.38-1.58-2.63-3.29-3.73-5.11-4.93-8.19-6.14-17.69-3.32-26.05,3.22-9.56,8.69-16.98,15.81-21.47,5.04-3.18,10.86-4.78,17.17-4.78,3.37,0,6.89.46,10.5,1.38,10.71,2.74,19.44,8.25,25.24,15.93,5.49,7.27,7.94,16.18,6.91,25.09Z"/>
  <path class="cls-1" d="M196.06,76.27c.07.86-.58,1.61-1.44,1.67-.88.06-1.76.12-2.62.17-1.11.07-2.21.12-3.28.16-.03-.1-.06-.2-.09-.3-.06.11-.13.21-.21.31-1.09.04-2.16.06-3.21.08-.34,0-.69,0-1.02.01h-.65c-.49,0-.98,0-1.46-.01-4.26-.05-8.26-.33-12.04-.84-1.04-.14-2.07-.3-3.09-.48-6.49-1.14-12.31-3.03-17.69-5.75-.98-.49-1.93-1.01-2.88-1.55-4.49-2.59-8.7-5.79-12.75-9.66-.62-.59-.65-1.58-.05-2.21.59-.62,1.58-.65,2.21-.06,3.61,3.44,7.34,6.33,11.32,8.71.93.56,1.88,1.08,2.83,1.58,5.32,2.77,11.09,4.7,17.57,5.84,1.01.18,2.04.34,3.09.48,3.66.49,7.54.76,11.69.8,1.03.01,2.07.01,3.14,0,.36,0,.73-.01,1.1-.02,1.51-.04,3.04-.1,4.62-.18,1.06-.06,2.14-.13,3.24-.21.84-.08,1.61.58,1.67,1.44Z"/>
  <path class="cls-1" d="M176.76,95.31c-16.48,0-33.71-6.33-46.84-17.74-.65-.57-.72-1.56-.16-2.21.56-.65,1.56-.72,2.21-.16,16.48,14.33,39.67,20.29,59.07,15.19.83-.22,1.69.28,1.91,1.11.22.83-.28,1.69-1.11,1.91-4.86,1.27-9.93,1.89-15.08,1.89h0Z"/>
  <path class="cls-1" d="M148.13,98.1c-.69,0-1.32-.46-1.51-1.16-3.7-13.72-1.51-29.32,6.89-49.09.34-.79,1.26-1.16,2.05-.82.79.34,1.16,1.26.82,2.05-8.11,19.1-10.26,34.05-6.75,47.06.22.83-.27,1.69-1.1,1.91-.14.04-.27.06-.41.06h0Z"/>
  <path class="cls-1" d="M161.2,102.78c-.21,0-.42-.04-.62-.13-.79-.34-1.15-1.27-.8-2.06,5.86-13.34,9.12-29.11,9.99-48.19.04-.86.78-1.52,1.63-1.49.86.04,1.53.77,1.49,1.63-.89,19.48-4.24,35.61-10.25,49.31-.26.59-.83.94-1.43.94h0Z"/>
  <path class="cls-1" d="M185.43,75.24c-.04.67-.07,1.34-.12,2.01-.02.38-.06.75-.09,1.12-.09,1.14-.21,2.26-.35,3.36-.44.27-.89.51-1.38.73.41.24.8.51,1.18.79-.18,1.22-.38,2.43-.61,3.61-.32,1.7-.71,3.37-1.15,5.01-.29,1.09-.61,2.16-.95,3.23-.84,2.62-1.83,5.17-2.97,7.64-.26.57-.83.91-1.42.91-.22,0-.44-.05-.66-.14-.78-.36-1.12-1.29-.76-2.07.93-2,1.74-4.05,2.45-6.16.36-1.04.69-2.09.99-3.16.68-2.38,1.24-4.82,1.67-7.34.29-1.66.52-3.34.69-5.06.05-.45.09-.9.13-1.35.09-1.03.16-2.07.21-3.12.28-5.41.06-11.13-.64-17.21-.1-.86.52-1.64,1.38-1.73.86-.11,1.63.51,1.73,1.38.71,6.19.93,12.02.67,17.56Z"/>
  <path class="cls-1" d="M169.25,1.58c-.12,6.34-2.14,12.46-2.99,18.71-.97,7.01.36,14.11-.52,21.15-.26,2.09,3.03,2.07,3.28,0,.91-7.31-.53-14.72.66-21.98.98-5.95,2.74-11.81,2.86-17.87.04-2.11-3.24-2.11-3.28,0h0Z"/>
  <path class="cls-1" d="M191.45,48.08c-.18,0-.37-.03-.55-.1-.81-.31-1.21-1.21-.91-2.01l3.53-9.35c.31-.81,1.21-1.21,2.01-.91.81.31,1.21,1.21.91,2.01l-3.53,9.35c-.24.62-.83,1.01-1.46,1.01Z"/>
  <path class="cls-1" d="M194.98,51.1c-.52,0-1.04-.26-1.33-.74-.45-.74-.22-1.7.52-2.15l7.24-4.43c.74-.45,1.7-.22,2.15.52.45.74.22,1.7-.52,2.15l-7.24,4.43c-.26.16-.54.23-.81.23h0Z"/>
  <path class="cls-1" d="M117.83,65.02h-.13l-10.94-.89c-.86-.07-1.5-.82-1.43-1.69.07-.86.82-1.49,1.69-1.43l10.94.89c.86.07,1.5.83,1.43,1.69-.07.82-.75,1.44-1.56,1.44h0Z"/>
  <path class="cls-1" d="M119.24,58.32c-.29,0-.58-.08-.84-.25l-5.81-3.75c-.73-.47-.93-1.44-.46-2.16.47-.73,1.44-.93,2.16-.46l5.81,3.75c.73.47.93,1.44.46,2.16-.3.46-.8.71-1.31.71h0Z"/>
  <path class="cls-1" d="M109.89,71.55c-.69,0-1.32-.46-1.51-1.16-.22-.83.27-1.69,1.11-1.91l7.94-2.1c.83-.22,1.69.28,1.91,1.11.23.84-.27,1.69-1.11,1.91l-7.94,2.1c-.13.04-.27.05-.4.05Z"/>
  <path class="cls-1" d="M204.26,114.42c-.25,0-.51-.06-.74-.19l-9.76-5.29c-.76-.41-1.04-1.36-.63-2.12.41-.76,1.36-1.04,2.12-.63l9.76,5.29c.76.41,1.04,1.36.63,2.12-.28.52-.82.82-1.38.82Z"/>
  <path class="cls-1" d="M193.21,118.2c-.56,0-1.1-.3-1.38-.83l-2.65-5c-.41-.76-.11-1.71.65-2.11.76-.4,1.71-.11,2.11.65l2.65,5c.41.76.11,1.71-.65,2.11-.23.12-.48.18-.73.18Z"/>
  <path class="cls-1" d="M145.19,102.54c-4.96-1.37-7.09-4.45-6.89-10,.03-.84-.62-1.56-1.46-1.61-.84-.05-1.58.57-1.66,1.41-.27,2.83-1.33,5.09-3.23,6.84-.74.67-1.6,1.27-2.59,1.8-.82.44-1.74.82-2.74,1.15-.81.26-1.26,1.14-1,1.96.26.81,1.13,1.27,1.95,1.02,1.74-.54,3.16-.51,4.2.09,1.22.7,2.12,2.25,2.69,4.61.18.71.8,1.19,1.52,1.19h.09c.76-.04,1.37-.62,1.46-1.37.03-.27.09-.71.34-1.21.35-.68,1.07-1.46,2.62-2.03,1.04-.39,2.45-.68,4.37-.77.76-.04,1.39-.63,1.47-1.39.08-.76-.4-1.47-1.14-1.67ZM136.15,105.47c-.74-1.34-1.69-2.34-2.83-2.99-.09-.05-.18-.1-.27-.14.38-.28.73-.57,1.06-.89.82-.75,1.52-1.58,2.1-2.49.75,1.78,1.91,3.25,3.46,4.4-.81.27-1.52.61-2.14,1-.52.32-.98.69-1.37,1.11Z"/>
  <path class="cls-1" d="M197.07,80.98c-.19-.83-1.02-1.36-1.86-1.18-1.41.31-1.98-.07-2.16-.19-.43-.29-.77-.82-1.06-1.49-.36-.84-.63-1.91-.86-3.08-.18-.92-.33-1.89-.49-2.86l-.12-.79c-.12-.78-.81-1.35-1.59-1.32-.79.03-1.43.62-1.51,1.41-.14,1.41-.44,2.66-.91,3.74-.32.76-.73,1.43-1.23,2.03-.34.42-.69.78-1.11,1.13h-.01c-.64.53-1.39.98-2.23,1.34-1.19.51-2.58.86-4.17,1.04-.81.09-1.41.8-1.38,1.62.03.82.69,1.47,1.51,1.49,1.21.04,2.33.38,3.35.91,1.06.54,2.01,1.29,2.79,2.09.98.97,1.72,2.04,2.16,2.93.27.54.82.87,1.4.87.16,0,.32-.03.48-.08.74-.24,1.19-.97,1.06-1.74-.36-2.28,3.42-5.21,6.76-6.01.84-.19,1.36-1.03,1.16-1.87ZM186.96,85.4c-.68-.78-1.44-1.5-2.3-2.14-.38-.28-.77-.55-1.18-.79.49-.22.94-.46,1.38-.73,1.47-.89,2.66-2.04,3.56-3.44.07-.1.14-.21.21-.31.03.1.06.2.09.3.46,1.42,1.07,2.62,2.02,3.47-1.53.97-2.91,2.23-3.78,3.65Z"/>
</svg>