<svg width="492" height="466" viewBox="0 0 492 466" fill="none" xmlns="http://www.w3.org/2000/svg">
<path d="M278.793 132.539C269.999 125.904 260.815 119.57 252.656 112.142C244.907 105.083 238.948 96.7123 233.495 87.8221C228.131 79.0755 223.505 69.6523 217.375 61.3976C213.658 56.3956 209.223 53.553 203.36 51.5235C197.668 49.5623 191.914 47.7651 186.195 45.8928C176.765 42.7973 174.967 55.6645 172.002 61.3908C166.733 71.5656 158.752 79.2258 150.689 87.1593C138.73 95.8991 124.893 102.411 111.855 109.156C94.4502 118.155 76.581 126.246 57.1607 129.663C53.5185 130.305 50.8877 134.412 50.8877 137.897C50.8877 141.71 53.5527 145.044 57.1607 146.131C85.9359 154.809 111.171 171.612 138.45 183.776C141.826 185.279 145.277 187.104 148.891 187.924C153.559 188.983 158.041 188.04 162.374 186.249C169.576 183.27 176.765 180.386 184.165 177.92C198.802 173.034 213.753 169.187 228.595 165.011C245.713 160.194 262.632 154.775 278.793 147.286C281.444 146.056 283.023 142.694 283.023 139.913C283.023 136.626 281.28 134.412 278.793 132.539Z" fill="#FF7534"/>
<path d="M254.48 187.363C250.776 185.197 244.756 186.229 242.795 190.425C242.747 190.52 242.685 190.63 242.617 190.746C242.603 190.746 242.583 190.753 242.569 190.76C240.465 191.238 238.353 191.696 236.235 192.092C232.517 192.796 228.834 193.097 225.049 192.946C220.436 192.769 216.507 196.998 216.507 201.488C216.507 206.264 220.422 209.852 225.049 210.03C231.192 210.269 237.321 209.305 243.321 208.055C249.464 206.77 254.678 205.178 257.548 199.042C259.502 194.866 258.716 189.83 254.487 187.357L254.48 187.363Z" fill="#F5FFAB"/>
<path d="M224.359 265.311C223.019 263.008 221.81 261.061 221.058 258.567C220.197 255.717 219.459 252.909 218.154 250.209C216.767 247.333 214.485 244.476 211.649 242.905C207.761 240.759 203.756 241.326 199.69 242.529C197.695 243.116 195.645 243.827 193.684 244.715C192.707 243.848 191.572 243.178 190.37 242.85C185.579 241.531 181.486 244.483 179.86 248.815L168.927 277.939C167.751 281.069 169.487 285.053 171.988 286.918C174.851 289.057 178.295 289.18 181.473 287.588C191.73 282.435 204.699 284.294 215.776 282.415C224.611 280.918 229.094 273.443 224.352 265.311H224.359Z" fill="#FF7534"/>
<path d="M212.797 302.867C209.456 299.354 205.458 296.341 201.119 294.175C197.128 292.179 191.682 292.979 189.434 297.236C187.391 301.111 188.231 306.789 192.495 308.921C194.265 309.803 195.926 310.814 197.538 311.955C197.689 312.064 197.798 312.133 197.873 312.174C198.078 312.372 198.276 312.584 198.365 312.666C199.185 313.39 199.957 314.155 200.709 314.948C203.798 318.194 209.722 318.29 212.79 314.948C215.981 311.47 216.084 306.324 212.79 302.867H212.797Z" fill="#F5FFAB"/>
<path d="M236.467 302.853C235.859 300.967 234.827 299.621 233.385 298.411C233.57 298.555 233.761 298.698 233.946 298.849C233.44 298.446 232.975 298.015 232.538 297.557C232.367 297.291 232.21 297.017 232.06 296.737C232.032 296.648 231.998 296.566 231.978 296.478C230.714 292.2 225.917 289.07 221.468 290.512C217.129 291.913 214.143 296.43 215.503 301.022C216.944 305.894 219.876 309.55 223.921 312.509C225.602 313.739 228.582 313.896 230.502 313.37C232.483 312.823 234.629 311.292 235.606 309.447C236.652 307.466 237.178 305.06 236.467 302.867V302.853Z" fill="#F5FFAB"/>
<path d="M313.035 248.098C311.409 248.515 309.666 248.043 307.958 247.237C306.038 245.535 303.482 244.312 300.974 243.451C296.86 242.05 293.56 243.902 291.817 246.854C290.95 246.677 289.849 246.342 289.439 246.157C289.187 246.041 288.196 245.358 288.203 245.371C285.483 241.654 280.788 239.809 276.518 242.31C272.848 244.456 270.716 250.251 273.456 253.995C279.49 262.25 288.565 264.614 298.432 263.979C299.901 263.883 301.384 263.705 302.792 263.391C307.438 265.181 312.331 265.912 317.579 264.573C328.225 261.867 323.715 245.385 313.035 248.098Z" fill="#FF7534"/>
<path d="M272.192 342.008C271.392 341.311 270.613 340.594 269.896 339.815C269.643 339.541 269.404 339.247 269.158 338.96C269.076 338.831 268.741 338.359 268.57 338.086C267.996 337.184 267.545 336.241 267.026 335.304C267.012 335.284 267.005 335.27 266.998 335.25C266.992 335.216 266.985 335.188 266.971 335.147C266.807 334.512 266.554 333.883 266.37 333.254C265.126 328.963 260.295 325.854 255.86 327.289C253.366 328.095 251.35 329.913 250.318 332.182C249.027 332.551 247.954 333.193 247.1 334.027C246.608 333.787 246.082 333.596 245.521 333.466C241.168 332.475 236.084 334.772 235.012 339.432C232.326 351.137 243.936 357.567 253.236 360.827C257.363 362.276 261.532 359.556 263.295 355.934C266.329 357.034 269.821 356.665 272.192 354.082C275.137 350.878 275.8 345.124 272.192 342.001V342.008Z" fill="#FF7534"/>
<path d="M109.47 261.157C108.336 256.701 107.871 252.69 108.343 248.085C108.807 243.486 104.079 239.543 99.8009 239.543C94.7921 239.543 91.7308 243.472 91.2593 248.085C91.2046 248.624 91.1636 249.157 91.1294 249.697C89.7149 240.192 74.1964 240.657 74.1623 251.153C74.1486 254.795 73.7113 258.745 74.4629 262.325C75.2966 266.33 77.6541 269.193 80.9341 271.516C86.4759 275.438 92.5303 278.732 98.2156 282.456C102.398 285.203 110.003 282.736 110.762 277.352C111.561 271.701 110.871 266.651 109.47 261.15V261.157Z" fill="#F5FFAB"/>
<path d="M389.111 287.492C384.471 274.297 379.12 261.123 370.64 249.882C368.604 247.176 365.399 245.119 361.893 245.768C359.666 246.178 357.746 247.558 355.62 248.344C349.156 250.75 341.715 247.654 335.524 251.084C330.139 254.064 329.551 260.549 328.806 266.172C326.743 281.78 325.882 295.508 327.986 311.266C328.499 315.099 329.23 318.605 332.107 321.44C334.765 324.064 338.243 324.925 341.776 325.643C348.404 326.989 355.702 329.299 362.495 329.347C369.882 329.401 375.519 324.454 377.323 317.45C377.617 316.315 377.781 315.133 377.924 313.958C383.166 314.067 388.755 312.878 391.502 307.863C395.117 301.275 391.372 293.902 389.117 287.492H389.111Z" fill="#FF7534"/>
<path d="M375.615 376.62C372.546 373.49 368.713 372.397 364.476 372C359.611 371.549 354.5 372.622 350.687 375.369C349.812 370.107 344.106 365.379 337.983 368.761C331.225 372.492 320.299 379.107 325.506 388.4C327.617 392.172 331.567 394.01 335.776 394.099C338.229 394.154 340.45 393.58 342.61 392.862C346.457 396.354 351.425 398.158 357.042 398.363C364.442 398.63 374.637 397.284 378.034 389.692C379.981 385.325 378.983 380.043 375.621 376.62H375.615Z" fill="#F5FFAB"/>
<path d="M433.117 226.471C432.946 225.323 432.509 224.175 431.88 223.129C432.625 220.355 432.126 217.41 429.803 215.086C426.817 212.1 420.619 211.465 417.722 215.086C416.232 216.945 414.927 218.913 414.134 221.024C410.472 221.913 406.864 223.013 403.31 224.325C398.985 225.924 396.046 230.113 397.345 234.835C398.486 238.996 403.502 242.406 407.854 240.8C414.073 238.497 420.448 236.85 427.001 235.846C431.142 235.21 433.684 230.236 433.117 226.477V226.471Z" fill="#FF7534"/>
<path d="M463.17 283.884C462.76 281.759 462.234 279.654 461.578 277.577C460.375 273.771 457.423 271.953 454.321 271.68C453.768 268.475 453.207 265.229 452.066 262.236C450.023 256.885 446.073 253.236 441.242 250.346C438.051 248.439 434.955 248.856 432.618 250.469C432.338 250.353 432.058 250.257 431.771 250.175C427.022 248.87 422.847 251.788 421.261 256.141C418.596 263.48 417.073 271.331 416.82 279.176C413.574 280.419 410.806 283.57 411.162 287.15C411.647 292.036 412.132 296.929 412.617 301.815C413.068 306.393 412.966 311.566 414.23 315.994C415.836 321.638 421.945 324.918 427.589 323.504C432.721 322.212 436.138 317.736 437.046 312.666C438.686 303.516 434.566 294.892 433.999 285.866C433.609 279.634 434.176 273.586 435.625 267.648C436.172 268.495 436.479 269.534 436.8 271.112C437.682 275.397 438.44 279.709 439.363 283.986C441.235 292.678 443.401 301.295 445.813 309.851C446.073 310.773 446.47 311.593 446.962 312.311C447.618 314.101 448.431 315.85 449.428 317.572C451.8 321.652 457.061 322.834 461.113 320.634C474.138 313.568 468.322 294.947 463.156 283.891L463.17 283.884Z" fill="#F5FFAB"/>
<path d="M143.111 215.653C132.56 215.653 114.862 204.617 92.8381 190.882C75.7138 180.202 56.3003 168.1 37.8366 159.996C37.2079 159.722 36.8048 159.101 36.8116 158.41C36.9004 149.896 38.2056 139.68 40.9116 126.253C40.9594 125.986 41.0756 125.72 41.2601 125.494C41.4719 125.235 41.7384 125.05 42.0323 124.948C96.6579 104.981 143.043 75.2009 179.902 36.4285C180.394 35.916 181.152 35.752 181.808 36.0322L207.993 47.1705C208.055 47.1979 208.11 47.2184 208.164 47.2525C208.438 47.396 208.649 47.6079 208.807 47.8607C208.895 48.0042 208.964 48.1614 209.005 48.3254C209.025 48.4005 209.039 48.4757 209.046 48.5577C211.581 67.5065 218.53 85.0204 229.703 100.607C240.916 116.249 256.695 130.414 276.621 142.707C277.195 143.063 277.509 143.726 277.413 144.395C277.318 145.065 276.839 145.618 276.19 145.803L159.149 179.17C152.322 189.816 148.243 201.214 146.678 214.006C146.589 214.758 146.015 215.353 145.27 215.482C144.587 215.599 143.869 215.653 143.118 215.653H143.111ZM40.2488 157.331C58.6168 165.524 77.7364 177.448 94.6421 187.985C115.429 200.948 133.551 212.243 143.036 212.243C143.179 212.243 143.323 212.243 143.459 212.237C145.12 200.087 149.008 189.133 155.295 178.876C111.63 169.781 74.1216 153.217 43.7269 129.622C41.5334 140.944 40.4196 149.835 40.2419 157.324L40.2488 157.331ZM46.0503 127.107C76.2809 150.511 113.666 166.884 157.249 175.794C173.314 150.34 189.133 101.728 205.253 49.7194L181.555 39.6402C145.113 77.7087 99.5416 107.119 46.0503 127.107ZM206.832 56.17C191.785 104.523 176.97 149.356 161.834 174.851L271.571 143.568C235.361 120.335 213.624 90.9722 206.832 56.1769V56.17Z" fill="#292966"/>
<path d="M144.976 215.503C144.388 215.503 143.814 215.195 143.493 214.649C143.022 213.836 143.295 212.79 144.115 212.312C153.436 206.913 179.177 199.376 208.991 190.643C238.073 182.129 270.976 172.494 296 162.715C294.271 154.57 287.472 149.028 275.274 145.803C274.365 145.564 273.819 144.628 274.058 143.712C274.297 142.803 275.24 142.256 276.149 142.496C290.266 146.233 298.166 153.32 299.614 163.549C299.724 164.328 299.286 165.087 298.548 165.38C273.224 175.398 239.611 185.238 209.947 193.923C180.345 202.588 154.782 210.07 145.823 215.264C145.557 215.421 145.256 215.496 144.969 215.496L144.976 215.503Z" fill="#292966"/>
<path d="M138.212 353.762C137.911 353.762 137.617 353.741 137.323 353.707C135.861 353.516 133.77 352.73 132.137 350.051C131.016 348.22 131.597 336.111 134.337 292.371C136.264 261.525 138.902 219.459 137.474 214.58C137.091 214.205 136.893 213.658 136.989 213.091C137.139 212.161 138.007 211.526 138.95 211.676C140.754 211.963 141.205 213.726 141.273 220.648C141.314 224.94 141.157 231.015 140.802 239.221C140.146 254.337 138.929 273.778 137.754 292.583C136.21 317.272 134.46 345.22 135.144 348.404C135.882 349.559 136.743 350.181 137.768 350.311C139.49 350.536 141.82 349.395 144.191 347.174C145.38 343.307 147.929 309.311 150.184 279.258C151.482 261.997 152.821 244.148 153.976 230.796C155.972 207.74 156.566 207.31 157.468 206.654C157.892 206.339 158.432 206.237 158.944 206.353C159.86 206.572 160.427 207.494 160.208 208.41C160.14 208.683 160.01 208.929 159.839 209.134C158.561 213.378 155.814 249.984 153.6 279.511C149.077 339.76 148.134 348.131 146.788 349.423C143.829 352.272 140.89 353.748 138.225 353.748L138.212 353.762Z" fill="#292966"/>
<path d="M46.9249 319.944C44.4718 319.944 41.8888 318.119 39.0461 315.919C37.7204 314.894 35.4996 313.172 38.4243 236.27C39.8593 198.68 41.8751 161.035 41.8956 160.659C41.9434 159.716 42.7498 158.998 43.6928 159.046C44.6358 159.094 45.3601 159.9 45.3054 160.843C39.6611 265.906 39.8319 309.352 41.3421 313.384C42.9274 314.607 45.8658 316.821 47.2188 316.493C47.6561 316.384 48.0866 315.912 48.4829 315.085C49.0911 312.632 50.7379 286.939 52.3301 262.086C53.6421 241.579 55.1318 218.339 56.4916 200.511C57.2296 190.801 57.8583 183.612 58.4049 178.535C59.3958 169.406 59.8536 168.524 61.5414 168.422C62.5118 168.374 63.2908 169.084 63.3523 170.027C63.3796 170.499 63.2156 170.943 62.9218 171.271C61.2613 176.205 58.0769 225.89 55.7468 262.312C53.0954 303.646 52.2891 315.038 51.6263 316.452C50.7516 318.318 49.5421 319.452 48.0319 319.821C47.6698 319.91 47.3008 319.951 46.9249 319.951V319.944ZM48.5308 315.003V315.017C48.5308 315.017 48.5308 315.01 48.5308 315.003ZM61.7738 171.831C61.7738 171.831 61.7738 171.831 61.7669 171.831C61.7669 171.831 61.7669 171.831 61.7738 171.831Z" fill="#292966"/>
<path d="M291.476 290.745C291.319 290.745 291.162 290.724 291.005 290.676L266.2 283.604C265.435 283.385 264.915 282.661 264.963 281.861L266.788 249.881C266.822 249.321 267.129 248.809 267.608 248.515C268.086 248.221 268.687 248.187 269.2 248.419L297.114 261.074C298.979 260.541 304.856 258.867 310.74 257.255C325.814 253.127 326.128 253.339 326.962 253.92C327.386 254.214 327.666 254.706 327.707 255.211C327.782 256.154 327.078 256.974 326.142 257.05C325.978 257.063 325.814 257.05 325.657 257.022C323.402 257.296 310.343 260.842 298.446 264.252L293.151 289.392C293.055 289.856 292.768 290.26 292.358 290.499C292.091 290.663 291.784 290.745 291.476 290.745ZM268.455 280.7L290.185 286.898L295.03 263.89L270.061 252.574L268.455 280.707V280.7Z" fill="#292966"/>
<path d="M291.476 290.744C290.731 290.744 290.048 290.252 289.829 289.501C289.57 288.592 290.103 287.649 291.012 287.389L321.29 278.834C322.199 278.581 323.142 279.107 323.402 280.016C323.661 280.925 323.128 281.868 322.219 282.128L291.941 290.683C291.784 290.724 291.627 290.744 291.476 290.744Z" fill="#292966"/>
<path d="M286.215 269.008C285.074 269.008 283.673 268.707 282.006 268.106C281.678 267.99 274.024 265.175 273.929 261.683C273.915 261.163 274.058 259.872 275.698 259.175C279.648 257.487 286.673 260.952 288.832 263.938C290.37 266.07 289.31 267.58 288.948 267.99C288.347 268.673 287.431 269.015 286.222 269.015L286.215 269.008ZM277.988 262.141C279.675 263.535 283.796 265.38 285.784 265.598C285.217 264.997 284.117 264.129 282.491 263.343C280.817 262.537 279.149 262.106 277.988 262.134V262.141Z" fill="#292966"/>
<path d="M320.135 257.582C319.418 257.582 318.755 257.131 318.516 256.414C316.759 251.145 312.83 248.057 310.186 248.221C307.999 248.357 307.07 250.708 306.673 252.662C306.537 253.318 306.031 253.838 305.375 253.988C304.719 254.131 304.036 253.885 303.633 253.352C296.717 244.162 294.428 244.537 294.196 244.613C293.731 244.756 292.891 246.054 292.686 250.031C292.651 250.762 292.146 251.391 291.442 251.589C290.738 251.787 289.98 251.514 289.57 250.913C286.536 246.478 284.909 244.906 284.164 244.346C284.048 245.111 284 246.792 284.547 250.339C284.656 251.063 284.294 251.781 283.638 252.116C282.982 252.45 282.19 252.334 281.663 251.822C275.759 246.088 273.873 245.877 273.586 245.897C273.409 246.143 273.019 247.168 273.484 251.289C273.593 252.225 272.917 253.072 271.981 253.182C271.038 253.291 270.197 252.614 270.088 251.678C269.678 248.07 269.459 244.107 272.063 242.829C274.031 241.859 276.641 242.877 280.679 246.3C280.563 243.055 281.219 241.428 282.743 240.827C284.588 240.096 286.7 241.435 289.87 245.515C290.396 243.588 291.36 241.92 293.184 241.36C296.013 240.492 299.512 242.795 304.384 248.788C306.058 245.473 308.71 244.9 309.967 244.824C314.6 244.551 319.65 249.068 321.741 255.348C322.042 256.243 321.556 257.213 320.661 257.507C320.484 257.569 320.299 257.596 320.121 257.596L320.135 257.582Z" fill="#292966"/>
<path d="M292.747 245.282C292.747 245.282 292.72 245.282 292.699 245.282C291.756 245.255 291.011 244.469 291.039 243.533L293.116 164.977C293.143 164.034 293.909 163.282 294.872 163.317C295.815 163.344 296.56 164.13 296.533 165.066L294.455 243.622C294.428 244.551 293.67 245.282 292.747 245.282Z" fill="#292966"/>
<path d="M286.002 245.385H285.989C285.046 245.378 284.287 244.606 284.294 243.663L284.998 168.025C285.005 167.089 285.77 166.33 286.706 166.33H286.72C287.663 166.337 288.421 167.109 288.414 168.052L287.711 243.69C287.704 244.626 286.938 245.385 286.002 245.385Z" fill="#292966"/>
<path d="M204.597 342.664C204.351 342.664 204.112 342.609 203.88 342.507C193.124 337.546 181.835 328.744 172.761 321.672C166.214 316.567 160.556 312.16 157.379 310.978C156.976 310.827 156.641 310.527 156.449 310.144C154.058 305.374 153.47 298.664 154.673 289.637C154.611 288.954 154.837 287.99 156.149 287.075C162.039 282.954 195.461 277.023 214.861 273.852C227.332 271.816 240.315 269.896 250.49 268.591C267.177 266.445 267.785 266.923 268.489 267.477C269.227 268.058 269.357 269.137 268.776 269.875C268.304 270.477 267.505 270.675 266.828 270.415C263.876 270.101 239.167 273.265 212.148 277.761C175.774 283.808 160.426 288.011 158.083 289.863C157.003 297.81 157.392 303.919 159.231 308.039C162.9 309.652 168.223 313.8 174.858 318.973C183.257 325.519 193.582 333.569 203.429 338.496C204.173 335.509 205.164 332.1 206.545 329.148C206.763 328.676 207.18 328.334 207.686 328.211C243.691 319.335 281.821 307.752 321.017 293.785C321.905 293.464 322.882 293.929 323.196 294.824C323.511 295.712 323.053 296.689 322.158 297.004C283.146 310.909 245.187 322.451 209.305 331.334C207.911 334.566 206.948 338.345 206.258 341.345C206.141 341.844 205.807 342.268 205.349 342.493C205.11 342.609 204.857 342.664 204.597 342.664Z" fill="#292966"/>
<path d="M357.575 326.189C355.224 326.189 352.833 326.08 350.578 325.916C350.304 325.896 323.463 323.764 321.68 317.641C321.652 317.559 321.639 317.477 321.625 317.395C318.126 292.064 319.705 269.179 326.449 247.435C326.729 246.533 327.693 246.028 328.588 246.308C329.49 246.588 329.996 247.545 329.716 248.447C323.142 269.63 321.591 291.954 324.973 316.677C326.887 319.288 347.059 323.477 361.026 322.67C366.937 322.329 369.028 321.126 369.328 320.463C370.907 317.026 369.527 309.871 368.864 307.411C368.618 306.503 369.158 305.56 370.066 305.32C370.975 305.074 371.911 305.614 372.157 306.523C372.438 307.548 374.802 316.718 372.431 321.891C370.893 325.24 364.422 326.189 357.568 326.189H357.575Z" fill="#292966"/>
<path d="M329.135 249.491C327.023 249.491 324.885 249.245 322.896 248.726C318.058 247.462 314.812 244.742 313.767 241.066C312.509 236.665 315.427 231.779 321.57 228.001C321.885 227.802 322.261 227.72 322.63 227.755C327.037 228.171 331.923 228.26 336.747 228.007C337.294 227.98 337.793 228.199 338.141 228.609C340.143 230.959 341.872 234.219 342.774 237.321C343.847 241.011 343.581 243.895 342.029 245.432C339.44 248.009 334.349 249.498 329.149 249.498L329.135 249.491ZM322.882 231.199C319.52 233.392 316.131 236.918 317.047 240.123C317.949 243.287 321.195 244.749 323.757 245.419C329.415 246.895 336.822 245.767 339.61 243C340.772 241.845 339.385 235.804 336.05 231.451C331.561 231.65 327.037 231.561 322.889 231.199H322.882Z" fill="#292966"/>
<path d="M349.997 249.601C347.352 249.601 344.011 248.289 339.89 245.645C339.098 245.132 338.865 244.08 339.378 243.287C339.89 242.495 340.943 242.262 341.735 242.775C346.389 245.761 349.853 246.84 351.487 245.822C352.703 245.071 353.967 242.529 353.092 234.718C353.01 233.96 353.434 233.235 354.145 232.948C356.653 231.923 358.06 231.178 358.846 230.686C357.445 230.406 354.432 230.106 348.077 230.249C347.147 230.283 346.348 229.525 346.327 228.582C346.307 227.639 347.052 226.86 347.995 226.833C360.083 226.559 362.618 227.68 363.076 229.86C363.486 231.814 361.716 233.42 356.618 235.613C357.254 242.74 356.188 246.922 353.291 248.726C352.348 249.314 351.247 249.608 349.997 249.608V249.601Z" fill="#292966"/>
<path d="M331.342 231.555C328.226 231.555 325.171 231.418 322.301 231.145C308.86 229.86 308.894 226.819 308.908 225.821C308.949 222.234 316.753 221.216 324.44 220.621C324.632 220.109 324.85 219.576 325.103 218.961C329.811 207.993 337.383 204.877 342.801 206.654C347.974 208.349 352.888 215.202 349.703 228.917C349.546 229.593 348.999 230.106 348.309 230.215C344.612 230.817 340.779 231.213 336.918 231.397C335.059 231.493 333.194 231.541 331.349 231.541L331.342 231.555ZM313.172 225.89C314.552 226.457 317.429 227.25 322.623 227.742C327.03 228.158 331.916 228.247 336.74 227.994C340.082 227.83 343.396 227.509 346.614 227.031C348.644 216.993 345.692 211.212 341.729 209.913C337.068 208.383 331.527 212.66 328.24 220.307C327.837 221.264 327.543 222.036 327.29 222.787C327.071 223.443 326.483 223.901 325.793 223.949C318.044 224.516 314.628 225.35 313.165 225.89H313.172Z" fill="#292966"/>
<path d="M330.378 240.417C328.554 240.417 325.889 239.017 325.219 237.233C324.891 236.352 325.335 235.368 326.224 235.033C327.098 234.705 328.076 235.142 328.41 236.01C328.588 236.304 329.353 236.741 329.921 236.919C330.194 236.686 330.549 236.543 330.932 236.522C331.868 236.475 332.674 237.206 332.722 238.149C332.777 239.242 332.066 240.13 330.959 240.363C330.782 240.397 330.583 240.417 330.378 240.417Z" fill="#292966"/>
<path d="M204.59 342.664C203.811 342.664 203.107 342.131 202.93 341.338C202.718 340.416 203.292 339.5 204.208 339.288C251.317 328.41 289.775 317.88 321.775 307.097C322.67 306.796 323.641 307.274 323.941 308.17C324.242 309.065 323.764 310.035 322.868 310.336C290.759 321.153 252.198 331.717 204.98 342.616C204.85 342.644 204.72 342.664 204.597 342.664H204.59Z" fill="#292966"/>
<path d="M208.089 331.58C207.782 331.58 207.467 331.498 207.187 331.321C186.27 318.303 174.948 307.985 166.686 300.454C162.374 296.525 158.971 293.423 155.425 291.018C154.646 290.485 154.441 289.425 154.974 288.646C155.507 287.867 156.566 287.662 157.345 288.195C161.09 290.737 164.575 293.915 168.982 297.933C177.148 305.374 188.334 315.57 208.984 328.423C209.784 328.922 210.03 329.974 209.531 330.774C209.21 331.293 208.65 331.58 208.082 331.58H208.089Z" fill="#292966"/>
<path d="M204.071 315.981C203.927 315.981 203.79 315.96 203.654 315.926C187.971 311.976 181.07 302.888 181.917 287.335C181.965 286.481 182.634 285.791 183.489 285.723C191.668 285.08 200.394 292.112 205.403 299.389C207.207 302 211.164 308.553 209.073 312.96C208.478 314.204 207.152 315.741 204.207 315.981C204.159 315.981 204.118 315.981 204.071 315.981ZM185.265 289.126C185.019 302.02 190.759 309.079 204.194 312.543C205.417 312.386 205.799 311.874 205.984 311.491C206.715 309.954 205.95 306.209 202.588 301.33C198.597 295.535 191.661 289.542 185.265 289.126Z" fill="#292966"/>
<path d="M204.071 315.98C203.558 315.98 203.046 315.748 202.711 315.303L182.266 288.462C181.692 287.71 181.842 286.638 182.587 286.07C183.339 285.496 184.411 285.64 184.979 286.392L205.424 313.233C205.998 313.985 205.848 315.057 205.103 315.625C204.795 315.857 204.433 315.973 204.071 315.973V315.98Z" fill="#292966"/>
<path d="M224.359 312.222C218.585 312.222 209.681 296.245 209.586 296.074C206.394 290.095 205.93 286.638 208.123 285.196C208.841 284.724 210.078 284.383 211.909 285.442C217.061 288.435 227.509 303.96 227.161 309.365C227.045 311.149 225.924 311.805 225.453 312.003C225.104 312.146 224.742 312.215 224.359 312.215V312.222ZM210.207 288.373C210.392 290 211.991 294.168 216.029 300.058C219.473 305.088 222.378 307.876 223.751 308.614C223.498 306.844 221.578 302.464 217.847 296.997C214.43 291.995 211.56 289.159 210.214 288.373H210.207Z" fill="#292966"/>
<path d="M229.587 311.341C228.227 311.341 226.594 310.903 224.708 310.029C223.854 309.632 223.478 308.614 223.874 307.76C224.271 306.906 225.289 306.53 226.143 306.926C228.849 308.177 230.058 308.006 230.352 307.705C231.036 307.001 230.865 303.721 228.33 298.644C225.118 292.214 220.779 287.936 218.722 287.936C218.667 287.936 218.606 287.936 218.551 287.95C217.519 288.08 216.979 290.123 216.788 290.991C216.59 291.913 215.681 292.501 214.759 292.303C213.836 292.105 213.248 291.196 213.447 290.273C214.376 285.921 216.501 284.759 218.121 284.554C220.328 284.281 222.808 285.593 225.501 288.463C227.619 290.718 229.758 293.875 231.377 297.114C232.805 299.977 235.805 306.981 232.792 310.083C231.979 310.917 230.906 311.334 229.58 311.334L229.587 311.341Z" fill="#292966"/>
<path d="M239.194 291.168C238.367 291.168 237.247 290.792 236.228 289.18C234.923 287.116 233.803 282.77 235.019 280.652C236.454 278.151 242.467 278.547 244.927 279.811C246.847 280.795 247.579 282.558 246.793 284.307C245.037 288.196 242.071 290.949 239.413 291.161C239.344 291.161 239.269 291.168 239.194 291.168ZM237.944 282.49C237.657 283.631 238.559 286.918 239.372 287.717C240.431 287.451 242.29 285.92 243.636 282.995C242.768 282.257 239.105 281.929 237.944 282.49Z" fill="#292966"/>
<path d="M247.429 301.405C244.989 301.405 242.598 300.968 241.504 300.578C240.466 300.216 239.769 299.43 239.591 298.419C239.29 296.71 240.582 294.954 241.894 293.875C243.821 292.296 246.048 291.777 247.866 292.481C248.372 292.679 248.884 292.863 249.383 293.041C251.747 293.895 253.791 294.626 254.419 296.348C254.631 296.936 254.754 297.865 254.112 298.972C253.032 300.831 250.203 301.391 247.436 301.398L247.429 301.405ZM243.151 297.517C245.748 298.221 249.882 298.07 250.975 297.407C250.381 297.038 249.117 296.587 248.221 296.266C247.695 296.075 247.155 295.884 246.622 295.672C246.151 295.487 245.427 295.644 244.689 296.082C243.944 296.519 243.411 297.107 243.151 297.517Z" fill="#292966"/>
<path d="M256.332 290.349C254.576 290.349 252.765 289.823 251.241 288.948C248.973 287.643 248.781 284.793 249.772 282.654C250.729 280.584 252.526 279.614 254.241 280.229C254.521 280.331 254.877 280.44 255.287 280.577C258.751 281.684 261.676 282.777 262.359 284.971C262.66 285.934 262.448 286.953 261.771 287.841C260.412 289.611 258.409 290.349 256.325 290.349H256.332ZM253.264 283.502C253.018 283.72 252.642 284.39 252.622 285.114C252.608 285.559 252.717 285.846 252.95 285.982C254.576 286.918 257.494 287.636 258.99 285.859C258.218 285.094 255.273 284.151 254.262 283.83C253.886 283.714 253.551 283.604 253.271 283.509L253.264 283.502Z" fill="#292966"/>
<path d="M93.8695 308.867C93.6303 308.867 93.3843 308.812 93.1588 308.71C80.6606 302.976 71.5313 297.223 64.4178 290.615C64.1035 290.321 63.9053 289.918 63.878 289.487C63.0443 278.144 63.673 268.864 65.805 261.115C65.9485 260.589 66.3311 260.166 66.8368 259.974C67.3425 259.783 67.9096 259.838 68.3675 260.131C79.0958 266.992 91.2728 274.57 99.999 277.652C100.88 277.966 101.345 278.923 101.051 279.805C97.7645 289.583 96.0766 298.05 95.5778 307.254C95.5505 307.821 95.2361 308.334 94.7578 308.621C94.4845 308.785 94.1838 308.867 93.8763 308.867H93.8695ZM67.2331 288.565C73.5676 294.339 81.6036 299.457 92.332 304.555C92.9606 296.478 94.5255 288.831 97.293 280.283C88.9973 277.044 78.6448 270.723 68.5246 264.286C66.994 271.037 66.5703 279.012 67.2331 288.565Z" fill="#292966"/>
<path d="M93.8699 308.866C93.0089 308.866 92.2641 308.217 92.1752 307.342C92.0727 306.406 92.7561 305.566 93.6922 305.463L135.218 301.028C136.161 300.94 136.995 301.609 137.098 302.545C137.2 303.482 136.517 304.322 135.581 304.425L94.0544 308.859C93.9929 308.859 93.9314 308.866 93.8699 308.866Z" fill="#292966"/>
<path d="M99.4325 280.967C98.5851 280.967 97.8472 280.338 97.7378 279.47C97.6217 278.534 98.2845 277.68 99.2207 277.564L136.941 272.814C137.884 272.691 138.731 273.361 138.847 274.297C138.963 275.233 138.3 276.088 137.364 276.204L99.6443 280.953C99.5692 280.96 99.5008 280.967 99.4257 280.967H99.4325Z" fill="#292966"/>
<path d="M115.866 289.05C113.133 289.05 110.762 288.831 109.463 288.394C107.796 287.827 107.331 286.856 107.229 286.139C106.853 283.406 110.864 282.169 113.912 281.472C117.274 280.713 121.217 280.31 124.462 280.399C129.027 280.529 131.562 281.595 132.218 283.652C132.492 284.506 132.246 285.394 131.549 286.077C129.567 288.018 121.852 289.043 115.866 289.043V289.05ZM112.087 285.524C116.003 286.016 124.442 285.353 127.872 284.246C127.209 284.062 126.184 283.884 124.62 283.822C119.85 283.645 114.698 284.608 112.087 285.517V285.524Z" fill="#292966"/>
<path d="M91.2326 275.868C90.3511 275.868 89.6063 275.192 89.5311 274.297C88.3421 259.393 86.0119 242.132 84.3241 240.246C83.2718 239.269 81.0851 238.859 78.7618 239.221C76.1446 239.631 73.9374 240.923 73.0013 242.597C71.3271 245.59 71.5321 256.872 72.0514 263.281C72.1266 264.224 71.4296 265.044 70.4866 265.119C69.5504 265.195 68.7236 264.498 68.6484 263.555C68.4981 261.751 67.2886 245.808 70.0219 240.929C71.4774 238.326 74.5524 236.426 78.2356 235.845C81.6591 235.312 84.8093 236.023 86.6679 237.759C89.9548 240.82 92.1483 264.135 92.9341 274.016C93.0093 274.959 92.3054 275.779 91.3693 275.855C91.3214 275.855 91.2804 275.855 91.2326 275.855V275.868Z" fill="#292966"/>
<path d="M108.193 278.534C107.345 278.534 106.607 277.905 106.498 277.037C104.209 258.854 100.423 238.689 98.0453 236.427C97.6831 236.085 97.2868 235.948 96.7606 235.989C94.1708 236.188 90.0981 240.281 88.1369 242.816C87.5629 243.561 86.4901 243.697 85.7384 243.123C84.9936 242.549 84.8569 241.477 85.4309 240.725C86.0459 239.932 91.5604 232.955 96.5009 232.58C97.9906 232.463 99.3368 232.942 100.403 233.953C104.858 238.197 109.088 270.231 109.894 276.614C110.01 277.55 109.348 278.404 108.411 278.52C108.336 278.527 108.268 278.534 108.193 278.534Z" fill="#292966"/>
<path d="M121.613 278.178C120.78 278.178 120.049 277.563 119.926 276.709C118.832 269.056 116.775 264.348 113.81 262.714C111.944 261.689 109.614 261.826 106.676 263.145C105.822 263.534 104.803 263.145 104.421 262.284C104.031 261.423 104.421 260.412 105.282 260.029C109.211 258.266 112.634 258.163 115.463 259.721C119.475 261.935 122.044 267.334 123.315 276.224C123.452 277.16 122.802 278.021 121.866 278.158C121.784 278.171 121.702 278.178 121.62 278.178H121.613Z" fill="#292966"/>
<path d="M133.23 276.716C132.396 276.716 131.665 276.101 131.542 275.253C130.141 265.646 127.947 262.987 126.362 262.454C124.319 261.771 121.422 264.04 119.351 266.076C118.681 266.732 117.595 266.725 116.932 266.049C116.269 265.372 116.283 264.293 116.959 263.63C121.018 259.646 124.449 258.197 127.455 259.209C131.186 260.466 133.564 265.406 134.924 274.754C135.061 275.691 134.412 276.552 133.482 276.688C133.4 276.702 133.318 276.709 133.236 276.709L133.23 276.716Z" fill="#292966"/>
<path d="M115.983 263.876C115.873 263.876 115.764 263.869 115.655 263.848C114.725 263.671 114.124 262.775 114.302 261.846C117.814 243.642 117.247 233.05 115.716 231.342C115.593 231.205 115.545 231.205 115.463 231.212C112.566 231.445 110.448 245.084 110.933 260.404C110.96 261.347 110.222 262.133 109.279 262.167C108.343 262.195 107.55 261.457 107.516 260.514C107.509 260.199 107.277 252.73 107.919 245.057C108.876 233.611 111.186 228.13 115.19 227.809C116.372 227.72 117.438 228.151 118.265 229.067C122.843 234.185 118.559 257.814 117.657 262.495C117.5 263.315 116.782 263.882 115.983 263.882V263.876Z" fill="#292966"/>
<path d="M130.544 266.807C130.408 266.807 130.264 266.787 130.127 266.753C129.212 266.52 128.658 265.591 128.891 264.675C131.105 255.901 131.05 250.489 128.706 248.132C126.964 246.376 123.602 246.089 118.709 247.278C117.786 247.503 116.871 246.936 116.645 246.02C116.42 245.105 116.987 244.182 117.903 243.957C124.128 242.44 128.453 243.02 131.132 245.72C134.473 249.095 134.808 255.197 132.205 265.509C132.007 266.281 131.316 266.8 130.551 266.8L130.544 266.807Z" fill="#292966"/>
<path d="M230.885 378.437C230.639 378.437 230.4 378.382 230.168 378.28C229.437 377.938 229.047 377.139 229.218 376.36C230.093 372.437 230.311 366.622 228.439 365.918C227.646 365.625 226.451 365.146 225.002 364.572C219.822 362.522 207.761 357.752 204.721 357.752C204.693 357.752 204.666 357.752 204.639 357.752C202.766 357.807 199.821 362.461 198.413 365.795C198.099 366.54 197.313 366.964 196.514 366.813C195.721 366.663 195.14 365.973 195.127 365.167C195.072 362.269 195.099 347.708 201.201 345.384C205.213 343.86 208.821 346.027 211.725 347.769C212.934 348.493 214.287 349.313 215.053 349.389C216.016 348.411 217.014 342.897 217.171 337.553C217.198 336.624 217.957 335.893 218.879 335.893C218.893 335.893 218.913 335.893 218.927 335.893C219.87 335.92 220.615 336.706 220.588 337.649C220.389 344.455 219.323 352.607 215.374 352.805C213.638 352.894 211.841 351.828 209.969 350.7C207.468 349.197 204.885 347.646 202.425 348.582C200.573 349.286 199.438 353.536 198.905 358.081C200.45 356.085 202.384 354.404 204.529 354.336C204.577 354.336 204.625 354.336 204.673 354.336C208.117 354.336 217.212 357.821 226.253 361.395C227.681 361.962 228.856 362.427 229.635 362.714C232.457 363.773 233.25 367.107 233.298 370.333C235.607 366.8 237.35 363.574 237.261 362.488C236.83 360.766 228.624 357.103 225.924 355.901C224.421 355.231 223.232 354.698 222.487 354.295C221.387 353.693 218.052 351.869 227.414 334.369C227.858 333.535 228.897 333.228 229.724 333.672C230.557 334.116 230.872 335.155 230.421 335.982C226.799 342.753 224.114 349.648 224.387 351.432C225.05 351.766 226.109 352.245 227.312 352.778C234.712 356.078 240.397 358.866 240.664 362.215C240.965 365.959 234.288 375.061 232.238 377.761C231.904 378.198 231.398 378.437 230.879 378.437H230.885Z" fill="#292966"/>
<path d="M313.343 355.449C313.07 355.449 312.789 355.381 312.537 355.244C311.826 354.862 311.477 354.035 311.703 353.263C312.188 351.595 313.131 346.361 311.225 344.243C308.587 341.318 297.599 337.423 292.262 337.464C288.497 337.519 285.969 343.546 285.306 345.862C285.067 346.703 284.226 347.229 283.365 347.079C282.504 346.928 281.896 346.149 281.957 345.275C282.306 340.505 283.604 329.264 288.169 327.973C290.274 327.378 292.522 327.747 294.695 328.109C296.909 328.478 299 328.827 300.237 327.986C301.419 327.187 302.492 321.672 302.205 314.736C302.164 313.793 302.895 313.001 303.838 312.96C304.767 312.912 305.573 313.65 305.614 314.593C305.751 317.757 305.895 328.287 302.143 330.815C299.779 332.414 296.902 331.936 294.128 331.471C292.324 331.171 290.465 330.863 289.091 331.246C288.333 331.458 287.465 333.549 286.741 336.501C288.189 335.086 290 334.061 292.207 334.027C292.269 334.027 292.337 334.027 292.399 334.027C298.829 334.027 310.507 338.332 313.753 341.933C315.181 343.518 315.694 345.698 315.782 347.782C318.447 344.045 320.21 340.778 319.971 339.781C319.472 338.838 316.063 337.806 313.801 337.116C310.562 336.132 307.76 335.277 306.728 333.521C306.093 332.442 305.69 330.46 308.901 320.586C310.521 315.611 312.345 310.889 312.359 310.841C312.701 309.96 313.691 309.523 314.566 309.864C315.448 310.206 315.885 311.197 315.543 312.071C312.434 320.114 309.352 329.865 309.714 331.84C310.282 332.469 313.09 333.323 314.792 333.836C318.413 334.936 321.837 335.974 323.019 338.243C324.878 341.81 318.564 350.154 314.634 354.807C314.3 355.203 313.821 355.415 313.329 355.415L313.343 355.449Z" fill="#292966"/>
<path d="M252.253 361.04C244.64 361.04 232.34 352.758 230.406 350.817C227.29 347.694 229.272 337.28 229.949 334.164C230.147 333.242 231.062 332.661 231.985 332.859C232.907 333.057 233.488 333.973 233.29 334.895C232.108 340.321 231.63 347.209 232.825 348.412C235.121 350.708 248.563 358.935 253.517 357.479C254.309 357.247 254.706 356.782 254.897 355.887C255.451 353.263 253.831 351.828 250.667 349.314C246.533 346.027 240.875 341.524 242.973 330.939C243.157 330.016 244.053 329.415 244.982 329.593C245.904 329.777 246.506 330.672 246.328 331.602C244.633 340.143 248.788 343.444 252.799 346.635C255.977 349.163 259.264 351.78 258.245 356.591C257.794 358.716 256.496 360.158 254.494 360.753C253.811 360.951 253.059 361.046 252.259 361.046L252.253 361.04Z" fill="#292966"/>
<path d="M258.089 355.566C257.316 355.566 256.763 355.539 256.558 355.525C255.615 355.47 254.897 354.664 254.952 353.721C255.007 352.778 255.827 352.054 256.749 352.108C259.838 352.279 265.421 351.855 267.245 349.983C267.669 349.546 267.84 349.081 267.792 348.466C267.669 346.929 266.063 345.623 264.204 344.113C260.378 341.004 255.137 336.747 258.608 326.647C258.915 325.752 259.893 325.281 260.781 325.588C261.676 325.896 262.148 326.866 261.84 327.761C259.148 335.599 262.653 338.448 266.364 341.462C268.626 343.3 270.963 345.2 271.202 348.193C271.332 349.785 270.805 351.234 269.692 352.375C266.931 355.197 260.972 355.559 258.089 355.559V355.566Z" fill="#292966"/>
<path d="M174.79 357.924C173.731 357.924 172.638 357.705 171.524 357.261C166.7 355.341 162.484 349.614 161.295 346.218C159.928 342.316 160.837 328.178 161.8 315.236C161.875 314.238 161.944 313.343 161.998 312.578C162.067 311.635 162.894 310.938 163.823 310.992C164.766 311.061 165.47 311.874 165.408 312.817C165.354 313.589 165.285 314.484 165.21 315.489C164.629 323.279 163.276 341.53 164.52 345.091C165.49 347.858 169.105 352.628 172.788 354.09C174.216 354.657 175.446 354.657 176.553 354.09C178.289 353.195 177.824 350.468 176.97 346.71C176.171 343.177 175.173 338.777 178.993 337.519C184.473 335.715 187.063 337.239 189.263 340.089C190.083 341.148 190.029 342.637 189.96 344.517C189.878 346.724 189.783 349.478 191.313 350.947C192.489 352.067 194.641 352.518 197.703 352.272C198.652 352.204 199.466 352.901 199.541 353.837C199.616 354.78 198.912 355.6 197.976 355.675C193.835 356.003 190.883 355.265 188.949 353.414C186.311 350.885 186.448 347.134 186.544 344.394C186.571 343.58 186.612 342.48 186.503 342.111C185.348 340.622 184.302 339.364 180.052 340.765C179.184 341.052 179.799 343.772 180.291 345.958C181.152 349.751 182.328 354.951 178.111 357.131C177.073 357.671 175.952 357.937 174.784 357.937L174.79 357.924Z" fill="#292966"/>
<path d="M202.035 346.853C201.153 346.853 200.409 346.176 200.333 345.281L199.882 339.616C199.807 338.673 200.511 337.853 201.447 337.778C202.377 337.71 203.21 338.407 203.285 339.343L203.736 345.008C203.812 345.951 203.108 346.771 202.172 346.846C202.124 346.846 202.083 346.846 202.035 346.846V346.853Z" fill="#292966"/>
<path d="M181.248 227.537C181.111 227.537 180.968 227.537 180.831 227.537C179.909 227.537 179.157 226.792 179.13 225.869C178.856 214.895 184.528 205.028 191.771 203.88C194.279 203.483 200.354 203.784 204.003 214.642C216.173 214.82 218.592 216.262 218.578 218.66C218.578 219.733 218.558 222.248 205.301 225.002C197.648 226.594 188.689 227.537 181.248 227.537ZM193.07 207.194C192.817 207.194 192.564 207.214 192.304 207.255C187.76 207.98 182.881 214.957 182.553 224.113C196.049 223.936 209.962 220.936 214.164 218.893C212.654 218.537 209.442 218.093 202.732 218.045C201.98 218.045 201.324 217.546 201.106 216.822C199.261 210.638 196.363 207.187 193.063 207.187L193.07 207.194Z" fill="#292966"/>
<path d="M194.518 242.228C191.504 242.228 188.436 241.435 185.805 239.843C180.824 236.829 178.398 231.643 179.143 225.616C179.259 224.68 180.113 224.01 181.049 224.133C181.986 224.249 182.648 225.103 182.532 226.04C181.746 232.374 185.354 235.579 187.575 236.918C191.853 239.508 197.518 239.46 201.358 236.809C205.164 234.178 206.627 229.326 205.472 223.156C205.301 222.227 205.909 221.338 206.838 221.161C207.768 220.99 208.656 221.598 208.834 222.527C210.733 232.75 206.182 237.622 203.299 239.617C200.784 241.353 197.675 242.228 194.511 242.228H194.518Z" fill="#292966"/>
<path d="M188.99 234.445C188.737 234.445 188.477 234.431 188.218 234.404C187.281 234.308 186.598 233.468 186.701 232.525C186.796 231.589 187.644 230.905 188.58 231.001C189.55 231.103 190.493 230.844 191.457 230.201C192.242 229.675 193.302 229.887 193.828 230.673C194.354 231.459 194.142 232.518 193.356 233.044C191.962 233.973 190.5 234.445 188.997 234.445H188.99Z" fill="#292966"/>
<path d="M199.971 232.183C199.575 232.183 199.213 232.135 198.892 232.06C197.969 231.855 197.395 230.94 197.6 230.017C197.805 229.095 198.721 228.521 199.643 228.726C199.903 228.787 200.586 228.937 201.639 227.783C202.274 227.086 203.354 227.038 204.051 227.673C204.748 228.309 204.796 229.388 204.16 230.085C202.67 231.719 201.174 232.183 199.971 232.183Z" fill="#292966"/>
<path d="M166.72 286.74C165.804 286.74 165.046 286.016 165.012 285.093C164.568 272.937 168.722 259.106 178.036 241.996C177.503 242.365 176.95 242.734 176.389 243.096C169.72 247.449 165.839 248.501 163.816 246.512C163.18 245.891 162.887 245.043 162.975 244.121C163.126 242.576 164.274 240.041 171.859 234.124C175.856 231.008 179.738 228.445 179.895 228.343C180.681 227.823 181.74 228.042 182.259 228.828C182.778 229.614 182.56 230.673 181.774 231.192C174.039 236.283 167.335 241.968 166.467 244.093C168.558 244.196 175.89 239.809 182.491 234.417C183.134 233.891 184.056 233.905 184.685 234.445C185.314 234.985 185.464 235.9 185.04 236.611C173.389 256.209 167.957 272.028 168.428 284.957C168.463 285.9 167.725 286.692 166.782 286.727C166.761 286.727 166.741 286.727 166.72 286.727V286.74Z" fill="#292966"/>
<path d="M221.838 275.834C221.838 275.834 221.777 275.834 221.743 275.834C220.8 275.779 220.082 274.973 220.13 274.03C220.902 260.295 215.654 248.009 204.078 236.46C203.409 235.791 203.409 234.711 204.078 234.041C204.748 233.372 205.828 233.372 206.497 234.041C218.627 246.143 224.367 259.659 223.547 274.221C223.492 275.13 222.74 275.834 221.845 275.834H221.838Z" fill="#292966"/>
<path d="M184.48 274.167C181.863 274.167 180.38 270.456 179.901 267.204C179.252 262.823 180.428 259.762 182.97 259.209C184.186 258.942 185.375 259.386 186.236 260.425C188.409 263.042 188.429 269.288 187.295 271.973C186.543 273.75 185.354 274.105 184.712 274.153C184.637 274.153 184.562 274.16 184.487 274.16L184.48 274.167ZM183.612 262.618C183.516 262.741 183.366 263.028 183.257 263.568C182.833 265.728 183.585 268.789 184.309 270.162C184.569 269.178 184.76 267.422 184.493 265.434C184.282 263.814 183.858 262.926 183.612 262.618Z" fill="#292966"/>
<path d="M191.518 258.847C190.733 258.847 189.967 258.478 189.4 258.15C186.92 256.728 179.854 250.312 179.669 247.818C179.56 246.349 180.852 243.971 183.783 239.194C184.186 238.538 184.644 237.793 184.767 237.561C185.075 236.748 185.956 236.29 186.81 236.522C187.719 236.768 188.259 237.711 188.006 238.62C187.904 238.996 187.733 239.29 186.694 240.984C185.792 242.46 183.462 246.253 183.113 247.51C183.927 249.034 188.553 253.619 190.801 255.034C191.279 252.519 191.498 246.15 191.416 240.711C191.402 239.768 192.154 238.989 193.097 238.975C193.104 238.975 193.111 238.975 193.124 238.975C194.054 238.975 194.819 239.727 194.833 240.656C195.072 257.35 193.404 258.17 192.509 258.608C192.181 258.772 191.846 258.833 191.518 258.833V258.847ZM184.753 237.588C184.733 237.643 184.719 237.684 184.712 237.718C184.726 237.677 184.74 237.629 184.753 237.588Z" fill="#292966"/>
<path d="M196.746 261.505C195.865 261.505 195.12 260.828 195.045 259.933L194.901 258.149C194.826 257.206 195.53 256.386 196.466 256.311C197.395 256.243 198.229 256.94 198.304 257.876L198.448 259.66C198.523 260.603 197.819 261.423 196.883 261.498C196.835 261.498 196.794 261.498 196.746 261.498V261.505Z" fill="#292966"/>
<path d="M197.423 269.978C196.541 269.978 195.796 269.301 195.721 268.406L195.516 265.83C195.441 264.887 196.145 264.067 197.081 263.992C198.024 263.924 198.844 264.621 198.919 265.557L199.124 268.133C199.199 269.076 198.496 269.896 197.559 269.971C197.512 269.971 197.464 269.971 197.423 269.971V269.978Z" fill="#292966"/>
<path d="M201.693 258.054C201.495 258.054 201.303 258.027 201.112 257.972C199.54 257.521 198.03 255.97 195.529 241.586C195.454 241.162 195.406 240.869 195.386 240.766C195.14 239.857 195.679 238.942 196.588 238.696C197.504 238.45 198.447 239.01 198.693 239.919C198.734 240.062 198.761 240.226 198.898 240.998C200.237 248.693 201.214 252.15 201.816 253.695C203.23 251.009 205.485 244.422 207.132 238.634C208.362 230.721 213.2 224.441 221.926 219.432C222.746 218.961 223.792 219.248 224.256 220.061C224.721 220.874 224.441 221.927 223.628 222.391C215.715 226.935 211.546 232.293 210.494 239.249C210.48 239.317 210.467 239.393 210.446 239.461C206.544 253.23 204.132 257.009 202.8 257.747C202.444 257.945 202.069 258.041 201.693 258.041V258.054Z" fill="#292966"/>
<path d="M230.304 210.576C221.51 210.576 215.906 206.066 215.626 205.834C215.619 205.827 215.606 205.82 215.599 205.813C214.95 205.253 212.961 203.544 213.822 201.631C214.471 200.182 216.214 199.608 220.129 199.786C219.323 198.768 218.961 197.791 219.029 196.834C219.118 195.631 219.897 194.627 221.168 194.094C223.061 193.294 226.238 193.452 229.341 194.736C229.19 193.376 229.423 192.181 230.372 191.381C232.149 189.878 234.882 190.8 239.584 193.568C239.946 191.859 241.067 190.602 242.871 190.001C247.162 188.566 254.993 191.47 256.387 195.016C256.722 195.864 256.927 197.244 255.997 198.993C253.701 203.319 245.563 207.815 236.201 209.927C234.11 210.398 232.142 210.59 230.311 210.59L230.304 210.576ZM217.806 203.203C218.25 203.558 225.138 208.902 235.443 206.578C244.435 204.556 251.419 200.312 252.97 197.381C253.148 197.053 253.326 196.588 253.196 196.253C252.56 194.641 246.854 192.256 243.943 193.226C243.397 193.411 242.385 193.745 243.082 196.233C243.274 196.909 243.028 197.64 242.461 198.057C241.893 198.481 241.128 198.508 240.534 198.132C236.475 195.59 233.851 194.231 232.716 194.08C232.737 194.552 232.914 195.625 233.81 197.784C234.11 198.508 233.878 199.349 233.242 199.82C232.607 200.285 231.732 200.258 231.131 199.752C227.81 196.957 223.614 196.697 222.507 197.203C222.726 197.62 223.546 198.768 226.539 200.572C227.229 200.989 227.537 201.836 227.27 202.601C227.004 203.367 226.238 203.831 225.432 203.729C221.188 203.169 218.961 203.114 217.806 203.182V203.203Z" fill="#292966"/>
<path d="M242.885 231.527C237.097 231.527 228.904 229.272 219.562 220.081C215.319 218.044 214.396 215.195 214.964 213.172C215.688 210.589 218.599 209.113 222.569 209.223L222.931 207.747C223.157 206.831 224.079 206.264 224.995 206.489C225.911 206.715 226.471 207.637 226.252 208.553L225.548 211.437C225.343 212.277 224.537 212.831 223.683 212.728C220.307 212.325 218.483 213.282 218.25 214.095C218.045 214.819 219.016 216.083 221.257 217.101C221.442 217.183 221.612 217.3 221.756 217.443C234.821 230.42 244.982 228.513 248.741 227.092C253.408 225.329 256.606 221.324 256.9 216.89C257.221 212.065 254.139 207.542 248.44 204.473C247.606 204.029 247.299 202.991 247.743 202.157C248.187 201.323 249.226 201.016 250.06 201.46C256.982 205.184 260.72 210.883 260.31 217.108C259.927 222.876 255.861 228.042 249.95 230.283C248.426 230.857 246.001 231.513 242.885 231.513V231.527Z" fill="#292966"/>
<path d="M236.687 217.833C235.942 217.833 235.231 217.614 234.521 217.177C233.721 216.678 233.468 215.626 233.967 214.826C234.466 214.027 235.518 213.774 236.318 214.273C236.564 214.423 236.796 214.566 237.794 213.986C238.607 213.514 239.653 213.794 240.124 214.614C240.596 215.434 240.315 216.48 239.495 216.945C238.464 217.539 237.548 217.833 236.68 217.833H236.687Z" fill="#292966"/>
<path d="M249.24 215.748C249.055 215.748 248.864 215.748 248.666 215.735C247.723 215.687 246.998 214.881 247.046 213.938C247.094 212.995 247.894 212.27 248.843 212.318C249.875 212.373 250.278 212.229 250.395 212.175C250.627 211.279 251.536 210.726 252.438 210.938C253.353 211.15 253.927 212.065 253.716 212.988C253.415 214.272 252.383 215.748 249.24 215.748Z" fill="#292966"/>
<path d="M267.922 261.751C267.054 261.751 266.309 261.088 266.22 260.206C264.628 243.882 260.467 232.928 253.497 226.73C252.793 226.101 252.731 225.022 253.353 224.318C253.982 223.614 255.061 223.546 255.765 224.174C263.412 230.973 267.942 242.652 269.616 259.872C269.705 260.808 269.022 261.648 268.079 261.737C268.024 261.737 267.97 261.744 267.908 261.744L267.922 261.751Z" fill="#292966"/>
<path d="M240.24 265.147C239.331 265.147 238.572 264.429 238.531 263.513L237.008 229.477C236.967 228.534 237.698 227.734 238.641 227.693C239.556 227.652 240.383 228.383 240.424 229.326L241.948 263.363C241.989 264.306 241.258 265.106 240.315 265.147C240.288 265.147 240.26 265.147 240.24 265.147Z" fill="#292966"/>
<path d="M377.72 310.718C374.255 310.718 371.399 310.404 371.256 310.39C370.702 310.329 370.21 309.994 369.944 309.502C362.01 294.817 357.685 281.82 356.701 269.759C356.625 268.816 357.322 267.996 358.265 267.921C359.202 267.853 360.028 268.543 360.104 269.486C361.026 280.85 365.092 293.157 372.52 307.09C379.367 307.725 387.034 307.049 387.669 304.971C388.141 303.12 385.305 289.528 378.847 274.098C371.317 256.099 362.673 244.592 354.507 241.695C353.619 241.38 353.154 240.403 353.468 239.515C353.783 238.627 354.76 238.162 355.648 238.476C362.099 240.765 371.918 248.617 382.08 272.985C387.697 286.46 392.002 302.498 390.936 305.976C390.047 308.873 386.426 310.418 379.866 310.684C379.134 310.711 378.417 310.725 377.72 310.725V310.718Z" fill="#292966"/>
<path d="M382.155 324.468C379.593 324.468 376.026 322.438 370.825 318.099C370.101 317.498 370.005 316.418 370.607 315.694C371.215 314.969 372.288 314.874 373.012 315.475C380.706 321.891 382.401 321.03 382.463 320.989C382.469 320.989 383.433 320.279 382.551 315.502C382.401 314.675 382.873 313.862 383.665 313.582C384.458 313.302 385.339 313.644 385.736 314.382C386.932 316.596 387.799 318.024 388.428 318.939C388.319 317.019 387.881 313.514 386.686 307.138C386.515 306.209 387.123 305.321 388.052 305.143C388.982 304.965 389.87 305.58 390.048 306.51C392.631 320.258 392.303 322.978 390.082 323.764C388.804 324.215 387.622 323.62 386.023 321.454C385.708 322.5 385.141 323.381 384.191 323.935C383.59 324.283 382.92 324.468 382.155 324.468Z" fill="#292966"/>
<path d="M355.272 393.825C350.031 393.825 344.483 391.01 342.508 387.211C341.203 384.703 341.517 382.079 343.389 379.831C344.175 378.888 344.906 377.951 345.617 377.043C348.972 372.744 352.15 368.685 358.484 368.18C365.85 367.592 372.547 372.403 374.782 377.391C375.246 378.423 375.485 380.172 374.03 382.646C371.256 387.347 362.967 393.231 356.448 393.777C356.058 393.812 355.669 393.825 355.272 393.825ZM359.707 371.549C359.393 371.549 359.072 371.562 358.757 371.59C353.919 371.979 351.569 374.986 348.309 379.154C347.585 380.083 346.833 381.04 346.013 382.024C345.036 383.193 344.886 384.375 345.542 385.639C346.867 388.188 351.548 390.757 356.161 390.374C361.45 389.93 368.789 384.805 371.085 380.91C371.625 379.988 371.843 379.195 371.659 378.792C370.039 375.184 365.112 371.555 359.707 371.555V371.549Z" fill="#292966"/>
<path d="M330.269 370.114C329.374 370.114 328.623 369.424 328.568 368.515L325.384 319.869C325.322 318.926 326.033 318.112 326.976 318.051C327.898 317.996 328.732 318.7 328.793 319.643L331.978 368.29C332.039 369.233 331.329 370.046 330.386 370.107C330.345 370.107 330.31 370.107 330.269 370.107V370.114Z" fill="#292966"/>
<path d="M328.568 387.696C327.228 387.696 325.78 387.594 324.187 387.355C321.338 386.931 319.698 384.963 319.8 382.107C319.999 376.298 328 365.953 332.572 365.584C335.64 365.338 343.553 366.916 348.268 369.684L345.473 324.003C345.419 323.06 346.129 322.254 347.072 322.192C348.015 322.131 348.822 322.848 348.883 323.791L351.958 374.043C352.013 374.98 351.309 375.786 350.373 375.854C349.443 375.916 348.623 375.219 348.548 374.289C348.159 372.424 337.786 368.59 332.845 368.994C330.7 369.164 323.388 377.323 323.217 382.23C323.176 383.371 323.552 383.815 324.7 383.986C330.05 384.792 333.522 383.842 337.184 382.831C339.029 382.325 340.936 381.806 343.109 381.499C344.045 381.369 344.906 382.018 345.043 382.954C345.179 383.89 344.523 384.751 343.587 384.888C341.633 385.161 339.911 385.633 338.093 386.132C335.257 386.911 332.346 387.71 328.581 387.71L328.568 387.696Z" fill="#292966"/>
<path d="M372.834 379.045C371.96 379.045 371.208 378.375 371.133 377.48L366.486 323.333C366.404 322.39 367.101 321.563 368.044 321.481C368.98 321.399 369.814 322.096 369.896 323.039L374.543 377.186C374.625 378.129 373.928 378.956 372.985 379.038C372.937 379.038 372.882 379.038 372.834 379.038V379.045Z" fill="#292966"/>
<path d="M359.557 313.691C359.358 313.691 359.16 313.657 358.969 313.588C353.195 311.47 350.099 305.074 349.758 294.578C349.73 293.635 350.468 292.849 351.411 292.815C352.341 292.774 353.14 293.526 353.174 294.469C353.461 303.434 355.805 308.791 360.144 310.384C361.033 310.712 361.484 311.689 361.156 312.577C360.903 313.267 360.247 313.698 359.55 313.698L359.557 313.691Z" fill="#292966"/>
<path d="M335.599 263.807C334.656 263.807 333.891 263.035 333.898 262.092L333.952 246.902C333.952 245.959 334.717 245.2 335.66 245.2C336.603 245.2 337.369 245.972 337.362 246.915L337.307 262.106C337.307 263.049 336.542 263.807 335.599 263.807Z" fill="#292966"/>
<path d="M436.097 312.174C435.776 312.174 435.462 312.085 435.188 311.914C434.792 311.662 434.512 311.258 434.423 310.794C434.403 310.678 432.113 298.952 430.467 286.734C427.433 264.197 429.018 259.229 430.733 257.425C431.471 256.646 432.448 256.298 433.487 256.448C436.248 256.845 440.047 260.2 444.96 282.852C447.591 294.968 449.306 307.111 449.327 307.234C449.45 308.095 448.903 308.908 448.062 309.126L436.528 312.119C436.384 312.154 436.241 312.174 436.097 312.174ZM433.125 259.865C431.116 262.175 432.195 281.007 437.437 308.354L445.725 306.202C445.186 302.594 443.689 293.068 441.625 283.556C437.081 262.632 433.788 260.159 433.125 259.865Z" fill="#292966"/>
<path d="M446.763 336.945C445.287 336.945 444.112 335.523 442.274 329.565C440.907 331.095 439.343 332.127 437.675 331.601C435.003 330.747 433.603 327.002 434.388 310.383C434.436 309.44 435.242 308.716 436.172 308.757C437.115 308.798 437.846 309.604 437.798 310.541C437.156 324.166 438.181 327.446 438.693 328.225C439.056 328 439.957 327.255 441.509 324.836C441.871 324.269 442.541 323.968 443.203 324.071C443.866 324.173 444.413 324.658 444.591 325.307C445.322 327.959 445.903 329.783 446.36 331.041C446.6 327.774 446.647 321.112 445.916 307.554C445.868 306.611 446.586 305.805 447.529 305.757C448.479 305.689 449.278 306.427 449.326 307.37C449.811 316.342 450.003 323.237 449.9 327.87C449.757 334.478 449.121 336.589 447.201 336.897C447.051 336.924 446.9 336.938 446.75 336.938L446.763 336.945Z" fill="#292966"/>
<path d="M420.011 323.771C418.501 323.771 417.175 323.593 416.198 323.156C415.412 322.807 413.02 321.741 410.718 304.726C409.699 297.203 408.907 287.274 410.014 284.042C411.551 279.545 416.225 277.27 418.549 276.388C417.865 258.553 422.874 252.314 427.261 250.237C431.552 248.201 437.033 249.499 441.57 253.613C445.581 257.255 448.8 263.22 447.959 269.179C450.201 268.988 453.385 269.145 455.865 270.969C459.139 273.382 461.94 288.244 462.466 291.203C463.676 297.968 465.309 309.858 462.651 313.507C459.296 318.113 454.041 318.454 450.563 318.68C449.688 318.734 448.936 318.782 448.41 318.892C447.481 319.076 446.586 318.475 446.401 317.552C446.217 316.63 446.818 315.728 447.741 315.543C448.485 315.393 449.346 315.338 450.337 315.277C453.515 315.072 457.471 314.812 459.883 311.505C462.87 307.405 456.829 276.347 453.822 273.723C450.993 271.646 446.183 272.931 446.135 272.944C445.52 273.115 444.857 272.924 444.426 272.459C443.996 271.988 443.859 271.318 444.071 270.723C445.984 265.414 443.032 259.585 439.26 256.162C436.52 253.674 432.311 251.631 428.71 253.339C425.806 254.713 421.077 259.688 422.006 277.529C422.047 278.336 421.521 279.06 420.742 279.272C420.687 279.286 414.674 280.96 413.239 285.162C411.674 289.741 415.214 317.115 417.729 320.108C420.476 321.126 429.311 319.151 434.826 317.388C435.728 317.101 436.684 317.593 436.971 318.495C437.258 319.397 436.766 320.354 435.864 320.641C433.917 321.263 425.689 323.784 420.011 323.784V323.771Z" fill="#292966"/>
<path d="M426.141 335.441C424.207 335.441 422.451 335.223 420.981 334.683C420.387 334.464 419.963 333.938 419.874 333.316L418.323 322.308C418.193 321.372 418.843 320.511 419.779 320.381C420.722 320.251 421.576 320.9 421.706 321.836L423.1 331.751C426.284 332.455 431.19 331.717 435.837 330.788L436.479 328.519C436.739 327.61 437.682 327.084 438.591 327.344C439.5 327.604 440.026 328.547 439.766 329.455L438.837 332.722C438.666 333.337 438.16 333.801 437.538 333.924C433.575 334.744 429.571 335.441 426.127 335.441H426.141Z" fill="#292966"/>
<path d="M401.056 240.329C399.847 240.329 398.815 240.11 398.008 239.659C396.826 238.996 396.191 237.855 396.273 236.543C396.403 234.302 398.91 229.58 414.244 223.163C414.552 223.034 414.894 222.999 415.222 223.061C422.444 224.441 431.335 226.915 432.653 230.885C433.022 231.992 432.776 233.133 431.97 234.015C429.763 236.434 423.121 236.803 414.921 234.992C409.803 238.395 404.65 240.329 401.049 240.329H401.056ZM399.683 236.687C400.653 237.384 406.085 236.939 413.616 231.753C414.012 231.48 414.504 231.384 414.976 231.493C423.907 233.577 428.465 232.518 429.346 231.808C428.806 230.919 425.437 228.534 415.092 226.505C402.587 231.808 399.785 235.791 399.689 236.68L399.683 236.687Z" fill="#292966"/>
<path d="M426.065 229.525C425.464 229.525 424.876 229.204 424.569 228.637C424.118 227.81 424.419 226.771 425.245 226.32C429.564 223.956 431.566 221.4 430.746 219.303C429.721 216.685 424.931 214.95 421.255 215.872C417.647 216.774 416.034 219.774 416.601 224.537C416.711 225.473 416.041 226.32 415.105 226.437C414.162 226.546 413.321 225.876 413.205 224.94C412.447 218.51 415.146 213.884 420.421 212.558C425.833 211.205 432.263 213.829 433.924 218.059C434.812 220.334 435.085 224.824 426.885 229.32C426.626 229.464 426.346 229.532 426.065 229.532V229.525Z" fill="#292966"/>
<path d="M415.679 257.282C411.668 257.282 407.691 256.209 404.684 254.023C399.703 250.408 398.487 244.49 401.336 237.793C401.705 236.926 402.71 236.522 403.577 236.891C404.445 237.26 404.848 238.265 404.479 239.133C402.238 244.388 403.003 248.583 406.693 251.262C411.866 255.02 421.33 254.583 426.168 250.367C430.227 246.827 430.494 241.442 426.934 234.794C426.49 233.96 426.804 232.928 427.631 232.484C428.465 232.04 429.496 232.354 429.941 233.181C435.79 244.107 431.492 250.251 428.41 252.936C425.116 255.806 420.374 257.275 415.679 257.275V257.282Z" fill="#292966"/>
<path d="M409.522 249.417C407.923 249.417 405.566 248.72 404.923 247.312C404.534 246.451 404.91 245.44 405.764 245.05C406.515 244.702 407.39 244.955 407.862 245.604C408.149 245.768 408.798 245.946 409.249 246C409.488 245.816 409.775 245.686 410.103 245.645C411.046 245.536 411.893 246.198 412.003 247.135C412.126 248.125 411.497 249.021 410.472 249.314C410.212 249.39 409.891 249.424 409.522 249.424V249.417Z" fill="#292966"/>
<path d="M420.257 249C418.966 249 417.852 248.631 416.916 247.893C416.178 247.312 416.048 246.232 416.629 245.494C417.21 244.756 418.289 244.626 419.027 245.207C419.253 245.385 419.929 245.918 421.973 245.262C422.868 244.975 423.831 245.467 424.125 246.362C424.412 247.257 423.92 248.221 423.025 248.514C422.034 248.836 421.112 248.993 420.264 248.993L420.257 249Z" fill="#292966"/>
<path d="M413.69 315.324C413.649 315.324 413.601 315.324 413.56 315.324C413.15 315.296 403.467 314.538 399.08 311.313C394.454 307.903 395.479 289.391 395.91 283.802C396.784 272.363 399.265 257.787 403.611 251.193C404.13 250.407 405.189 250.188 405.975 250.708C406.761 251.227 406.98 252.286 406.46 253.072C403.173 258.054 400.365 270.217 399.313 284.061C398.171 299.04 399.709 307.534 401.103 308.566C404.089 310.759 411.285 311.736 413.813 311.928C414.756 311.996 415.46 312.816 415.391 313.759C415.323 314.654 414.578 315.337 413.69 315.337V315.324Z" fill="#292966"/>
<path d="M421.262 332.571C421.262 332.571 421.201 332.571 421.173 332.571C417.859 332.4 406.851 331.587 404.377 328.191C402.013 324.945 401.343 313.704 401.234 311.483C401.186 310.54 401.917 309.741 402.853 309.693C403.823 309.652 404.596 310.376 404.643 311.313C404.896 316.41 405.833 324.392 407.131 326.168C408.149 327.562 415.303 328.833 421.344 329.148C422.287 329.195 423.011 330.002 422.964 330.938C422.916 331.847 422.164 332.557 421.262 332.557V332.571Z" fill="#292966"/>
<path d="M429.517 366.635C425.895 366.635 421.03 366.198 420.517 363.888C420.462 363.642 420.36 363.191 420.469 333.261C420.469 332.318 421.235 331.56 422.178 331.56C423.121 331.56 423.886 332.332 423.879 333.275C423.845 343.709 423.811 359.078 423.859 362.638C425.922 363.266 432.564 363.396 434.847 362.863C435.619 352.381 435.639 342.186 434.915 332.489C434.847 331.546 435.55 330.726 436.493 330.658C437.443 330.583 438.256 331.293 438.325 332.236C439.083 342.384 439.035 353.064 438.188 363.991C438.086 366.082 435.14 366.335 433.384 366.478C432.961 366.512 431.403 366.635 429.51 366.635H429.517ZM434.792 363.69C434.792 363.69 434.792 363.745 434.792 363.772C434.792 363.745 434.792 363.717 434.792 363.69Z" fill="#292966"/>
<path d="M421.002 388.345C419.704 388.345 418.426 388.031 417.19 387.381C416.206 386.869 415.509 385.981 415.167 384.812C413.52 379.14 420.832 366.068 422.315 363.506C422.786 362.686 423.832 362.412 424.652 362.884C425.472 363.355 425.745 364.401 425.273 365.221C422.123 370.667 417.483 380.548 418.447 383.862C418.556 384.245 418.707 384.32 418.768 384.354C420.934 385.482 423.217 384.983 425.731 382.824C431.437 377.924 434.867 367.647 434.471 365.597C433.924 365.043 433.808 364.169 434.239 363.485C434.744 362.686 435.797 362.447 436.596 362.952C440.081 365.146 435.523 374.938 433.658 378.197C429.872 384.792 425.348 388.345 421.009 388.345H421.002Z" fill="#292966"/>
<path d="M415.098 363.95C413.342 363.95 410.636 363.793 408.757 362.952C406.557 361.961 406.447 360.41 406.557 359.631L405.094 328.143C405.053 327.2 405.778 326.401 406.721 326.36C407.657 326.312 408.463 327.043 408.504 327.986L409.98 359.665C409.98 359.665 409.98 359.734 409.98 359.768C411.586 360.772 418.959 360.793 420.449 359.734C420.989 359.037 421.993 358.859 422.738 359.358C423.524 359.877 423.736 360.936 423.216 361.722C422.376 362.986 420.114 363.724 416.492 363.909C416.192 363.922 415.7 363.943 415.092 363.943L415.098 363.95Z" fill="#292966"/>
<path d="M402.723 381.417C402.218 381.417 401.746 381.369 401.323 381.259C399.949 380.918 399.232 380.111 398.876 379.496C397.933 377.87 397.981 375.622 399.02 372.813C400.906 367.723 406.243 360.807 409.037 359.83C409.926 359.523 410.903 359.987 411.21 360.882C411.525 361.771 411.053 362.748 410.158 363.055C408.88 363.52 403.974 369.164 402.19 374.084C401.316 376.483 401.644 377.474 401.828 377.781C401.862 377.843 401.972 377.897 402.143 377.938C404.89 378.615 413.226 374.467 418.269 371.31C419.069 370.811 420.121 371.05 420.627 371.85C421.126 372.649 420.886 373.702 420.087 374.207C418.044 375.492 408.299 381.41 402.73 381.41L402.723 381.417Z" fill="#292966"/>
</svg>
