<svg width="492" height="285" viewBox="0 0 492 285" fill="none" xmlns="http://www.w3.org/2000/svg">
<path d="M341.926 132.312C341.462 132.312 341.004 132.128 340.669 131.759C340.033 131.062 340.074 129.982 340.771 129.347C345.732 124.789 357.335 120.47 366.663 116.999C371.774 115.099 378.109 112.742 379.182 111.669C379.366 110.316 375.847 105.034 373.517 101.521C371.685 98.7676 369.786 95.9112 368.105 93.0002C367.244 91.5106 366.41 90.0141 365.597 88.5586C362.201 82.4769 358.354 75.5889 355.716 75.5889C355.702 75.5889 355.689 75.5889 355.675 75.5889C353.201 75.6572 347.27 77.1879 340.396 78.9577C324.037 83.1739 301.637 88.9412 292.002 84.4312C291.148 84.0281 290.779 83.0167 291.182 82.1626C291.578 81.3084 292.596 80.9394 293.451 81.3426C301.965 85.3332 324.576 79.5112 339.541 75.6572C346.908 73.7576 352.723 72.2611 355.579 72.1791C360.315 72.0356 363.943 78.6024 368.583 86.8981C369.389 88.3399 370.216 89.8227 371.064 91.2987C372.69 94.1209 374.555 96.9226 376.359 99.6354C381.109 106.769 383.521 110.617 382.243 113.227C381.348 115.051 377.788 116.507 367.852 120.211C358.805 123.579 347.55 127.768 343.081 131.868C342.753 132.169 342.336 132.319 341.926 132.319V132.312Z" fill="#FF7534"/>
<path d="M355.818 160.343C353.379 160.343 351.042 160.083 349.327 159.564C347.468 158.996 346.299 158.115 345.855 156.933C344.899 154.384 346.662 146.095 347.461 142.651C348.466 138.326 350.454 130.836 352.443 129.271C356.324 126.203 363.506 128.486 366.417 129.606C368.501 130.413 369.847 133.091 370.421 137.567C371.275 144.216 370.285 155.47 366.8 157.978C364.599 159.557 360.048 160.343 355.818 160.343ZM349.046 155.696C350.311 157.199 361.476 157.596 364.804 155.204C366.328 154.111 367.975 145.371 367.032 138.004C366.533 134.123 365.528 132.927 365.187 132.797C360.513 130.993 356.256 130.652 354.582 131.936C352.634 133.952 348.247 152.84 349.046 155.703V155.696Z" fill="#FF7534"/>
<path d="M377.938 174.378C375.43 174.378 370.182 170.797 367.496 168.829C363.97 169.41 360.813 168.508 358.531 166.246C356.344 164.073 355.251 160.848 355.825 158.224C355.846 158.122 355.88 158.026 355.921 157.93C359.72 148.801 360.711 139.672 358.941 130.03C358.77 129.1 359.385 128.212 360.315 128.041C361.244 127.87 362.132 128.485 362.303 129.415C364.182 139.672 363.15 149.375 359.146 159.085C358.934 160.363 359.467 162.358 360.95 163.827C361.989 164.859 363.82 165.932 366.779 165.495C366.84 165.358 366.909 165.221 366.963 165.092C368.713 161.292 369.861 159.256 371.289 158.702C373.571 157.821 378.293 159.618 379.906 161.552C381.484 163.445 381.908 169.766 380.644 172.472C379.831 174.2 378.491 174.392 377.951 174.392L377.938 174.378ZM370.073 166.472C373.223 168.72 376.339 170.558 377.61 170.9C378.232 169.485 377.938 164.716 377.254 163.704C376.421 162.7 373.53 161.743 372.587 161.866C371.883 162.55 370.544 165.447 370.073 166.472Z" fill="#FF7534"/>
<path d="M398.246 104.315C397.365 104.315 396.504 104.158 395.725 103.782C393.306 102.621 391.481 100.209 390.395 98.4183C388.905 99.9353 388.024 100.789 387.778 100.974C387.026 101.541 385.953 101.384 385.386 100.632C384.819 99.8806 384.976 98.8078 385.728 98.2406C385.939 98.0561 387.197 96.7988 388.543 95.4253C385.816 91.8378 381.423 85.4145 382.311 82.2643C383.356 78.5401 395.335 69.7525 399.251 70.6408C400.18 70.8526 402.121 71.3036 405.681 82.688C407.225 87.6148 408.817 93.9903 408.817 96.136C408.817 98.2816 407.136 100.564 404.328 102.334C402.62 103.413 400.358 104.315 398.253 104.315H398.246ZM392.383 94.906C392.937 96.1633 394.843 99.5731 397.201 100.707C398.287 101.227 400.515 100.701 402.503 99.4501C404.383 98.268 405.401 96.8603 405.401 96.1428C405.401 94.8513 404.294 89.8356 402.64 84.4373C400.501 77.4468 398.957 74.6246 398.342 73.9823C395.861 74.0711 386.226 80.9796 385.598 83.2005C385.331 84.4783 388.386 89.7605 392.137 94.5028C392.158 94.5301 392.178 94.5506 392.192 94.578C392.267 94.6873 392.335 94.8035 392.383 94.9196V94.906Z" fill="#FF7534"/>
<path d="M400.071 104.07C399.217 104.07 398.479 103.427 398.376 102.56C397.426 94.3528 393.545 86.8224 386.514 79.5518C385.858 78.8753 385.878 77.7888 386.555 77.1328C387.231 76.4768 388.318 76.4973 388.974 77.1738C396.545 85.0048 400.727 93.1843 401.772 102.163C401.882 103.099 401.212 103.947 400.269 104.056C400.201 104.063 400.132 104.07 400.071 104.07Z" fill="#FF7534"/>
<path d="M436.001 137.717C435.496 137.717 434.99 137.492 434.655 137.061C426.482 126.641 411.927 119.486 393.676 116.924C393.081 116.842 392.582 116.452 392.343 115.905C386.439 102.17 370.852 82.2991 357.104 64.7716C356.523 64.0268 356.653 62.954 357.391 62.3731C358.135 61.7923 359.208 61.9221 359.789 62.6601C373.387 79.9895 388.756 99.5875 395.09 113.678C413.786 116.479 428.765 124.017 437.341 134.95C437.921 135.695 437.792 136.768 437.047 137.348C436.732 137.594 436.363 137.711 435.994 137.711L436.001 137.717Z" fill="#FF7534"/>
<path d="M444.932 165.037C442.95 165.037 441.057 164.34 439.363 162.98C435.105 159.57 432.365 152.122 432.379 144.017C432.393 137.136 435.433 133.542 436.903 131.813C437.811 130.747 439.335 130.282 441.091 130.535C444.125 130.979 448.328 133.651 451.027 139.822C453.186 144.755 455.011 154.773 452.059 160.595C450.918 162.85 449.121 164.312 446.872 164.811C446.223 164.955 445.574 165.03 444.932 165.03V165.037ZM440.148 133.884C439.738 133.884 439.533 133.986 439.499 134.027C438.112 135.66 435.796 138.394 435.789 144.024C435.782 151.022 438.071 157.568 441.495 160.315C442.943 161.477 444.453 161.859 446.121 161.483C447.378 161.203 448.321 160.411 449.004 159.051C451.123 154.869 450.111 146.286 447.891 141.195C445.786 136.385 442.69 134.273 440.675 133.931C440.47 133.897 440.299 133.884 440.148 133.884Z" fill="#FF7534"/>
<path d="M439.199 145.753C437.395 145.753 435.502 145.398 433.507 144.694C432.619 144.38 432.154 143.403 432.468 142.514C432.783 141.626 433.76 141.161 434.648 141.475C439.787 143.307 443.969 142.159 447.433 137.977C448.035 137.253 449.114 137.15 449.839 137.751C450.563 138.353 450.666 139.432 450.064 140.157C446.982 143.881 443.333 145.753 439.192 145.753H439.199Z" fill="#FF7534"/>
<path d="M440.046 156.092C438.488 156.092 436.896 155.921 435.27 155.587C434.347 155.395 433.753 154.493 433.944 153.564C434.135 152.641 435.037 152.047 435.967 152.238C441.495 153.386 446.333 152.3 450.747 148.931C451.499 148.357 452.572 148.5 453.139 149.252C453.713 150.004 453.569 151.077 452.818 151.644C448.943 154.603 444.666 156.085 440.046 156.085V156.092Z" fill="#FF7534"/>
<path d="M414.858 193.026C414.23 193.026 413.628 192.678 413.328 192.083C412.904 191.243 413.246 190.218 414.079 189.794C414.715 189.466 437.654 177.193 450.351 170.394C450.364 168.617 448.95 164.511 448.089 163.643C447.33 163.322 446.893 162.488 447.091 161.661C447.317 160.745 448.239 160.185 449.155 160.404C450.064 160.622 450.843 161.395 451.615 162.823C452.701 164.832 454.369 169.615 453.494 172.075C453.351 172.478 453.063 172.806 452.688 173.011C446.565 176.291 416 192.65 415.61 192.842C415.364 192.965 415.104 193.019 414.845 193.019L414.858 193.026Z" fill="#FF7534"/>
<path d="M371.228 219.204C365.775 219.204 362.112 218.289 359.837 217.401C356.687 216.164 354.684 213.909 354.5 211.36C354.391 209.898 354.807 207.096 358.832 204.779C361.388 203.31 366.117 202.845 371.59 202.312C378.642 201.629 386.63 200.85 390.812 197.837C391.578 197.283 392.644 197.461 393.197 198.226C393.751 198.992 393.573 200.057 392.808 200.611C387.881 204.164 379.401 204.991 371.918 205.715C367.053 206.187 362.454 206.638 360.534 207.738C358.778 208.749 357.821 209.973 357.903 211.1C357.992 212.289 359.208 213.485 361.08 214.216C364.811 215.678 375.991 218.2 399.149 210.048C424.063 201.281 455.408 183.125 457.622 180.699C459.07 178.403 459.057 174.33 457.594 172.745C456.392 171.439 454.267 172.171 452.688 173.018C451.861 173.462 450.823 173.155 450.378 172.321C449.934 171.487 450.242 170.455 451.075 170.004C456.098 167.305 458.893 169.109 460.102 170.428C462.87 173.428 462.576 179.325 460.464 182.598C458.291 185.974 423.51 205.094 400.283 213.273C387.382 217.817 377.945 219.204 371.221 219.204H371.228Z" fill="#FF7534"/>
<path d="M400.686 202.163C396.743 202.163 392.883 201.473 390.252 200.489C386.774 199.183 385.885 192.453 385.755 187.034C385.605 180.733 386.589 168.276 391.4 166.199C397.379 163.623 406.18 162.584 412.938 167.402C417.237 170.463 417.551 178.786 417.489 182.223C417.366 188.858 415.59 197.086 411.989 199.457C409.023 201.411 404.814 202.163 400.686 202.163ZM401.739 167.47C398.445 167.47 395.233 168.269 392.753 169.335C391.133 170.032 388.933 177.242 389.172 186.952C389.343 194.113 390.812 197.051 391.454 197.291C396.142 199.047 405.504 199.634 410.109 196.607C411.907 195.425 413.936 189.562 414.073 182.162C414.182 176.312 412.959 171.611 410.957 170.183C408.196 168.215 404.93 167.47 401.739 167.47Z" fill="#FF7534"/>
<path d="M401.444 181.409C396.668 181.409 391.96 180.452 387.586 179.414C386.671 179.195 386.104 178.273 386.322 177.357C386.541 176.441 387.457 175.867 388.379 176.093C398.916 178.601 406.952 179.195 414.428 174.439C415.227 173.933 416.28 174.166 416.785 174.965C417.291 175.765 417.059 176.817 416.259 177.323C411.455 180.377 406.412 181.416 401.444 181.416V181.409Z" fill="#FF7534"/>
<path d="M397.94 190.696C394.113 190.696 390.457 190.109 386.924 188.94C386.029 188.646 385.544 187.676 385.838 186.781C386.138 185.886 387.102 185.401 387.997 185.694C395.992 188.346 404.814 187.662 414.968 183.603C415.85 183.255 416.841 183.679 417.189 184.553C417.538 185.428 417.114 186.426 416.239 186.774C409.693 189.391 403.632 190.69 397.933 190.69L397.94 190.696Z" fill="#FF7534"/>
<path d="M367.702 228.286C362.68 228.286 359.242 227.664 357.787 226.844C354.808 225.163 353.181 223.127 352.956 220.776C352.717 218.289 354.124 215.665 357.028 213.191C357.746 212.583 358.826 212.665 359.434 213.383C360.049 214.1 359.96 215.18 359.242 215.788C358.094 216.765 356.181 218.678 356.352 220.441C356.495 221.897 358.122 223.1 359.461 223.858C362.208 225.402 383.432 226.865 413.116 213.854C445.869 199.497 459.241 191.215 460.588 189.452C462.077 187.505 462.549 185.742 461.934 184.484C461.401 183.405 460.198 182.913 459.303 182.913C458.36 182.913 457.595 182.147 457.595 181.204C457.595 180.261 458.36 179.496 459.303 179.496C461.681 179.496 463.97 180.89 464.995 182.967C465.706 184.402 466.43 187.423 463.307 191.523C460.56 195.117 440.491 205.586 414.49 216.984C394.584 225.71 377.884 228.279 367.695 228.279L367.702 228.286Z" fill="#FF7534"/>
<path d="M367.736 240.409C362.918 240.409 359.249 239.944 357.506 238.974C354.424 237.252 352.853 234.423 353.201 231.218C353.55 227.945 355.934 225.013 358.989 224.077C359.891 223.804 360.848 224.31 361.121 225.212C361.394 226.114 360.889 227.07 359.987 227.344C358.224 227.883 356.802 229.66 356.597 231.58C356.406 233.391 357.322 234.956 359.173 235.995C364.066 238.735 400.741 235.817 419.662 225.751C456.248 206.297 462.5 199.286 462.972 196.84C463.327 194.995 463.225 193.56 462.678 192.801C462.316 192.295 461.837 192.213 461.79 192.207C460.847 192.145 460.163 191.332 460.225 190.389C460.286 189.446 461.12 188.742 462.07 188.804C462.268 188.817 464.051 188.988 465.35 190.669C466.566 192.248 466.894 194.544 466.327 197.489C465.596 201.288 459.815 208.272 421.268 228.772C407.376 236.159 382.311 240.416 367.736 240.416V240.409Z" fill="#FF7534"/>
<path d="M324.016 251.943C322.328 251.943 320.661 251.793 319.048 251.479C310.78 249.859 305.443 244.229 304.015 235.612C302.245 224.904 305.512 214.545 312.987 207.185C319.732 200.543 328.888 197.318 336.883 198.766C344.188 200.092 350.188 204.903 353.345 211.955C356.926 219.963 356.126 229.53 351.213 237.546C345.951 246.121 334.519 251.95 324.023 251.95L324.016 251.943ZM332.975 201.835C326.907 201.835 320.415 204.65 315.379 209.618C311.457 213.479 305.211 221.918 307.384 235.051C308.894 244.16 314.914 247.187 319.698 248.124C329.859 250.112 342.958 244.447 348.288 235.748C352.614 228.696 353.338 220.319 350.215 213.342C347.53 207.329 342.439 203.242 336.262 202.122C335.189 201.923 334.089 201.835 332.968 201.835H332.975Z" fill="#FF7534"/>
<path d="M351.165 202.149C350.632 202.149 350.106 201.903 349.771 201.432C344.134 193.525 334.676 191.065 320.019 193.689C319.096 193.853 318.201 193.238 318.037 192.309C317.873 191.38 318.488 190.491 319.418 190.327C335.305 187.485 346.143 190.464 352.552 199.45C353.099 200.215 352.921 201.288 352.156 201.835C351.855 202.047 351.507 202.149 351.165 202.149Z" fill="#FF7534"/>
<path d="M326.872 238.543C325.772 238.543 324.665 238.372 323.613 238.031C320.497 237.006 318.242 234.641 317.429 231.532C316.219 226.913 319.697 220.346 323.606 216.909C326.729 214.162 330.057 213.308 332.968 214.49C335.872 215.665 337.778 218.385 338.339 222.13C339.118 227.357 337.163 233.364 333.788 236.104C331.813 237.703 329.339 238.55 326.872 238.55V238.543ZM330.323 217.387C328.54 217.387 326.825 218.617 325.854 219.471C322.424 222.485 319.978 227.815 320.729 230.664C321.249 232.66 322.649 234.115 324.672 234.778C327.002 235.543 329.674 235.031 331.635 233.439C334.061 231.471 335.551 226.619 334.956 222.622C334.69 220.852 333.911 218.549 331.683 217.64C331.232 217.456 330.781 217.38 330.33 217.38L330.323 217.387Z" fill="#FF7534"/>
<path d="M328.847 228.348C328.239 228.348 327.754 228.102 327.494 227.972C327.412 227.931 327.323 227.883 327.214 227.842C326.148 227.425 325.512 226.209 325.635 224.822C325.758 223.359 326.688 222.239 327.993 221.972C329.23 221.719 330.439 222.348 331.088 223.564C331.71 224.726 331.785 226.441 330.747 227.466C330.063 228.136 329.407 228.341 328.854 228.341L328.847 228.348ZM328.184 225.252C328.307 225.314 328.485 225.362 328.676 225.327L328.601 224.958C328.485 224.986 328.382 225.02 328.314 225.068C328.252 225.129 328.211 225.198 328.184 225.252ZM328.608 224.958L328.683 225.327C328.84 225.293 328.956 225.198 329.018 225.122C328.99 225.068 328.943 224.999 328.874 224.931C328.792 224.931 328.69 224.938 328.608 224.958Z" fill="#FF7534"/>
<path d="M288.907 239.657C278.472 239.657 267.068 238.591 254.446 236.445C253.517 236.288 252.888 235.406 253.046 234.477C253.203 233.548 254.084 232.926 255.014 233.076C274.516 236.39 291.018 237.087 305.478 235.222C306.414 235.106 307.268 235.762 307.391 236.698C307.514 237.634 306.851 238.488 305.915 238.611C300.53 239.308 294.872 239.657 288.9 239.657H288.907Z" fill="#FF7534"/>
<path d="M395.007 168.433C394.372 168.433 393.764 168.078 393.47 167.463C390.053 160.377 378.71 153.058 368.064 146.833C367.25 146.355 366.977 145.309 367.449 144.496C367.927 143.683 368.972 143.41 369.786 143.881C381.436 150.694 392.746 158.088 396.552 165.98C396.962 166.828 396.606 167.853 395.752 168.263C395.513 168.379 395.26 168.433 395.014 168.433H395.007Z" fill="#FF7534"/>
<path d="M349.717 142.329C349.717 142.329 349.696 142.329 349.689 142.329C349.361 142.329 341.585 142.145 335.824 138.141C332.893 136.097 322.472 125.232 311.436 113.725C301.774 103.646 291.784 93.225 288.654 90.7308C282.326 85.6878 270.812 82.0183 270.696 81.9842C269.794 81.6972 269.295 80.7405 269.582 79.8385C269.869 78.9365 270.826 78.4377 271.721 78.7247C272.22 78.8818 283.953 82.6128 290.779 88.059C294.08 90.6898 303.708 100.728 313.896 111.354C323.839 121.727 335.114 133.487 337.765 135.332C342.658 138.735 349.676 138.913 349.744 138.913C350.687 138.933 351.439 139.712 351.418 140.648C351.404 141.578 350.639 142.323 349.71 142.323L349.717 142.329Z" fill="#FF7534"/>
<path d="M291.947 239.622C291.182 239.622 290.485 239.103 290.294 238.324C288.708 231.928 293.355 223.899 298.275 215.398C301.213 210.321 304.254 205.073 306.229 199.839C311.395 186.158 310.274 112.577 310.261 111.839C310.247 110.896 310.999 110.117 311.942 110.103C312.905 110.076 313.664 110.841 313.677 111.784C313.725 114.839 314.825 186.76 309.427 201.048C307.35 206.542 304.24 211.913 301.234 217.106C296.669 224.992 292.357 232.44 293.608 237.504C293.833 238.42 293.28 239.349 292.357 239.574C292.221 239.609 292.084 239.622 291.947 239.622Z" fill="#FF7534"/>
<path d="M280.153 195.008C278.623 195.008 277.42 194.318 276.73 193.033C276.074 191.803 276.347 189.876 276.955 185.66C277.618 181.061 278.616 174.112 278.506 165.761C278.363 155.368 277.905 143.478 277.461 131.984C276.265 101.029 276.313 95.3164 277.782 93.7994C278.424 93.1366 279.279 92.7744 280.256 92.7607C280.276 92.7607 280.297 92.7607 280.317 92.7607C283.782 92.7607 288.64 97.2024 294.613 103.004C295.808 104.166 296.936 105.259 297.831 106.065C298.76 106.899 301.596 109.448 301.76 141.728C301.835 156.406 301.193 174.323 300.12 177.597C298.46 182.667 286.72 194.448 280.625 194.981C280.468 194.994 280.31 195.001 280.153 195.001V195.008ZM279.784 191.489C279.839 191.557 279.962 191.612 280.324 191.578C282.237 191.414 285.921 189.022 289.713 185.482C293.301 182.134 296.246 178.451 296.874 176.531C297.633 174.221 298.426 159.003 298.35 142.084C298.241 117.928 296.533 109.66 295.535 108.587C294.599 107.746 293.451 106.632 292.235 105.45C289.775 103.065 282.381 95.9041 280.358 96.1501C279.62 99.2456 280.283 116.534 280.878 131.847C281.322 143.368 281.78 155.279 281.923 165.713C282.039 174.33 281.014 181.437 280.338 186.145C280.01 188.434 279.668 190.799 279.784 191.489Z" fill="#FF7534"/>
<path d="M269.52 236.664L266.104 236.623C266.124 235.215 267.873 95.8834 267.976 88.8929C268.085 81.2874 269.042 75.3834 280.057 74.3858C280.754 74.3243 281.643 74.2423 282.688 74.1534C296.177 72.9644 337.225 69.3359 354.267 63.6643C359.228 62.0106 362.044 59.7624 362.638 56.9744C363.718 51.8973 357.493 45.8976 356.228 44.7428C355.613 44.1824 340.97 30.9873 321.296 29.1696C311.272 28.2403 295.542 30.4474 277.324 32.9963C262.147 35.1214 244.948 37.5268 229.115 38.2443C214.403 38.9071 199.54 38.9208 183.803 38.9413C162.893 38.9618 141.265 38.9823 117.403 40.5198C68.839 43.6494 50.2591 49.3348 44.526 51.6308C40.2005 53.3664 32.9366 59.5848 27.2103 69.1514C22.304 77.3446 16.7758 90.8951 18.3133 108.935C21.3063 144.017 25.7275 186.036 28.1806 202.606C30.4083 217.681 33.825 219.136 41.3075 222.327C42.0181 222.635 42.763 222.949 43.5351 223.291C52.1315 227.09 83.0181 225.573 83.3256 225.56C84.255 225.525 85.0681 226.236 85.116 227.179C85.1638 228.122 84.4395 228.922 83.4965 228.969C82.1913 229.038 51.4823 230.541 42.148 226.414C41.3895 226.079 40.6583 225.765 39.9613 225.471C31.4128 221.829 27.1966 219.355 24.7913 203.112C22.2903 186.2 17.9443 144.96 14.8966 109.229C12.054 75.8891 32.2943 52.8608 43.2413 48.4669C49.1316 46.1094 68.1146 40.2738 117.171 37.1168C141.149 35.5724 162.825 35.5519 183.789 35.5314C199.485 35.5178 214.314 35.5041 228.951 34.8413C244.626 34.1306 261.744 31.7389 276.839 29.6206C295.268 27.0444 311.183 24.8099 321.604 25.7803C342.056 27.6731 356.898 40.7521 358.524 42.2349C360.629 44.1619 367.401 50.9679 365.966 57.6988C365.105 61.7578 361.524 64.8601 355.333 66.9169C337.915 72.7116 296.567 76.3674 282.982 77.5701C281.936 77.6589 281.055 77.7409 280.358 77.8024C271.926 78.5678 271.481 82.1553 271.386 88.9613C271.283 95.9518 269.534 235.277 269.513 236.684L269.52 236.664Z" fill="#FF7534"/>
<path d="M249.383 240.47C249.164 240.47 248.945 240.456 248.727 240.429C246.349 240.114 243.451 238.057 243.144 230.021C242.823 221.692 241.729 189.315 241.032 158.709C239.632 97.2088 240.95 94.7283 241.518 93.6691C243.636 89.6921 249.711 82.1276 254.262 81.2324C255.909 80.9044 257.009 81.4648 257.651 81.9909C258.813 82.9544 261.211 86.2344 261.956 91.7763C263.377 102.347 263.316 121.365 261.778 151.629C261.034 166.225 260.931 181.006 260.835 194.051C260.712 211.469 260.617 225.231 258.997 230.459C257.432 235.536 253.476 240.476 249.383 240.476V240.47ZM255.212 84.5466C255.136 84.5466 255.048 84.5534 254.931 84.5808C252.157 85.1274 246.807 91.0178 244.538 95.2749C242.549 100.537 245.18 193.709 246.567 229.885C246.759 234.935 248.043 236.889 249.178 237.039C251.071 237.285 254.33 234.019 255.745 229.447C257.214 224.698 257.309 210.485 257.426 194.023C257.514 180.944 257.624 166.123 258.369 151.452C259.879 121.816 259.947 102.443 258.574 92.2273C257.945 87.5601 255.943 85.0044 255.478 84.6218C255.451 84.6013 255.389 84.5466 255.212 84.5466Z" fill="#FF7534"/>
<path d="M213.241 84.6633C212.374 84.6633 211.629 84.0005 211.54 83.119C211.451 82.1828 212.134 81.3423 213.077 81.2535C213.303 81.233 235.744 79.0668 244.675 78.117C254.761 77.0442 256.756 81.7318 256.954 82.2717L253.743 83.4333L253.77 83.5017C253.77 83.5017 252.376 80.7342 245.037 81.5132C236.092 82.4698 213.631 84.636 213.405 84.6565C213.351 84.6565 213.296 84.6633 213.241 84.6633Z" fill="#FF7534"/>
<path d="M243.082 166.547C242.494 166.547 241.913 166.24 241.599 165.693C241.127 164.873 241.408 163.827 242.228 163.363L259.044 153.666C259.858 153.195 260.903 153.475 261.375 154.295C261.846 155.115 261.566 156.16 260.746 156.625L243.929 166.322C243.663 166.479 243.369 166.547 243.075 166.547H243.082Z" fill="#FF7534"/>
<path d="M200.1 240.32C198.46 240.32 197.312 239.896 196.608 238.994C194.428 236.179 194.688 228.819 194.77 227.213C194.743 224.056 193.615 103.79 193.615 93.4234C193.615 90.1707 194.394 79.5518 204.46 79.5518C205.519 79.5518 214.84 79.6747 216.486 83.9319C217.71 87.0957 223.702 221.378 223.709 222.594V222.881C223.737 226.653 223.771 232.967 217.901 235.133C217.402 235.318 216.821 235.536 216.179 235.775C208.628 238.625 203.387 240.32 200.107 240.32H200.1ZM199.253 236.821C200.599 237.436 205.888 236.008 214.969 232.584C215.619 232.338 216.206 232.12 216.712 231.928C220.06 230.691 220.313 227.111 220.286 222.901V222.614C220.252 215.521 214.184 90.5398 213.254 85.0936C212.714 84.1233 208.655 82.9684 204.453 82.9684C201.064 82.9684 197.025 84.7792 197.025 93.4234C197.025 103.865 198.173 226.004 198.18 227.234C198.18 227.268 198.18 227.309 198.18 227.343C198.016 230.343 198.248 235.359 199.246 236.821H199.253Z" fill="#FF7534"/>
<path d="M195.946 171.145C195.515 171.145 195.085 170.981 194.75 170.66C194.073 169.997 194.066 168.918 194.722 168.241C202.041 160.759 210.562 152.818 218.277 150.618C219.186 150.358 220.129 150.885 220.388 151.793C220.648 152.702 220.122 153.645 219.213 153.905C212.264 155.887 204.166 163.472 197.162 170.633C196.827 170.975 196.383 171.145 195.939 171.145H195.946Z" fill="#FF7534"/>
<path d="M244.852 235.652C244.784 235.652 244.722 235.652 244.654 235.639L220.245 232.789C219.309 232.68 218.64 231.832 218.749 230.896C218.858 229.96 219.706 229.284 220.642 229.4L245.05 232.249C245.987 232.359 246.656 233.206 246.547 234.142C246.444 235.01 245.707 235.652 244.852 235.652Z" fill="#FF7534"/>
<path d="M196.52 233.712C196.52 233.712 196.472 233.712 196.452 233.712C185.566 233.289 174.305 232.592 164.369 231.97C152.418 231.225 142.099 230.576 135.054 230.555C134.111 230.555 133.346 229.783 133.353 228.84C133.353 227.897 134.118 227.139 135.061 227.139C142.209 227.159 152.575 227.808 164.574 228.56C174.489 229.182 185.73 229.879 196.575 230.303C197.518 230.337 198.256 231.129 198.215 232.072C198.18 232.995 197.422 233.712 196.506 233.712H196.52Z" fill="#FF7534"/>
<path d="M244.456 220.277C244.456 220.277 244.408 220.277 244.381 220.277L222.712 219.382C222.118 219.355 221.585 219.027 221.291 218.514C220.997 218.002 220.997 217.366 221.291 216.847L226.99 206.549C227.277 206.037 227.803 205.702 228.391 205.668L243.971 204.841C244.948 204.786 245.72 205.517 245.768 206.453C245.816 207.396 245.091 208.203 244.155 208.251L229.525 209.03L225.623 216.082L244.531 216.867C245.474 216.908 246.205 217.701 246.164 218.644C246.123 219.56 245.371 220.284 244.456 220.284V220.277Z" fill="#FF7534"/>
<path d="M228.486 209.077C227.974 209.077 227.475 208.852 227.133 208.414L219.555 198.643C219.166 198.144 219.09 197.474 219.343 196.9C219.603 196.326 220.156 195.937 220.785 195.896L242.959 194.372C243.895 194.31 244.715 195.021 244.784 195.957C244.845 196.9 244.135 197.713 243.198 197.782L224.222 199.087L229.839 206.323C230.42 207.068 230.283 208.141 229.539 208.722C229.224 208.961 228.855 209.077 228.493 209.077H228.486Z" fill="#FF7534"/>
<path d="M220.908 199.313C220.642 199.313 220.375 199.251 220.122 199.122C219.282 198.691 218.954 197.659 219.391 196.819L225.767 184.471C226.197 183.63 227.229 183.302 228.069 183.74C228.91 184.17 229.238 185.202 228.801 186.043L222.425 198.39C222.124 198.978 221.523 199.313 220.908 199.313Z" fill="#FF7534"/>
<path d="M243.082 186.965C243.082 186.965 243.048 186.965 243.034 186.965L220.259 186.309C219.316 186.282 218.571 185.496 218.598 184.553C218.626 183.61 219.432 182.865 220.355 182.892L243.13 183.548C244.073 183.576 244.818 184.361 244.791 185.304C244.763 186.234 244.005 186.965 243.082 186.965Z" fill="#FF7534"/>
<path d="M107.304 252.36C103.163 252.36 98.735 251.322 93.9517 248.834C79.9434 241.543 80.6677 226.51 83.0115 219.574C84.6037 214.859 93.8697 201.165 108.083 201.165C120.93 201.165 126.772 207.151 130.647 211.108C131.173 211.647 131.672 212.16 132.157 212.618C134.842 215.173 136.599 222.014 136.243 228.519C135.895 234.874 133.653 239.944 129.929 242.787C123.185 247.939 115.859 252.354 107.311 252.354L107.304 252.36ZM108.076 204.589C95.6053 204.589 87.4395 217.128 86.2437 220.674C85.5877 222.622 84.672 227.186 85.41 231.936C86.3803 238.154 89.7833 242.821 95.5233 245.807C109.149 252.893 119.351 246.566 127.845 240.081C131.781 237.074 132.649 231.437 132.82 228.341C133.141 222.451 131.508 216.738 129.786 215.098C129.273 214.613 128.747 214.073 128.194 213.499C124.517 209.741 119.481 204.589 108.076 204.589Z" fill="#FF7534"/>
<path d="M143.951 221.439C143.124 221.439 142.4 220.838 142.263 219.997C140.288 207.404 133.653 199.907 121.387 196.402C120.478 196.142 119.952 195.199 120.212 194.29C120.471 193.382 121.414 192.855 122.323 193.115C135.833 196.976 143.452 205.593 145.632 219.464C145.775 220.394 145.14 221.268 144.21 221.419C144.122 221.432 144.033 221.439 143.944 221.439H143.951Z" fill="#FF7534"/>
<path d="M20.9849 211.839C17.5409 211.839 14.6367 209.263 14.6367 206.208V198.234C14.6367 194.523 16.4886 191.749 19.7207 190.635C22.1944 189.781 25.1737 190.512 25.5017 190.594C26.4174 190.833 26.9641 191.763 26.7249 192.678C26.4857 193.587 25.5564 194.134 24.6476 193.901C24.0189 193.744 22.1124 193.423 20.8346 193.86C18.9896 194.496 18.0534 195.972 18.0534 198.234V206.208C18.0534 207.349 19.4816 208.422 20.9849 208.422C23.2672 208.422 27.6679 208.08 27.7089 208.08C28.6519 207.998 29.4719 208.709 29.5471 209.652C29.6222 210.595 28.9184 211.415 27.9754 211.49C27.7909 211.504 23.4039 211.846 20.9849 211.846V211.839Z" fill="#FF7534"/>
<path d="M183.946 193.04C174.4 193.04 158.43 192.035 132.641 188.024C96.7733 182.448 93.9716 182.038 83.5713 180.528C79.239 179.899 73.5946 179.079 63.659 177.61C30.326 172.676 22.2695 170.585 21.9415 170.496C21.0326 170.257 20.486 169.321 20.7251 168.405C20.9643 167.496 21.9073 166.95 22.8161 167.189C22.9323 167.216 31.2143 169.348 64.1578 174.221C74.0866 175.69 79.731 176.51 84.0565 177.138C94.4773 178.648 97.2721 179.059 133.161 184.641C182.655 192.336 195.508 188.782 195.631 188.748C196.533 188.482 197.483 188.987 197.756 189.883C198.03 190.778 197.538 191.728 196.642 192.008C196.39 192.09 193.171 193.033 183.939 193.033L183.946 193.04Z" fill="#FF7534"/>
<path d="M196.137 180.009C196.137 180.009 196.082 180.009 196.055 180.009C195.474 179.982 137.719 177.146 100.094 173.032C77.3803 170.552 60.2559 166.93 46.5004 164.026C37.0158 162.024 28.8226 160.295 20.9984 159.359C20.0623 159.249 19.3926 158.395 19.5019 157.459C19.6113 156.523 20.4586 155.86 21.4016 155.963C29.3761 156.919 37.6376 158.662 47.2043 160.684C60.8914 163.575 77.9201 167.176 100.463 169.636C137.985 173.743 195.638 176.565 196.219 176.592C197.162 176.64 197.886 177.44 197.845 178.383C197.797 179.298 197.046 180.009 196.137 180.009Z" fill="#FF7534"/>
<path d="M151.837 75.9305C111.596 75.9305 77.4015 73.1493 47.3759 67.5528C46.4465 67.382 45.8384 66.4868 46.0092 65.5575C46.18 64.6282 47.0752 64.02 48.0045 64.1908C99.0974 73.7165 162.449 75.0285 247.36 68.3113C248.296 68.2362 249.123 68.94 249.198 69.8762C249.274 70.8192 248.57 71.6392 247.634 71.7143C212.196 74.516 180.482 75.9305 151.837 75.9305Z" fill="#FF7534"/>
<path d="M43.2685 140.629C42.5305 140.629 41.7583 140.588 40.9383 140.506C37.9522 140.205 35.7723 139.173 34.4672 137.437C32.6837 135.073 32.9502 132.06 33.3807 129.702C33.8317 127.215 35.8338 103.51 36.9067 90.7794C37.3372 85.6817 37.6447 81.9986 37.7335 81.0897C38.1572 76.7779 40.0773 75.8007 43.7058 75.4249C46.6715 75.1174 50.8535 76.1287 53.621 76.7984C53.9763 76.8872 54.3112 76.9624 54.6118 77.0376C58.3907 77.9259 58.3838 82.3266 58.377 84.9574V85.2991C58.377 87.9231 55.4045 125.472 54.0925 131.574C52.76 137.765 49.3843 140.629 43.2617 140.629H43.2685ZM44.9222 78.7869C44.6215 78.7869 44.3345 78.8006 44.0612 78.8279C41.5943 79.0807 41.362 79.1696 41.1365 81.4314C41.0477 82.3129 40.7265 86.1737 40.3097 91.0664C38.7517 109.585 37.1868 127.871 36.7427 130.317C36.4352 131.991 36.2097 134.082 37.1937 135.387C37.9043 136.33 39.2778 136.904 41.2732 137.109C47.1567 137.697 49.6372 136.064 50.751 130.864C51.9468 125.301 54.9603 88.1349 54.9603 85.2991V84.9506C54.9603 82.5931 54.8852 80.6182 53.8328 80.3654C53.5253 80.2902 53.1837 80.2082 52.8147 80.1194C50.5597 79.5727 47.2865 78.7801 44.9085 78.7801L44.9222 78.7869Z" fill="#FF7534"/>
<path d="M54.1611 97.9331C48.4689 97.9331 42.9202 96.2453 37.6517 92.9038C36.8522 92.3981 36.6199 91.3458 37.1256 90.5463C37.6312 89.7468 38.6904 89.5144 39.4831 90.0201C44.7789 93.3753 50.1294 94.8239 55.8147 94.4618C56.7372 94.3934 57.5709 95.1178 57.6324 96.0539C57.6939 96.9969 56.9764 97.8101 56.0402 97.8716C55.4116 97.9126 54.7897 97.9331 54.1679 97.9331H54.1611Z" fill="#FF7534"/>
<path d="M75.5085 148.363C74.7022 148.363 73.8617 148.336 72.9938 148.302C72.0098 148.268 70.9985 148.234 69.9257 148.234C60.8442 148.234 59.3887 145.336 59.3887 136.029C59.3887 131.601 60.318 120.196 61.1312 110.76C61.6437 104.821 62.0127 99.013 62.3065 94.3459C62.573 90.1024 62.7712 87.0342 62.9625 85.5924C63.3657 82.5037 65.0808 78.759 70.9165 78.4584L71.4495 78.4242C74.6065 78.1919 79.1302 78.0074 82.007 79.1485C85.7107 80.6109 87.7197 82.6062 87.7197 88.927C87.7197 91.3734 87.1593 98.7124 86.517 107.22C85.6697 118.324 84.6242 132.148 84.6242 138.045C84.6242 142.138 83.8452 144.796 82.1642 146.416C80.4627 148.056 78.1735 148.377 75.5153 148.377L75.5085 148.363ZM75.5905 81.6632C74.4357 81.6632 73.1442 81.7179 71.6955 81.8204L71.0873 81.8614C68.8938 81.9775 66.796 82.5584 66.345 86.0297C66.1673 87.3622 65.9692 90.5329 65.7163 94.5577C65.4225 99.2385 65.0535 105.067 64.541 111.047C63.7962 119.691 62.8122 131.676 62.8122 136.029C62.8122 144.161 63.3452 144.817 69.9325 144.817C71.06 144.817 72.1055 144.851 73.1168 144.885C76.185 144.995 78.6108 145.077 79.7862 143.942C80.736 143.027 81.2007 141.093 81.2007 138.031C81.2007 132.004 82.212 118.693 83.1072 106.947C83.7495 98.5142 84.303 91.2299 84.303 88.9134C84.303 83.9387 83.1482 83.2622 80.7497 82.3124C79.6495 81.875 77.9207 81.6564 75.5905 81.6564V81.6632Z" fill="#FF7534"/>
<path d="M85.3142 102.047C85.3142 102.047 85.2459 102.047 85.2117 102.047C76.8204 101.562 69.6795 100.352 63.386 98.3501C62.484 98.0631 61.992 97.0996 62.279 96.2044C62.566 95.3024 63.5295 94.8104 64.4247 95.0974C70.438 97.0107 77.3055 98.1724 85.4099 98.6371C86.3529 98.6917 87.0704 99.4981 87.0157 100.441C86.961 101.35 86.2094 102.054 85.3142 102.054V102.047Z" fill="#FF7534"/>
<path d="M108.513 153.276C106.634 153.276 104.406 153.085 101.741 152.832C90.9516 151.807 90.5074 148.315 90.5416 140.512V139.535C90.5621 131.642 93.5619 92.7809 94.0266 87.5056C94.5322 81.7383 95.4821 80.0982 101.167 79.5857C105.636 79.1826 115.688 80.9114 117.465 82.3874C118.51 83.2621 118.791 83.4944 117.738 118.618C117.41 129.606 117.096 139.992 117.212 143.45C117.342 147.386 116.665 149.832 115.025 151.377C113.502 152.812 111.431 153.276 108.513 153.276ZM102.835 82.9341C102.35 82.9341 101.892 82.9546 101.475 82.9887C99.0377 83.2074 97.6892 84.8132 97.4296 87.8062C96.9649 93.0611 93.9787 131.738 93.9651 139.548V140.532C93.9309 147.42 93.9241 148.664 102.069 149.436C107.741 149.976 111.294 150.208 112.688 148.896C113.543 148.09 113.898 146.402 113.802 143.573C113.686 139.999 114 129.565 114.328 118.522C114.711 105.737 115.23 88.5101 114.889 84.8611C112.982 84.1572 106.901 82.9409 102.842 82.9409L102.835 82.9341Z" fill="#FF7534"/>
<path d="M108.042 106.359C103.149 106.359 98.4412 105.471 93.9722 103.687C93.0975 103.339 92.667 102.348 93.0155 101.466C93.364 100.592 94.3548 100.161 95.2363 100.51C101.701 103.079 108.725 103.612 116.119 102.088C117.042 101.897 117.944 102.491 118.135 103.421C118.326 104.343 117.732 105.245 116.802 105.436C113.83 106.045 110.905 106.352 108.042 106.352V106.359Z" fill="#FF7534"/>
<path d="M153.128 156.29C141.709 156.29 134.117 155.996 130.571 155.422C126.628 154.78 122.091 152.135 122.877 143.17C123.068 140.997 123.362 132.298 123.676 123.094C124.291 105.006 124.763 92.0362 125.22 89.911C126.355 84.6562 129.71 81.9912 135.183 81.9912C140.657 81.9912 151.583 81.9912 155.526 82.8795C159.988 83.8909 162.066 86.6174 162.066 91.4622V147.66C162.066 156.297 155.567 156.297 153.121 156.297L153.128 156.29ZM135.19 85.4079C131.336 85.4079 129.355 86.9727 128.562 90.6285C128.131 92.617 127.53 110.295 127.093 123.203C126.765 132.859 126.478 141.195 126.28 143.464C125.685 150.277 128.555 151.63 131.124 152.047C133.441 152.422 139.133 152.873 153.135 152.873C156.879 152.873 158.663 152.094 158.663 147.653V91.4554C158.663 88.2232 157.645 86.8497 154.788 86.2074C151.214 85.401 140.397 85.401 135.197 85.401L135.19 85.4079Z" fill="#FF7534"/>
<path d="M155.075 110.316C145.304 110.316 135.607 108.99 125.596 106.304C124.687 106.058 124.148 105.122 124.387 104.213C124.626 103.305 125.569 102.765 126.478 103.004C137.971 106.093 149.021 107.323 160.275 106.769C161.239 106.728 162.018 107.452 162.066 108.389C162.114 109.332 161.382 110.131 160.446 110.179C158.649 110.268 156.859 110.309 155.075 110.309V110.316Z" fill="#FF7534"/>
<path d="M185.962 161.668C184.425 161.668 182.778 161.565 181.056 161.319C172.289 160.048 171.551 154.821 170.902 150.215C170.847 149.846 170.799 149.477 170.738 149.101C170.348 146.525 169.337 131.28 169.945 116.328C170.355 106.331 171.701 96.7577 172.35 92.1521C172.521 90.9631 172.651 90.0201 172.692 89.6101C173.252 83.7129 177.619 83.7266 179.724 83.7197H179.853C182.218 83.7197 192.516 84.9019 196.595 86.5692C197.47 86.9246 197.887 87.9222 197.531 88.7969C197.176 89.6716 196.178 90.0884 195.303 89.7331C191.654 88.2434 181.76 87.1364 179.86 87.1364H179.662C177.373 87.1364 176.348 87.2662 176.095 89.9312C176.047 90.4164 175.924 91.2911 175.74 92.6236C175.097 97.1746 173.765 106.632 173.369 116.458C172.795 130.501 173.703 145.821 174.12 148.575C174.182 148.958 174.236 149.34 174.284 149.723C174.927 154.274 175.316 157.021 181.548 157.93C189.092 159.023 195.208 156.871 195.269 156.85C196.158 156.529 197.135 156.994 197.456 157.875C197.777 158.763 197.319 159.741 196.431 160.062C196.205 160.144 191.942 161.661 185.962 161.661V161.668Z" fill="#FF7534"/>
<path d="M188.443 109.782C183.223 109.782 177.817 108.614 171.886 106.243C171.011 105.894 170.581 104.897 170.936 104.022C171.285 103.147 172.282 102.724 173.157 103.072C181.241 106.304 188.204 107.131 195.058 105.662C195.974 105.464 196.889 106.051 197.087 106.974C197.286 107.896 196.698 108.805 195.775 109.003C193.35 109.523 190.924 109.782 188.45 109.782H188.443Z" fill="#FF7534"/>
<path d="M104.358 237.087C103.019 237.087 101.769 236.807 100.716 236.247C98.4681 235.051 95.9739 232.256 95.4887 228.723C95.1812 226.495 95.5571 223.127 99.0967 219.744C103.128 215.883 107.727 214.243 111.404 215.357C113.529 215.999 115.367 217.551 116.46 219.601C117.554 221.664 117.759 224.063 117.041 226.352C115.046 232.748 110.912 235.269 108.629 236.206C107.201 236.793 105.732 237.087 104.358 237.087ZM109.019 218.425C106.757 218.425 103.996 219.785 101.461 222.211C99.4589 224.131 98.5842 226.161 98.878 228.258C99.1992 230.582 100.887 232.468 102.329 233.233C103.245 233.718 105.103 233.964 107.338 233.049C109.067 232.338 112.203 230.39 113.788 225.334C114.356 223.523 113.918 222.088 113.447 221.2C112.791 219.963 111.663 218.999 110.42 218.623C109.982 218.494 109.518 218.425 109.026 218.425H109.019Z" fill="#FF7534"/>
<path d="M105.137 229.284C104.276 229.284 103.504 228.901 102.582 227.91C101.885 227.158 101.707 226.147 102.117 225.218C102.752 223.755 104.782 222.737 106.203 222.737C107.515 222.737 108.622 223.776 108.889 225.266C109.176 226.858 108.41 228.334 107.03 228.853C106.313 229.126 105.704 229.29 105.13 229.29L105.137 229.284Z" fill="#FF7534"/>
</svg>
