<svg width="356" height="90" viewBox="0 0 356 90" fill="none" xmlns="http://www.w3.org/2000/svg">
<mask id="path-1-outside-1_1410_8667" maskUnits="userSpaceOnUse" x="0" y="0" width="356" height="90" fill="black">
<rect fill="white" width="356" height="90"/>
<path d="M178 1C187.418 1 196.144 3.96087 203.301 9H319C338.882 9.00001 355 25.1178 355 45C355 64.8823 338.882 81 319 81H203.301C196.144 86.0391 187.418 89 178 89C168.582 89 159.856 86.0391 152.699 81H37C17.1178 81 1 64.8822 1 45C1 25.1177 17.1177 9 37 9H152.699C159.856 3.96087 168.582 1 178 1Z"/>
</mask>
<path d="M178 1C187.418 1 196.144 3.96087 203.301 9H319C338.882 9.00001 355 25.1178 355 45C355 64.8823 338.882 81 319 81H203.301C196.144 86.0391 187.418 89 178 89C168.582 89 159.856 86.0391 152.699 81H37C17.1178 81 1 64.8822 1 45C1 25.1177 17.1177 9 37 9H152.699C159.856 3.96087 168.582 1 178 1Z" fill="transparent"/>
<path d="M203.301 9L202.725 9.81766L202.984 10H203.301V9ZM319 9V8V8V9ZM203.301 81V80H202.984L202.725 80.1823L203.301 81ZM152.699 81L153.275 80.1823L153.016 80H152.699V81ZM37 81V82V82V81ZM152.699 9V10H153.016L153.275 9.81766L152.699 9ZM178 1V2C187.205 2 195.731 4.89321 202.725 9.81766L203.301 9L203.876 8.18234C196.557 3.02853 187.631 0 178 0V1ZM203.301 9V10H319V9V8H203.301V9ZM319 9V10C338.33 10 354 25.67 354 45H355H356C356 24.5655 339.435 8.00001 319 8V9ZM355 45H354C354 64.33 338.33 80 319 80V81V82C339.435 82 356 65.4345 356 45H355ZM319 81V80H203.301V81V82H319V81ZM203.301 81L202.725 80.1823C195.731 85.1068 187.205 88 178 88V89V90C187.631 90 196.557 86.9715 203.876 81.8177L203.301 81ZM178 89V88C168.795 88 160.269 85.1068 153.275 80.1823L152.699 81L152.124 81.8177C159.443 86.9715 168.369 90 178 90V89ZM152.699 81V80H37V81V82H152.699V81ZM37 81V80C17.67 80 2 64.33 2 45H1H0C0 65.4345 16.5655 82 37 82V81ZM1 45H2C2 25.67 17.67 10 37 10V9V8C16.5655 8 0 24.5655 0 45H1ZM37 9V10H152.699V9V8H37V9ZM152.699 9L153.275 9.81766C160.269 4.89321 168.795 2 178 2V1V0C168.369 0 159.443 3.02853 152.124 8.18234L152.699 9Z" fill="#D1CFC8" mask="url(#path-1-outside-1_1410_8667)"/>
</svg>
